<svg width="15" height="15" viewBox="0 0 15 15" fill="none" xmlns="http://www.w3.org/2000/svg">
              <path d="M8.5605 7.5L10.6823 5.379C10.7519 5.30932 10.8072 5.22659 10.8449 5.13555C10.8826 5.0445 10.902 4.94692 10.902 4.84838C10.902 4.74983 10.8826 4.65225 10.8449 4.5612C10.8072 4.47016 10.7519 4.38743 10.6823 4.31775C10.6126 4.24807 10.5298 4.19279 10.4388 4.15508C10.3478 4.11737 10.2502 4.09796 10.1516 4.09796C10.0531 4.09796 9.9555 4.11737 9.86445 4.15508C9.77341 4.19279 9.69068 4.24807 9.621 4.31775L7.5 6.4395L5.379 4.31775C5.23827 4.17702 5.0474 4.09796 4.84838 4.09796C4.64935 4.09796 4.45848 4.17702 4.31775 4.31775C4.17702 4.45848 4.09796 4.64935 4.09796 4.84838C4.09796 4.94692 4.11737 5.0445 4.15508 5.13555C4.19279 5.22659 4.24807 5.30932 4.31775 5.379L6.4395 7.5L4.31775 9.621C4.17702 9.76173 4.09796 9.9526 4.09796 10.1516C4.09796 10.3506 4.17702 10.5415 4.31775 10.6823C4.45848 10.823 4.64935 10.902 4.84838 10.902C5.0474 10.902 5.23827 10.823 5.379 10.6823L7.5 8.5605L9.621 10.6823C9.76173 10.823 9.9526 10.902 10.1516 10.902C10.3506 10.902 10.5415 10.823 10.6823 10.6823C10.823 10.5415 10.902 10.3506 10.902 10.1516C10.902 9.9526 10.823 9.76173 10.6823 9.621L8.5605 7.5ZM7.5 15C3.35775 15 0 11.6422 0 7.5C0 3.35775 3.35775 0 7.5 0C11.6422 0 15 3.35775 15 7.5C15 11.6422 11.6422 15 7.5 15Z" fill="#FB3230"></path>
            </svg>