<svg width="15" height="15" viewBox="0 0 15 15" fill="none" xmlns="http://www.w3.org/2000/svg">
              <path d="M7.5 15C11.6421 15 15 11.6421 15 7.5C15 3.35786 11.6421 0 7.5 0C3.35786 0 0 3.35786 0 7.5C0 11.6421 3.35786 15 7.5 15Z" fill="#2196F3"></path>
              <path d="M6.78564 6.78577H8.21422V10.7143H6.78564V6.78577Z" fill="white"></path>
              <path d="M7.50028 5.7143C7.99339 5.7143 8.39314 5.31456 8.39314 4.82145C8.39314 4.32833 7.99339 3.92859 7.50028 3.92859C7.00717 3.92859 6.60742 4.32833 6.60742 4.82145C6.60742 5.31456 7.00717 5.7143 7.50028 5.7143Z" fill="white"></path>
            </svg>