<svg width="15" height="16" viewBox="0 0 15 16" fill="none" xmlns="http://www.w3.org/2000/svg">
              <path fill-rule="evenodd" clip-rule="evenodd" d="M0.155625 2.86406C2.86981 2.83031 5.47951 1.81262 7.5 0C9.52035 1.81296 12.1301 2.83099 14.8444 2.865C14.9475 3.47437 15 4.1025 15 4.74094C15 9.63938 11.8687 13.8066 7.5 15.3506C3.13125 13.8056 0 9.63844 0 4.74C0 4.10062 0.0534374 3.47438 0.155625 2.86406V2.86406ZM10.9753 6.34031C11.1461 6.1635 11.2406 5.92668 11.2384 5.68087C11.2363 5.43506 11.1377 5.19993 10.9639 5.02611C10.7901 4.85229 10.5549 4.75369 10.3091 4.75156C10.0633 4.74942 9.8265 4.84391 9.64969 5.01469L6.5625 8.10188L5.35031 6.88969C5.1735 6.71891 4.93668 6.62442 4.69087 6.62656C4.44506 6.62869 4.20993 6.72729 4.03611 6.90111C3.86229 7.07493 3.76369 7.31006 3.76156 7.55587C3.75942 7.80168 3.85391 8.0385 4.02469 8.21531L5.89969 10.0903C6.07549 10.2661 6.31391 10.3648 6.5625 10.3648C6.81109 10.3648 7.04951 10.2661 7.22531 10.0903L10.9753 6.34031V6.34031Z" fill="#16C045"></path>
            </svg>