<svg width="16" height="16" viewBox="0 0 16 16" fill="none" xmlns="http://www.w3.org/2000/svg">
              <path d="M7.04511 0.589949L0.113436 14.456C-0.239881 15.1653 0.274762 15.9999 1.06806 15.9999H14.9314C15.7247 15.9999 16.2407 15.1653 15.886 14.456L8.95436 0.589949C8.56104 -0.195348 7.43843 -0.195348 7.04511 0.589949V0.589949Z" fill="url(#paint0_linear)"></path>
              <path opacity="0.2" d="M7.99974 0.399981C8.25706 0.399981 8.48105 0.537308 8.59571 0.767964L15.5274 14.634C15.6327 14.8446 15.622 15.082 15.4981 15.282C15.3741 15.4833 15.1674 15.5979 14.9314 15.5979H1.06806C0.83207 15.5979 0.625413 15.4833 0.501418 15.282C0.377424 15.0806 0.366758 14.8446 0.472086 14.634L7.40376 0.767964C7.51842 0.537308 7.74241 0.399981 7.99974 0.399981ZM7.99974 0C7.62109 0 7.24244 0.195991 7.04511 0.589306L0.113436 14.4553C-0.239881 15.1646 0.274762 15.9993 1.06806 15.9993H14.9314C15.7247 15.9993 16.2407 15.1646 15.886 14.4553L8.95436 0.589306C8.75703 0.195991 8.37838 0 7.99974 0Z" fill="#424242"></path>
              <g opacity="0.2">
              <path opacity="0.2" d="M7.99956 3.99983C8.61687 3.99983 9.10485 4.48781 9.06351 5.06379L8.60754 11.4675C8.5862 11.7661 8.32088 11.9995 7.99956 11.9995C7.67825 11.9995 7.41292 11.7661 7.39159 11.4675L6.93561 5.06379C6.89428 4.48781 7.38226 3.99983 7.99956 3.99983ZM7.99956 3.59985C7.58092 3.59985 7.18094 3.77051 6.90228 4.06917C6.63963 4.35182 6.50897 4.71447 6.53563 5.09178L6.99161 11.4955C7.02894 12.0021 7.47159 12.3994 7.99956 12.3994C8.52754 12.3994 8.97019 12.0021 9.00618 11.4955L9.46216 5.09178C9.48883 4.71447 9.3595 4.35182 9.09551 4.06917C8.81819 3.77051 8.41821 3.59985 7.99956 3.59985Z" fill="#424242"></path>
              <path opacity="0.2" d="M7.99975 12.5328C8.44106 12.5328 8.79971 12.8914 8.79971 13.3328C8.79971 13.7741 8.44106 14.1327 7.99975 14.1327C7.55844 14.1327 7.19979 13.7741 7.19979 13.3328C7.19979 12.8914 7.55844 12.5328 7.99975 12.5328ZM7.99975 12.1328C7.33845 12.1328 6.7998 12.6715 6.7998 13.3328C6.7998 13.9941 7.33845 14.5327 7.99975 14.5327C8.66105 14.5327 9.19969 13.9941 9.19969 13.3328C9.19969 12.6715 8.66105 12.1328 7.99975 12.1328Z" fill="#424242"></path>
              </g>
              <path d="M7.9995 3.99976C8.61681 3.99976 9.10478 4.48773 9.06345 5.06371L8.60747 11.4674C8.58614 11.7661 8.32082 11.9994 7.9995 11.9994C7.67818 11.9994 7.41286 11.7661 7.39153 11.4674L6.93555 5.06371C6.89422 4.48773 7.3822 3.99976 7.9995 3.99976Z" fill="url(#paint1_linear)"></path>
              <path d="M8.00016 14.1326C8.44197 14.1326 8.80012 13.7745 8.80012 13.3327C8.80012 12.8909 8.44197 12.5327 8.00016 12.5327C7.55835 12.5327 7.2002 12.8909 7.2002 13.3327C7.2002 13.7745 7.55835 14.1326 8.00016 14.1326Z" fill="url(#paint2_linear)"></path>
              <defs>
              <linearGradient id="paint0_linear" x1="7.99974" y1="4.40044" x2="7.99974" y2="16.9119" gradientUnits="userSpaceOnUse">
              <stop stop-color="#FFEB3B"></stop>
              <stop offset="0.419" stop-color="#FFDC28"></stop>
              <stop offset="0.995" stop-color="#FFC107"></stop>
              </linearGradient>
              <linearGradient id="paint1_linear" x1="7.9995" y1="3.76643" x2="7.9995" y2="14.2579" gradientUnits="userSpaceOnUse">
              <stop stop-color="#424242"></stop>
              <stop offset="1" stop-color="#212121"></stop>
              </linearGradient>
              <linearGradient id="paint2_linear" x1="8.00016" y1="3.76646" x2="8.00016" y2="14.258" gradientUnits="userSpaceOnUse">
              <stop stop-color="#424242"></stop>
              <stop offset="1" stop-color="#212121"></stop>
              </linearGradient>
              </defs>
            </svg>