<svg width="35" height="36" viewBox="0 0 35 36" fill="none" xmlns="http://www.w3.org/2000/svg">
<path d="M24.4271 5.69168V3.41669C24.4271 2.81877 23.9313 2.32294 23.3333 2.32294C22.7354 2.32294 22.2396 2.81877 22.2396 3.41669V5.60419H12.7604V3.41669C12.7604 2.81877 12.2646 2.32294 11.6667 2.32294C11.0688 2.32294 10.5729 2.81877 10.5729 3.41669V5.69168C6.63542 6.05627 4.72501 8.40418 4.43334 11.8896C4.40418 12.3125 4.75418 12.6625 5.16251 12.6625H29.8375C30.2604 12.6625 30.6104 12.2979 30.5667 11.8896C30.275 8.40418 28.3646 6.05627 24.4271 5.69168Z" fill="url(#paint0_linear)"/>
<path opacity="0.4" d="M30.625 16.3084V18.8459C30.625 19.7355 29.8375 20.4209 28.9625 20.2751C28.5542 20.2168 28.1313 20.173 27.7083 20.173C23.2896 20.173 19.6875 23.7751 19.6875 28.1938C19.6875 28.8647 19.95 29.798 20.2271 30.6439C20.5479 31.5918 19.8479 32.5688 18.8417 32.5688H11.6667C6.5625 32.5688 4.375 29.6522 4.375 25.2772V16.2938C4.375 15.4918 5.03125 14.8355 5.83333 14.8355H29.1667C29.9688 14.8501 30.625 15.5064 30.625 16.3084Z" fill="url(#paint1_linear)"/>
<path d="M27.7083 22.375C24.4854 22.375 21.875 24.9854 21.875 28.2083C21.875 29.3021 22.1813 30.3375 22.7208 31.2125C23.7271 32.9042 25.5792 34.0417 27.7083 34.0417C29.8375 34.0417 31.6896 32.9042 32.6958 31.2125C33.2354 30.3375 33.5417 29.3021 33.5417 28.2083C33.5417 24.9854 30.9312 22.375 27.7083 22.375ZM30.7271 27.5813L27.6208 30.4542C27.4167 30.6438 27.1396 30.7458 26.8771 30.7458C26.6 30.7458 26.3229 30.6437 26.1042 30.425L24.6604 28.9812C24.2375 28.5583 24.2375 27.8583 24.6604 27.4354C25.0833 27.0125 25.7833 27.0125 26.2063 27.4354L26.9062 28.1354L29.2396 25.9771C29.6771 25.5688 30.3771 25.5979 30.7854 26.0354C31.1937 26.4729 31.1646 27.1583 30.7271 27.5813Z" fill="url(#paint2_linear)"/>
<path d="M12.3958 22.3749C12.0167 22.3749 11.6375 22.2144 11.3604 21.9519C11.0979 21.6749 10.9375 21.2957 10.9375 20.9165C10.9375 20.5374 11.0979 20.1582 11.3604 19.8811C11.6958 19.5457 12.2062 19.3853 12.6875 19.4874C12.775 19.5019 12.8625 19.5311 12.95 19.5749C13.0375 19.604 13.125 19.6478 13.2125 19.7061C13.2854 19.7645 13.3583 19.8228 13.4312 19.8811C13.6937 20.1582 13.8542 20.5374 13.8542 20.9165C13.8542 21.2957 13.6937 21.6749 13.4312 21.9519C13.3583 22.0103 13.2854 22.0686 13.2125 22.1269C13.125 22.1853 13.0375 22.2291 12.95 22.2582C12.8625 22.302 12.775 22.3311 12.6875 22.3457C12.5854 22.3603 12.4833 22.3749 12.3958 22.3749Z" fill="url(#paint3_linear)"/>
<path d="M17.4998 22.3749C17.1207 22.3749 16.7415 22.2145 16.4644 21.952C16.2019 21.6749 16.0415 21.2958 16.0415 20.9166C16.0415 20.5374 16.2019 20.1583 16.4644 19.8812C17.0186 19.3416 17.9957 19.3416 18.5353 19.8812C18.7978 20.1583 18.9582 20.5374 18.9582 20.9166C18.9582 21.2958 18.7978 21.6749 18.5353 21.952C18.2582 22.2145 17.879 22.3749 17.4998 22.3749Z" fill="url(#paint4_linear)"/>
<path d="M12.3958 27.479C12.0167 27.479 11.6375 27.3185 11.3604 27.056C11.0979 26.7789 10.9375 26.3998 10.9375 26.0206C10.9375 25.6415 11.0979 25.2623 11.3604 24.9852C11.5063 24.854 11.6521 24.7519 11.8417 24.6789C12.3813 24.4456 13.0229 24.5769 13.4312 24.9852C13.6937 25.2623 13.8542 25.6415 13.8542 26.0206C13.8542 26.3998 13.6937 26.7789 13.4312 27.056C13.1542 27.3185 12.775 27.479 12.3958 27.479Z" fill="url(#paint5_linear)"/>
<defs>
<linearGradient id="paint0_linear" x1="29.1327" y1="2.32294" x2="22.0608" y2="15.5824" gradientUnits="userSpaceOnUse">
<stop stop-color="#E1FFD3"/>
<stop offset="0.301844" stop-color="#96DBAA"/>
<stop offset="1" stop-color="#4AAF86"/>
</linearGradient>
<linearGradient id="paint1_linear" x1="29.1812" y1="14.8355" x2="14.6395" y2="30.8002" gradientUnits="userSpaceOnUse">
<stop stop-color="#E1FFD3"/>
<stop offset="0.301844" stop-color="#96DBAA"/>
<stop offset="1" stop-color="#4AAF86"/>
</linearGradient>
<linearGradient id="paint2_linear" x1="32.9" y1="22.375" x2="23.7051" y2="29.1945" gradientUnits="userSpaceOnUse">
<stop stop-color="#E1FFD3"/>
<stop offset="0.301844" stop-color="#96DBAA"/>
<stop offset="1" stop-color="#4AAF86"/>
</linearGradient>
<linearGradient id="paint3_linear" x1="13.6938" y1="19.4569" x2="11.3943" y2="21.1616" gradientUnits="userSpaceOnUse">
<stop stop-color="#E1FFD3"/>
<stop offset="0.301844" stop-color="#96DBAA"/>
<stop offset="1" stop-color="#4AAF86"/>
</linearGradient>
<linearGradient id="paint4_linear" x1="18.7978" y1="19.4765" x2="16.5093" y2="21.1845" gradientUnits="userSpaceOnUse">
<stop stop-color="#E1FFD3"/>
<stop offset="0.301844" stop-color="#96DBAA"/>
<stop offset="1" stop-color="#4AAF86"/>
</linearGradient>
<linearGradient id="paint5_linear" x1="13.6938" y1="24.5639" x2="11.3959" y2="26.2691" gradientUnits="userSpaceOnUse">
<stop stop-color="#E1FFD3"/>
<stop offset="0.301844" stop-color="#96DBAA"/>
<stop offset="1" stop-color="#4AAF86"/>
</linearGradient>
</defs>
</svg>
