<svg width="35" height="35" viewBox="0 0 35 35" fill="none" xmlns="http://www.w3.org/2000/svg">
<path opacity="0.4" d="M32.0832 13.125V21.875C32.0832 26.9791 29.1665 29.1666 24.7915 29.1666H12.3228C12.8332 28.3062 13.1248 27.3146 13.1248 26.25C13.1248 23.0271 10.5144 20.4166 7.2915 20.4166C5.5415 20.4166 3.98109 21.1895 2.9165 22.4V13.125C2.9165 8.02081 5.83317 5.83331 10.2082 5.83331H24.7915C29.1665 5.83331 32.0832 8.02081 32.0832 13.125Z" fill="url(#paint0_linear)"/>
<path d="M17.4998 21.1459C19.5134 21.1459 21.1457 19.5136 21.1457 17.5C21.1457 15.4865 19.5134 13.8542 17.4998 13.8542C15.4863 13.8542 13.854 15.4865 13.854 17.5C13.854 19.5136 15.4863 21.1459 17.4998 21.1459Z" fill="url(#paint1_linear)"/>
<path d="M26.979 21.5104C26.3811 21.5104 25.8853 21.0146 25.8853 20.4166V14.5833C25.8853 13.9854 26.3811 13.4896 26.979 13.4896C27.5769 13.4896 28.0728 13.9854 28.0728 14.5833V20.4166C28.0728 21.0146 27.5769 21.5104 26.979 21.5104Z" fill="url(#paint2_linear)"/>
<path d="M7.29183 20.4167C4.06891 20.4167 1.4585 23.0271 1.4585 26.25C1.4585 27.3438 1.76473 28.3792 2.30431 29.2542C3.31056 30.9459 5.16266 32.0834 7.29183 32.0834C9.421 32.0834 11.2731 30.9459 12.2793 29.2542C12.8189 28.3792 13.1252 27.3438 13.1252 26.25C13.1252 23.0271 10.5147 20.4167 7.29183 20.4167ZM10.1647 25.7687L7.05849 28.6417C6.85432 28.8313 6.57723 28.9334 6.31473 28.9334C6.03764 28.9334 5.76056 28.8313 5.54181 28.6125L4.09808 27.1688C3.67516 26.7459 3.67516 26.0459 4.09808 25.6229C4.52099 25.2 5.22099 25.2 5.64391 25.6229L6.34392 26.3229L8.67726 24.1646C9.11476 23.7563 9.81476 23.7854 10.2231 24.2229C10.6314 24.6604 10.6022 25.3604 10.1647 25.7687Z" fill="url(#paint3_linear)"/>
<defs>
<linearGradient id="paint0_linear" x1="30.479" y1="5.83331" x2="11.3167" y2="23.5982" gradientUnits="userSpaceOnUse">
<stop stop-color="#E1FFD3"/>
<stop offset="0.301844" stop-color="#96DBAA"/>
<stop offset="1" stop-color="#4AAF86"/>
</linearGradient>
<linearGradient id="paint1_linear" x1="20.7446" y1="13.8542" x2="14.9978" y2="18.1164" gradientUnits="userSpaceOnUse">
<stop stop-color="#E1FFD3"/>
<stop offset="0.301844" stop-color="#96DBAA"/>
<stop offset="1" stop-color="#4AAF86"/>
</linearGradient>
<linearGradient id="paint2_linear" x1="27.9524" y1="13.4896" x2="25.3851" y2="14.0089" gradientUnits="userSpaceOnUse">
<stop stop-color="#E1FFD3"/>
<stop offset="0.301844" stop-color="#96DBAA"/>
<stop offset="1" stop-color="#4AAF86"/>
</linearGradient>
<linearGradient id="paint3_linear" x1="12.4835" y1="20.4167" x2="3.28856" y2="27.2362" gradientUnits="userSpaceOnUse">
<stop stop-color="#E1FFD3"/>
<stop offset="0.301844" stop-color="#96DBAA"/>
<stop offset="1" stop-color="#4AAF86"/>
</linearGradient>
</defs>
</svg>
