<svg width="71" height="72" viewBox="0 0 71 72" fill="none" xmlns="http://www.w3.org/2000/svg">
<path d="M69.2962 44.386C64.6662 62.9576 45.8562 74.26 27.2824 69.6288C8.71633 64.9988 -2.58599 46.1876 2.04603 27.6175C6.67398 9.04384 25.484 -2.25933 44.0521 2.37066C62.6245 7.00064 73.9262 25.8139 69.2957 44.3864L69.296 44.386H69.2962Z" stroke="#E1E9F8" stroke-width="1.33333"/>
<path fill-rule="evenodd" clip-rule="evenodd" d="M50.9577 31.0609C51.6477 26.4475 48.1354 23.9676 43.3326 22.3133L44.8906 16.0641L41.0865 15.1162L39.5698 21.2009C38.5697 20.9515 37.5427 20.7164 36.522 20.4834L38.0497 14.3586L34.248 13.4107L32.6891 19.6579C31.8615 19.4695 31.0486 19.2832 30.26 19.087L30.2644 19.0674L25.0185 17.7574L24.0066 21.8204C24.0066 21.8204 26.8289 22.4673 26.7694 22.5072C28.3099 22.8916 28.5884 23.9114 28.5422 24.7196L26.7674 31.839C26.8735 31.8659 27.011 31.9049 27.1629 31.9659L27.0523 31.9383L27.0517 31.9381C26.958 31.9147 26.8607 31.8903 26.7608 31.8664L24.2731 41.8396C24.0849 42.3076 23.607 43.01 22.53 42.7433C22.5681 42.7985 19.7651 42.0533 19.7651 42.0533L17.8765 46.4077L22.8269 47.6418C23.3687 47.7777 23.9042 47.9173 24.4342 48.0554L24.435 48.0557L24.4357 48.0558C24.806 48.1524 25.1737 48.2482 25.5391 48.3416L23.9649 54.6625L27.7646 55.6104L29.3235 49.3566C30.3615 49.6384 31.3689 49.8983 32.3551 50.1434L30.8014 56.3677L34.6057 57.3156L36.1797 51.0065C42.6665 52.2342 47.544 51.7392 49.597 45.8719C51.2514 41.1481 49.5147 38.4234 46.102 36.6465C48.5876 36.0733 50.4599 34.4385 50.9591 31.0614L50.9579 31.0605L50.9577 31.0609ZM42.2657 43.2485C41.1871 47.5825 34.4033 45.7907 31.2994 44.9709C31.0202 44.8972 30.7708 44.8313 30.5579 44.7785L32.6469 36.4044C32.9063 36.4691 33.2232 36.5402 33.5823 36.6208L33.5823 36.6208L33.5823 36.6208C36.7929 37.3413 43.3708 38.8176 42.2659 43.2485H42.2657ZM34.2266 32.7343C36.8143 33.4249 42.4594 34.9315 43.4425 30.9925H43.4428C44.4467 26.9638 38.9607 25.7492 36.2813 25.156C35.9798 25.0892 35.7139 25.0303 35.4968 24.9762L33.6029 32.571C33.7817 32.6156 33.9915 32.6716 34.2266 32.7343Z" fill="#B0BBD5"/>
</svg>
