<svg width="810" height="602" viewBox="0 0 810 602" fill="none" xmlns="http://www.w3.org/2000/svg">
<g clip-path="url(#clip0)">
<path d="M227.275 16.5H628.725C637.437 16.5 644.5 23.5627 644.5 32.275V533.545C644.5 542.257 637.437 549.32 628.725 549.32H227.275C218.563 549.32 211.5 542.257 211.5 533.545V32.275C211.5 23.5627 218.563 16.5 227.275 16.5Z" fill="white" stroke="#B0BBD5"/>
<path d="M263.521 76.5134C263.521 77.8219 262.603 78.5836 261.099 78.5836H258.091V74.3456H261.021C262.505 74.3456 263.521 75.1659 263.521 76.5134ZM263.169 70.5958C263.169 71.8458 262.291 72.5293 260.845 72.5293H258.091V68.6428H260.845C262.291 68.6428 263.169 69.3655 263.169 70.5958ZM265.747 76.7478C265.747 75.1268 264.576 73.6816 263.13 73.4277C264.439 72.959 265.435 71.9629 265.435 70.3224C265.435 68.4085 263.912 66.8266 261.041 66.8266H255.865V80.3999H261.294C264.068 80.3999 265.747 78.818 265.747 76.7478ZM268.167 80.3999H270.393V69.6389H268.167V80.3999ZM269.299 68.2132C270.081 68.2132 270.706 67.5882 270.706 66.7875C270.706 65.9868 270.081 65.3618 269.299 65.3618C268.499 65.3618 267.874 65.9868 267.874 66.7875C267.874 67.5882 268.499 68.2132 269.299 68.2132ZM273.668 77.4118C273.668 79.5992 274.859 80.3999 276.773 80.3999H278.531V78.5446H277.164C276.226 78.5446 275.914 78.2125 275.914 77.4118V71.4552H278.531V69.6389H275.914V66.9633H273.668V69.6389H272.398V71.4552H273.668V77.4118ZM279.841 75.0096C279.841 78.3883 282.028 80.5757 285.114 80.5757C287.75 80.5757 289.469 79.1109 290.074 77.0017H287.672C287.262 78.1149 286.442 78.7008 285.114 78.7008C283.317 78.7008 282.126 77.3728 282.126 75.0096C282.126 72.666 283.317 71.338 285.114 71.338C286.442 71.338 287.301 72.002 287.672 73.0371H290.074C289.469 70.7716 287.75 69.4631 285.114 69.4631C282.028 69.4631 279.841 71.6505 279.841 75.0096ZM302.546 75.0096C302.546 71.6309 300.125 69.4631 297.058 69.4631C293.992 69.4631 291.571 71.6309 291.571 75.0096C291.571 78.3883 293.895 80.5757 296.961 80.5757C300.047 80.5757 302.546 78.3883 302.546 75.0096ZM293.836 75.0096C293.836 72.5684 295.34 71.3966 297.019 71.3966C298.679 71.3966 300.261 72.5684 300.261 75.0096C300.261 77.4509 298.621 78.6422 296.961 78.6422C295.281 78.6422 293.836 77.4509 293.836 75.0096ZM304.747 80.3999H306.974V69.6389H304.747V80.3999ZM305.88 68.2132C306.661 68.2132 307.286 67.5882 307.286 66.7875C307.286 65.9868 306.661 65.3618 305.88 65.3618C305.079 65.3618 304.454 65.9868 304.454 66.7875C304.454 67.5882 305.079 68.2132 305.88 68.2132ZM317.533 80.3999H319.74V74.0527C319.74 71.045 317.846 69.4631 315.326 69.4631C314.037 69.4631 312.846 69.9904 312.123 70.8693V69.6389H309.897V80.3999H312.123V74.3847C312.123 72.4121 313.197 71.3966 314.838 71.3966C316.459 71.3966 317.533 72.4121 317.533 74.3847V80.3999ZM336.813 80.3999H339.156L334.293 66.807H331.715L326.852 80.3999H329.176L330.153 77.6266H335.836L336.813 80.3999ZM335.211 75.8104H330.778L333.004 69.5022L335.211 75.8104ZM340.529 74.9706C340.529 78.2907 342.775 80.5757 345.606 80.5757C347.364 80.5757 348.653 79.7554 349.337 78.7789V80.3999H351.583V65.9477H349.337V71.1427C348.516 70.1271 347.032 69.4631 345.626 69.4631C342.775 69.4631 340.529 71.6505 340.529 74.9706ZM349.337 75.0096C349.337 77.3337 347.755 78.6422 346.075 78.6422C344.415 78.6422 342.814 77.2946 342.814 74.9706C342.814 72.6465 344.415 71.3966 346.075 71.3966C347.755 71.3966 349.337 72.7051 349.337 75.0096ZM353.237 69.6389L357.319 80.3999H359.975L364.077 69.6389H361.713L358.667 78.4078L355.62 69.6389H353.237ZM365.017 74.9706C365.017 78.2907 367.263 80.5757 370.056 80.5757C371.853 80.5757 373.142 79.7164 373.825 78.7984V80.3999H376.071V69.6389H373.825V71.2013C373.161 70.3224 371.911 69.4631 370.095 69.4631C367.263 69.4631 365.017 71.6505 365.017 74.9706ZM373.825 75.0096C373.825 77.3337 372.243 78.6422 370.564 78.6422C368.904 78.6422 367.302 77.2946 367.302 74.9706C367.302 72.6465 368.904 71.3966 370.564 71.3966C372.243 71.3966 373.825 72.7051 373.825 75.0096ZM386.632 80.3999H388.839V74.0527C388.839 71.045 386.944 69.4631 384.425 69.4631C383.136 69.4631 381.945 69.9904 381.222 70.8693V69.6389H378.996V80.3999H381.222V74.3847C381.222 72.4121 382.296 71.3966 383.937 71.3966C385.558 71.3966 386.632 72.4121 386.632 74.3847V80.3999ZM390.937 75.0096C390.937 78.3883 393.124 80.5757 396.21 80.5757C398.846 80.5757 400.565 79.1109 401.17 77.0017H398.768C398.358 78.1149 397.538 78.7008 396.21 78.7008C394.413 78.7008 393.222 77.3728 393.222 75.0096C393.222 72.666 394.413 71.338 396.21 71.338C397.538 71.338 398.397 72.002 398.768 73.0371H401.17C400.565 70.7716 398.846 69.4631 396.21 69.4631C393.124 69.4631 390.937 71.6505 390.937 75.0096ZM407.92 71.338C409.58 71.338 410.889 72.3926 410.928 74.0527H404.971C405.205 72.3535 406.416 71.338 407.92 71.338ZM412.959 77.197H410.557C410.146 78.0368 409.385 78.7008 408.018 78.7008C406.377 78.7008 405.108 77.6266 404.952 75.8494H413.174C413.232 75.4783 413.252 75.1268 413.252 74.7557C413.252 71.5919 411.084 69.4631 408.018 69.4631C404.834 69.4631 402.647 71.6309 402.647 75.0096C402.647 78.3883 404.932 80.5757 408.018 80.5757C410.654 80.5757 412.353 79.0719 412.959 77.197Z" fill="black"/>
<path d="M536.677 67.1785C533.275 67.1785 530.514 69.7304 530.514 73.3413C530.514 76.9695 533.275 79.5041 536.677 79.5041C539.924 79.5041 542.284 77.1257 542.649 74.3308V72.7857H536V74.3655H540.531C540.236 76.3966 538.865 77.716 536.677 77.716C534.282 77.716 532.546 75.9973 532.546 73.3413C532.546 70.6852 534.282 68.9839 536.677 68.9839C538.118 68.9839 539.264 69.5915 539.906 70.8067H542.284C541.364 68.4457 539.194 67.1785 536.677 67.1785ZM553.715 74.6085C553.715 71.6053 551.562 69.6783 548.837 69.6783C546.111 69.6783 543.959 71.6053 543.959 74.6085C543.959 77.6118 546.024 79.5561 548.75 79.5561C551.493 79.5561 553.715 77.6118 553.715 74.6085ZM545.972 74.6085C545.972 72.4385 547.309 71.3969 548.802 71.3969C550.278 71.3969 551.684 72.4385 551.684 74.6085C551.684 76.7785 550.226 77.8375 548.75 77.8375C547.257 77.8375 545.972 76.7785 545.972 74.6085ZM566.986 75.9453C566.986 77.1084 566.17 77.7854 564.833 77.7854H562.16V74.0183H564.764C566.083 74.0183 566.986 74.7474 566.986 75.9453ZM566.674 70.6852C566.674 71.7962 565.892 72.4038 564.608 72.4038H562.16V68.9492H564.608C565.892 68.9492 566.674 69.5915 566.674 70.6852ZM568.965 76.1536C568.965 74.7127 567.923 73.4281 566.639 73.2024C567.802 72.7857 568.687 71.9004 568.687 70.4421C568.687 68.7409 567.333 67.3347 564.781 67.3347H560.181V79.3999H565.007C567.472 79.3999 568.965 77.9937 568.965 76.1536ZM570.456 74.5738C570.456 77.525 572.452 79.5561 574.935 79.5561C576.532 79.5561 577.678 78.7923 578.285 77.9764V79.3999H580.282V69.8345H578.285V71.2233C577.695 70.4421 576.584 69.6783 574.97 69.6783C572.452 69.6783 570.456 71.6226 570.456 74.5738ZM578.285 74.6085C578.285 76.6744 576.879 77.8375 575.386 77.8375C573.911 77.8375 572.487 76.6397 572.487 74.5738C572.487 72.508 573.911 71.3969 575.386 71.3969C576.879 71.3969 578.285 72.5601 578.285 74.6085ZM582.221 74.6085C582.221 77.6118 584.166 79.5561 586.909 79.5561C589.252 79.5561 590.78 78.2541 591.318 76.3793H589.183C588.818 77.3688 588.089 77.8896 586.909 77.8896C585.312 77.8896 584.253 76.7091 584.253 74.6085C584.253 72.5253 585.312 71.3449 586.909 71.3449C588.089 71.3449 588.853 71.9351 589.183 72.8552H591.318C590.78 70.8414 589.252 69.6783 586.909 69.6783C584.166 69.6783 582.221 71.6226 582.221 74.6085ZM593.29 79.3999H595.269V75.2856L598.811 79.3999H601.484L597.075 74.6259L601.484 69.8345H598.741L595.269 74.0183V66.5535H593.29V79.3999Z" fill="#53C48A"/>
<path d="M254.4 104.427H601.6" stroke="#C9D4EA" stroke-width="1.085"/>
<path d="M262.679 139.33H264.137L260.324 128.803H258.729L254.902 139.33H256.36L257.21 136.975H261.828L262.679 139.33ZM261.433 135.851H257.605L259.519 130.504L261.433 135.851ZM265.289 135.137C265.289 137.72 267.005 139.467 269.238 139.467C270.757 139.467 271.836 138.692 272.337 137.765V139.33H273.735V128.089H272.337V132.494C271.76 131.537 270.56 130.869 269.254 130.869C267.005 130.869 265.289 132.54 265.289 135.137ZM272.337 135.153C272.337 137.112 271.031 138.251 269.512 138.251C267.993 138.251 266.702 137.097 266.702 135.137C266.702 133.178 267.993 132.069 269.512 132.069C271.031 132.069 272.337 133.223 272.337 135.153ZM275.083 131.006L278.349 139.33H279.959L283.225 131.006H281.752L279.169 138.054L276.572 131.006H275.083ZM284.069 135.137C284.069 137.72 285.785 139.467 288.003 139.467C289.537 139.467 290.616 138.677 291.117 137.78V139.33H292.514V131.006H291.117V132.525C290.631 131.659 289.568 130.869 288.018 130.869C285.785 130.869 284.069 132.54 284.069 135.137ZM291.117 135.153C291.117 137.112 289.811 138.251 288.292 138.251C286.773 138.251 285.482 137.097 285.482 135.137C285.482 133.178 286.773 132.069 288.292 132.069C289.811 132.069 291.117 133.223 291.117 135.153ZM300.942 139.33H302.309V134.423C302.309 132.039 300.835 130.854 298.906 130.854C297.782 130.854 296.78 131.325 296.233 132.191V131.006H294.85V139.33H296.233V134.727C296.233 132.935 297.205 132.054 298.618 132.054C300.015 132.054 300.942 132.92 300.942 134.621V139.33ZM304.05 135.153C304.05 137.796 305.736 139.467 308.106 139.467C310.172 139.467 311.524 138.312 311.949 136.656H310.46C310.157 137.705 309.336 138.297 308.106 138.297C306.587 138.297 305.463 137.218 305.463 135.153C305.463 133.117 306.587 132.039 308.106 132.039C309.336 132.039 310.172 132.677 310.46 133.679H311.949C311.524 131.932 310.172 130.869 308.106 130.869C305.736 130.869 304.05 132.54 304.05 135.153ZM317.333 132.039C318.761 132.039 319.976 132.935 319.961 134.56H314.705C314.857 132.935 315.981 132.039 317.333 132.039ZM321.221 136.763H319.733C319.429 137.659 318.639 138.297 317.393 138.297C315.981 138.297 314.796 137.37 314.69 135.684H321.343C321.373 135.396 321.388 135.153 321.388 134.849C321.388 132.57 319.809 130.869 317.393 130.869C314.963 130.869 313.277 132.525 313.277 135.153C313.277 137.796 315.024 139.467 317.393 139.467C319.459 139.467 320.796 138.282 321.221 136.763ZM334.372 139.33H335.83L332.017 128.803H330.422L326.594 139.33H328.053L328.903 136.975H333.521L334.372 139.33ZM333.126 135.851H329.298L331.212 130.504L333.126 135.851ZM349.513 139.33H350.881V134.423C350.881 132.039 349.407 130.854 347.508 130.854C346.232 130.854 345.048 131.507 344.561 132.707C344.015 131.461 342.875 130.854 341.508 130.854C340.415 130.854 339.427 131.325 338.88 132.206V131.006H337.498V139.33H338.88V134.742C338.88 132.95 339.837 132.054 341.235 132.054C342.602 132.054 343.513 132.92 343.513 134.621V139.33H344.88V134.742C344.88 132.95 345.837 132.054 347.235 132.054C348.602 132.054 349.513 132.92 349.513 134.621V139.33ZM361.047 135.153C361.047 132.525 359.209 130.869 356.839 130.869C354.485 130.869 352.632 132.525 352.632 135.153C352.632 137.796 354.424 139.467 356.778 139.467C359.148 139.467 361.047 137.796 361.047 135.153ZM354.044 135.153C354.044 133.056 355.366 132.069 356.824 132.069C358.252 132.069 359.634 133.056 359.634 135.153C359.634 137.264 358.221 138.251 356.778 138.251C355.335 138.251 354.044 137.264 354.044 135.153ZM370.247 131.006H368.864V135.578C368.864 137.37 367.907 138.251 366.479 138.251C365.082 138.251 364.155 137.386 364.155 135.699V131.006H362.788V135.882C362.788 138.267 364.292 139.451 366.206 139.451C367.315 139.451 368.333 138.965 368.864 138.099V139.33H370.247V131.006ZM378.672 139.33H380.039V134.423C380.039 132.039 378.565 130.854 376.636 130.854C375.512 130.854 374.51 131.325 373.963 132.191V131.006H372.58V139.33H373.963V134.727C373.963 132.935 374.935 132.054 376.348 132.054C377.745 132.054 378.672 132.92 378.672 134.621V139.33ZM382.601 137.051C382.601 138.722 383.436 139.33 384.909 139.33H386.155V138.16H385.137C384.287 138.16 383.983 137.872 383.983 137.051V132.145H386.155V131.006H383.983V128.909H382.601V131.006H381.522V132.145H382.601V137.051Z" fill="black"/>
<path d="M403.046 142.402C407.521 142.402 411.183 138.74 411.183 134.265C411.183 129.789 407.521 126.127 403.046 126.127C398.57 126.127 394.908 129.789 394.908 134.265C394.908 138.74 398.57 142.402 403.046 142.402Z" stroke="#53C48A" stroke-width="1.6275" stroke-linecap="round" stroke-linejoin="round"/>
<path d="M403.045 138.74C403.487 138.74 403.845 138.382 403.845 137.941C403.845 137.499 403.487 137.141 403.045 137.141C402.603 137.141 402.245 137.499 402.245 137.941C402.245 138.382 402.603 138.74 403.045 138.74Z" fill="#53C48A"/>
<path d="M403.045 135.808V135.275C403.466 135.275 403.879 135.15 404.229 134.916C404.58 134.681 404.854 134.348 405.015 133.958C405.176 133.569 405.219 133.14 405.136 132.726C405.054 132.313 404.851 131.933 404.553 131.634C404.254 131.336 403.874 131.133 403.461 131.051C403.047 130.968 402.618 131.011 402.229 131.172C401.839 131.334 401.506 131.607 401.272 131.958C401.037 132.308 400.912 132.721 400.912 133.142" stroke="#53C48A" stroke-width="1.6275" stroke-linecap="round" stroke-linejoin="round"/>
<path d="M254.4 160.305C254.4 155.511 258.287 151.625 263.08 151.625H592.92C597.714 151.625 601.6 155.511 601.6 160.305V184.305C601.6 189.099 597.714 192.985 592.92 192.985H263.08C258.287 192.985 254.4 189.099 254.4 184.305V160.305Z" fill="white"/>
<path d="M275.698 177.305H277.157L273.344 166.778H271.749L267.921 177.305H269.379L270.23 174.95H274.848L275.698 177.305ZM274.453 173.826H270.625L272.539 168.479L274.453 173.826ZM290.84 177.305H292.207V172.398C292.207 170.013 290.734 168.829 288.835 168.829C287.559 168.829 286.374 169.482 285.888 170.682C285.342 169.436 284.202 168.829 282.835 168.829C281.741 168.829 280.754 169.3 280.207 170.181V168.981H278.825V177.305H280.207V172.717C280.207 170.925 281.164 170.029 282.562 170.029C283.929 170.029 284.84 170.895 284.84 172.596V177.305H286.207V172.717C286.207 170.925 287.164 170.029 288.562 170.029C289.929 170.029 290.84 170.895 290.84 172.596V177.305ZM302.374 173.127C302.374 170.5 300.536 168.844 298.166 168.844C295.812 168.844 293.958 170.5 293.958 173.127C293.958 175.77 295.751 177.441 298.105 177.441C300.475 177.441 302.374 175.77 302.374 173.127ZM295.371 173.127C295.371 171.031 296.693 170.044 298.151 170.044C299.579 170.044 300.961 171.031 300.961 173.127C300.961 175.239 299.548 176.226 298.105 176.226C296.662 176.226 295.371 175.239 295.371 173.127ZM311.573 168.981H310.191V173.553C310.191 175.345 309.234 176.226 307.806 176.226C306.409 176.226 305.482 175.36 305.482 173.674V168.981H304.115V173.857C304.115 176.241 305.619 177.426 307.533 177.426C308.642 177.426 309.66 176.94 310.191 176.074V177.305H311.573V168.981ZM319.999 177.305H321.366V172.398C321.366 170.013 319.892 168.829 317.963 168.829C316.839 168.829 315.836 169.3 315.29 170.165V168.981H313.907V177.305H315.29V172.702C315.29 170.91 316.262 170.029 317.674 170.029C319.072 170.029 319.999 170.895 319.999 172.596V177.305ZM323.927 175.026C323.927 176.697 324.763 177.305 326.236 177.305H327.482V176.135H326.464C325.614 176.135 325.31 175.846 325.31 175.026V170.12H327.482V168.981H325.31V166.884H323.927V168.981H322.849V170.12H323.927V175.026Z" fill="#A3AED0"/>
<path d="M523.322 173.401C523.322 176.15 525.115 177.411 527.302 177.411C529.49 177.411 531.297 176.15 531.297 173.401V166.717H529.915V173.416C529.915 175.36 528.882 176.196 527.317 176.196C525.753 176.196 524.705 175.36 524.705 173.416V166.717H523.322V173.401ZM540.484 174.419C540.484 170.5 534.773 172.201 534.773 169.467C534.773 168.327 535.669 167.735 536.808 167.765C538.099 167.781 538.768 168.586 538.859 169.3H540.378C540.211 167.689 538.889 166.581 536.869 166.581C534.773 166.581 533.36 167.765 533.36 169.512C533.36 173.446 539.087 171.624 539.087 174.479C539.087 175.482 538.297 176.241 536.96 176.241C535.487 176.241 534.864 175.36 534.773 174.479H533.299C533.33 176.226 534.833 177.411 536.96 177.411C539.254 177.411 540.484 175.922 540.484 174.419ZM545.815 166.717H542.518V177.305H545.815C549.293 177.305 551.435 175.315 551.435 172.034C551.435 168.753 549.293 166.717 545.815 166.717ZM543.901 176.165V167.841H545.815C548.579 167.841 550.022 169.451 550.022 172.034C550.022 174.616 548.579 176.165 545.815 176.165H543.901ZM552.894 179.887H554.261L558.423 162.996H557.04L552.894 179.887ZM566.497 174.327C566.497 175.482 565.677 176.165 564.31 176.165H561.865V172.429H564.265C565.616 172.429 566.497 173.158 566.497 174.327ZM566.224 169.573C566.224 170.651 565.48 171.289 564.189 171.289H561.865V167.857H564.158C565.51 167.857 566.224 168.525 566.224 169.573ZM567.88 174.464C567.88 173.158 566.938 172.049 565.784 171.851C566.801 171.517 567.637 170.743 567.637 169.406C567.637 167.932 566.513 166.717 564.28 166.717H560.482V177.305H564.432C566.619 177.305 567.88 176.059 567.88 174.464ZM569.145 167.841H572.046V177.305H573.428V167.841H576.315V166.717H569.145V167.841ZM577.5 172.003C577.5 175.178 579.824 177.396 582.786 177.396C585.079 177.396 586.902 176.257 587.692 174.221H586.036C585.459 175.482 584.335 176.196 582.786 176.196C580.568 176.196 578.912 174.586 578.912 172.003C578.912 169.406 580.568 167.796 582.786 167.796C584.335 167.796 585.459 168.51 586.036 169.786H587.692C586.902 167.735 585.079 166.581 582.786 166.581C579.824 166.581 577.5 168.829 577.5 172.003Z" fill="#A3AED0"/>
<path d="M263.08 152.71H592.92V150.54H263.08V152.71ZM600.515 160.305V184.305H602.685V160.305H600.515ZM592.92 191.9H263.08V194.07H592.92V191.9ZM255.485 184.305V160.305H253.315V184.305H255.485ZM263.08 191.9C258.886 191.9 255.485 188.499 255.485 184.305H253.315C253.315 189.698 257.687 194.07 263.08 194.07V191.9ZM600.515 184.305C600.515 188.499 597.115 191.9 592.92 191.9V194.07C598.313 194.07 602.685 189.698 602.685 184.305H600.515ZM592.92 152.71C597.115 152.71 600.515 156.11 600.515 160.305H602.685C602.685 154.912 598.313 150.54 592.92 150.54V152.71ZM263.08 150.54C257.687 150.54 253.315 154.912 253.315 160.305H255.485C255.485 156.11 258.886 152.71 263.08 152.71V150.54Z" fill="#C9D4EA"/>
<path d="M256.259 214.41H257.743V208.212L260.516 214.41H261.545L264.305 208.212V214.41H265.789V205.361H264.201L261.037 212.457L257.86 205.361H256.259V214.41ZM267.245 210.79C267.245 213.004 268.742 214.527 270.604 214.527C271.802 214.527 272.662 213.954 273.117 213.342V214.41H274.615V207.236H273.117V208.277C272.675 207.692 271.841 207.119 270.63 207.119C268.742 207.119 267.245 208.577 267.245 210.79ZM273.117 210.816C273.117 212.366 272.063 213.238 270.943 213.238C269.836 213.238 268.769 212.34 268.769 210.79C268.769 209.241 269.836 208.408 270.943 208.408C272.063 208.408 273.117 209.28 273.117 210.816ZM280.275 214.41H281.954L279.637 210.777L281.954 207.236H280.405L278.947 209.671L277.397 207.236H275.718L278.035 210.881L275.718 214.41H277.267L278.725 211.975L280.275 214.41ZM283.061 214.41H284.546V207.236H283.061V214.41ZM283.817 206.285C284.337 206.285 284.754 205.869 284.754 205.335C284.754 204.801 284.337 204.385 283.817 204.385C283.283 204.385 282.866 204.801 282.866 205.335C282.866 205.869 283.283 206.285 283.817 206.285ZM296.663 214.41H298.134V210.178C298.134 208.173 296.858 207.119 295.179 207.119C294.137 207.119 293.122 207.666 292.679 208.538C292.184 207.6 291.234 207.119 290.101 207.119C289.242 207.119 288.46 207.47 287.979 208.056V207.236H286.494V214.41H287.979V210.4C287.979 209.085 288.695 208.408 289.788 208.408C290.869 208.408 291.585 209.085 291.585 210.4V214.41H293.056V210.4C293.056 209.085 293.773 208.408 294.866 208.408C295.947 208.408 296.663 209.085 296.663 210.4V214.41ZM306.52 207.236H305.036V211.233C305.036 212.548 304.32 213.225 303.226 213.225C302.145 213.225 301.429 212.548 301.429 211.233V207.236H299.958V211.454C299.958 213.459 301.234 214.514 302.913 214.514C303.76 214.514 304.567 214.163 305.036 213.551V214.41H306.52V207.236ZM318.647 214.41H320.118V210.178C320.118 208.173 318.842 207.119 317.163 207.119C316.121 207.119 315.105 207.666 314.663 208.538C314.168 207.6 313.218 207.119 312.085 207.119C311.226 207.119 310.444 207.47 309.963 208.056V207.236H308.478V214.41H309.963V210.4C309.963 209.085 310.679 208.408 311.772 208.408C312.853 208.408 313.569 209.085 313.569 210.4V214.41H315.04V210.4C315.04 209.085 315.756 208.408 316.85 208.408C317.931 208.408 318.647 209.085 318.647 210.4V214.41ZM323.543 213.551C323.543 213.017 323.127 212.6 322.606 212.6C322.072 212.6 321.655 213.017 321.655 213.551C321.655 214.084 322.072 214.501 322.606 214.501C323.127 214.501 323.543 214.084 323.543 213.551ZM323.543 208.082C323.543 207.548 323.127 207.132 322.606 207.132C322.072 207.132 321.655 207.548 321.655 208.082C321.655 208.616 322.072 209.033 322.606 209.033C323.127 209.033 323.543 208.616 323.543 208.082Z" fill="#A3AED0"/>
<path d="M331.119 215.543H331.966V214.475C333.723 214.319 334.687 213.095 334.687 211.832C334.687 209.996 333.268 209.645 331.966 209.332V206.52C332.591 206.676 332.955 207.158 333.007 207.679H334.596C334.479 206.207 333.463 205.387 331.966 205.257V204.202H331.119V205.27C329.505 205.413 328.385 206.416 328.385 207.874C328.385 209.71 329.817 210.074 331.119 210.4V213.264C330.39 213.134 330.026 212.652 329.974 212.001H328.385C328.385 213.472 329.531 214.345 331.119 214.488V215.543ZM333.19 211.91C333.19 212.587 332.747 213.134 331.966 213.264V210.621C332.669 210.842 333.19 211.168 333.19 211.91ZM329.896 207.796C329.896 207.002 330.403 206.572 331.119 206.481V209.111C330.416 208.889 329.896 208.551 329.896 207.796ZM337.244 204.892V210.374H338.65C338.897 209.671 339.483 209.189 340.356 209.189C341.593 209.189 342.204 209.892 342.204 211.129C342.204 212.301 341.632 213.173 340.356 213.173C339.353 213.173 338.676 212.652 338.481 211.845H337.036C337.257 213.329 338.39 214.41 340.343 214.41C342.543 214.41 343.624 212.978 343.624 211.09C343.624 209.658 342.908 207.926 340.577 207.926C339.731 207.926 338.963 208.317 338.611 208.785V206.194H342.973V204.892H337.244ZM345.169 209.54C345.169 212.301 345.898 214.384 348.554 214.384C351.21 214.384 351.939 212.301 351.939 209.54C351.939 206.832 351.21 204.749 348.554 204.749C345.898 204.749 345.169 206.832 345.169 209.54ZM350.481 209.54C350.481 211.402 350.286 213.03 348.554 213.03C346.822 213.03 346.627 211.402 346.627 209.54C346.627 207.77 346.822 206.103 348.554 206.103C350.286 206.103 350.481 207.77 350.481 209.54ZM353.51 209.54C353.51 212.301 354.239 214.384 356.895 214.384C359.551 214.384 360.28 212.301 360.28 209.54C360.28 206.832 359.551 204.749 356.895 204.749C354.239 204.749 353.51 206.832 353.51 209.54ZM358.822 209.54C358.822 211.402 358.627 213.03 356.895 213.03C355.163 213.03 354.968 211.402 354.968 209.54C354.968 207.77 355.163 206.103 356.895 206.103C358.627 206.103 358.822 207.77 358.822 209.54ZM361.851 209.54C361.851 212.301 362.58 214.384 365.236 214.384C367.892 214.384 368.621 212.301 368.621 209.54C368.621 206.832 367.892 204.749 365.236 204.749C362.58 204.749 361.851 206.832 361.851 209.54ZM367.163 209.54C367.163 211.402 366.968 213.03 365.236 213.03C363.504 213.03 363.309 211.402 363.309 209.54C363.309 207.77 363.504 206.103 365.236 206.103C366.968 206.103 367.163 207.77 367.163 209.54Z" fill="#53C48A"/>
<path d="M258.866 246.052H255.57V256.64H258.866C262.345 256.64 264.487 254.65 264.487 251.369C264.487 248.088 262.345 246.052 258.866 246.052ZM256.952 255.501V247.177H258.866C261.631 247.177 263.074 248.787 263.074 251.369C263.074 253.951 261.631 255.501 258.866 255.501H256.952ZM274.209 252.463C274.209 249.835 272.371 248.179 270.001 248.179C267.647 248.179 265.793 249.835 265.793 252.463C265.793 255.106 267.586 256.777 269.94 256.777C272.31 256.777 274.209 255.106 274.209 252.463ZM267.206 252.463C267.206 250.366 268.528 249.379 269.986 249.379C271.414 249.379 272.796 250.366 272.796 252.463C272.796 254.574 271.383 255.561 269.94 255.561C268.497 255.561 267.206 254.574 267.206 252.463ZM277.651 256.64H279.079L281.084 250.032L283.089 256.64H284.517L287.115 248.316H285.748L283.864 255.318L281.844 248.316H280.431L278.365 255.303L276.451 248.316H275.039L277.651 256.64ZM294.578 256.64H295.945V251.734C295.945 249.349 294.471 248.164 292.542 248.164C291.418 248.164 290.416 248.635 289.869 249.501V248.316H288.487V256.64H289.869V252.037C289.869 250.245 290.841 249.364 292.254 249.364C293.651 249.364 294.578 250.23 294.578 251.931V256.64ZM303.635 251.08V247.192H305.67C307.25 247.192 307.918 247.921 307.918 249.151C307.918 250.336 307.25 251.08 305.67 251.08H303.635ZM309.331 249.151C309.331 247.42 308.161 246.052 305.67 246.052H302.253V256.64H303.635V252.22H305.67C308.298 252.22 309.331 250.761 309.331 249.151ZM310.533 252.447C310.533 255.03 312.249 256.777 314.467 256.777C316.001 256.777 317.08 255.987 317.581 255.091V256.64H318.978V248.316H317.581V249.835C317.095 248.969 316.031 248.179 314.482 248.179C312.249 248.179 310.533 249.85 310.533 252.447ZM317.581 252.463C317.581 254.422 316.274 255.561 314.755 255.561C313.236 255.561 311.945 254.407 311.945 252.447C311.945 250.488 313.236 249.379 314.755 249.379C316.274 249.379 317.581 250.534 317.581 252.463ZM324.474 255.06L321.861 248.316H320.327L323.684 256.549L322.043 260.559H323.471L328.484 248.316H327.056L324.474 255.06ZM341.889 256.64H343.256V251.734C343.256 249.349 341.782 248.164 339.884 248.164C338.608 248.164 337.423 248.817 336.937 250.017C336.39 248.771 335.251 248.164 333.884 248.164C332.79 248.164 331.803 248.635 331.256 249.516V248.316H329.873V256.64H331.256V252.053C331.256 250.26 332.213 249.364 333.61 249.364C334.977 249.364 335.889 250.23 335.889 251.931V256.64H337.256V252.053C337.256 250.26 338.213 249.364 339.61 249.364C340.977 249.364 341.889 250.23 341.889 251.931V256.64ZM349.063 249.349C350.49 249.349 351.706 250.245 351.69 251.87H346.435C346.587 250.245 347.711 249.349 349.063 249.349ZM352.951 254.073H351.463C351.159 254.969 350.369 255.607 349.123 255.607C347.711 255.607 346.526 254.68 346.42 252.994H353.073C353.103 252.706 353.118 252.463 353.118 252.159C353.118 249.88 351.539 248.179 349.123 248.179C346.693 248.179 345.007 249.835 345.007 252.463C345.007 255.106 346.754 256.777 349.123 256.777C351.189 256.777 352.526 255.592 352.951 254.073ZM361.034 256.64H362.401V251.734C362.401 249.349 360.928 248.164 358.999 248.164C357.875 248.164 356.872 248.635 356.325 249.501V248.316H354.943V256.64H356.325V252.037C356.325 250.245 357.297 249.364 358.71 249.364C360.107 249.364 361.034 250.23 361.034 251.931V256.64ZM364.963 254.361C364.963 256.032 365.798 256.64 367.272 256.64H368.517V255.47H367.5C366.649 255.47 366.345 255.182 366.345 254.361V249.455H368.517V248.316H366.345V246.22H364.963V248.316H363.884V249.455H364.963V254.361Z" fill="black"/>
<path d="M385.685 259.712C390.161 259.712 393.823 256.05 393.823 251.575C393.823 247.099 390.161 243.437 385.685 243.437C381.21 243.437 377.548 247.099 377.548 251.575C377.548 256.05 381.21 259.712 385.685 259.712Z" stroke="#53C48A" stroke-width="1.6275" stroke-linecap="round" stroke-linejoin="round"/>
<path d="M385.685 256.05C386.127 256.05 386.485 255.692 386.485 255.251C386.485 254.809 386.127 254.451 385.685 254.451C385.244 254.451 384.886 254.809 384.886 255.251C384.886 255.692 385.244 256.05 385.685 256.05Z" fill="#53C48A"/>
<path d="M385.684 253.118V252.585C386.106 252.585 386.518 252.46 386.869 252.226C387.22 251.991 387.493 251.658 387.655 251.269C387.816 250.879 387.858 250.45 387.776 250.036C387.694 249.623 387.491 249.243 387.192 248.944C386.894 248.646 386.514 248.443 386.1 248.361C385.687 248.279 385.258 248.321 384.868 248.482C384.479 248.644 384.145 248.917 383.911 249.268C383.677 249.618 383.552 250.031 383.552 250.452" stroke="#53C48A" stroke-width="1.6275" stroke-linecap="round" stroke-linejoin="round"/>
<path d="M254.4 277.615C254.4 272.821 258.287 268.935 263.08 268.935H592.92C597.714 268.935 601.6 272.821 601.6 277.615V301.615C601.6 306.409 597.714 310.295 592.92 310.295H263.08C258.287 310.295 254.4 306.409 254.4 301.615V277.615Z" fill="white"/>
<path d="M268.073 289.313C268.073 292.488 270.397 294.706 273.359 294.706C275.653 294.706 277.476 293.567 278.266 291.531H276.61C276.033 292.792 274.909 293.506 273.359 293.506C271.141 293.506 269.486 291.896 269.486 289.313C269.486 286.716 271.141 285.106 273.359 285.106C274.909 285.106 276.033 285.82 276.61 287.096H278.266C277.476 285.045 275.653 283.891 273.359 283.891C270.397 283.891 268.073 286.139 268.073 289.313ZM288.222 290.437C288.222 287.81 286.384 286.154 284.014 286.154C281.66 286.154 279.807 287.81 279.807 290.437C279.807 293.081 281.599 294.751 283.954 294.751C286.323 294.751 288.222 293.081 288.222 290.437ZM281.219 290.437C281.219 288.341 282.541 287.354 283.999 287.354C285.427 287.354 286.809 288.341 286.809 290.437C286.809 292.549 285.397 293.536 283.954 293.536C282.511 293.536 281.219 292.549 281.219 290.437ZM290.039 294.615H291.422V283.374H290.039V294.615ZM293.778 294.615H295.16V283.374H293.778V294.615ZM296.999 290.422C296.999 293.005 298.716 294.751 300.934 294.751C302.468 294.751 303.546 293.962 304.048 293.065V294.615H305.445V286.291H304.048V287.81C303.561 286.944 302.498 286.154 300.949 286.154C298.716 286.154 296.999 287.825 296.999 290.422ZM304.048 290.437C304.048 292.397 302.741 293.536 301.222 293.536C299.703 293.536 298.412 292.382 298.412 290.422C298.412 288.463 299.703 287.354 301.222 287.354C302.741 287.354 304.048 288.508 304.048 290.437ZM308.085 292.336C308.085 294.007 308.92 294.615 310.394 294.615H311.639V293.445H310.621C309.771 293.445 309.467 293.157 309.467 292.336V287.43H311.639V286.291H309.467V284.194H308.085V286.291H307.006V287.43H308.085V292.336ZM316.853 287.324C318.281 287.324 319.496 288.22 319.481 289.845H314.225C314.377 288.22 315.501 287.324 316.853 287.324ZM320.742 292.048H319.253C318.95 292.944 318.16 293.582 316.914 293.582C315.501 293.582 314.317 292.655 314.21 290.969H320.863C320.894 290.681 320.909 290.437 320.909 290.134C320.909 287.855 319.329 286.154 316.914 286.154C314.484 286.154 312.798 287.81 312.798 290.437C312.798 293.081 314.544 294.751 316.914 294.751C318.98 294.751 320.317 293.567 320.742 292.048ZM324.116 290.088C324.116 288.159 325.118 287.567 326.44 287.567H326.805V286.139C325.483 286.139 324.587 286.716 324.116 287.643V286.291H322.734V294.615H324.116V290.088ZM327.884 290.422C327.884 293.005 329.6 294.751 331.818 294.751C333.352 294.751 334.431 293.962 334.932 293.065V294.615H336.329V286.291H334.932V287.81C334.446 286.944 333.382 286.154 331.833 286.154C329.6 286.154 327.884 287.825 327.884 290.422ZM334.932 290.437C334.932 292.397 333.626 293.536 332.107 293.536C330.588 293.536 329.296 292.382 329.296 290.422C329.296 288.463 330.588 287.354 332.107 287.354C333.626 287.354 334.932 288.508 334.932 290.437ZM338.665 294.615H340.048V283.374H338.665V294.615ZM353.562 294.615H355.02L351.208 284.088H349.613L345.785 294.615H347.243L348.094 292.26H352.711L353.562 294.615ZM352.316 291.136H348.489L350.403 285.789L352.316 291.136ZM368.704 294.615H370.071V289.708C370.071 287.324 368.598 286.139 366.699 286.139C365.423 286.139 364.238 286.792 363.752 287.992C363.205 286.746 362.066 286.139 360.699 286.139C359.605 286.139 358.618 286.61 358.071 287.491V286.291H356.689V294.615H358.071V290.027C358.071 288.235 359.028 287.339 360.425 287.339C361.792 287.339 362.704 288.205 362.704 289.906V294.615H364.071V290.027C364.071 288.235 365.028 287.339 366.425 287.339C367.792 287.339 368.704 288.205 368.704 289.906V294.615ZM380.237 290.437C380.237 287.81 378.399 286.154 376.03 286.154C373.675 286.154 371.822 287.81 371.822 290.437C371.822 293.081 373.614 294.751 375.969 294.751C378.338 294.751 380.237 293.081 380.237 290.437ZM373.235 290.437C373.235 288.341 374.556 287.354 376.014 287.354C377.442 287.354 378.825 288.341 378.825 290.437C378.825 292.549 377.412 293.536 375.969 293.536C374.526 293.536 373.235 292.549 373.235 290.437ZM389.437 286.291H388.055V290.863C388.055 292.655 387.098 293.536 385.67 293.536C384.272 293.536 383.346 292.67 383.346 290.984V286.291H381.979V291.167C381.979 293.551 383.483 294.736 385.396 294.736C386.505 294.736 387.523 294.25 388.055 293.384V294.615H389.437V286.291ZM397.862 294.615H399.229V289.708C399.229 287.324 397.756 286.139 395.827 286.139C394.703 286.139 393.7 286.61 393.153 287.475V286.291H391.771V294.615H393.153V290.012C393.153 288.22 394.125 287.339 395.538 287.339C396.936 287.339 397.862 288.205 397.862 289.906V294.615ZM401.791 292.336C401.791 294.007 402.626 294.615 404.1 294.615H405.345V293.445H404.328C403.477 293.445 403.173 293.157 403.173 292.336V287.43H405.345V286.291H403.173V284.194H401.791V286.291H400.713V287.43H401.791V292.336Z" fill="#A3AED0"/>
<path d="M559.814 290.711C559.814 293.46 561.606 294.721 563.794 294.721C565.981 294.721 567.789 293.46 567.789 290.711V284.027H566.406V290.726C566.406 292.67 565.374 293.506 563.809 293.506C562.244 293.506 561.196 292.67 561.196 290.726V284.027H559.814V290.711ZM576.976 291.729C576.976 287.81 571.264 289.511 571.264 286.777C571.264 285.637 572.161 285.045 573.3 285.075C574.591 285.091 575.259 285.896 575.35 286.61H576.869C576.702 284.999 575.381 283.891 573.361 283.891C571.264 283.891 569.852 285.075 569.852 286.822C569.852 290.756 575.578 288.934 575.578 291.789C575.578 292.792 574.788 293.551 573.452 293.551C571.978 293.551 571.355 292.67 571.264 291.789H569.791C569.821 293.536 571.325 294.721 573.452 294.721C575.745 294.721 576.976 293.232 576.976 291.729ZM582.306 284.027H579.01V294.615H582.306C585.785 294.615 587.926 292.625 587.926 289.344C587.926 286.063 585.785 284.027 582.306 284.027ZM580.392 293.475V285.151H582.306C585.071 285.151 586.514 286.762 586.514 289.344C586.514 291.926 585.071 293.475 582.306 293.475H580.392Z" fill="#A3AED0"/>
<path d="M263.08 270.02H592.92V267.85H263.08V270.02ZM600.515 277.615V301.615H602.685V277.615H600.515ZM592.92 309.21H263.08V311.38H592.92V309.21ZM255.485 301.615V277.615H253.315V301.615H255.485ZM263.08 309.21C258.886 309.21 255.485 305.809 255.485 301.615H253.315C253.315 307.008 257.687 311.38 263.08 311.38V309.21ZM600.515 301.615C600.515 305.809 597.115 309.21 592.92 309.21V311.38C598.313 311.38 602.685 307.008 602.685 301.615H600.515ZM592.92 270.02C597.115 270.02 600.515 273.42 600.515 277.615H602.685C602.685 272.222 598.313 267.85 592.92 267.85V270.02ZM263.08 267.85C257.687 267.85 253.315 272.222 253.315 277.615H255.485C255.485 273.42 258.886 270.02 263.08 270.02V267.85Z" fill="#C9D4EA"/>
<path d="M512.631 268.935H592.921C597.715 268.935 601.601 272.821 601.601 277.615V301.485C601.601 306.279 597.715 310.165 592.921 310.165H512.631V268.935Z" fill="#53C48A"/>
<path d="M530.046 290.711C530.046 293.46 531.838 294.721 534.025 294.721C536.213 294.721 538.02 293.46 538.02 290.711V284.027H536.638V290.726C536.638 292.67 535.605 293.506 534.04 293.506C532.476 293.506 531.428 292.67 531.428 290.726V284.027H530.046V290.711ZM547.207 291.729C547.207 287.81 541.496 289.511 541.496 286.777C541.496 285.637 542.392 285.045 543.531 285.075C544.822 285.091 545.491 285.896 545.582 286.61H547.101C546.934 284.999 545.612 283.891 543.592 283.891C541.496 283.891 540.083 285.075 540.083 286.822C540.083 290.756 545.81 288.934 545.81 291.789C545.81 292.792 545.02 293.551 543.683 293.551C542.21 293.551 541.587 292.67 541.496 291.789H540.022C540.053 293.536 541.557 294.721 543.683 294.721C545.977 294.721 547.207 293.232 547.207 291.729ZM552.538 284.027H549.241V294.615H552.538C556.016 294.615 558.158 292.625 558.158 289.344C558.158 286.063 556.016 284.027 552.538 284.027ZM550.624 293.475V285.151H552.538C555.302 285.151 556.745 286.762 556.745 289.344C556.745 291.926 555.302 293.475 552.538 293.475H550.624Z" fill="white"/>
<path d="M584.175 287.068L578.869 292.373C578.243 293 577.217 293 576.591 292.373L571.285 287.068" stroke="white" stroke-width="1.6275" stroke-miterlimit="10" stroke-linecap="round" stroke-linejoin="round"/>
<path d="M262.512 333.922V342.338L256.952 333.922H255.57V344.525H256.952V336.094L262.512 344.525H263.894V333.922H262.512ZM273.633 336.201H272.251V340.773C272.251 342.565 271.294 343.446 269.866 343.446C268.468 343.446 267.542 342.581 267.542 340.894V336.201H266.175V341.077C266.175 343.462 267.678 344.646 269.592 344.646C270.701 344.646 271.719 344.16 272.251 343.295V344.525H273.633V336.201ZM287.982 344.525H289.349V339.619C289.349 337.234 287.876 336.049 285.977 336.049C284.701 336.049 283.516 336.702 283.03 337.902C282.483 336.656 281.344 336.049 279.977 336.049C278.883 336.049 277.896 336.52 277.349 337.401V336.201H275.967V344.525H277.349V339.938C277.349 338.145 278.306 337.249 279.703 337.249C281.071 337.249 281.982 338.115 281.982 339.816V344.525H283.349V339.938C283.349 338.145 284.306 337.249 285.704 337.249C287.071 337.249 287.982 338.115 287.982 339.816V344.525ZM292.999 337.75V333.284H291.617V344.525H292.999V342.991C293.515 343.902 294.594 344.662 296.113 344.662C298.346 344.662 300.062 342.915 300.062 340.332C300.062 337.735 298.361 336.064 296.113 336.064C294.639 336.064 293.531 336.824 292.999 337.75ZM298.65 340.332C298.65 342.292 297.358 343.446 295.824 343.446C294.32 343.446 292.999 342.307 292.999 340.348C292.999 338.419 294.32 337.264 295.824 337.264C297.358 337.264 298.65 338.373 298.65 340.332ZM305.421 337.234C306.849 337.234 308.064 338.13 308.049 339.755H302.793C302.945 338.13 304.069 337.234 305.421 337.234ZM309.31 341.958H307.821C307.517 342.854 306.727 343.492 305.482 343.492C304.069 343.492 302.884 342.565 302.778 340.879H309.431C309.462 340.591 309.477 340.348 309.477 340.044C309.477 337.765 307.897 336.064 305.482 336.064C303.051 336.064 301.365 337.72 301.365 340.348C301.365 342.991 303.112 344.662 305.482 344.662C307.548 344.662 308.884 343.477 309.31 341.958ZM312.684 339.998C312.684 338.069 313.686 337.477 315.008 337.477H315.372V336.049C314.051 336.049 313.154 336.626 312.684 337.553V336.201H311.301V344.525H312.684V339.998ZM328.916 340.348C328.916 337.72 327.078 336.064 324.709 336.064C322.354 336.064 320.501 337.72 320.501 340.348C320.501 342.991 322.294 344.662 324.648 344.662C327.018 344.662 328.916 342.991 328.916 340.348ZM321.914 340.348C321.914 338.251 323.235 337.264 324.694 337.264C326.121 337.264 327.504 338.251 327.504 340.348C327.504 342.459 326.091 343.446 324.648 343.446C323.205 343.446 321.914 342.459 321.914 340.348ZM330.992 344.525H332.374V337.34H334.121V336.201H332.374V335.608C332.374 334.53 332.784 334.074 334.03 334.074V332.92C331.903 332.92 330.992 333.755 330.992 335.608V336.201H329.914V337.34H330.992V344.525ZM341.924 344.54L343.459 344.525L346.01 336.003L348.471 344.525H350.021L353.089 333.937H351.6L349.276 342.884L346.846 333.937H345.297L342.745 342.915L340.436 333.937H338.962L341.924 344.54ZM358.141 337.234C359.569 337.234 360.784 338.13 360.769 339.755H355.513C355.665 338.13 356.789 337.234 358.141 337.234ZM362.03 341.958H360.541C360.237 342.854 359.447 343.492 358.202 343.492C356.789 343.492 355.604 342.565 355.498 340.879H362.151C362.182 340.591 362.197 340.348 362.197 340.044C362.197 337.765 360.617 336.064 358.202 336.064C355.771 336.064 354.085 337.72 354.085 340.348C354.085 342.991 355.832 344.662 358.202 344.662C360.268 344.662 361.604 343.477 362.03 341.958ZM367.561 337.234C368.988 337.234 370.204 338.13 370.188 339.755H364.933C365.085 338.13 366.209 337.234 367.561 337.234ZM371.449 341.958H369.961C369.657 342.854 368.867 343.492 367.621 343.492C366.209 343.492 365.024 342.565 364.917 340.879H371.571C371.601 340.591 371.616 340.348 371.616 340.044C371.616 337.765 370.037 336.064 367.621 336.064C365.191 336.064 363.505 337.72 363.505 340.348C363.505 342.991 365.252 344.662 367.621 344.662C369.687 344.662 371.024 343.477 371.449 341.958ZM373.441 344.525H374.823V340.849L378.089 344.525H379.973L376.038 340.348L379.957 336.201H378.028L374.823 339.892V333.284H373.441V344.525ZM381.258 344.525H382.641V333.284H381.258V344.525ZM388.156 342.945L385.543 336.201H384.009L387.366 344.434L385.726 348.444H387.154L392.166 336.201H390.738L388.156 342.945ZM398.988 338.965V335.077H401.023C402.603 335.077 403.271 335.806 403.271 337.036C403.271 338.221 402.603 338.965 401.023 338.965H398.988ZM404.684 337.036C404.684 335.305 403.514 333.937 401.023 333.937H397.605V344.525H398.988V340.105H401.023C403.651 340.105 404.684 338.646 404.684 337.036ZM405.886 340.332C405.886 342.915 407.602 344.662 409.82 344.662C411.354 344.662 412.432 343.872 412.934 342.976V344.525H414.331V336.201H412.934V337.72C412.448 336.854 411.384 336.064 409.835 336.064C407.602 336.064 405.886 337.735 405.886 340.332ZM412.934 340.348C412.934 342.307 411.627 343.446 410.108 343.446C408.589 343.446 407.298 342.292 407.298 340.332C407.298 338.373 408.589 337.264 410.108 337.264C411.627 337.264 412.934 338.419 412.934 340.348ZM419.827 342.945L417.214 336.201H415.68L419.037 344.434L417.396 348.444H418.824L423.837 336.201H422.409L419.827 342.945ZM437.242 344.525H438.609V339.619C438.609 337.234 437.135 336.049 435.237 336.049C433.961 336.049 432.776 336.702 432.29 337.902C431.743 336.656 430.604 336.049 429.236 336.049C428.143 336.049 427.155 336.52 426.609 337.401V336.201H425.226V344.525H426.609V339.938C426.609 338.145 427.566 337.249 428.963 337.249C430.33 337.249 431.242 338.115 431.242 339.816V344.525H432.609V339.938C432.609 338.145 433.566 337.249 434.963 337.249C436.33 337.249 437.242 338.115 437.242 339.816V344.525ZM444.415 337.234C445.843 337.234 447.058 338.13 447.043 339.755H441.788C441.939 338.13 443.064 337.234 444.415 337.234ZM448.304 341.958H446.815C446.512 342.854 445.722 343.492 444.476 343.492C443.064 343.492 441.879 342.565 441.772 340.879H448.426C448.456 340.591 448.471 340.348 448.471 340.044C448.471 337.765 446.891 336.064 444.476 336.064C442.046 336.064 440.36 337.72 440.36 340.348C440.36 342.991 442.107 344.662 444.476 344.662C446.542 344.662 447.879 343.477 448.304 341.958ZM456.387 344.525H457.754V339.619C457.754 337.234 456.281 336.049 454.351 336.049C453.227 336.049 452.225 336.52 451.678 337.386V336.201H450.296V344.525H451.678V339.922C451.678 338.13 452.65 337.249 454.063 337.249C455.46 337.249 456.387 338.115 456.387 339.816V344.525ZM460.316 342.246C460.316 343.917 461.151 344.525 462.625 344.525H463.87V343.355H462.853C462.002 343.355 461.698 343.067 461.698 342.246V337.34H463.87V336.201H461.698V334.105H460.316V336.201H459.237V337.34H460.316V342.246ZM471.53 342.262C471.469 339.284 466.639 340.363 466.639 338.388C466.639 337.72 467.246 337.234 468.264 337.234C469.373 337.234 470.011 337.841 470.072 338.677H471.454C471.363 337.051 470.148 336.064 468.31 336.064C466.456 336.064 465.256 337.112 465.256 338.388C465.256 341.487 470.178 340.408 470.178 342.262C470.178 342.945 469.57 343.492 468.477 343.492C467.307 343.492 466.593 342.884 466.517 342.079H465.089C465.18 343.598 466.548 344.662 468.492 344.662C470.33 344.662 471.53 343.629 471.53 342.262Z" fill="black"/>
<path d="M488.761 347.597C493.236 347.597 496.898 343.935 496.898 339.46C496.898 334.984 493.236 331.322 488.761 331.322C484.285 331.322 480.623 334.984 480.623 339.46C480.623 343.935 484.285 347.597 488.761 347.597Z" stroke="#53C48A" stroke-width="1.6275" stroke-linecap="round" stroke-linejoin="round"/>
<path d="M488.76 343.935C489.201 343.935 489.559 343.577 489.559 343.136C489.559 342.694 489.201 342.336 488.76 342.336C488.318 342.336 487.96 342.694 487.96 343.136C487.96 343.577 488.318 343.935 488.76 343.935Z" fill="#53C48A"/>
<path d="M488.76 341.003V340.47C489.181 340.47 489.594 340.345 489.944 340.111C490.295 339.876 490.568 339.543 490.73 339.154C490.891 338.764 490.933 338.335 490.851 337.921C490.769 337.508 490.566 337.128 490.268 336.829C489.969 336.531 489.589 336.328 489.176 336.246C488.762 336.164 488.333 336.206 487.943 336.367C487.554 336.529 487.221 336.802 486.986 337.153C486.752 337.503 486.627 337.916 486.627 338.337" stroke="#53C48A" stroke-width="1.6275" stroke-linecap="round" stroke-linejoin="round"/>
<path d="M419.32 357.362H263.08C258.586 357.362 254.943 361.005 254.943 365.5V389.37C254.943 393.864 258.586 397.507 263.08 397.507H419.32C423.815 397.507 427.458 393.864 427.458 389.37V365.5C427.458 361.005 423.815 357.362 419.32 357.362Z" fill="white"/>
<path d="M270.731 382.515L272.266 382.5L274.817 373.978L277.278 382.5H278.828L281.896 371.912H280.407L278.083 380.859L275.653 371.912H274.104L271.552 380.89L269.243 371.912H267.769L270.731 382.515ZM286.948 375.209C288.376 375.209 289.591 376.105 289.576 377.73H284.32C284.472 376.105 285.596 375.209 286.948 375.209ZM290.837 379.933H289.348C289.044 380.829 288.254 381.467 287.009 381.467C285.596 381.467 284.411 380.54 284.305 378.854H290.958C290.989 378.566 291.004 378.323 291.004 378.019C291.004 375.74 289.424 374.039 287.009 374.039C284.578 374.039 282.892 375.695 282.892 378.323C282.892 380.966 284.639 382.636 287.009 382.636C289.075 382.636 290.411 381.452 290.837 379.933ZM296.368 375.209C297.795 375.209 299.011 376.105 298.995 377.73H293.74C293.892 376.105 295.016 375.209 296.368 375.209ZM300.256 379.933H298.768C298.464 380.829 297.674 381.467 296.428 381.467C295.016 381.467 293.831 380.54 293.724 378.854H300.378C300.408 378.566 300.423 378.323 300.423 378.019C300.423 375.74 298.844 374.039 296.428 374.039C293.998 374.039 292.312 375.695 292.312 378.323C292.312 380.966 294.059 382.636 296.428 382.636C298.494 382.636 299.831 381.452 300.256 379.933ZM302.248 382.5H303.63V378.824L306.896 382.5H308.78L304.845 378.323L308.764 374.176H306.835L303.63 377.867V371.259H302.248V382.5Z" fill="black"/>
<path d="M411.659 374.953L406.354 380.258C405.727 380.885 404.702 380.885 404.075 380.258L398.77 374.953" stroke="#292D32" stroke-width="1.6275" stroke-miterlimit="10" stroke-linecap="round" stroke-linejoin="round"/>
<path d="M419.32 357.362H263.08C258.586 357.362 254.943 361.005 254.943 365.5V389.37C254.943 393.864 258.586 397.507 263.08 397.507H419.32C423.815 397.507 427.458 393.864 427.458 389.37V365.5C427.458 361.005 423.815 357.362 419.32 357.362Z" stroke="#C9D4EA" stroke-width="1.085"/>
<path d="M606.111 112H249C240.716 112 234 118.716 234 127V210.407C234 218.691 240.716 225.407 249 225.407H606.111C614.395 225.407 621.111 218.691 621.111 210.407V127C621.111 118.716 614.395 112 606.111 112Z" stroke="url(#paint0_linear)" stroke-width="2.5" stroke-dasharray="5 5"/>
<path d="M234 169L199.5 188.919L199.5 149.081L234 169Z" fill="url(#paint1_linear)"/>
<rect x="233.899" y="112.141" width="387.111" height="113.407" rx="15" stroke="url(#paint2_linear)" stroke-width="2.5" stroke-dasharray="5 5"/>
<path d="M371.236 194.064L376.493 192.331L378.136 191.789L376.763 190.736L361.497 179.023L360.025 177.893V179.749V200.525V202.563L361.548 201.209L366.087 197.173C366.09 197.171 366.092 197.169 366.094 197.168C366.102 197.177 366.116 197.193 366.131 197.221L366.131 197.221L366.133 197.226L371.005 206.351L371.487 207.254L372.331 206.673L375.544 204.46L376.217 203.996L375.832 203.275L371.171 194.551C371.123 194.455 371.109 194.322 371.146 194.203C371.165 194.149 371.192 194.108 371.216 194.082C371.225 194.072 371.232 194.067 371.236 194.064Z" fill="white" stroke="#333333" stroke-width="1.83"/>
<path d="M121.893 103.738C119.374 107.453 116.146 110.636 112.396 113.104C108.646 115.572 104.447 117.276 100.038 118.121C95.6291 118.966 91.0969 118.933 86.7004 118.026C82.3039 117.119 78.1292 115.354 74.4148 112.833C72.7454 111.704 71.1768 110.432 69.7266 109.033C65.0843 104.49 61.8332 98.7184 60.3546 92.3939C58.8759 86.0695 59.2309 79.4546 61.378 73.3248C63.5251 67.1949 67.3753 61.8043 72.4771 57.7848C77.5789 53.7653 83.7209 51.2836 90.183 50.6307C96.6451 49.9777 103.159 51.1806 108.962 54.0983C114.765 57.0159 119.616 61.5275 122.946 67.1039C126.275 72.6803 127.947 79.0905 127.763 85.5829C127.579 92.0753 125.549 98.3808 121.909 103.76L121.893 103.738Z" fill="#8EDCA4"/>
<path d="M115.726 99.9915C112.846 104.273 108.76 107.604 103.986 109.563C99.2121 111.522 93.9643 112.02 88.907 110.994C83.8497 109.969 79.2103 107.466 75.5761 103.803C71.9419 100.14 69.4763 95.4804 68.4914 90.4151C67.5065 85.3497 68.0466 80.1061 70.0433 75.3479C72.04 70.5896 75.4035 66.5308 79.7081 63.6851C84.0128 60.8395 89.0649 59.3349 94.225 59.362C99.3852 59.389 104.421 60.9464 108.696 63.837C114.421 67.7002 118.378 73.679 119.696 80.4588C121.014 87.2386 119.586 94.2645 115.726 99.9915Z" fill="#8EDCA4"/>
<path d="M115.149 99.1765C115.202 99.0428 115.269 98.915 115.348 98.795C115.497 98.5263 115.697 98.177 115.966 97.7244L116.421 96.9327C116.574 96.6392 116.715 96.2989 116.891 95.9454C117.299 95.1274 117.649 94.2814 117.938 93.4137C118.784 91.0552 119.276 88.584 119.397 86.0809C119.714 80.0815 117.937 74.1581 114.37 69.3239C110.803 64.4897 105.667 61.0451 99.8405 59.5791C98.652 59.2776 97.4447 59.0562 96.2266 58.9161C95.6042 58.8544 94.9785 58.8496 94.3592 58.8076C93.7301 58.7647 93.0987 58.7699 92.4705 58.8234C91.1883 58.8771 89.9109 59.0153 88.6469 59.2369C87.37 59.5048 86.112 59.8555 84.8807 60.2869C82.3442 61.1712 79.9671 62.4592 77.8413 64.1013C73.4108 67.4711 70.2076 72.2009 68.7227 77.5656C67.9864 80.15 67.6757 82.837 67.8029 85.5212C67.8529 86.8225 67.99 88.1189 68.2131 89.4018C68.4783 90.6561 68.8242 91.892 69.2488 93.1017C69.6668 94.2859 70.1633 95.4409 70.7352 96.5589C71.3168 97.6395 71.9721 98.6786 72.6965 99.6691C76.2251 104.53 81.3321 108.015 87.1449 109.528C92.9578 111.042 99.1158 110.489 104.567 107.966C106.852 106.937 108.965 105.563 110.832 103.891C111.523 103.309 112.17 102.676 112.767 101.998C113.041 101.706 113.303 101.444 113.519 101.193L114.092 100.46C114.417 100.055 114.67 99.7339 114.858 99.4912C114.943 99.3788 115.036 99.2729 115.136 99.1743C115.068 99.297 114.99 99.4141 114.904 99.5245L114.175 100.532L113.618 101.286C113.408 101.545 113.15 101.814 112.882 102.113C112.287 102.817 111.638 103.473 110.941 104.076C109.078 105.787 106.963 107.2 104.669 108.265C101.305 109.856 97.6411 110.712 93.9206 110.775C90.2001 110.839 86.5088 110.109 83.0927 108.634C79.7588 107.224 76.7581 105.129 74.2851 102.486C71.8122 99.8428 69.9221 96.7094 68.7372 93.289C68.3024 92.0571 67.9476 90.7984 67.6749 89.5207C67.4401 88.2075 67.2955 86.8798 67.2423 85.5468C67.108 82.8096 67.4214 80.0689 68.1701 77.4327C68.9544 74.7197 70.1436 72.1406 71.6973 69.7824C73.3037 67.4634 75.2557 65.4041 77.4857 63.6761C79.6555 62.0016 82.0822 60.6895 84.6714 59.7908C85.9303 59.3496 87.2173 58.9931 88.5237 58.7236C89.812 58.5018 91.1129 58.3613 92.4188 58.3031C93.0617 58.2578 93.707 58.2571 94.3499 58.301C94.989 58.34 95.6199 58.352 96.2547 58.4158C97.4939 58.5565 98.722 58.7816 99.9306 59.0894C104.485 60.2529 108.646 62.6111 111.983 65.9207C114.623 68.5457 116.674 71.7033 117.998 75.183C119.322 78.6627 119.889 82.3846 119.662 86.1007C119.529 88.6266 119.004 91.1165 118.105 93.4807C117.802 94.3519 117.435 95.1995 117.006 96.0163C116.824 96.375 116.677 96.708 116.512 96.9994L116.027 97.7795C115.74 98.2228 115.506 98.5854 115.362 98.8293C115.3 98.9502 115.228 99.0662 115.149 99.1765Z" fill="#7CC092"/>
<path d="M114.83 99.2823C114.697 99.2019 115.247 98.19 115.983 96.2828C117.077 93.641 117.758 90.8464 118.001 87.9972C118.157 86.0489 118.096 84.0891 117.818 82.1544C117.503 79.9577 116.908 77.8104 116.047 75.765C115.084 73.5105 113.801 71.4068 112.237 69.5192C111.412 68.5254 110.511 67.5974 109.541 66.7437C108.538 65.869 107.471 65.0691 106.351 64.3503C105.225 63.6419 104.051 63.0138 102.837 62.4704C101.647 61.9659 100.42 61.553 99.1672 61.2354C97.9569 60.9152 96.7228 60.6934 95.4767 60.572C94.2807 60.4482 93.0772 60.4133 91.876 60.4675C89.6468 60.5585 87.4389 60.9395 85.3081 61.6008C83.4442 62.1838 81.6501 62.9703 79.9585 63.9462C77.4852 65.3884 75.2491 67.2032 73.3288 69.3268C71.959 70.8314 71.2806 71.7702 71.1494 71.6775C71.0182 71.5847 71.5034 70.5425 72.7291 68.8342C74.5053 66.4245 76.7088 64.3614 79.2301 62.7475C82.9989 60.3227 87.3269 58.9058 91.8 58.6324C94.4357 58.4702 97.0808 58.7071 99.6457 59.3353C101.003 59.6616 102.331 60.0983 103.616 60.6411C104.937 61.2079 106.212 61.8749 107.431 62.6362C108.637 63.411 109.784 64.274 110.863 65.2181C111.901 66.1511 112.867 67.1605 113.754 68.238C115.417 70.2899 116.764 72.5782 117.752 75.0275C119.416 79.1896 119.983 83.7092 119.4 88.1534C119.017 91.1244 118.091 93.9999 116.67 96.637C115.703 98.479 114.921 99.349 114.83 99.2823Z" fill="#7CC092"/>
<path d="M101.211 96.6317C102.969 93.595 102.664 90.7841 101.017 88.7471C102.174 88.6746 103.293 88.2992 104.263 87.6581C105.233 87.017 106.021 86.1323 106.548 85.0917C108.271 82.156 107.844 79.0202 105.132 76.4816L107.246 72.7957L103.864 70.8192L101.881 74.2481L99.9361 73.123L101.909 69.6926L98.5548 67.7413L96.572 71.1702L93.4908 69.3744L91.3527 68.1263L89.3846 71.5255L91.5315 72.7854L81.9625 89.3534L79.593 87.9558L77.6338 91.3668L79.9929 92.763L83.0992 94.5306L80.7932 98.5285L84.1765 100.495L86.481 96.5071L88.4261 97.6323L86.1216 101.62L89.4562 103.558L91.8315 99.4424C95.9563 101.154 99.2115 100.101 101.211 96.6317ZM95.8314 75.2637L100.408 77.9405C102.946 79.415 103.769 81.3241 102.516 83.5422C101.263 85.7602 99.2072 85.8598 96.6623 84.4372L91.4739 81.3977L95.1918 74.95L95.8314 75.2637ZM91.5789 94.9319L86.0487 91.7059L85.6611 91.4704L89.5472 84.7286L95.4767 88.1811C98.2352 89.8037 99.1319 91.7127 97.7996 94.0467C96.4674 96.3806 94.3285 96.5427 91.5583 94.9289L91.5789 94.9319Z" fill="#7CC092"/>
<path d="M177.071 133.761C178.265 136.944 178.82 140.332 178.705 143.731C178.59 147.129 177.806 150.472 176.399 153.567C174.991 156.662 172.988 159.45 170.503 161.771C168.018 164.093 165.1 165.901 161.916 167.095C160.487 167.633 159.015 168.046 157.515 168.33C152.675 169.212 147.683 168.696 143.126 166.843C138.569 164.989 134.635 161.875 131.784 157.865C128.934 153.855 127.286 149.115 127.034 144.202C126.782 139.289 127.935 134.405 130.36 130.124C132.784 125.844 136.378 122.342 140.722 120.032C145.065 117.721 149.977 116.696 154.882 117.078C159.787 117.46 164.481 119.232 168.415 122.186C172.348 125.141 175.358 129.156 177.091 133.761H177.071Z" fill="#8EDCA4"/>
<path d="M172.055 135.934C173.442 139.589 173.714 143.572 172.835 147.381C171.957 151.19 169.968 154.652 167.121 157.33C164.274 160.008 160.697 161.781 156.841 162.425C152.986 163.069 149.026 162.554 145.464 160.946C141.901 159.338 138.895 156.71 136.827 153.393C134.759 150.076 133.722 146.22 133.846 142.314C133.971 138.407 135.252 134.625 137.527 131.447C139.802 128.268 142.968 125.836 146.626 124.458C151.52 122.609 156.948 122.779 161.717 124.931C166.485 127.083 170.204 131.041 172.055 135.934Z" fill="#8EDCA4"/>
<path d="M171.299 135.934C171.239 135.843 171.19 135.745 171.15 135.644C171.049 135.435 170.921 135.158 170.759 134.793L170.468 134.165C170.354 133.943 170.205 133.706 170.063 133.443C169.736 132.833 169.367 132.246 168.956 131.688C167.869 130.132 166.556 128.747 165.061 127.577C161.491 124.755 157.051 123.262 152.501 123.351C147.952 123.441 143.574 125.109 140.118 128.07C139.412 128.673 138.746 129.322 138.127 130.014C137.816 130.372 137.54 130.756 137.242 131.121C136.941 131.491 136.668 131.884 136.426 132.296C135.898 133.112 135.424 133.962 135.008 134.841C134.615 135.747 134.281 136.678 134.009 137.629C133.446 139.584 133.202 141.617 133.287 143.65C133.431 147.864 134.954 151.914 137.621 155.18C138.896 156.766 140.421 158.134 142.137 159.23C142.963 159.769 143.824 160.251 144.715 160.675C145.607 161.06 146.522 161.387 147.456 161.654C148.371 161.913 149.302 162.112 150.244 162.248C151.167 162.361 152.096 162.41 153.025 162.396C157.575 162.342 161.964 160.709 165.444 157.778C168.923 154.846 171.277 150.797 172.102 146.323C172.466 144.46 172.541 142.552 172.325 140.666C172.267 139.984 172.159 139.307 172.001 138.641C171.94 138.344 171.893 138.067 171.832 137.824L171.63 137.149C171.522 136.771 171.434 136.474 171.366 136.251C171.334 136.15 171.309 136.046 171.292 135.941C171.338 136.037 171.376 136.136 171.407 136.238L171.711 137.129L171.933 137.804C172.001 138.047 172.055 138.324 172.122 138.621C172.297 139.297 172.419 139.985 172.487 140.68C172.729 142.58 172.677 144.506 172.332 146.391C171.843 149.167 170.769 151.807 169.18 154.135C167.591 156.463 165.524 158.425 163.117 159.892C160.787 161.336 158.179 162.275 155.462 162.647C152.746 163.019 149.981 162.816 147.348 162.052C146.396 161.782 145.463 161.45 144.553 161.059C143.639 160.63 142.755 160.138 141.907 159.588C140.156 158.473 138.599 157.08 137.297 155.463C135.962 153.791 134.888 151.927 134.11 149.935C133.38 147.927 132.961 145.819 132.868 143.684C132.783 141.609 133.033 139.535 133.611 137.541C133.889 136.569 134.232 135.618 134.637 134.692C135.063 133.798 135.546 132.933 136.081 132.1C136.335 131.683 136.617 131.283 136.925 130.905C137.229 130.527 137.513 130.142 137.83 129.778C138.459 129.073 139.136 128.412 139.855 127.8C142.567 125.493 145.846 123.953 149.353 123.338C152.131 122.854 154.981 122.968 157.711 123.673C160.442 124.377 162.992 125.655 165.19 127.422C166.693 128.609 168.003 130.023 169.071 131.614C169.477 132.182 169.84 132.78 170.158 133.403C170.3 133.673 170.441 133.909 170.549 134.138L170.82 134.78C170.968 135.151 171.09 135.455 171.177 135.651C171.225 135.742 171.265 135.837 171.299 135.934Z" fill="#7CC092"/>
<path d="M171.225 136.177C171.117 136.225 170.732 135.441 169.875 134.152C168.72 132.319 167.291 130.676 165.636 129.278C164.499 128.329 163.261 127.509 161.943 126.835C160.447 126.068 158.859 125.496 157.218 125.133C155.403 124.742 153.541 124.614 151.689 124.755C150.713 124.831 149.745 124.982 148.793 125.208C147.813 125.445 146.852 125.754 145.917 126.133C144.987 126.519 144.084 126.97 143.217 127.483C142.385 127.997 141.592 128.575 140.848 129.211C140.12 129.819 139.443 130.485 138.823 131.202C138.223 131.887 137.674 132.616 137.182 133.383C136.263 134.801 135.532 136.332 135.009 137.939C134.553 139.347 134.254 140.8 134.118 142.273C133.927 144.433 134.07 146.61 134.543 148.726C134.874 150.232 135.157 151.062 135.042 151.103C134.928 151.143 134.496 150.387 133.976 148.882C133.263 146.729 132.952 144.464 133.058 142.199C133.208 138.808 134.226 135.512 136.014 132.627C137.068 130.926 138.372 129.394 139.882 128.083C140.678 127.387 141.529 126.757 142.427 126.2C143.356 125.632 144.326 125.135 145.33 124.715C146.337 124.308 147.373 123.977 148.429 123.723C149.46 123.489 150.507 123.334 151.561 123.257C153.557 123.127 155.561 123.295 157.508 123.756C160.809 124.549 163.852 126.176 166.344 128.482C168.013 130.019 169.386 131.849 170.395 133.882C171.11 135.286 171.306 136.15 171.225 136.177Z" fill="#7CC092"/>
<path d="M163.626 143.438C162.518 141.022 160.647 139.98 158.666 140.107C159.128 139.36 159.385 138.504 159.414 137.623C159.442 136.743 159.24 135.869 158.827 135.088C157.766 132.738 155.64 131.629 152.884 132.195L151.53 129.275L148.828 130.501L150.08 133.228L148.534 133.938L147.276 131.217L144.602 132.437L145.854 135.163L143.395 136.282L141.688 137.058L142.928 139.762L144.647 138.986L150.702 152.153L148.801 153.006L150.053 155.71L151.949 154.863L154.401 153.716L155.863 156.891L158.559 155.66L157.103 152.49L158.65 151.78L160.106 154.95L162.764 153.736L161.259 150.467C164.122 148.665 164.896 146.192 163.626 143.438ZM148.061 137.412L151.719 135.754C153.741 134.831 155.281 135.157 156.104 136.902C156.928 138.648 156.089 139.962 154.096 140.913L149.946 142.791L147.587 137.67L148.061 137.412ZM158.36 148.649L153.945 150.656L153.63 150.793L151.162 145.44L155.892 143.285C158.102 142.289 159.675 142.57 160.535 144.415C161.395 146.26 160.559 147.654 158.349 148.66L158.36 148.649Z" fill="#7CC092"/>
<path d="M106.572 198.323L111.357 183.8L116.73 176.333C116.818 176.197 116.949 176.094 117.101 176.041C117.253 175.987 117.418 175.986 117.57 176.038C117.723 176.09 117.855 176.191 117.945 176.326C118.035 176.461 118.078 176.623 118.068 176.786V198.302L114.013 203.712L106.572 198.323Z" fill="white"/>
<path d="M28.5891 261.822L68.7357 263.262C70.2171 263.314 71.6826 262.938 72.9608 262.177C74.2391 261.415 75.2773 260.3 75.954 258.963L106.571 198.322C106.571 198.322 113.465 202.107 113.992 203.712C114.519 205.316 91.3232 264.331 84.2063 282.453C83.6079 283.975 82.5593 285.27 81.2048 286.162C79.8503 287.053 78.2566 287.497 76.6434 287.431L31.7724 285.498" fill="white"/>
<path d="M28.5891 261.822L68.7357 263.262C70.2171 263.314 71.6826 262.938 72.9608 262.177C74.2391 261.415 75.2773 260.3 75.954 258.963L106.571 198.322C106.571 198.322 113.465 202.107 113.992 203.712C114.519 205.316 91.3232 264.331 84.2063 282.453C83.6079 283.975 82.5593 285.27 81.2048 286.162C79.8503 287.053 78.2566 287.497 76.6434 287.431L31.7724 285.498" stroke="#263238" stroke-miterlimit="10"/>
<path d="M103.631 205.872L109.916 208.505" stroke="#263238" stroke-width="0.75" stroke-miterlimit="10"/>
<g opacity="0.5">
<g opacity="0.5">
<path d="M28.5891 261.822L68.7357 263.262C70.2171 263.314 71.6826 262.938 72.9608 262.177C74.2391 261.415 75.2773 260.3 75.954 258.963L106.571 198.322C106.571 198.322 113.465 202.107 113.992 203.712C114.519 205.316 91.3232 264.331 84.2063 282.453C83.6079 283.975 82.5593 285.27 81.2048 286.162C79.8503 287.053 78.2566 287.497 76.6434 287.431L31.7724 285.498" fill="#92E3A9"/>
<path d="M28.5891 261.822L68.7357 263.262C70.2171 263.314 71.6826 262.938 72.9608 262.177C74.2391 261.415 75.2773 260.3 75.954 258.963L106.571 198.322C106.571 198.322 113.465 202.107 113.992 203.712C114.519 205.316 91.3232 264.331 84.2063 282.453C83.6079 283.975 82.5593 285.27 81.2048 286.162C79.8503 287.053 78.2566 287.497 76.6434 287.431L31.7724 285.498" stroke="#263238" stroke-miterlimit="10"/>
</g>
<path opacity="0.5" d="M103.63 205.871L109.916 208.504" stroke="#263238" stroke-width="0.75" stroke-miterlimit="10"/>
</g>
<path d="M106.572 198.323L111.357 183.8L116.73 176.333C116.818 176.197 116.949 176.094 117.101 176.041C117.253 175.987 117.418 175.986 117.57 176.038C117.723 176.09 117.855 176.191 117.945 176.326C118.035 176.461 118.078 176.623 118.068 176.786V198.302L114.013 203.712L106.572 198.323Z" fill="#92E3A9"/>
<path opacity="0.5" d="M106.572 198.323L111.357 183.8L116.73 176.333C116.818 176.197 116.949 176.094 117.101 176.041C117.253 175.987 117.418 175.986 117.57 176.038C117.723 176.09 117.855 176.191 117.945 176.326C118.035 176.461 118.078 176.623 118.068 176.786V198.302L114.013 203.712L106.572 198.323Z" fill="white"/>
<path d="M106.572 198.323L111.357 183.8L116.73 176.333C116.818 176.197 116.949 176.094 117.101 176.041C117.253 175.987 117.418 175.986 117.57 176.038C117.723 176.09 117.855 176.191 117.945 176.326C118.035 176.461 118.078 176.623 118.068 176.786V198.302L114.013 203.712L106.572 198.323Z" stroke="#263238" stroke-miterlimit="10"/>
<path d="M16.1608 223.501C18.0886 225.98 19.4713 228.848 20.216 231.914C20.804 235.863 19.8713 251.064 19.8713 251.064L40.7556 253.451C40.7556 253.451 39.1741 238.003 39.093 235.431C38.4244 232.243 37.0928 229.235 35.1872 226.61C33.2816 223.986 30.8458 221.803 28.0425 220.21C20.8648 216.63 14.7618 218.379 16.1608 223.501Z" fill="white"/>
<g style="mix-blend-mode:multiply" opacity="0.5">
<path d="M16.303 223.665C20.0947 222.616 24.6973 221.443 28.5903 220.497C31.2665 222.113 33.5858 224.272 35.4033 226.838C37.2208 229.403 38.4977 232.322 39.1542 235.41C39.1542 236.398 39.4381 239.277 39.7219 242.445C37.6943 241.972 34.4704 241.252 32.0778 240.82C30.1826 240.51 28.3171 240.035 26.5019 239.401L27.2116 251.743H26.7452L19.9325 250.961C19.9325 250.961 20.8652 235.76 20.2772 231.811C19.5364 228.84 18.1817 226.064 16.303 223.665Z" fill="#92E3A9"/>
</g>
<path d="M16.1608 223.501C18.0886 225.98 19.4713 228.848 20.216 231.914C20.804 235.863 19.8713 251.064 19.8713 251.064L40.7556 253.451C40.7556 253.451 39.1741 238.003 39.093 235.431C38.4244 232.243 37.0928 229.235 35.1872 226.61C33.2816 223.986 30.8458 221.803 28.0425 220.21C20.8648 216.63 14.7618 218.379 16.1608 223.501Z" stroke="#263238" stroke-width="1.00396" stroke-miterlimit="10"/>
<path d="M11.822 226.113C-5.49376 202.91 36.2546 178.802 47.224 201.861C48.7528 204.704 49.9634 207.713 50.8331 210.829C52.4958 211.858 56.916 214.614 57.727 215.375C58.5381 216.136 55.6994 218.091 54.1381 219.057C57.1187 226.483 56.6727 234.3 55.8211 236.069C54.3409 239.113 47.0415 239.154 42.2361 238.249C37.4307 237.344 35.5247 232.675 34.1257 231.399C32.7266 230.124 25.7517 231.749 23.2983 232.489C20.8449 233.23 15.1878 230.7 11.822 226.113Z" fill="white"/>
<g style="mix-blend-mode:multiply" opacity="0.5">
<path d="M28.9548 223.891C28.9548 223.891 28.5897 225.64 32.0772 227.059C35.5647 228.478 36.2541 227.409 37.2882 229.877C37.7273 231.5 38.6158 232.961 39.8484 234.088C41.081 235.214 42.606 235.959 44.2429 236.233C47.5461 236.869 50.8842 237.302 54.239 237.529C51.4815 239.092 46.0069 238.969 42.0734 238.249C37.2882 237.364 35.362 232.674 33.9629 231.399C32.5639 230.124 25.5889 231.749 23.1355 232.489C22.5599 232.606 21.9674 232.606 21.3918 232.489C20.4767 230.422 19.9276 228.208 19.7697 225.948L28.9548 223.891Z" fill="#92E3A9"/>
</g>
<path d="M11.822 226.113C-5.49376 202.91 36.2546 178.802 47.224 201.861C48.7528 204.704 49.9634 207.713 50.8331 210.829C52.4958 211.858 56.916 214.614 57.727 215.375C58.5381 216.136 55.6994 218.091 54.1381 219.057C57.1187 226.483 56.6727 234.3 55.8211 236.069C54.3409 239.113 47.0415 239.154 42.2361 238.249C37.4307 237.344 35.5247 232.675 34.1257 231.399C32.7266 230.124 25.7517 231.749 23.2983 232.489C20.8449 233.23 15.1878 230.7 11.822 226.113Z" stroke="#263238" stroke-miterlimit="10"/>
<path d="M45.6425 212.865C46.0886 213.853 46.8389 214.47 47.3255 214.244C47.8121 214.017 47.8527 213.03 47.3255 212.043C46.7983 211.055 46.1292 210.438 45.6425 210.664C45.1559 210.891 45.1965 211.878 45.6425 212.865Z" fill="#263238"/>
<path d="M46.0471 206.53C46.0471 206.53 44.0195 204.823 43.614 208.752" stroke="#263238" stroke-width="0.5" stroke-linecap="round" stroke-linejoin="round"/>
<path d="M54.5432 223.048C54.5432 223.048 54.5432 225.105 50.8935 225.105" stroke="#263238" stroke-width="0.5" stroke-linecap="round" stroke-linejoin="round"/>
<path d="M59.49 357.658L61.0917 377.775C61.0917 377.775 72.1828 457.875 71.6556 467.069C71.1284 476.264 69.9321 571.256 69.9321 571.256L56.5702 573.416L41.5659 468.057L20.4991 360.99L59.49 357.658Z" fill="#92E3A9" stroke="#263238" stroke-miterlimit="10"/>
<path opacity="0.2" d="M59.49 357.658L61.0917 377.775C61.0917 377.775 72.1828 457.875 71.6556 467.069C71.1284 476.264 69.9321 571.256 69.9321 571.256L56.5702 573.416L41.5659 468.057L20.4991 360.99L59.49 357.658Z" fill="#263238"/>
<path d="M42.5795 430.825C42.5795 430.825 47.7093 461.453 51.582 476.469C55.4547 491.486 55.4345 506.46 55.4345 522.752C55.4345 539.043 61.2131 569.075 61.2131 569.075" stroke="#263238" stroke-width="0.75" stroke-miterlimit="10"/>
<path d="M32.3818 352.721C23.5819 348.031 14.1333 344.925 11.4366 351.157C6.08367 363.623 12.4909 382.568 12.4909 382.568L7.60441 469.949L-1.33735 575.37L12.0246 573.19C12.0246 573.19 32.5439 484.225 35.7475 478.794C38.9512 473.364 43.9999 397.193 43.9999 397.193L54.1379 387.834" fill="#92E3A9"/>
<path d="M32.3818 352.721C23.5819 348.031 14.1333 344.925 11.4366 351.157C6.08367 363.623 12.4909 382.568 12.4909 382.568L7.60441 469.949L-1.33734 575.37L12.0246 573.19C12.0246 573.19 32.5439 484.225 35.7475 478.794C38.9512 473.364 43.9999 397.193 43.9999 397.193L54.1379 387.834" stroke="#263238" stroke-miterlimit="10"/>
<g opacity="0.2">
<path opacity="0.2" d="M32.3818 352.721C23.5819 348.031 14.1333 344.925 11.4366 351.157C6.08367 363.623 12.4909 382.568 12.4909 382.568L7.60441 469.949L-1.33735 575.37L12.0246 573.19C12.0246 573.19 32.5439 484.225 35.7475 478.794C38.9512 473.364 43.9999 397.193 43.9999 397.193L54.1379 387.834" fill="#263238"/>
</g>
<path d="M21.9607 418.915C21.6566 439.176 19.629 448.927 18.0474 454.275C16.1212 460.795 16.77 473.179 16.77 478.959C16.77 484.739 19.3451 477.663 13.5461 504.404C7.74718 531.145 3.91501 568.294 3.91501 568.294" stroke="#263238" stroke-width="0.75" stroke-miterlimit="10"/>
<path d="M21.9607 374.751C21.9607 374.751 21.3321 373.435 21.9607 404.084C21.9607 405.73 21.9607 407.314 21.9607 408.856" stroke="#263238" stroke-width="0.75" stroke-miterlimit="10"/>
<path d="M51.6237 368.93L52.0495 378.104L54.1379 384.481L51.0154 388.183" stroke="#263238" stroke-width="0.75" stroke-linecap="round" stroke-linejoin="round"/>
<path d="M55.7195 374.402C55.7195 374.402 50.4883 379.709 36.9033 378.104" stroke="#263238" stroke-width="0.75" stroke-linecap="round" stroke-linejoin="round"/>
<path d="M23.6225 369.814C13.4845 367.757 12.8356 364.919 9.32784 362.532C9.26236 358.643 9.95129 354.777 11.3554 351.157C14.0116 344.986 23.5211 348.031 32.3007 352.721L36.5586 359.55L59.4097 357.657L60.1396 366.749C48.4072 370.833 35.8569 371.886 23.6225 369.814Z" fill="#263238"/>
<path d="M57.1984 363.952L57.4214 367.572L51.6225 368.93L51.1764 364.178L57.1984 363.952Z" fill="white" stroke="#263238" stroke-width="0.75" stroke-miterlimit="10"/>
<path d="M16.728 369.321L17.7012 360.311L14.7612 359.324L13.281 367.325" fill="#92E3A9"/>
<path d="M16.728 369.321L17.7012 360.311L14.7612 359.324L13.281 367.325" stroke="#263238" stroke-miterlimit="10"/>
<path d="M39.3972 372.324L41.364 361.813H36.4369L34.4702 370.823" fill="#92E3A9"/>
<path d="M39.3972 372.324L41.364 361.813H36.4369L34.4702 370.823" stroke="#263238" stroke-miterlimit="10"/>
<g opacity="0.2">
<path opacity="0.2" d="M16.7277 369.321L17.7009 360.311L14.7609 359.324L13.2808 367.325" fill="#263238"/>
<path opacity="0.2" d="M39.3972 372.323L41.364 361.812H36.4369L34.4702 370.822" fill="#263238"/>
</g>
<path d="M62.1074 277.928C62.1074 277.928 63.7903 289.345 68.839 308.783C73.8878 328.222 78.9771 351.528 78.9771 351.528L76.1587 363.499L67.7441 350.952L62.1074 277.928Z" fill="#263238" stroke="#263238" stroke-miterlimit="10"/>
<path d="M48.0542 261.411C48.0542 261.411 59.8548 264.249 60.97 269.947C61.5717 272.57 61.9516 275.24 62.1055 277.928L44.1206 263.118L21.6345 253.985L48.0542 261.411Z" fill="#263238" stroke="#263238" stroke-miterlimit="10"/>
<path d="M44.8295 257.009C44.8295 257.009 54.4201 268.014 58.232 272.539C62.0439 277.064 62.0641 325.63 62.0641 332.768C62.0641 339.906 65.876 359.283 59.5093 363.17C53.1426 367.058 14.1923 365.762 10.3602 359.283C6.52799 352.803 3.99352 275.131 4.62207 268.014C5.09964 264.821 6.33952 261.794 8.23375 259.199C10.128 256.603 12.619 254.516 15.49 253.121C19.9305 251.043 44.8295 257.009 44.8295 257.009Z" fill="white"/>
<g style="mix-blend-mode:multiply" opacity="0.5">
<path d="M15.4932 253.121C16.023 252.903 16.5851 252.778 17.1559 252.75L19.9134 254.211C15.2718 258.069 12.079 263.429 10.8703 269.392C9.5879 278.054 9.70435 286.87 11.215 295.495C12.5938 305.019 34.8568 295.495 30.68 299.033C26.5031 302.571 10.8703 308.557 10.1606 311.725C9.45094 314.892 17.9061 320.179 20.9475 320.549C23.9889 320.919 18.9199 327.954 15.7365 333.94C12.5532 339.926 13.7089 348.339 20.9475 354.058C28.186 359.776 44.9949 362.594 52.2537 362.882C54.6058 362.882 56.0656 363.499 56.5117 364.199C45.3599 366.729 13.79 365.083 10.3634 359.282C6.5312 352.803 3.99672 275.131 4.62527 268.013C5.10284 264.82 6.34273 261.794 8.23695 259.198C10.1312 256.603 12.6222 254.516 15.4932 253.121Z" fill="#92E3A9"/>
</g>
<path d="M44.8295 257.009C44.8295 257.009 54.4201 268.014 58.232 272.539C62.0439 277.064 62.0641 325.63 62.0641 332.768C62.0641 339.906 65.876 359.283 59.5093 363.17C53.1426 367.058 14.1923 365.762 10.3602 359.283C6.52799 352.803 3.99351 275.131 4.62207 268.014C5.09964 264.821 6.33952 261.794 8.23374 259.199C10.128 256.603 12.619 254.516 15.49 253.121C19.9305 251.043 44.8295 257.009 44.8295 257.009Z" stroke="#263238" stroke-miterlimit="10"/>
<path d="M25.2255 306.274C35.5055 303.024 44.5081 293.932 44.5081 293.932C42.227 304.736 36.0334 314.278 27.1518 320.673" fill="white"/>
<path d="M25.2255 306.274C35.5055 303.024 44.5081 293.932 44.5081 293.932C42.227 304.736 36.0334 314.278 27.1518 320.673" stroke="#263238" stroke-width="0.75" stroke-linecap="round" stroke-linejoin="round"/>
<path d="M17.3979 246.004L48.035 253.122L49.9409 262.193L15.4919 253.122L17.3979 246.004Z" fill="white" stroke="#263238" stroke-miterlimit="10"/>
<path d="M54.7859 586.992L56.5702 573.334L69.9322 571.174L81.0637 579.217L91.0396 584.771V586.992H54.7859Z" fill="#263238" stroke="#263238" stroke-miterlimit="10"/>
<path d="M-3.00013 588.062L-1.33747 575.37L12.0244 573.189L23.156 581.232L33.1318 586.807V588.062H-3.00013Z" fill="#263238" stroke="#263238" stroke-miterlimit="10"/>
<path d="M112.41 186.474L120.642 181.64C120.642 181.64 123.846 181.249 122.467 184.87L114.235 191.308" fill="white"/>
<path d="M112.41 186.474L120.642 181.64C120.642 181.64 123.846 181.249 122.467 184.87L114.235 191.308" stroke="#263238" stroke-linecap="round" stroke-linejoin="round"/>
<path d="M113.628 199.042C114.015 198.05 114.586 197.142 115.311 196.368L116.852 194.681L125.226 184.15C125.226 184.15 127.821 182.381 127.253 186.207L122.063 196.492L131.288 187.708C131.288 187.708 133.032 186.248 133.032 188.305C133.032 190.362 124.658 199.433 124.658 199.433L133.904 195.031C133.904 195.031 135.931 196.492 134.471 197.952C133.012 199.412 125.246 202.354 125.246 202.354L132.16 202.066C132.16 202.066 134.188 203.814 132.748 204.411C131.308 205.008 123.218 206.735 123.218 206.735C122.19 207.622 121.017 208.318 119.751 208.792L117.724 212.598L109.958 208.628L113.628 199.042Z" fill="white" stroke="#263238" stroke-linecap="round" stroke-linejoin="round"/>
<path d="M30.7196 290.352L76.9896 301.357C79.3582 301.78 81.7982 301.358 83.8943 300.161C85.9904 298.965 87.613 297.069 88.4861 294.795L117.684 212.515L109.918 208.545L77.6587 269.165C76.927 270.552 75.7748 271.662 74.3725 272.333C72.9703 273.003 71.3925 273.198 69.8727 272.888L34.4909 262.747" fill="white"/>
<path d="M30.7196 290.352L76.9896 301.357C79.3582 301.78 81.7982 301.358 83.8943 300.161C85.9904 298.965 87.613 297.069 88.4861 294.795L117.684 212.515L109.918 208.545L77.6587 269.165C76.927 270.552 75.7748 271.662 74.3725 272.333C72.9703 273.003 71.3925 273.198 69.8727 272.888L34.4909 262.747" stroke="#263238" stroke-miterlimit="10"/>
<path d="M105.557 216.301L114.56 220.867" stroke="#263238" stroke-width="0.75" stroke-miterlimit="10"/>
<path d="M36.4772 202.108C36.4772 202.108 41.4043 207.106 38.9509 210.85C37.4975 213.012 36.389 215.393 35.6662 217.905C35.6662 217.905 37.6938 222.904 36.0717 222.904C34.4496 222.904 35.2607 219.16 32.3815 220.004C29.5023 220.847 26.6433 225.825 29.0967 227.491C30.9323 228.532 32.8775 229.36 34.8957 229.959C35.1528 230.039 35.3814 230.193 35.5533 230.403C35.7251 230.613 35.8328 230.869 35.863 231.14C35.8931 231.411 35.8445 231.685 35.7231 231.929C35.6016 232.172 35.4127 232.374 35.1795 232.51C32.5119 234.338 29.4402 235.469 26.2378 235.801C23.6187 235.858 21.003 235.582 18.4518 234.978C18.4518 234.978 10.3414 223.747 4.5019 220.826C-1.33761 217.905 1.21712 204.597 1.21712 202.93C1.21712 201.264 6.95528 197.521 6.95528 197.521C6.95528 197.521 5.31289 193.777 12.6934 185.467C20.0739 177.156 34.0238 175.47 34.4293 178.39C34.5719 179.164 34.4931 179.962 34.202 180.691C33.9109 181.421 33.4198 182.05 32.787 182.504C32.787 182.504 45.0945 177.095 50.8326 182.916C56.5708 188.737 36.4772 202.108 36.4772 202.108Z" fill="#263238" stroke="#263238" stroke-miterlimit="10"/>
<path d="M36.4778 202.107C36.4778 202.107 26.502 214.449 11.7207 215.642" stroke="white" stroke-width="0.5" stroke-linecap="round" stroke-linejoin="round"/>
<path d="M40.0049 205.872C40.0049 205.872 35.3617 219.571 16.1603 223.479" stroke="white" stroke-width="0.5" stroke-linecap="round" stroke-linejoin="round"/>
</g>
<defs>
<linearGradient id="paint0_linear" x1="621.111" y1="112" x2="558.223" y2="324.169" gradientUnits="userSpaceOnUse">
<stop stop-color="#DD7C13"/>
<stop offset="1" stop-color="#DD1313"/>
</linearGradient>
<linearGradient id="paint1_linear" x1="234" y1="192" x2="187.737" y2="145.193" gradientUnits="userSpaceOnUse">
<stop stop-color="#FF7F7F"/>
<stop offset="1" stop-color="#FFD17F"/>
</linearGradient>
<linearGradient id="paint2_linear" x1="621.01" y1="112.141" x2="558.122" y2="324.309" gradientUnits="userSpaceOnUse">
<stop stop-color="#DD7C13"/>
<stop offset="1" stop-color="#DD1313"/>
</linearGradient>
<clipPath id="clip0">
<rect width="810" height="602" fill="white"/>
</clipPath>
</defs>
</svg>
