<svg width="540" height="440" viewBox="0 0 540 440" fill="none" xmlns="http://www.w3.org/2000/svg">
<path d="M540 353.276H0V353.546H540V353.276Z" fill="#EBEBEB"/>
<path d="M485.893 370.636H392.041V370.906H485.893V370.636Z" fill="#EBEBEB"/>
<path d="M395.657 360.625H386.271V360.895H395.657V360.625Z" fill="#EBEBEB"/>
<path d="M369.057 373.57H348.332V373.84H369.057V373.57Z" fill="#EBEBEB"/>
<path d="M79.9842 362.438H56.6562V362.708H79.9842V362.438Z" fill="#EBEBEB"/>
<path d="M119.762 362.438H89.5977V362.708H119.762V362.438Z" fill="#EBEBEB"/>
<path d="M274.87 366.859H224.283V367.129H274.87V366.859Z" fill="#EBEBEB"/>
<path d="M255.961 305.15H47.4236C45.7899 305.147 44.2241 304.497 43.07 303.342C41.9158 302.186 41.2676 300.621 41.2676 298.989V6.10732C41.2818 4.48448 41.9363 2.93278 43.0889 1.78927C44.2416 0.645755 45.7992 0.00278 47.4236 0H255.961C257.596 0 259.165 0.649132 260.321 1.80459C261.478 2.96006 262.128 4.5272 262.128 6.16127V298.989C262.128 300.623 261.478 302.19 260.321 303.345C259.165 304.501 257.596 305.15 255.961 305.15ZM47.4236 0.215807C45.8615 0.218665 44.3644 0.840636 43.2609 1.9452C42.1574 3.04976 41.5376 4.54666 41.5376 6.10732V298.989C41.5376 300.549 42.1574 302.046 43.2609 303.151C44.3644 304.255 45.8615 304.877 47.4236 304.88H255.961C257.524 304.877 259.022 304.256 260.127 303.152C261.233 302.047 261.855 300.55 261.858 298.989V6.10732C261.855 4.54567 261.233 3.04879 260.127 1.94454C259.022 0.840285 257.524 0.218659 255.961 0.215807H47.4236Z" fill="#EBEBEB"/>
<path d="M489.574 305.15H281.026C279.392 305.147 277.825 304.497 276.669 303.342C275.513 302.187 274.862 300.622 274.859 298.989V6.10732C274.876 4.4835 275.533 2.93181 276.688 1.78859C277.842 0.645378 279.401 0.00274968 281.026 0H489.574C491.197 0.00561581 492.752 0.649846 493.902 1.79306C495.052 2.93627 495.705 4.48634 495.719 6.10732V298.989C495.719 300.619 495.073 302.183 493.921 303.338C492.769 304.493 491.206 305.144 489.574 305.15ZM281.026 0.215807C279.463 0.218659 277.965 0.840285 276.86 1.94454C275.754 3.04879 275.132 4.54567 275.129 6.10732V298.989C275.132 300.55 275.754 302.047 276.86 303.152C277.965 304.256 279.463 304.877 281.026 304.88H489.574C491.137 304.877 492.635 304.256 493.741 303.152C494.846 302.047 495.468 300.55 495.471 298.989V6.10732C495.468 4.54567 494.846 3.04879 493.741 1.94454C492.635 0.840285 491.137 0.218659 489.574 0.215807H281.026Z" fill="#EBEBEB"/>
<path d="M297.195 349.598H203.959C199.611 349.598 195.441 347.872 192.366 344.8C189.292 341.728 187.565 337.562 187.565 333.218V249.539C187.563 247.387 187.986 245.256 188.809 243.268C189.633 241.279 190.84 239.472 192.362 237.95C193.885 236.428 195.693 235.22 197.683 234.396C199.672 233.573 201.805 233.149 203.959 233.149H297.195V349.598Z" fill="#F0F0F0"/>
<path d="M296.426 349.598H297.971C307.025 349.598 314.365 342.264 314.365 333.218V249.539C314.365 240.493 307.025 233.159 297.971 233.159H296.426C287.372 233.159 280.032 240.493 280.032 249.539V333.218C280.032 342.264 287.372 349.598 296.426 349.598Z" fill="#F5F5F5"/>
<path d="M284.721 276.105H174.615V349.598H284.721V276.105Z" fill="#F0F0F0"/>
<path d="M83.6035 349.605H298.081V349.918C298.081 350.808 297.727 351.662 297.097 352.291C296.467 352.921 295.613 353.274 294.722 353.274H86.9731C86.0823 353.274 85.228 352.921 84.5981 352.291C83.9682 351.662 83.6143 350.808 83.6143 349.918V349.605H83.6035Z" fill="#E0E0E0"/>
<path d="M193.223 190.711H91.5846C88.6569 190.658 85.7515 191.23 83.062 192.387C80.3726 193.544 77.9608 195.26 75.9875 197.422C74.0142 199.583 72.5246 202.14 71.618 204.922C70.7114 207.704 70.4086 210.647 70.7298 213.554L77.7606 292.723H225.105L218.161 213.554C217.522 207.358 214.631 201.61 210.035 197.4C205.439 193.191 199.458 190.811 193.223 190.711Z" fill="#E0E0E0"/>
<path d="M216.151 190.711H112.32C109.533 190.659 106.766 191.201 104.205 192.302C101.645 193.403 99.3481 195.036 97.4694 197.094C95.5907 199.152 94.173 201.586 93.3108 204.235C92.4485 206.884 92.1617 209.686 92.4694 212.454L99.5758 292.723H246.931L239.835 212.454C239.229 206.564 236.485 201.1 232.121 197.094C227.757 193.088 222.076 190.818 216.151 190.711Z" fill="#F5F5F5"/>
<path d="M180.113 269.391H285.013C286.322 269.391 287.578 269.91 288.503 270.835C289.429 271.76 289.949 273.014 289.949 274.322V294.403C289.949 295.71 289.429 296.965 288.503 297.889C287.578 298.814 286.322 299.334 285.013 299.334H180.113C180.038 299.334 179.967 299.304 179.914 299.252C179.862 299.199 179.832 299.128 179.832 299.053V269.671C179.832 269.597 179.862 269.525 179.914 269.473C179.967 269.42 180.038 269.391 180.113 269.391Z" fill="#E0E0E0"/>
<path d="M174.074 349.598H80.8378C76.4898 349.598 72.3198 347.872 69.2452 344.8C66.1707 341.728 64.4434 337.562 64.4434 333.218L64.4434 249.539C64.442 247.387 64.865 245.256 65.6883 243.268C66.5115 241.279 67.7189 239.472 69.2414 237.95C70.7639 236.428 72.5717 235.22 74.5615 234.396C76.5512 233.573 78.684 233.149 80.8378 233.149H174.074L174.074 349.598Z" fill="#F0F0F0"/>
<path d="M173.309 349.598H174.854C183.908 349.598 191.248 342.264 191.248 333.218V249.539C191.248 240.493 183.908 233.159 174.854 233.159H173.309C164.255 233.159 156.915 240.493 156.915 249.539V333.218C156.915 342.264 164.255 349.598 173.309 349.598Z" fill="#F5F5F5"/>
<path d="M474.983 216.191H445.834V353.272H474.983V216.191Z" fill="#E6E6E6"/>
<path d="M469.444 353.275H474.985V329.418H463.645L469.444 353.275Z" fill="#F0F0F0"/>
<path d="M366.046 216.191H336.896V353.272H366.046V216.191Z" fill="#E6E6E6"/>
<path d="M474.985 216.191H361.207V345.395H474.985V216.191Z" fill="#F0F0F0"/>
<path d="M419.957 224.051V253.746H470.695V224.051H419.957Z" fill="#E6E6E6"/>
<path d="M365.504 224.051V253.746H416.242V224.051H365.504Z" fill="#E6E6E6"/>
<path d="M395.896 227.676H385.852C381.654 227.733 377.572 226.303 374.328 223.641H407.419C404.176 226.303 400.093 227.733 395.896 227.676Z" fill="#F0F0F0"/>
<path d="M450.857 227.676H440.813C436.615 227.733 432.533 226.303 429.289 223.641H462.38C459.137 226.303 455.054 227.733 450.857 227.676Z" fill="#F0F0F0"/>
<path d="M419.957 262.262V291.957H470.695V262.262H419.957Z" fill="#E6E6E6"/>
<path d="M365.504 262.262V291.957H416.242V262.262H365.504Z" fill="#E6E6E6"/>
<path d="M395.896 265.85H385.852C381.653 265.903 377.57 264.47 374.328 261.804H407.419C404.177 264.47 400.095 265.903 395.896 265.85Z" fill="#F0F0F0"/>
<path d="M450.857 265.85H440.813C436.614 265.903 432.531 264.47 429.289 261.804H462.38C459.138 264.47 455.056 265.903 450.857 265.85Z" fill="#F0F0F0"/>
<path d="M419.957 300.457V330.152H470.695V300.457H419.957Z" fill="#E6E6E6"/>
<path d="M365.504 300.465V330.16H416.242V300.465H365.504Z" fill="#E6E6E6"/>
<path d="M395.896 304.051H385.852C381.649 304.096 377.566 302.651 374.328 299.973H407.419C404.182 302.651 400.099 304.096 395.896 304.051Z" fill="#F0F0F0"/>
<path d="M450.857 304.051H440.813C436.61 304.096 432.527 302.651 429.289 299.973H462.38C459.143 302.651 455.06 304.096 450.857 304.051Z" fill="#F0F0F0"/>
<path d="M366.747 353.275H361.207V329.418H372.547L366.747 353.275Z" fill="#F0F0F0"/>
<path d="M371.434 198.293C371.434 198.293 371.898 216.194 389.426 216.194C406.955 216.194 407.419 198.293 407.419 198.293H371.434Z" fill="#E6E6E6"/>
<path d="M426.146 200.516C426.146 200.516 426.557 216.194 441.914 216.194C457.272 216.194 457.672 200.516 457.672 200.516H426.146Z" fill="#FAFAFA"/>
<path d="M412.766 203.536C412.766 203.536 413.09 216.193 425.488 216.193C437.886 216.193 438.2 203.536 438.2 203.536H412.766Z" fill="#F5F5F5"/>
<path d="M371.434 184.852C371.434 184.852 371.898 202.742 389.426 202.742C406.955 202.742 407.419 184.852 407.419 184.852H371.434Z" fill="#E6E6E6"/>
<path d="M442.53 16.1289H93.4414V166.406H442.53V16.1289Z" fill="#E6E6E6"/>
<path d="M449.712 16.1289H97.8477V166.406H449.712V16.1289Z" fill="#F0F0F0"/>
<path d="M442.443 158.259V24.2969L105.116 24.2969V158.259L442.443 158.259Z" fill="#FAFAFA"/>
<path d="M146.523 158.251L189.183 24.2891H245.106L202.446 158.251H146.523Z" fill="white"/>
<path d="M211.496 158.251L254.156 24.2891H279.417L236.757 158.251H211.496Z" fill="white"/>
<path d="M311.709 158.251L354.369 24.2891H397.504L354.844 158.251H311.709Z" fill="white"/>
<path d="M442.443 158.259V24.2969H441.525V158.259H442.443Z" fill="#E6E6E6"/>
<path d="M284.267 16.1289H263.293V166.406H284.267V16.1289Z" fill="#F0F0F0"/>
<path d="M263.293 158.251V24.2891H262.375V158.251H263.293Z" fill="#E6E6E6"/>
<path d="M274.147 16.1289H273.412V166.406H274.147V16.1289Z" fill="#E6E6E6"/>
<path d="M269.999 402.004C385.648 402.004 479.4 396.536 479.4 389.79C479.4 383.044 385.648 377.575 269.999 377.575C154.35 377.575 60.5977 383.044 60.5977 389.79C60.5977 396.536 154.35 402.004 269.999 402.004Z" fill="#F5F5F5"/>
<path d="M240.44 147.355H216.594V389.792H240.44C256.373 389.792 272.15 386.657 286.87 380.565C301.59 374.473 314.965 365.544 326.231 354.288C337.498 343.032 346.435 329.669 352.532 314.962C358.629 300.255 361.767 284.492 361.767 268.574C361.767 252.655 358.629 236.892 352.532 222.186C346.435 207.479 337.498 194.116 326.231 182.86C314.965 171.603 301.59 162.674 286.87 156.583C272.15 150.491 256.373 147.355 240.44 147.355Z" fill="url(#paint0_linear)"/>
<path opacity="0.1" d="M240.44 147.355H216.594V389.792H240.44C256.373 389.792 272.15 386.657 286.87 380.565C301.59 374.473 314.965 365.544 326.231 354.288C337.498 343.032 346.435 329.669 352.532 314.962C358.629 300.255 361.767 284.492 361.767 268.574C361.767 252.655 358.629 236.892 352.532 222.186C346.435 207.479 337.498 194.116 326.231 182.86C314.965 171.603 301.59 162.674 286.87 156.583C272.15 150.491 256.373 147.355 240.44 147.355Z" fill="#53C48A"/>
<path d="M161.48 157.535L160.994 156.575C169.428 152.377 178.312 149.152 187.476 146.961L187.724 148.04C178.645 150.204 169.841 153.39 161.48 157.535Z" fill="#53C48A"/>
<path d="M147.461 165.727L146.867 164.831C149.189 163.278 151.587 161.767 153.995 160.375L154.535 161.303C152.148 162.695 149.772 164.184 147.461 165.727Z" fill="#53C48A"/>
<path d="M302.384 354.285C349.765 306.946 349.765 230.195 302.384 182.856C255.002 135.517 178.182 135.517 130.801 182.856C83.4198 230.195 83.4198 306.946 130.801 354.285C178.182 401.623 255.002 401.623 302.384 354.285Z" fill="url(#paint1_linear)"/>
<path opacity="0.1" d="M290.625 203.158C271.786 186.471 247.282 177.598 222.116 178.35C196.95 179.102 173.021 189.423 155.213 207.205C137.405 224.987 127.062 248.889 126.296 274.032C125.53 299.175 134.398 323.662 151.089 342.493C141.003 333.56 132.853 322.659 127.14 310.461C121.426 298.263 118.271 285.027 117.868 271.566C117.465 258.105 119.823 244.704 124.796 232.187C129.769 219.67 137.253 208.302 146.787 198.782C156.321 189.262 167.703 181.791 180.234 176.829C192.765 171.867 206.179 169.519 219.652 169.929C233.125 170.338 246.372 173.498 258.577 179.212C270.783 184.927 281.689 193.076 290.625 203.158Z" fill="black"/>
<path opacity="0.1" d="M264.534 277.409C261.445 273.582 256.629 270.88 250.084 269.305C253.833 268.17 257.218 266.071 259.901 263.219C263.255 259.396 265.054 254.458 264.945 249.375C265.006 246.329 264.408 243.305 263.19 240.512C261.973 237.718 260.166 235.22 257.892 233.19C253.183 228.874 246.441 226.716 237.664 226.716H232.264V211.426H222.047V226.716H209.379V211.426H199.173V226.716H176.979V245.156H184.96V299.291H176.979V317.732H199.173V333.022H209.379V317.732H222.047V333.022H232.264V317.732H233.56C237.783 317.536 241.994 317.122 246.174 316.491C250.941 315.88 254.505 314.887 256.866 313.513C260.609 311.386 263.718 308.303 265.873 304.579C268.075 300.701 269.193 296.303 269.113 291.846C269.149 286.055 267.623 281.243 264.534 277.409ZM213.364 245.156H225.795C230.064 245.156 233.056 245.901 234.769 247.39C235.637 248.168 236.318 249.13 236.765 250.205C237.212 251.281 237.412 252.442 237.351 253.605C237.429 254.819 237.238 256.036 236.792 257.168C236.345 258.3 235.655 259.32 234.769 260.155C233.056 261.665 229.999 262.421 225.6 262.421H213.364V245.156ZM237.966 295.655C235.979 297.374 232.563 298.234 227.717 298.234H213.364V279.739H227.652C232.591 279.739 236.04 280.556 237.999 282.189C238.955 282.969 239.72 283.959 240.233 285.081C240.746 286.204 240.994 287.429 240.958 288.663C241.026 289.979 240.793 291.294 240.274 292.506C239.755 293.718 238.966 294.795 237.966 295.655Z" fill="black"/>
<path d="M261.12 277.409C258.031 273.582 253.214 270.88 246.67 269.305C250.421 268.167 253.809 266.069 256.498 263.219C259.844 259.393 261.639 254.455 261.53 249.375C261.592 246.329 260.994 243.305 259.776 240.512C258.559 237.718 256.752 235.22 254.478 233.19C249.769 228.874 243.026 226.716 234.25 226.716H228.85V211.426H218.644V226.716H205.964V211.426H195.758V226.716H173.564V245.156H181.546V299.291H173.564V317.732H195.758V333.022H205.964V317.732H218.644V333.022H228.85V317.732H230.146C234.369 317.536 238.58 317.122 242.76 316.491C247.519 315.88 251.083 314.887 253.452 313.513C257.197 311.389 260.307 308.305 262.459 304.579C264.66 300.701 265.779 296.303 265.699 291.846C265.735 286.055 264.209 281.243 261.12 277.409ZM209.95 245.156H222.38C226.65 245.156 229.642 245.901 231.355 247.39C232.222 248.168 232.904 249.13 233.351 250.205C233.798 251.281 233.998 252.442 233.936 253.605C234.015 254.819 233.824 256.036 233.378 257.168C232.931 258.3 232.241 259.32 231.355 260.155C229.634 261.665 226.578 262.421 222.186 262.421H209.95V245.156ZM234.552 295.655C232.565 297.374 229.148 298.234 224.303 298.234H209.95V279.739H224.238C229.17 279.739 232.619 280.556 234.584 282.189C235.543 282.967 236.309 283.957 236.823 285.08C237.336 286.203 237.583 287.429 237.544 288.663C237.612 289.979 237.379 291.294 236.86 292.506C236.341 293.718 235.552 294.795 234.552 295.655Z" fill="white"/>
<path d="M332.716 94.8672C338.555 94.8672 343.289 90.2101 343.289 84.4653C343.289 78.7205 338.555 74.0635 332.716 74.0635C326.876 74.0635 322.143 78.7205 322.143 84.4653C322.143 90.2101 326.876 94.8672 332.716 94.8672Z" fill="#263238"/>
<path d="M342.09 93.2087C342.105 94.3749 341.772 95.5192 341.135 96.4962C340.497 97.4731 339.583 98.2386 338.509 98.6953C337.435 99.152 336.249 99.2793 335.103 99.061C333.956 98.8427 332.9 98.2886 332.069 97.4693C331.239 96.6499 330.67 95.6023 330.437 94.4595C330.204 93.3168 330.316 92.1305 330.759 91.0515C331.202 89.9726 331.957 89.0496 332.926 88.4001C333.896 87.7505 335.037 87.4036 336.204 87.4035C336.972 87.3978 337.734 87.5435 338.446 87.8323C339.157 88.1211 339.805 88.5473 340.352 89.0865C340.899 89.6257 341.333 90.2673 341.632 90.9747C341.93 91.682 342.086 92.4412 342.09 93.2087Z" fill="#263238"/>
<path d="M347.251 92.9336C353.09 92.9336 357.824 88.2765 357.824 82.5318C357.824 76.787 353.09 72.1299 347.251 72.1299C341.412 72.1299 336.678 76.787 336.678 82.5318C336.678 88.2765 341.412 92.9336 347.251 92.9336Z" fill="#263238"/>
<path d="M348.807 380.906L357.479 380.776L359.974 360.685L351.301 360.814L348.807 380.906Z" fill="#FFB27D"/>
<path d="M401.597 380.446L409.438 375.871L403.152 357.344L395.322 361.919L401.597 380.446Z" fill="#FFB27D"/>
<path d="M410.28 375.252L401.09 380.463C400.939 380.546 400.822 380.678 400.758 380.838C400.695 380.998 400.69 381.174 400.744 381.337L403.055 388.891C403.113 389.072 403.212 389.239 403.343 389.378C403.474 389.516 403.634 389.624 403.813 389.692C403.991 389.761 404.183 389.788 404.373 389.773C404.563 389.757 404.748 389.699 404.913 389.603C407.84 387.876 409.902 386.484 413.628 384.369C415.918 383.075 422.97 379.395 426.135 377.593C429.299 375.791 427.938 372.446 426.48 372.889C419.946 374.917 414.6 375.651 411.771 375.047C411.265 374.934 410.737 375.007 410.28 375.252Z" fill="#263238"/>
<path d="M357.652 379.817L348.181 379.968C348.01 379.97 347.846 380.03 347.714 380.137C347.582 380.245 347.492 380.395 347.457 380.562L345.869 388.288C345.828 388.474 345.83 388.667 345.875 388.853C345.92 389.038 346.007 389.211 346.129 389.357C346.25 389.504 346.404 389.621 346.578 389.7C346.752 389.778 346.942 389.815 347.133 389.809C350.546 389.701 355.481 389.421 359.769 389.356C364.791 389.28 369.133 389.485 375.019 389.356C378.572 389.302 379.501 385.698 378.01 385.396C371.206 384.015 365.666 383.939 359.747 380.422C359.118 380.032 358.393 379.823 357.652 379.817Z" fill="#263238"/>
<path d="M370.871 117.454C372.081 119.99 373.387 122.731 374.716 125.331C376.044 127.931 377.405 130.597 378.809 133.165C381.504 138.244 384.528 143.142 387.859 147.829L388.475 148.681C388.572 148.811 388.572 148.822 388.561 148.843C388.292 148.717 388.004 148.633 387.708 148.595C387.233 148.541 386.887 148.703 386.931 148.746C387.161 148.707 387.379 148.615 387.568 148.476C388.465 147.858 389.285 147.133 390.009 146.318C390.916 145.334 391.766 144.3 392.557 143.221C394.253 140.999 395.797 138.538 397.385 136.035C398.973 133.532 400.441 130.92 401.878 128.385L407.947 130.748C406.309 136.934 403.972 142.915 400.981 148.573C400.153 150.06 399.244 151.501 398.26 152.889C397.135 154.493 395.806 155.944 394.307 157.206C393.311 158.038 392.198 158.718 391.002 159.223C389.344 159.926 387.526 160.165 385.743 159.914C383.937 159.613 382.247 158.83 380.85 157.648C380.316 157.194 379.815 156.704 379.349 156.181L378.55 155.231C376.415 152.775 374.428 150.196 372.599 147.505C370.752 144.883 369.089 142.185 367.469 139.477C365.849 136.769 364.348 134.006 362.911 131.212C361.475 128.417 360.125 125.655 358.84 122.579L370.871 117.454Z" fill="#FFB27D"/>
<path d="M355.318 117.401C352.985 125.342 369.445 146.999 369.445 146.999L386.033 136.338C382.905 129.471 379.049 122.96 374.531 116.915C367.684 108.207 357.835 108.682 355.318 117.401Z" fill="#359C67"/>
<path opacity="0.2" d="M365.385 126.724C368.798 128.181 373.82 136.435 376.433 142.478L369.359 146.999C365.425 141.744 361.888 136.204 358.775 130.425C361.033 127.986 363.581 125.958 365.385 126.724Z" fill="black"/>
<path d="M401.965 131.736L399.805 121.971L409.665 121.896C409.665 121.896 412.3 129.233 407.008 132.686L401.965 131.736Z" fill="#FFB27D"/>
<path d="M400.961 112.821L408.867 115.659L409.698 121.896L399.838 121.971L400.961 112.821Z" fill="#FFB27D"/>
<path opacity="0.2" d="M359.974 360.685L358.689 371.043L350.006 371.184L351.302 360.825L359.974 360.685Z" fill="black"/>
<path opacity="0.2" d="M395.322 361.916L403.163 357.352L406.392 366.901L398.551 371.465L395.322 361.916Z" fill="black"/>
<path d="M316.623 113.881C325.965 146.78 324.086 181.698 324.928 188.765C331.7 188.28 357.242 186.37 371.163 185.334C375.602 135.839 365.093 110.708 365.093 110.708C365.093 110.708 362.123 110.136 358.073 109.716C356.81 109.586 355.438 109.478 354.013 109.403C353.224 109.403 352.425 109.327 351.615 109.316C345.041 109.429 338.478 109.915 331.959 110.773C330.728 110.924 329.475 111.118 328.255 111.313C327.034 111.507 326.03 111.712 325.015 111.917C320.273 112.856 316.623 113.881 316.623 113.881Z" fill="url(#paint2_linear)"/>
<path opacity="0.1" d="M349.508 143.791L342.218 147.352L334.27 144.406L332.963 131.62L348.213 131.005L349.508 143.791Z" fill="white"/>
<path opacity="0.2" d="M326.494 127.997C327.326 131.18 326.375 145.704 323.049 149.286C322.595 144.636 321.969 139.78 321.191 134.817L326.494 127.997Z" fill="black"/>
<path d="M332.261 88.4814C333.979 94.7075 336.074 106.199 331.959 110.742C335.653 113.903 340.437 117.507 347.975 117.216C355.514 116.925 353.807 111.821 351.615 109.285C344.444 108.12 344.228 102.876 345.135 97.8798L332.261 88.4814Z" fill="#FFB27D"/>
<path d="M331.958 109.305C331.958 109.305 333.924 113.955 349.638 117.084C347.035 118.994 345.847 123.667 345.847 123.667C345.847 123.667 325.327 120.224 325.954 111.096C327.023 110.233 331.958 109.305 331.958 109.305Z" fill="white"/>
<path d="M356.4 121.928C354.491 119.88 352.198 118.227 349.65 117.062C350.707 115.991 351.424 114.633 351.712 113.157C352 111.681 351.846 110.153 351.27 108.764C352.846 108.713 354.424 108.778 355.99 108.958C355.99 108.958 363.291 114.634 356.4 121.928Z" fill="white"/>
<path opacity="0.4" d="M350.407 123.654C350.547 124.604 351.076 125.305 351.595 125.23C352.113 125.154 352.405 124.323 352.264 123.374C352.124 122.424 351.595 121.712 351.087 121.788C350.579 121.863 350.266 122.694 350.407 123.654Z" fill="#263238"/>
<path opacity="0.2" d="M337.501 92.3516L345.061 97.9086C344.84 99.072 344.724 100.253 344.715 101.437C341.993 101.243 338.073 98.5668 337.576 95.7721C337.342 94.6462 337.316 93.4867 337.501 92.3516Z" fill="black"/>
<path d="M341.019 80.7413C347.664 80.7413 353.051 75.4417 353.051 68.9044C353.051 62.367 347.664 57.0674 341.019 57.0674C334.375 57.0674 328.988 62.367 328.988 68.9044C328.988 75.4417 334.375 80.7413 341.019 80.7413Z" fill="#263238"/>
<path d="M352.252 70.4268C352.218 70.4146 352.19 70.3898 352.174 70.3577C352.158 70.3256 352.155 70.2886 352.165 70.2542C352.579 68.7696 352.691 67.2176 352.497 65.689C352.302 64.1603 351.804 62.686 351.031 61.3522C349.463 58.6272 346.882 56.6303 343.849 55.7952C343.815 55.7866 343.785 55.7647 343.767 55.7344C343.749 55.704 343.743 55.6677 343.752 55.6333C343.761 55.599 343.783 55.5695 343.813 55.5512C343.843 55.533 343.88 55.5276 343.914 55.5362C345.452 55.9529 346.892 56.6688 348.152 57.6427C349.413 58.6167 350.468 59.8296 351.258 61.2119C352.049 62.5779 352.56 64.0878 352.761 65.6534C352.961 67.219 352.847 68.8088 352.424 70.3297C352.412 70.364 352.388 70.3927 352.356 70.4105C352.324 70.4284 352.287 70.4342 352.252 70.4268Z" fill="#263238"/>
<path d="M350.924 83.1843C355.946 83.1843 360.017 79.1794 360.017 74.2391C360.017 69.2988 355.946 65.2939 350.924 65.2939C345.901 65.2939 341.83 69.2988 341.83 74.2391C341.83 79.1794 345.901 83.1843 350.924 83.1843Z" fill="#263238"/>
<path d="M330.069 85.0049C335.909 85.0049 340.643 80.3478 340.643 74.603C340.643 68.8582 335.909 64.2012 330.069 64.2012C324.23 64.2012 319.496 68.8582 319.496 74.603C319.496 80.3478 324.23 85.0049 330.069 85.0049Z" fill="#263238"/>
<path d="M330.802 79.0615C331.969 87.575 332.217 92.6249 336.861 96.6928C343.859 102.811 354.141 98.1063 355.545 89.4201C356.819 81.5972 354.703 68.9833 346.063 66.1994C344.161 65.5755 342.132 65.448 340.168 65.8289C338.204 66.2099 336.369 67.0866 334.84 68.3757C333.31 69.6648 332.136 71.3234 331.43 73.1938C330.723 75.0642 330.507 77.0841 330.802 79.0615Z" fill="#FFB27D"/>
<path d="M325.965 74.8207C326.85 86.7979 353.332 70.0406 347.694 63.6527C342.057 57.2648 333.406 61.7752 330.285 64.6562C326.386 68.2494 325.749 71.8857 325.965 74.8207Z" fill="#263238"/>
<path d="M346.581 64.1456C351.462 62.6565 359.8 71.3535 352.326 70.4795C344.853 69.6055 340.857 65.9044 346.581 64.1456Z" fill="#263238"/>
<path d="M327.639 88.7798C328.273 89.6442 329.072 90.375 329.989 90.9305C330.907 91.486 331.925 91.8552 332.985 92.0169C335.826 92.4269 336.873 89.7941 335.772 87.3123C334.789 85.0787 332.11 82.1761 329.41 82.9099C326.71 83.6436 326.084 86.6325 327.639 88.7798Z" fill="#FFB27D"/>
<path d="M361.909 369.026L347.232 369.253C347.232 369.253 355.71 311.32 354.392 284.365C353.992 276.165 355.299 264.695 353.139 252.404C350.396 236.91 349.078 230.738 345.579 211.164C343.052 197.201 340.816 187.63 340.816 187.63L371.208 185.364C371.208 185.364 381.133 255.188 380.841 281.614C380.496 309.064 361.909 369.026 361.909 369.026Z" fill="#263238"/>
<path d="M329.551 75.9857C334.454 77.3992 336.7 89.2362 330.901 84.4237C325.101 79.6113 323.805 74.3348 329.551 75.9857Z" fill="#263238"/>
<path opacity="0.2" d="M353.16 252.376C354.193 258.796 354.619 265.299 354.435 271.799C356.962 278.931 359.165 285.686 360.699 291.696C363.388 302.216 367.643 318.165 371.79 333.498C376.294 315.542 380.679 294.793 380.819 281.564L353.16 252.376Z" fill="black"/>
<path d="M354.768 186.552C354.768 186.552 376.606 241.69 384.879 265.677C393.951 291.952 408.585 362.876 408.585 362.876L394.782 370.71C394.782 370.71 373.258 312.237 364.348 286.643C354.196 257.509 326.235 211.423 324.928 188.775L354.768 186.552Z" fill="#263238"/>
<path d="M410.411 362.242L394.147 371.457L391.393 366.601L409.396 355.994L410.411 362.242Z" fill="#359C67"/>
<path d="M363.753 369.307L346.268 369.577L346.182 363.933L365.719 363.329L363.753 369.307Z" fill="#359C67"/>
<path d="M342.219 80.4819C342.273 81.1832 342.683 81.7228 343.137 81.6796C343.59 81.6364 343.914 81.0538 343.871 80.3632C343.828 79.6726 343.407 79.1331 342.953 79.1654C342.499 79.1978 342.165 79.8452 342.219 80.4819Z" fill="#263238"/>
<path d="M351.851 79.8999C351.851 80.6012 352.316 81.13 352.769 81.0976C353.223 81.0652 353.558 80.4717 353.504 79.7812C353.45 79.0906 353.039 78.5403 352.586 78.5726C352.132 78.605 351.797 79.1985 351.851 79.8999Z" fill="#263238"/>
<path d="M349.369 80.4346C350.362 82.5042 351.634 84.4284 353.149 86.1534C352.704 86.5226 352.183 86.791 351.624 86.94C351.065 87.089 350.48 87.1152 349.909 87.0167L349.369 80.4346Z" fill="#EA8E50"/>
<path d="M347.058 89.0977C346.274 89.0667 345.505 88.8743 344.799 88.5327C344.093 88.1911 343.465 87.7075 342.954 87.1123C342.935 87.0914 342.92 87.0667 342.91 87.0396C342.901 87.0125 342.897 86.9838 342.899 86.9552C342.901 86.9266 342.91 86.8988 342.923 86.8736C342.937 86.8484 342.956 86.8264 342.979 86.8089C343.002 86.7915 343.028 86.779 343.056 86.7723C343.084 86.7656 343.113 86.7648 343.141 86.77C343.169 86.7752 343.196 86.7863 343.22 86.8025C343.243 86.8187 343.263 86.8397 343.278 86.8641C343.859 87.5122 344.583 88.0149 345.394 88.3317C346.204 88.6484 347.078 88.7704 347.944 88.6877C347.97 88.6847 347.997 88.6872 348.022 88.6949C348.048 88.7026 348.071 88.7155 348.092 88.7327C348.112 88.7499 348.128 88.771 348.14 88.7948C348.152 88.8186 348.159 88.8446 348.16 88.8711C348.163 88.8981 348.161 88.9253 348.153 88.9514C348.145 88.9774 348.133 89.0016 348.115 89.0227C348.098 89.0438 348.077 89.0612 348.053 89.0741C348.03 89.087 348.003 89.095 347.976 89.0977C347.671 89.1194 347.364 89.1194 347.058 89.0977Z" fill="#263238"/>
<path d="M340.751 78.1199C340.681 78.1184 340.613 78.0958 340.556 78.0551C340.511 78.0266 340.472 77.9894 340.441 77.9455C340.41 77.9016 340.389 77.852 340.378 77.7997C340.367 77.7474 340.366 77.6933 340.376 77.6408C340.387 77.5883 340.407 77.5384 340.437 77.494C340.78 76.9328 341.254 76.4629 341.818 76.1247C342.382 75.7864 343.02 75.5898 343.677 75.5518C343.786 75.5518 343.891 75.595 343.968 75.6719C344.044 75.7488 344.088 75.853 344.088 75.9618C344.088 76.0705 344.044 76.1748 343.968 76.2517C343.891 76.3286 343.786 76.3718 343.677 76.3718C343.164 76.4138 342.667 76.5777 342.23 76.8498C341.792 77.1219 341.426 77.4944 341.161 77.9364C341.118 78.0036 341.056 78.0567 340.983 78.0893C340.91 78.1219 340.829 78.1325 340.751 78.1199Z" fill="#263238"/>
<path d="M355.049 75.5864C354.979 75.5862 354.911 75.5669 354.852 75.5307C354.793 75.4946 354.745 75.4429 354.714 75.3814C354.468 74.9276 354.117 74.539 353.691 74.2481C353.264 73.9572 352.775 73.7723 352.262 73.7089C352.209 73.7062 352.156 73.6928 352.108 73.6694C352.06 73.6461 352.017 73.6133 351.982 73.5731C351.946 73.5328 351.92 73.4859 351.903 73.4351C351.886 73.3843 351.88 73.3306 351.884 73.2773C351.89 73.1704 351.937 73.07 352.016 72.9974C352.094 72.9248 352.198 72.8859 352.305 72.8888C352.954 72.9621 353.576 73.1893 354.119 73.5516C354.662 73.9139 355.11 74.4007 355.427 74.9714C355.478 75.0664 355.492 75.1777 355.463 75.2822C355.435 75.3867 355.368 75.4763 355.275 75.5325C355.208 75.5753 355.128 75.5943 355.049 75.5864Z" fill="#263238"/>
<path d="M413.52 375.153C412.835 375.516 412.11 375.799 411.36 375.994C411.321 376.006 411.28 376.006 411.242 375.994C411.203 375.983 411.169 375.96 411.143 375.93C411.122 375.895 411.111 375.856 411.111 375.816C411.111 375.776 411.122 375.737 411.143 375.703C411.327 375.379 412.915 372.466 413.984 372.466C414.104 372.464 414.222 372.495 414.326 372.553C414.43 372.612 414.517 372.697 414.578 372.8C414.699 372.964 414.778 373.155 414.806 373.357C414.834 373.559 414.812 373.764 414.74 373.955C414.479 374.48 414.049 374.901 413.52 375.153ZM411.77 375.455C413.195 374.98 414.157 374.376 414.373 373.804C414.42 373.672 414.433 373.531 414.41 373.393C414.388 373.255 414.33 373.126 414.243 373.016C414.157 372.887 414.081 372.865 414.016 372.865C413.455 372.897 412.439 374.322 411.77 375.498V375.455Z" fill="#359C67"/>
<path d="M411.479 375.99H411.371C411.335 375.987 411.299 375.975 411.269 375.954C411.238 375.933 411.214 375.904 411.199 375.871C411.199 375.774 410.119 373.497 410.572 372.289C410.622 372.14 410.705 372.004 410.813 371.89C410.921 371.777 411.053 371.688 411.199 371.63C411.332 371.555 411.488 371.528 411.639 371.553C411.791 371.579 411.929 371.656 412.03 371.771C412.667 372.526 412.095 375.008 411.555 375.893C411.543 375.933 411.516 375.968 411.479 375.99ZM411.274 372.073C411.197 372.113 411.129 372.168 411.073 372.235C411.018 372.301 410.976 372.378 410.95 372.461C410.806 373.438 410.964 374.436 411.404 375.321C411.847 374.296 412.095 372.504 411.717 372.084C411.717 372.084 411.609 371.943 411.361 372.084L411.274 372.073Z" fill="#359C67"/>
<path d="M358.56 380.961C358.523 380.948 358.491 380.925 358.466 380.894C358.441 380.864 358.425 380.827 358.42 380.789C358.411 380.747 358.417 380.704 358.437 380.667C358.457 380.629 358.489 380.6 358.528 380.584C358.916 380.368 362.372 378.555 363.431 379.116C363.531 379.171 363.615 379.25 363.675 379.346C363.735 379.443 363.77 379.553 363.776 379.666C363.802 379.851 363.781 380.039 363.717 380.214C363.653 380.388 363.548 380.545 363.409 380.67C362.47 381.522 359.986 381.22 358.582 380.961H358.56ZM363.161 379.451C362.502 379.235 360.634 379.979 359.262 380.659C361.184 380.95 362.61 380.842 363.139 380.368C363.23 380.284 363.298 380.179 363.337 380.062C363.377 379.945 363.387 379.82 363.366 379.699C363.37 379.654 363.359 379.609 363.336 379.57C363.313 379.531 363.278 379.501 363.236 379.483L363.161 379.451Z" fill="#359C67"/>
<path d="M358.56 380.962H358.506C358.475 380.943 358.451 380.915 358.435 380.883C358.42 380.85 358.415 380.814 358.42 380.778C358.42 380.681 358.625 378.339 359.705 377.422C359.858 377.286 360.038 377.183 360.234 377.12C360.429 377.057 360.635 377.035 360.839 377.055C361.412 377.055 361.574 377.379 361.617 377.617C361.79 378.588 359.748 380.498 358.712 380.983C358.66 380.992 358.607 380.984 358.56 380.962ZM361.023 377.465H360.807C360.656 377.451 360.504 377.469 360.361 377.518C360.218 377.566 360.086 377.644 359.975 377.746C359.347 378.509 358.97 379.448 358.895 380.433C359.975 379.775 361.336 378.275 361.239 377.692C361.231 377.631 361.202 377.575 361.156 377.533C361.111 377.492 361.052 377.468 360.99 377.465H361.023Z" fill="#359C67"/>
<path d="M326.159 125.169C323.718 130.198 321.256 135.366 318.869 140.481C317.67 143.049 316.482 145.606 315.359 148.174C314.236 150.742 313.113 153.31 312.054 155.879C311.558 157.163 310.974 158.447 310.553 159.709L309.862 161.597C309.772 161.761 309.703 161.935 309.657 162.115C309.546 162.659 309.603 163.223 309.819 163.734C310.164 164.625 310.625 165.466 311.19 166.237C313.826 169.863 318.416 173.402 322.768 176.434L320.165 182.358C318.663 181.924 317.184 181.408 315.737 180.815C314.292 180.236 312.879 179.58 311.504 178.851C308.542 177.354 305.817 175.431 303.414 173.143C302.018 171.8 300.828 170.258 299.883 168.568C298.735 166.515 298.115 164.208 298.079 161.856C298.063 160.596 298.223 159.339 298.554 158.123L299.192 155.9C299.602 154.422 300.077 153.019 300.531 151.584C302.453 145.919 304.613 140.448 306.935 135.064C309.257 129.68 311.752 124.446 314.495 119.181L326.159 125.169Z" fill="#FFB27D"/>
<path d="M316.634 113.882C308.717 116.364 300.941 143.156 300.941 143.156L319.237 151.152C319.237 151.152 325.166 138.203 328.568 128.06C332.272 117 326.213 110.882 316.634 113.882Z" fill="#359C67"/>
<path d="M319.68 175.708L328.449 176.571L324.885 186.283C324.885 186.283 317.001 184.534 317.099 180.24L319.68 175.708Z" fill="#FFB27D"/>
<path d="M336.009 180.931L331.376 188.959L324.82 186.326L328.395 176.571L336.009 180.931Z" fill="#FFB27D"/>
<path d="M342.91 84.7318C341.727 84.7403 340.568 84.3977 339.58 83.7472C338.593 83.0968 337.82 82.1678 337.362 81.0783C336.903 79.9887 336.779 78.7876 337.004 77.6273C337.23 76.467 337.795 75.3997 338.629 74.5609C339.462 73.7221 340.526 73.1495 341.686 72.9157C342.845 72.6819 344.049 72.7976 345.142 73.2479C346.236 73.6982 347.172 74.463 347.83 75.4452C348.488 76.4274 348.839 77.5827 348.839 78.7647C348.837 80.339 348.212 81.8486 347.102 82.9658C345.992 84.083 344.486 84.7176 342.91 84.7318ZM342.91 73.3372C341.842 73.3372 340.798 73.6536 339.91 74.2465C339.022 74.8393 338.33 75.6819 337.921 76.6677C337.512 77.6536 337.406 78.7384 337.614 79.7849C337.822 80.8315 338.337 81.7928 339.092 82.5473C339.847 83.3019 340.809 83.8157 341.857 84.0239C342.904 84.232 343.99 84.1252 344.977 83.7168C345.963 83.3085 346.807 82.617 347.4 81.7298C347.993 80.8425 348.31 79.7994 348.31 78.7324C348.302 77.3071 347.729 75.9431 346.717 74.9383C345.705 73.9335 344.337 73.3696 342.91 73.3696V73.3372Z" fill="white"/>
<path d="M355.89 84.7319C354.709 84.7319 353.554 84.382 352.572 83.7263C351.59 83.0706 350.825 82.1387 350.373 81.0484C349.921 79.9581 349.802 78.7583 350.033 77.6008C350.263 76.4433 350.832 75.3801 351.667 74.5456C352.502 73.7111 353.567 73.1427 354.725 72.9125C355.884 72.6823 357.085 72.8004 358.176 73.2521C359.267 73.7037 360.2 74.4685 360.856 75.4498C361.512 76.4311 361.863 77.5847 361.863 78.7649C361.86 80.3466 361.23 81.8627 360.11 82.9811C358.991 84.0995 357.473 84.7291 355.89 84.7319ZM355.89 73.3374C354.822 73.3374 353.778 73.6538 352.89 74.2466C352.002 74.8394 351.31 75.6821 350.901 76.6679C350.493 77.6537 350.386 78.7385 350.594 79.7851C350.802 80.8316 351.317 81.793 352.072 82.5475C352.827 83.302 353.789 83.8158 354.837 84.024C355.884 84.2322 356.97 84.1254 357.957 83.717C358.944 83.3087 359.787 82.6171 360.38 81.7299C360.974 80.8427 361.29 79.7996 361.29 78.7325C361.282 77.3073 360.709 75.9433 359.697 74.9385C358.686 73.9337 357.317 73.3697 355.89 73.3697V73.3374Z" fill="white"/>
<defs>
<linearGradient id="paint0_linear" x1="361.767" y1="147.355" x2="145.498" y2="275.354" gradientUnits="userSpaceOnUse">
<stop offset="0.00552486" stop-color="#DD1374"/>
<stop offset="1" stop-color="#FFD17F"/>
</linearGradient>
<linearGradient id="paint1_linear" x1="216.592" y1="97.1417" x2="214.566" y2="443.985" gradientUnits="userSpaceOnUse">
<stop stop-color="#FF7F7F"/>
<stop offset="1" stop-color="#FFD17F"/>
</linearGradient>
<linearGradient id="paint2_linear" x1="372.257" y1="109.316" x2="300.277" y2="129.005" gradientUnits="userSpaceOnUse">
<stop stop-color="#4AAF86"/>
<stop offset="0.833333" stop-color="#88D39F"/>
<stop offset="1" stop-color="#7AE49B"/>
</linearGradient>
</defs>
</svg>
