<svg width="665" height="602" viewBox="0 0 665 602" fill="none" xmlns="http://www.w3.org/2000/svg">
<g filter="url(#filter0_d)">
<g clip-path="url(#clip0)">
<rect x="142" y="0.000976562" width="931" height="557.403" rx="17.5" fill="white"/>
<g clip-path="url(#clip1)">
<rect width="931" height="662.044" transform="translate(142 -104.999)" fill="#F4F7FE"/>
<rect x="497" y="174" width="206" height="326.313" rx="8.80342" fill="white"/>
<rect x="511.085" y="188.085" width="177.829" height="12.9117" rx="5.86895" fill="#C5CBD9"/>
<path d="M511.085 210.387H688.915" stroke="#C9D4EA" stroke-width="0.586895"/>
<circle cx="600" cy="290.205" r="70.4274" fill="#E1E9F8"/>
<mask id="mask0" mask-type="alpha" maskUnits="userSpaceOnUse" x="529" y="219" width="142" height="142">
<circle cx="600" cy="290.205" r="70.4274" fill="#E1E9F8"/>
</mask>
<g mask="url(#mask0)">
<path d="M600 289.714V219.778V219.614H670.427V289.714H600Z" fill="#53C48A"/>
</g>
<circle opacity="0.5" cx="600" cy="290.205" r="46.5148" fill="#8F9BBA"/>
<circle cx="599.897" cy="290.396" r="41.2737" fill="white"/>
<rect x="572.709" y="277.294" width="53.9943" height="13.4986" rx="2.75801" fill="#C5CBD9"/>
<rect x="581.806" y="296.074" width="35.8006" height="7.04273" rx="2.75801" fill="#DAE0EF"/>
<rect x="511.379" y="370.023" width="76.2963" height="7.04273" rx="2.75801" fill="#DAE0EF"/>
<rect x="511.379" y="418.735" width="76.2963" height="7.04273" rx="2.75801" fill="#DAE0EF"/>
<rect x="612.325" y="370.023" width="76.2963" height="7.04273" rx="2.75801" fill="#DAE0EF"/>
<rect x="511.379" y="385.282" width="53.9943" height="13.4986" rx="2.75801" fill="#C5CBD9"/>
<rect x="511.379" y="433.994" width="53.9943" height="13.4986" rx="2.75801" fill="#C5CBD9"/>
<rect x="612.325" y="385.282" width="53.9943" height="13.4986" rx="2.75801" fill="#C5CBD9"/>
<rect x="511.379" y="456.883" width="82.7521" height="29.3447" rx="4.69516" fill="#EFF4FF"/>
<rect x="605.869" y="456.883" width="82.7521" height="29.3447" rx="4.69516" fill="#C5CBD9"/>
<rect width="187.493" height="615.494" transform="translate(142 -58.449)" fill="white"/>
<rect x="324.321" y="55" width="2.58611" height="23.275" rx="1.29306" fill="#8F9BBA"/>
<rect x="199.327" y="-10.1675" width="107.497" height="11.7483" rx="4.69933" fill="#E6EAF6"/>
<rect x="246.907" y="61.4973" width="59.9165" height="11.7483" rx="4.69933" fill="#E6EAF6"/>
<rect x="199.327" y="97.3296" width="107.497" height="11.7483" rx="4.69933" fill="#E6EAF6"/>
<rect x="199.327" y="133.162" width="107.497" height="11.7483" rx="4.69933" fill="#E6EAF6"/>
<rect x="164.669" y="133.162" width="13.5106" height="11.7483" rx="4.69933" fill="#E6EAF6"/>
<rect x="164.669" y="97.3296" width="13.5106" height="11.7483" rx="4.69933" fill="#E6EAF6"/>
<rect x="164.669" y="-10.1675" width="13.5106" height="11.7483" rx="4.69933" fill="#E6EAF6"/>
<rect x="164.669" y="168.994" width="142.155" height="24.0841" rx="4.69933" fill="#C4CDE1"/>
<rect x="164.669" y="329.633" width="54.6298" height="11.7483" rx="4.69933" fill="#E6EAF6"/>
<rect x="164.669" y="365.302" width="142.155" height="11.7483" rx="4.69933" fill="#E6EAF6"/>
<rect x="164.669" y="400.972" width="99.8608" height="11.7483" rx="4.69933" fill="#E6EAF6"/>
<rect x="164.669" y="436.642" width="99.8608" height="11.7483" rx="4.69933" fill="#E6EAF6"/>
<rect x="164.669" y="472.312" width="99.8608" height="11.7483" rx="4.69933" fill="#E6EAF6"/>
<rect x="164.669" y="507.982" width="142.155" height="11.7483" rx="4.69933" fill="#F4F7FE"/>
<rect x="362" y="93.0005" width="204" height="12" rx="4.69933" fill="#DAE0EF"/>
<rect x="362" y="117" width="77" height="22" rx="4.69933" fill="#C5CBD9"/>
<rect x="362" y="69.0005" width="312" height="12" rx="4.69933" fill="#C5CBD9"/>
</g>
<g filter="url(#filter1_di)">
<path d="M142 7.27442C142 3.25741 145.256 0.000976562 149.273 0.000976562H1065.73C1069.74 0.000976562 1073 3.25741 1073 7.27441V38.5502H142V7.27442Z" fill="white"/>
<g clip-path="url(#clip2)">
<path d="M253.476 23.9943L248.688 19.3213C248.573 19.2066 248.513 19.0677 248.513 18.9168C248.513 18.7598 248.579 18.6089 248.694 18.5123L253.476 13.8332C253.578 13.7305 253.711 13.6702 253.868 13.6702C254.182 13.6702 254.417 13.9117 254.417 14.2256C254.417 14.3705 254.357 14.5154 254.26 14.6181L249.865 18.9168L254.26 23.2155C254.357 23.3181 254.417 23.457 254.417 23.6079C254.417 23.9219 254.182 24.1573 253.868 24.1573C253.711 24.1573 253.578 24.097 253.476 23.9943Z" fill="#737373"/>
<path d="M273.065 24.1634C273.222 24.1634 273.354 24.103 273.457 24.0004L278.245 19.3213C278.359 19.2066 278.42 19.0677 278.42 18.9168C278.42 18.7598 278.359 18.6149 278.245 18.5123L273.463 13.8392C273.354 13.7305 273.222 13.6702 273.065 13.6702C272.751 13.6702 272.515 13.9117 272.515 14.2256C272.515 14.3705 272.576 14.5154 272.672 14.6181L277.067 18.9168L272.672 23.2155C272.576 23.3181 272.515 23.457 272.515 23.6079C272.515 23.9219 272.751 24.1634 273.065 24.1634Z" fill="#BFBFBF"/>
</g>
<path d="M215.694 24.4835H226.139C227.407 24.4835 228.035 23.8556 228.035 22.6119V15.24C228.035 13.9963 227.407 13.3684 226.139 13.3684H215.694C214.432 13.3684 213.798 13.9903 213.798 15.24V22.6119C213.798 23.8616 214.432 24.4835 215.694 24.4835ZM215.706 23.5114C215.102 23.5114 214.77 23.1915 214.77 22.5636V15.2883C214.77 14.6604 215.102 14.3404 215.706 14.3404H218.399V23.5114H215.706ZM226.127 14.3404C226.725 14.3404 227.063 14.6604 227.063 15.2883V22.5636C227.063 23.1915 226.725 23.5114 226.127 23.5114H219.347V14.3404H226.127ZM217.234 16.5804C217.421 16.5804 217.578 16.4174 217.578 16.2423C217.578 16.0611 217.421 15.9042 217.234 15.9042H215.942C215.761 15.9042 215.598 16.0611 215.598 16.2423C215.598 16.4174 215.761 16.5804 215.942 16.5804H217.234ZM217.234 18.1441C217.421 18.1441 217.578 17.9811 217.578 17.7999C217.578 17.6188 217.421 17.4679 217.234 17.4679H215.942C215.761 17.4679 215.598 17.6188 215.598 17.7999C215.598 17.9811 215.761 18.1441 215.942 18.1441H217.234ZM217.234 19.7018C217.421 19.7018 217.578 19.5508 217.578 19.3697C217.578 19.1886 217.421 19.0316 217.234 19.0316H215.942C215.761 19.0316 215.598 19.1886 215.598 19.3697C215.598 19.5508 215.761 19.7018 215.942 19.7018H217.234Z" fill="#737373"/>
<g filter="url(#filter2_i)">
<path fill-rule="evenodd" clip-rule="evenodd" d="M161.638 23.276C164.049 23.276 166.003 21.3221 166.003 18.9119C166.003 16.5017 164.049 14.5479 161.638 14.5479C159.228 14.5479 157.274 16.5017 157.274 18.9119C157.274 21.3221 159.228 23.276 161.638 23.276Z" fill="#EE6A5F"/>
</g>
<path d="M165.821 18.9119C165.821 21.2217 163.948 23.0941 161.638 23.0941C159.329 23.0941 157.456 21.2217 157.456 18.9119C157.456 16.6021 159.329 14.7297 161.638 14.7297C163.948 14.7297 165.821 16.6021 165.821 18.9119Z" stroke="#CE5347" stroke-width="0.363672"/>
<g filter="url(#filter3_i)">
<path fill-rule="evenodd" clip-rule="evenodd" d="M176.185 23.276C178.596 23.276 180.549 21.3221 180.549 18.9119C180.549 16.5017 178.596 14.5479 176.185 14.5479C173.775 14.5479 171.821 16.5017 171.821 18.9119C171.821 21.3221 173.775 23.276 176.185 23.276Z" fill="#F5BD4F"/>
</g>
<path d="M180.368 18.9119C180.368 21.2217 178.495 23.0941 176.185 23.0941C173.876 23.0941 172.003 21.2217 172.003 18.9119C172.003 16.6021 173.876 14.7297 176.185 14.7297C178.495 14.7297 180.368 16.6021 180.368 18.9119Z" stroke="#D6A243" stroke-width="0.363672"/>
<g filter="url(#filter4_i)">
<path fill-rule="evenodd" clip-rule="evenodd" d="M190.732 23.276C193.142 23.276 195.096 21.3221 195.096 18.9119C195.096 16.5017 193.142 14.5479 190.732 14.5479C188.322 14.5479 186.368 16.5017 186.368 18.9119C186.368 21.3221 188.322 23.276 190.732 23.276Z" fill="#61C454"/>
</g>
<path d="M194.914 18.9119C194.914 21.2217 193.042 23.0941 190.732 23.0941C188.422 23.0941 186.55 21.2217 186.55 18.9119C186.55 16.6021 188.422 14.7297 190.732 14.7297C193.042 14.7297 194.914 16.6021 194.914 18.9119Z" stroke="#58A942" stroke-width="0.363672"/>
</g>
</g>
</g>
<g filter="url(#filter5_d)">
<rect x="55" y="154" width="356.563" height="367.26" rx="13.3711" fill="white"/>
<path d="M94.3948 202.214V199.39H95.887C96.9781 199.39 97.4434 199.935 97.4434 200.802C97.4434 201.668 96.9781 202.214 95.887 202.214H94.3948ZM100.235 200.802C100.235 198.732 98.8554 197.175 96.0956 197.175H91.6511V208.439H94.3948V204.396H96.0956C98.9677 204.396 100.235 202.663 100.235 200.802ZM101.118 203.947C101.118 206.77 102.867 208.568 105.049 208.568C106.381 208.568 107.328 207.958 107.825 207.172V208.439H110.569V199.486H107.825V200.753C107.344 199.967 106.397 199.358 105.065 199.358C102.867 199.358 101.118 201.123 101.118 203.947ZM107.825 203.963C107.825 205.391 106.911 206.177 105.868 206.177C104.841 206.177 103.91 205.375 103.91 203.947C103.91 202.518 104.841 201.748 105.868 201.748C106.911 201.748 107.825 202.535 107.825 203.963ZM116.678 205.086L114.608 199.486H111.543L115.185 208.134L113.132 212.691H116.084L121.7 199.486H118.731L116.678 205.086ZM135.031 208.439H137.758V203.208C137.758 200.802 136.33 199.39 134.116 199.39C132.816 199.39 131.693 200.112 131.1 201.058C130.49 199.983 129.399 199.39 128.051 199.39C126.88 199.39 125.965 199.887 125.436 200.609V199.486H122.692V208.439H125.436V203.577C125.436 202.406 126.11 201.764 127.152 201.764C128.195 201.764 128.869 202.406 128.869 203.577V208.439H131.597V203.577C131.597 202.406 132.271 201.764 133.314 201.764C134.357 201.764 135.031 202.406 135.031 203.577V208.439ZM143.625 201.556C144.539 201.556 145.309 202.117 145.309 203.096H141.876C142.036 202.101 142.726 201.556 143.625 201.556ZM147.909 205.471H144.988C144.764 205.952 144.331 206.337 143.56 206.337C142.678 206.337 141.956 205.792 141.86 204.62H148.069C148.101 204.348 148.117 204.075 148.117 203.818C148.117 201.09 146.272 199.358 143.657 199.358C140.993 199.358 139.132 201.123 139.132 203.963C139.132 206.803 141.025 208.568 143.657 208.568C145.887 208.568 147.475 207.22 147.909 205.471ZM155.742 208.439H158.47V203.208C158.47 200.802 157.09 199.39 155.02 199.39C153.817 199.39 152.854 199.919 152.308 200.673V199.486H149.565V208.439H152.308V203.577C152.308 202.358 152.982 201.684 154.025 201.684C155.068 201.684 155.742 202.358 155.742 203.577V208.439ZM160.81 205.326C160.81 207.653 162.109 208.439 163.971 208.439H165.367V206.113H164.388C163.778 206.113 163.553 205.888 163.553 205.359V201.764H165.351V199.486H163.553V197.304H160.81V199.486H159.719V201.764H160.81V205.326ZM169.75 203.947C169.75 206.77 171.499 208.568 173.697 208.568C175.012 208.568 175.959 207.974 176.457 207.156V208.439H179.2V196.566H176.457V200.721C175.911 199.903 174.884 199.358 173.697 199.358C171.499 199.358 169.75 201.123 169.75 203.947ZM176.457 203.963C176.457 205.391 175.542 206.177 174.499 206.177C173.472 206.177 172.541 205.375 172.541 203.947C172.541 202.518 173.472 201.748 174.499 201.748C175.542 201.748 176.457 202.535 176.457 203.963ZM185.132 201.556C186.047 201.556 186.817 202.117 186.817 203.096H183.383C183.544 202.101 184.234 201.556 185.132 201.556ZM189.417 205.471H186.496C186.272 205.952 185.838 206.337 185.068 206.337C184.186 206.337 183.464 205.792 183.367 204.62H189.577C189.609 204.348 189.625 204.075 189.625 203.818C189.625 201.09 187.78 199.358 185.165 199.358C182.501 199.358 180.64 201.123 180.64 203.963C180.64 206.803 182.533 208.568 185.165 208.568C187.395 208.568 188.983 207.22 189.417 205.471ZM191.073 208.439H193.816V196.566H191.073V208.439ZM195.259 203.947C195.259 206.77 197.008 208.568 199.19 208.568C200.522 208.568 201.469 207.958 201.966 207.172V208.439H204.71V199.486H201.966V200.753C201.485 199.967 200.538 199.358 199.206 199.358C197.008 199.358 195.259 201.123 195.259 203.947ZM201.966 203.963C201.966 205.391 201.052 206.177 200.009 206.177C198.982 206.177 198.051 205.375 198.051 203.947C198.051 202.518 198.982 201.748 200.009 201.748C201.052 201.748 201.966 202.535 201.966 203.963ZM206.695 208.439H209.439V199.486H206.695V208.439ZM208.075 198.555C209.037 198.555 209.695 197.897 209.695 197.079C209.695 196.245 209.037 195.587 208.075 195.587C207.096 195.587 206.438 196.245 206.438 197.079C206.438 197.897 207.096 198.555 208.075 198.555ZM211.427 208.439H214.171V196.566H211.427V208.439ZM223.428 205.84C223.38 202.502 218.534 203.513 218.534 202.085C218.534 201.652 218.887 201.395 219.529 201.395C220.299 201.395 220.764 201.796 220.844 202.406H223.38C223.203 200.641 221.919 199.358 219.609 199.358C217.266 199.358 215.967 200.609 215.967 202.133C215.967 205.423 220.844 204.38 220.844 205.824C220.844 206.225 220.475 206.546 219.769 206.546C219.015 206.546 218.454 206.129 218.389 205.503H215.678C215.806 207.236 217.411 208.568 219.801 208.568C222.048 208.568 223.428 207.396 223.428 205.84Z" fill="black"/>
<path d="M358.078 210.159L372.341 195.896" stroke="#292D32" stroke-width="1.33711" stroke-linecap="round" stroke-linejoin="round"/>
<path d="M372.341 210.159L358.078 195.896" stroke="#292D32" stroke-width="1.33711" stroke-linecap="round" stroke-linejoin="round"/>
<path d="M91.1929 238.523C91.1929 241.131 93.1023 242.953 95.5358 242.953C97.4203 242.953 98.9178 242.017 99.5668 240.345H98.2065C97.7322 241.381 96.8087 241.967 95.5358 241.967C93.7138 241.967 92.3535 240.644 92.3535 238.523C92.3535 236.389 93.7138 235.066 95.5358 235.066C96.8087 235.066 97.7322 235.652 98.2065 236.701H99.5668C98.9178 235.016 97.4203 234.068 95.5358 234.068C93.1023 234.068 91.1929 235.914 91.1929 238.523ZM100.833 239.434C100.833 241.555 102.243 242.99 104.065 242.99C105.326 242.99 106.212 242.342 106.624 241.605V242.878H107.772V236.039H106.624V237.287C106.224 236.576 105.351 235.927 104.078 235.927C102.243 235.927 100.833 237.3 100.833 239.434ZM106.624 239.446C106.624 241.056 105.55 241.992 104.302 241.992C103.054 241.992 101.994 241.044 101.994 239.434C101.994 237.824 103.054 236.913 104.302 236.913C105.55 236.913 106.624 237.861 106.624 239.446ZM110.826 239.159C110.826 237.574 111.65 237.088 112.736 237.088H113.035V235.914C111.95 235.914 111.213 236.389 110.826 237.15V236.039H109.691V242.878H110.826V239.159ZM113.922 239.434C113.922 241.555 115.332 242.99 117.167 242.99C118.415 242.99 119.301 242.354 119.713 241.593V242.878H120.861V233.643H119.713V237.262C119.238 236.476 118.252 235.927 117.179 235.927C115.332 235.927 113.922 237.3 113.922 239.434ZM119.713 239.446C119.713 241.056 118.639 241.992 117.391 241.992C116.143 241.992 115.083 241.044 115.083 239.434C115.083 237.824 116.143 236.913 117.391 236.913C118.639 236.913 119.713 237.861 119.713 239.446ZM122.78 242.878H123.916V239.097C123.916 237.624 124.714 236.9 125.875 236.9C127.023 236.9 127.784 237.612 127.784 239.009V242.878H128.907V238.847C128.907 236.888 127.697 235.914 126.174 235.914C125.213 235.914 124.365 236.301 123.916 237.025V233.643H122.78V242.878ZM137.252 239.446C137.252 237.287 135.742 235.927 133.795 235.927C131.861 235.927 130.338 237.287 130.338 239.446C130.338 241.618 131.811 242.99 133.745 242.99C135.692 242.99 137.252 241.618 137.252 239.446ZM131.499 239.446C131.499 237.724 132.585 236.913 133.783 236.913C134.956 236.913 136.091 237.724 136.091 239.446C136.091 241.181 134.931 241.992 133.745 241.992C132.56 241.992 131.499 241.181 131.499 239.446ZM138.745 242.878H139.881V233.643H138.745V242.878ZM141.392 239.434C141.392 241.555 142.802 242.99 144.637 242.99C145.885 242.99 146.771 242.354 147.183 241.593V242.878H148.331V233.643H147.183V237.262C146.708 236.476 145.722 235.927 144.649 235.927C142.802 235.927 141.392 237.3 141.392 239.434ZM147.183 239.446C147.183 241.056 146.109 241.992 144.861 241.992C143.613 241.992 142.553 241.044 142.553 239.434C142.553 237.824 143.613 236.913 144.861 236.913C146.109 236.913 147.183 237.861 147.183 239.446ZM153.158 236.888C154.331 236.888 155.329 237.624 155.317 238.96H150.999C151.123 237.624 152.047 236.888 153.158 236.888ZM156.352 240.769H155.129C154.88 241.505 154.231 242.03 153.208 242.03C152.047 242.03 151.074 241.268 150.986 239.883H156.452C156.477 239.646 156.49 239.446 156.49 239.197C156.49 237.325 155.192 235.927 153.208 235.927C151.211 235.927 149.826 237.287 149.826 239.446C149.826 241.618 151.261 242.99 153.208 242.99C154.905 242.99 156.003 242.017 156.352 240.769ZM159.124 239.159C159.124 237.574 159.948 237.088 161.034 237.088H161.333V235.914C160.248 235.914 159.511 236.389 159.124 237.15V236.039H157.989V242.878H159.124V239.159ZM170.976 242.878H172.099V238.847C172.099 236.888 170.888 235.914 169.303 235.914C168.38 235.914 167.556 236.301 167.107 237.013V236.039H165.971V242.878H167.107V239.097C167.107 237.624 167.906 236.9 169.066 236.9C170.214 236.9 170.976 237.612 170.976 239.009V242.878ZM173.53 239.434C173.53 241.555 174.94 242.99 176.762 242.99C178.022 242.99 178.908 242.342 179.32 241.605V242.878H180.468V236.039H179.32V237.287C178.921 236.576 178.047 235.927 176.774 235.927C174.94 235.927 173.53 237.3 173.53 239.434ZM179.32 239.446C179.32 241.056 178.247 241.992 176.999 241.992C175.751 241.992 174.69 241.044 174.69 239.434C174.69 237.824 175.751 236.913 176.999 236.913C178.247 236.913 179.32 237.861 179.32 239.446ZM192.259 242.878H193.382V238.847C193.382 236.888 192.172 235.914 190.612 235.914C189.563 235.914 188.59 236.451 188.191 237.437C187.741 236.414 186.805 235.914 185.682 235.914C184.784 235.914 183.972 236.301 183.523 237.025V236.039H182.388V242.878H183.523V239.109C183.523 237.637 184.309 236.9 185.458 236.9C186.581 236.9 187.33 237.612 187.33 239.009V242.878H188.453V239.109C188.453 237.637 189.239 236.9 190.387 236.9C191.51 236.9 192.259 237.612 192.259 239.009V242.878ZM198.153 236.888C199.326 236.888 200.324 237.624 200.312 238.96H195.994C196.119 237.624 197.042 236.888 198.153 236.888ZM201.348 240.769H200.125C199.875 241.505 199.226 242.03 198.203 242.03C197.042 242.03 196.069 241.268 195.981 239.883H201.447C201.472 239.646 201.485 239.446 201.485 239.197C201.485 237.325 200.187 235.927 198.203 235.927C196.206 235.927 194.821 237.287 194.821 239.446C194.821 241.618 196.256 242.99 198.203 242.99C199.9 242.99 200.998 242.017 201.348 240.769Z" fill="black"/>
<g filter="url(#filter6_d)">
<rect x="90.6562" y="250.272" width="285.25" height="33.8735" rx="7.13126" fill="white"/>
<path d="M105.546 269.132C105.546 269.856 105.184 270.48 104.286 270.48C103.387 270.48 103.013 269.843 103 269.045H101.865C101.865 270.567 102.838 271.491 104.286 271.491C105.721 271.491 106.694 270.58 106.694 269.132V262.705H105.546V269.132ZM115.421 267.971C115.421 265.812 113.911 264.452 111.964 264.452C110.03 264.452 108.507 265.812 108.507 267.971C108.507 270.143 109.98 271.516 111.914 271.516C113.861 271.516 115.421 270.143 115.421 267.971ZM109.668 267.971C109.668 266.249 110.754 265.438 111.952 265.438C113.125 265.438 114.26 266.249 114.26 267.971C114.26 269.706 113.1 270.517 111.914 270.517C110.729 270.517 109.668 269.706 109.668 267.971ZM116.914 271.403H118.05V267.622C118.05 266.149 118.849 265.426 120.009 265.426C121.157 265.426 121.919 266.137 121.919 267.535V271.403H123.042V267.372C123.042 265.413 121.831 264.44 120.309 264.44C119.348 264.44 118.499 264.827 118.05 265.55V262.168H116.914V271.403ZM129.901 271.403H131.024V267.372C131.024 265.413 129.814 264.44 128.229 264.44C127.305 264.44 126.482 264.827 126.033 265.538V264.564H124.897V271.403H126.033V267.622C126.033 266.149 126.831 265.426 127.992 265.426C129.14 265.426 129.901 266.137 129.901 267.535V271.403ZM139.439 269.132C139.439 269.856 139.077 270.48 138.178 270.48C137.28 270.48 136.905 269.843 136.893 269.045H135.757C135.757 270.567 136.731 271.491 138.178 271.491C139.614 271.491 140.587 270.58 140.587 269.132V262.705H139.439V269.132ZM149.314 267.971C149.314 265.812 147.804 264.452 145.857 264.452C143.922 264.452 142.4 265.812 142.4 267.971C142.4 270.143 143.873 271.516 145.807 271.516C147.754 271.516 149.314 270.143 149.314 267.971ZM143.561 267.971C143.561 266.249 144.646 265.438 145.844 265.438C147.017 265.438 148.153 266.249 148.153 267.971C148.153 269.706 146.992 270.517 145.807 270.517C144.621 270.517 143.561 269.706 143.561 267.971ZM150.807 271.403H151.943V267.622C151.943 266.149 152.741 265.426 153.902 265.426C155.05 265.426 155.811 266.137 155.811 267.535V271.403H156.934V267.372C156.934 265.413 155.724 264.44 154.201 264.44C153.24 264.44 152.392 264.827 151.943 265.55V262.168H150.807V271.403ZM163.794 271.403H164.917V267.372C164.917 265.413 163.707 264.44 162.122 264.44C161.198 264.44 160.374 264.827 159.925 265.538V264.564H158.79V271.403H159.925V267.622C159.925 266.149 160.724 265.426 161.884 265.426C163.033 265.426 163.794 266.137 163.794 267.535V271.403ZM171.689 269.544C171.639 267.098 167.671 267.984 167.671 266.362C167.671 265.812 168.17 265.413 169.006 265.413C169.917 265.413 170.441 265.912 170.491 266.599H171.627C171.552 265.263 170.553 264.452 169.043 264.452C167.521 264.452 166.535 265.313 166.535 266.362C166.535 268.907 170.578 268.021 170.578 269.544C170.578 270.105 170.079 270.555 169.181 270.555C168.22 270.555 167.633 270.056 167.571 269.394H166.398C166.473 270.642 167.596 271.516 169.193 271.516C170.703 271.516 171.689 270.667 171.689 269.544ZM179.782 267.971C179.782 265.812 178.272 264.452 176.325 264.452C174.39 264.452 172.868 265.812 172.868 267.971C172.868 270.143 174.341 271.516 176.275 271.516C178.222 271.516 179.782 270.143 179.782 267.971ZM174.029 267.971C174.029 266.249 175.114 265.438 176.312 265.438C177.485 265.438 178.621 266.249 178.621 267.971C178.621 269.706 177.461 270.517 176.275 270.517C175.089 270.517 174.029 269.706 174.029 267.971ZM186.279 271.403H187.402V267.372C187.402 265.413 186.192 264.44 184.607 264.44C183.683 264.44 182.86 264.827 182.411 265.538V264.564H181.275V271.403H182.411V267.622C182.411 266.149 183.209 265.426 184.37 265.426C185.518 265.426 186.279 266.137 186.279 267.535V271.403ZM189.545 261.482V272.726H190.68V261.482H189.545Z" fill="black"/>
<rect x="91.102" y="250.718" width="284.359" height="32.9821" rx="6.68556" stroke="#7ED3A7" stroke-width="0.891407"/>
</g>
<path d="M91.1929 308.053C91.1929 310.661 93.1023 312.483 95.5358 312.483C97.4203 312.483 98.9178 311.547 99.5668 309.875H98.2065C97.7322 310.91 96.8087 311.497 95.5358 311.497C93.7138 311.497 92.3535 310.174 92.3535 308.053C92.3535 305.919 93.7138 304.596 95.5358 304.596C96.8087 304.596 97.7322 305.182 98.2065 306.231H99.5668C98.9178 304.546 97.4203 303.597 95.5358 303.597C93.1023 303.597 91.1929 305.444 91.1929 308.053ZM100.833 308.964C100.833 311.085 102.243 312.52 104.065 312.52C105.326 312.52 106.212 311.871 106.624 311.135V312.408H107.772V305.569H106.624V306.817C106.224 306.106 105.351 305.457 104.078 305.457C102.243 305.457 100.833 306.83 100.833 308.964ZM106.624 308.976C106.624 310.586 105.55 311.522 104.302 311.522C103.054 311.522 101.994 310.573 101.994 308.964C101.994 307.354 103.054 306.443 104.302 306.443C105.55 306.443 106.624 307.391 106.624 308.976ZM110.826 308.689C110.826 307.104 111.65 306.617 112.736 306.617H113.035V305.444C111.95 305.444 111.213 305.919 110.826 306.68V305.569H109.691V312.408H110.826V308.689ZM113.922 308.964C113.922 311.085 115.332 312.52 117.167 312.52C118.415 312.52 119.301 311.884 119.713 311.123V312.408H120.861V303.173H119.713V306.792C119.238 306.006 118.252 305.457 117.179 305.457C115.332 305.457 113.922 306.83 113.922 308.964ZM119.713 308.976C119.713 310.586 118.639 311.522 117.391 311.522C116.143 311.522 115.083 310.573 115.083 308.964C115.083 307.354 116.143 306.443 117.391 306.443C118.639 306.443 119.713 307.391 119.713 308.976ZM131.81 303.697V310.611L127.243 303.697H126.107V312.408H127.243V305.482L131.81 312.408H132.946V303.697H131.81ZM140.947 305.569H139.811V309.325C139.811 310.798 139.025 311.522 137.852 311.522C136.704 311.522 135.943 310.811 135.943 309.425V305.569H134.819V309.575C134.819 311.534 136.055 312.508 137.627 312.508C138.538 312.508 139.374 312.108 139.811 311.397V312.408H140.947V305.569ZM152.736 312.408H153.859V308.377C153.859 306.418 152.649 305.444 151.089 305.444C150.04 305.444 149.067 305.981 148.667 306.967C148.218 305.943 147.282 305.444 146.159 305.444C145.261 305.444 144.449 305.831 144 306.555V305.569H142.864V312.408H144V308.639C144 307.166 144.786 306.43 145.934 306.43C147.058 306.43 147.806 307.142 147.806 308.539V312.408H148.93V308.639C148.93 307.166 149.716 306.43 150.864 306.43C151.987 306.43 152.736 307.142 152.736 308.539V312.408ZM156.858 306.842V303.173H155.722V312.408H156.858V311.148C157.282 311.896 158.168 312.52 159.416 312.52C161.25 312.52 162.661 311.085 162.661 308.964C162.661 306.83 161.263 305.457 159.416 305.457C158.205 305.457 157.294 306.081 156.858 306.842ZM161.5 308.964C161.5 310.573 160.439 311.522 159.179 311.522C157.943 311.522 156.858 310.586 156.858 308.976C156.858 307.391 157.943 306.443 159.179 306.443C160.439 306.443 161.5 307.354 161.5 308.964ZM167.063 306.418C168.236 306.418 169.235 307.154 169.222 308.489H164.904C165.029 307.154 165.953 306.418 167.063 306.418ZM170.258 310.299H169.035C168.785 311.035 168.136 311.559 167.113 311.559C165.953 311.559 164.979 310.798 164.892 309.413H170.358C170.383 309.176 170.395 308.976 170.395 308.726C170.395 306.854 169.097 305.457 167.113 305.457C165.116 305.457 163.731 306.817 163.731 308.976C163.731 311.148 165.166 312.52 167.113 312.52C168.81 312.52 169.909 311.547 170.258 310.299ZM173.03 308.689C173.03 307.104 173.854 306.617 174.939 306.617H175.239V305.444C174.153 305.444 173.417 305.919 173.03 306.68V305.569H171.894V312.408H173.03V308.689Z" fill="black"/>
<rect x="91.102" y="320.247" width="284.359" height="34.7649" rx="6.68556" fill="white"/>
<path d="M102.69 335.293H116.061" stroke="#C9D4EA" stroke-width="1.33711" stroke-miterlimit="10" stroke-linecap="round" stroke-linejoin="round"/>
<path d="M105.364 340.642H106.701" stroke="#C9D4EA" stroke-width="1.33711" stroke-miterlimit="10" stroke-linecap="round" stroke-linejoin="round"/>
<path d="M108.373 340.642H111.047" stroke="#C9D4EA" stroke-width="1.33711" stroke-miterlimit="10" stroke-linecap="round" stroke-linejoin="round"/>
<path d="M105.658 331.951H113.086C115.466 331.951 116.061 332.539 116.061 334.886V340.374C116.061 342.721 115.466 343.309 113.093 343.309H105.658C103.285 343.316 102.69 342.728 102.69 340.381V334.886C102.69 332.539 103.285 331.951 105.658 331.951Z" stroke="#C9D4EA" stroke-width="1.33711" stroke-linecap="round" stroke-linejoin="round"/>
<path d="M131.211 331.12C132.134 331.12 132.875 331.368 133.436 331.862C133.997 332.347 134.278 332.994 134.278 333.802C134.278 334.211 134.216 334.577 134.092 334.9C133.978 335.223 133.788 335.523 133.522 335.799C133.256 336.065 132.985 336.298 132.709 336.497C132.443 336.688 132.086 336.911 131.639 337.168C130.717 337.7 130.099 338.157 129.785 338.537C129.481 338.908 129.324 339.331 129.314 339.806H134.506V340.933H127.874C127.864 340.867 127.86 340.771 127.86 340.648C127.86 339.688 128.045 338.908 128.416 338.309C128.796 337.7 129.557 337.063 130.698 336.398C131.525 335.913 132.1 335.504 132.424 335.171C132.747 334.829 132.909 334.382 132.909 333.83C132.909 333.364 132.752 332.989 132.438 332.704C132.134 332.409 131.72 332.261 131.197 332.261C130.028 332.261 129.405 332.889 129.329 334.144H127.988C128.026 333.193 128.33 332.452 128.901 331.919C129.481 331.387 130.251 331.12 131.211 331.12ZM139.163 331.12C140.133 331.12 140.898 331.358 141.459 331.834C142.03 332.309 142.315 332.946 142.315 333.745C142.315 334.829 141.759 335.575 140.646 335.984V336.013C141.274 336.222 141.735 336.521 142.03 336.911C142.325 337.291 142.472 337.791 142.472 338.409C142.472 339.217 142.168 339.873 141.559 340.377C140.951 340.881 140.157 341.133 139.177 341.133C138.122 341.133 137.304 340.862 136.724 340.32C136.144 339.778 135.854 339.017 135.854 338.038H137.181C137.181 338.675 137.352 339.165 137.694 339.507C138.036 339.84 138.531 340.006 139.177 340.006C139.757 340.006 140.228 339.854 140.589 339.55C140.951 339.245 141.131 338.851 141.131 338.366C141.131 337.805 140.936 337.377 140.547 337.082C140.157 336.778 139.591 336.626 138.849 336.626H138.464V335.528H138.849C139.505 335.528 140.024 335.38 140.404 335.085C140.794 334.781 140.989 334.372 140.989 333.859C140.989 333.374 140.818 332.984 140.475 332.689C140.133 332.395 139.677 332.247 139.106 332.247C137.879 332.247 137.266 332.884 137.266 334.158H135.94C135.94 333.208 136.225 332.466 136.795 331.933C137.376 331.391 138.165 331.12 139.163 331.12ZM150.894 337.367V338.451H149.325V340.933H148.028V338.451H143.492V337.268L147.571 331.32H149.325V337.367H150.894ZM145.845 335.784L144.747 337.367H148.042V336.055C148.042 334.867 148.056 333.673 148.085 332.475H148.056C147.381 333.521 146.644 334.624 145.845 335.784ZM158.903 337.367V338.451H157.334V340.933H156.036V338.451H151.501V337.268L155.58 331.32H157.334V337.367H158.903ZM153.854 335.784L152.756 337.367H156.051V336.055C156.051 334.867 156.065 333.673 156.093 332.475H156.065C155.39 333.521 154.653 334.624 153.854 335.784ZM163.139 331.32H169.785V332.475C168.15 334.843 167.009 337.662 166.362 340.933H164.922C165.682 337.539 166.861 334.715 168.459 332.461H163.139V331.32ZM178.208 337.367V338.451H176.639V340.933H175.341V338.451H170.805V337.268L174.884 331.32H176.639V337.367H178.208ZM173.159 335.784L172.06 337.367H175.355V336.055C175.355 334.867 175.369 333.673 175.398 332.475H175.369C174.694 333.521 173.957 334.624 173.159 335.784ZM182.822 331.12C183.678 331.12 184.367 331.358 184.89 331.834C185.413 332.3 185.712 332.951 185.788 333.788H184.448C184.277 332.77 183.72 332.261 182.779 332.261C182.085 332.261 181.533 332.561 181.125 333.16C180.725 333.759 180.511 334.672 180.483 335.898H180.511C181.072 335.081 181.862 334.672 182.879 334.672C183.782 334.672 184.514 334.962 185.075 335.542C185.636 336.122 185.917 336.883 185.917 337.824C185.917 338.813 185.613 339.611 185.004 340.22C184.405 340.829 183.616 341.133 182.636 341.133C181.533 341.133 180.692 340.743 180.112 339.963C179.532 339.184 179.242 338.028 179.242 336.497C179.242 334.757 179.551 333.426 180.169 332.504C180.797 331.582 181.681 331.12 182.822 331.12ZM184.034 336.326C183.692 335.936 183.231 335.742 182.651 335.742C182.071 335.742 181.6 335.941 181.239 336.341C180.887 336.73 180.711 337.234 180.711 337.852C180.711 338.508 180.882 339.031 181.224 339.421C181.576 339.802 182.047 339.992 182.636 339.992C183.216 339.992 183.682 339.797 184.034 339.407C184.386 339.017 184.562 338.499 184.562 337.852C184.562 337.225 184.386 336.716 184.034 336.326ZM190.56 331.12C191.482 331.12 192.224 331.368 192.785 331.862C193.346 332.347 193.626 332.994 193.626 333.802C193.626 334.211 193.564 334.577 193.441 334.9C193.327 335.223 193.136 335.523 192.87 335.799C192.604 336.065 192.333 336.298 192.057 336.497C191.791 336.688 191.434 336.911 190.987 337.168C190.065 337.7 189.447 338.157 189.133 338.537C188.829 338.908 188.672 339.331 188.663 339.806H193.854V340.933H187.222C187.213 340.867 187.208 340.771 187.208 340.648C187.208 339.688 187.393 338.908 187.764 338.309C188.145 337.7 188.905 337.063 190.046 336.398C190.873 335.913 191.449 335.504 191.772 335.171C192.095 334.829 192.257 334.382 192.257 333.83C192.257 333.364 192.1 332.989 191.786 332.704C191.482 332.409 191.068 332.261 190.545 332.261C189.376 332.261 188.753 332.889 188.677 334.144H187.336C187.374 333.193 187.679 332.452 188.249 331.919C188.829 331.387 189.599 331.12 190.56 331.12ZM201.855 331.12C202.787 331.12 203.548 331.368 204.137 331.862C204.736 332.347 205.036 332.979 205.036 333.759C205.036 334.273 204.884 334.715 204.58 335.085C204.285 335.456 203.876 335.742 203.353 335.941V335.97C203.952 336.15 204.413 336.445 204.736 336.854C205.06 337.253 205.221 337.748 205.221 338.337C205.221 339.174 204.908 339.849 204.28 340.363C203.662 340.876 202.854 341.133 201.855 341.133C200.857 341.133 200.049 340.876 199.431 340.363C198.813 339.849 198.504 339.174 198.504 338.337C198.504 337.748 198.665 337.253 198.989 336.854C199.312 336.445 199.768 336.15 200.358 335.97V335.941C199.835 335.742 199.426 335.456 199.131 335.085C198.837 334.705 198.689 334.263 198.689 333.759C198.689 332.979 198.984 332.347 199.573 331.862C200.172 331.368 200.933 331.12 201.855 331.12ZM203.31 337.025C202.939 336.702 202.454 336.54 201.855 336.54C201.256 336.54 200.767 336.702 200.386 337.025C200.016 337.339 199.83 337.748 199.83 338.252C199.83 338.775 200.016 339.198 200.386 339.521C200.757 339.835 201.247 339.992 201.855 339.992C202.464 339.992 202.954 339.835 203.324 339.521C203.695 339.198 203.881 338.775 203.881 338.252C203.881 337.748 203.691 337.339 203.31 337.025ZM203.21 332.675C202.868 332.39 202.416 332.247 201.855 332.247C201.294 332.247 200.843 332.39 200.5 332.675C200.158 332.96 199.987 333.336 199.987 333.802C199.987 334.296 200.153 334.691 200.486 334.986C200.829 335.28 201.285 335.428 201.855 335.428C202.426 335.428 202.878 335.28 203.21 334.986C203.553 334.691 203.724 334.296 203.724 333.802C203.724 333.336 203.553 332.96 203.21 332.675ZM213.53 337.367V338.451H211.961V340.933H210.663V338.451H206.127V337.268L210.206 331.32H211.961V337.367H213.53ZM208.481 335.784L207.382 337.367H210.677V336.055C210.677 334.867 210.691 333.673 210.72 332.475H210.691C210.016 333.521 209.279 334.624 208.481 335.784ZM217.873 331.12C218.795 331.12 219.537 331.368 220.098 331.862C220.659 332.347 220.939 332.994 220.939 333.802C220.939 334.211 220.878 334.577 220.754 334.9C220.64 335.223 220.45 335.523 220.183 335.799C219.917 336.065 219.646 336.298 219.37 336.497C219.104 336.688 218.748 336.911 218.301 337.168C217.378 337.7 216.76 338.157 216.447 338.537C216.142 338.908 215.985 339.331 215.976 339.806H221.168V340.933H214.535C214.526 340.867 214.521 340.771 214.521 340.648C214.521 339.688 214.707 338.908 215.077 338.309C215.458 337.7 216.218 337.063 217.359 336.398C218.187 335.913 218.762 335.504 219.085 335.171C219.409 334.829 219.57 334.382 219.57 333.83C219.57 333.364 219.413 332.989 219.099 332.704C218.795 332.409 218.382 332.261 217.859 332.261C216.689 332.261 216.066 332.889 215.99 334.144H214.65C214.688 333.193 214.992 332.452 215.562 331.919C216.142 331.387 216.913 331.12 217.873 331.12ZM225.882 331.12C226.813 331.12 227.574 331.368 228.164 331.862C228.763 332.347 229.062 332.979 229.062 333.759C229.062 334.273 228.91 334.715 228.606 335.085C228.311 335.456 227.902 335.742 227.379 335.941V335.97C227.978 336.15 228.439 336.445 228.763 336.854C229.086 337.253 229.248 337.748 229.248 338.337C229.248 339.174 228.934 339.849 228.306 340.363C227.688 340.876 226.88 341.133 225.882 341.133C224.883 341.133 224.075 340.876 223.457 340.363C222.839 339.849 222.53 339.174 222.53 338.337C222.53 337.748 222.692 337.253 223.015 336.854C223.338 336.445 223.795 336.15 224.384 335.97V335.941C223.861 335.742 223.452 335.456 223.158 335.085C222.863 334.705 222.715 334.263 222.715 333.759C222.715 332.979 223.01 332.347 223.6 331.862C224.199 331.368 224.959 331.12 225.882 331.12ZM227.336 337.025C226.966 336.702 226.481 336.54 225.882 336.54C225.283 336.54 224.793 336.702 224.413 337.025C224.042 337.339 223.856 337.748 223.856 338.252C223.856 338.775 224.042 339.198 224.413 339.521C224.783 339.835 225.273 339.992 225.882 339.992C226.49 339.992 226.98 339.835 227.351 339.521C227.722 339.198 227.907 338.775 227.907 338.252C227.907 337.748 227.717 337.339 227.336 337.025ZM227.237 332.675C226.894 332.39 226.443 332.247 225.882 332.247C225.321 332.247 224.869 332.39 224.527 332.675C224.184 332.96 224.013 333.336 224.013 333.802C224.013 334.296 224.18 334.691 224.512 334.986C224.855 335.28 225.311 335.428 225.882 335.428C226.452 335.428 226.904 335.28 227.237 334.986C227.579 334.691 227.75 334.296 227.75 333.802C227.75 333.336 227.579 332.96 227.237 332.675ZM238.119 331.32V340.933H236.821V333.93H234.667V332.932C235.418 332.932 235.97 332.808 236.322 332.561C236.683 332.314 236.911 331.9 237.006 331.32H238.119ZM244.644 330.778L244.416 332.732L246.185 331.919L246.541 333.003L244.644 333.345L245.942 334.757L245.029 335.442L244.088 333.716L243.147 335.442L242.22 334.757L243.517 333.345L241.621 333.003L241.977 331.919L243.746 332.732L243.517 330.778H244.644ZM250.452 330.778L250.224 332.732L251.993 331.919L252.349 333.003L250.452 333.345L251.75 334.757L250.837 335.442L249.896 333.716L248.955 335.442L248.028 334.757L249.326 333.345L247.429 333.003L247.785 331.919L249.554 332.732L249.326 330.778H250.452ZM256.26 330.778L256.032 332.732L257.801 331.919L258.157 333.003L256.26 333.345L257.558 334.757L256.645 335.442L255.704 333.716L254.763 335.442L253.836 334.757L255.134 333.345L253.237 333.003L253.593 331.919L255.362 332.732L255.134 330.778H256.26Z" fill="black"/>
<rect x="91.102" y="320.247" width="284.359" height="34.7649" rx="6.68556" stroke="#C9D4EA" stroke-width="0.891407"/>
<path d="M94.3253 375.022H91.6172V383.721H94.3253C97.1831 383.721 98.9428 382.086 98.9428 379.39C98.9428 376.695 97.1831 375.022 94.3253 375.022ZM92.7528 382.785V375.946H94.3253C96.5966 375.946 97.7822 377.269 97.7822 379.39C97.7822 381.512 96.5966 382.785 94.3253 382.785H92.7528ZM100.016 380.276C100.016 382.398 101.427 383.833 103.249 383.833C104.509 383.833 105.395 383.184 105.807 382.448V383.721H106.955V376.882H105.807V378.13C105.408 377.418 104.534 376.77 103.261 376.77C101.427 376.77 100.016 378.142 100.016 380.276ZM105.807 380.289C105.807 381.899 104.734 382.835 103.486 382.835C102.238 382.835 101.177 381.886 101.177 380.276C101.177 378.666 102.238 377.755 103.486 377.755C104.734 377.755 105.807 378.704 105.807 380.289ZM109.124 381.849C109.124 383.222 109.81 383.721 111.021 383.721H112.044V382.76H111.208C110.509 382.76 110.26 382.523 110.26 381.849V377.818H112.044V376.882H110.26V375.16H109.124V376.882H108.238V377.818H109.124V381.849ZM116.328 377.73C117.501 377.73 118.499 378.467 118.487 379.802H114.169C114.294 378.467 115.217 377.73 116.328 377.73ZM119.523 381.612H118.3C118.05 382.348 117.401 382.872 116.378 382.872C115.217 382.872 114.244 382.111 114.156 380.726H119.623C119.647 380.488 119.66 380.289 119.66 380.039C119.66 378.167 118.362 376.77 116.378 376.77C114.381 376.77 112.996 378.13 112.996 380.289C112.996 382.46 114.431 383.833 116.378 383.833C118.075 383.833 119.173 382.86 119.523 381.612Z" fill="black"/>
<rect x="91.102" y="391.56" width="132.82" height="32.9821" rx="6.68556" fill="white"/>
<path d="M102.127 407.641C102.127 410.262 102.776 412.246 105.272 412.246C107.755 412.246 108.404 410.262 108.404 407.641C108.404 405.058 107.755 403.086 105.272 403.086C102.776 403.086 102.127 405.058 102.127 407.641ZM107.281 407.641C107.281 409.588 107.044 411.21 105.272 411.21C103.487 411.21 103.25 409.588 103.25 407.641C103.25 405.769 103.487 404.122 105.272 404.122C107.044 404.122 107.281 405.769 107.281 407.641ZM110.288 403.211V408.302H111.361C111.66 407.591 112.322 407.117 113.233 407.117C114.543 407.117 115.205 407.865 115.205 409.151C115.205 410.386 114.593 411.31 113.22 411.31C112.16 411.31 111.423 410.748 111.211 409.8H110.1C110.325 411.26 111.411 412.271 113.208 412.271C115.317 412.271 116.29 410.873 116.29 409.126C116.29 407.728 115.591 406.143 113.395 406.143C112.509 406.143 111.71 406.543 111.336 407.054V404.209H115.716V403.211H110.288ZM117.687 414.367H118.81L122.23 400.49H121.094L117.687 414.367ZM123.735 407.641C123.735 410.262 124.384 412.246 126.88 412.246C129.363 412.246 130.012 410.262 130.012 407.641C130.012 405.058 129.363 403.086 126.88 403.086C124.384 403.086 123.735 405.058 123.735 407.641ZM128.889 407.641C128.889 409.588 128.652 411.21 126.88 411.21C125.095 411.21 124.858 409.588 124.858 407.641C124.858 405.769 125.095 404.122 126.88 404.122C128.652 404.122 128.889 405.769 128.889 407.641ZM131.209 403.248V404.221H136.026L132.507 412.246H133.655L137.125 404.109V403.248H131.209ZM138.271 414.367H139.395L142.814 400.49H141.678L138.271 414.367ZM144.182 412.146H150.184V411.198H145.891C147.501 409.887 149.922 407.978 149.922 405.731C149.922 404.059 148.824 403.061 147.127 403.061C145.504 403.061 144.294 404.059 144.219 405.981H145.317C145.367 404.845 145.966 404.034 147.139 404.034C148.362 404.034 148.799 404.783 148.799 405.781C148.799 407.628 146.553 409.425 144.182 411.335V412.146ZM155.84 412.246H156.963V410.237H158.211V409.251H156.963V403.31H155.603L151.223 409.376V410.237H155.84V412.246ZM152.533 409.251L155.89 404.496V409.251H152.533Z" fill="black"/>
<rect x="91.102" y="391.56" width="132.82" height="32.9821" rx="6.68556" stroke="#C9D4EA" stroke-width="0.891407"/>
<path d="M242.732 379.365C242.732 381.974 244.641 383.796 247.075 383.796C248.959 383.796 250.457 382.86 251.106 381.187H249.746C249.271 382.223 248.348 382.81 247.075 382.81C245.253 382.81 243.893 381.487 243.893 379.365C243.893 377.231 245.253 375.908 247.075 375.908C248.348 375.908 249.271 376.495 249.746 377.543H251.106C250.457 375.858 248.959 374.91 247.075 374.91C244.641 374.91 242.732 376.757 242.732 379.365ZM256.054 382.523L253.32 375.022H252.11L255.392 383.721H256.702L259.985 375.022H258.787L256.054 382.523ZM264.487 382.523L261.754 375.022H260.544L263.826 383.721H265.136L268.418 375.022H267.22L264.487 382.523Z" fill="black"/>
<rect x="242.641" y="391.56" width="132.82" height="32.9821" rx="6.68556" fill="white"/>
<path d="M253.666 407.641C253.666 410.262 254.315 412.246 256.811 412.246C259.294 412.246 259.943 410.262 259.943 407.641C259.943 405.058 259.294 403.086 256.811 403.086C254.315 403.086 253.666 405.058 253.666 407.641ZM258.82 407.641C258.82 409.588 258.583 411.21 256.811 411.21C255.026 411.21 254.789 409.588 254.789 407.641C254.789 405.769 255.026 404.122 256.811 404.122C258.583 404.122 258.82 405.769 258.82 407.641ZM261.502 407.641C261.502 410.262 262.151 412.246 264.647 412.246C267.131 412.246 267.78 410.262 267.78 407.641C267.78 405.058 267.131 403.086 264.647 403.086C262.151 403.086 261.502 405.058 261.502 407.641ZM266.656 407.641C266.656 409.588 266.419 411.21 264.647 411.21C262.862 411.21 262.625 409.588 262.625 407.641C262.625 405.769 262.862 404.122 264.647 404.122C266.419 404.122 266.656 405.769 266.656 407.641ZM269.339 407.641C269.339 410.262 269.988 412.246 272.483 412.246C274.967 412.246 275.616 410.262 275.616 407.641C275.616 405.058 274.967 403.086 272.483 403.086C269.988 403.086 269.339 405.058 269.339 407.641ZM274.493 407.641C274.493 409.588 274.256 411.21 272.483 411.21C270.699 411.21 270.462 409.588 270.462 407.641C270.462 405.769 270.699 404.122 272.483 404.122C274.256 404.122 274.493 405.769 274.493 407.641Z" fill="black"/>
<rect x="242.641" y="391.56" width="132.82" height="32.9821" rx="6.68556" stroke="#C9D4EA" stroke-width="0.891407"/>
<path d="M90.6562 446.382C90.6562 442.443 93.849 439.25 97.7875 439.25H368.775C372.714 439.25 375.907 442.443 375.907 446.382V476.69C375.907 480.628 372.714 483.821 368.775 483.821H97.7875C93.849 483.821 90.6562 480.628 90.6562 476.69V446.382Z" fill="#53C48A"/>
<path d="M192.196 458.706C192.196 459.272 192.062 459.807 191.795 460.31C191.527 460.813 191.099 461.225 190.511 461.546C189.923 461.856 189.169 462.011 188.249 462.011H186.227V466.536H184.398V455.384H188.249C189.104 455.384 189.826 455.534 190.415 455.833C191.014 456.122 191.458 456.518 191.747 457.021C192.046 457.524 192.196 458.085 192.196 458.706ZM188.249 460.519C188.944 460.519 189.463 460.364 189.805 460.053C190.147 459.732 190.319 459.283 190.319 458.706C190.319 457.486 189.629 456.876 188.249 456.876H186.227V460.519H188.249ZM193.331 462.075C193.331 461.187 193.513 460.401 193.876 459.716C194.251 459.032 194.753 458.502 195.384 458.128C196.026 457.743 196.732 457.55 197.502 457.55C198.198 457.55 198.802 457.689 199.316 457.967C199.84 458.235 200.257 458.572 200.567 458.978V457.695H202.412V466.536H200.567V465.22C200.257 465.637 199.834 465.985 199.3 466.263C198.765 466.541 198.155 466.68 197.47 466.68C196.711 466.68 196.016 466.488 195.384 466.102C194.753 465.707 194.251 465.161 193.876 464.466C193.513 463.76 193.331 462.963 193.331 462.075ZM200.567 462.107C200.567 461.497 200.439 460.968 200.182 460.519C199.936 460.069 199.61 459.727 199.203 459.492C198.797 459.256 198.358 459.139 197.888 459.139C197.417 459.139 196.978 459.256 196.572 459.492C196.165 459.716 195.834 460.053 195.577 460.503C195.331 460.941 195.208 461.465 195.208 462.075C195.208 462.685 195.331 463.22 195.577 463.68C195.834 464.14 196.165 464.493 196.572 464.739C196.989 464.974 197.428 465.092 197.888 465.092C198.358 465.092 198.797 464.974 199.203 464.739C199.61 464.503 199.936 464.161 200.182 463.712C200.439 463.252 200.567 462.717 200.567 462.107ZM212.773 457.695L207.35 470.691H205.457L207.254 466.391L203.772 457.695H205.81L208.297 464.434L210.88 457.695H212.773ZM219.092 464.049C220.119 463.161 220.926 462.433 221.515 461.866C222.114 461.289 222.611 460.69 223.007 460.069C223.403 459.449 223.601 458.829 223.601 458.208C223.601 457.566 223.446 457.064 223.135 456.7C222.836 456.336 222.36 456.154 221.707 456.154C221.076 456.154 220.584 456.358 220.231 456.764C219.889 457.16 219.707 457.695 219.686 458.369H217.921C217.953 457.149 218.316 456.218 219.012 455.577C219.718 454.924 220.611 454.598 221.691 454.598C222.857 454.598 223.767 454.919 224.419 455.561C225.082 456.202 225.414 457.058 225.414 458.128C225.414 458.898 225.216 459.641 224.82 460.358C224.435 461.064 223.97 461.701 223.424 462.268C222.889 462.824 222.205 463.471 221.37 464.209L220.648 464.851H225.735V466.375H217.937V465.043L219.092 464.049ZM227.117 464.097V462.717L232.508 454.983H234.723V462.508H236.215V464.097H234.723V466.536H232.925V464.097H227.117ZM233.006 456.844L229.219 462.508H233.006V456.844ZM244.02 457.55C243.902 457.058 243.689 456.689 243.378 456.443C243.068 456.197 242.635 456.074 242.079 456.074C241.234 456.074 240.602 456.4 240.185 457.053C239.768 457.695 239.549 458.764 239.527 460.262C239.806 459.791 240.212 459.428 240.747 459.171C241.282 458.914 241.859 458.786 242.48 458.786C243.186 458.786 243.806 458.941 244.341 459.251C244.887 459.551 245.309 459.989 245.609 460.567C245.919 461.144 246.074 461.834 246.074 462.637C246.074 463.385 245.924 464.054 245.625 464.642C245.336 465.231 244.903 465.696 244.325 466.038C243.747 466.37 243.052 466.536 242.239 466.536C241.137 466.536 240.271 466.295 239.64 465.814C239.019 465.322 238.581 464.632 238.324 463.744C238.078 462.856 237.955 461.749 237.955 460.422C237.955 456.507 239.335 454.55 242.095 454.55C243.164 454.55 244.004 454.839 244.614 455.416C245.234 455.994 245.598 456.705 245.705 457.55H244.02ZM242.079 460.326C241.426 460.326 240.87 460.524 240.41 460.92C239.961 461.305 239.736 461.866 239.736 462.605C239.736 463.343 239.945 463.931 240.362 464.37C240.79 464.797 241.383 465.011 242.143 465.011C242.817 465.011 243.346 464.803 243.731 464.386C244.127 463.968 244.325 463.412 244.325 462.717C244.325 461.989 244.132 461.412 243.747 460.984C243.373 460.545 242.817 460.326 242.079 460.326ZM254.247 455.384V462.492C254.247 463.337 254.466 463.974 254.905 464.402C255.354 464.829 255.974 465.043 256.766 465.043C257.568 465.043 258.189 464.829 258.627 464.402C259.077 463.974 259.301 463.337 259.301 462.492V455.384H261.13V462.46C261.13 463.369 260.932 464.14 260.537 464.771C260.141 465.402 259.611 465.872 258.948 466.183C258.285 466.493 257.552 466.648 256.75 466.648C255.948 466.648 255.215 466.493 254.552 466.183C253.899 465.872 253.38 465.402 252.995 464.771C252.61 464.14 252.418 463.369 252.418 462.46V455.384H254.247ZM267.186 466.648C266.438 466.648 265.764 466.52 265.165 466.263C264.566 465.995 264.095 465.621 263.753 465.14C263.41 464.658 263.239 464.097 263.239 463.455H265.197C265.24 463.936 265.427 464.332 265.758 464.642C266.101 464.953 266.577 465.108 267.186 465.108C267.817 465.108 268.31 464.958 268.663 464.658C269.016 464.348 269.192 463.952 269.192 463.471C269.192 463.097 269.08 462.792 268.855 462.556C268.641 462.321 268.368 462.139 268.037 462.011C267.716 461.882 267.267 461.743 266.689 461.594C265.962 461.401 265.368 461.209 264.908 461.016C264.459 460.813 264.074 460.503 263.753 460.085C263.432 459.668 263.271 459.112 263.271 458.417C263.271 457.775 263.432 457.213 263.753 456.732C264.074 456.251 264.523 455.882 265.1 455.625C265.678 455.368 266.347 455.24 267.106 455.24C268.187 455.24 269.069 455.512 269.754 456.058C270.449 456.593 270.834 457.331 270.909 458.272H268.887C268.855 457.866 268.663 457.518 268.31 457.229C267.957 456.941 267.491 456.796 266.914 456.796C266.389 456.796 265.962 456.93 265.63 457.197C265.298 457.465 265.133 457.85 265.133 458.353C265.133 458.695 265.234 458.978 265.437 459.203C265.651 459.417 265.919 459.588 266.24 459.716C266.561 459.845 266.999 459.984 267.555 460.134C268.293 460.337 268.893 460.54 269.352 460.743C269.823 460.947 270.219 461.262 270.54 461.69C270.871 462.107 271.037 462.669 271.037 463.375C271.037 463.942 270.882 464.476 270.572 464.979C270.272 465.482 269.828 465.888 269.24 466.199C268.663 466.498 267.978 466.648 267.186 466.648ZM276.838 455.384C278.025 455.384 279.063 455.614 279.951 456.074C280.849 456.523 281.539 457.176 282.021 458.032C282.513 458.877 282.759 459.866 282.759 461C282.759 462.134 282.513 463.118 282.021 463.952C281.539 464.787 280.849 465.429 279.951 465.878C279.063 466.316 278.025 466.536 276.838 466.536H273.196V455.384H276.838ZM276.838 465.043C278.143 465.043 279.143 464.69 279.838 463.984C280.534 463.278 280.881 462.284 280.881 461C280.881 459.706 280.534 458.695 279.838 457.967C279.143 457.24 278.143 456.876 276.838 456.876H275.025V465.043H276.838Z" fill="white"/>
</g>
<path d="M367.441 285.645L367.441 285.645L367.445 285.643L370.768 284.578L371.511 284.34L370.885 283.873L361.24 276.679L360.598 276.2V277.001V289.763V290.641L361.263 290.067L364.133 287.586C364.182 287.546 364.222 287.536 364.254 287.536L364.276 287.536C364.277 287.536 364.277 287.536 364.278 287.536L364.279 287.537L364.288 287.538C364.34 287.549 364.395 287.584 364.438 287.663L364.438 287.663L364.439 287.665L367.517 293.27L367.728 293.654L368.092 293.41L370.122 292.05L370.428 291.845L370.251 291.523L367.305 286.162C367.256 286.067 367.243 285.943 367.28 285.831C367.322 285.716 367.398 285.658 367.441 285.645Z" fill="white" stroke="#333333" stroke-width="0.803755"/>
<defs>
<filter id="filter0_d" x="110" y="-11.999" width="995" height="621.403" filterUnits="userSpaceOnUse" color-interpolation-filters="sRGB">
<feFlood flood-opacity="0" result="BackgroundImageFix"/>
<feColorMatrix in="SourceAlpha" type="matrix" values="0 0 0 0 0 0 0 0 0 0 0 0 0 0 0 0 0 0 127 0" result="hardAlpha"/>
<feOffset dy="20"/>
<feGaussianBlur stdDeviation="16"/>
<feColorMatrix type="matrix" values="0 0 0 0 0.376471 0 0 0 0 0.380392 0 0 0 0 0.439216 0 0 0 0.15 0"/>
<feBlend mode="normal" in2="BackgroundImageFix" result="effect1_dropShadow"/>
<feBlend mode="normal" in="SourceGraphic" in2="effect1_dropShadow" result="shape"/>
</filter>
<filter id="filter1_di" x="142" y="0.000976562" width="931" height="38.9129" filterUnits="userSpaceOnUse" color-interpolation-filters="sRGB">
<feFlood flood-opacity="0" result="BackgroundImageFix"/>
<feColorMatrix in="SourceAlpha" type="matrix" values="0 0 0 0 0 0 0 0 0 0 0 0 0 0 0 0 0 0 127 0" result="hardAlpha"/>
<feOffset dy="0.363672"/>
<feColorMatrix type="matrix" values="0 0 0 0 0 0 0 0 0 0 0 0 0 0 0 0 0 0 0.15 0"/>
<feBlend mode="normal" in2="BackgroundImageFix" result="effect1_dropShadow"/>
<feBlend mode="normal" in="SourceGraphic" in2="effect1_dropShadow" result="shape"/>
<feColorMatrix in="SourceAlpha" type="matrix" values="0 0 0 0 0 0 0 0 0 0 0 0 0 0 0 0 0 0 127 0" result="hardAlpha"/>
<feOffset dy="-0.363672"/>
<feComposite in2="hardAlpha" operator="arithmetic" k2="-1" k3="1"/>
<feColorMatrix type="matrix" values="0 0 0 0 0 0 0 0 0 0 0 0 0 0 0 0 0 0 0.05 0"/>
<feBlend mode="normal" in2="shape" result="effect2_innerShadow"/>
</filter>
<filter id="filter2_i" x="157.274" y="14.5479" width="8.72813" height="8.72813" filterUnits="userSpaceOnUse" color-interpolation-filters="sRGB">
<feFlood flood-opacity="0" result="BackgroundImageFix"/>
<feBlend mode="normal" in="SourceGraphic" in2="BackgroundImageFix" result="shape"/>
<feColorMatrix in="SourceAlpha" type="matrix" values="0 0 0 0 0 0 0 0 0 0 0 0 0 0 0 0 0 0 127 0" result="hardAlpha"/>
<feOffset/>
<feGaussianBlur stdDeviation="2.18203"/>
<feComposite in2="hardAlpha" operator="arithmetic" k2="-1" k3="1"/>
<feColorMatrix type="matrix" values="0 0 0 0 0.92549 0 0 0 0 0.427451 0 0 0 0 0.384314 0 0 0 1 0"/>
<feBlend mode="normal" in2="shape" result="effect1_innerShadow"/>
</filter>
<filter id="filter3_i" x="171.821" y="14.5479" width="8.72813" height="8.72813" filterUnits="userSpaceOnUse" color-interpolation-filters="sRGB">
<feFlood flood-opacity="0" result="BackgroundImageFix"/>
<feBlend mode="normal" in="SourceGraphic" in2="BackgroundImageFix" result="shape"/>
<feColorMatrix in="SourceAlpha" type="matrix" values="0 0 0 0 0 0 0 0 0 0 0 0 0 0 0 0 0 0 127 0" result="hardAlpha"/>
<feOffset/>
<feGaussianBlur stdDeviation="2.18203"/>
<feComposite in2="hardAlpha" operator="arithmetic" k2="-1" k3="1"/>
<feColorMatrix type="matrix" values="0 0 0 0 0.960784 0 0 0 0 0.768627 0 0 0 0 0.317647 0 0 0 1 0"/>
<feBlend mode="normal" in2="shape" result="effect1_innerShadow"/>
</filter>
<filter id="filter4_i" x="186.368" y="14.5479" width="8.72813" height="8.72813" filterUnits="userSpaceOnUse" color-interpolation-filters="sRGB">
<feFlood flood-opacity="0" result="BackgroundImageFix"/>
<feBlend mode="normal" in="SourceGraphic" in2="BackgroundImageFix" result="shape"/>
<feColorMatrix in="SourceAlpha" type="matrix" values="0 0 0 0 0 0 0 0 0 0 0 0 0 0 0 0 0 0 127 0" result="hardAlpha"/>
<feOffset/>
<feGaussianBlur stdDeviation="2.18203"/>
<feComposite in2="hardAlpha" operator="arithmetic" k2="-1" k3="1"/>
<feColorMatrix type="matrix" values="0 0 0 0 0.407843 0 0 0 0 0.8 0 0 0 0 0.345098 0 0 0 1 0"/>
<feBlend mode="normal" in2="shape" result="effect1_innerShadow"/>
</filter>
<filter id="filter5_d" x="0" y="144" width="426.563" height="437.26" filterUnits="userSpaceOnUse" color-interpolation-filters="sRGB">
<feFlood flood-opacity="0" result="BackgroundImageFix"/>
<feColorMatrix in="SourceAlpha" type="matrix" values="0 0 0 0 0 0 0 0 0 0 0 0 0 0 0 0 0 0 127 0" result="hardAlpha"/>
<feOffset dx="-20" dy="25"/>
<feGaussianBlur stdDeviation="17.5"/>
<feColorMatrix type="matrix" values="0 0 0 0 0.376471 0 0 0 0 0.380392 0 0 0 0 0.439216 0 0 0 0.15 0"/>
<feBlend mode="normal" in2="BackgroundImageFix" result="effect1_dropShadow"/>
<feBlend mode="normal" in="SourceGraphic" in2="effect1_dropShadow" result="shape"/>
</filter>
<filter id="filter6_d" x="87.0906" y="246.706" width="292.382" height="41.0047" filterUnits="userSpaceOnUse" color-interpolation-filters="sRGB">
<feFlood flood-opacity="0" result="BackgroundImageFix"/>
<feColorMatrix in="SourceAlpha" type="matrix" values="0 0 0 0 0 0 0 0 0 0 0 0 0 0 0 0 0 0 127 0" result="hardAlpha"/>
<feOffset/>
<feGaussianBlur stdDeviation="1.78281"/>
<feColorMatrix type="matrix" values="0 0 0 0 0.32549 0 0 0 0 0.768627 0 0 0 0 0.541176 0 0 0 1 0"/>
<feBlend mode="normal" in2="BackgroundImageFix" result="effect1_dropShadow"/>
<feBlend mode="normal" in="SourceGraphic" in2="effect1_dropShadow" result="shape"/>
</filter>
<clipPath id="clip0">
<rect x="142" y="0.000976562" width="931" height="557.403" rx="17.5" fill="white"/>
</clipPath>
<clipPath id="clip1">
<rect width="931" height="662.044" fill="white" transform="translate(142 -104.999)"/>
</clipPath>
<clipPath id="clip2">
<rect width="48.0047" height="20.3656" fill="white" transform="translate(239.464 8.729)"/>
</clipPath>
</defs>
</svg>
