<svg width="807" height="567" viewBox="0 0 807 567" fill="none" xmlns="http://www.w3.org/2000/svg">
<path d="M465.558 7.09612H774.442C781.128 7.09612 786.547 12.5157 786.547 19.201V338.103C786.547 344.788 781.128 350.208 774.442 350.208H465.558C458.873 350.208 453.454 344.788 453.454 338.103V19.201C453.454 12.5157 458.873 7.09612 465.558 7.09612Z" fill="white" stroke="#B0BBD5" stroke-width="0.834821"/>
<path d="M489.93 51.7728V49.1281H491.327C492.349 49.1281 492.785 49.639 492.785 50.4505C492.785 51.2619 492.349 51.7728 491.327 51.7728H489.93ZM495.4 50.4505C495.4 48.512 494.107 47.0544 491.523 47.0544H487.36V57.6032H489.93V53.8165H491.523C494.213 53.8165 495.4 52.1936 495.4 50.4505ZM496.226 53.3957C496.226 56.0404 497.864 57.7234 499.908 57.7234C501.155 57.7234 502.042 57.1524 502.508 56.4161V57.6032H505.077V49.2183H502.508V50.4054C502.057 49.6691 501.17 49.0981 499.923 49.0981C497.864 49.0981 496.226 50.751 496.226 53.3957ZM502.508 53.4108C502.508 54.7481 501.651 55.4844 500.674 55.4844C499.713 55.4844 498.841 54.7331 498.841 53.3957C498.841 52.0583 499.713 51.3371 500.674 51.3371C501.651 51.3371 502.508 52.0734 502.508 53.4108ZM510.798 54.4626L508.86 49.2183H505.99L509.401 57.3177L507.477 61.5853H510.242L515.502 49.2183H512.722L510.798 54.4626ZM527.986 57.6032H530.541V52.7045C530.541 50.4505 529.203 49.1281 527.13 49.1281C525.912 49.1281 524.861 49.8043 524.305 50.6909C523.734 49.6841 522.712 49.1281 521.449 49.1281C520.352 49.1281 519.496 49.5939 519 50.2702V49.2183H516.431V57.6032H519V53.0501C519 51.9532 519.631 51.3521 520.608 51.3521C521.585 51.3521 522.216 51.9532 522.216 53.0501V57.6032H524.77V53.0501C524.77 51.9532 525.401 51.3521 526.378 51.3521C527.355 51.3521 527.986 51.9532 527.986 53.0501V57.6032ZM536.035 51.1567C536.891 51.1567 537.612 51.6827 537.612 52.5993H534.397C534.547 51.6676 535.193 51.1567 536.035 51.1567ZM540.047 54.8233H537.312C537.102 55.2741 536.696 55.6347 535.975 55.6347C535.148 55.6347 534.472 55.1238 534.382 54.0269H540.197C540.227 53.7714 540.242 53.5159 540.242 53.2755C540.242 50.721 538.514 49.0981 536.065 49.0981C533.57 49.0981 531.827 50.751 531.827 53.4108C531.827 56.0705 533.6 57.7234 536.065 57.7234C538.153 57.7234 539.641 56.4612 540.047 54.8233ZM547.383 57.6032H549.938V52.7045C549.938 50.4505 548.645 49.1281 546.707 49.1281C545.58 49.1281 544.678 49.624 544.167 50.3303V49.2183H541.598V57.6032H544.167V53.0501C544.167 51.9081 544.799 51.277 545.775 51.277C546.752 51.277 547.383 51.9081 547.383 53.0501V57.6032ZM552.129 54.688C552.129 56.8669 553.346 57.6032 555.089 57.6032H556.397V55.4243H555.48C554.909 55.4243 554.699 55.214 554.699 54.7181V51.3521H556.382V49.2183H554.699V47.1746H552.129V49.2183H551.107V51.3521H552.129V54.688ZM560.502 53.3957C560.502 56.0404 562.139 57.7234 564.198 57.7234C565.43 57.7234 566.317 57.1674 566.783 56.4011V57.6032H569.352V46.4834H566.783V50.3753C566.272 49.609 565.31 49.0981 564.198 49.0981C562.139 49.0981 560.502 50.751 560.502 53.3957ZM566.783 53.4108C566.783 54.7481 565.926 55.4844 564.95 55.4844C563.988 55.4844 563.116 54.7331 563.116 53.3957C563.116 52.0583 563.988 51.3371 564.95 51.3371C565.926 51.3371 566.783 52.0734 566.783 53.4108ZM574.907 51.1567C575.764 51.1567 576.485 51.6827 576.485 52.5993H573.269C573.42 51.6676 574.066 51.1567 574.907 51.1567ZM578.919 54.8233H576.185C575.974 55.2741 575.568 55.6347 574.847 55.6347C574.021 55.6347 573.344 55.1238 573.254 54.0269H579.07C579.1 53.7714 579.115 53.5159 579.115 53.2755C579.115 50.721 577.387 49.0981 574.937 49.0981C572.443 49.0981 570.7 50.751 570.7 53.4108C570.7 56.0705 572.473 57.7234 574.937 57.7234C577.026 57.7234 578.514 56.4612 578.919 54.8233ZM580.47 57.6032H583.04V46.4834H580.47V57.6032ZM584.392 53.3957C584.392 56.0404 586.03 57.7234 588.073 57.7234C589.32 57.7234 590.207 57.1524 590.673 56.4161V57.6032H593.242V49.2183H590.673V50.4054C590.222 49.6691 589.335 49.0981 588.088 49.0981C586.03 49.0981 584.392 50.751 584.392 53.3957ZM590.673 53.4108C590.673 54.7481 589.816 55.4844 588.84 55.4844C587.878 55.4844 587.006 54.7331 587.006 53.3957C587.006 52.0583 587.878 51.3371 588.84 51.3371C589.816 51.3371 590.673 52.0734 590.673 53.4108ZM595.102 57.6032H597.671V49.2183H595.102V57.6032ZM596.394 48.3467C597.295 48.3467 597.912 47.7306 597.912 46.9643C597.912 46.1829 597.295 45.5668 596.394 45.5668C595.477 45.5668 594.861 46.1829 594.861 46.9643C594.861 47.7306 595.477 48.3467 596.394 48.3467ZM599.533 57.6032H602.102V46.4834H599.533V57.6032ZM610.772 55.1689C610.727 52.0433 606.189 52.99 606.189 51.6526C606.189 51.2469 606.519 51.0065 607.121 51.0065C607.842 51.0065 608.278 51.3821 608.353 51.9532H610.727C610.562 50.3002 609.359 49.0981 607.196 49.0981C605.002 49.0981 603.785 50.2702 603.785 51.6977C603.785 54.7782 608.353 53.8015 608.353 55.1539C608.353 55.5295 608.007 55.8301 607.346 55.8301C606.64 55.8301 606.114 55.4394 606.054 54.8533H603.514C603.634 56.4762 605.137 57.7234 607.376 57.7234C609.48 57.7234 610.772 56.6265 610.772 55.1689Z" fill="black"/>
<path d="M736.875 59.2723L750.232 45.9152" stroke="#292D32" stroke-width="1.25223" stroke-linecap="round" stroke-linejoin="round"/>
<path d="M750.232 59.2723L736.875 45.9152" stroke="#292D32" stroke-width="1.25223" stroke-linecap="round" stroke-linejoin="round"/>
<path d="M486.931 86.0823C486.931 88.525 488.719 90.2313 490.998 90.2313C492.763 90.2313 494.165 89.3548 494.773 87.7886H493.499C493.055 88.7587 492.19 89.308 490.998 89.308C489.292 89.308 488.018 88.0691 488.018 86.0823C488.018 84.0837 489.292 82.8448 490.998 82.8448C492.19 82.8448 493.055 83.3941 493.499 84.3759H494.773C494.165 82.7981 492.763 81.9098 490.998 81.9098C488.719 81.9098 486.931 83.6396 486.931 86.0823ZM495.959 86.9355C495.959 88.9223 497.28 90.2664 498.986 90.2664C500.167 90.2664 500.996 89.6586 501.382 88.9691V90.1612H502.457V83.7565H501.382V84.9252C501.008 84.259 500.19 83.6513 498.998 83.6513C497.28 83.6513 495.959 84.9369 495.959 86.9355ZM501.382 86.9471C501.382 88.4548 500.377 89.3314 499.208 89.3314C498.039 89.3314 497.046 88.4431 497.046 86.9355C497.046 85.4278 498.039 84.5746 499.208 84.5746C500.377 84.5746 501.382 85.4628 501.382 86.9471ZM505.318 86.6783C505.318 85.194 506.09 84.7382 507.106 84.7382H507.387V83.6396C506.37 83.6396 505.681 84.0837 505.318 84.7966V83.7565H504.255V90.1612H505.318V86.6783ZM508.217 86.9355C508.217 88.9223 509.538 90.2664 511.256 90.2664C512.425 90.2664 513.255 89.6703 513.64 88.9574V90.1612H514.715V81.5125H513.64V84.9018C513.196 84.1655 512.273 83.6513 511.268 83.6513C509.538 83.6513 508.217 84.9369 508.217 86.9355ZM513.64 86.9471C513.64 88.4548 512.635 89.3314 511.466 89.3314C510.298 89.3314 509.304 88.4431 509.304 86.9355C509.304 85.4278 510.298 84.5746 511.466 84.5746C512.635 84.5746 513.64 85.4628 513.64 86.9471ZM516.513 90.1612H517.576V86.6199C517.576 85.2408 518.324 84.5629 519.411 84.5629C520.487 84.5629 521.199 85.2291 521.199 86.5381V90.1612H522.251V86.3861C522.251 84.5512 521.118 83.6396 519.692 83.6396C518.792 83.6396 517.997 84.0019 517.576 84.6798V81.5125H516.513V90.1612ZM530.066 86.9471C530.066 84.9252 528.652 83.6513 526.829 83.6513C525.017 83.6513 523.591 84.9252 523.591 86.9471C523.591 88.9808 524.97 90.2664 526.782 90.2664C528.605 90.2664 530.066 88.9808 530.066 86.9471ZM524.678 86.9471C524.678 85.3343 525.695 84.5746 526.817 84.5746C527.916 84.5746 528.979 85.3343 528.979 86.9471C528.979 88.5717 527.892 89.3314 526.782 89.3314C525.672 89.3314 524.678 88.5717 524.678 86.9471ZM531.464 90.1612H532.528V81.5125H531.464V90.1612ZM533.943 86.9355C533.943 88.9223 535.264 90.2664 536.982 90.2664C538.151 90.2664 538.98 89.6703 539.366 88.9574V90.1612H540.441V81.5125H539.366V84.9018C538.922 84.1655 537.999 83.6513 536.993 83.6513C535.264 83.6513 533.943 84.9369 533.943 86.9355ZM539.366 86.9471C539.366 88.4548 538.361 89.3314 537.192 89.3314C536.023 89.3314 535.03 88.4431 535.03 86.9355C535.03 85.4278 536.023 84.5746 537.192 84.5746C538.361 84.5746 539.366 85.4628 539.366 86.9471ZM544.962 84.5512C546.06 84.5512 546.995 85.2408 546.984 86.4913H542.94C543.057 85.2408 543.922 84.5512 544.962 84.5512ZM547.954 88.186H546.808C546.575 88.8756 545.967 89.3664 545.009 89.3664C543.922 89.3664 543.01 88.6535 542.928 87.3562H548.047C548.071 87.1341 548.082 86.9471 548.082 86.7134C548.082 84.9603 546.867 83.6513 545.009 83.6513C543.139 83.6513 541.841 84.9252 541.841 86.9471C541.841 88.9808 543.185 90.2664 545.009 90.2664C546.598 90.2664 547.627 89.3548 547.954 88.186ZM550.55 86.6783C550.55 85.194 551.322 84.7382 552.338 84.7382H552.619V83.6396C551.602 83.6396 550.912 84.0837 550.55 84.7966V83.7565H549.487V90.1612H550.55V86.6783ZM561.649 90.1612H562.701V86.3861C562.701 84.5512 561.567 83.6396 560.083 83.6396C559.218 83.6396 558.447 84.0019 558.026 84.6681V83.7565H556.962V90.1612H558.026V86.6199C558.026 85.2408 558.774 84.5629 559.861 84.5629C560.936 84.5629 561.649 85.2291 561.649 86.5381V90.1612ZM564.041 86.9355C564.041 88.9223 565.362 90.2664 567.068 90.2664C568.248 90.2664 569.078 89.6586 569.464 88.9691V90.1612H570.539V83.7565H569.464V84.9252C569.09 84.259 568.272 83.6513 567.08 83.6513C565.362 83.6513 564.041 84.9369 564.041 86.9355ZM569.464 86.9471C569.464 88.4548 568.459 89.3314 567.29 89.3314C566.121 89.3314 565.128 88.4431 565.128 86.9355C565.128 85.4278 566.121 84.5746 567.29 84.5746C568.459 84.5746 569.464 85.4628 569.464 86.9471ZM581.581 90.1612H582.633V86.3861C582.633 84.5512 581.499 83.6396 580.039 83.6396C579.057 83.6396 578.145 84.1421 577.771 85.0655C577.35 84.1071 576.474 83.6396 575.422 83.6396C574.58 83.6396 573.821 84.0019 573.4 84.6798V83.7565H572.336V90.1612H573.4V86.6316C573.4 85.2525 574.136 84.5629 575.212 84.5629C576.263 84.5629 576.965 85.2291 576.965 86.5381V90.1612H578.017V86.6316C578.017 85.2525 578.753 84.5629 579.828 84.5629C580.88 84.5629 581.581 85.2291 581.581 86.5381V90.1612ZM587.101 84.5512C588.2 84.5512 589.135 85.2408 589.123 86.4913H585.079C585.196 85.2408 586.061 84.5512 587.101 84.5512ZM590.093 88.186H588.948C588.714 88.8756 588.106 89.3664 587.148 89.3664C586.061 89.3664 585.149 88.6535 585.068 87.3562H590.187C590.21 87.1341 590.222 86.9471 590.222 86.7134C590.222 84.9603 589.006 83.6513 587.148 83.6513C585.278 83.6513 583.981 84.9252 583.981 86.9471C583.981 88.9808 585.325 90.2664 587.148 90.2664C588.737 90.2664 589.766 89.3548 590.093 88.186Z" fill="black"/>
<g filter="url(#filter0_d)">
<path d="M486.429 103.518C486.429 99.8297 489.42 96.8394 493.108 96.8394H746.894C750.582 96.8394 753.572 99.8297 753.572 103.518V121.884C753.572 125.572 750.582 128.563 746.894 128.563H493.108C489.42 128.563 486.429 125.572 486.429 121.884V103.518Z" fill="white"/>
<path d="M500.374 114.748C500.374 115.426 500.035 116.01 499.193 116.01C498.352 116.01 498.001 115.414 497.99 114.666H496.926C496.926 116.092 497.838 116.957 499.193 116.957C500.537 116.957 501.449 116.103 501.449 114.748V108.729H500.374V114.748ZM509.622 113.661C509.622 111.639 508.208 110.365 506.384 110.365C504.573 110.365 503.147 111.639 503.147 113.661C503.147 115.694 504.526 116.98 506.338 116.98C508.161 116.98 509.622 115.694 509.622 113.661ZM504.234 113.661C504.234 112.048 505.251 111.288 506.373 111.288C507.471 111.288 508.535 112.048 508.535 113.661C508.535 115.285 507.448 116.045 506.338 116.045C505.227 116.045 504.234 115.285 504.234 113.661ZM511.02 116.875H512.084V113.334C512.084 111.954 512.832 111.277 513.919 111.277C514.994 111.277 515.707 111.943 515.707 113.252V116.875H516.759V113.1C516.759 111.265 515.625 110.353 514.199 110.353C513.299 110.353 512.505 110.716 512.084 111.393V108.226H511.02V116.875ZM523.183 116.875H524.235V113.1C524.235 111.265 523.101 110.353 521.617 110.353C520.752 110.353 519.98 110.716 519.56 111.382V110.47H518.496V116.875H519.56V113.334C519.56 111.954 520.308 111.277 521.395 111.277C522.47 111.277 523.183 111.943 523.183 113.252V116.875ZM532.115 114.748C532.115 115.426 531.776 116.01 530.934 116.01C530.093 116.01 529.742 115.414 529.73 114.666H528.667C528.667 116.092 529.578 116.957 530.934 116.957C532.278 116.957 533.19 116.103 533.19 114.748V108.729H532.115V114.748ZM541.363 113.661C541.363 111.639 539.949 110.365 538.125 110.365C536.314 110.365 534.888 111.639 534.888 113.661C534.888 115.694 536.267 116.98 538.079 116.98C539.902 116.98 541.363 115.694 541.363 113.661ZM535.975 113.661C535.975 112.048 536.992 111.288 538.114 111.288C539.212 111.288 540.276 112.048 540.276 113.661C540.276 115.285 539.189 116.045 538.079 116.045C536.968 116.045 535.975 115.285 535.975 113.661ZM542.761 116.875H543.825V113.334C543.825 111.954 544.573 111.277 545.66 111.277C546.735 111.277 547.448 111.943 547.448 113.252V116.875H548.5V113.1C548.5 111.265 547.366 110.353 545.94 110.353C545.04 110.353 544.245 110.716 543.825 111.393V108.226H542.761V116.875ZM554.924 116.875H555.975V113.1C555.975 111.265 554.842 110.353 553.357 110.353C552.493 110.353 551.721 110.716 551.3 111.382V110.47H550.237V116.875H551.3V113.334C551.3 111.954 552.048 111.277 553.135 111.277C554.211 111.277 554.924 111.943 554.924 113.252V116.875ZM562.318 115.133C562.272 112.843 558.555 113.672 558.555 112.153C558.555 111.639 559.023 111.265 559.806 111.265C560.659 111.265 561.15 111.732 561.196 112.375H562.26C562.19 111.125 561.255 110.365 559.841 110.365C558.415 110.365 557.491 111.171 557.491 112.153C557.491 114.537 561.278 113.708 561.278 115.133C561.278 115.659 560.811 116.08 559.969 116.08C559.069 116.08 558.52 115.613 558.462 114.993H557.363C557.433 116.162 558.485 116.98 559.981 116.98C561.395 116.98 562.318 116.185 562.318 115.133ZM569.897 113.661C569.897 111.639 568.483 110.365 566.659 110.365C564.848 110.365 563.422 111.639 563.422 113.661C563.422 115.694 564.801 116.98 566.613 116.98C568.436 116.98 569.897 115.694 569.897 113.661ZM564.509 113.661C564.509 112.048 565.526 111.288 566.648 111.288C567.746 111.288 568.81 112.048 568.81 113.661C568.81 115.285 567.723 116.045 566.613 116.045C565.502 116.045 564.509 115.285 564.509 113.661ZM575.982 116.875H577.034V113.1C577.034 111.265 575.9 110.353 574.416 110.353C573.551 110.353 572.78 110.716 572.359 111.382V110.47H571.295V116.875H572.359V113.334C572.359 111.954 573.107 111.277 574.194 111.277C575.269 111.277 575.982 111.943 575.982 113.252V116.875ZM579.04 107.583V118.114H580.103V107.583H579.04Z" fill="black"/>
<path d="M493.107 97.6744H746.893V96.0048H493.107V97.6744ZM752.737 103.518V121.884H754.406V103.518H752.737ZM746.893 127.728H493.107V129.398H746.893V127.728ZM487.263 121.884V103.518H485.594V121.884H487.263ZM493.107 127.728C489.88 127.728 487.263 125.112 487.263 121.884H485.594C485.594 126.034 488.958 129.398 493.107 129.398V127.728ZM752.737 121.884C752.737 125.112 750.12 127.728 746.893 127.728V129.398C751.043 129.398 754.406 126.034 754.406 121.884H752.737ZM746.893 97.6744C750.12 97.6744 752.737 100.291 752.737 103.518H754.406C754.406 99.3683 751.043 96.0048 746.893 96.0048V97.6744ZM493.107 96.0048C488.958 96.0048 485.594 99.3683 485.594 103.518H487.263C487.263 100.291 489.88 97.6744 493.107 97.6744V96.0048Z" fill="#7ED3A7"/>
</g>
<path d="M486.931 151.198C486.931 153.641 488.719 155.347 490.998 155.347C492.763 155.347 494.165 154.471 494.773 152.905H493.499C493.055 153.875 492.19 154.424 490.998 154.424C489.292 154.424 488.018 153.185 488.018 151.198C488.018 149.2 489.292 147.961 490.998 147.961C492.19 147.961 493.055 148.51 493.499 149.492H494.773C494.165 147.914 492.763 147.026 490.998 147.026C488.719 147.026 486.931 148.756 486.931 151.198ZM495.959 152.051C495.959 154.038 497.28 155.382 498.986 155.382C500.167 155.382 500.996 154.775 501.382 154.085V155.277H502.457V148.872H501.382V150.041C501.008 149.375 500.19 148.767 498.998 148.767C497.28 148.767 495.959 150.053 495.959 152.051ZM501.382 152.063C501.382 153.571 500.377 154.447 499.208 154.447C498.039 154.447 497.046 153.559 497.046 152.051C497.046 150.544 498.039 149.691 499.208 149.691C500.377 149.691 501.382 150.579 501.382 152.063ZM505.318 151.794C505.318 150.31 506.09 149.854 507.106 149.854H507.387V148.756C506.37 148.756 505.681 149.2 505.318 149.913V148.872H504.255V155.277H505.318V151.794ZM508.217 152.051C508.217 154.038 509.538 155.382 511.256 155.382C512.425 155.382 513.255 154.786 513.64 154.073V155.277H514.715V146.628H513.64V150.018C513.196 149.281 512.273 148.767 511.268 148.767C509.538 148.767 508.217 150.053 508.217 152.051ZM513.64 152.063C513.64 153.571 512.635 154.447 511.466 154.447C510.298 154.447 509.304 153.559 509.304 152.051C509.304 150.544 510.298 149.691 511.466 149.691C512.635 149.691 513.64 150.579 513.64 152.063ZM524.97 147.119V153.594L520.692 147.119H519.628V155.277H520.692V148.791L524.97 155.277H526.033V147.119H524.97ZM533.526 148.872H532.463V152.39C532.463 153.769 531.727 154.447 530.628 154.447C529.553 154.447 528.84 153.781 528.84 152.484V148.872H527.788V152.624C527.788 154.459 528.945 155.371 530.418 155.371C531.271 155.371 532.054 154.997 532.463 154.33V155.277H533.526V148.872ZM544.567 155.277H545.619V151.502C545.619 149.667 544.485 148.756 543.024 148.756C542.042 148.756 541.131 149.258 540.757 150.181C540.336 149.223 539.46 148.756 538.408 148.756C537.566 148.756 536.806 149.118 536.386 149.796V148.872H535.322V155.277H536.386V151.748C536.386 150.368 537.122 149.679 538.197 149.679C539.249 149.679 539.95 150.345 539.95 151.654V155.277H541.002V151.748C541.002 150.368 541.739 149.679 542.814 149.679C543.866 149.679 544.567 150.345 544.567 151.654V155.277ZM548.427 150.065V146.628H547.364V155.277H548.427V154.097C548.825 154.798 549.654 155.382 550.823 155.382C552.541 155.382 553.862 154.038 553.862 152.051C553.862 150.053 552.553 148.767 550.823 148.767C549.689 148.767 548.836 149.352 548.427 150.065ZM552.775 152.051C552.775 153.559 551.782 154.447 550.601 154.447C549.444 154.447 548.427 153.571 548.427 152.063C548.427 150.579 549.444 149.691 550.601 149.691C551.782 149.691 552.775 150.544 552.775 152.051ZM557.985 149.667C559.084 149.667 560.019 150.357 560.007 151.607H555.963C556.08 150.357 556.945 149.667 557.985 149.667ZM560.977 153.302H559.832C559.598 153.992 558.99 154.482 558.032 154.482C556.945 154.482 556.033 153.769 555.951 152.472H561.071C561.094 152.25 561.106 152.063 561.106 151.829C561.106 150.076 559.89 148.767 558.032 148.767C556.162 148.767 554.865 150.041 554.865 152.063C554.865 154.097 556.209 155.382 558.032 155.382C559.621 155.382 560.65 154.471 560.977 153.302ZM563.573 151.794C563.573 150.31 564.345 149.854 565.362 149.854H565.642V148.756C564.625 148.756 563.936 149.2 563.573 149.913V148.872H562.51V155.277H563.573V151.794Z" fill="black"/>
<path d="M746.893 162.373H493.108C489.65 162.373 486.846 165.177 486.846 168.634V188.67C486.846 192.128 489.65 194.931 493.108 194.931H746.893C750.351 194.931 753.154 192.128 753.154 188.67V168.634C753.154 165.177 750.351 162.373 746.893 162.373Z" fill="white"/>
<path d="M497.698 176.464H510.221" stroke="#C9D4EA" stroke-width="1.25223" stroke-miterlimit="10" stroke-linecap="round" stroke-linejoin="round"/>
<path d="M500.203 181.473H501.455" stroke="#C9D4EA" stroke-width="1.25223" stroke-miterlimit="10" stroke-linecap="round" stroke-linejoin="round"/>
<path d="M503.02 181.473H505.524" stroke="#C9D4EA" stroke-width="1.25223" stroke-miterlimit="10" stroke-linecap="round" stroke-linejoin="round"/>
<path d="M500.478 173.333H507.435C509.664 173.333 510.221 173.884 510.221 176.082V181.223C510.221 183.42 509.664 183.971 507.441 183.971H500.478C498.256 183.977 497.698 183.426 497.698 181.228V176.082C497.698 173.884 498.256 173.333 500.478 173.333Z" stroke="#C9D4EA" stroke-width="1.25223" stroke-linecap="round" stroke-linejoin="round"/>
<path d="M524.411 172.802C525.275 172.802 525.969 173.033 526.494 173.496C527.019 173.95 527.282 174.556 527.282 175.313C527.282 175.696 527.225 176.038 527.109 176.341C527.002 176.644 526.824 176.925 526.575 177.183C526.325 177.433 526.071 177.65 525.813 177.837C525.564 178.015 525.23 178.225 524.811 178.465C523.947 178.964 523.369 179.391 523.075 179.747C522.79 180.095 522.643 180.491 522.634 180.936H527.496V181.991H521.285C521.276 181.929 521.272 181.84 521.272 181.724C521.272 180.825 521.445 180.095 521.793 179.534C522.149 178.964 522.861 178.368 523.93 177.744C524.705 177.29 525.243 176.907 525.546 176.595C525.849 176.275 526 175.856 526 175.34C526 174.903 525.853 174.552 525.559 174.284C525.275 174.008 524.887 173.87 524.397 173.87C523.302 173.87 522.718 174.458 522.648 175.633H521.392C521.428 174.743 521.713 174.048 522.247 173.55C522.79 173.051 523.512 172.802 524.411 172.802ZM531.857 172.802C532.766 172.802 533.483 173.025 534.008 173.47C534.542 173.915 534.809 174.511 534.809 175.259C534.809 176.275 534.288 176.973 533.246 177.357V177.383C533.834 177.579 534.267 177.86 534.542 178.225C534.818 178.581 534.956 179.049 534.956 179.627C534.956 180.384 534.671 180.999 534.101 181.471C533.532 181.942 532.788 182.178 531.871 182.178C530.882 182.178 530.117 181.925 529.573 181.417C529.031 180.91 528.758 180.197 528.758 179.28H530.001C530.001 179.877 530.161 180.335 530.481 180.656C530.802 180.967 531.265 181.123 531.871 181.123C532.414 181.123 532.855 180.981 533.193 180.696C533.532 180.411 533.701 180.041 533.701 179.587C533.701 179.062 533.519 178.661 533.153 178.385C532.788 178.1 532.258 177.958 531.563 177.958H531.203V176.929H531.563C532.178 176.929 532.664 176.791 533.019 176.515C533.385 176.23 533.567 175.847 533.567 175.366C533.567 174.912 533.407 174.547 533.086 174.271C532.766 173.995 532.338 173.857 531.804 173.857C530.655 173.857 530.081 174.454 530.081 175.647H528.839C528.839 174.756 529.106 174.062 529.64 173.563C530.183 173.056 530.922 172.802 531.857 172.802ZM542.844 178.652V179.667H541.375V181.991H540.16V179.667H535.912V178.559L539.732 172.989H541.375V178.652H542.844ZM538.116 177.17L537.087 178.652H540.173V177.423C540.173 176.311 540.186 175.193 540.213 174.071H540.186C539.553 175.05 538.864 176.083 538.116 177.17ZM550.344 178.652V179.667H548.875V181.991H547.66V179.667H543.412V178.559L547.232 172.989H548.875V178.652H550.344ZM545.616 177.17L544.587 178.652H547.673V177.423C547.673 176.311 547.686 175.193 547.713 174.071H547.686C547.054 175.05 546.364 176.083 545.616 177.17ZM554.311 172.989H560.536V174.071C559.004 176.288 557.935 178.929 557.33 181.991H555.981C556.693 178.812 557.798 176.168 559.294 174.057H554.311V172.989ZM568.423 178.652V179.667H566.954V181.991H565.738V179.667H561.491V178.559L565.311 172.989H566.954V178.652H568.423ZM563.695 177.17L562.666 178.652H565.752V177.423C565.752 176.311 565.765 175.193 565.792 174.071H565.765C565.133 175.05 564.443 176.083 563.695 177.17ZM572.745 172.802C573.547 172.802 574.192 173.025 574.682 173.47C575.171 173.906 575.452 174.516 575.523 175.3H574.268C574.108 174.347 573.587 173.87 572.705 173.87C572.055 173.87 571.538 174.151 571.156 174.712C570.782 175.273 570.581 176.128 570.555 177.276H570.581C571.106 176.511 571.845 176.128 572.799 176.128C573.644 176.128 574.33 176.399 574.856 176.942C575.381 177.486 575.644 178.198 575.644 179.08C575.644 180.005 575.358 180.753 574.789 181.324C574.228 181.894 573.488 182.178 572.572 182.178C571.538 182.178 570.75 181.814 570.207 181.083C569.664 180.353 569.393 179.271 569.393 177.837C569.393 176.208 569.681 174.961 570.261 174.097C570.848 173.233 571.677 172.802 572.745 172.802ZM573.881 177.677C573.56 177.312 573.127 177.129 572.585 177.129C572.041 177.129 571.601 177.316 571.263 177.69C570.933 178.055 570.768 178.528 570.768 179.106C570.768 179.721 570.929 180.211 571.249 180.576C571.578 180.932 572.019 181.11 572.572 181.11C573.114 181.11 573.551 180.927 573.881 180.562C574.209 180.197 574.375 179.712 574.375 179.106C574.375 178.519 574.209 178.042 573.881 177.677ZM579.991 172.802C580.855 172.802 581.55 173.033 582.075 173.496C582.6 173.95 582.863 174.556 582.863 175.313C582.863 175.696 582.806 176.038 582.69 176.341C582.583 176.644 582.405 176.925 582.155 177.183C581.906 177.433 581.652 177.65 581.394 177.837C581.144 178.015 580.81 178.225 580.392 178.465C579.528 178.964 578.95 179.391 578.656 179.747C578.371 180.095 578.224 180.491 578.215 180.936H583.077V181.991H576.866C576.857 181.929 576.852 181.84 576.852 181.724C576.852 180.825 577.026 180.095 577.373 179.534C577.73 178.964 578.442 178.368 579.511 177.744C580.285 177.29 580.824 176.907 581.127 176.595C581.43 176.275 581.581 175.856 581.581 175.34C581.581 174.903 581.434 174.552 581.14 174.284C580.855 174.008 580.468 173.87 579.978 173.87C578.883 173.87 578.299 174.458 578.228 175.633H576.973C577.009 174.743 577.293 174.048 577.828 173.55C578.371 173.051 579.092 172.802 579.991 172.802ZM590.57 172.802C591.443 172.802 592.156 173.033 592.707 173.496C593.268 173.95 593.549 174.542 593.549 175.273C593.549 175.754 593.406 176.168 593.121 176.515C592.845 176.862 592.463 177.129 591.973 177.316V177.343C592.534 177.513 592.965 177.788 593.268 178.171C593.571 178.545 593.723 179.009 593.723 179.56C593.723 180.344 593.429 180.976 592.841 181.457C592.262 181.938 591.505 182.178 590.57 182.178C589.635 182.178 588.878 181.938 588.3 181.457C587.721 180.976 587.431 180.344 587.431 179.56C587.431 179.009 587.582 178.545 587.885 178.171C588.189 177.788 588.616 177.513 589.168 177.343V177.316C588.678 177.129 588.295 176.862 588.019 176.515C587.743 176.159 587.605 175.745 587.605 175.273C587.605 174.542 587.881 173.95 588.433 173.496C588.994 173.033 589.706 172.802 590.57 172.802ZM591.933 178.332C591.585 178.029 591.131 177.877 590.57 177.877C590.009 177.877 589.551 178.029 589.194 178.332C588.847 178.625 588.674 179.009 588.674 179.48C588.674 179.97 588.847 180.366 589.194 180.669C589.542 180.963 590 181.11 590.57 181.11C591.14 181.11 591.599 180.963 591.946 180.669C592.293 180.366 592.467 179.97 592.467 179.48C592.467 179.009 592.289 178.625 591.933 178.332ZM591.839 174.258C591.519 173.991 591.095 173.857 590.57 173.857C590.045 173.857 589.622 173.991 589.301 174.258C588.981 174.525 588.82 174.876 588.82 175.313C588.82 175.776 588.977 176.145 589.288 176.422C589.609 176.698 590.036 176.836 590.57 176.836C591.105 176.836 591.528 176.698 591.839 176.422C592.16 176.145 592.32 175.776 592.32 175.313C592.32 174.876 592.16 174.525 591.839 174.258ZM601.503 178.652V179.667H600.034V181.991H598.818V179.667H594.571V178.559L598.391 172.989H600.034V178.652H601.503ZM596.775 177.17L595.746 178.652H598.832V177.423C598.832 176.311 598.845 175.193 598.872 174.071H598.845C598.213 175.05 597.523 176.083 596.775 177.17ZM605.571 172.802C606.434 172.802 607.129 173.033 607.655 173.496C608.18 173.95 608.443 174.556 608.443 175.313C608.443 175.696 608.385 176.038 608.269 176.341C608.162 176.644 607.984 176.925 607.735 177.183C607.485 177.433 607.232 177.65 606.974 177.837C606.724 178.015 606.39 178.225 605.972 178.465C605.108 178.964 604.529 179.391 604.235 179.747C603.95 180.095 603.803 180.491 603.795 180.936H608.657V181.991H602.446C602.436 181.929 602.432 181.84 602.432 181.724C602.432 180.825 602.606 180.095 602.953 179.534C603.309 178.964 604.022 178.368 605.09 177.744C605.865 177.29 606.403 176.907 606.707 176.595C607.009 176.275 607.161 175.856 607.161 175.34C607.161 174.903 607.014 174.552 606.72 174.284C606.434 174.008 606.047 173.87 605.558 173.87C604.463 173.87 603.879 174.458 603.808 175.633H602.552C602.588 174.743 602.873 174.048 603.407 173.55C603.95 173.051 604.671 172.802 605.571 172.802ZM613.071 172.802C613.944 172.802 614.657 173.033 615.208 173.496C615.769 173.95 616.05 174.542 616.05 175.273C616.05 175.754 615.907 176.168 615.622 176.515C615.346 176.862 614.964 177.129 614.474 177.316V177.343C615.035 177.513 615.466 177.788 615.769 178.171C616.072 178.545 616.223 179.009 616.223 179.56C616.223 180.344 615.93 180.976 615.342 181.457C614.763 181.938 614.006 182.178 613.071 182.178C612.136 182.178 611.379 181.938 610.8 181.457C610.222 180.976 609.932 180.344 609.932 179.56C609.932 179.009 610.083 178.545 610.386 178.171C610.689 177.788 611.117 177.513 611.669 177.343V177.316C611.179 177.129 610.796 176.862 610.52 176.515C610.244 176.159 610.106 175.745 610.106 175.273C610.106 174.542 610.382 173.95 610.934 173.496C611.495 173.033 612.207 172.802 613.071 172.802ZM614.434 178.332C614.086 178.029 613.632 177.877 613.071 177.877C612.51 177.877 612.052 178.029 611.695 178.332C611.348 178.625 611.174 179.009 611.174 179.48C611.174 179.97 611.348 180.366 611.695 180.669C612.043 180.963 612.501 181.11 613.071 181.11C613.641 181.11 614.1 180.963 614.447 180.669C614.794 180.366 614.968 179.97 614.968 179.48C614.968 179.009 614.79 178.625 614.434 178.332ZM614.34 174.258C614.02 173.991 613.596 173.857 613.071 173.857C612.546 173.857 612.123 173.991 611.802 174.258C611.482 174.525 611.321 174.876 611.321 175.313C611.321 175.776 611.478 176.145 611.789 176.422C612.109 176.698 612.537 176.836 613.071 176.836C613.605 176.836 614.029 176.698 614.34 176.422C614.661 176.145 614.821 175.776 614.821 175.313C614.821 174.876 614.661 174.525 614.34 174.258ZM624.532 172.989V181.991H623.316V175.433H621.299V174.498C622.003 174.498 622.519 174.382 622.849 174.151C623.187 173.92 623.4 173.532 623.49 172.989H624.532ZM630.643 172.481L630.429 174.311L632.085 173.55L632.419 174.565L630.643 174.885L631.858 176.208L631.003 176.849L630.122 175.233L629.24 176.849L628.372 176.208L629.587 174.885L627.811 174.565L628.145 173.55L629.801 174.311L629.587 172.481H630.643ZM636.082 172.481L635.868 174.311L637.525 173.55L637.859 174.565L636.082 174.885L637.298 176.208L636.443 176.849L635.561 175.233L634.68 176.849L633.812 176.208L635.027 174.885L633.251 174.565L633.584 173.55L635.241 174.311L635.027 172.481H636.082ZM641.522 172.481L641.308 174.311L642.964 173.55L643.298 174.565L641.522 174.885L642.737 176.208L641.883 176.849L641.001 175.233L640.119 176.849L639.251 176.208L640.467 174.885L638.69 174.565L639.024 173.55L640.68 174.311L640.467 172.481H641.522Z" fill="black"/>
<path d="M746.893 162.373H493.108C489.65 162.373 486.846 165.177 486.846 168.634V188.67C486.846 192.128 489.65 194.931 493.108 194.931H746.893C750.351 194.931 753.154 192.128 753.154 188.67V168.634C753.154 165.177 750.351 162.373 746.893 162.373Z" stroke="#C9D4EA" stroke-width="0.834821"/>
<path d="M489.865 213.917H487.328V222.063H489.865C492.541 222.063 494.189 220.532 494.189 218.007C494.189 215.483 492.541 213.917 489.865 213.917ZM488.392 221.186V214.782H489.865C491.992 214.782 493.102 216.02 493.102 218.007C493.102 219.994 491.992 221.186 489.865 221.186H488.392ZM495.194 218.837C495.194 220.824 496.515 222.168 498.221 222.168C499.402 222.168 500.232 221.56 500.617 220.871V222.063H501.693V215.658H500.617V216.827C500.243 216.161 499.425 215.553 498.233 215.553C496.515 215.553 495.194 216.838 495.194 218.837ZM500.617 218.849C500.617 220.356 499.612 221.233 498.444 221.233C497.275 221.233 496.281 220.345 496.281 218.837C496.281 217.329 497.275 216.476 498.444 216.476C499.612 216.476 500.617 217.364 500.617 218.849ZM503.724 220.31C503.724 221.595 504.367 222.063 505.5 222.063H506.459V221.163H505.676C505.021 221.163 504.787 220.941 504.787 220.31V216.535H506.459V215.658H504.787V214.045H503.724V215.658H502.894V216.535H503.724V220.31ZM510.47 216.453C511.569 216.453 512.504 217.142 512.492 218.393H508.449C508.565 217.142 509.43 216.453 510.47 216.453ZM513.462 220.088H512.317C512.083 220.777 511.476 221.268 510.517 221.268C509.43 221.268 508.519 220.555 508.437 219.258H513.556C513.579 219.036 513.591 218.849 513.591 218.615C513.591 216.862 512.376 215.553 510.517 215.553C508.647 215.553 507.35 216.827 507.35 218.849C507.35 220.882 508.694 222.168 510.517 222.168C512.107 222.168 513.135 221.256 513.462 220.088Z" fill="black"/>
<path d="M486.429 235.419C486.429 231.731 489.42 228.741 493.108 228.741H604.974C608.662 228.741 611.653 231.731 611.653 235.419V253.785C611.653 257.474 608.662 260.464 604.974 260.464H493.108C489.42 260.464 486.429 257.474 486.429 253.785V235.419Z" fill="white"/>
<path d="M497.171 244.464C497.171 246.919 497.779 248.777 500.116 248.777C502.442 248.777 503.05 246.919 503.05 244.464C503.05 242.045 502.442 240.198 500.116 240.198C497.779 240.198 497.171 242.045 497.171 244.464ZM501.998 244.464C501.998 246.287 501.776 247.807 500.116 247.807C498.445 247.807 498.223 246.287 498.223 244.464C498.223 242.711 498.445 241.168 500.116 241.168C501.776 241.168 501.998 242.711 501.998 244.464ZM504.814 240.315V245.084H505.819C506.099 244.417 506.719 243.973 507.572 243.973C508.799 243.973 509.419 244.675 509.419 245.878C509.419 247.035 508.846 247.9 507.56 247.9C506.567 247.9 505.877 247.374 505.679 246.486H504.638C504.849 247.854 505.866 248.8 507.549 248.8C509.524 248.8 510.435 247.491 510.435 245.855C510.435 244.546 509.781 243.062 507.724 243.062C506.894 243.062 506.146 243.436 505.795 243.915V241.25H509.898V240.315H504.814ZM511.744 250.764H512.795L515.998 237.767H514.934L511.744 250.764ZM517.407 244.464C517.407 246.919 518.015 248.777 520.352 248.777C522.678 248.777 523.286 246.919 523.286 244.464C523.286 242.045 522.678 240.198 520.352 240.198C518.015 240.198 517.407 242.045 517.407 244.464ZM522.234 244.464C522.234 246.287 522.012 247.807 520.352 247.807C518.681 247.807 518.459 246.287 518.459 244.464C518.459 242.711 518.681 241.168 520.352 241.168C522.012 241.168 522.234 242.711 522.234 244.464ZM524.407 240.35V241.262H528.918L525.622 248.777H526.698L529.947 241.157V240.35H524.407ZM531.021 250.764H532.073L535.275 237.767H534.212L531.021 250.764ZM536.556 248.683H542.178V247.795H538.157C539.665 246.568 541.932 244.78 541.932 242.676C541.932 241.11 540.904 240.175 539.314 240.175C537.795 240.175 536.661 241.11 536.591 242.91H537.62C537.666 241.846 538.227 241.086 539.326 241.086C540.471 241.086 540.88 241.788 540.88 242.723C540.88 244.452 538.777 246.135 536.556 247.924V248.683ZM547.475 248.777H548.527V246.895H549.695V245.972H548.527V240.409H547.253L543.15 246.089V246.895H547.475V248.777ZM544.378 245.972L547.521 241.519V245.972H544.378Z" fill="black"/>
<path d="M493.107 229.576H604.973V227.906H493.107V229.576ZM610.817 235.42V253.786H612.487V235.42H610.817ZM604.973 259.629H493.107V261.299H604.973V259.629ZM487.263 253.786V235.42H485.594V253.786H487.263ZM493.107 259.629C489.88 259.629 487.263 257.013 487.263 253.786H485.594C485.594 257.935 488.958 261.299 493.107 261.299V259.629ZM610.817 253.786C610.817 257.013 608.201 259.629 604.973 259.629V261.299C609.123 261.299 612.487 257.935 612.487 253.786H610.817ZM604.973 229.576C608.201 229.576 610.817 232.192 610.817 235.42H612.487C612.487 231.27 609.123 227.906 604.973 227.906V229.576ZM493.107 227.906C488.958 227.906 485.594 231.27 485.594 235.42H487.263C487.263 232.192 489.88 229.576 493.107 229.576V227.906Z" fill="#C9D4EA"/>
<path d="M628.851 217.984C628.851 220.427 630.639 222.133 632.918 222.133C634.683 222.133 636.085 221.257 636.693 219.691H635.419C634.975 220.661 634.11 221.21 632.918 221.21C631.212 221.21 629.938 219.971 629.938 217.984C629.938 215.986 631.212 214.747 632.918 214.747C634.11 214.747 634.975 215.296 635.419 216.278H636.693C636.085 214.7 634.683 213.812 632.918 213.812C630.639 213.812 628.851 215.542 628.851 217.984ZM641.326 220.941L638.767 213.917H637.633L640.707 222.063H641.934L645.008 213.917H643.886L641.326 220.941ZM649.225 220.941L646.665 213.917H645.531L648.605 222.063H649.832L652.906 213.917H651.784L649.225 220.941Z" fill="black"/>
<path d="M628.348 235.419C628.348 231.731 631.339 228.741 635.027 228.741H746.893C750.581 228.741 753.572 231.731 753.572 235.419V253.785C753.572 257.474 750.581 260.464 746.893 260.464H635.027C631.339 260.464 628.348 257.474 628.348 253.785V235.419Z" fill="white"/>
<path d="M639.933 248.777H641.008V240.327H638.811V241.297H639.933V248.777ZM643.676 248.777H644.752V240.327H642.554V241.297H643.676V248.777ZM647.421 248.777H648.496V240.327H646.299V241.297H647.421V248.777Z" fill="black"/>
<path d="M635.027 229.576H746.893V227.906H635.027V229.576ZM752.737 235.42V253.786H754.407V235.42H752.737ZM746.893 259.629H635.027V261.299H746.893V259.629ZM629.183 253.786V235.42H627.514V253.786H629.183ZM635.027 259.629C631.8 259.629 629.183 257.013 629.183 253.786H627.514C627.514 257.935 630.877 261.299 635.027 261.299V259.629ZM752.737 253.786C752.737 257.013 750.121 259.629 746.893 259.629V261.299C751.043 261.299 754.407 257.935 754.407 253.786H752.737ZM746.893 229.576C750.121 229.576 752.737 232.192 752.737 235.42H754.407C754.407 231.27 751.043 227.906 746.893 227.906V229.576ZM635.027 227.906C630.877 227.906 627.514 231.27 627.514 235.42H629.183C629.183 232.192 631.8 229.576 635.027 229.576V227.906Z" fill="#C9D4EA"/>
<path d="M486.429 280.5C486.429 276.812 489.42 273.822 493.108 273.822H746.894C750.582 273.822 753.572 276.812 753.572 280.5V308.884C753.572 312.573 750.582 315.563 746.894 315.563H493.108C489.42 315.563 486.429 312.573 486.429 308.884V280.5Z" fill="#53C48A"/>
<path d="M575.933 294.066V290.655H577.827C579.164 290.655 579.765 291.286 579.765 292.368C579.765 293.42 579.164 294.066 577.827 294.066H575.933ZM581.523 292.368C581.523 290.67 580.306 289.258 577.827 289.258H574.22V299.701H575.933V295.464H577.827C580.546 295.464 581.523 293.856 581.523 292.368ZM582.586 295.524C582.586 298.078 584.314 299.837 586.463 299.837C587.845 299.837 588.837 299.175 589.363 298.469V299.701H591.091V291.422H589.363V292.624C588.852 291.948 587.89 291.286 586.493 291.286C584.314 291.286 582.586 292.969 582.586 295.524ZM589.363 295.554C589.363 297.342 588.146 298.349 586.854 298.349C585.576 298.349 584.344 297.312 584.344 295.524C584.344 293.736 585.576 292.774 586.854 292.774C588.146 292.774 589.363 293.781 589.363 295.554ZM596.602 297.733L594.273 291.422H592.364L595.625 299.566L593.942 303.593H595.715L600.794 291.422H599.021L596.602 297.733ZM605.63 299.551H612.933V298.124H608.169C609.927 296.516 612.632 294.487 612.632 291.827C612.632 289.859 611.37 288.521 609.146 288.521C607.207 288.521 605.675 289.678 605.615 292.053H607.267C607.313 290.821 607.959 289.979 609.161 289.979C610.438 289.979 610.934 290.76 610.934 291.902C610.934 294.051 608.214 296.035 605.63 298.304V299.551ZM619.667 299.701H621.35V297.417H622.748V295.93H621.35V288.882H619.276L614.227 296.125V297.417H619.667V299.701ZM616.196 295.93L619.742 290.625V295.93H616.196ZM631.635 291.286C631.455 289.829 630.388 288.476 628.254 288.476C625.519 288.476 624.377 290.55 624.377 293.976C624.377 297.462 625.204 299.701 628.389 299.701C630.733 299.701 631.981 298.124 631.981 296.05C631.981 293.766 630.583 292.443 628.615 292.443C627.473 292.443 626.391 292.924 625.85 293.826C625.895 290.956 626.691 289.904 628.239 289.904C629.321 289.904 629.847 290.4 630.057 291.286H631.635ZM628.239 293.886C629.682 293.886 630.343 294.818 630.343 296.125C630.343 297.417 629.561 298.274 628.299 298.274C626.842 298.274 626.045 297.372 626.045 296.02C626.045 294.562 627.112 293.886 628.239 293.886ZM637.922 295.885C637.922 298.544 639.785 299.807 641.979 299.807C644.158 299.807 646.082 298.544 646.082 295.885V289.258H644.369V295.915C644.369 297.537 643.452 298.304 641.994 298.304C640.552 298.304 639.635 297.537 639.635 295.915V289.258H637.922V295.885ZM655.359 296.741C655.359 292.924 649.829 294.397 649.829 292.038C649.829 291.031 650.596 290.55 651.587 290.58C652.669 290.61 653.285 291.256 653.345 291.963H655.239C655.089 290.174 653.676 289.122 651.677 289.122C649.544 289.122 648.086 290.265 648.086 292.098C648.086 295.945 653.631 294.307 653.631 296.831C653.631 297.718 652.955 298.364 651.753 298.364C650.565 298.364 649.964 297.673 649.889 296.816H648.056C648.056 298.664 649.664 299.807 651.753 299.807C654.082 299.807 655.359 298.304 655.359 296.741ZM660.792 289.258H657.381V299.701H660.792C664.143 299.701 666.337 297.733 666.337 294.517C666.337 291.286 664.143 289.258 660.792 289.258ZM659.094 298.304V290.655H660.792C663.256 290.655 664.579 292.128 664.579 294.517C664.579 296.891 663.256 298.304 660.792 298.304H659.094Z" fill="white"/>
<path d="M743.481 132.195L748.287 130.61L749.93 130.068L748.557 129.015L734.557 118.274L733.085 117.145V119V138.053V140.091L734.608 138.737L738.71 135.09L743.163 143.431L743.646 144.335L744.489 143.754L747.436 141.724L748.109 141.26L747.724 140.539L743.45 132.539C743.415 132.469 743.404 132.369 743.431 132.279C743.446 132.24 743.465 132.212 743.48 132.196C743.48 132.196 743.48 132.195 743.481 132.195ZM743.487 132.188C743.488 132.188 743.488 132.188 743.488 132.188L743.487 132.188Z" fill="white" stroke="#333333" stroke-width="1.83"/>
<g clip-path="url(#clip0)">
<path d="M28.005 0.466832H345.451C352.928 0.466832 358.989 6.52807 358.989 14.005V548.995C358.989 556.472 352.928 562.533 345.451 562.533H28.005C20.5281 562.533 14.4668 556.472 14.4668 548.995V14.005C14.4668 6.52807 20.5281 0.466832 28.005 0.466832Z" fill="white" stroke="#B0BBD5" stroke-width="0.933665"/>
<path d="M116.166 30.8579V43.8359H122.683V42.1179H118.295V30.8579H116.166Z" fill="black"/>
<path d="M134.268 38.6818C134.268 35.4513 131.952 33.3785 129.02 33.3785C126.089 33.3785 123.773 35.4513 123.773 38.6818C123.773 41.9122 125.995 44.0036 128.927 44.0036C131.877 44.0036 134.268 41.9122 134.268 38.6818ZM125.939 38.6818C125.939 36.3476 127.377 35.2272 128.983 35.2272C130.57 35.2272 132.083 36.3476 132.083 38.6818C132.083 41.0159 130.514 42.155 128.927 42.155C127.321 42.155 125.939 41.0159 125.939 38.6818Z" fill="black"/>
<path d="M135.661 38.6444C135.661 41.8189 137.808 44.0036 140.479 44.0036C142.197 44.0036 143.429 43.182 144.083 42.3044V43.8356H146.23V33.5466H144.083V35.0405C143.448 34.2002 142.253 33.3785 140.516 33.3785C137.808 33.3785 135.661 35.4699 135.661 38.6444ZM144.083 38.6818C144.083 40.9039 142.57 42.155 140.964 42.155C139.377 42.155 137.846 40.8665 137.846 38.6444C137.846 36.4223 139.377 35.2272 140.964 35.2272C142.57 35.2272 144.083 36.4783 144.083 38.6818Z" fill="black"/>
<path d="M156.328 43.8356H158.438V37.7668C158.438 34.8911 156.627 33.3785 154.218 33.3785C152.986 33.3785 151.847 33.8827 151.156 34.723V33.5466H149.027V43.8356H151.156V38.0842C151.156 36.1982 152.183 35.2272 153.751 35.2272C155.301 35.2272 156.328 36.1982 156.328 38.0842V43.8356Z" fill="black"/>
<path d="M174.762 40.1571C174.762 35.414 167.89 37.244 167.89 34.3123C167.89 33.0612 168.843 32.4637 170.075 32.501C171.419 32.5384 172.185 33.3413 172.26 34.219H174.613C174.426 31.9968 172.671 30.6897 170.187 30.6897C167.535 30.6897 165.724 32.1089 165.724 34.387C165.724 39.1674 172.615 37.132 172.615 40.2691C172.615 41.3708 171.774 42.1738 170.28 42.1738C168.805 42.1738 168.058 41.3148 167.965 40.2504H165.687C165.687 42.5472 167.685 43.9664 170.28 43.9664C173.175 43.9664 174.762 42.0991 174.762 40.1571Z" fill="black"/>
<path d="M186.592 33.5468H184.463V39.2795C184.463 41.1655 183.436 42.1365 181.868 42.1365C180.318 42.1365 179.291 41.1655 179.291 39.2795V33.5468H177.181V39.5969C177.181 42.4726 179.011 43.9851 181.419 43.9851C182.633 43.9851 183.791 43.4809 184.463 42.6033V43.8357H186.592V33.5468Z" fill="black"/>
<path d="M203.984 43.8356H206.094V37.7668C206.094 34.8911 204.264 33.3785 201.855 33.3785C200.362 33.3785 198.905 34.1628 198.27 35.4139C197.561 34.0695 196.197 33.3785 194.573 33.3785C193.34 33.3785 192.22 33.8827 191.529 34.723V33.5466H189.4V43.8356H191.529V38.0842C191.529 36.1982 192.556 35.2272 194.125 35.2272C195.675 35.2272 196.702 36.1982 196.702 38.0842V43.8356H198.812V38.0842C198.812 36.1982 199.839 35.2272 201.407 35.2272C202.957 35.2272 203.984 36.1982 203.984 38.0842V43.8356Z" fill="black"/>
<path d="M223.387 43.8356H225.497V37.7668C225.497 34.8911 223.667 33.3785 221.258 33.3785C219.764 33.3785 218.308 34.1628 217.673 35.4139C216.963 34.0695 215.6 33.3785 213.976 33.3785C212.743 33.3785 211.623 33.8827 210.932 34.723V33.5466H208.803V43.8356H210.932V38.0842C210.932 36.1982 211.959 35.2272 213.528 35.2272C215.077 35.2272 216.104 36.1982 216.104 38.0842V43.8356H218.215V38.0842C218.215 36.1982 219.242 35.2272 220.81 35.2272C222.36 35.2272 223.387 36.1982 223.387 38.0842V43.8356Z" fill="black"/>
<path d="M227.497 38.6444C227.497 41.8189 229.644 44.0036 232.314 44.0036C234.032 44.0036 235.265 43.182 235.918 42.3044V43.8356H238.066V33.5466H235.918V35.0405C235.283 34.2002 234.088 33.3785 232.352 33.3785C229.644 33.3785 227.497 35.4699 227.497 38.6444ZM235.918 38.6818C235.918 40.9039 234.406 42.155 232.8 42.155C231.213 42.155 229.681 40.8665 229.681 38.6444C229.681 36.4223 231.213 35.2272 232.8 35.2272C234.406 35.2272 235.918 36.4783 235.918 38.6818Z" fill="black"/>
<path d="M242.989 38.4203C242.989 36.2356 243.96 35.582 245.529 35.582H246.07V33.3785C244.614 33.3785 243.587 34.0134 242.989 35.0405V33.5466H240.861V43.8356H242.989V38.4203Z" fill="black"/>
<path d="M252.08 41.3895L249.186 33.5468H246.814L250.867 43.6677L248.775 48.6721H250.979L257.29 33.5468H255.087L252.08 41.3895Z" fill="black"/>
<path d="M36.408 79.3616H337.048" stroke="#C9D4EA" stroke-width="0.933665"/>
<path d="M186.728 325.849C248.606 325.849 298.768 275.687 298.768 213.809C298.768 151.931 248.606 101.77 186.728 101.77C124.85 101.77 74.6882 151.931 74.6882 213.809C74.6882 275.687 124.85 325.849 186.728 325.849Z" fill="#E1E9F8"/>
<mask id="mask0" mask-type="alpha" maskUnits="userSpaceOnUse" x="74" y="101" width="225" height="225">
<path d="M186.728 325.849C248.606 325.849 298.768 275.687 298.768 213.809C298.768 151.931 248.606 101.77 186.728 101.77C124.85 101.77 74.6882 151.931 74.6882 213.809C74.6882 275.687 124.85 325.849 186.728 325.849Z" fill="#E1E9F8"/>
</mask>
<g mask="url(#mask0)">
<path d="M186.728 213.028V101.77V101.509H298.768V213.028H186.728Z" fill="#53C48A"/>
<path opacity="0.5" d="M186.728 287.808C227.596 287.808 260.726 254.677 260.726 213.809C260.726 172.941 227.596 139.811 186.728 139.811C145.86 139.811 112.729 172.941 112.729 213.809C112.729 254.677 145.86 287.808 186.728 287.808Z" fill="#8F9BBA"/>
<path d="M186.565 279.774C222.828 279.774 252.226 250.377 252.226 214.114C252.226 177.85 222.828 148.453 186.565 148.453C150.302 148.453 120.905 177.85 120.905 214.114C120.905 250.377 150.302 279.774 186.565 279.774Z" fill="white"/>
<path d="M153.094 207.931H156.53V186.15H150.315V189.258H153.094V207.931Z" fill="black"/>
<path d="M185.104 199.685C185.104 194.516 181.399 191.2 176.708 191.2C172.018 191.2 168.313 194.516 168.313 199.685C168.313 204.854 171.868 208.2 176.559 208.2C181.279 208.2 185.104 204.854 185.104 199.685ZM171.779 199.685C171.779 195.95 174.079 194.158 176.648 194.158C179.188 194.158 181.608 195.95 181.608 199.685C181.608 203.42 179.098 205.242 176.559 205.242C173.989 205.242 171.779 203.42 171.779 199.685Z" fill="black"/>
<path d="M188.889 207.931H192.325V194.247H195.372V191.469H192.325V190.303C192.325 188.421 193.042 187.704 195.133 187.704V184.866C190.831 184.866 188.889 186.509 188.889 190.303V191.469H186.947V194.247H188.889V207.931Z" fill="black"/>
<path d="M216.101 207.931H219.447V203.39H222.226V200.432H219.447V186.419H215.324L205.286 200.82V203.39H216.101V207.931ZM209.2 200.432L216.251 189.885V200.432H209.2Z" fill="black"/>
<path d="M160.272 235.575H162.289L164.154 228.735L166.02 235.575H168.036L170.91 226.315H169.028L167.112 233.726L165.23 226.315H163.23L161.264 233.76L159.331 226.315H157.381L160.272 235.575Z" fill="#8F9BBA"/>
<path d="M176.241 227.777C177.67 227.777 178.796 228.684 178.829 230.113H173.704C173.905 228.651 174.947 227.777 176.241 227.777ZM180.577 232.819H178.51C178.157 233.541 177.502 234.113 176.325 234.113C174.914 234.113 173.821 233.188 173.687 231.659H180.762C180.812 231.34 180.829 231.037 180.829 230.718C180.829 227.995 178.964 226.163 176.325 226.163C173.586 226.163 171.704 228.029 171.704 230.936C171.704 233.844 173.67 235.726 176.325 235.726C178.594 235.726 180.056 234.432 180.577 232.819Z" fill="#8F9BBA"/>
<path d="M186.613 227.777C188.041 227.777 189.167 228.684 189.201 230.113H184.075C184.277 228.651 185.319 227.777 186.613 227.777ZM190.949 232.819H188.882C188.529 233.541 187.873 234.113 186.697 234.113C185.285 234.113 184.193 233.188 184.058 231.659H191.134C191.184 231.34 191.201 231.037 191.201 230.718C191.201 227.995 189.335 226.163 186.697 226.163C183.957 226.163 182.075 228.029 182.075 230.936C182.075 233.844 184.041 235.726 186.697 235.726C188.966 235.726 190.428 234.432 190.949 232.819Z" fill="#8F9BBA"/>
<path d="M193.087 235.575H195.003V231.592L198.431 235.575H201.019L196.751 230.953L201.019 226.315H198.364L195.003 230.365V223.139H193.087V235.575Z" fill="#8F9BBA"/>
<path d="M202.392 235.575H204.308V223.139H202.392V235.575Z" fill="#8F9BBA"/>
<path d="M210.471 233.373L207.866 226.315H205.731L209.378 235.424L207.496 239.928H209.479L215.16 226.315H213.176L210.471 233.373Z" fill="#8F9BBA"/>
</g>
</g>
<path d="M36.8748 350.528H39.306V358.397H40.7961V350.528H43.2143V349.312H36.8748V350.528Z" fill="#8F9BBA"/>
<path d="M51.5863 354.789C51.5863 352.528 49.9655 351.077 47.9133 351.077C45.8611 351.077 44.2402 352.528 44.2402 354.789C44.2402 357.05 45.7957 358.514 47.8479 358.514C49.9132 358.514 51.5863 357.05 51.5863 354.789ZM45.7565 354.789C45.7565 353.155 46.763 352.371 47.8871 352.371C48.9982 352.371 50.057 353.155 50.057 354.789C50.057 356.423 48.959 357.22 47.8479 357.22C46.7238 357.22 45.7565 356.423 45.7565 354.789Z" fill="#8F9BBA"/>
<path d="M53.294 356.397C53.294 357.861 54.0913 358.397 55.3723 358.397H56.5487V357.155H55.6337C55.0063 357.155 54.7972 356.933 54.7972 356.397V352.41H56.5487V351.194H54.7972V349.404H53.294V351.194H52.4443V352.41H53.294V356.397Z" fill="#8F9BBA"/>
<path d="M57.4255 354.763C57.4255 356.985 58.9287 358.514 60.7979 358.514C62.0005 358.514 62.8632 357.939 63.3207 357.325V358.397H64.8239V351.194H63.3207V352.24C62.8763 351.652 62.0397 351.077 60.8241 351.077C58.9287 351.077 57.4255 352.541 57.4255 354.763ZM63.3207 354.789C63.3207 356.344 62.2619 357.22 61.1378 357.22C60.0267 357.22 58.9549 356.318 58.9549 354.763C58.9549 353.207 60.0267 352.371 61.1378 352.371C62.2619 352.371 63.3207 353.247 63.3207 354.789Z" fill="#8F9BBA"/>
<path d="M66.7812 358.397H68.2714V348.724H66.7812V358.397Z" fill="#8F9BBA"/>
<path d="M73.1265 354.763C73.1265 356.985 74.6297 358.514 76.4989 358.514C77.7014 358.514 78.5641 357.939 79.0216 357.325V358.397H80.5248V351.194H79.0216V352.24C78.5772 351.652 77.7406 351.077 76.525 351.077C74.6297 351.077 73.1265 352.541 73.1265 354.763ZM79.0216 354.789C79.0216 356.344 77.9628 357.22 76.8387 357.22C75.7277 357.22 74.6558 356.318 74.6558 354.763C74.6558 353.207 75.7277 352.371 76.8387 352.371C77.9628 352.371 79.0216 353.247 79.0216 354.789Z" fill="#8F9BBA"/>
<path d="M92.6909 358.397H94.168V354.148C94.168 352.135 92.8869 351.077 91.2007 351.077C90.155 351.077 89.1355 351.626 88.6911 352.501C88.1943 351.56 87.2401 351.077 86.1029 351.077C85.2402 351.077 84.4559 351.43 83.9723 352.018V351.194H82.4822V358.397H83.9723V354.371C83.9723 353.05 84.6912 352.371 85.7892 352.371C86.8741 352.371 87.5932 353.05 87.5932 354.371V358.397H89.0701V354.371C89.0701 353.05 89.789 352.371 90.8871 352.371C91.972 352.371 92.6909 353.05 92.6909 354.371V358.397Z" fill="#8F9BBA"/>
<path d="M102.927 354.789C102.927 352.528 101.306 351.077 99.2538 351.077C97.2017 351.077 95.5808 352.528 95.5808 354.789C95.5808 357.05 97.1363 358.514 99.1885 358.514C101.254 358.514 102.927 357.05 102.927 354.789ZM97.0971 354.789C97.0971 353.155 98.1036 352.371 99.2277 352.371C100.339 352.371 101.398 353.155 101.398 354.789C101.398 356.423 100.3 357.22 99.1885 357.22C98.0644 357.22 97.0971 356.423 97.0971 354.789Z" fill="#8F9BBA"/>
<path d="M110.922 351.194H109.431V355.207C109.431 356.527 108.712 357.207 107.615 357.207C106.53 357.207 105.811 356.527 105.811 355.207V351.194H104.334V355.429C104.334 357.442 105.615 358.501 107.301 358.501C108.15 358.501 108.961 358.148 109.431 357.534V358.397H110.922V351.194Z" fill="#8F9BBA"/>
<path d="M117.999 358.397H119.476V354.148C119.476 352.135 118.208 351.077 116.522 351.077C115.659 351.077 114.862 351.43 114.378 352.018V351.194H112.888V358.397H114.378V354.371C114.378 353.05 115.097 352.371 116.195 352.371C117.28 352.371 117.999 353.05 117.999 354.371V358.397Z" fill="#8F9BBA"/>
<path d="M121.612 356.397C121.612 357.861 122.409 358.397 123.69 358.397H124.867V357.155H123.952C123.324 357.155 123.115 356.933 123.115 356.397V352.41H124.867V351.194H123.115V349.404H121.612V351.194H120.762V352.41H121.612V356.397Z" fill="#8F9BBA"/>
<path d="M40.7961 389.717H42.0099V388.186C44.5308 387.962 45.9126 386.207 45.9126 384.395C45.9126 381.762 43.8772 381.258 42.0099 380.81V376.777C42.9062 377.001 43.4291 377.692 43.5038 378.439H45.7819C45.6139 376.328 44.1573 375.152 42.0099 374.965V373.453H40.7961V374.984C38.4807 375.189 36.8748 376.627 36.8748 378.719C36.8748 381.352 38.9288 381.874 40.7961 382.341V386.449C39.7504 386.263 39.2276 385.572 39.1529 384.638H36.8748C36.8748 386.748 38.518 387.999 40.7961 388.205V389.717ZM43.7652 384.507C43.7652 385.478 43.1303 386.263 42.0099 386.449V382.659C43.0183 382.976 43.7652 383.443 43.7652 384.507ZM39.0409 378.607C39.0409 377.468 39.7691 376.851 40.7961 376.721V380.493C39.7878 380.175 39.0409 379.69 39.0409 378.607Z" fill="black"/>
<path d="M50.4764 388.093H52.6238V374.48H48.7397V376.422H50.4764V388.093Z" fill="black"/>
<path d="M56.1086 374.443V382.304H58.1253C58.4801 381.296 59.3204 380.605 60.5715 380.605C62.3455 380.605 63.2231 381.613 63.2231 383.387C63.2231 385.068 62.4015 386.319 60.5715 386.319C59.1337 386.319 58.1627 385.572 57.8826 384.414H55.8098C56.1273 386.543 57.7518 388.093 60.5528 388.093C63.7086 388.093 65.2585 386.039 65.2585 383.331C65.2585 381.277 64.2315 378.793 60.889 378.793C59.6752 378.793 58.5735 379.354 58.0693 380.026V376.31H64.3248V374.443H56.1086Z" fill="black"/>
<path d="M69.7706 380.978C68.4074 381.483 67.4924 382.696 67.4924 384.34C67.4924 386.823 69.5091 388.429 72.3101 388.429C75.1298 388.429 77.1465 386.823 77.1465 384.34C77.1465 382.715 76.2315 381.501 74.8497 380.978C75.9514 380.437 76.7917 379.372 76.7917 377.916C76.7917 375.955 75.3165 374.237 72.3101 374.237C69.3037 374.237 67.8286 375.937 67.8286 377.916C67.8286 379.428 68.6128 380.399 69.7706 380.978ZM72.3101 380.306C70.891 380.306 69.8826 379.429 69.8826 378.196C69.8826 376.758 70.8536 376.011 72.3101 376.011C73.804 376.011 74.7563 376.777 74.7563 378.177C74.7563 379.41 73.7293 380.306 72.3101 380.306ZM72.3101 381.912C73.916 381.912 75.0551 382.734 75.0551 384.265C75.0551 385.628 74.0281 386.655 72.3101 386.655C70.5735 386.655 69.5278 385.647 69.5278 384.265C69.5278 382.678 70.7416 381.912 72.3101 381.912Z" fill="black"/>
<path d="M79.3821 381.109C79.3821 385.068 80.4278 388.056 84.2371 388.056C88.0465 388.056 89.0922 385.068 89.0922 381.109C89.0922 377.225 88.0465 374.237 84.2371 374.237C80.4278 374.237 79.3821 377.225 79.3821 381.109ZM87.0008 381.109C87.0008 383.779 86.7207 386.114 84.2371 386.114C81.7536 386.114 81.4735 383.779 81.4735 381.109C81.4735 378.57 81.7536 376.179 84.2371 376.179C86.7207 376.179 87.0008 378.57 87.0008 381.109Z" fill="black"/>
<path d="M227.583 358.41L229.256 358.397L231.283 351.521L233.191 358.397H234.877L237.57 349.312H235.975L234.08 356.671L232.184 349.312H230.511L228.472 356.71L226.59 349.312H225.008L227.583 358.41Z" fill="#8F9BBA"/>
<path d="M241.831 352.332C242.942 352.332 243.818 353.037 243.844 354.148H239.857C240.014 353.011 240.825 352.332 241.831 352.332ZM245.204 356.253H243.596C243.321 356.815 242.812 357.259 241.897 357.259C240.799 357.259 239.949 356.54 239.844 355.351H245.347C245.387 355.103 245.4 354.867 245.4 354.619C245.4 352.501 243.949 351.077 241.897 351.077C239.766 351.077 238.302 352.528 238.302 354.789C238.302 357.05 239.831 358.514 241.897 358.514C243.661 358.514 244.798 357.508 245.204 356.253Z" fill="#8F9BBA"/>
<path d="M249.899 352.332C251.01 352.332 251.886 353.037 251.912 354.148H247.925C248.082 353.011 248.892 352.332 249.899 352.332ZM253.271 356.253H251.664C251.389 356.815 250.879 357.259 249.964 357.259C248.866 357.259 248.017 356.54 247.912 355.351H253.415C253.454 355.103 253.467 354.867 253.467 354.619C253.467 352.501 252.016 351.077 249.964 351.077C247.834 351.077 246.37 352.528 246.37 354.789C246.37 357.05 247.899 358.514 249.964 358.514C251.729 358.514 252.866 357.508 253.271 356.253Z" fill="#8F9BBA"/>
<path d="M254.934 358.397H256.424V355.299L259.091 358.397H261.103L257.783 354.802L261.103 351.194H259.038L256.424 354.345V348.724H254.934V358.397Z" fill="#8F9BBA"/>
<path d="M262.172 358.397H263.662V348.724H262.172V358.397Z" fill="#8F9BBA"/>
<path d="M268.454 356.684L266.428 351.194H264.768L267.605 358.279L266.141 361.782H267.683L272.101 351.194H270.559L268.454 356.684Z" fill="#8F9BBA"/>
<path d="M278.112 352.253V351.194H276.622V361.821H278.112V357.351C278.582 357.913 279.432 358.514 280.621 358.514C282.517 358.514 284.007 356.985 284.007 354.763C284.007 352.541 282.517 351.077 280.621 351.077C279.445 351.077 278.569 351.652 278.112 352.253ZM282.491 354.763C282.491 356.318 281.419 357.22 280.295 357.22C279.184 357.22 278.112 356.344 278.112 354.789C278.112 353.247 279.184 352.371 280.295 352.371C281.419 352.371 282.491 353.207 282.491 354.763Z" fill="#8F9BBA"/>
<path d="M284.983 354.763C284.983 356.985 286.487 358.514 288.356 358.514C289.558 358.514 290.421 357.939 290.879 357.325V358.397H292.382V351.194H290.879V352.24C290.434 351.652 289.598 351.077 288.382 351.077C286.487 351.077 284.983 352.541 284.983 354.763ZM290.879 354.789C290.879 356.344 289.82 357.22 288.696 357.22C287.585 357.22 286.513 356.318 286.513 354.763C286.513 353.207 287.585 352.371 288.696 352.371C289.82 352.371 290.879 353.247 290.879 354.789Z" fill="#8F9BBA"/>
<path d="M297.176 356.684L295.15 351.194H293.49L296.326 358.279L294.862 361.782H296.404L300.823 351.194H299.28L297.176 356.684Z" fill="#8F9BBA"/>
<path d="M312.156 358.397H313.633V354.148C313.633 352.135 312.352 351.077 310.666 351.077C309.62 351.077 308.601 351.626 308.156 352.501C307.659 351.56 306.705 351.077 305.568 351.077C304.705 351.077 303.921 351.43 303.437 352.018V351.194H301.947V358.397H303.437V354.371C303.437 353.05 304.156 352.371 305.254 352.371C306.339 352.371 307.058 353.05 307.058 354.371V358.397H308.535V354.371C308.535 353.05 309.254 352.371 310.352 352.371C311.437 352.371 312.156 353.05 312.156 354.371V358.397Z" fill="#8F9BBA"/>
<path d="M318.561 352.332C319.673 352.332 320.548 353.037 320.574 354.148H316.588C316.745 353.011 317.555 352.332 318.561 352.332ZM321.934 356.253H320.326C320.052 356.815 319.542 357.259 318.627 357.259C317.529 357.259 316.679 356.54 316.575 355.351H322.078C322.117 355.103 322.13 354.867 322.13 354.619C322.13 352.501 320.679 351.077 318.627 351.077C316.496 351.077 315.032 352.528 315.032 354.789C315.032 357.05 316.562 358.514 318.627 358.514C320.391 358.514 321.529 357.508 321.934 356.253Z" fill="#8F9BBA"/>
<path d="M328.708 358.397H330.185V354.148C330.185 352.135 328.917 351.077 327.231 351.077C326.368 351.077 325.57 351.43 325.087 352.018V351.194H323.597V358.397H325.087V354.371C325.087 353.05 325.806 352.371 326.904 352.371C327.989 352.371 328.708 353.05 328.708 354.371V358.397Z" fill="#8F9BBA"/>
<path d="M332.32 356.397C332.32 357.861 333.118 358.397 334.399 358.397H335.575V357.155H334.66C334.033 357.155 333.824 356.933 333.824 356.397V352.41H335.575V351.194H333.824V349.404H332.32V351.194H331.471V352.41H332.32V356.397Z" fill="#8F9BBA"/>
<path d="M228.93 393.024H230.143V391.493C232.664 391.269 234.046 389.514 234.046 387.702C234.046 385.069 232.011 384.565 230.143 384.117V380.084C231.04 380.308 231.563 380.999 231.637 381.746H233.915C233.747 379.635 232.291 378.459 230.143 378.272V376.76H228.93V378.291C226.614 378.496 225.008 379.934 225.008 382.026C225.008 384.659 227.062 385.181 228.93 385.648V389.756C227.884 389.57 227.361 388.879 227.286 387.945H225.008C225.008 390.055 226.652 391.306 228.93 391.512V393.024ZM231.899 387.814C231.899 388.785 231.264 389.57 230.143 389.756V385.966C231.152 386.283 231.899 386.75 231.899 387.814ZM227.174 381.914C227.174 380.775 227.903 380.158 228.93 380.028V383.8C227.921 383.482 227.174 382.997 227.174 381.914Z" fill="black"/>
<path d="M236.985 391.213H246.06V389.439H240.141C242.326 387.441 245.687 384.92 245.687 381.615C245.687 379.169 244.118 377.507 241.355 377.507C238.946 377.507 237.041 378.945 236.966 381.895H239.02C239.076 380.364 239.879 379.318 241.373 379.318C242.96 379.318 243.577 380.289 243.577 381.709C243.577 384.379 240.197 386.844 236.985 389.663V391.213Z" fill="black"/>
<path d="M254.429 391.4H256.521V388.562H258.257V386.713H256.521V377.955H253.944L247.67 386.956V388.562H254.429V391.4ZM250.116 386.713L254.523 380.121V386.713H250.116Z" fill="black"/>
<path d="M269.302 380.943C269.078 379.132 267.752 377.451 265.1 377.451C261.702 377.451 260.282 380.028 260.282 384.285C260.282 388.618 261.309 391.4 265.268 391.4C268.181 391.4 269.731 389.439 269.731 386.862C269.731 384.024 267.995 382.381 265.548 382.381C264.129 382.381 262.785 382.978 262.112 384.099C262.168 380.532 263.158 379.225 265.082 379.225C266.426 379.225 267.08 379.841 267.341 380.943H269.302ZM265.082 384.173C266.874 384.173 267.696 385.331 267.696 386.956C267.696 388.562 266.725 389.626 265.156 389.626C263.345 389.626 262.355 388.506 262.355 386.825C262.355 385.014 263.681 384.173 265.082 384.173Z" fill="black"/>
<path d="M42.8483 419.216V425.987L38.3649 419.216H36.8748V428.313H38.3649V421.529L42.8483 428.313H44.3385V419.216H42.8483Z" fill="#8F9BBA"/>
<path d="M49.3276 422.248C50.4387 422.248 51.3144 422.954 51.3406 424.065H47.3538C47.5107 422.928 48.3211 422.248 49.3276 422.248ZM52.7 426.169H51.0922C50.8177 426.731 50.3079 427.176 49.3929 427.176C48.295 427.176 47.4453 426.457 47.3408 425.267H52.8438C52.883 425.019 52.8961 424.784 52.8961 424.535C52.8961 422.418 51.4451 420.993 49.3929 420.993C47.2623 420.993 45.7983 422.444 45.7983 424.705C45.7983 426.967 47.3277 428.431 49.3929 428.431C51.1576 428.431 52.2948 427.424 52.7 426.169Z" fill="#8F9BBA"/>
<path d="M58.0879 428.313H59.7741L57.4474 424.666L59.7741 421.111H58.2186L56.7546 423.555L55.1991 421.111H53.5129L55.8396 424.771L53.5129 428.313H55.0684L56.5324 425.869L58.0879 428.313Z" fill="#8F9BBA"/>
<path d="M61.1209 426.313C61.1209 427.777 61.9182 428.313 63.1992 428.313H64.3756V427.071H63.4606C62.8332 427.071 62.6241 426.849 62.6241 426.313V422.326H64.3756V421.111H62.6241V419.32H61.1209V421.111H60.2712V422.326H61.1209V426.313Z" fill="#8F9BBA"/>
<path d="M70.6347 422.17V421.111H69.1445V431.738H70.6347V427.267C71.1052 427.829 71.9549 428.431 73.1444 428.431C75.0397 428.431 76.5298 426.901 76.5298 424.679C76.5298 422.457 75.0397 420.993 73.1444 420.993C71.9679 420.993 71.0922 421.568 70.6347 422.17ZM75.0136 424.679C75.0136 426.235 73.9417 427.137 72.8176 427.137C71.7065 427.137 70.6347 426.261 70.6347 424.705C70.6347 423.163 71.7065 422.287 72.8176 422.287C73.9417 422.287 75.0136 423.124 75.0136 424.679Z" fill="#8F9BBA"/>
<path d="M77.5066 424.679C77.5066 426.901 79.0098 428.431 80.879 428.431C82.0816 428.431 82.9443 427.856 83.4018 427.241V428.313H84.905V421.111H83.4018V422.157C82.9573 421.568 82.1208 420.993 80.9051 420.993C79.0098 420.993 77.5066 422.457 77.5066 424.679ZM83.4018 424.705C83.4018 426.261 82.343 427.137 81.2188 427.137C80.1078 427.137 79.0359 426.235 79.0359 424.679C79.0359 423.124 80.1078 422.287 81.2188 422.287C82.343 422.287 83.4018 423.163 83.4018 424.705Z" fill="#8F9BBA"/>
<path d="M89.6986 426.601L87.6725 421.111H86.0125L88.8489 428.195L87.3849 431.698H88.9274L93.3455 421.111H91.803L89.6986 426.601Z" fill="#8F9BBA"/>
<path d="M104.679 428.313H106.156V424.065C106.156 422.052 104.875 420.993 103.189 420.993C102.143 420.993 101.124 421.542 100.679 422.418C100.182 421.477 99.2282 420.993 98.091 420.993C97.2283 420.993 96.444 421.346 95.9603 421.934V421.111H94.4702V428.313H95.9603V424.287C95.9603 422.967 96.6793 422.287 97.7773 422.287C98.8622 422.287 99.5811 422.967 99.5811 424.287V428.313H101.058V424.287C101.058 422.967 101.777 422.287 102.875 422.287C103.96 422.287 104.679 422.967 104.679 424.287V428.313Z" fill="#8F9BBA"/>
<path d="M111.084 422.248C112.195 422.248 113.071 422.954 113.097 424.065H109.111C109.268 422.928 110.078 422.248 111.084 422.248ZM114.457 426.169H112.849C112.575 426.731 112.065 427.176 111.15 427.176C110.052 427.176 109.202 426.457 109.098 425.267H114.601C114.64 425.019 114.653 424.784 114.653 424.535C114.653 422.418 113.202 420.993 111.15 420.993C109.019 420.993 107.555 422.444 107.555 424.705C107.555 426.967 109.085 428.431 111.15 428.431C112.914 428.431 114.052 427.424 114.457 426.169Z" fill="#8F9BBA"/>
<path d="M121.231 428.313H122.708V424.065C122.708 422.052 121.44 420.993 119.753 420.993C118.891 420.993 118.093 421.346 117.61 421.934V421.111H116.12V428.313H117.61V424.287C117.61 422.967 118.329 422.287 119.427 422.287C120.512 422.287 121.231 422.967 121.231 424.287V428.313Z" fill="#8F9BBA"/>
<path d="M124.843 426.313C124.843 427.777 125.641 428.313 126.922 428.313H128.098V427.071H127.183C126.556 427.071 126.346 426.849 126.346 426.313V422.326H128.098V421.111H126.346V419.32H124.843V421.111H123.994V422.326H124.843V426.313Z" fill="#8F9BBA"/>
<path d="M40.7961 462.941H42.0099V461.41C44.5308 461.186 45.9126 459.431 45.9126 457.619C45.9126 454.986 43.8772 454.482 42.0099 454.034V450C42.9062 450.225 43.4291 450.916 43.5038 451.662H45.7819C45.6139 449.552 44.1573 448.376 42.0099 448.189V446.677H40.7961V448.208C38.4807 448.413 36.8748 449.851 36.8748 451.943C36.8748 454.575 38.9288 455.098 40.7961 455.565V459.673C39.7504 459.487 39.2276 458.796 39.1529 457.862H36.8748C36.8748 459.972 38.518 461.223 40.7961 461.429V462.941ZM43.7652 457.731C43.7652 458.702 43.1303 459.487 42.0099 459.673V455.883C43.0183 456.2 43.7652 456.667 43.7652 457.731ZM39.0409 451.83C39.0409 450.691 39.7691 450.075 40.7961 449.944V453.716C39.7878 453.399 39.0409 452.914 39.0409 451.83Z" fill="black"/>
<path d="M49.5803 447.666V455.528H51.597C51.9518 454.519 52.7921 453.829 54.0432 453.829C55.8171 453.829 56.6948 454.837 56.6948 456.611C56.6948 458.292 55.8732 459.543 54.0432 459.543C52.6053 459.543 51.6343 458.796 51.3542 457.638H49.2815C49.5989 459.767 51.2235 461.317 54.0245 461.317C57.1803 461.317 58.7302 459.263 58.7302 456.555C58.7302 454.501 57.7032 452.017 54.3606 452.017C53.1469 452.017 52.0451 452.577 51.541 453.25V449.534H57.7965V447.666H49.5803Z" fill="black"/>
<path d="M61.5063 447.666V455.528H63.5231C63.8779 454.519 64.7182 453.829 65.9693 453.829C67.7433 453.829 68.6209 454.837 68.6209 456.611C68.6209 458.292 67.7993 459.543 65.9693 459.543C64.5315 459.543 63.5604 458.796 63.2803 457.638H61.2075C61.525 459.767 63.1496 461.317 65.9506 461.317C69.1064 461.317 70.6563 459.263 70.6563 456.555C70.6563 454.501 69.6293 452.017 66.2868 452.017C65.073 452.017 63.9712 452.577 63.467 453.25V449.534H69.7226V447.666H61.5063Z" fill="black"/>
<path d="M72.8721 454.333C72.8721 458.291 73.9178 461.279 77.7271 461.279C81.5365 461.279 82.5822 458.291 82.5822 454.333C82.5822 450.449 81.5365 447.461 77.7271 447.461C73.9178 447.461 72.8721 450.449 72.8721 454.333ZM80.4908 454.333C80.4908 457.003 80.2107 459.337 77.7271 459.337C75.2436 459.337 74.9635 457.003 74.9635 454.333C74.9635 451.793 75.2436 449.403 77.7271 449.403C80.2107 449.403 80.4908 451.793 80.4908 454.333Z" fill="black"/>
<path d="M52.205 514.772V510.469H54.457C56.2048 510.469 56.9443 511.276 56.9443 512.637C56.9443 513.948 56.2048 514.772 54.457 514.772H52.205ZM58.5072 512.637C58.5072 510.722 57.2132 509.209 54.457 509.209H50.6755V520.923H52.205V516.032H54.457C57.3644 516.032 58.5072 514.419 58.5072 512.637Z" fill="#53C48A"/>
<path d="M59.8362 516.284C59.8362 519.141 61.7353 521.074 64.1889 521.074C65.8863 521.074 67.0796 520.2 67.6341 519.208V520.923H69.1803V511.713H67.6341V513.394C67.0964 512.436 65.9199 511.562 64.2057 511.562C61.7353 511.562 59.8362 513.41 59.8362 516.284ZM67.6341 516.301C67.6341 518.469 66.1888 519.73 64.5082 519.73C62.8276 519.73 61.3991 518.452 61.3991 516.284C61.3991 514.116 62.8276 512.889 64.5082 512.889C66.1888 512.889 67.6341 514.167 67.6341 516.301Z" fill="#53C48A"/>
<path d="M75.2609 519.175L72.3703 511.713H70.6729L74.387 520.822L72.5719 525.258H74.1517L79.6977 511.713H78.1179L75.2609 519.175Z" fill="#53C48A"/>
<path d="M92.4545 520.923H93.9671V515.494C93.9671 512.856 92.3369 511.545 90.2025 511.545C88.9589 511.545 87.8497 512.066 87.2447 513.024V511.713H85.7153V520.923H87.2447V515.83C87.2447 513.847 88.3203 512.873 89.8832 512.873C91.4294 512.873 92.4545 513.831 92.4545 515.713V520.923Z" fill="#53C48A"/>
<path d="M100.381 512.856C101.961 512.856 103.305 513.847 103.288 515.646H97.4733C97.6414 513.847 98.885 512.856 100.381 512.856ZM104.683 518.082H103.036C102.7 519.074 101.826 519.78 100.448 519.78C98.885 519.78 97.5742 518.755 97.4565 516.889H104.818C104.851 516.57 104.868 516.301 104.868 515.965C104.868 513.444 103.12 511.562 100.448 511.562C97.759 511.562 95.8936 513.394 95.8936 516.301C95.8936 519.225 97.8262 521.074 100.448 521.074C102.734 521.074 104.213 519.763 104.683 518.082Z" fill="#53C48A"/>
<path d="M111.693 520.922H113.424L110.449 516.267L113.407 511.713H111.81L109.727 515.124L107.542 511.713H105.811L108.785 516.351L105.811 520.922H107.407L109.508 517.494L111.693 520.922Z" fill="#53C48A"/>
<path d="M115.265 518.402C115.265 520.25 116.189 520.922 117.82 520.922H119.198V519.628H118.072C117.13 519.628 116.794 519.309 116.794 518.402V512.973H119.198V511.713H116.794V509.394H115.265V511.713H114.072V512.973H115.265V518.402Z" fill="#53C48A"/>
<path d="M127.06 513.41V511.713H125.531V525.292H127.06V519.225C127.632 520.166 128.825 521.074 130.506 521.074C132.976 521.074 134.875 519.141 134.875 516.284C134.875 513.41 132.976 511.562 130.506 511.562C128.825 511.562 127.615 512.436 127.06 513.41ZM133.312 516.284C133.312 518.452 131.884 519.73 130.186 519.73C128.522 519.73 127.06 518.469 127.06 516.301C127.06 514.167 128.522 512.889 130.186 512.889C131.884 512.889 133.312 514.116 133.312 516.284Z" fill="#53C48A"/>
<path d="M136.316 516.284C136.316 519.141 138.215 521.074 140.669 521.074C142.367 521.074 143.56 520.2 144.114 519.208V520.923H145.661V511.713H144.114V513.394C143.577 512.436 142.4 511.562 140.686 511.562C138.215 511.562 136.316 513.41 136.316 516.284ZM144.114 516.301C144.114 518.469 142.669 519.73 140.988 519.73C139.308 519.73 137.879 518.452 137.879 516.284C137.879 514.116 139.308 512.889 140.988 512.889C142.669 512.889 144.114 514.167 144.114 516.301Z" fill="#53C48A"/>
<path d="M151.741 519.175L148.85 511.713H147.153L150.867 520.822L149.052 525.258H150.632L156.178 511.713H154.598L151.741 519.175Z" fill="#53C48A"/>
<path d="M171.009 520.923H172.521V515.494C172.521 512.856 170.891 511.545 168.79 511.545C167.379 511.545 166.068 512.268 165.53 513.595C164.925 512.217 163.664 511.545 162.152 511.545C160.942 511.545 159.849 512.066 159.244 513.041V511.713H157.715V520.923H159.244V515.847C159.244 513.864 160.303 512.873 161.849 512.873C163.362 512.873 164.37 513.831 164.37 515.713V520.923H165.883V515.847C165.883 513.864 166.942 512.873 168.488 512.873C170 512.873 171.009 513.831 171.009 515.713V520.923Z" fill="#53C48A"/>
<path d="M178.946 512.856C180.526 512.856 181.87 513.847 181.854 515.646H176.039C176.207 513.847 177.45 512.856 178.946 512.856ZM183.249 518.082H181.602C181.265 519.074 180.391 519.78 179.013 519.78C177.45 519.78 176.14 518.755 176.022 516.889H183.383C183.417 516.57 183.433 516.301 183.433 515.965C183.433 513.444 181.686 511.562 179.013 511.562C176.324 511.562 174.459 513.394 174.459 516.301C174.459 519.225 176.392 521.074 179.013 521.074C181.299 521.074 182.778 519.763 183.249 518.082Z" fill="#53C48A"/>
<path d="M192.191 520.923H193.703V515.494C193.703 512.856 192.073 511.545 189.939 511.545C188.695 511.545 187.586 512.066 186.981 513.024V511.713H185.452V520.923H186.981V515.83C186.981 513.847 188.057 512.873 189.62 512.873C191.166 512.873 192.191 513.831 192.191 515.713V520.923Z" fill="#53C48A"/>
<path d="M196.537 518.402C196.537 520.25 197.461 520.922 199.091 520.922H200.469V519.628H199.343C198.402 519.628 198.066 519.309 198.066 518.402V512.973H200.469V511.713H198.066V509.394H196.537V511.713H195.344V512.973H196.537V518.402Z" fill="#53C48A"/>
<path d="M207.269 494.376H43.8772C40.0099 494.376 36.8748 497.511 36.8748 501.378V533.123C36.8748 536.99 40.0099 540.125 43.8772 540.125H207.269C211.136 540.125 214.271 536.99 214.271 533.123V501.378C214.271 497.511 211.136 494.376 207.269 494.376Z" stroke="#53C48A" stroke-width="0.933665"/>
<path d="M329.579 493.909H237.146C233.021 493.909 229.677 497.253 229.677 501.378V533.123C229.677 537.248 233.021 540.592 237.146 540.592H329.579C333.704 540.592 337.048 537.248 337.048 533.123V501.378C337.048 497.253 333.704 493.909 329.579 493.909Z" fill="#53C48A"/>
<path d="M246.715 515.351V511.049H248.967C250.715 511.049 251.455 511.855 251.455 513.217C251.455 514.528 250.715 515.351 248.967 515.351H246.715ZM253.018 513.217C253.018 511.301 251.724 509.788 248.967 509.788H245.186V521.502H246.715V516.612H248.967C251.875 516.612 253.018 514.998 253.018 513.217Z" fill="white"/>
<path d="M254.347 516.864C254.347 519.721 256.246 521.653 258.699 521.653C260.397 521.653 261.59 520.78 262.145 519.788V521.502H263.691V512.292H262.145V513.973C261.607 513.015 260.43 512.141 258.716 512.141C256.246 512.141 254.347 513.99 254.347 516.864ZM262.145 516.881C262.145 519.048 260.699 520.309 259.019 520.309C257.338 520.309 255.91 519.032 255.91 516.864C255.91 514.696 257.338 513.469 259.019 513.469C260.699 513.469 262.145 514.746 262.145 516.881Z" fill="white"/>
<path d="M269.771 519.754L266.881 512.293H265.183L268.897 521.401L267.082 525.838H268.662L274.208 512.293H272.628L269.771 519.754Z" fill="white"/>
<path d="M280.226 521.502H281.756V512.293H280.226V521.502ZM281.016 510.797C281.571 510.797 282.024 510.343 282.024 509.755C282.024 509.167 281.571 508.713 281.016 508.713C280.428 508.713 279.974 509.167 279.974 509.755C279.974 510.343 280.428 510.797 281.016 510.797Z" fill="white"/>
<path d="M291.101 521.502H292.613V516.074C292.613 513.435 290.983 512.124 288.849 512.124C287.605 512.124 286.496 512.645 285.891 513.603V512.292H284.362V521.502H285.891V516.41C285.891 514.427 286.966 513.452 288.529 513.452C290.076 513.452 291.101 514.41 291.101 516.292V521.502Z" fill="white"/>
<path d="M299.878 521.502H301.407V513.553H303.34V512.292H301.407V511.637C301.407 510.444 301.861 509.94 303.239 509.94V508.662C300.886 508.662 299.878 509.587 299.878 511.637V512.292H298.685V513.553H299.878V521.502Z" fill="white"/>
<path d="M313.291 512.293H311.761V517.351C311.761 519.334 310.703 520.309 309.123 520.309C307.577 520.309 306.552 519.351 306.552 517.486V512.293H305.039V517.687C305.039 520.326 306.703 521.637 308.82 521.637C310.047 521.637 311.173 521.099 311.761 520.141V521.502H313.291V512.293Z" fill="white"/>
<path d="M315.873 521.502H317.402V509.066H315.873V521.502Z" fill="white"/>
<path d="M320.009 521.502H321.538V509.066H320.009V521.502Z" fill="white"/>
<path d="M187 476L167.081 441.5L206.919 441.5L187 476Z" fill="url(#paint0_linear)"/>
<rect x="2" y="476" width="369" height="89" rx="15" stroke="url(#paint1_linear)" stroke-width="2.5" stroke-dasharray="5 5"/>
<defs>
<filter id="filter0_d" x="482.254" y="92.6655" width="275.491" height="40.0714" filterUnits="userSpaceOnUse" color-interpolation-filters="sRGB">
<feFlood flood-opacity="0" result="BackgroundImageFix"/>
<feColorMatrix in="SourceAlpha" type="matrix" values="0 0 0 0 0 0 0 0 0 0 0 0 0 0 0 0 0 0 127 0" result="hardAlpha"/>
<feOffset/>
<feGaussianBlur stdDeviation="1.66964"/>
<feColorMatrix type="matrix" values="0 0 0 0 0.32549 0 0 0 0 0.768627 0 0 0 0 0.541176 0 0 0 1 0"/>
<feBlend mode="normal" in2="BackgroundImageFix" result="effect1_dropShadow"/>
<feBlend mode="normal" in="SourceGraphic" in2="effect1_dropShadow" result="shape"/>
</filter>
<linearGradient id="paint0_linear" x1="164" y1="476" x2="210.807" y2="429.737" gradientUnits="userSpaceOnUse">
<stop stop-color="#FF7F7F"/>
<stop offset="1" stop-color="#FFD17F"/>
</linearGradient>
<linearGradient id="paint1_linear" x1="371" y1="476" x2="329.282" y2="646.955" gradientUnits="userSpaceOnUse">
<stop stop-color="#DD7C13"/>
<stop offset="1" stop-color="#DD1313"/>
</linearGradient>
<clipPath id="clip0">
<rect width="345.456" height="563" fill="white" transform="translate(14)"/>
</clipPath>
</defs>
</svg>
