<svg width="477" height="456" viewBox="0 0 477 456" fill="none" xmlns="http://www.w3.org/2000/svg">
<path d="M237.497 454.774L462.444 324.906C465.098 323.373 465.098 320.886 462.444 319.353L278.107 212.916C276.617 212.16 274.97 211.766 273.299 211.766C271.628 211.766 269.98 212.16 268.49 212.916L43.5555 342.84C40.8904 344.372 40.8904 346.859 43.5555 348.392L227.892 454.829C229.385 455.575 231.033 455.959 232.701 455.949C234.37 455.939 236.013 455.537 237.497 454.774Z" fill="#E0E0E0"/>
<path d="M59.48 304.495C58.736 295.245 54.5051 280.065 43.7448 265.629C32.2404 250.161 18.2042 240.477 7.78807 245.008C-1.91736 249.228 1.75827 262.62 18.4707 275.834C30.1861 285.118 42.3456 297.178 48.8751 311.758L59.48 330.269V304.495Z" fill="#8EDCA4"/>
<g opacity="0.2">
<path opacity="0.2" d="M59.48 304.495C58.736 295.245 54.5051 280.065 43.7448 265.629C32.2404 250.161 18.2042 240.477 7.78807 245.008C-1.91736 249.228 1.75827 262.62 18.4707 275.834C30.1861 285.118 42.3456 297.178 48.8751 311.758L59.48 330.269V304.495Z" fill="black"/>
</g>
<path d="M58.5477 311.547C58.412 311.548 58.2792 311.507 58.1678 311.43C58.0564 311.352 57.9719 311.242 57.9259 311.114C48.6424 285.474 29.2205 259.522 12.819 250.761C12.6659 250.678 12.5512 250.539 12.4993 250.373C12.4475 250.207 12.4625 250.027 12.5413 249.872C12.626 249.718 12.7672 249.603 12.935 249.552C13.1028 249.5 13.2842 249.515 13.4408 249.595C30.0977 258.478 49.7529 284.752 59.1585 310.67C59.1886 310.751 59.2025 310.837 59.1993 310.923C59.196 311.009 59.1758 311.094 59.1396 311.173C59.1035 311.251 59.0523 311.322 58.9888 311.38C58.9253 311.439 58.8509 311.484 58.7698 311.514C58.6988 311.54 58.6232 311.551 58.5477 311.547Z" fill="white"/>
<path d="M63.5333 348.581C58.1506 352.81 51.7521 355.551 44.9775 356.532C33.2843 358.375 28.1207 352.789 28.1207 352.789C28.1207 352.789 32.7291 341.818 39.3697 338.742C39.3697 338.742 28.1096 341.041 19.0815 347.071C19.0815 347.071 11.9413 347.182 9.08739 336.277C9.08739 336.277 13.3182 329.725 27.5099 326.183C27.5099 326.183 18.8705 323.962 6.41117 327.182C5.47839 327.549 1.50294 313.468 0.292534 306.972C-0.917868 300.476 1.70282 300.531 6.76652 299.199C11.8302 297.866 29.0868 296.978 32.3071 299.776C35.5275 302.574 37.0932 312.091 37.0932 312.091C37.6743 308.292 37.7825 304.435 37.4152 300.609C41.7244 300.394 46.0388 300.912 50.1744 302.141C55.8711 304.129 55.5047 306.905 55.5047 311.025C55.5274 315.197 54.9553 319.351 53.8056 323.362C53.8056 323.362 57.7367 319.953 57.8699 307.416C57.8699 307.416 65.5654 314.001 68.6525 319.631C71.7396 325.261 70.9512 340.141 63.5333 348.581Z" fill="#8EDCA4"/>
<path d="M63.5338 349.236C63.4119 349.227 63.2938 349.189 63.1895 349.126C63.0852 349.062 62.9976 348.974 62.9342 348.87C49.4754 329.503 18.4269 306.494 5.86757 304.051C5.69724 304.014 5.54792 303.912 5.4507 303.767C5.35348 303.623 5.31586 303.446 5.34566 303.274C5.38061 303.105 5.48011 302.955 5.62311 302.858C5.76611 302.761 5.94139 302.723 6.11188 302.752C18.8822 305.24 50.8523 327.804 64.1223 348.281C64.1649 348.358 64.1906 348.443 64.1979 348.531C64.2051 348.619 64.1936 348.707 64.1642 348.79C64.1348 348.873 64.0882 348.948 64.0274 349.012C63.9666 349.075 63.893 349.125 63.8114 349.158C63.7261 349.205 63.6311 349.232 63.5338 349.236Z" fill="white"/>
<path d="M429.764 295.423L420.092 289.87C420.092 289.87 415.45 264.33 418.926 242.32C423.8 211.427 444.833 200.767 452.473 203.843C460.113 206.919 461.911 216.058 448.108 233.914C439.969 244.486 429.53 266.751 429.764 295.423Z" fill="#8EDCA4"/>
<g opacity="0.2">
<path opacity="0.2" d="M429.764 295.423L420.092 289.87C420.092 289.87 415.45 264.33 418.926 242.32C423.8 211.427 444.833 200.767 452.473 203.843C460.113 206.919 461.911 216.058 448.108 233.914C439.969 244.486 429.53 266.751 429.764 295.423Z" fill="black"/>
</g>
<path d="M426.254 283.152H426.354C426.534 283.124 426.696 283.028 426.806 282.883C426.916 282.738 426.965 282.555 426.943 282.375C422.945 253.447 434.572 221.755 447.642 208.984C447.773 208.856 447.848 208.681 447.85 208.498C447.852 208.315 447.781 208.138 447.653 208.007C447.525 207.876 447.35 207.801 447.167 207.799C446.983 207.797 446.807 207.868 446.676 207.996C433.35 220.999 421.513 253.203 425.577 282.563C425.599 282.727 425.68 282.878 425.804 282.986C425.929 283.094 426.089 283.153 426.254 283.152Z" fill="white"/>
<path d="M456.605 310.924C458.126 311.802 461.28 309.892 462.479 309.081C464.545 307.676 466.216 305.764 467.332 303.529C468.581 300.986 469.007 298.118 468.553 295.322C468.304 293.846 467.955 292.388 467.509 290.958C467.109 289.548 466.699 288.138 466.288 286.716C465.795 285.351 465.587 283.9 465.677 282.452C466.043 279.554 468.62 277.522 470.952 275.789C473.539 273.857 476.226 271.347 476.215 267.805C476.028 265.099 474.946 262.532 473.139 260.509C471.474 258.388 469.497 256.523 467.987 254.302C466.799 252.745 466.18 250.829 466.232 248.872C466.397 247.676 466.797 246.525 467.409 245.485C468.642 243.264 470.274 241.132 471.118 238.7C471.962 236.268 471.851 233.225 469.941 231.471C468.375 230.038 466.055 229.838 463.945 229.983C461.974 230.229 460.079 230.9 458.392 231.948C452.84 235.024 449.697 241.587 443.812 243.952C441.591 244.874 439.059 245.063 436.705 245.696C434.351 246.329 431.93 247.528 430.831 249.716C428.676 254.024 432.685 259.332 431.164 263.907C429.82 267.949 425.889 269.46 423.679 273.146C422.78 274.757 422.418 276.613 422.647 278.443C422.834 281.541 423.587 284.578 424.868 287.405C426.308 290.208 427.953 292.903 429.787 295.467C429.854 295.511 456.36 310.791 456.605 310.924Z" fill="#8EDCA4"/>
<path d="M440.902 302.563C440.994 302.56 441.085 302.539 441.168 302.501C441.252 302.463 441.328 302.409 441.391 302.342C441.453 302.275 441.503 302.196 441.535 302.11C441.567 302.024 441.583 301.933 441.58 301.841C440.469 274.468 453.339 244.241 462.678 235.458C462.812 235.332 462.891 235.159 462.897 234.976C462.904 234.793 462.837 234.614 462.712 234.48C462.587 234.346 462.413 234.268 462.23 234.261C462.047 234.255 461.869 234.322 461.735 234.447C452.162 243.409 439.003 274.135 440.147 301.897C440.151 301.99 440.174 302.082 440.215 302.167C440.256 302.252 440.313 302.328 440.383 302.39C440.454 302.452 440.536 302.5 440.625 302.529C440.714 302.559 440.809 302.57 440.902 302.563Z" fill="white"/>
<path d="M444.999 270.215C445.065 270.226 445.133 270.226 445.199 270.215C451.683 268.411 458.345 267.324 465.065 266.972C465.247 266.961 465.417 266.879 465.539 266.744C465.662 266.61 465.727 266.433 465.72 266.251C465.721 266.159 465.702 266.068 465.665 265.983C465.628 265.899 465.574 265.824 465.506 265.762C465.437 265.7 465.357 265.654 465.27 265.625C465.182 265.596 465.09 265.586 464.999 265.595C458.163 265.941 451.385 267.036 444.788 268.86C444.615 268.914 444.47 269.034 444.385 269.194C444.3 269.354 444.281 269.541 444.333 269.715C444.372 269.861 444.459 269.989 444.58 270.08C444.701 270.17 444.848 270.218 444.999 270.215Z" fill="white"/>
<path d="M62.3008 344.916C62.4401 346.819 63.0254 348.661 64.0093 350.295C64.9932 351.929 66.348 353.309 67.9641 354.322L226.76 445.979C228.516 446.872 230.459 447.337 232.429 447.337C234.399 447.337 236.341 446.872 238.098 445.979L455.282 320.564C456.993 319.66 458.424 318.306 459.423 316.649C460.422 314.992 460.949 313.093 460.949 311.158C460.949 309.223 460.422 307.325 459.423 305.668C458.424 304.01 456.993 302.657 455.282 301.753L296.486 210.084C294.73 209.197 292.79 208.735 290.823 208.735C288.855 208.735 286.915 209.197 285.159 210.084L67.9641 335.5C66.3466 336.514 64.9909 337.895 64.0069 339.531C63.0229 341.167 62.4384 343.012 62.3008 344.916Z" fill="#37474F"/>
<path d="M232.39 435.075V447.29C230.417 447.333 228.466 446.867 226.726 445.935L67.9305 354.278C66.2692 353.402 64.8702 352.101 63.8765 350.508C62.8828 348.914 62.33 347.086 62.2746 345.208C62.2193 343.331 62.6634 341.473 63.5615 339.824C64.4596 338.175 65.7796 336.794 67.3864 335.822C64.8434 337.643 65.0433 340.264 67.9638 342.007L226.76 433.664C228.486 434.605 230.424 435.09 232.39 435.075Z" fill="#263238"/>
<path d="M56.9815 335.71C55.4052 334.634 54.1031 333.204 53.1794 331.534C52.2557 329.864 51.7361 328.001 51.6624 326.094V136.638C51.771 134.672 52.3401 132.76 53.3238 131.055C54.3076 129.349 55.6784 127.899 57.3257 126.822L274.554 1.40607C276.242 0.517588 278.114 0.036733 280.022 0.0020229C281.929 -0.0326872 283.817 0.379712 285.536 1.20619C287.113 2.28217 288.415 3.71252 289.339 5.38253C290.262 7.05254 290.782 8.91576 290.856 10.8228V200.279C290.748 202.243 290.179 204.154 289.195 205.858C288.211 207.561 286.84 209.009 285.192 210.084L67.9639 335.499C66.2769 336.39 64.4049 336.872 62.4977 336.909C60.5906 336.946 58.7014 336.535 56.9815 335.71Z" fill="#455A64"/>
<path d="M67.297 335.821C65.6711 336.551 63.9051 336.917 62.123 336.892C60.3408 336.867 58.5857 336.452 56.9809 335.677C55.4038 334.605 54.1014 333.177 53.1792 331.508C52.257 329.84 51.7409 327.977 51.6729 326.071V136.638C51.7377 134.676 52.3076 132.763 53.3274 131.086L63.9545 137.204C62.9408 138.885 62.3678 140.795 62.2889 142.757V332.235C62.2889 335.588 64.4765 337.087 67.297 335.821Z" fill="#263238"/>
<path d="M62.3008 142.779V332.235C62.3008 335.844 64.8326 337.31 67.9641 335.499L285.17 210.084C286.818 209.009 288.189 207.561 289.173 205.858C290.157 204.154 290.726 202.243 290.834 200.279V10.823C290.834 7.20286 288.291 5.74815 285.17 7.5471L67.9641 132.963C66.3144 134.038 64.9417 135.487 63.9576 137.193C62.9735 138.899 62.4059 140.813 62.3008 142.779Z" fill="#37474F"/>
<path d="M67.9639 342.051L226.76 433.709C228.518 434.596 230.459 435.058 232.429 435.058C234.398 435.058 236.34 434.596 238.098 433.709L455.281 308.293C458.402 306.483 458.402 303.552 455.281 301.753L296.486 210.084C294.73 209.197 292.79 208.735 290.822 208.735C288.855 208.735 286.915 209.197 285.159 210.084L67.9639 335.5C64.8324 337.31 64.8324 340.264 67.9639 342.051Z" fill="#455A64"/>
<path d="M71.0066 143.479L280.44 22.5938C282.316 21.4834 283.838 22.3828 283.838 24.5593V188.563C283.773 189.742 283.432 190.889 282.842 191.912C282.251 192.934 281.428 193.803 280.44 194.449L71.0066 315.334C69.13 316.444 67.6086 315.533 67.6086 313.368V149.364C67.6731 148.185 68.0143 147.038 68.6047 146.015C69.195 144.993 70.0179 144.124 71.0066 143.479Z" fill="#8EDCA4"/>
<path opacity="0.9" d="M71.0066 143.479L280.44 22.5938C282.316 21.4834 283.838 22.3828 283.838 24.5593V188.563C283.773 189.742 283.432 190.889 282.842 191.912C282.251 192.934 281.428 193.803 280.44 194.449L71.0066 315.334C69.13 316.444 67.6086 315.533 67.6086 313.368V149.364C67.6731 148.185 68.0143 147.038 68.6047 146.015C69.195 144.993 70.0179 144.124 71.0066 143.479Z" fill="white"/>
<path d="M86.397 337.143L288.023 220.733C288.9 220.284 289.87 220.05 290.855 220.05C291.84 220.05 292.81 220.284 293.687 220.733L304.003 226.685C305.569 227.585 305.569 229.051 304.003 229.95L102.343 346.349C101.463 346.792 100.491 347.023 99.506 347.023C98.5206 347.023 97.5489 346.792 96.6688 346.349L86.397 340.408C84.8201 339.508 84.8201 338.042 86.397 337.143Z" fill="#37474F"/>
<path d="M112.972 352.478L313.099 236.99C313.977 236.547 314.947 236.316 315.93 236.316C316.914 236.316 317.884 236.547 318.762 236.99L382.192 273.636C383.757 274.546 383.757 276.012 382.192 276.967L182.309 392.322C181.429 392.765 180.457 392.996 179.471 392.996C178.486 392.996 177.514 392.765 176.634 392.322L112.983 355.843C111.406 354.844 111.406 353.389 112.972 352.478Z" fill="#263238"/>
<path d="M293.709 288.449L300.028 284.807C300.294 284.651 300.272 284.385 300.028 284.218L292.732 280.009C292.576 279.93 292.402 279.888 292.227 279.888C292.051 279.888 291.878 279.93 291.721 280.009L285.37 283.63C285.103 283.785 285.114 284.04 285.37 284.207L292.665 288.427C292.824 288.516 293.003 288.564 293.185 288.568C293.367 288.572 293.547 288.531 293.709 288.449ZM281.25 274.013L274.942 277.655C274.676 277.811 274.687 278.066 274.942 278.233L282.238 282.452C282.395 282.532 282.568 282.574 282.743 282.574C282.919 282.574 283.092 282.532 283.249 282.452L289.567 278.799C289.834 278.644 289.811 278.388 289.567 278.222L282.271 274.002C282.116 273.915 281.943 273.866 281.765 273.861C281.587 273.855 281.41 273.892 281.25 273.969V274.013ZM260.862 285.784L250.168 291.947C249.902 292.102 249.924 292.369 250.168 292.535L257.464 296.744C257.62 296.824 257.793 296.866 257.969 296.866C258.145 296.866 258.318 296.824 258.474 296.744L269.157 290.581C269.423 290.426 269.412 290.159 269.157 289.993L261.85 285.762C261.698 285.682 261.53 285.638 261.359 285.635C261.187 285.631 261.017 285.667 260.862 285.739V285.784ZM272.022 279.332L265.715 282.986C265.448 283.13 265.459 283.396 265.715 283.563L273.01 287.772C273.167 287.852 273.34 287.893 273.516 287.893C273.691 287.893 273.864 287.852 274.021 287.772L280.339 284.129C280.606 283.974 280.584 283.718 280.339 283.552L273.044 279.332C272.889 279.243 272.716 279.193 272.538 279.185C272.36 279.178 272.183 279.213 272.022 279.288V279.332ZM247.259 293.624L240.951 297.266C240.674 297.421 240.696 297.688 240.951 297.855L248.247 302.063C248.403 302.143 248.577 302.185 248.752 302.185C248.928 302.185 249.101 302.143 249.257 302.063L255.565 298.421C255.831 298.265 255.82 297.999 255.565 297.832L248.269 293.624C248.113 293.544 247.94 293.502 247.764 293.502C247.588 293.502 247.415 293.544 247.259 293.624ZM238.031 298.954L231.723 302.596C231.457 302.752 231.468 303.007 231.723 303.174L239.019 307.393C239.175 307.473 239.349 307.515 239.524 307.515C239.7 307.515 239.873 307.473 240.03 307.393L246.337 303.74C246.615 303.585 246.592 303.329 246.337 303.163L239.041 298.954C238.887 298.869 238.716 298.821 238.54 298.816C238.364 298.81 238.19 298.846 238.031 298.921V298.954ZM266.747 316.088L273.055 312.446C273.332 312.291 273.31 312.024 273.055 311.857L265.759 307.649C265.602 307.569 265.429 307.527 265.254 307.527C265.078 307.527 264.905 307.569 264.748 307.649L258.441 311.291C258.174 311.447 258.186 311.713 258.441 311.88L265.737 316.088C265.896 316.163 266.07 316.199 266.246 316.193C266.422 316.188 266.593 316.14 266.747 316.055V316.088ZM257.519 321.385L263.838 317.743C264.104 317.587 264.082 317.321 263.838 317.154L256.542 312.946C256.386 312.866 256.213 312.824 256.037 312.824C255.861 312.824 255.688 312.866 255.532 312.946L249.224 316.588C248.958 316.744 248.969 316.999 249.224 317.165L256.52 321.385C256.675 321.463 256.846 321.504 257.02 321.504C257.193 321.504 257.364 321.463 257.519 321.385ZM248.291 326.715L254.61 323.062C254.876 322.907 254.854 322.651 254.61 322.485L247.314 318.265C247.158 318.185 246.985 318.143 246.809 318.143C246.633 318.143 246.46 318.185 246.304 318.265L239.996 321.907C239.73 322.063 239.741 322.318 239.996 322.485L247.292 326.704C247.446 326.784 247.617 326.827 247.79 326.829C247.964 326.831 248.136 326.792 248.291 326.715ZM239.063 332.035L245.382 328.392C245.648 328.237 245.626 327.981 245.382 327.815L238.075 323.595C237.919 323.515 237.746 323.473 237.57 323.473C237.394 323.473 237.221 323.515 237.065 323.595L230.757 327.215C230.491 327.371 230.502 327.637 230.757 327.804L238.064 332.012C238.217 332.094 238.388 332.138 238.561 332.142C238.735 332.146 238.907 332.109 239.063 332.035ZM284.481 293.768L290.8 290.126C291.066 289.97 291.044 289.715 290.8 289.548L283.493 285.329C283.338 285.25 283.167 285.21 282.993 285.21C282.82 285.21 282.649 285.25 282.494 285.329L276.175 288.982C275.909 289.137 275.92 289.393 276.175 289.559L283.482 293.779C283.638 293.856 283.809 293.894 283.983 293.892C284.156 293.89 284.327 293.848 284.481 293.768ZM275.975 310.725L290.056 302.596C290.322 302.441 290.311 302.185 290.056 302.019L272.288 291.78C272.133 291.702 271.962 291.662 271.789 291.662C271.615 291.662 271.444 291.702 271.289 291.78L264.004 295.989C263.738 296.144 263.749 296.4 264.004 296.566L273.388 301.985C273.677 302.152 273.688 302.419 273.388 302.574L267.569 305.905C267.291 306.061 267.314 306.316 267.569 306.483L274.865 310.691C275.031 310.794 275.221 310.851 275.415 310.857C275.61 310.863 275.803 310.817 275.975 310.725ZM228.803 304.24L222.495 307.893C222.229 308.049 222.24 308.304 222.495 308.471L229.791 312.69C229.948 312.77 230.121 312.812 230.296 312.812C230.472 312.812 230.645 312.77 230.802 312.69L237.12 309.048C237.387 308.893 237.364 308.637 237.12 308.471L229.824 304.251C229.667 304.167 229.493 304.123 229.315 304.121C229.137 304.119 228.962 304.16 228.803 304.24ZM219.575 309.57L213.267 313.212C213.001 313.368 213.012 313.634 213.267 313.801L220.563 318.009C220.72 318.089 220.893 318.131 221.068 318.131C221.244 318.131 221.417 318.089 221.574 318.009L227.892 314.367C228.159 314.212 228.137 313.945 227.892 313.79L220.596 309.57C220.439 309.488 220.263 309.445 220.086 309.445C219.908 309.445 219.733 309.488 219.575 309.57ZM173.469 369.302C173.625 369.382 173.798 369.423 173.974 369.423C174.149 369.423 174.323 369.382 174.479 369.302L180.798 365.659C181.064 365.504 181.042 365.248 180.798 365.082L173.502 360.862C173.345 360.782 173.172 360.741 172.997 360.741C172.821 360.741 172.648 360.782 172.491 360.862L166.184 364.504C165.917 364.66 165.929 364.926 166.184 365.093L173.469 369.302ZM145.763 352.189L139.455 355.81C139.189 355.965 139.2 356.22 139.455 356.387L146.751 360.607C146.907 360.687 147.08 360.728 147.256 360.728C147.432 360.728 147.605 360.687 147.761 360.607L154.069 356.964C154.346 356.809 154.324 356.542 154.069 356.376L146.773 352.167C146.615 352.091 146.441 352.053 146.265 352.057C146.089 352.061 145.917 352.106 145.763 352.189ZM160.62 364.693C160.775 364.771 160.947 364.812 161.12 364.812C161.294 364.812 161.465 364.771 161.62 364.693L167.938 361.051C168.205 360.895 168.183 360.64 167.938 360.473L160.643 356.254C160.486 356.174 160.313 356.132 160.137 356.132C159.962 356.132 159.789 356.174 159.632 356.254L153.325 359.907C153.058 360.063 153.069 360.318 153.325 360.485L160.62 364.693ZM189.759 372.555L196.078 368.913C196.344 368.757 196.333 368.491 196.078 368.324L188.771 364.116C188.616 364.038 188.445 363.997 188.271 363.997C188.097 363.997 187.926 364.038 187.771 364.116L181.453 367.758C181.186 367.914 181.197 368.18 181.453 368.347L188.76 372.555C188.915 372.632 189.087 372.67 189.261 372.669C189.434 372.667 189.605 372.624 189.759 372.544V372.555ZM179.532 377.863C179.687 377.941 179.858 377.982 180.031 377.982C180.205 377.982 180.376 377.941 180.531 377.863L186.85 374.21C187.116 374.054 187.105 373.799 186.85 373.632L179.543 369.424C179.388 369.346 179.217 369.305 179.043 369.305C178.869 369.305 178.698 369.346 178.543 369.424L172.225 373.066C171.958 373.222 171.969 373.477 172.225 373.644L179.532 377.863ZM154.99 346.87L148.683 350.513C148.405 350.668 148.428 350.935 148.683 351.101L155.979 355.31C156.135 355.39 156.308 355.431 156.484 355.431C156.66 355.431 156.833 355.39 156.989 355.31L163.297 351.667C163.574 351.512 163.552 351.257 163.297 351.09L156.001 346.87C155.845 346.789 155.673 346.745 155.497 346.743C155.321 346.741 155.148 346.781 154.99 346.859V346.87ZM201.13 320.219L194.812 323.862C194.545 324.017 194.556 324.272 194.812 324.439L202.118 328.659C202.273 328.737 202.445 328.778 202.618 328.778C202.792 328.778 202.963 328.737 203.118 328.659L209.436 325.005C209.703 324.85 209.692 324.594 209.436 324.428L202.13 320.208C201.969 320.14 201.795 320.111 201.622 320.122C201.448 320.134 201.28 320.186 201.13 320.275V320.219ZM164.218 341.518L157.9 345.171C157.633 345.327 157.656 345.582 157.9 345.749L165.196 349.968C165.352 350.048 165.525 350.09 165.701 350.09C165.877 350.09 166.05 350.048 166.206 349.968L172.514 346.326C172.78 346.171 172.769 345.915 172.514 345.749L165.218 341.529C165.063 341.451 164.892 341.41 164.718 341.41C164.545 341.41 164.373 341.451 164.218 341.529V341.518ZM210.347 314.867L204.04 318.509C203.773 318.665 203.784 318.92 204.04 319.087L211.346 323.306C211.501 323.384 211.672 323.425 211.846 323.425C212.02 323.425 212.191 323.384 212.346 323.306L218.664 319.664C218.931 319.509 218.909 319.242 218.664 319.075L211.357 314.867C211.198 314.792 211.024 314.756 210.848 314.762C210.673 314.768 210.501 314.815 210.347 314.9V314.867ZM191.891 325.549L185.584 329.158C185.317 329.314 185.328 329.58 185.584 329.747L192.89 333.956C193.047 334.036 193.22 334.077 193.396 334.077C193.571 334.077 193.745 334.036 193.901 333.956L200.208 330.313C200.475 330.158 200.464 329.902 200.208 329.736L192.902 325.516C192.743 325.441 192.568 325.405 192.392 325.411C192.217 325.417 192.045 325.464 191.891 325.549ZM182.663 330.88L176.345 334.522C176.078 334.677 176.1 334.944 176.345 335.111L183.64 339.319C183.797 339.399 183.97 339.441 184.146 339.441C184.321 339.441 184.494 339.399 184.651 339.319L190.958 335.677C191.225 335.521 191.214 335.255 190.958 335.088L183.663 330.88C183.509 330.803 183.34 330.764 183.168 330.764C182.997 330.764 182.828 330.803 182.674 330.88H182.663ZM173.435 336.21L167.117 339.852C166.85 340.008 166.872 340.263 167.117 340.43L174.412 344.649C174.569 344.729 174.742 344.771 174.918 344.771C175.093 344.771 175.267 344.729 175.423 344.649L181.73 340.996C181.997 340.852 181.986 340.585 181.73 340.419L174.435 336.21C174.281 336.134 174.112 336.094 173.94 336.094C173.769 336.094 173.6 336.134 173.446 336.21H173.435ZM220.596 342.695L226.915 339.042C227.182 338.897 227.17 338.631 226.915 338.464L219.608 334.255C219.453 334.177 219.282 334.137 219.108 334.137C218.935 334.137 218.764 334.177 218.609 334.255L212.29 337.898C212.024 338.053 212.035 338.309 212.29 338.475L219.597 342.695C219.754 342.775 219.927 342.817 220.102 342.817C220.278 342.817 220.451 342.775 220.608 342.695H220.596ZM301.66 262.187L295.342 265.862C295.064 266.018 295.086 266.284 295.342 266.451L302.637 270.659C302.794 270.739 302.967 270.781 303.143 270.781C303.318 270.781 303.491 270.739 303.648 270.659L309.955 267.017C310.222 266.862 310.211 266.606 309.955 266.44L302.66 262.22C302.506 262.135 302.334 262.087 302.158 262.082C301.983 262.076 301.808 262.112 301.649 262.187H301.66ZM290.489 268.638L284.181 272.281C283.904 272.436 283.926 272.692 284.181 272.858L291.477 277.078C291.634 277.158 291.807 277.199 291.982 277.199C292.158 277.199 292.331 277.158 292.488 277.078L298.795 273.436C299.073 273.28 299.051 273.014 298.795 272.847L291.499 268.638C291.342 268.557 291.166 268.514 290.989 268.514C290.811 268.514 290.636 268.557 290.478 268.638H290.489ZM310.888 256.856L304.57 260.51C304.303 260.665 304.325 260.921 304.57 261.087L311.865 265.307C312.022 265.387 312.195 265.429 312.371 265.429C312.546 265.429 312.719 265.387 312.876 265.307L319.183 261.665C319.45 261.509 319.439 261.254 319.183 261.087L311.887 256.867C311.732 256.786 311.559 256.742 311.384 256.74C311.208 256.738 311.034 256.778 310.877 256.856H310.888ZM263.138 306.105L269.457 302.463C269.723 302.308 269.701 302.052 269.457 301.886L262.161 297.666C262.005 297.586 261.831 297.544 261.656 297.544C261.48 297.544 261.307 297.586 261.151 297.666L254.843 301.319C254.577 301.475 254.588 301.73 254.843 301.897L262.139 306.116C262.292 306.189 262.459 306.226 262.629 306.224C262.798 306.222 262.965 306.182 263.116 306.105H263.138ZM321.127 251.559C320.972 251.481 320.8 251.441 320.627 251.441C320.453 251.441 320.282 251.481 320.127 251.559L313.809 255.202C313.542 255.357 313.564 255.613 313.809 255.779L321.104 259.999C321.261 260.079 321.434 260.121 321.61 260.121C321.785 260.121 321.958 260.079 322.115 259.999L328.422 256.346C328.689 256.19 328.678 255.935 328.422 255.768L321.127 251.559ZM229.858 337.365L236.176 333.722C236.443 333.567 236.432 333.3 236.176 333.134L228.869 328.925C228.714 328.847 228.543 328.806 228.37 328.806C228.196 328.806 228.025 328.847 227.87 328.925L221.551 332.568C221.285 332.723 221.296 332.99 221.551 333.145L228.858 337.365C229.01 337.439 229.178 337.478 229.347 337.478C229.516 337.478 229.683 337.439 229.836 337.365H229.858ZM343.014 272.036L349.321 268.394C349.588 268.239 349.576 267.972 349.321 267.806L341.97 263.641C341.813 263.561 341.64 263.52 341.465 263.52C341.289 263.52 341.116 263.561 340.959 263.641L334.641 267.284C334.374 267.439 334.396 267.706 334.641 267.872L341.937 272.081C342.102 272.162 342.285 272.2 342.47 272.192C342.654 272.184 342.833 272.131 342.991 272.036H343.014ZM323.359 271.348L329.666 267.694C329.932 267.539 329.921 267.284 329.666 267.117L322.37 262.897C322.214 262.817 322.041 262.776 321.865 262.776C321.689 262.776 321.516 262.817 321.36 262.897L315.052 266.54C314.775 266.695 314.797 266.95 315.052 267.117L322.348 271.337C322.501 271.415 322.669 271.456 322.841 271.458C323.012 271.46 323.182 271.422 323.336 271.348H323.359ZM331.565 257.578C331.408 257.498 331.235 257.457 331.06 257.457C330.884 257.457 330.711 257.498 330.554 257.578L324.236 261.22C323.969 261.376 323.991 261.642 324.236 261.798L331.532 266.018C331.688 266.098 331.861 266.139 332.037 266.139C332.212 266.139 332.386 266.098 332.542 266.018L338.849 262.375C339.116 262.22 339.105 261.953 338.849 261.787L331.565 257.578ZM333.508 256.468L351.276 266.695C351.432 266.775 351.605 266.817 351.781 266.817C351.956 266.817 352.13 266.775 352.286 266.695L358.593 263.053C358.86 262.897 358.849 262.642 358.593 262.475L340.826 252.237C340.671 252.159 340.5 252.118 340.326 252.118C340.153 252.118 339.982 252.159 339.827 252.237L333.442 255.868C333.175 256.024 333.197 256.29 333.486 256.457L333.508 256.468ZM312.098 268.216L305.791 271.87C305.513 272.014 305.536 272.281 305.791 272.447L313.087 276.656C313.243 276.736 313.416 276.777 313.592 276.777C313.768 276.777 313.941 276.736 314.097 276.656L320.405 273.014C320.682 272.858 320.66 272.603 320.405 272.436L313.109 268.216C312.951 268.131 312.774 268.085 312.594 268.083C312.414 268.082 312.236 268.123 312.076 268.205L312.098 268.216ZM242.639 308.304L236.31 311.946C236.043 312.102 236.054 312.357 236.31 312.524L243.616 316.744C243.771 316.822 243.942 316.862 244.116 316.862C244.29 316.862 244.461 316.822 244.616 316.744L250.934 313.101C251.201 312.946 251.179 312.679 250.934 312.513L243.627 308.304C243.474 308.228 243.305 308.188 243.133 308.188C242.962 308.188 242.793 308.228 242.639 308.304ZM332.753 277.344C332.909 277.424 333.083 277.466 333.258 277.466C333.434 277.466 333.607 277.424 333.764 277.344L340.071 273.702C340.349 273.547 340.326 273.28 340.071 273.114L332.775 268.905C332.619 268.825 332.446 268.783 332.27 268.783C332.094 268.783 331.921 268.825 331.765 268.905L325.424 272.525C325.146 272.68 325.169 272.936 325.424 273.102L332.753 277.344ZM251.856 302.974L245.549 306.616C245.282 306.772 245.293 307.038 245.549 307.205L252.855 311.413C253.01 311.491 253.182 311.532 253.355 311.532C253.529 311.532 253.7 311.491 253.855 311.413L260.173 307.771C260.44 307.616 260.418 307.349 260.173 307.194L252.878 302.974C252.72 302.892 252.545 302.849 252.367 302.849C252.189 302.849 252.014 302.892 251.856 302.974ZM182.696 363.982C182.853 364.062 183.026 364.104 183.202 364.104C183.377 364.104 183.551 364.062 183.707 363.982L190.014 360.329C190.292 360.174 190.27 359.918 190.014 359.752L182.719 355.532C182.562 355.452 182.389 355.41 182.213 355.41C182.038 355.41 181.865 355.452 181.708 355.532L175.367 359.141C175.09 359.296 175.112 359.552 175.367 359.718L182.696 363.982ZM168.816 350.924L162.508 354.566C162.242 354.721 162.253 354.977 162.508 355.143L169.804 359.363C169.96 359.443 170.134 359.485 170.309 359.485C170.485 359.485 170.658 359.443 170.815 359.363L177.133 355.71C177.4 355.554 177.377 355.299 177.133 355.132L169.837 350.912C169.679 350.832 169.503 350.792 169.325 350.793C169.147 350.795 168.973 350.84 168.816 350.924ZM192.935 358.697L199.242 355.054C199.509 354.899 199.498 354.632 199.242 354.466L191.891 350.257C191.735 350.177 191.561 350.136 191.386 350.136C191.21 350.136 191.037 350.177 190.881 350.257L184.562 353.9C184.296 354.055 184.318 354.31 184.562 354.477L191.858 358.697C192.024 358.785 192.211 358.829 192.399 358.825C192.588 358.821 192.772 358.769 192.935 358.674V358.697ZM202.163 353.367L208.47 349.724C208.737 349.569 208.726 349.302 208.47 349.147L201.175 344.927C201.018 344.847 200.845 344.805 200.669 344.805C200.494 344.805 200.32 344.847 200.164 344.927L193.845 348.569C193.579 348.725 193.601 348.991 193.845 349.158L201.141 353.367C201.301 353.445 201.477 353.484 201.655 353.48C201.833 353.476 202.007 353.43 202.163 353.344V353.367ZM211.391 348.036L217.698 344.394C217.965 344.239 217.954 343.983 217.698 343.817L210.391 339.597C210.236 339.519 210.065 339.478 209.892 339.478C209.718 339.478 209.547 339.519 209.392 339.597L202.996 343.206C202.729 343.361 202.751 343.617 202.996 343.783L210.291 347.992C210.455 348.094 210.642 348.152 210.835 348.16C211.028 348.168 211.219 348.125 211.391 348.036ZM178.077 345.616L171.77 349.258C171.503 349.413 171.514 349.669 171.77 349.835L179.065 354.055C179.222 354.135 179.395 354.177 179.571 354.177C179.746 354.177 179.919 354.135 180.076 354.055L186.394 350.413C186.661 350.257 186.639 349.991 186.394 349.824L179.099 345.616C178.938 345.525 178.758 345.475 178.574 345.471C178.39 345.467 178.208 345.509 178.044 345.593L178.077 345.616ZM187.305 340.285L180.997 343.928C180.72 344.083 180.742 344.35 180.997 344.516L188.293 348.725C188.45 348.805 188.623 348.846 188.798 348.846C188.974 348.846 189.147 348.805 189.304 348.725L195.611 345.082C195.889 344.927 195.867 344.672 195.611 344.505L188.315 340.285C188.157 340.196 187.978 340.148 187.796 340.144C187.614 340.14 187.434 340.181 187.272 340.263L187.305 340.285ZM224.217 318.976L217.898 322.618C217.632 322.773 217.643 323.04 217.898 323.206L225.205 327.415C225.36 327.493 225.531 327.534 225.705 327.534C225.878 327.534 226.049 327.493 226.204 327.415L232.523 323.773C232.789 323.617 232.778 323.362 232.523 323.195L225.216 318.976C225.059 318.888 224.882 318.841 224.702 318.837C224.522 318.833 224.344 318.873 224.183 318.953L224.217 318.976ZM214.989 324.306L208.67 327.948C208.404 328.104 208.426 328.37 208.67 328.537L215.966 332.745C216.122 332.825 216.295 332.867 216.471 332.867C216.647 332.867 216.82 332.825 216.976 332.745L223.284 329.103C223.55 328.947 223.539 328.681 223.284 328.514L215.977 324.306C215.821 324.221 215.647 324.174 215.469 324.17C215.291 324.166 215.115 324.205 214.955 324.284L214.989 324.306ZM233.411 313.612L227.093 317.254C226.826 317.41 226.837 317.665 227.093 317.832L234.4 322.052C234.555 322.13 234.726 322.17 234.899 322.17C235.073 322.17 235.244 322.13 235.399 322.052L241.717 318.398C241.984 318.243 241.973 317.987 241.717 317.821L234.411 313.601C234.255 313.525 234.083 313.486 233.91 313.488C233.736 313.49 233.565 313.532 233.411 313.612ZM196.499 334.933L190.192 338.586C189.914 338.742 189.937 338.997 190.192 339.164L197.488 343.383C197.644 343.463 197.817 343.505 197.993 343.505C198.169 343.505 198.342 343.463 198.498 343.383L204.806 339.741C205.072 339.586 205.061 339.33 204.806 339.164L197.51 334.944C197.354 334.862 197.182 334.819 197.006 334.817C196.83 334.815 196.657 334.855 196.499 334.933ZM205.727 329.614L199.409 333.256C199.142 333.412 199.165 333.667 199.409 333.833L206.705 338.053C206.861 338.133 207.034 338.175 207.21 338.175C207.386 338.175 207.559 338.133 207.715 338.053L214.023 334.4C214.289 334.255 214.278 333.989 214.023 333.822L206.727 329.614C206.572 329.536 206.401 329.495 206.227 329.495C206.054 329.495 205.882 329.536 205.727 329.614ZM198.987 367.214L205.305 363.572C205.572 363.416 205.55 363.161 205.305 362.994L197.999 358.774C197.844 358.696 197.672 358.656 197.499 358.656C197.325 358.656 197.154 358.696 196.999 358.774L190.681 362.417C190.414 362.572 190.425 362.839 190.681 363.005L197.988 367.214C198.143 367.292 198.314 367.333 198.487 367.333C198.661 367.333 198.832 367.292 198.987 367.214ZM144.841 361.75L137.545 357.531C137.389 357.451 137.216 357.409 137.04 357.409C136.864 357.409 136.691 357.451 136.535 357.531L130.227 361.173C129.961 361.328 129.972 361.584 130.227 361.75L137.523 365.97C137.679 366.05 137.853 366.092 138.028 366.092C138.204 366.092 138.377 366.05 138.533 365.97L144.852 362.317C145.152 362.172 145.13 361.917 144.841 361.75ZM158.677 365.804L151.37 361.595C151.215 361.517 151.044 361.476 150.871 361.476C150.697 361.476 150.526 361.517 150.371 361.595L140.654 367.203C140.388 367.358 140.399 367.614 140.654 367.78L147.961 372C148.116 372.078 148.287 372.119 148.461 372.119C148.635 372.119 148.806 372.078 148.961 372L158.677 366.392C158.977 366.237 158.966 365.97 158.677 365.804ZM133.647 353.589L126.374 349.391C126.219 349.313 126.048 349.272 125.874 349.272C125.701 349.272 125.529 349.313 125.374 349.391L117.601 353.833C117.335 353.988 117.346 354.244 117.601 354.41L124.908 358.63C125.063 358.708 125.234 358.749 125.408 358.749C125.581 358.749 125.753 358.708 125.908 358.63L133.681 354.188C133.947 354.033 133.936 353.766 133.647 353.589ZM139.599 350.146C139.756 350.226 139.929 350.268 140.105 350.268C140.28 350.268 140.454 350.226 140.61 350.146L146.917 346.504C147.195 346.348 147.173 346.093 146.917 345.926L139.622 341.707C139.465 341.627 139.292 341.585 139.116 341.585C138.941 341.585 138.768 341.627 138.611 341.707L132.304 345.36C132.026 345.516 132.048 345.771 132.304 345.938L139.599 350.146ZM171.525 370.412L164.229 366.203C164.073 366.123 163.9 366.082 163.724 366.082C163.549 366.082 163.375 366.123 163.219 366.203L151.082 373.21C150.815 373.366 150.826 373.632 151.082 373.799L158.388 378.008C158.543 378.086 158.715 378.126 158.888 378.126C159.062 378.126 159.233 378.086 159.388 378.008L171.536 371.001C171.836 370.856 171.814 370.59 171.525 370.423V370.412ZM177.588 378.963L170.282 374.743C170.127 374.665 169.955 374.624 169.782 374.624C169.608 374.624 169.437 374.665 169.282 374.743L161.509 379.185C161.242 379.34 161.253 379.607 161.509 379.773L168.816 383.982C168.971 384.06 169.142 384.101 169.315 384.101C169.489 384.101 169.66 384.06 169.815 383.982L177.588 379.54C177.888 379.396 177.877 379.129 177.588 378.974V378.963ZM208.204 310.547C208.36 310.627 208.533 310.669 208.709 310.669C208.885 310.669 209.058 310.627 209.214 310.547L215.522 306.894C215.788 306.738 215.777 306.483 215.522 306.316L208.226 302.097C208.07 302.017 207.896 301.975 207.721 301.975C207.545 301.975 207.372 302.017 207.215 302.097L200.897 305.739C200.63 305.894 200.653 306.15 200.897 306.316L208.204 310.547ZM189.748 321.196C189.904 321.276 190.077 321.318 190.253 321.318C190.429 321.318 190.602 321.276 190.758 321.196L197.066 317.554C197.343 317.399 197.321 317.132 197.066 316.966L189.77 312.757C189.614 312.677 189.44 312.635 189.265 312.635C189.089 312.635 188.916 312.677 188.76 312.757L182.452 316.399C182.175 316.555 182.197 316.821 182.452 316.988L189.748 321.196ZM148.827 344.827C148.984 344.907 149.157 344.949 149.333 344.949C149.508 344.949 149.682 344.907 149.838 344.827L156.145 341.174C156.412 341.018 156.401 340.763 156.145 340.596L148.85 336.376C148.693 336.297 148.52 336.255 148.344 336.255C148.169 336.255 147.996 336.297 147.839 336.376L141.521 340.019C141.254 340.174 141.276 340.43 141.521 340.596L148.827 344.827ZM198.976 315.833C199.132 315.913 199.305 315.955 199.481 315.955C199.657 315.955 199.83 315.913 199.986 315.833L206.294 312.191C206.56 312.035 206.549 311.78 206.294 311.613L198.998 307.393C198.842 307.313 198.668 307.272 198.493 307.272C198.317 307.272 198.144 307.313 197.988 307.393L191.68 311.047C191.402 311.191 191.425 311.458 191.68 311.624L198.976 315.833ZM180.52 326.493C180.676 326.573 180.85 326.615 181.025 326.615C181.201 326.615 181.374 326.573 181.53 326.493L187.849 322.851C188.116 322.696 188.093 322.429 187.849 322.263L180.553 318.054C180.397 317.974 180.224 317.932 180.048 317.932C179.872 317.932 179.699 317.974 179.543 318.054L173.235 321.696C172.969 321.852 172.98 322.107 173.235 322.274L180.52 326.493ZM182.663 379.618C182.507 379.538 182.334 379.496 182.158 379.496C181.982 379.496 181.809 379.538 181.653 379.618L171.903 385.248C171.636 385.403 171.658 385.659 171.903 385.825L179.21 390.034C179.366 390.114 179.539 390.156 179.715 390.156C179.891 390.156 180.064 390.114 180.22 390.034L189.926 384.482C190.192 384.326 190.181 384.071 189.926 383.904L182.663 379.618ZM167.283 334.089C167.44 334.169 167.613 334.211 167.789 334.211C167.964 334.211 168.137 334.169 168.294 334.089L174.601 330.447C174.868 330.291 174.857 330.036 174.601 329.869L167.305 325.649C167.149 325.569 166.976 325.528 166.8 325.528C166.625 325.528 166.451 325.569 166.295 325.649L159.976 329.292C159.71 329.447 159.732 329.714 159.976 329.88L167.283 334.089ZM158.055 339.419C158.212 339.499 158.385 339.541 158.561 339.541C158.736 339.541 158.909 339.499 159.066 339.419L165.373 335.777C165.64 335.621 165.629 335.355 165.373 335.188L158.078 330.98C157.921 330.9 157.748 330.858 157.572 330.858C157.397 330.858 157.223 330.9 157.067 330.98L150.715 334.711C150.449 334.866 150.471 335.133 150.715 335.288L158.055 339.419ZM353.596 280.964C353.44 280.885 353.267 280.843 353.091 280.843C352.915 280.843 352.742 280.885 352.586 280.964L337.039 289.937C336.773 290.092 336.784 290.359 337.039 290.526L344.346 294.734C344.501 294.812 344.672 294.853 344.846 294.853C345.02 294.853 345.191 294.812 345.346 294.734L360.892 285.762C361.159 285.606 361.136 285.351 360.892 285.184L353.596 280.964ZM333.197 292.735C333.042 292.657 332.871 292.617 332.697 292.617C332.524 292.617 332.353 292.657 332.198 292.735L325.879 296.378C325.613 296.533 325.624 296.789 325.879 296.955L333.186 301.175C333.341 301.253 333.512 301.294 333.686 301.294C333.859 301.294 334.031 301.253 334.186 301.175L340.504 297.521C340.771 297.366 340.759 297.111 340.504 296.944L333.197 292.735ZM208.215 361.895L214.533 358.241C214.8 358.086 214.778 357.831 214.533 357.664L207.238 353.444C207.081 353.364 206.908 353.323 206.732 353.323C206.557 353.323 206.384 353.364 206.227 353.444L199.92 357.087C199.653 357.242 199.664 357.497 199.92 357.664L207.227 361.884C207.379 361.962 207.548 362.003 207.719 362.005C207.891 362.007 208.06 361.969 208.215 361.895ZM314.752 303.396C314.596 303.316 314.423 303.274 314.247 303.274C314.072 303.274 313.898 303.316 313.742 303.396L307.379 307.016C307.112 307.171 307.135 307.438 307.379 307.604L314.675 311.813C314.831 311.893 315.004 311.935 315.18 311.935C315.356 311.935 315.529 311.893 315.685 311.813L321.993 308.171C322.259 308.015 322.248 307.749 321.993 307.582L314.752 303.396ZM362.824 275.634C362.668 275.554 362.495 275.513 362.319 275.513C362.143 275.513 361.97 275.554 361.814 275.634L355.506 279.288C355.24 279.443 355.251 279.699 355.506 279.865L362.802 284.085C362.959 284.165 363.132 284.206 363.307 284.206C363.483 284.206 363.656 284.165 363.813 284.085L370.131 280.443C370.398 280.287 370.375 280.032 370.131 279.865L362.824 275.634ZM379.348 274.524L361.581 264.285C361.424 264.205 361.251 264.164 361.075 264.164C360.9 264.164 360.726 264.205 360.57 264.285L354.263 267.928C353.985 268.083 354.007 268.339 354.263 268.505L372.03 278.744C372.186 278.823 372.36 278.865 372.535 278.865C372.711 278.865 372.884 278.823 373.041 278.744L379.348 275.09C379.659 274.957 379.637 274.746 379.348 274.524ZM280.273 323.306C280.116 323.226 279.943 323.185 279.767 323.185C279.592 323.185 279.419 323.226 279.262 323.306L271.489 327.748C271.222 327.904 271.233 328.159 271.489 328.326L278.796 332.545C278.951 332.623 279.122 332.664 279.295 332.664C279.469 332.664 279.64 332.623 279.795 332.545L287.568 328.104C287.835 327.959 287.824 327.693 287.568 327.526L280.273 323.306ZM303.592 309.848C303.436 309.768 303.263 309.726 303.087 309.726C302.911 309.726 302.738 309.768 302.582 309.848L292.865 315.455C292.599 315.611 292.621 315.866 292.865 316.033L300.161 320.253C300.317 320.333 300.491 320.374 300.666 320.374C300.842 320.374 301.015 320.333 301.172 320.253L310.877 314.7C311.143 314.545 311.132 314.278 310.877 314.112L303.592 309.848ZM258.907 335.632C258.752 335.554 258.581 335.514 258.408 335.514C258.234 335.514 258.063 335.554 257.908 335.632L205.938 365.615C205.672 365.77 205.694 366.037 205.938 366.203L213.234 370.412C213.391 370.492 213.564 370.534 213.739 370.534C213.915 370.534 214.088 370.492 214.245 370.412L266.203 340.43C266.47 340.274 266.459 340.019 266.203 339.852L258.907 335.632ZM204.04 367.325C203.883 367.245 203.71 367.203 203.534 367.203C203.359 367.203 203.185 367.245 203.029 367.325L195.256 371.767C194.989 371.922 195.011 372.178 195.256 372.344L202.552 376.564C202.708 376.644 202.881 376.686 203.057 376.686C203.232 376.686 203.406 376.644 203.562 376.564L211.335 372.122C211.602 371.967 211.591 371.711 211.335 371.545L204.04 367.325ZM269.557 329.469C269.402 329.391 269.231 329.351 269.057 329.351C268.883 329.351 268.712 329.391 268.557 329.469L260.784 333.911C260.518 334.067 260.529 334.333 260.784 334.489L268.091 338.708C268.246 338.787 268.417 338.827 268.591 338.827C268.764 338.827 268.935 338.787 269.09 338.708L276.864 334.267C277.13 334.111 277.119 333.856 276.864 333.689L269.557 329.469ZM193.324 373.488C193.167 373.408 192.994 373.366 192.818 373.366C192.643 373.366 192.469 373.408 192.313 373.488L184.54 377.93C184.273 378.085 184.296 378.352 184.54 378.507L191.847 382.727C192.003 382.807 192.176 382.849 192.352 382.849C192.528 382.849 192.701 382.807 192.857 382.727L200.63 378.285C200.897 378.13 200.886 377.874 200.63 377.708L193.324 373.488ZM290.933 317.132C290.777 317.052 290.603 317.011 290.428 317.011C290.252 317.011 290.079 317.052 289.923 317.132L282.149 321.574C281.883 321.729 281.905 321.996 282.149 322.163L289.456 326.371C289.613 326.451 289.786 326.493 289.961 326.493C290.137 326.493 290.31 326.451 290.467 326.371L298.24 321.929C298.506 321.774 298.495 321.518 298.24 321.352L290.933 317.132ZM323.969 298.066C323.814 297.987 323.643 297.947 323.47 297.947C323.296 297.947 323.125 297.987 322.97 298.066L316.651 301.719C316.385 301.863 316.407 302.13 316.651 302.296L323.958 306.505C324.113 306.583 324.284 306.624 324.458 306.624C324.631 306.624 324.803 306.583 324.958 306.505L331.276 302.863C331.543 302.707 331.532 302.452 331.276 302.285L323.969 298.066ZM344.191 283.385L350.498 279.743C350.776 279.587 350.754 279.321 350.498 279.154L343.202 274.946C343.046 274.866 342.873 274.824 342.697 274.824C342.522 274.824 342.348 274.866 342.192 274.946L335.885 278.588C335.618 278.744 335.629 279.01 335.885 279.177L343.18 283.385C343.337 283.465 343.51 283.507 343.686 283.507C343.861 283.507 344.034 283.465 344.191 283.385ZM302.937 283.119L309.256 279.476C309.522 279.321 309.5 279.054 309.256 278.888L301.96 274.679C301.804 274.599 301.63 274.558 301.455 274.558C301.279 274.558 301.106 274.599 300.949 274.679L294.642 278.322C294.376 278.477 294.387 278.744 294.642 278.91L301.938 283.119C302.093 283.197 302.264 283.238 302.437 283.238C302.611 283.238 302.782 283.197 302.937 283.119ZM282.027 319.275L300.483 308.615C300.75 308.459 300.738 308.204 300.483 308.038L293.187 303.818C293.031 303.738 292.858 303.696 292.682 303.696C292.506 303.696 292.333 303.738 292.177 303.818L273.721 314.467C273.454 314.623 273.466 314.878 273.721 315.045L281.028 319.264C281.182 319.344 281.353 319.387 281.526 319.389C281.7 319.391 281.871 319.352 282.027 319.275ZM333.952 288.693C334.109 288.773 334.282 288.815 334.458 288.815C334.633 288.815 334.806 288.773 334.963 288.693L341.281 285.04C341.548 284.895 341.526 284.629 341.281 284.462L333.941 280.298C333.785 280.218 333.612 280.177 333.436 280.177C333.26 280.177 333.087 280.218 332.931 280.298L326.623 283.94C326.357 284.096 326.368 284.351 326.623 284.518L333.952 288.693ZM324.536 282.697L330.854 279.043C331.121 278.888 331.098 278.632 330.854 278.466L323.558 274.246C323.402 274.166 323.229 274.125 323.053 274.125C322.877 274.125 322.704 274.166 322.548 274.246L316.24 277.9C315.974 278.055 315.985 278.31 316.24 278.477L323.536 282.697C323.691 282.775 323.862 282.816 324.036 282.816C324.209 282.816 324.381 282.775 324.536 282.697ZM272.799 324.606L279.118 320.952C279.384 320.797 279.373 320.541 279.118 320.375L271.811 316.155C271.656 316.077 271.485 316.036 271.311 316.036C271.138 316.036 270.967 316.077 270.812 316.155L264.493 319.808C264.227 319.964 264.238 320.219 264.493 320.386L271.8 324.606C271.955 324.684 272.126 324.724 272.3 324.724C272.473 324.724 272.644 324.684 272.799 324.606ZM313.564 300.464C313.719 300.542 313.89 300.583 314.064 300.583C314.238 300.583 314.409 300.542 314.564 300.464L320.882 296.822C321.149 296.666 321.138 296.4 320.882 296.244L313.575 292.025C313.42 291.947 313.249 291.906 313.076 291.906C312.902 291.906 312.731 291.947 312.576 292.025L306.269 295.667C306.002 295.822 306.013 296.089 306.269 296.256L313.564 300.464ZM226.671 351.234L232.978 347.592C233.245 347.437 233.222 347.17 232.978 347.004L225.682 342.795C225.526 342.715 225.353 342.673 225.177 342.673C225.001 342.673 224.828 342.715 224.672 342.795L218.364 346.437C218.098 346.593 218.109 346.859 218.364 347.026L225.66 351.234C225.817 351.314 225.99 351.356 226.165 351.356C226.341 351.356 226.514 351.314 226.671 351.234ZM235.899 345.904L242.206 342.262C242.484 342.106 242.461 341.851 242.206 341.684L234.91 337.465C234.754 337.385 234.581 337.343 234.405 337.343C234.229 337.343 234.056 337.385 233.9 337.465L227.592 341.118C227.315 341.274 227.337 341.529 227.592 341.696L234.888 345.904C235.045 345.984 235.218 346.026 235.393 346.026C235.569 346.026 235.742 345.984 235.899 345.904ZM217.432 356.565L223.75 352.922C224.017 352.767 223.994 352.5 223.75 352.334L216.454 348.125C216.298 348.045 216.125 348.004 215.949 348.004C215.774 348.004 215.6 348.045 215.444 348.125L209.137 351.767C208.87 351.923 208.881 352.178 209.137 352.345L216.432 356.565C216.587 356.643 216.758 356.683 216.932 356.683C217.106 356.683 217.277 356.643 217.432 356.565ZM254.343 335.255L260.651 331.613C260.917 331.457 260.906 331.191 260.651 331.024L253.355 326.815C253.199 326.735 253.025 326.694 252.85 326.694C252.674 326.694 252.501 326.735 252.345 326.815L246.026 330.458C245.76 330.613 245.782 330.88 246.026 331.035L253.322 335.255C253.481 335.339 253.658 335.382 253.838 335.382C254.018 335.382 254.195 335.339 254.354 335.255H254.343ZM245.115 340.585L251.423 336.932C251.689 336.776 251.678 336.521 251.423 336.354L244.083 332.146C243.926 332.066 243.753 332.024 243.577 332.024C243.402 332.024 243.229 332.066 243.072 332.146L236.776 335.821C236.509 335.977 236.532 336.232 236.776 336.399L244.072 340.618C244.236 340.701 244.419 340.741 244.603 340.735C244.787 340.729 244.967 340.678 245.127 340.585H245.115ZM263.571 329.925L269.879 326.282C270.145 326.127 270.134 325.872 269.879 325.705L262.572 321.485C262.417 321.407 262.246 321.366 262.072 321.366C261.899 321.366 261.727 321.407 261.572 321.485L255.187 325.105C254.921 325.261 254.943 325.527 255.187 325.694L262.483 329.902C262.649 330.001 262.837 330.055 263.03 330.059C263.223 330.063 263.413 330.017 263.582 329.925H263.571ZM305.769 251.082C305.925 251.162 306.098 251.204 306.274 251.204C306.45 251.204 306.623 251.162 306.779 251.082L313.087 247.44C313.353 247.284 313.342 247.029 313.087 246.862L311.143 245.752C310.987 245.672 310.814 245.63 310.638 245.63C310.463 245.63 310.289 245.672 310.133 245.752L303.826 249.394C303.559 249.55 303.57 249.805 303.826 249.972L305.769 251.082ZM260.373 280.376C260.528 280.454 260.699 280.495 260.873 280.495C261.046 280.495 261.218 280.454 261.373 280.376L267.691 276.734C267.958 276.578 267.947 276.323 267.691 276.156L260.384 271.936C260.229 271.858 260.058 271.818 259.885 271.818C259.711 271.818 259.54 271.858 259.385 271.936L253.066 275.579C252.8 275.734 252.811 276.001 253.066 276.167L260.373 280.376ZM278.829 269.727C278.984 269.805 279.155 269.845 279.329 269.845C279.502 269.845 279.673 269.805 279.828 269.727L286.147 266.084C286.413 265.929 286.391 265.662 286.147 265.496L278.851 261.287C278.695 261.207 278.522 261.165 278.346 261.165C278.17 261.165 277.997 261.207 277.841 261.287L271.533 264.929C271.267 265.085 271.278 265.34 271.533 265.507L278.829 269.727ZM249.124 286.961C249.281 287.041 249.454 287.083 249.629 287.083C249.805 287.083 249.978 287.041 250.135 286.961L256.442 283.319C256.709 283.163 256.698 282.897 256.442 282.73L249.146 278.521C248.99 278.442 248.817 278.4 248.641 278.4C248.465 278.4 248.292 278.442 248.136 278.521L241.828 282.164C241.551 282.319 241.573 282.586 241.828 282.752L249.124 286.961ZM269.623 275.101C269.778 275.179 269.949 275.22 270.123 275.22C270.297 275.22 270.468 275.179 270.623 275.101L276.941 271.448C277.208 271.292 277.197 271.037 276.941 270.87L269.634 266.651C269.479 266.573 269.308 266.532 269.135 266.532C268.961 266.532 268.79 266.573 268.635 266.651L262.283 270.304C262.017 270.46 262.028 270.715 262.283 270.881L269.623 275.101ZM230.668 297.588C230.825 297.668 230.998 297.71 231.174 297.71C231.349 297.71 231.522 297.668 231.679 297.588L237.997 293.946C238.264 293.79 238.242 293.535 237.997 293.368L230.702 289.149C230.545 289.069 230.372 289.027 230.196 289.027C230.021 289.027 229.848 289.069 229.691 289.149L223.384 292.802C223.117 292.957 223.128 293.213 223.384 293.379L230.668 297.588ZM239.896 292.258C240.053 292.338 240.226 292.379 240.402 292.379C240.577 292.379 240.75 292.338 240.907 292.258L247.214 288.604C247.492 288.46 247.47 288.194 247.214 288.027L239.919 283.818C239.762 283.738 239.589 283.697 239.413 283.697C239.238 283.697 239.064 283.738 238.908 283.818L232.601 287.461C232.323 287.616 232.345 287.872 232.601 288.038L239.896 292.258ZM287.391 261.776C287.547 261.856 287.72 261.897 287.896 261.897C288.072 261.897 288.245 261.856 288.401 261.776L294.709 258.133C294.975 257.978 294.964 257.711 294.709 257.545L292.765 256.434C292.609 256.354 292.436 256.313 292.26 256.313C292.084 256.313 291.911 256.354 291.755 256.434L285.447 260.088C285.181 260.243 285.192 260.499 285.447 260.665L287.391 261.776ZM315.074 245.796C315.231 245.876 315.404 245.918 315.58 245.918C315.755 245.918 315.929 245.876 316.085 245.796L322.392 242.143C322.659 241.987 322.648 241.732 322.392 241.565L320.449 240.455C320.293 240.375 320.12 240.333 319.944 240.333C319.768 240.333 319.595 240.375 319.439 240.455L313.131 244.097C312.854 244.253 312.876 244.519 313.131 244.686L315.074 245.796ZM330.41 254.68C330.565 254.758 330.736 254.799 330.91 254.799C331.083 254.799 331.254 254.758 331.409 254.68L337.728 251.038C337.994 250.882 337.983 250.616 337.728 250.449L330.421 246.24C330.266 246.162 330.095 246.122 329.921 246.122C329.748 246.122 329.577 246.162 329.422 246.24L323.103 249.883C322.837 250.038 322.848 250.305 323.103 250.471L330.41 254.68ZM353.419 278.077L359.726 274.435C360.004 274.279 359.982 274.024 359.726 273.858L352.43 269.638C352.274 269.558 352.101 269.516 351.925 269.516C351.749 269.516 351.576 269.558 351.42 269.638L345.135 273.236C344.857 273.391 344.879 273.658 345.135 273.824L352.43 278.033C352.58 278.116 352.748 278.163 352.919 278.171C353.091 278.179 353.262 278.147 353.419 278.077ZM296.563 256.468C296.72 256.548 296.893 256.589 297.068 256.589C297.244 256.589 297.417 256.548 297.574 256.468L303.881 252.825C304.148 252.67 304.136 252.403 303.881 252.237L301.938 251.126C301.781 251.046 301.608 251.005 301.432 251.005C301.257 251.005 301.084 251.046 300.927 251.126L294.587 254.758C294.32 254.913 294.331 255.168 294.587 255.335L296.563 256.468ZM221.44 302.929C221.597 303.009 221.77 303.051 221.946 303.051C222.121 303.051 222.295 303.009 222.451 302.929L228.769 299.287C229.036 299.132 229.014 298.876 228.769 298.71L221.474 294.49C221.317 294.41 221.144 294.368 220.968 294.368C220.793 294.368 220.62 294.41 220.463 294.49L214.1 298.066C213.834 298.221 213.845 298.488 214.1 298.654L221.44 302.929Z" fill="#455A64"/>
<path d="M262.361 358.297L324.658 322.329C325.713 321.793 326.879 321.513 328.062 321.513C329.245 321.513 330.411 321.793 331.465 322.329L367.189 342.95C369.066 344.061 369.066 345.793 367.189 346.87L304.881 382.849C303.827 383.38 302.663 383.657 301.483 383.657C300.303 383.657 299.139 383.38 298.085 382.849L262.361 362.217C260.485 361.14 260.485 359.374 262.361 358.297Z" fill="#263238"/>
<path d="M227.649 167.242L237.421 150.23L200.898 129.02C194.779 125.522 186.34 126.044 177.023 131.43C158.212 142.179 143.032 168.43 143.032 190.029C143.032 200.845 146.83 208.44 153.026 211.961L189.849 233.337L199.843 215.858C214.157 204.787 225.439 185.143 227.649 167.242Z" fill="#455A64"/>
<path d="M213.669 152.729C194.969 163.523 179.811 189.774 179.811 211.372C179.811 232.971 194.969 241.71 213.669 230.916C232.369 220.123 247.527 193.86 247.527 172.273C247.527 150.686 232.369 141.924 213.669 152.729Z" fill="#263238"/>
<path d="M248.071 178.136L257.287 162.012L239.054 151.485C233.257 148.154 225.251 148.653 216.423 153.761C198.655 163.989 184.341 188.863 184.341 209.284C184.341 219.534 187.95 226.73 193.769 230.072L212.292 240.766L221.764 224.198C235.278 213.782 245.972 195.126 248.071 178.136Z" fill="#F5F5F5"/>
<path d="M185.297 199.424C184.634 202.684 184.292 206.002 184.275 209.329C184.275 219.579 187.884 226.774 193.703 230.117L212.225 240.811L221.697 224.243C222.619 223.543 223.519 222.788 224.418 222.022L185.297 199.424Z" fill="#EBEBEB"/>
<path d="M234.811 164.411C217.044 174.649 202.73 199.523 202.73 219.989C202.73 240.455 217.1 248.739 234.811 238.512C252.523 228.284 266.904 203.399 266.904 182.989C266.904 162.578 252.534 154.183 234.811 164.411Z" fill="#E0E0E0"/>
<path d="M392.442 292.058C388.544 294.935 379.871 292.647 379.327 292.514C379.749 292.691 386.501 295.845 388.211 302.597C388.833 305.14 386.845 308.149 385.035 309.382C379.049 313.479 370.21 309.248 365.424 306.65C367.348 308.521 368.831 310.797 369.766 313.313C370.632 316.178 370.121 319.331 367.856 320.808C362.981 323.984 356.285 324.24 334.598 311.236C335.422 312.39 335.938 313.736 336.097 315.145C336.108 315.259 336.108 315.375 336.097 315.489C336.102 316.171 335.946 316.845 335.641 317.455C335.467 317.798 335.246 318.115 334.986 318.399C334.157 319.257 333.126 319.894 331.988 320.253C324.637 322.929 304.971 310.259 291.634 301.919C278.297 293.58 259.431 280.11 250.114 271.482C236.455 258.856 238.565 252.881 225.373 242.365C221.413 239.262 217.246 236.431 212.902 233.893C212.514 233.715 207.716 230.739 203.652 228.185C203.032 225.505 202.73 222.762 202.753 220.012C202.749 218.438 202.838 216.866 203.019 215.303C204.951 195.881 218.455 173.894 234.834 164.444C237.523 162.857 240.414 161.639 243.429 160.824C247.726 163.545 253.734 167.343 254.134 167.609C257.809 170.205 261.747 172.408 265.882 174.183C267.881 175.016 269.824 175.704 271.834 176.337C277.798 178.225 297.564 182.789 308.824 186.953C320.084 191.118 330.456 195.837 334.786 198.602C339.117 201.367 350.888 215.892 358.906 221.955C366.923 228.018 367.789 232.838 360.838 234.17C353.886 235.503 343.781 235.158 335.297 228.84C326.813 222.521 324.115 220.323 321.205 220.523C318.296 220.722 324.692 226.33 328.534 229.906C331.058 232.401 333.397 235.077 335.53 237.912C337.441 240.355 339.539 242.646 341.805 244.764C346.313 248.973 353.942 255.702 361.138 260.133C372.309 267.018 385.268 274.236 390.01 278.633C394.751 283.03 396.472 289.094 392.442 292.058Z" fill="#FFA8A7"/>
<path d="M391.076 288.649C388.367 290.214 384.624 289.637 378.495 287.449C372.365 285.262 357.574 277.566 352.177 274.446C349.101 272.68 337.13 265.684 327.391 260.01C327.262 259.928 327.105 259.9 326.955 259.933C326.805 259.967 326.674 260.058 326.592 260.188C326.509 260.317 326.482 260.474 326.515 260.624C326.548 260.774 326.64 260.905 326.769 260.987C335.309 266.839 345.781 273.946 350.433 276.811C360.849 283.23 369.478 287.472 379.305 292.524C379.305 292.524 388.411 295.045 392.442 292.08C395.041 290.159 395.218 286.95 393.752 283.729C393.738 284.705 393.486 285.662 393.02 286.519C392.554 287.375 391.887 288.106 391.076 288.649Z" fill="#F28F8F"/>
<path d="M383.714 307.094C378.739 308.515 370.388 304.229 367.057 302.519C363.725 300.809 340.617 288.405 336.752 286.084L314.543 272.758C314.415 272.676 314.271 272.62 314.121 272.593C313.971 272.566 313.817 272.568 313.668 272.601C313.519 272.633 313.378 272.695 313.253 272.782C313.128 272.869 313.021 272.98 312.938 273.108C312.856 273.236 312.8 273.38 312.773 273.53C312.746 273.68 312.749 273.834 312.781 273.983C312.814 274.132 312.875 274.273 312.962 274.398C313.049 274.523 313.16 274.63 313.288 274.713C324.693 282.486 338.44 290.115 345.07 293.79C352.12 297.603 358.895 301.904 365.347 306.661C370.133 309.259 378.972 313.501 384.957 309.392C386.779 308.16 388.755 305.15 388.133 302.607C388.167 302.596 388.078 305.839 383.714 307.094Z" fill="#F28F8F"/>
<path d="M367.811 320.786C369.855 319.453 370.465 316.744 369.921 314.123C369.888 315.19 369.471 316.21 368.747 316.995C368.023 317.781 367.04 318.279 365.979 318.398C362.059 319.02 358.517 318.11 353.764 316.433C349.011 314.756 334.264 305.45 329.534 302.852C326.58 301.23 309.39 290.459 296.875 282.586C296.109 282.097 295.965 283.163 296.72 283.696C306.003 289.837 311.067 293.535 315.275 296.489C323.115 301.986 330.689 306.816 334.52 311.236C356.24 324.217 362.903 323.962 367.811 320.786Z" fill="#F28F8F"/>
<path d="M336.075 315.466C336.08 316.148 335.924 316.822 335.619 317.432C335.445 317.775 335.224 318.092 334.964 318.376C334.135 319.234 333.104 319.871 331.966 320.23C324.615 322.906 304.949 310.236 291.612 301.896C278.275 293.557 259.409 280.087 250.092 271.459C236.433 258.833 238.543 252.859 225.351 242.342C221.391 239.239 217.224 236.408 212.88 233.87C212.492 233.692 207.694 230.716 203.63 228.162C203.01 225.482 202.709 222.739 202.731 219.989C202.727 218.416 202.816 216.843 202.997 215.281C215.723 223.165 231.225 231.937 236.233 236.823C236.411 237.001 236.577 237.157 236.733 237.323C243.207 243.775 245.617 250.404 250.058 260.798C254.678 271.459 273.134 282.763 291.59 295.767C310.046 308.77 322.583 316.077 328.513 317.787C329.434 318.072 330.391 318.221 331.355 318.231C332.373 318.331 333.395 318.076 334.246 317.509C335.098 316.943 335.728 316.099 336.03 315.122C336.075 315.211 336.075 315.344 336.075 315.466Z" fill="#F28F8F"/>
<path d="M246.15 162.589L243.407 160.857C240.392 161.672 237.501 162.89 234.812 164.477C218.433 173.872 204.929 195.903 202.997 215.281C202.816 216.844 202.727 218.416 202.731 219.989C202.709 222.739 203.01 225.483 203.63 228.162C207.694 230.716 212.514 233.715 212.88 233.87C214.446 234.814 215.89 235.713 217.244 236.58C217.489 232.704 217.7 228.629 217.844 224.364C219.476 176.293 246.15 162.589 246.15 162.589Z" fill="#F28F8F"/>
<path opacity="0.5" d="M328.534 229.894C324.681 226.308 318.307 220.722 321.216 220.511C314.698 220.833 307.469 228.628 289.446 230.083C271.423 231.538 254.699 223.498 254.699 223.498C254.699 223.498 270.857 232.826 273.155 247.484C274.532 256.201 271.867 264.941 280.862 265.251C290.179 265.573 298.729 260.921 309.534 245.13C318.296 232.326 330 232.226 336.84 239.522C336.507 239.067 335.996 238.5 335.53 237.901C333.396 235.065 331.058 232.389 328.534 229.894Z" fill="#F28F8F"/>
<path d="M333.153 250.149C328.478 258.9 307.868 280.843 287.558 285.107C298.136 285.06 308.36 281.286 316.43 274.446C330.311 262.909 333.153 250.149 333.153 250.149Z" fill="#F28F8F"/>
<path d="M355.874 104.279L359.816 96.0398L341.038 85.2017C338.999 84.0088 336.811 83.0903 334.531 82.47C333.743 82.259 332.932 82.0813 332.121 81.937C328.087 81.276 323.965 81.3891 319.973 82.2701C318.489 82.5783 317.025 82.9713 315.587 83.4472C314.047 83.9483 312.534 84.5303 311.056 85.1906C309.062 86.0656 307.123 87.0594 305.248 88.1667C303.16 89.3863 301.136 90.7133 299.185 92.1421C297.704 93.2452 296.224 94.4112 294.743 95.6401C273.311 113.729 256.455 145.999 252.179 177.026C251.883 179.136 251.65 181.238 251.48 183.333C251.224 186.331 251.102 189.307 251.113 192.217C251.113 194.627 251.213 196.959 251.402 199.202C251.557 201.145 251.78 203.033 252.057 204.854C252.335 206.675 252.679 208.407 253.068 210.095C254.109 214.75 255.798 219.236 258.087 223.421C258.542 224.254 259.031 225.053 259.531 225.819C261.573 229 264.159 231.797 267.171 234.081C268.074 234.747 269.016 235.359 269.991 235.913L287.825 246.196L291.434 238.656C292.4 238.445 293.366 238.201 294.343 237.901C298.314 236.675 302.127 234.987 305.703 232.871C308.005 231.515 310.229 230.032 312.366 228.429C315.24 226.273 317.977 223.94 320.561 221.444C338.451 204.232 352.532 177.303 357.684 150.497C358.454 146.564 359.021 142.595 359.383 138.604C359.672 135.272 359.827 132.052 359.816 128.832C359.829 124.19 359.457 119.554 358.706 114.973C358.089 111.33 357.141 107.75 355.874 104.279Z" fill="#8EDCA4"/>
<path opacity="0.25" d="M256.108 158.669L292.642 179.768L297.262 166.443L260.683 145.344C258.951 149.697 257.407 154.161 256.108 158.669Z" fill="white"/>
<path opacity="0.25" d="M341.038 85.2015C338.998 84.0086 336.81 83.0901 334.53 82.4698C333.742 82.2588 332.931 82.0811 332.121 81.9367C328.087 81.2758 323.964 81.3888 319.972 82.2699C319.439 82.3809 318.862 82.5142 318.362 82.6585L355.907 104.335C355.903 104.305 355.903 104.275 355.907 104.246L359.849 96.0063L341.038 85.2015Z" fill="white"/>
<path opacity="0.25" d="M338.793 137.227L343.413 131.674L289.378 100.582C287.712 102.24 286.08 103.976 284.48 105.79L338.793 137.227Z" fill="white"/>
<path opacity="0.25" d="M273.332 120.647L320.338 147.787L325.346 134.695L281.472 109.354C278.555 112.968 275.838 116.738 273.332 120.647Z" fill="white"/>
<path opacity="0.4" d="M341.037 85.2015C338.998 84.0086 336.81 83.0901 334.53 82.4698C333.741 82.2588 332.931 82.0811 332.12 81.9367C328.086 81.2758 323.963 81.3888 319.972 82.2699C318.488 82.578 317.024 82.971 315.585 83.447C314.045 83.9481 312.533 84.53 311.055 85.1904C309.061 86.0653 307.121 87.0591 305.247 88.1664C303.159 89.3861 301.135 90.713 299.184 92.1419C297.703 93.2449 296.223 94.4109 294.742 95.6398C274.754 112.486 258.796 141.613 253.233 170.574L327.811 213.671C342.247 196.692 353.252 173.561 357.683 150.508C358.452 146.575 359.02 142.605 359.382 138.615C359.671 135.283 359.826 132.063 359.815 128.843C359.827 124.2 359.456 119.565 358.704 114.984C358.099 111.338 357.163 107.755 355.906 104.279L359.848 96.0396L341.037 85.2015Z" fill="white"/>
<path opacity="0.1" d="M287.824 246.196L291.433 238.656C292.399 238.445 293.365 238.201 294.342 237.901C298.313 236.675 302.126 234.987 305.702 232.871C308.004 231.515 310.228 230.032 312.365 228.429C315.239 226.273 317.976 223.94 320.56 221.444C323.109 218.979 325.529 216.384 327.811 213.671L253.233 170.607C252.818 172.739 252.448 174.871 252.122 177.003C251.797 179.136 251.563 181.238 251.423 183.311C251.167 186.309 251.045 189.285 251.056 192.195C251.056 194.604 251.156 196.936 251.345 199.179C251.501 201.123 251.723 203.01 252 204.832C252.278 206.653 252.622 208.385 253.011 210.073C254.052 214.728 255.741 219.213 258.03 223.398C258.485 224.231 258.974 225.031 259.474 225.797C261.516 228.978 264.102 231.775 267.114 234.059C268.017 234.725 268.959 235.337 269.934 235.891L287.824 246.196Z" fill="black"/>
<path opacity="0.1" d="M258.085 223.399C258.54 224.231 259.029 225.031 259.529 225.797C261.571 228.978 264.157 231.775 267.169 234.059C268.072 234.725 269.014 235.337 269.989 235.891L287.823 246.174L291.432 238.634H291.576L291.843 235.547L254.076 213.671C255.055 217.049 256.399 220.311 258.085 223.399Z" fill="black"/>
<path d="M377.127 125.633C376.364 120.895 375.006 116.273 373.085 111.875C370.791 106.386 367.147 101.565 362.491 97.8608C359.661 95.6791 356.426 94.0789 352.975 93.1524C352.186 92.9414 351.376 92.7749 350.565 92.6305C346.532 91.9601 342.408 92.0695 338.417 92.9525C336.933 93.2659 335.469 93.6627 334.03 94.1407C332.494 94.6362 330.985 95.2145 329.511 95.8731C327.518 96.7567 325.575 97.7502 323.692 98.8491C321.603 100.071 319.579 101.402 317.629 102.836C316.141 103.946 314.653 105.057 313.187 106.323C291.755 124.412 274.898 156.649 270.623 187.653C270.319 189.777 270.086 191.88 269.923 193.96C269.672 196.921 269.55 199.883 269.557 202.844C269.557 205.242 269.668 207.574 269.846 209.817C270.001 211.772 270.223 213.649 270.501 215.47C270.778 217.291 271.123 219.034 271.522 220.722C272.563 225.376 274.249 229.861 276.531 234.048C276.997 234.869 277.475 235.669 277.974 236.435C280.014 239.622 282.605 242.419 285.625 244.697C289.994 247.985 295.254 249.878 300.716 250.127C304.801 250.312 308.887 249.778 312.787 248.55C316.76 247.329 320.573 245.641 324.147 243.52C326.45 242.166 328.675 240.683 330.81 239.078C333.686 236.925 336.424 234.592 339.005 232.093C356.895 214.881 370.975 187.952 376.139 161.157C376.879 157.167 377.442 153.199 377.827 149.253C378.127 145.922 378.271 142.701 378.26 139.481C378.27 134.842 377.891 130.209 377.127 125.633Z" fill="#8EDCA4"/>
<path opacity="0.05" d="M271.7 181.223C271.29 183.366 270.923 185.51 270.59 187.653C270.257 189.796 270.057 191.872 269.89 193.96C269.639 196.921 269.517 199.883 269.524 202.844C269.524 205.242 269.635 207.574 269.813 209.818C269.968 211.772 270.19 213.649 270.468 215.47C270.746 217.291 271.09 219.034 271.49 220.722C272.53 225.376 274.216 229.861 276.498 234.048C276.964 234.87 277.442 235.669 277.941 236.435C279.981 239.622 282.572 242.419 285.592 244.697C289.97 247.992 295.243 249.885 300.717 250.127C304.802 250.312 308.887 249.778 312.788 248.55C316.76 247.329 320.573 245.641 324.148 243.52C326.158 242.343 328.123 241.033 330.077 239.611L271.7 181.223Z" fill="black"/>
<path opacity="0.05" d="M272.544 224.509C273.53 227.826 274.87 231.028 276.542 234.059C277.008 234.88 277.485 235.68 277.985 236.446C280.025 239.633 282.616 242.43 285.636 244.708C289.22 247.4 293.418 249.155 297.851 249.816L272.544 224.509Z" fill="black"/>
<path opacity="0.25" d="M279.128 155.994C277.385 160.369 275.863 164.877 274.564 169.319L338.149 232.904L339.015 232.094C341.758 229.427 344.352 226.614 346.789 223.665L279.128 155.994Z" fill="white"/>
<path opacity="0.25" d="M299.916 120.015C297.019 123.626 294.32 127.392 291.832 131.297L361.791 201.256C364.012 197.014 366.133 192.572 367.999 188.13L299.916 120.015Z" fill="white"/>
<path opacity="0.25" d="M307.857 111.22C306.18 112.885 304.525 114.64 302.926 116.461L369.843 183.377C370.775 180.879 371.653 178.358 372.452 175.804L307.857 111.22Z" fill="white"/>
<path opacity="0.25" d="M378.116 134.661C378.05 133.362 377.938 132.096 377.816 130.853C377.816 130.442 377.739 130.02 377.694 129.62C377.65 129.22 377.594 128.776 377.539 128.354C377.417 127.432 377.283 126.522 377.128 125.633C376.365 120.895 375.007 116.273 373.086 111.875C370.791 106.386 367.147 101.565 362.492 97.8608C359.661 95.6791 356.427 94.0789 352.975 93.1524C352.187 92.9414 351.387 92.7749 350.566 92.6305C346.533 91.9601 342.409 92.0695 338.417 92.9525C337.884 93.0636 337.307 93.208 336.796 93.3412L378.116 134.661Z" fill="white"/>
<path d="M364.423 147.809C364.423 176.415 347.766 209.451 326.667 223.498C325.779 224.087 324.868 224.664 323.946 225.186C301.582 238.101 283.459 224.398 283.459 194.571C283.459 164.744 301.582 130.098 323.946 117.183C324.868 116.661 325.779 116.183 326.667 115.739C347.744 105.423 364.423 119.204 364.423 147.809Z" fill="#8EDCA4"/>
<path opacity="0.4" d="M364.423 147.809C364.423 176.415 347.766 209.451 326.667 223.498C325.779 224.087 324.868 224.664 323.946 225.186C301.582 238.101 283.459 224.398 283.459 194.571C283.459 164.744 301.582 130.098 323.946 117.183C324.868 116.661 325.779 116.183 326.667 115.739C347.744 105.423 364.423 119.204 364.423 147.809Z" fill="black"/>
<path d="M362.624 148.853C362.624 149.764 362.624 150.697 362.558 151.63C361.536 178.281 346.001 208.196 326.512 221.167L325.99 221.511C325.302 221.955 324.613 222.388 323.914 222.788C320.191 225.043 316.065 226.552 311.765 227.23C302.682 228.473 295.108 224.487 290.378 216.347C287.624 211.561 285.858 205.343 285.369 197.891C285.27 196.492 285.225 195.049 285.225 193.561C285.225 192.073 285.225 190.818 285.347 189.43C285.51 186.482 285.836 183.546 286.324 180.635C289.745 160.036 300.76 139.015 314.708 126.4C316.653 124.637 318.716 123.008 320.882 121.525C321.881 120.848 322.892 120.203 323.914 119.615C324.935 119.026 325.668 118.649 326.512 118.227L327.245 117.894C333.042 115.195 338.461 114.418 343.247 115.34C351.386 116.905 357.683 123.402 360.67 133.773C362.023 138.684 362.68 143.76 362.624 148.853Z" fill="#8EDCA4"/>
<path opacity="0.7" d="M362.624 148.853C362.624 149.764 362.624 150.697 362.558 151.63C361.536 178.281 346.001 208.196 326.512 221.167L325.99 221.511C325.302 221.955 324.613 222.388 323.914 222.788C320.191 225.043 316.065 226.552 311.765 227.23C302.682 228.473 295.108 224.487 290.378 216.347C287.624 211.561 285.858 205.343 285.369 197.891C285.27 196.492 285.225 195.049 285.225 193.561C285.225 192.073 285.225 190.818 285.347 189.43C285.51 186.482 285.836 183.546 286.324 180.635C289.745 160.036 300.76 139.015 314.708 126.4C316.653 124.637 318.716 123.008 320.882 121.525C321.881 120.848 322.892 120.203 323.914 119.615C324.935 119.026 325.668 118.649 326.512 118.227L327.245 117.894C333.042 115.195 338.461 114.418 343.247 115.34C351.386 116.905 357.683 123.402 360.67 133.773C362.023 138.684 362.68 143.76 362.624 148.853Z" fill="black"/>
<path d="M356.139 147.898C356.139 146.966 356.139 146.033 356.139 145.111C356.202 140.015 355.547 134.935 354.196 130.02C352.442 123.968 349.565 119.248 345.868 116.039C344.993 115.736 344.099 115.495 343.191 115.317C338.405 114.396 332.986 115.173 327.19 117.872L326.457 118.205C325.613 118.627 324.736 119.093 323.858 119.593C322.981 120.092 321.826 120.825 320.827 121.503C318.661 122.986 316.598 124.615 314.653 126.378C300.716 138.992 289.745 160.014 286.28 180.613C285.792 183.524 285.466 186.46 285.303 189.407C285.214 190.795 285.181 192.161 285.181 193.538C285.181 194.915 285.181 196.47 285.325 197.869C285.814 205.32 287.546 211.539 290.333 216.325C291.672 218.682 293.394 220.799 295.43 222.588C298.601 223.659 301.98 223.964 305.291 223.476C309.593 222.794 313.722 221.285 317.451 219.035C318.15 218.635 318.839 218.202 319.516 217.757L320.049 217.413C339.582 204.454 355.129 174.561 356.139 147.898Z" fill="#8EDCA4"/>
<path opacity="0.6" d="M356.139 147.898C356.139 146.966 356.139 146.033 356.139 145.111C356.202 140.015 355.547 134.935 354.196 130.02C352.442 123.968 349.565 119.248 345.868 116.039C344.993 115.736 344.099 115.495 343.191 115.317C338.405 114.396 332.986 115.173 327.19 117.872L326.457 118.205C325.613 118.627 324.736 119.093 323.858 119.593C322.981 120.092 321.826 120.825 320.827 121.503C318.661 122.986 316.598 124.615 314.653 126.378C300.716 138.992 289.745 160.014 286.28 180.613C285.792 183.524 285.466 186.46 285.303 189.407C285.214 190.795 285.181 192.161 285.181 193.538C285.181 194.915 285.181 196.47 285.325 197.869C285.814 205.32 287.546 211.539 290.333 216.325C291.672 218.682 293.394 220.799 295.43 222.588C298.601 223.659 301.98 223.964 305.291 223.476C309.593 222.794 313.722 221.285 317.451 219.035C318.15 218.635 318.839 218.202 319.516 217.757L320.049 217.413C339.582 204.454 355.129 174.561 356.139 147.898Z" fill="black"/>
<path d="M350.564 92.6306C347.102 92.0917 343.574 92.1368 340.126 92.7639C338.417 93.1018 336.727 93.5281 335.062 94.0409C334.641 94.1489 334.226 94.2786 333.819 94.4296L332.608 94.9071L330.165 95.8732C326.973 97.2691 323.911 98.9451 321.015 100.881C319.56 101.87 318.139 102.825 316.795 103.946C315.452 105.068 313.997 106.101 312.753 107.278C311.509 108.455 310.121 109.598 308.9 110.831C307.678 112.064 306.435 113.285 305.269 114.584L301.826 118.482L298.495 122.613L295.408 126.833C294.397 128.254 293.464 129.731 292.487 131.175C290.622 134.117 288.8 137.093 287.168 140.169L285.913 142.468L284.803 144.811C284.026 146.377 283.226 147.92 282.582 149.531C281.127 152.695 279.828 155.938 278.551 159.181L276.808 164.111C276.252 165.766 275.775 167.442 275.253 169.108C274.731 170.774 274.342 172.439 273.876 174.15C273.41 175.86 273.054 177.481 272.688 179.235L272.144 181.801L271.711 184.377C271.433 186.109 271.111 187.786 270.955 189.541C270.8 191.295 270.545 193.027 270.389 194.749C270.234 196.47 270.134 198.224 270.078 199.957C270.078 200.834 270.078 201.7 270.023 202.577C269.967 203.455 270.078 204.31 270.1 205.176C270.178 206.919 270.189 208.707 270.322 210.395L270.9 215.592L271.866 220.745V220.811V220.745C272.875 225.35 274.5 229.799 276.696 233.97C277.285 234.97 277.862 236.024 278.507 237.002C279.151 237.979 279.861 238.934 280.605 239.844C282.1 241.676 283.803 243.327 285.68 244.764C283.767 243.365 282.022 241.747 280.483 239.944C279.717 239.045 278.984 238.112 278.262 237.135C277.54 236.158 277.007 235.136 276.363 234.126C274.045 229.974 272.319 225.518 271.233 220.889V220.811V220.867L270.2 215.714L269.545 210.484C269.379 208.685 269.356 206.975 269.256 205.22C269.256 204.332 269.168 203.488 269.145 202.577C269.123 201.667 269.145 200.812 269.145 199.934C269.145 198.18 269.268 196.425 269.39 194.671C269.512 192.916 269.756 191.184 269.934 189.43C270.111 187.675 270.4 185.932 270.678 184.21L271.1 181.612L271.633 179.036C271.988 177.314 272.343 175.593 272.81 173.894C273.276 172.195 273.632 170.474 274.176 168.808C274.72 167.143 275.164 165.477 275.719 163.767L277.463 158.792L279.395 153.895C280.017 152.251 280.805 150.674 281.505 149.064C282.204 147.454 283.015 145.888 283.792 144.323L284.969 141.957L286.28 139.603C287.945 136.505 289.789 133.507 291.688 130.553C292.665 129.098 293.62 127.621 294.642 126.189L297.773 121.947L301.104 117.86C302.215 116.528 303.447 115.24 304.625 113.94C305.802 112.641 307.112 111.442 308.345 110.187C309.577 108.932 310.954 107.844 312.253 106.667C313.553 105.49 314.996 104.446 316.373 103.391C317.755 102.298 319.193 101.279 320.682 100.337C323.628 98.4051 326.756 96.7649 330.021 95.4401L332.475 94.5184L333.708 94.0631C334.127 93.9219 334.553 93.8032 334.985 93.7078C336.672 93.2212 338.384 92.8283 340.115 92.5307C343.579 91.9777 347.111 92.0114 350.564 92.6306Z" fill="#F5F5F5"/>
<path d="M314.929 129.753L321.614 133.629L331.219 128.077L324.534 124.212L314.929 129.753Z" fill="#8EDCA4"/>
<path opacity="0.2" d="M314.929 129.753L321.614 133.629L331.219 128.077L324.534 124.212L314.929 129.753Z" fill="black"/>
<path d="M318.272 135.55L311.587 131.686L301.97 137.227L308.666 141.102L318.272 135.55Z" fill="#8EDCA4"/>
<path opacity="0.2" d="M318.272 135.55L311.587 131.686L301.97 137.227L308.666 141.102L318.272 135.55Z" fill="black"/>
<path d="M301.97 144.123L308.666 147.987L301.97 151.862L295.274 147.987L301.97 144.123Z" fill="#8EDCA4"/>
<path opacity="0.2" d="M301.97 144.123L308.666 147.987L301.97 151.862L295.274 147.987L301.97 144.123Z" fill="black"/>
<path d="M295.274 160.791L301.97 164.667V151.863L295.274 147.988V160.791Z" fill="#8EDCA4"/>
<path opacity="0.35" d="M295.274 160.791L301.97 164.667V151.863L295.274 147.988V160.791Z" fill="black"/>
<path d="M301.97 137.227V144.123L308.666 147.987V141.102L301.97 137.227Z" fill="#8EDCA4"/>
<path opacity="0.35" d="M301.97 137.227V144.123L308.666 147.987V141.102L301.97 137.227Z" fill="black"/>
<path d="M314.929 129.753V133.618L318.271 135.55V142.446L321.614 140.514V133.629L314.929 129.753Z" fill="#8EDCA4"/>
<path opacity="0.35" d="M314.929 129.753V133.618L318.271 135.55V142.446L321.614 140.514V133.629L314.929 129.753Z" fill="black"/>
<path d="M295.274 200.445L301.97 204.321L306.523 201.689L299.838 197.825L295.274 200.445Z" fill="#8EDCA4"/>
<path opacity="0.2" d="M295.274 200.445L301.97 204.321L306.523 201.689L299.838 197.825L295.274 200.445Z" fill="black"/>
<path d="M299.837 197.825L306.522 201.689V162.034L301.97 164.666L299.837 163.434V197.825Z" fill="#8EDCA4"/>
<path opacity="0.45" d="M299.837 197.825L306.522 201.689V162.034L301.97 164.666L299.837 163.434V197.825Z" fill="black"/>
<path d="M295.274 200.445L301.97 204.321V217.136L295.274 213.26V200.445Z" fill="#8EDCA4"/>
<path opacity="0.35" d="M295.274 200.445L301.97 204.321V217.136L295.274 213.26V200.445Z" fill="black"/>
<path d="M308.666 213.26V218.89L303.791 216.08L308.666 213.26Z" fill="#8EDCA4"/>
<path opacity="0.45" d="M308.666 213.26V218.89L303.791 216.08L308.666 213.26Z" fill="black"/>
<path d="M321.614 205.787V211.417L318.272 209.485V207.719L321.614 205.787Z" fill="#8EDCA4"/>
<path opacity="0.45" d="M321.614 205.787V211.417L318.272 209.485V207.719L321.614 205.787Z" fill="black"/>
<path d="M334.329 134.04C334.725 133.971 335.126 133.934 335.528 133.929C336.787 133.885 338.035 134.172 339.148 134.761L332.652 130.997C332.198 130.737 331.718 130.524 331.22 130.364V135.039C331.811 134.757 332.423 134.523 333.052 134.339C333.355 134.25 333.663 134.176 333.974 134.117L334.329 134.04Z" fill="#8EDCA4"/>
<path opacity="0.2" d="M334.329 134.04C334.725 133.971 335.126 133.934 335.528 133.929C336.787 133.885 338.035 134.172 339.148 134.761L332.652 130.997C332.198 130.737 331.718 130.524 331.22 130.364V135.039C331.811 134.757 332.423 134.523 333.052 134.339C333.355 134.25 333.663 134.176 333.974 134.117L334.329 134.04Z" fill="black"/>
<path d="M336.25 176.903V178.014C336.25 181.623 334.029 185.787 331.341 187.386L317.86 195.159L316.117 196.159V188.386L324.668 183.455C327.333 181.901 329.531 177.77 329.576 174.194L330.164 173.85L331.341 173.161C334.029 171.629 336.25 173.306 336.25 176.903Z" fill="#8EDCA4"/>
<path opacity="0.45" d="M336.25 176.903V178.014C336.25 181.623 334.029 185.787 331.341 187.386L317.86 195.159L316.117 196.159V188.386L324.668 183.455C327.333 181.901 329.531 177.77 329.576 174.194L330.164 173.85L331.341 173.161C334.029 171.629 336.25 173.306 336.25 176.903Z" fill="black"/>
<path d="M334.562 151.696V152.695C334.562 155.915 332.596 159.669 330.12 161.068L316.073 169.174V161.401L323.424 157.159C324.639 156.299 325.655 155.187 326.402 153.9C327.149 152.612 327.611 151.179 327.755 149.697L330.12 148.331C332.596 147.043 334.562 148.464 334.562 151.696Z" fill="#8EDCA4"/>
<path opacity="0.45" d="M334.562 151.696V152.695C334.562 155.915 332.596 159.669 330.12 161.068L316.073 169.174V161.401L323.424 157.159C324.639 156.299 325.655 155.187 326.402 153.9C327.149 152.612 327.611 151.179 327.755 149.697L330.12 148.331C332.596 147.043 334.562 148.464 334.562 151.696Z" fill="black"/>
<path d="M341.347 159.969C343.13 155.927 344.089 151.571 344.167 147.154V146.144C344.167 136.405 338.493 131.563 331.219 135.039V128.076L321.614 133.629V140.514L318.282 142.446V135.55L308.677 141.102V147.987L302.014 151.862V164.666L306.567 162.034V201.689L302.014 204.321V217.124L308.677 213.26V218.89L318.282 213.338V207.708L321.614 205.775V211.45L331.219 205.898V200.234L331.364 200.156C339.359 195.537 345.877 183.1 345.877 172.395V171.284C345.877 166.099 344.223 161.957 341.347 159.969ZM334.562 151.696V152.695C334.562 155.916 332.596 159.68 330.12 161.068L316.073 169.186V156.493L317.816 155.483L330.12 148.376C332.596 147.043 334.562 148.476 334.562 151.696ZM316.128 181.989L330.175 173.883L331.364 173.194C334.062 171.629 336.272 173.294 336.272 176.903V178.014C336.272 181.623 334.051 185.787 331.364 187.397L317.872 195.17L316.128 196.181V181.989Z" fill="#8EDCA4"/>
<path opacity="0.3" d="M331.22 135.039V131.408L329.11 129.298L322.658 133.029L343.379 153.706C343.885 151.543 344.15 149.331 344.168 147.11V146.099C344.168 145.455 344.168 144.833 344.09 144.234L333.929 134.073C332.99 134.282 332.079 134.607 331.22 135.039Z" fill="white"/>
<path opacity="0.3" d="M334.551 151.485C334.551 151.552 334.551 151.629 334.551 151.707V152.707C334.551 155.927 332.586 159.691 330.109 161.079L326.656 163.078L344.556 180.979C345.359 178.202 345.781 175.33 345.811 172.439V171.329C345.811 166.065 344.157 161.923 341.281 159.936C341.447 159.536 341.603 159.125 341.769 158.714L334.551 151.485Z" fill="white"/>
<path opacity="0.3" d="M320.137 193.838L317.871 195.137L316.128 196.148V189.829L306.522 180.224V198.113L318.271 209.862V207.719L321.614 205.787V211.417L331.219 205.864V204.921L320.137 193.838Z" fill="white"/>
<path opacity="0.25" d="M318.672 155.016L330.176 148.354C330.459 148.196 330.757 148.066 331.065 147.965L321.615 138.515V140.492L318.283 142.424V135.528L308.678 141.08V144.989L318.672 155.016Z" fill="white"/>
<path d="M306.523 162.034V201.689C306.634 200.034 306.689 198.357 306.767 196.736C306.845 195.115 306.867 193.405 306.923 191.772C307.023 188.441 307.067 185.165 307.078 181.867C307.089 178.569 307.078 175.204 307.078 171.951C307.078 170.296 307.023 168.619 306.978 166.998L306.834 162.034V161.568L306.456 161.812C304.979 162.767 303.491 163.689 302.014 164.666L306.523 162.034Z" fill="#F5F5F5"/>
<path d="M311.231 139.992C312.064 139.603 312.897 139.181 313.718 138.76C314.54 138.338 315.351 137.882 316.15 137.427C316.694 137.127 317.261 136.805 317.772 136.483C317.772 137.327 317.838 138.16 317.894 139.004C317.894 139.57 317.983 140.114 318.049 140.725C318.116 141.336 318.171 141.836 318.271 142.446V135.55L308.666 141.103C309.099 140.936 309.532 140.747 309.954 140.558C310.376 140.37 310.809 140.192 311.231 139.992Z" fill="#F5F5F5"/>
<path d="M324.179 132.518C325.012 132.118 325.845 131.708 326.667 131.275C328.044 130.564 329.387 129.787 330.72 128.998C330.72 129.853 330.776 130.708 330.842 131.563C330.842 132.141 330.931 132.674 330.998 133.296C331.064 133.917 331.12 134.406 331.22 135.039V128.076L321.614 133.629C322.047 133.462 322.48 133.273 322.902 133.085C323.324 132.896 323.757 132.718 324.179 132.518Z" fill="#F5F5F5"/>
<path d="M334.562 151.696V152.695C334.562 155.916 332.596 159.68 330.12 161.068L316.095 169.175L317.428 168.542C318.249 168.12 319.46 167.553 320.87 166.798C322.28 166.043 323.935 165.188 325.689 164.222L328.377 162.723L329.754 161.934L330.442 161.546C330.693 161.395 330.934 161.228 331.164 161.046C332.053 160.337 332.806 159.471 333.385 158.492C333.93 157.568 334.348 156.574 334.629 155.538C334.897 154.57 335.013 153.566 334.973 152.562C334.994 151.666 334.881 150.771 334.64 149.908C334.431 149.139 333.939 148.476 333.263 148.054C332.741 147.747 332.122 147.648 331.53 147.776C331.167 147.854 330.819 147.989 330.498 148.176L330.176 148.376C332.608 147.043 334.562 148.487 334.562 151.696Z" fill="#F5F5F5"/>
<path d="M336.684 177.725C336.696 176.735 336.549 175.749 336.25 174.805C336.003 173.97 335.452 173.257 334.707 172.806C334.132 172.477 333.453 172.377 332.808 172.528C332.418 172.615 332.043 172.761 331.698 172.961L331.331 173.183H331.42C334.085 171.695 336.25 173.35 336.25 176.926V178.036C336.25 181.645 334.03 185.809 331.342 187.42L317.85 195.193L316.129 196.192L317.561 195.493C318.472 195.015 319.782 194.382 321.348 193.538C322.914 192.694 324.679 191.761 326.645 190.695L329.599 189.041C330.662 188.481 331.686 187.851 332.664 187.153C334.452 185.52 335.719 183.395 336.306 181.046C336.597 179.964 336.725 178.845 336.684 177.725Z" fill="#F5F5F5"/>
<path d="M345.878 172.428V171.318C345.878 166.054 344.223 161.912 341.347 159.925L341.736 160.269C342.097 160.613 342.431 160.984 342.735 161.379C343.773 162.756 344.504 164.338 344.878 166.021C345.155 167.135 345.323 168.273 345.378 169.419C345.444 170.706 345.444 171.996 345.378 173.283C345.361 173.96 345.305 174.634 345.212 175.304C345.134 175.982 345.045 176.67 344.912 177.359C344.779 178.047 344.656 178.747 344.479 179.435C344.301 180.124 344.134 180.812 343.912 181.49C343.69 182.167 343.501 182.856 343.257 183.522C343.013 184.188 342.769 184.854 342.491 185.498C342.213 186.143 341.936 186.787 341.636 187.408C341.353 188.035 341.038 188.647 340.692 189.241C340.381 189.84 340.059 190.407 339.715 190.962C339.371 191.517 339.071 192.072 338.715 192.561C338.075 193.521 337.386 194.448 336.65 195.337C335.939 196.148 335.295 196.892 334.651 197.491C334.118 198.023 333.558 198.527 332.974 199.002C331.964 199.768 331.375 200.19 331.375 200.19C339.359 195.537 345.878 183.1 345.878 172.428Z" fill="#F5F5F5"/>
<path d="M313.219 215.681C311.635 216.654 310.115 217.726 308.666 218.89L318.271 213.338V207.708C317.994 209.468 317.827 211.245 317.772 213.027C316.217 213.856 314.699 214.74 313.219 215.681Z" fill="#F5F5F5"/>
<path d="M331.22 200.234C330.964 202.022 330.853 203.799 330.764 205.575C329.188 206.375 327.655 207.252 326.156 208.185C324.569 209.156 323.052 210.235 321.614 211.416L331.22 205.864V200.234Z" fill="#F5F5F5"/>
</svg>
