<svg width="34" height="34" viewBox="0 0 34 34" fill="none" xmlns="http://www.w3.org/2000/svg">
<path d="M16.9891 34C26.3812 34 33.9891 26.3921 33.9891 17C33.9891 7.60786 26.3812 0 16.9891 0C7.59691 0 0 7.60786 0 17C0 26.3921 7.60786 34 16.9891 34" fill="#008CE3"/>
<path d="M19.5832 9.5564H12.9058L12.3584 12.6433L18.3791 12.6543C21.3456 12.6543 22.2213 13.727 22.1994 15.5113C22.1885 16.4308 21.7944 17.9743 21.6192 18.4778C21.1595 19.8133 20.229 21.3458 16.7042 21.3349H10.8478L10.2896 24.4328H16.9451C19.2876 24.4328 20.2947 24.1591 21.3456 23.6665C23.6881 22.5828 25.0893 20.2731 25.6476 17.2518C26.4905 12.7528 25.4505 9.5564 19.5832 9.5564" fill="white"/>
<path d="M10.038 15.4456C8.28652 15.4456 8.03475 16.584 7.87055 17.2736C7.65162 18.1712 7.58594 18.5434 7.58594 18.5434H14.4166C16.168 18.5434 16.4198 17.405 16.584 16.7154C16.8029 15.8177 16.8686 15.4456 16.8686 15.4456H10.038Z" fill="white"/>
</svg>
