<svg width="471" height="472" viewBox="0 0 471 472" fill="none" xmlns="http://www.w3.org/2000/svg">
<g clip-path="url(#clip0)">
<path opacity="0.4" d="M74.5464 128.664C39.3032 175.285 18.4902 233.284 18.4902 296C18.4902 449.183 142.813 573.506 295.996 573.506C449.18 573.506 573.502 449.183 573.502 296C573.502 142.817 449.18 18.4941 295.996 18.4941" stroke="white" stroke-width="37.1031" stroke-linecap="round" stroke-linejoin="round"/>
<path d="M101.747 296.005C101.747 403.4 188.606 490.259 296.001 490.259C403.396 490.259 490.255 403.4 490.255 296.005C490.255 188.61 403.396 101.751 296.001 101.751" stroke="white" stroke-width="37.1031" stroke-linecap="round" stroke-linejoin="round"/>
<path opacity="0.4" d="M295.999 407.013C357.328 407.013 407.001 357.339 407.001 296.01C407.001 234.681 357.328 185.008 295.999 185.008" stroke="white" stroke-width="37.1031" stroke-linecap="round" stroke-linejoin="round"/>
</g>
<defs>
<clipPath id="clip0">
<rect width="471" height="472" fill="white"/>
</clipPath>
</defs>
</svg>
