<svg width="34" height="34" viewBox="0 0 34 34" fill="none" xmlns="http://www.w3.org/2000/svg">
<circle cx="17" cy="17" r="17" fill="#988430"/>
<circle cx="16.9999" cy="16.9999" r="16.4555" fill="#7A6A2A"/>
<circle cx="16.9999" cy="17.0001" r="16.1087" fill="#BA9F33"/>
<path fill-rule="evenodd" clip-rule="evenodd" d="M7.43269 15.1844C7.3364 15.0965 7.23467 15.0083 7.1411 14.9204C7.04753 14.8325 6.95143 14.7443 6.85514 14.6564L6.569 14.3844C6.52221 14.3376 6.47271 14.2964 6.42592 14.2495C6.37914 14.2083 6.3242 14.1615 6.27741 14.1202C5.8977 13.7599 5.51581 13.3996 5.14136 13.0391C5.52923 13.3939 5.90894 13.7463 6.29681 14.1064L6.43154 14.2413C6.47833 14.2879 6.52783 14.3293 6.57462 14.376L6.86058 14.6401C6.95687 14.728 7.05044 14.8161 7.14672 14.9121C7.24301 15.008 7.33658 15.0963 7.43287 15.1841L7.43269 15.1844ZM2.39325 15.13C2.39325 15.13 3.7741 15.2729 4.44812 15.3692C5.07245 15.4573 7.02559 15.7571 7.02559 15.7571L2.39325 15.13ZM2.39325 15.13C2.78112 15.163 3.16899 15.2042 3.55686 15.2455C3.75488 15.2648 3.94474 15.2867 4.13459 15.3059L4.42599 15.3391C4.52228 15.3527 4.61585 15.3665 4.71214 15.3803L5.86759 15.5645L6.44514 15.6608C6.635 15.6938 6.82485 15.7297 7.02287 15.7627C6.83301 15.7435 6.635 15.7159 6.44514 15.6883L5.86759 15.6058L4.71214 15.4354C4.61585 15.4216 4.52228 15.4022 4.42599 15.3886L4.13441 15.3551C3.94455 15.3358 3.74654 15.3083 3.55668 15.2861C3.16881 15.2395 2.78094 15.1899 2.39307 15.1295L2.39325 15.13ZM6.88814 16.1168C6.88814 16.1168 5.41372 16.4911 4.91577 16.6342C4.42618 16.7689 2.94341 17.2201 2.94341 17.2201L6.88796 16.117L6.88814 16.1168Z" fill="#CFB66C"/>
<path fill-rule="evenodd" clip-rule="evenodd" d="M6.88807 16.1169C6.56077 16.2132 6.23527 16.3068 5.90325 16.3949L4.91843 16.6589C4.59112 16.7552 4.26563 16.8488 3.93923 16.9451L3.44963 17.0798C3.28734 17.1266 3.12232 17.1678 2.95459 17.2147C3.1167 17.1603 3.2819 17.1047 3.44419 17.0579L3.93379 16.9012C4.2611 16.7993 4.58659 16.703 4.91299 16.6013C5.24574 16.5188 5.57322 16.4306 5.90597 16.3509C6.22222 16.2711 6.55514 16.1915 6.88807 16.1171V16.1171V16.1169ZM3.14989 18.1279C3.312 18.0674 5.18263 17.1955 5.61729 16.9919C5.83489 16.89 6.46738 16.6655 6.46738 16.6655L3.14989 18.1279Z" fill="#CFB66C"/>
<path fill-rule="evenodd" clip-rule="evenodd" d="M3.1496 18.128C3.29249 18.0736 3.4274 18.0071 3.56485 17.9438L3.97194 17.7539L4.78903 17.3606C5.06103 17.2313 5.32541 17.0886 5.60594 16.9671C5.74901 16.9067 5.89208 16.8572 6.03497 16.8104L6.25257 16.7417C6.32674 16.7225 6.39564 16.7004 6.47017 16.6812C6.19817 16.8104 5.91185 16.9205 5.63948 17.0469C5.36748 17.1818 5.08932 17.2919 4.80861 17.4128L3.97793 17.7786C3.69904 17.8916 3.42704 18.0125 3.14941 18.128V18.128H3.1496ZM3.33093 18.8896C3.33093 18.8896 5.02531 17.8966 5.60848 17.5775C5.91384 17.407 6.90138 16.9173 6.90138 16.9173L3.33093 18.8896Z" fill="#CFB66C"/>
<path fill-rule="evenodd" clip-rule="evenodd" d="M3.33105 18.8899C3.61702 18.7138 3.9086 18.535 4.20019 18.3535L4.63539 18.0893C4.7839 18.0014 4.92697 17.9189 5.07838 17.8309C5.22689 17.7428 5.36997 17.6549 5.5212 17.5723C5.59319 17.5279 5.66863 17.4893 5.74678 17.4568L5.9778 17.3413C6.28316 17.1928 6.58853 17.0414 6.91039 16.9121C6.61881 17.0965 6.31888 17.2534 6.01914 17.4155C5.87063 17.498 5.71921 17.5723 5.5707 17.6549C5.42219 17.7374 5.27912 17.8255 5.12771 17.9053C4.97919 17.9932 4.83612 18.0757 4.68489 18.1555L4.23645 18.4003L3.33142 18.8899V18.8899H3.33105ZM6.88773 17.1348C6.88773 17.1348 5.83418 17.9435 5.49309 18.2021C5.152 18.4607 4.14796 19.1869 4.14796 19.1869L6.88773 17.1348V17.1348Z" fill="#CFB66C"/>
<path fill-rule="evenodd" clip-rule="evenodd" d="M12.9341 23.6568L12.395 22.6363L12.7085 21.3599L14.9449 20.4962L13.9931 18.5432L14.4635 16.5709L15.3466 14.8047L18.0755 14.3757L20.0806 12.4639L24.4105 12.7912L25.2604 17.4208L23.6237 23.2498L22.6913 26.2675L18.9116 26.4106L17.1567 25.1947L15.1018 24.3363L12.9341 23.6568V23.6568Z" fill="#E2CC85"/>
<path fill-rule="evenodd" clip-rule="evenodd" d="M19.564 23.6238C19.564 23.6238 19.0412 23.8632 18.1496 23.8081C17.8916 23.4615 16.0844 23.2992 16.0844 23.2992C16.0844 23.2992 15.8588 23.2305 15.4599 23.3955C15.0584 23.5587 14.6787 23.5386 14.3238 23.6265C13.969 23.7145 13.6166 23.2524 13.3446 23.1562C13.0726 23.0544 12.712 22.8096 12.712 22.8096L11.9504 22.7353L10.421 22.0888L7.99131 19.6682L7.33108 20.7018L7.12744 21.9809L7.86202 23.4967L9.83983 25.2984L13.6964 26.2776L15.9823 25.6042L18.8459 24.3938L19.564 23.6236V23.6238Z" fill="#F1D789"/>
<path fill-rule="evenodd" clip-rule="evenodd" d="M5.86215 15.069L6.35175 13.5865L6.9351 12.629L8.81371 12.4722L8.24977 14.1172L6.67924 16.9121L7.33113 19.4071L6.17586 19.9846L5.82081 19.4401L5.53485 18.1912L5.51562 16.7883L5.86215 15.069V15.069Z" fill="#F4ECB4"/>
<path fill-rule="evenodd" clip-rule="evenodd" d="M7.96909 23.5222L7.60878 23.0188C7.60878 23.0188 7.5125 22.7794 7.56762 22.5703C7.62202 22.3585 7.61422 22.3448 7.58684 22.265C7.55946 22.1852 7.32826 21.9101 7.34204 21.6735C7.35564 21.4341 7.32282 21.3543 7.49871 21.1646C7.68295 20.9804 7.62801 20.6613 7.62801 20.6613L7.86737 20.8098L7.92177 20.7273C7.92177 20.7273 8.00971 20.796 8.00971 20.9033C8.02893 20.7548 7.94915 20.067 8.13066 19.9104C8.31218 19.7537 8.63404 20.6448 8.63404 20.6448L8.43603 19.3519L7.92702 18.0261L7.02199 16.8157L6.96759 15.4815V15.366C6.96759 15.366 6.55215 16.0043 6.43665 16.5084C6.35414 16.8549 6.55215 17.2758 6.51099 17.7737C6.47781 18.2689 6.43665 18.2303 6.55759 18.4265C6.67854 18.6227 6.97303 19.0262 6.85752 19.3178C6.75579 19.5682 6.40908 19.3921 6.40908 19.3921C6.40908 19.3921 6.34036 19.5956 6.24679 19.6699C6.21379 19.549 6.17806 19.4719 6.11206 19.3979C6.10644 19.4447 6.09284 19.508 6.09284 19.508C6.09284 19.508 6.03227 19.3181 5.97171 19.0788C5.88938 18.7598 5.80125 18.3389 5.72147 18.1133C5.68846 18.2426 5.60596 18.636 5.60596 18.636L5.65274 19.2412L5.87832 20.0719L6.09592 20.6159L6.30772 21.2816L6.49177 21.7288L6.64028 22.0699L6.76957 22.8374L7.3939 23.4975L7.72683 23.6462L7.96873 23.5223V23.5223L7.96909 23.5222Z" fill="#F3E19D"/>
<path fill-rule="evenodd" clip-rule="evenodd" d="M6.18937 13.8585C6.18937 13.8585 5.74093 14.6201 5.61182 15.3879C5.48271 16.1557 5.36702 16.9669 5.44862 18.0122C5.53113 19.0659 5.68798 19.7122 5.81455 20.1744C6.03215 20.942 6.59573 22.0093 6.59573 22.0093L6.61495 21.9679C6.52022 21.7884 6.44462 21.5994 6.38938 21.404C6.31503 21.1124 6.28747 20.7659 6.21874 20.609C6.15818 20.4524 6.05645 20.3174 6.00694 20.1249C5.96016 19.9406 5.95254 19.649 5.80893 19.4318C5.74836 19.3437 5.67402 19.1127 5.65208 18.8816C5.62451 18.5349 5.66586 18.1471 5.63285 17.8281C5.57229 17.2972 5.53113 16.9368 5.58607 16.6589C5.64101 16.3809 5.92734 15.5917 6.10341 14.9645C6.21892 14.5628 6.15002 14.2245 6.36181 13.875C6.57361 13.5285 6.70308 13.2231 6.74968 13.0113C6.80408 12.8188 6.18864 13.8585 6.18864 13.8585V13.8585H6.18937Z" fill="#F2E8B0"/>
<path fill-rule="evenodd" clip-rule="evenodd" d="M8.31599 13.5532C8.31599 13.5532 8.08497 13.6221 7.9749 13.7431C7.86483 13.8586 7.81804 13.9549 7.66953 14.1502C7.52102 14.3455 7.51268 14.505 7.39155 14.7498C7.2706 14.9892 7.00368 15.3495 6.97067 15.4788C6.93767 15.6081 6.88273 16.2132 6.814 16.4993C6.75344 16.7855 6.88273 17.1376 6.88273 17.1376L7.0394 17.1045C7.0394 17.1045 7.0394 17.3081 7.19625 17.4457C7.35292 17.5805 7.38049 16.9889 7.38049 16.9889L7.96638 15.0111L8.84929 14.4115L8.94558 13.9273L8.31562 13.5532V13.5532H8.31599Z" fill="#F5EEC0"/>
<path fill-rule="evenodd" clip-rule="evenodd" d="M8.74467 14.4501C8.74467 14.4501 8.32924 14.4775 8.12578 14.6262C8.04328 14.6866 8.01027 14.7361 7.92233 14.8104C7.76004 14.9452 7.59484 15.069 7.51524 15.2456C7.42711 15.4215 7.33082 15.6885 7.26481 16.1918C7.23725 16.4036 7.23725 16.5989 7.21803 16.7696C7.19047 17.0006 7.1493 17.1848 7.17125 17.3136C7.19881 17.5776 7.47117 17.7152 7.49765 18.015L8.06159 17.729L8.59254 15.6355L9.72043 14.9283L9.08214 14.2131L8.74395 14.4489V14.4489L8.74467 14.4501Z" fill="#E6DB9D"/>
<path fill-rule="evenodd" clip-rule="evenodd" d="M5.76971 28.5471C5.77207 28.5264 5.77443 28.5057 5.77678 28.4845C5.85911 27.7773 5.87307 27.2413 5.93346 26.9056C6.0214 26.4298 6.08197 26.2528 6.06819 26.0748C6.04897 25.7888 6.02702 25.5797 6.05459 25.3596C6.09575 25.068 6.38189 24.7215 6.37373 24.4821C6.36811 24.2923 6.27182 24.1686 6.18932 24.0531C6.10681 23.9376 6.04081 23.8413 6.04081 23.8413C6.04081 23.8413 6.60475 23.4534 6.59931 21.8909C6.61083 21.8941 6.62191 21.8987 6.63232 21.9047L6.91012 22.694L7.09997 22.925L7.82893 24.2839L8.76697 25.1946L10.1533 26.127L11.0226 27.073L11.1105 29.5955L9.97447 31.07L9.78842 31.4069C8.31032 30.6648 6.9549 29.7003 5.76953 28.5469L5.76971 28.5471Z" fill="#E5CB7A"/>
<path fill-rule="evenodd" clip-rule="evenodd" d="M9.24023 30.9603C9.24023 30.9603 9.25946 30.6467 9.51804 30.4431C9.55938 30.5118 9.58676 30.578 9.5786 30.6273C9.62539 30.545 9.95269 30.0168 10.6927 29.8792C11.4327 29.7444 11.6115 29.2053 11.6115 29.2053L13.1821 27.7777L14.9783 26.1245L17.1625 25.3569L18.1832 25.1065C18.1832 25.1065 18.2025 25.1808 18.164 25.3458C18.3537 25.3322 18.7746 25.2359 19.2119 25.0818C19.388 25.0131 19.5532 24.9855 19.6412 25.0764C19.7704 25.1973 19.7897 25.4835 19.7978 25.6539C20.0096 25.6071 20.2544 25.4037 20.4506 25.4229C20.7643 25.4559 21.0421 25.8245 21.3613 25.8245C21.7822 25.8245 21.9718 25.566 22.2663 25.3623C22.4424 25.2414 22.6953 25.0903 22.8384 24.9882C23.1795 24.7378 26.7886 23.6348 26.7886 23.6348L28.0539 23.7173L28.2576 25.0762L28.1488 28.6285C28.1353 28.6414 28.1219 28.6548 28.1083 28.6677L22.355 31.6725L14.3799 32.8951C12.5935 32.6032 10.8696 32.0102 9.28158 31.1414L9.24078 30.9601V30.9601L9.24023 30.9603Z" fill="#D8C173"/>
<path fill-rule="evenodd" clip-rule="evenodd" d="M6.25342 28.999C6.36675 28.762 6.46866 28.5638 6.48661 28.4929C6.50076 28.6358 6.52669 28.9493 6.57891 29.2826C6.46927 29.1894 6.36077 29.0948 6.25342 28.9988V28.999Z" fill="#F1D789"/>
<path fill-rule="evenodd" clip-rule="evenodd" d="M12.0789 32.3421L13.1103 32.0552L13.1983 32.0828C13.1983 32.0828 13.2451 32.1103 13.2451 32.2037C13.3744 32.1296 13.4844 32.1432 13.5642 32.0938C13.6054 32.1818 13.6465 32.4734 13.8282 32.5091C14.0179 32.5504 14.2215 32.4266 14.4279 32.2699C14.6314 32.1076 14.8631 31.904 15.0384 31.8215C15.1028 31.9398 15.1598 32.0619 15.2091 32.1872C15.4401 32.003 15.8418 31.2548 16.4139 31.2684C16.5792 30.8776 16.8555 30.5439 17.2085 30.3084C17.7394 29.9481 18.0722 29.9206 18.4876 29.9536C18.6526 29.7392 18.8559 29.5573 19.0873 29.4172C19.156 29.4447 19.3458 29.5602 19.5825 29.4502C19.8218 29.3403 20.0913 28.9138 20.4462 28.8588C20.6374 28.8325 20.8318 28.8734 20.9963 28.9744C20.9963 28.9744 22.0299 27.9482 22.7431 27.6071C22.7156 27.5246 22.6606 27.2138 23.4967 26.526C23.5435 26.5673 23.5105 26.6828 23.5435 26.6892C23.5571 26.6892 23.7611 26.6012 24.0193 26.4031C24.3385 26.1639 24.7207 25.9135 24.9518 25.8447C25.387 25.7154 25.8486 25.9795 25.8486 25.9795C25.8879 25.9519 25.9316 25.9314 25.9779 25.9189C26.0878 25.8997 26.1676 25.8859 26.2282 25.8645C26.2227 26.0076 26.3025 26.2524 26.2282 26.4642C26.3143 26.5126 26.4055 26.5513 26.5002 26.5797C26.4536 26.6814 26.3517 26.94 26.1812 27.0638C26.3241 27.1326 26.3433 27.2123 26.547 27.2814C26.4644 27.3969 26.3294 27.5951 26.2692 27.7166C26.2086 27.8459 25.9912 28.3823 25.8949 28.5858C25.7932 28.7894 25.6557 29.1635 25.5895 29.2386C25.5233 29.3136 25.2841 29.6319 25.0999 29.7885C25.2631 29.728 25.9308 29.5245 26.214 29.4475C26.1297 29.5711 25.7023 30.2052 25.2914 30.8151C21.3114 33.2006 16.4974 33.7579 12.0776 32.3448L12.0789 32.3421Z" fill="#E0CD81"/>
<path fill-rule="evenodd" clip-rule="evenodd" d="M8.81258 14.3757C8.81258 14.3757 8.5734 14.3757 8.52662 14.4087C8.47983 14.4417 8.76598 14.5106 8.85392 14.5436C8.94187 14.5766 9.13173 14.7279 9.18123 14.849C9.22801 14.9645 10.9005 15.6383 10.9005 15.6383L12.0833 15.5778L12.4911 15.0144L11.7154 14.3349L12.2594 12.7312L11.5387 12.8467L9.80574 13.8803L8.93643 14.2132L8.81258 14.3757V14.3757Z" fill="#DFC57C"/>
<path fill-rule="evenodd" clip-rule="evenodd" d="M11.4104 14.9067C11.4452 14.963 11.5074 14.9965 11.5736 14.9946C11.8184 14.9946 12.0438 15.0552 12.1373 15.1789C12.2942 15.3771 12.7288 16.0097 12.7288 16.0097L13.7686 16.3838L13.8357 15.1595L12.6996 14.3701L11.4067 14.8459V14.9065H11.4096L11.4104 14.9067Z" fill="#E5CC7C"/>
<path fill-rule="evenodd" clip-rule="evenodd" d="M11.2065 15.3606C11.2065 15.3606 11.3962 15.3744 11.6356 15.2863C11.8749 15.1982 12.2682 15.0085 12.4389 15.0828C12.678 15.1846 12.6285 15.5037 12.8873 15.79C13.044 15.9661 13.3301 15.9607 13.4924 16.1505C13.6547 16.3404 14.213 16.2522 14.213 16.2522L14.4248 17.3946L13.5749 18.4841L13.2969 19.8374H12.1476L11.0977 19.4209L10.5806 18.1697L10.8391 16.9043L11.2065 15.3606V15.3606Z" fill="#D2C281"/>
<path fill-rule="evenodd" clip-rule="evenodd" d="M13.4295 15.4155C13.458 15.4243 13.4876 15.4289 13.5175 15.4293C13.4845 15.4568 13.4156 15.5172 13.4431 15.6741C13.4707 15.8309 13.5586 16.0289 13.4845 16.1499C13.5437 16.2146 13.5878 16.2917 13.6137 16.3755C13.6605 16.5104 13.6743 16.634 13.9795 16.6535C13.9355 16.6806 13.8948 16.7129 13.8585 16.7497C13.8585 16.7497 14.0703 16.934 14.1777 17.1044C14.2876 17.0997 14.5792 17.009 14.5792 17.009L14.6397 17.0504L14.769 16.996C14.769 16.996 14.6481 16.9492 14.736 16.6549C14.8185 16.3963 14.8929 16.4101 14.8992 16.3909C14.9056 16.3717 14.9598 16.0993 14.9598 15.9892C15.0009 15.8463 15.034 15.4117 15.034 15.4117L14.946 14.4517L14.451 14.1518L14.0484 13.7632L13.6687 14.4784L13.4186 14.7277L13.3994 15.3466L13.4295 15.4155V15.4155Z" fill="#E2C270"/>
<path fill-rule="evenodd" clip-rule="evenodd" d="M14.6206 14.6123C14.6206 14.6123 14.7086 14.8625 14.7417 15.0551C14.7534 15.0177 14.7599 14.9788 14.761 14.9396C14.761 14.9396 14.8297 15.3193 14.8433 15.4762C14.8708 15.4705 14.8977 15.4624 14.9038 15.4898C14.91 15.5171 14.9728 15.8227 14.9582 15.9931C15.0728 15.8042 15.2313 15.6457 15.4203 15.5311C15.5304 15.4622 15.6596 15.388 15.7946 15.3824C16.0064 15.377 16.1603 15.5173 16.4134 15.5173C17.024 15.5173 17.5771 15.0689 17.9842 14.9314C18.2839 14.8295 18.5425 14.7554 18.724 14.5902C18.8121 14.516 18.969 14.351 19.1119 14.106C19.3017 13.7796 19.4997 13.4955 19.6979 13.4597C19.6083 13.4762 19.517 13.4827 19.4259 13.479C19.4259 13.479 19.4865 13.4184 19.5891 13.3359C19.6918 13.2534 19.8147 13.1517 19.9906 13.1517C20.3043 13.1517 20.461 13.1983 20.6371 13.1983C20.8131 13.1928 20.9149 13.1517 20.9149 13.1517C20.9149 13.1517 21.0993 13.2809 21.5145 13.2809C21.93 13.2864 22.2078 13.3221 22.4252 13.3415C22.6426 13.3609 23.3714 13.2809 23.5805 13.2871C23.7168 13.2924 23.8506 13.3251 23.974 13.3834L23.2999 11.425L20.8788 9.30884L19.4374 10.3294L17.22 12.5465L15.0745 13.3415L14.626 13.8449V14.6123H14.6206Z" fill="#CCB360"/>
<path fill-rule="evenodd" clip-rule="evenodd" d="M19.4344 13.49C19.4344 13.49 19.495 13.4296 19.5965 13.3471C19.6981 13.2646 19.8223 13.1627 19.9982 13.1627C20.3117 13.1627 20.4686 13.2095 20.6447 13.2095C20.8207 13.204 20.9225 13.1627 20.9225 13.1627C20.9225 13.1627 21.1071 13.2918 21.5221 13.2918C21.9376 13.2972 22.2154 13.333 22.4328 13.3522C22.6502 13.3714 23.379 13.2918 23.5881 13.2978C23.7243 13.3029 23.8581 13.3357 23.9814 13.3941L23.676 12.511L23.3213 11.8371L22.3089 10.7285C22.3089 10.7285 21.094 10.0133 21.0847 10.0078C21.0793 10.0024 20.6639 9.89233 20.6639 9.89233L19.5635 10.558L18.5651 13.1411L18.5459 13.6851L19.1922 13.9905C19.3545 13.7185 19.5334 13.5009 19.7012 13.4733C19.5498 13.4898 19.4343 13.4898 19.4343 13.4898V13.4898L19.4344 13.49Z" fill="#D5B457"/>
<path fill-rule="evenodd" clip-rule="evenodd" d="M19.4209 13.6744C19.3246 13.6799 19.245 13.6606 19.2229 13.5919C19.1404 13.3609 19.0744 13.3279 19.0053 13.3279C18.9362 13.3279 18.843 13.4764 18.7877 13.49C18.7324 13.5036 18.6667 13.3196 18.6667 13.3196L18.6062 13.292C18.6062 13.292 18.2513 13.523 18.0011 13.7954C17.7508 14.0677 17.3408 14.53 17.1566 14.6123C16.9724 14.6946 16.3395 14.7224 16.123 14.7691C15.9065 14.8159 15.6664 14.9728 15.6334 15.0085C15.6004 15.0442 15.7299 15.0827 15.7491 15.1184C15.7683 15.1514 15.5371 15.1376 15.5179 15.1728C15.5043 15.2003 15.5723 15.357 15.606 15.4368C15.665 15.4075 15.7298 15.3915 15.7957 15.39C16.0075 15.3846 16.1616 15.5249 16.4146 15.5249C17.0253 15.5249 17.5782 15.0765 17.9853 14.9389C18.2852 14.8371 18.5438 14.7628 18.7253 14.5978C18.8133 14.5236 18.9701 14.3584 19.1132 14.1136C19.2176 13.9459 19.3195 13.789 19.4214 13.6735V13.6735L19.4209 13.6744Z" fill="#D2B257"/>
<path fill-rule="evenodd" clip-rule="evenodd" d="M10.6625 27.2881C10.6625 27.2881 10.6081 27.0845 10.104 26.5592C9.96092 26.4107 9.87297 26.2872 9.77668 26.1989C9.53732 25.9731 9.39697 25.9127 9.22652 25.7834C8.85243 25.5056 8.44533 25.5056 8.13181 25.1646C7.81828 24.8235 7.4529 24.1717 7.19903 23.5057C6.94879 22.84 6.87988 22.6282 6.87988 22.609C6.87988 22.5898 6.94879 22.4605 7.03674 22.4797C7.12468 22.4989 7.12468 22.6694 7.14681 22.7107C7.19062 22.7782 7.24032 22.8417 7.29532 22.9004C7.42461 23.0491 7.60884 23.2268 7.70241 23.4919C7.68319 23.2664 7.60612 23.0161 7.60612 23.0161C7.60612 23.0161 8.09028 23.3215 8.50282 23.6404C8.91825 23.9596 9.0887 24.0697 9.21002 24.2731C9.33133 24.4766 9.61711 25.0131 9.75402 25.17C9.89092 25.3268 11.7668 25.9182 11.7668 25.9182L12.6592 26.5835L13.1022 27.5545L12.7554 28.0985L12.0898 28.2416L11.0087 27.7574L10.6625 27.288V27.288V27.2881Z" fill="#D2B159"/>
<path fill-rule="evenodd" clip-rule="evenodd" d="M8.26074 23.9431C8.26074 23.9431 8.48632 24.3034 9.03649 24.6445C9.53171 24.9444 10.3156 25.2168 11.0145 25.3791C11.4159 25.4754 11.8176 25.5495 12.1779 25.5551C13.1489 25.5687 13.8173 25.2911 14.6455 25.2003C15.0939 25.1535 15.6441 25.1178 16.2162 24.9827C16.9506 24.8066 17.3853 24.6084 17.9768 24.3299C18.4058 24.1319 18.7993 23.9833 19.1183 23.7935C19.5667 23.5295 19.894 23.2352 20.2737 23.1472C20.2269 23.2765 20.1774 23.5075 19.8033 23.7469C20.0014 23.7413 20.2737 23.7277 20.2737 23.7277C20.2737 23.7277 20.0097 23.8843 19.5448 24.2365C19.2586 24.4541 18.8791 24.8224 18.4912 25.0672C18.2408 25.224 17.9684 25.3392 17.7896 25.4331C17.3544 25.6725 17.1789 25.7934 16.8929 26.0859C16.9947 26.0805 17.003 26.0859 17.003 26.0859C17.003 26.0859 16.6425 26.1327 16.3841 26.2701C16.3297 26.2701 16.2354 26.2509 16.0704 26.2977C15.9411 26.3389 15.7705 26.4326 15.5946 26.4819C15.3442 26.5563 15.2618 26.5233 15.2618 26.5233L15.303 26.6058C15.303 26.6058 14.9766 26.6002 14.8678 26.6112C14.887 26.6167 14.8816 26.625 14.8816 26.625C14.8625 26.6282 14.8441 26.6347 14.8272 26.6442C14.7748 26.6782 14.7172 26.7032 14.6567 26.7184C14.6237 26.7238 14.5962 26.7238 14.5548 26.7322C14.5686 26.7652 14.676 26.9498 14.7255 27.0586C14.6843 27.0861 14.0652 27.5538 14.0652 27.5538C14.0844 27.584 14.1001 27.6163 14.112 27.6501C14.1312 27.7105 14.1396 27.7986 14.1588 27.8398C14.2054 27.9223 14.233 27.9361 14.233 27.9361C14.233 27.9361 14.1588 27.9498 14.0293 27.9828C13.9194 28.0104 13.7845 28.057 13.5941 28.0846C13.5357 28.0922 13.4769 28.0968 13.418 28.0983C13.4456 28.1589 13.5666 28.3899 13.3437 28.6567C13.1208 28.9234 13.0521 28.9622 12.9834 29.1327C12.9488 29.1065 12.912 29.0835 12.8733 29.0638C12.7992 29.0308 12.6972 28.9814 12.6615 28.9153C12.6407 29.0034 12.6131 29.0899 12.579 29.1738C12.5103 29.3581 12.4086 29.5398 12.3893 29.6772C12.315 29.5947 12.1775 29.4324 11.9877 29.4654C11.7978 29.4984 11.6466 29.757 11.6136 29.8313C11.6136 29.7846 11.5806 29.7488 11.5724 29.8038C11.5668 29.8644 11.4624 30.4968 10.8792 31.0086C10.8738 30.8793 10.8738 30.5931 10.86 30.4997C10.8056 30.5541 10.739 30.6345 10.3428 30.8051C9.95494 30.9756 10.0164 31.1462 10.0164 31.1462C10.0164 31.1462 9.98341 30.8742 10.1925 30.5877C10.4043 30.3017 10.5336 30.1668 10.5336 30.1449C10.5302 30.1225 10.5206 30.1016 10.506 30.0843C10.4784 30.0567 10.4235 30.0237 10.4235 30.0018C10.4565 29.9882 10.7838 29.8313 10.7646 29.5066C10.7454 29.2152 10.6217 29.0638 10.5336 28.9566C10.52 28.9428 10.663 28.8411 10.6436 28.8081C10.6299 28.7889 10.454 28.6594 10.4318 28.5905C10.437 28.5494 10.4463 28.5088 10.4594 28.4695C10.4786 28.409 10.4924 28.3676 10.487 28.3265C10.4732 28.2577 10.3988 28.0679 10.3769 28.0487C10.3961 28.0541 10.5336 28.0487 10.5336 28.0487C10.5336 28.0487 10.4237 27.8726 10.4043 27.7901C10.3849 27.7076 10.3437 27.4902 10.3218 27.449C10.3686 27.4544 10.4841 27.4626 10.4841 27.449C10.4897 27.4076 10.3823 27.3389 10.4297 27.2858C10.4627 27.2912 10.526 27.3188 10.5863 27.3959C10.5533 27.3077 10.4984 27.1373 10.3827 27.0686C10.4371 27.0493 10.6221 26.9996 10.7844 27.0959C10.9467 27.1922 11.002 27.327 11.002 27.327C11.002 27.327 11.0982 27.4013 11.2469 27.5114C11.4174 27.6461 11.6346 27.8378 11.9813 27.9734C12.0557 28.0147 12.2454 28.0147 12.383 27.9872C12.4429 27.9729 12.5004 27.9497 12.5534 27.9185C12.5726 27.9072 12.5929 27.8979 12.614 27.8909C12.5844 27.8315 12.5504 27.7745 12.5123 27.7203C12.5591 27.7203 12.614 27.7259 12.614 27.7259C12.614 27.7259 12.647 27.6515 12.4985 27.5083C12.5315 27.4753 12.5728 27.4539 12.5728 27.3982C12.5261 27.3928 12.4436 27.3241 12.4243 27.2965C12.4517 27.2773 12.4931 27.214 12.5398 27.1948C12.4985 27.1618 12.3968 27.0241 12.35 27.0105C12.3947 26.9939 12.4379 26.9737 12.4793 26.95C12.4793 26.95 12.2483 26.8894 12.1739 26.8399C12.0996 26.7855 11.9897 26.6914 11.9237 26.6638C11.8548 26.6363 11.7338 26.6227 11.6843 26.5675C11.7309 26.5813 11.8053 26.5675 11.8604 26.5675C11.9016 26.5675 11.921 26.573 11.9346 26.573C11.9291 26.5537 11.9291 26.5124 12.0365 26.4988C12.0881 26.491 12.1382 26.4752 12.185 26.452C12.185 26.452 12.0831 26.4466 11.9674 26.3365C11.8517 26.2264 11.7556 26.1385 11.6896 26.1247C11.6208 26.1109 11.4916 26.1715 11.4118 26.1659C11.3017 26.1523 11.2549 26.0971 11.2549 26.0971C11.2549 26.0971 10.8892 26.1302 10.0777 25.6351C9.37612 25.2059 9.07076 24.8264 9.07076 24.8264C9.0051 24.8025 8.94164 24.773 8.88108 24.7382C8.61706 24.6008 8.25113 24.3146 8.26219 23.9404V23.9404L8.26074 23.9431Z" fill="#C2A44D"/>
<path fill-rule="evenodd" clip-rule="evenodd" d="M18.3807 7.43269C18.4443 7.45336 18.5009 7.4915 18.5439 7.54276C18.6732 7.69127 18.7557 7.97179 18.4614 8.27172C18.5769 8.31288 18.6246 8.32612 18.7254 8.31288C18.6237 8.43401 18.3926 8.69259 18.3789 8.91817C18.3651 9.1024 18.4806 9.15753 18.4806 9.15753C18.4806 9.15753 18.3045 9.36099 18.2964 9.70153C18.3795 9.60776 18.4705 9.52125 18.5684 9.44295C18.772 9.28066 19.0525 9.09642 19.2424 8.98091C19.2398 9.02932 19.2463 9.07779 19.2616 9.1238C19.2616 9.1238 19.6163 8.83222 19.9144 8.96169C20.0491 9.02226 19.9886 9.21193 19.9886 9.21193C19.9886 9.21193 20.173 9.1432 20.3023 9.2725C20.4316 9.40179 20.6143 9.73526 20.7081 9.86455C20.7493 9.92511 20.8566 10.0406 20.9665 10.2194C21.1166 10.4697 21.242 10.7341 21.3408 11.0088C21.3462 10.8657 21.3819 10.643 21.7892 10.7832C22.1963 10.9263 22.6583 11.2262 23.0462 11.8168C23.4341 12.4074 23.5302 13.0741 23.7255 13.328C23.9235 13.5728 24.1271 13.9799 24.1409 14.1505C24.1547 14.3212 24.0803 14.8712 24.4874 16.3594C24.603 15.8973 24.779 14.8712 24.779 14.8712L24.8753 13.9661L24.9854 11.1658L22.0612 8.73647L19.7753 7.07764L18.2871 7.22071L18.3805 7.43251V7.43251L18.3807 7.43269Z" fill="#CAA13E"/>
<path fill-rule="evenodd" clip-rule="evenodd" d="M23.8139 11.6001C23.8139 11.6001 23.7725 11.3281 23.0849 10.8657C22.3971 10.4091 21.8607 10.4091 21.3657 10.0212C20.986 9.71584 20.59 9.01426 20.3321 8.78324C20.0817 8.55494 20.0405 7.89471 20.0405 7.89471L20.885 7.18751L22.1409 5.37218L23.2026 4.20312L23.7114 4.91033L24.4186 5.74101L24.8119 7.40801L24.955 9.84803L23.8126 11.6003L23.8139 11.6001Z" fill="#B59544"/>
<path fill-rule="evenodd" clip-rule="evenodd" d="M24.664 14.5249C24.6848 14.1549 24.6391 13.7841 24.5291 13.4302C24.3478 12.8662 23.9515 11.8649 23.7675 11.4899C23.6931 11.0745 23.7483 11.0415 23.8281 10.9947C23.9078 10.9479 24.2078 10.7771 24.3721 10.1778C24.5363 9.57848 25.0461 9.5589 25.0461 9.5589L25.3596 9.32788L25.8356 10.5189L26.2509 11.5945L26.3802 12.4171L26.4764 13.1185L26.2509 14.6012L25.1369 15.608L24.6638 14.5249V14.5249H24.664Z" fill="#C89D3A"/>
<path fill-rule="evenodd" clip-rule="evenodd" d="M9.11914 31.0513V31.0209C9.14229 31.0064 9.16273 30.988 9.17952 30.9665C9.19875 30.9389 9.21271 30.9059 9.22631 30.8977C9.25387 30.884 9.38316 30.8433 9.45189 30.8564C9.52061 30.8694 9.70231 30.9443 9.7986 30.9389C9.99661 30.9335 10.2276 30.782 10.5936 30.8509C11.1437 30.9527 11.273 31.3268 11.5922 31.5386C11.8098 31.6873 12.035 31.6211 12.068 31.6211H12.1422C12.1559 31.6211 12.2577 31.5056 12.3128 31.5112C12.4229 31.5166 12.4337 31.6075 12.5025 31.6129C12.6648 31.6321 12.9785 31.5304 13.1353 31.5717C13.2297 31.6013 13.3037 31.6752 13.3333 31.7696C13.3663 31.8713 13.3388 32.0006 13.259 32.0749C13.0885 32.2316 12.9262 32.3803 12.8932 32.5101C12.9352 32.5422 12.9755 32.5763 13.014 32.6124C11.6529 32.2656 10.3434 31.7413 9.11914 31.053V31.0513Z" fill="#CEB052"/>
<path fill-rule="evenodd" clip-rule="evenodd" d="M23.7671 25.555C23.7671 25.555 24.1961 24.9829 24.3448 24.6995C24.4933 24.4074 23.8744 20.7082 23.8744 20.7082L25.1178 16.6343L25.0847 15.3084C25.0847 15.3084 25.1452 14.0842 25.2883 13.5533C25.4589 13.8587 25.9899 14.2273 26.1054 14.4226C26.1598 14.0483 26.3446 13.259 26.3172 12.4172C26.4189 12.5739 26.6637 14.1502 26.6637 14.1502L26.9085 15.2119L27.2277 16.3398L27.5825 17.531L27.7943 18.3535L27.9153 18.5516L28.0172 18.8981L28.1135 19.2724L28.3913 20.1498L28.5545 20.8705L28.6838 22.1771C28.7119 22.2772 28.7321 22.3793 28.7443 22.4825C28.7498 22.6256 28.7251 22.7081 28.7251 22.7329C28.7251 22.7578 28.7719 23.0465 28.7527 23.2639C28.7251 23.4815 28.7251 23.6517 28.5545 23.8079C28.3838 23.964 28.2767 24.8971 28.2767 24.8971L27.9713 24.6937C27.9713 24.6937 28.0319 24.4157 27.8888 24.1627C27.7457 23.9098 27.4679 23.8574 27.3111 23.8987C27.1544 23.9317 26.8409 23.981 26.739 24.0692C26.6427 24.1571 26.4062 24.4295 26.1888 24.5533C25.9168 24.7165 25.4736 24.7294 25.2372 24.7843C24.9978 24.8387 24.7338 25.0019 24.4558 25.1914C24.2378 25.3326 24.0077 25.4539 23.7682 25.5541V25.5541L23.7671 25.555Z" fill="#CCA847"/>
<path fill-rule="evenodd" clip-rule="evenodd" d="M23.7671 31.5656C23.7671 31.5656 23.7852 31.5774 23.8202 31.5966C25.7745 30.681 27.5256 29.3831 28.9701 27.7795C28.9543 27.2228 28.9338 26.6522 28.9113 26.4408C28.8647 25.9923 28.8977 25.5357 28.884 25.2717C28.8702 25.0077 28.7217 23.932 28.6529 23.6542C28.5786 23.3764 28.4353 23.2388 28.4136 23.2388C28.3944 23.2444 28.2787 23.7616 28.2787 23.8916C28.2787 24.0216 28.2511 24.3346 28.2511 24.4144C28.2319 24.4087 28.2237 24.36 28.2237 24.34C28.1962 24.4087 28.1632 24.5299 28.1494 24.5436C28.1356 24.5574 28.1686 24.4281 28.1494 24.4006C28.1301 24.373 28.095 24.3868 28.1026 24.3181C28.1058 24.2773 28.1123 24.2369 28.1218 24.1971C28.1218 24.1971 28.0393 24.3181 27.9789 24.6261C27.9184 24.9315 27.9184 24.9399 27.8964 24.9672C27.8772 25.0004 27.7671 25.1103 27.7615 25.1517C27.7561 25.2258 27.8634 25.3002 27.8716 25.3413C27.877 25.4102 27.7753 25.7292 27.7423 25.8853C27.7093 26.0415 27.7231 26.3474 27.6879 26.5042C27.6603 26.6473 27.6335 26.7298 27.5394 26.7902C27.6081 26.804 27.6741 26.8232 27.6741 26.8232C27.6741 26.8232 27.7704 27.2303 27.5256 27.577C27.4376 27.6979 27.4157 27.7531 27.3221 27.8631C27.1377 28.0666 26.9946 28.2983 26.9809 28.449C26.9713 28.4045 26.9649 28.3595 26.9616 28.3141C26.9616 28.3141 26.6757 28.647 26.5545 28.8369C26.3979 29.0817 26.1805 29.0679 26.1193 29.1285C26.0582 29.189 26.045 29.2989 26.0649 29.3871C26.0105 29.4007 25.9083 29.4201 25.8394 29.6319C25.8064 29.7417 25.7239 29.8495 25.5946 29.9234C25.4653 29.9974 25.3084 30.0197 25.2286 30.0389C25.2974 30.0582 25.3249 30.0582 25.3579 30.0801C25.3168 30.1488 25.1269 30.2562 24.9151 30.3938C24.7033 30.5231 24.6014 30.7128 24.5492 30.8366C24.4948 30.9521 24.4144 31.0265 24.2852 31.0403C24.3396 31.0733 24.4201 31.1502 24.4612 31.175C24.4007 31.1888 24.298 31.1888 24.1147 31.3456C23.9221 31.5052 23.8561 31.552 23.768 31.5658V31.5658L23.7671 31.5656Z" fill="#C39D3C"/>
<path fill-rule="evenodd" clip-rule="evenodd" d="M19.9394 32.8403C20.0447 32.7665 20.1588 32.706 20.279 32.6602C20.7081 32.4898 21.1619 32.4568 21.3407 32.4018C21.5114 32.3474 21.6461 32.2724 21.8579 32.2312C21.8523 32.2794 21.8476 32.3248 21.8425 32.3676C21.2181 32.5639 20.5822 32.7217 19.9385 32.8403H19.9394Z" fill="#D2BA6B"/>
<path fill-rule="evenodd" clip-rule="evenodd" d="M27.853 21.5554C27.853 21.5554 27.7651 22.0312 27.6082 22.3311C27.4514 22.6311 27.2818 23.0463 27.2818 23.0463C27.2828 22.9527 27.2939 22.8595 27.3148 22.7683C27.1168 22.8838 26.6354 23.1618 26.4988 23.2855C26.3695 23.401 26.1521 23.6046 26.0972 23.7009C26.2265 23.3214 26.3612 22.9803 26.3833 22.8235C26.1853 22.9665 25.2609 23.7285 24.7796 24.2319L23.2803 25.445C23.1073 25.5383 22.9291 25.6218 22.7467 25.6949C22.4883 25.8048 22.1829 25.8983 21.9573 25.9865C22.0179 25.8242 22.114 25.6809 22.2489 25.5435C22.392 25.4087 22.821 24.9438 22.887 24.7275C22.9476 24.5019 22.9614 24.3671 22.8816 24.1773C22.8072 24.1965 22.6368 24.2049 22.5213 24.2379C22.4058 24.2709 22.2819 24.3945 22.2819 24.3945C22.2819 24.3945 22.3699 23.8911 22.5597 23.4153C22.4166 23.4208 22.1718 23.4619 22.1718 23.4619C22.1718 23.4619 22.5129 22.8898 23.0966 22.4911C22.9179 22.5291 22.7429 22.5834 22.574 22.6532C22.2329 22.7963 21.8589 23.0081 21.5811 23.1236C21.7377 22.906 22.8381 21.3356 23.4929 19.8721C24.1457 18.4114 24.3895 18.0373 24.5326 17.2534C24.6068 16.8656 24.587 16.2924 24.6068 15.779C24.626 15.27 24.6893 14.8134 24.6481 14.5081C24.8186 14.7199 25.4569 15.3168 25.4788 16.6511C25.498 17.9851 24.8683 19.787 24.1997 20.7579C24.3629 20.8047 24.7858 20.8598 25.2202 20.1051C25.6547 19.3504 25.6494 19.1397 25.8063 18.826C25.8255 18.9828 25.8199 19.0378 25.8199 19.0378C25.8199 19.0378 26.4528 18.2704 26.7525 17.3048C26.8131 17.7202 26.9919 18.0861 26.7112 18.8481C26.4609 19.5357 26.1336 19.7036 26.1336 19.7036C26.1336 19.7036 26.2959 19.6761 26.5351 19.533C26.5764 19.6347 26.5683 19.7506 26.637 19.7916C26.7057 19.8325 26.7993 19.9016 26.8131 19.9676C26.8872 19.8576 27.0027 19.7172 27.0386 19.6128C27.0111 19.8304 26.9919 20.7818 27.093 21.266C27.305 21.2468 27.5223 21.233 27.6708 20.8506C27.569 21.2248 27.569 21.4502 27.6378 21.7694C27.7506 21.6925 27.8523 21.5548 27.8523 21.5548V21.5548L27.853 21.5554Z" fill="#C0993A"/>
<path fill-rule="evenodd" clip-rule="evenodd" d="M20.7052 6.39287C20.7052 6.39287 20.4934 6.48081 20.1331 6.48081C19.8196 6.48081 19.9075 6.35986 19.4179 6.35986C18.6643 6.35986 16.0317 6.79506 15.5695 6.7889C15.2695 6.78346 16.5817 6.91819 16.5817 6.91819L19.9351 6.96497L20.6089 6.91057L20.8593 6.40103L20.7052 6.39287Z" fill="#A88F33"/>
<path fill-rule="evenodd" clip-rule="evenodd" d="M12.0099 12.9482C12.0099 12.9482 11.5807 13.2755 11.3992 13.5259C11.2177 13.7763 11.1214 13.9412 10.915 14.1448C10.9635 14.1467 11.0119 14.1401 11.0581 14.1256C11.0581 14.1256 11.0581 14.18 11.0251 14.1943C11.0829 14.1878 11.1405 14.2078 11.1818 14.2487C11.1212 14.2817 10.9562 14.4469 11.0855 14.6422C11.1818 14.7907 11.3854 14.8043 11.3854 14.8043C11.3854 14.8043 11.3386 14.9392 11.5339 14.9254C11.9548 14.9062 12.4252 14.7218 12.6424 14.7686C12.86 14.823 12.9837 14.8429 13.1376 15.1099C13.3008 15.3739 13.443 15.4152 13.443 15.4152C13.443 15.4152 13.5393 15.1702 13.5174 14.8045C13.5963 14.6073 13.6401 14.3979 13.6466 14.1856L13.5036 13.1321L12.8792 12.3425L12.0705 12.791L12.0099 12.9476V12.9482Z" fill="#E3C571"/>
<path fill-rule="evenodd" clip-rule="evenodd" d="M12.7773 12.7914C12.7773 12.7914 12.8379 12.9344 13.0911 12.948C13.0635 13.0086 13.0635 13.0169 13.0718 13.0635C13.0773 13.1103 13.0854 13.1791 13.0854 13.1791C13.1133 13.1656 13.1385 13.1471 13.1598 13.1247C13.1736 13.1852 13.146 13.2813 13.1598 13.3502C13.1683 13.3921 13.1821 13.4328 13.2009 13.4712C13.205 13.4618 13.2096 13.4526 13.2147 13.4438C13.2202 13.43 13.2691 13.5923 13.4046 13.7158C13.4045 13.6968 13.4091 13.6781 13.4182 13.6614C13.4203 13.6959 13.4317 13.7292 13.4512 13.7577C13.441 13.7529 13.4318 13.7464 13.4238 13.7385C13.4238 13.7385 13.4374 14.1737 13.5117 14.3987C13.5242 14.3842 13.5352 14.3685 13.5447 14.3519C13.5447 14.3383 13.5393 14.4731 13.5255 14.5695C13.5063 14.6658 13.5201 14.8005 13.5201 14.8005C13.5697 14.7615 13.6242 14.7291 13.6822 14.7043C13.7647 14.6711 13.8998 14.5693 13.9821 14.3438C14.0299 14.216 14.0667 14.0844 14.0922 13.9505C14.1188 14.0017 14.1371 14.0567 14.1466 14.1137C14.1522 14.1824 14.2815 14.1467 14.2815 14.1467L14.3091 13.8467L14.4723 13.1673L14.6208 12.7464L15.336 11.6325L16.6281 10.6373L17.756 10.8959L18.7077 9.60299L17.0682 8.61816L15.5167 8.78046L14.1087 10.7307L12.981 12.4996L12.7773 12.7912V12.7912L12.7773 12.7914Z" fill="#D8B65B"/>
<path fill-rule="evenodd" clip-rule="evenodd" d="M20.9034 9.96909C20.9034 9.96909 20.8071 9.98831 20.5293 10.1323C20.2515 10.2763 20.059 10.322 19.9516 10.5338C19.8443 10.7456 19.8361 10.9135 19.8361 10.9135C19.8361 10.9135 20.026 10.831 20.136 10.8034C20.2515 10.776 20.3808 10.7842 20.367 10.831C20.3538 10.863 20.3354 10.8928 20.3126 10.9189C20.3126 10.9189 20.5302 10.9135 20.5244 11.0208C20.5186 11.1282 20.4833 11.2464 20.4421 11.2986C20.4008 11.353 20.2303 11.4335 20.2111 11.4968C20.1643 11.6261 20.2303 11.6316 20.2055 11.736C20.1863 11.8379 20.0956 12.0359 19.7984 12.3825C19.493 12.7292 19.3632 12.974 19.3632 12.974C19.3632 12.974 19.2147 12.6962 19.1376 12.4568C19.0832 12.4842 18.7911 12.6465 18.7911 12.6465L18.1143 10.2891L18.1279 10.1323C18.1279 10.1323 18.1885 10.0581 18.2023 9.92049C18.1006 9.88749 18.0868 9.85993 17.9519 9.73082C17.817 9.60171 17.7071 9.44467 17.4817 9.33732C17.4487 9.27676 17.4073 9.19443 17.2423 9.16125C17.0773 9.12806 16.9783 9.10086 16.9783 9.10086C16.9783 9.10086 17.0662 9.06768 17.1076 8.99895C17.0057 9.01274 16.9233 9.04574 16.7005 9.0403C16.4749 9.03468 16.4501 9.02652 16.3264 9.04574C16.2027 9.06496 16.0544 9.12008 15.9991 8.93023C15.9385 8.88344 15.8092 8.92479 15.6992 9.0869C15.5891 9.24901 15.5507 9.37848 15.3389 9.44177C15.324 9.53513 15.2913 9.62476 15.2426 9.70579C15.182 9.8077 15.0857 9.90943 14.9564 10.0607C14.7528 10.3 14.7858 10.6933 14.4612 10.9933C14.1339 11.293 14.5156 10.1624 14.5156 10.1624L15.0382 8.91119L16.5264 7.45599L18.8371 7.29932L19.0627 8.49612L20.1906 8.88399L20.9031 9.97054V9.97054L20.9034 9.96909Z" fill="#D3AE4D"/>
<path fill-rule="evenodd" clip-rule="evenodd" d="M21.2692 10.2329L20.2982 8.83283L19.6187 8.31005C19.6187 8.31005 19.1346 7.41898 19.1016 7.39141C19.074 7.37219 18.6174 7.32269 18.3258 7.30347L18.3802 7.4382C18.4439 7.45887 18.5004 7.49701 18.5434 7.54827C18.6727 7.69678 18.7552 7.9773 18.4609 8.27723C18.5764 8.31839 18.6241 8.33163 18.7249 8.31839C18.6232 8.43952 18.3922 8.6981 18.3784 8.92368C18.3646 9.10791 18.4801 9.16286 18.4801 9.16286C18.4801 9.16286 18.3041 9.3665 18.2959 9.70686C18.379 9.61309 18.47 9.52658 18.5679 9.44828C18.7715 9.28508 19.0521 9.10157 19.2419 8.98606C19.2393 9.03453 19.2458 9.08306 19.2611 9.12913C19.2611 9.12913 19.6158 8.83755 19.9139 8.96684C20.0487 9.0274 19.9881 9.21726 19.9881 9.21726C19.9881 9.21726 20.1725 9.14853 20.3018 9.27782C20.4311 9.40711 20.6153 9.73986 20.7089 9.86933C20.7501 9.9299 20.8574 10.0454 20.9673 10.224C21.1175 10.4744 21.2428 10.7388 21.3416 11.0135C21.347 10.9035 21.3691 10.7495 21.5592 10.7495L21.2703 10.2324L21.2692 10.2329Z" fill="#CAA13E"/>
<path fill-rule="evenodd" clip-rule="evenodd" d="M6.71219 14.2107C6.71219 14.2107 6.64346 14.0401 6.71219 13.7073C6.78091 13.3746 6.88826 13.2177 6.92398 12.7281C6.95971 12.2385 7.27885 11.6278 7.27885 11.6278L8.16176 11.2263L8.78628 11.3968L8.97051 12.2331L8.18099 12.6683C8.18099 12.6683 8.13982 12.8525 7.91696 13.001C7.69411 13.1495 7.38602 13.265 7.31185 13.4165C7.26752 13.5092 7.23516 13.6072 7.21557 13.708C7.21557 13.708 6.98999 13.6613 6.85526 13.8098C6.71219 13.9612 6.71763 14.0959 6.71219 14.2114V14.2107Z" fill="#F4EFC8"/>
<path fill-rule="evenodd" clip-rule="evenodd" d="M8.49466 13.9878C8.49466 13.9878 8.42031 14.0346 8.36537 14.151C8.31097 14.0631 8.18095 13.5403 8.17551 13.0699C8.17007 12.5995 8.14197 12.4829 8.25077 12.3208C8.35957 12.1587 8.78625 11.9879 8.72568 11.6959C8.66511 11.4181 8.41197 11.3026 8.10117 11.3824C7.88357 11.4368 7.72164 11.8996 7.49606 12.1306C7.32542 12.3067 7.12197 12.2791 7.06702 12.3754C6.99268 12.5047 7.0614 12.634 7.03946 12.7165C7.03384 12.744 6.96512 12.8926 6.84126 13.0714C6.59102 13.4317 6.16743 13.9407 6.1123 14.3973C6.13153 14.1387 6.11793 14.1332 6.18665 13.8471L6.14531 13.7784L6.41731 12.8871L6.59338 12.1527L6.98688 10.9229L7.67993 9.66591L8.35395 8.91211L9.05534 8.95889L9.13785 10.0124L9.5395 11.9904L10.384 13.0302L9.0305 13.941L8.49412 13.9878V13.9878H8.49466Z" fill="#EBCC73"/>
<path fill-rule="evenodd" clip-rule="evenodd" d="M8.9154 14.3616C8.9154 14.3616 8.79989 14.3891 8.75855 14.3672C8.7172 14.3453 8.67622 14.3204 8.68982 14.2929C8.70342 14.2653 8.77777 14.2187 8.77777 14.1966C8.78094 14.155 8.75049 14.1185 8.70904 14.1141C8.64576 14.1059 8.62654 14.1471 8.62654 14.1471C8.62654 14.1471 8.56597 14.1005 8.51665 14.0927C8.54583 14.0891 8.57519 14.0872 8.60459 14.087C8.52858 14.0526 8.44794 14.0295 8.36523 14.0183C8.43396 13.9772 8.56887 13.856 8.65682 13.856C8.74477 13.856 8.79989 13.8424 8.78611 13.7956C8.77233 13.7489 8.7036 13.6801 8.62944 13.6526C8.65682 13.6196 8.67622 13.5701 8.61022 13.435C8.54131 13.3002 8.56887 13.2094 8.59099 13.1766C8.61022 13.1352 8.67894 13.0611 8.71194 13.0143C8.74495 12.9675 8.77251 12.9042 8.82745 12.8712C8.85502 12.852 8.94296 12.8168 9.03109 12.7833C9.12738 12.7503 9.20717 12.7089 9.26211 12.7503C9.32267 12.7914 9.29511 12.8465 9.29511 12.8465C9.29511 12.8465 9.48497 12.7776 9.65542 12.8658C9.82606 12.9481 10.2415 13.0005 10.2415 13.0005L10.3904 13.3004L9.40554 14.1449L8.99845 14.3485L8.91594 14.3621V14.3621L8.9154 14.3616Z" fill="#E5C66B"/>
<path fill-rule="evenodd" clip-rule="evenodd" d="M10.2827 12.9812C10.2827 12.9812 9.97737 13.1848 9.90865 13.259C9.94981 13.2646 10.0185 13.2922 9.99097 13.3333C9.95797 13.3745 9.75996 13.5176 9.64989 13.6525C9.53438 13.7872 9.42431 13.9579 9.38587 14.0404C9.3447 14.1145 9.031 14.332 8.92383 14.3593C9.14941 14.3593 9.60328 14.0815 9.77374 14.0815C9.7683 14.164 9.82052 14.2576 9.91681 14.2658C10.0131 14.2739 10.2909 14.3263 10.665 14.0953C11.0391 13.8697 10.9154 13.7018 11.0721 13.5919C11.372 13.3937 11.493 13.2177 11.658 13.1078C11.823 12.9979 11.9084 12.9729 11.9084 12.9729C11.9084 12.9729 11.9138 12.8903 11.9628 12.8987C11.9901 12.9018 12.0134 12.9198 12.0234 12.9455C12.0234 12.9455 12.3095 12.7418 12.6762 12.6869C12.6676 12.6831 12.6608 12.6762 12.6569 12.6677C12.6569 12.6677 12.6843 12.6539 12.6899 12.6401C12.6899 12.6401 12.7092 12.6125 12.7229 12.6263C12.7367 12.6401 12.7559 12.7418 12.7835 12.7832C12.8441 12.7556 12.9596 12.497 12.9596 12.497L13.2376 11.7021V10.9758L13.02 11.0172L11.388 11.7102L10.3975 12.7364L10.282 12.9812H10.2827Z" fill="#E6BD62"/>
<path fill-rule="evenodd" clip-rule="evenodd" d="M14.9807 9.41887C15.069 9.39745 15.1536 9.36311 15.2319 9.31696C15.1989 9.40508 15.1989 9.50137 15.0558 9.71045C14.9127 9.91953 14.9073 9.94981 14.7918 10.167C14.6763 10.3926 14.6625 10.7172 14.5524 10.8601C14.6018 10.8361 14.6547 10.8204 14.7091 10.8135C14.7091 10.8135 14.5992 10.9098 14.5524 11.0115C14.5056 11.1132 14.4231 11.325 14.2197 11.4545C14.0162 11.584 13.7575 11.6663 13.4797 11.9717C13.2017 12.2714 12.9157 12.6511 12.7725 12.7877C12.8468 12.6584 12.9485 12.3998 12.9761 12.2294C13.0037 12.0589 12.9705 11.8551 13.0173 11.6297C13.064 11.4043 13.064 11.2418 13.2893 10.8483C13.5145 10.4548 13.9 9.08775 13.9 9.08775L14.7307 8.82373L14.9811 9.41796V9.41796L14.9807 9.41887Z" fill="#B6933F"/>
<path fill-rule="evenodd" clip-rule="evenodd" d="M14.3813 8.91537C14.3813 8.91537 14.131 9.27568 14.0623 9.59483C13.9936 9.91397 14.0567 9.88641 14.0155 10.0433C13.9909 10.1389 13.9909 10.2392 14.0155 10.3348C14.1022 10.1952 14.2209 10.0782 14.3617 9.99358C14.5983 9.85069 14.7909 9.74878 14.9057 9.62783C15.0212 9.49854 15.1175 9.28674 15.3677 9.12445C15.266 9.11067 15.1229 9.06388 15.0957 9.07005C15.1976 8.95454 15.5028 8.77847 15.8109 8.56667C16.1163 8.34907 16.0971 8.2613 16.5923 8.04407C16.43 8.07163 16.3529 8.03029 16.218 8.04407C16.2724 7.92856 16.4628 7.87343 16.6532 7.68376C16.8436 7.49408 16.5323 7.21338 16.5323 7.21338L15.0816 8.09085L14.3802 8.9161L14.3813 8.91537Z" fill="#C49937"/>
<path fill-rule="evenodd" clip-rule="evenodd" d="M10.4448 8.26065L10.4778 7.99662L10.8933 7.33095L11.3279 6.16189V4.56362L11.2949 3.63937L11.3636 3.03408L11.4159 2.84168L11.471 2.76733L11.8257 2.95157L12.3155 3.61724L12.3622 4.90199L11.8862 6.9293L10.5273 8.41206L10.4448 8.26065V8.26065Z" fill="#DFC068"/>
<path fill-rule="evenodd" clip-rule="evenodd" d="M11.5258 2.6931C11.5258 2.6931 11.3082 2.69872 11.2617 3.60375C11.2153 4.50879 11.1928 4.98461 11.1598 5.43304C11.1268 5.88148 11.05 6.15366 11.0113 6.41786C10.9727 6.68207 10.9508 7.0422 10.8271 7.26233C10.7727 7.36406 10.6565 7.68321 10.3841 7.92257C10.0787 8.18659 9.6225 8.37101 9.55341 8.38479C9.43228 8.41217 8.81883 8.47273 8.56859 8.61037C8.48064 8.65715 8.32923 8.71209 8.16149 8.86895C7.82857 9.16869 7.38575 9.70507 7.0666 10.3515C6.577 11.3171 6.0874 14.0431 6.0874 14.0431L6.19747 13.8589C6.19747 13.8589 6.21125 13.6141 6.45605 13.1849C6.69541 12.7558 6.62669 12.2744 6.95943 11.4519C7.08873 11.1383 7.25102 10.7312 7.44903 10.3845C7.76274 9.82058 8.14227 9.33642 8.5247 9.0724C9.14903 8.64337 9.83683 8.5498 9.83683 8.5498L10.5769 8.0602C10.5769 8.0602 10.7061 7.80996 10.8768 7.52382C11.116 7.12234 11.4208 6.67391 11.4873 6.02201C11.5892 5.05641 11.3443 4.42374 11.358 3.85164C11.3718 3.27953 11.3773 2.85865 11.493 2.75675C11.6086 2.65484 11.526 2.69346 11.526 2.69346V2.69346L11.5258 2.6931Z" fill="#A88F33"/>
<path fill-rule="evenodd" clip-rule="evenodd" d="M11.5258 7.01189C11.5258 7.01189 11.8522 6.20858 12.0016 5.49613C12.0291 5.35305 12.0841 5.21016 12.0979 5.09465C12.1666 4.42064 12.1858 4.14284 12.0979 3.77418C12.0291 3.50218 11.7651 3.25702 11.6275 3.06698C11.4927 2.86879 11.4295 2.79498 11.457 2.75328C11.4846 2.71157 11.5918 2.64339 11.6962 2.65155C11.9206 2.65808 12.1324 2.75641 12.2823 2.92355C12.4941 3.16835 12.6618 3.99922 12.6618 3.99922L12.8382 5.09556L13.2867 6.47641L11.5261 7.01298V7.01298L11.5258 7.01189Z" fill="#C99E3D"/>
<path fill-rule="evenodd" clip-rule="evenodd" d="M14.5932 6.17557C14.5932 6.17557 14.5326 6.20295 14.4227 6.17557C14.4323 6.26713 14.3898 6.35633 14.3127 6.40659C14.1971 6.35981 13.1159 6.45337 13.1159 6.45337C13.1159 6.45337 12.6125 6.36525 12.4556 5.69957C12.3457 5.25657 12.5381 4.64603 12.4748 4.24437C12.3786 3.65286 12.2438 3.53717 12.23 3.35312C12.2163 3.16907 12.2025 3.1221 12.2025 3.00659C12.1419 2.99281 12.1062 2.97359 12.0458 2.97359C12.032 2.91919 12.0594 2.87168 11.999 2.77539C12.032 2.78917 12.2576 2.81673 12.5216 3.06697C12.7392 3.27061 12.7392 3.34478 12.772 3.38612C12.8132 3.42728 13.1461 3.71252 13.2892 3.99685C13.4323 4.28118 13.7101 5.18785 13.7734 5.33636C13.7926 5.39693 13.8339 5.45749 13.9366 5.59494C14.0961 5.79314 14.3299 6.12081 14.5939 6.17521V6.17521L14.5932 6.17557Z" fill="#B58634"/>
<path fill-rule="evenodd" clip-rule="evenodd" d="M12.8105 3.3999C12.9772 3.66909 13.1269 3.9484 13.2588 4.23621C13.4211 4.60196 13.5174 4.90189 13.721 5.14669C13.611 4.82772 13.4157 4.20049 13.3001 3.97763C13.1709 3.7419 12.9068 3.48803 12.8105 3.40008V3.40008V3.3999Z" fill="#A88F33"/>
<path fill-rule="evenodd" clip-rule="evenodd" d="M10.9398 7.92254C10.9398 7.92254 10.662 7.99127 10.1448 8.26363C9.97419 8.35158 9.81208 8.42574 9.65523 8.49465C9.24777 8.67889 8.81076 8.84916 8.46405 8.94309C8.49161 8.97609 8.50521 8.98969 8.50521 8.98969C8.50521 8.98969 8.50521 9.1246 8.57956 9.20149C8.53839 9.24283 7.98805 9.61692 8.15052 10.8685C8.26041 10.8273 8.3897 10.7722 8.40892 10.7722C8.44211 10.7778 8.45027 10.8685 8.49143 10.8685C8.53259 10.8685 8.6675 10.8141 8.81058 10.6291C8.80514 10.7035 8.72263 11.4517 9.16544 11.955C9.24795 11.8587 9.45703 11.5396 9.45703 11.5396L9.46247 11.4379C9.46247 11.4379 9.48169 11.083 9.59738 10.7584C9.71307 10.4338 9.93847 10.1945 9.93847 10.1945L11.1155 8.51369L10.9394 7.92236V7.92236L10.9398 7.92254Z" fill="#E6C367"/>
<path fill-rule="evenodd" clip-rule="evenodd" d="M9.83976 10.3903C9.78587 10.4284 9.7265 10.458 9.66368 10.4782C9.64446 10.4095 9.6169 10.1729 9.77919 9.94186C9.96905 9.66388 10.3843 9.30357 10.4998 9.01707C10.5742 8.83265 10.5412 8.37061 11.2014 7.7791C11.8616 7.18759 12.12 6.98414 12.12 6.98414L13.1874 6.44775L14.4995 6.96492L13.8476 9.5199L13.3415 10.7167L11.3287 10.3372L9.83958 10.3903V10.3903H9.83976Z" fill="#DCBA5A"/>
<path fill-rule="evenodd" clip-rule="evenodd" d="M10.6079 9.69653L10.8583 9.383V9.16014C10.8583 9.16014 11.1361 9.0858 11.4359 8.78043C11.7356 8.47507 12.1511 7.88918 12.517 7.9249C12.8829 7.96625 12.9186 8.71987 12.9324 8.93185C12.9462 9.14382 12.993 9.6249 13.0672 9.88366C13.1497 10.1422 12.1759 11.1214 12.1759 11.1214L11.5146 11.6248L10.6079 9.69653V9.69653Z" fill="#E9CE77"/>
<path fill-rule="evenodd" clip-rule="evenodd" d="M11.3828 12.307C11.3828 12.307 11.5864 11.9879 11.4372 11.9192C11.5252 11.7211 11.6875 11.5121 11.6875 11.5121C11.6875 11.5121 11.803 11.2261 12.1771 10.874C12.5511 10.5218 12.7823 10.2879 12.8429 10.0514C12.8802 9.89733 12.9006 9.73959 12.9035 9.58105C12.9439 9.61409 12.9872 9.64352 13.0328 9.669C13.0933 9.69656 13.3793 9.93302 13.3381 10.409C13.297 10.885 13.1205 11.083 13.1205 11.083C13.1205 11.083 12.9501 11.2535 12.8291 11.3416C12.6997 11.4296 12.6531 11.5313 12.4356 11.5396C12.458 11.5219 12.4831 11.5079 12.51 11.4983C12.51 11.4983 12.2844 11.4709 12.1633 11.5808C12.0421 11.6907 11.7846 12.0292 11.6554 12.1311C11.5261 12.2137 11.3834 12.3072 11.3834 12.3072V12.3072L11.3828 12.307Z" fill="#CDAE50"/>
<path fill-rule="evenodd" clip-rule="evenodd" d="M20.5292 6.95656C20.2042 6.83811 19.8626 6.7713 19.517 6.75854C18.9392 6.73932 18.0948 6.77232 17.2668 6.77776C16.3756 6.7832 15.5668 6.4724 14.4445 6.41745C14.2603 6.30738 13.7917 5.82594 12.3291 6.84649C12.417 6.84105 13.391 6.62091 13.7292 7.04468C14.0703 7.46556 13.974 8.18074 13.9274 8.35119C13.8392 8.7309 13.5531 9.28379 13.4378 9.67166C13.3224 10.0595 13.3496 10.2633 13.2671 10.5353C13.1846 10.8073 13.0031 10.9424 13.1103 11.256C13.2534 11.168 13.3279 11.168 13.5669 10.6316C13.8059 10.0953 13.7567 9.71282 14.153 9.25894C14.5408 8.80235 15.1866 8.17784 15.4321 8.02098C15.6776 7.86413 17.6271 6.85193 19.6684 7.81753C20.1607 7.7653 20.5294 6.95637 20.5294 6.95637V6.95637L20.5292 6.95656Z" fill="#D2A83E"/>
<path fill-rule="evenodd" clip-rule="evenodd" d="M13.1514 6.58243C13.1493 6.56176 13.1448 6.54142 13.1378 6.52187C13.1187 6.48164 13.0936 6.44453 13.0634 6.4118C13.0634 6.4118 12.5792 6.32385 12.3344 6.35123C11.9052 6.39802 11.5174 6.92896 11.3358 7.20132C11.1543 7.47368 10.9287 7.89438 10.6839 8.1118C10.6866 8.09062 10.6817 8.06917 10.6702 8.05123C10.6702 8.05123 10.6839 8.07045 10.6566 8.09802C10.6292 8.12558 10.629 8.13918 10.6428 8.15242L10.6841 8.19358C10.6977 8.19358 11.0774 8.02294 11.5946 7.54078C12.1448 7.0374 12.5656 6.77918 12.7858 6.69069C12.9032 6.6408 13.0259 6.60448 13.1515 6.58243V6.58243H13.1514Z" fill="#C29637"/>
<path fill-rule="evenodd" clip-rule="evenodd" d="M22.543 4.51416C22.543 4.51416 22.4549 4.62405 22.3448 4.74518C22.1 5.00376 21.7809 5.29516 21.5085 5.59509C21.2501 5.88123 20.9585 6.10409 20.631 6.47818C20.3036 6.85227 19.9238 7.26753 19.8277 7.38866C19.7398 7.50979 19.6711 7.7078 19.6711 7.80953C19.6243 7.77653 19.5693 7.74081 19.5693 7.74081C19.5925 7.78399 19.6201 7.8246 19.6518 7.86194C19.7206 7.95822 19.8277 8.07954 19.8829 8.15352C19.9505 8.2477 19.999 8.35422 20.0258 8.46705C20.0588 8.47249 20.2706 8.51383 20.5348 8.07917C20.799 7.64452 21.1453 7.1687 21.1453 7.1687L21.6955 6.35161L22.0422 5.65855L22.4774 4.88281L22.5436 4.51416V4.51416H22.543Z" fill="#AC8132"/>
<path fill-rule="evenodd" clip-rule="evenodd" d="M23.1069 3.9585C23.1069 3.9585 22.774 4.2305 22.6447 4.3937C22.5154 4.5569 22.2095 4.98521 22.2095 4.98521L22.3195 4.97142L22.8781 4.47638L23.0957 4.08851L23.1067 3.95922L23.1069 3.9585Z" fill="#A88F33"/>
<path fill-rule="evenodd" clip-rule="evenodd" d="M23.0049 25.8191C23.0049 25.8191 22.9994 25.5935 23.126 25.4588C23.2553 25.3239 23.5826 25.1258 23.9017 24.3831C24.2209 23.6404 24.2564 23.4726 24.2564 23.4726C24.2564 23.4726 23.6843 23.9622 23.3316 24.0777C23.4141 23.9071 23.4609 23.7861 23.5023 23.698C23.4555 23.6569 23.2575 23.6101 23.2382 23.5881C23.3481 23.4781 23.4087 23.2084 23.6316 23.0296C23.9177 22.812 24.4403 22.4381 24.8465 22.1048C25.2527 21.7715 26.0513 20.9963 26.1532 20.7708C26.2137 20.8587 26.2273 20.9136 26.2273 20.9136C26.2273 20.9136 25.8259 21.4364 25.6168 21.7692C25.4324 22.0553 25.4462 22.2176 25.4462 22.2176L25.8259 22.0544C25.8259 22.0544 25.9358 22.4615 25.438 23.0806C25.6556 22.9981 25.7434 23.0476 25.867 22.9787C25.6634 23.1081 25.3829 23.2842 25.1189 23.7682C24.8603 24.2524 24.5081 24.8163 23.9141 25.1683C23.3363 25.5396 23.0034 25.8174 23.0034 25.8174V25.8174L23.0049 25.8191Z" fill="#A67A2E"/>
<path fill-rule="evenodd" clip-rule="evenodd" d="M21.5143 7.24306C21.5143 7.24306 21.2888 7.71325 21.2557 8.07918C21.2503 8.16731 21.2282 8.23604 21.2282 8.33776C21.2227 8.66507 21.2474 9.031 21.1738 9.20145C21.1462 9.13273 21.1324 9.08595 21.1049 9.05856C21.0637 9.17407 20.9894 9.53438 20.9288 9.66911C20.9014 9.58117 20.8409 9.2758 20.8465 8.91549C20.8521 8.55518 20.8601 8.48628 20.8601 8.41211C20.8465 8.522 20.7721 8.67069 20.7446 8.75864C20.7034 8.68447 20.6566 8.58819 20.6015 8.5084C20.5685 8.5628 20.5273 8.64313 20.4916 8.68447C20.486 8.65147 20.4724 8.56334 20.4641 8.43967C20.4586 8.2966 20.4503 8.11237 20.4586 8.07374C20.4722 7.99958 20.5879 7.70799 20.8327 7.44107C21.1243 7.12192 21.4242 6.50866 21.5122 6.3188C21.6001 6.12894 21.9742 5.3396 21.9742 5.3396H22.2603L21.8449 6.2858C21.8449 6.2858 21.5947 6.80296 21.4654 6.993C21.3361 7.18303 21.0637 7.72758 20.9426 7.93938C21.0305 7.82387 21.1049 7.7633 21.193 7.65323C21.2782 7.57616 21.5147 7.24342 21.5147 7.24342V7.24342L21.5143 7.24306Z" fill="#8C6228"/>
<path fill-rule="evenodd" clip-rule="evenodd" d="M23.1125 3.92261C23.0658 4.06646 22.9919 4.20004 22.8949 4.3161C22.7243 4.51974 22.3583 4.79192 22.1797 5.00916C22.0165 5.22095 21.6901 5.79868 21.8385 6.48358C21.8929 6.33507 21.9953 6.04076 22.2677 5.70783C22.54 5.37491 22.8316 4.99266 22.9749 4.69563C23.1178 4.39571 23.137 4.15925 23.137 4.15925L23.1914 4.09052L23.1584 3.93367L23.1116 3.92261L23.1125 3.92261Z" fill="#CBA94C"/>
<path fill-rule="evenodd" clip-rule="evenodd" d="M28.683 22.1686C28.683 22.1686 28.5729 21.8689 28.5399 21.5965C28.5069 21.3242 28.5943 21.2701 28.4931 20.9584C28.4326 20.7686 28.3227 20.7952 28.2951 20.7686C28.2676 20.7419 28.2483 20.455 28.2538 20.2982C28.2592 20.1413 28.2483 19.9379 28.2208 19.8498C28.1796 19.8168 28.152 19.7892 28.0915 19.5857C28.0228 19.3821 27.9897 19.2804 27.9567 19.22C27.9237 19.1596 27.8273 19.1045 27.8273 19.0439C27.8273 18.9228 27.9373 18.8597 27.9373 18.8263C27.9319 18.7576 27.8494 18.8127 27.8273 18.7933C27.7999 18.7603 27.8962 18.5623 27.8605 18.5347C27.8467 18.5211 27.7504 18.6366 27.7255 18.6036C27.698 18.5705 27.665 18.2431 27.6155 18.0259C27.5689 17.8141 27.5192 17.6602 27.5138 17.5969C27.5083 17.5363 27.134 16.469 27.0434 16.2104C26.9703 15.9919 26.9088 15.7697 26.8591 15.5447C26.8316 15.4154 26.8124 15.1512 26.7986 15.1788C26.7848 15.2064 26.7931 15.3411 26.771 15.3356C26.7518 15.33 26.6831 14.8598 26.6611 14.7855C26.6419 14.7111 26.5262 14.4591 26.4979 14.2767C26.4704 14.0922 26.41 13.6108 26.3686 13.2835C26.3273 12.9562 26.3081 12.8215 26.3081 12.7395C26.3148 12.539 26.3038 12.3383 26.2751 12.1398C26.2207 11.7931 26.1119 11.3722 26.0165 11.1276C25.8322 10.6654 25.3425 9.48257 25.2549 9.18826C25.2549 9.11392 25.3512 9.15526 25.3512 9.15526C25.3512 9.15526 25.5903 9.75493 25.7664 10.217C25.9371 10.6792 26.0994 11.0863 26.1407 11.1276C26.1737 11.1688 26.4323 11.6227 26.5478 12.3654C26.6633 13.1081 26.7045 13.793 26.7734 14.2496C26.8064 14.4672 26.8339 14.6981 26.9027 14.9291C26.9768 15.1795 27.0923 15.4381 27.2437 15.8341C27.373 16.1671 27.4693 16.4449 27.5215 16.6842C27.5821 16.9896 27.5821 17.2206 27.6178 17.372C27.651 17.5013 27.7003 17.7597 27.816 18.1336C27.9317 18.5075 28.102 18.9891 28.2175 19.2889C28.4433 19.8886 28.5439 20.3892 28.578 20.6561C28.6081 20.9312 28.71 21.883 28.6824 22.169V22.169L28.683 22.1686Z" fill="#A88F33"/>
<path fill-rule="evenodd" clip-rule="evenodd" d="M23.126 3.8895L23.1123 3.92251C23.1123 3.92251 23.1534 3.93629 23.1453 3.99141C23.1458 4.06683 23.1412 4.1422 23.1315 4.21699C23.1179 4.31328 23.0903 4.38745 23.0849 4.44801C23.0849 4.5773 23.1041 4.72581 22.9217 5.09446C22.8673 5.19619 22.8337 5.28414 22.8062 5.3447C22.7374 5.49322 22.7237 5.51534 22.6631 5.58406C22.7594 5.52966 23.1061 5.31206 23.282 5.3447C23.161 5.41343 22.9766 5.54834 22.8611 5.72442C22.8887 5.72986 23.0042 5.75198 23.1875 5.72442C23.4929 5.67763 23.834 5.56756 24.1337 5.5895C24.4612 5.60873 24.3319 5.19619 24.3319 5.19619L23.954 4.3655L23.2388 3.8623L23.126 3.88969V3.8895Z" fill="#BE9C44"/>
<path fill-rule="evenodd" clip-rule="evenodd" d="M24.9912 10.1122C24.9912 10.1122 24.6721 9.79302 24.5428 8.69777C24.4135 7.59744 24.441 5.97777 24.441 5.97777L24.1825 5.3451C24.1825 5.3451 24.1281 4.92422 23.9926 4.76755C23.8571 4.61088 23.5911 4.34668 23.47 4.21738C23.3489 4.08809 23.2114 3.91202 23.1289 3.88446C23.1701 3.81573 23.3545 3.42786 24.0613 3.42242C24.7682 3.41698 24.9861 3.81029 25.0599 3.95336C25.1337 4.09644 25.467 4.71496 25.5907 5.89363C25.7062 7.07085 25.7118 7.15897 25.6926 7.56607C25.6788 7.79165 25.6045 8.31425 25.475 8.87257C25.3568 9.34585 25.2275 9.87408 24.9908 10.1133L24.9912 10.1122Z" fill="#A17C34"/>
<path fill-rule="evenodd" clip-rule="evenodd" d="M23.9904 11.05C24.0968 11.0577 24.203 11.0337 24.2958 10.9811C24.3975 10.9756 24.7662 11.0224 25.0494 10.6621C25.0686 10.7444 25.1183 10.9675 24.9888 11.1655C25.0578 11.0966 25.1595 11.0692 25.1733 11.05C25.1787 11.1517 25.275 11.4652 24.8679 12.2272C24.9778 12.1062 25.1071 12.1117 25.2226 12.0979C25.2282 12.241 25.3051 12.7222 25.1016 12.981C24.9669 13.1571 24.7468 13.1019 24.7468 13.1019C24.75 13.0635 24.75 13.0249 24.7468 12.9864C24.7413 12.9121 24.7138 12.8379 24.7332 12.7884C24.6268 12.7398 24.5299 12.6727 24.447 12.5902C24.2077 12.3646 23.8969 11.9797 23.8749 11.6935C23.8474 11.3744 24.1335 11.3057 24.1335 11.3057C24.1095 11.2842 24.0891 11.2591 24.0729 11.2313C24.0592 11.1847 24.0454 11.1104 23.9904 11.05V11.05V11.05Z" fill="#8C6228"/>
<path fill-rule="evenodd" clip-rule="evenodd" d="M21.8687 7.58954C21.8687 7.58954 21.8549 7.57032 21.7808 7.65827C21.7945 7.57032 21.8083 7.48763 21.8138 7.40785C21.8489 7.33398 21.8943 7.26547 21.9487 7.20439C21.9073 7.28672 21.8798 7.36106 21.8798 7.36106C21.8798 7.36106 21.9817 7.17121 22.1302 7.0557C22.2319 6.97319 22.3612 6.93475 22.4162 6.85768C22.4767 6.77517 22.4629 6.76139 22.4767 6.74761C22.4767 6.74761 22.6116 6.65966 22.818 6.4009C22.8454 6.3679 22.8867 6.33218 22.9143 6.29917C22.9609 6.27995 23.0709 6.23045 23.2002 6.16426C23.3352 6.0901 23.4864 5.98837 23.58 5.94666C23.7642 5.86416 23.9597 5.8725 24.0503 5.74302C24.1191 5.7238 24.1932 5.51745 24.1796 5.34155C24.2814 5.38272 24.804 5.7073 24.9829 6.41704C25.1122 6.92042 24.881 7.69617 24.7847 8.07044C24.6884 8.44471 24.6748 8.72233 24.5399 8.89279C24.3693 9.11855 23.8193 9.43679 23.6844 9.59436C23.5689 9.72365 23.2224 10.051 23.236 10.2874C23.2497 10.4635 23.467 10.5594 23.5139 10.5928C23.5609 10.6262 23.5606 10.6671 23.6487 10.6472C23.7368 10.6272 23.7696 10.5866 23.8055 10.5866C23.8467 10.5921 23.8467 10.6004 23.8659 10.6004C23.8799 10.6 23.8937 10.5981 23.9073 10.5948C23.9073 10.5948 23.8935 10.8452 23.3076 10.9212C23.2662 10.9268 23.2251 10.9404 23.1727 10.9487C23.2416 10.9157 23.2827 10.9157 23.3571 10.814C23.2746 10.8002 23.0379 10.7864 22.9774 10.7672C22.9966 10.7342 23.0599 10.6461 23.1121 10.6049C23.1589 10.5638 23.1067 10.5505 23.0655 10.5719C22.9946 10.6201 22.9266 10.6725 22.8619 10.7286C22.7931 10.7892 22.7326 10.8717 22.6225 10.9462C22.5895 10.8361 22.5949 10.6271 22.7244 10.4758C22.6912 10.4813 22.628 10.5776 22.5676 10.5583C22.5566 10.458 22.5632 10.3565 22.5868 10.2584C22.6198 10.1346 22.7986 9.91732 22.7986 9.91732L23.6623 8.37399L23.8465 7.20493L21.8687 7.58918V7.58918V7.58954Z" fill="#92723A"/>
<path fill-rule="evenodd" clip-rule="evenodd" d="M21.822 7.6556C21.822 7.6556 21.7753 7.6886 21.8688 7.75189C21.855 7.77111 21.822 7.83984 21.7807 7.88662C21.7341 7.94102 21.6844 7.97475 21.6652 8.02153C21.624 8.11782 21.591 8.18382 21.591 8.22517C21.591 8.26651 21.5772 8.53053 21.4617 8.70099C21.4204 8.76155 21.3736 8.86328 21.3406 8.93201C21.2719 9.05296 21.2113 9.14961 21.1975 9.20401C21.1701 9.30029 21.1509 9.56432 21.1509 9.56432C21.1509 9.56432 21.2115 9.48997 21.2334 9.46259C21.2003 9.53131 21.1645 9.60548 21.1123 9.6606C21.1453 9.63304 21.2416 9.56432 21.4039 9.42124C21.6295 9.23157 21.9816 8.91242 22.4108 8.65964C22.2814 8.70643 22.1715 8.70643 22.0835 8.72021C22.1523 8.65148 22.7711 7.92524 23.0957 7.85652C23.1154 7.83153 23.1252 7.80015 23.1233 7.76839L22.8453 7.74101L22.2814 7.86196L22.199 7.42676L21.822 7.65506V7.6556Z" fill="#B18E3E"/>
<path fill-rule="evenodd" clip-rule="evenodd" d="M22.7189 10.1313C22.7189 10.1313 22.6445 10.2055 22.5758 10.3899C22.5229 10.3346 22.4775 10.2726 22.4409 10.2055C22.3392 10.035 22.1825 9.81761 21.8166 9.94146C21.8111 9.82595 21.8028 9.76538 21.8166 9.68288C21.8771 9.66928 22.0614 9.52077 22.2456 9.30335C22.3751 9.15484 22.496 8.9842 22.5785 8.76696C22.6329 8.72562 22.727 8.65689 22.8505 8.57711C23.0266 8.45616 23.2384 8.29096 23.2714 8.10673C23.1889 8.13973 23.0128 8.22224 22.7486 8.20864C22.8505 8.16185 23.0072 8.11235 22.988 7.90871C23.0293 7.88115 23.0623 7.86193 23.0623 7.86193C23.0313 7.85159 22.9987 7.84692 22.966 7.84815C22.9604 7.82893 22.9522 7.80154 22.9055 7.81514C22.8587 7.82874 22.8511 7.82893 22.8449 7.84815C22.8257 7.85377 22.7624 7.84815 22.7156 7.88133C22.6688 7.91451 22.5395 8.02422 22.49 8.04344C22.5092 8.01044 22.5366 7.96112 22.5366 7.96112C22.5366 7.96112 22.4019 7.97472 22.3056 8.01552C22.1295 8.07608 21.9261 8.18615 21.7197 8.29332C21.7389 8.26032 21.7473 8.23892 21.7609 8.23275C21.7745 8.22659 21.8077 8.21915 21.8077 8.21353C21.8077 8.20791 21.7941 8.15913 21.8022 8.13937C21.8639 8.00867 21.9367 7.88351 22.0198 7.76528C22.1161 7.63581 22.1353 7.45157 22.1353 7.45157L22.5562 7.23977L23.739 6.96777L24.5066 7.01456L24.4103 7.5455L23.957 8.47248L23.5691 9.31695L23.1261 9.83429L22.7191 10.1313V10.1313H22.7189Z" fill="#543E26"/>
<path fill-rule="evenodd" clip-rule="evenodd" d="M24.6364 7.83361C24.6364 7.83361 24.1742 8.40572 24.0449 8.49385C24.1274 8.31777 24.6364 7.26967 24.8206 6.97808C24.7795 6.94508 24.7243 6.94508 24.8536 6.43408C24.7437 6.69248 24.7051 6.82739 24.6144 6.89612C24.5238 6.96484 24.5125 6.9429 24.4512 6.9429C24.4628 6.92197 24.4676 6.89794 24.4648 6.87418C24.4648 6.87418 24.077 6.82739 23.812 6.82739C23.5471 6.82739 23.0227 6.97047 22.7309 7.08598C22.4999 7.18226 22.3706 7.18226 22.2881 7.24265C22.2056 7.31137 22.1588 7.38572 22.1175 7.40494C22.0845 7.42416 21.9278 7.47367 21.8919 7.52589C21.8589 7.58029 21.804 7.6414 21.804 7.65518C21.804 7.66896 21.7902 7.68836 21.8315 7.6744C21.8451 7.66896 21.947 7.61384 22.0625 7.54511C22.2192 7.45716 22.4091 7.35544 22.5467 7.29487C22.94 7.13802 23.0639 7.16558 23.2398 7.13258C23.424 7.09958 23.6882 7.02251 23.8641 7.02251C24.0402 7.01707 24.3731 7.02251 24.4502 7.03629C24.4172 7.06385 24.3896 7.09686 24.4034 7.21236C24.4034 7.24537 24.3758 7.28109 24.349 7.36088C24.2667 7.58646 24.1098 7.96055 24.0226 8.1504C23.9016 8.4088 23.7642 8.62622 23.6962 8.76095C23.6282 8.89568 23.4786 9.25055 23.3304 9.44041C23.1823 9.63026 23.1048 9.74577 23.0584 9.78712C23.012 9.82846 22.6787 10.0731 22.7036 10.1612C22.7641 10.142 23.1466 9.99801 23.4242 9.68539C23.7018 9.37277 23.7571 9.18201 23.9743 9.01137C24.1916 8.84074 24.3622 8.55478 24.4639 8.31832C24.5492 8.09818 24.5299 8.02945 24.6371 7.83416V7.83416L24.6364 7.83361Z" fill="#806031"/>
<path fill-rule="evenodd" clip-rule="evenodd" d="M14.6757 12.1036C14.6757 12.1036 14.6151 12.3539 14.4775 12.4777C14.3428 12.5989 14.1034 12.7033 14.076 12.9069C14.043 13.1104 14.3154 13.2123 14.3154 13.2123C14.3154 13.2123 14.1667 13.4571 14.1667 13.6413C14.1667 13.8312 14.1612 13.8669 14.1805 14.0484C14.1586 14.0625 14.1401 14.081 14.1261 14.1028C14.1261 14.1028 14.1397 14.2789 14.2746 14.3888C14.4095 14.4987 14.5248 14.5649 14.5935 14.5373C14.604 14.5597 14.6132 14.5827 14.6211 14.6062C14.6211 14.6062 14.723 14.3476 14.7917 14.1221C14.8605 13.891 14.921 13.9239 14.9484 13.6131C14.9758 13.3023 15.2748 12.7686 15.2748 12.7686L15.4788 12.3125L15.1461 12.054L14.6757 12.1035V12.1036Z" fill="#B6903C"/>
<path fill-rule="evenodd" clip-rule="evenodd" d="M15.2944 12.552C15.2258 12.6224 15.1624 12.6978 15.1049 12.7776C15.017 12.8987 14.9482 13.0086 14.8189 13.0556C14.6896 13.1025 14.6071 13.1022 14.6153 13.2316C14.6235 13.3611 14.7446 13.4159 14.8133 13.4819C14.8877 13.5506 14.9482 13.6661 14.9152 13.7956C14.9564 13.7764 15.0307 13.7542 15.0995 13.6057C15.1682 13.4572 15.6489 12.5522 15.6489 12.5522H15.2944V12.552Z" fill="#685026"/>
<path fill-rule="evenodd" clip-rule="evenodd" d="M17.1905 10.4641C17.1905 10.4641 17.2317 10.3543 17.1905 10.2745C17.1492 10.192 16.8989 10.1644 16.7751 10.0708C16.6458 9.97454 16.4889 9.90763 16.3596 9.94988C16.3789 9.90309 16.4559 9.80118 16.3927 9.77924C16.3321 9.76002 16.1067 9.86175 16.0461 9.90853C15.9856 9.95532 15.8479 10.0103 15.8205 10.0434C15.7932 10.0766 15.7462 10.1397 15.7186 10.1122C15.6911 10.093 15.6775 10.0434 15.6307 10.0708C15.5839 10.0982 15.3587 10.2826 15.3172 10.39C15.2756 10.4973 15.1823 10.7367 14.9017 11.0089C14.6212 11.281 14.5001 11.4573 14.5826 11.559C14.6651 11.6608 14.7037 11.5866 14.7175 11.6745C14.7281 11.7609 14.7234 11.8484 14.7037 11.9331C14.6707 12.0762 14.6158 12.2109 14.6899 12.2385C14.8798 12.2991 15.0642 12.1841 15.1054 12.2193C15.1879 12.2934 15.0586 12.5604 15.2539 12.6126C15.4521 12.667 15.6474 12.5658 15.6474 12.5658L16.368 12.1779L17.0612 11.8122L17.4159 11.1106L17.2257 10.5247L17.1894 10.4641H17.1905Z" fill="#D4B968"/>
<path fill-rule="evenodd" clip-rule="evenodd" d="M16.5104 12.1394C16.5104 12.1394 16.3892 11.9551 16.5379 11.7926C16.6866 11.6302 16.8983 11.5616 16.9808 11.4599C16.9651 11.4405 16.944 11.4262 16.9202 11.4187C16.975 11.3207 17.0585 11.2419 17.1596 11.193C17.1184 11.1518 17.0633 11.1188 17.0029 11.1188C16.868 11.1188 16.7853 11.2013 16.6616 11.2013C16.5407 11.2013 16.5269 11.1408 16.5269 11.1408C16.5269 11.1408 16.7305 11.1215 16.7111 11.0307C16.6919 10.9344 16.6567 10.9344 16.6567 10.9344C16.6567 10.9344 17.05 10.7712 17.1188 10.6842C17.1875 10.5971 17.1793 10.4943 17.1931 10.4531C17.2397 10.4531 17.5121 10.3101 17.6221 10.3706C17.7322 10.4312 17.6551 10.5962 17.6551 10.5962C17.6551 10.5962 17.9882 10.3458 18.158 10.1003C18.3065 10.114 18.3756 9.99854 18.4844 9.99854C18.6193 9.99854 18.8311 10.1828 18.8722 10.5761C18.8998 10.8017 18.941 10.931 18.8998 11.3299C18.8806 11.5555 18.886 12.0371 18.9542 12.2761C19.0008 12.4659 19.1109 12.4467 19.1109 12.4467C19.094 12.5046 19.0605 12.5562 19.0146 12.5952C18.9402 12.664 18.9321 12.8457 18.9402 12.9144C18.9512 12.9646 18.965 13.0142 18.9816 13.0629C18.9816 13.0629 18.8936 13.1646 18.8715 13.2335C18.8523 13.3022 18.7616 13.349 18.6954 13.349C18.6293 13.349 18.6624 13.3434 18.5745 13.349C18.4865 13.3547 18.459 13.3683 18.4039 13.349C18.3487 13.3298 18.3076 13.3077 18.3297 13.1314C18.3489 12.9554 17.6502 12.5455 17.6502 12.5455L16.5078 12.1385V12.1385L16.5104 12.1394Z" fill="#CCA849"/>
<path fill-rule="evenodd" clip-rule="evenodd" d="M15.1982 13.8778C15.1982 13.8778 15.4484 14.2107 16.4773 14.2107C16.9669 14.2107 17.1375 14.1639 17.2389 14.1363C17.349 14.1088 17.7615 13.9467 18.1769 13.4569C18.551 13.0141 18.4685 12.8326 18.4685 12.8326L18.2509 12.7996L17.5437 12.8958L15.4511 13.7871L15.1973 13.8778H15.1982Z" fill="#585136"/>
<path fill-rule="evenodd" clip-rule="evenodd" d="M15.9655 13.9602C15.9655 13.9602 15.0742 14.1584 15.0742 13.5944C15.0742 13.0443 15.6244 12.4665 15.762 12.3648C15.9051 12.2629 16.2462 12.1472 16.2462 12.1472H17.0687L17.2254 12.5627L17.1567 13.4593L15.9655 13.96V13.9602Z" fill="#252211"/>
<path fill-rule="evenodd" clip-rule="evenodd" d="M16.7883 12.3155C16.7883 12.3155 16.6178 12.1587 16.2299 12.3699C15.8421 12.5812 15.5284 13.0227 15.5091 13.4237C15.4899 13.7783 15.8007 14.0426 16.2849 14.0563C16.6452 14.0699 16.8626 14.0288 16.9727 14.0019C16.9451 13.9689 16.8021 13.7901 16.8021 13.7901L16.7885 12.3157V12.3157L16.7883 12.3155Z" fill="#C3B378"/>
<path fill-rule="evenodd" clip-rule="evenodd" d="M16.6206 12.4033C16.6206 12.4033 16.5795 12.3703 16.4574 12.4363C16.3557 12.4907 16.2072 12.6345 16.0917 12.7362C16.0173 12.7968 15.9705 12.8241 15.9285 12.8709C15.7578 13.0746 15.6148 13.4075 15.6974 13.5725C15.7801 13.7375 16.0523 13.9274 16.7456 13.7981L16.6186 12.4035V12.4035L16.6206 12.4033Z" fill="#E6D89C"/>
<path fill-rule="evenodd" clip-rule="evenodd" d="M16.3949 12.7445C16.3949 12.7445 16.2849 12.9152 16.2849 13.1875C16.2849 13.4653 16.4417 13.9082 17.0194 13.9412C17.4622 13.9687 17.7593 13.303 18.0811 13.0445C18.3259 12.8464 18.4745 12.8408 18.4745 12.8408C18.4745 12.8408 18.2242 12.5688 17.5558 12.2165C16.8956 11.8616 16.1556 11.8148 15.7539 12.3596C15.9438 12.3458 16.5572 12.1889 16.5572 12.1889L16.8571 12.2852L16.3949 12.7447V12.7447V12.7445Z" fill="#252211"/>
<path fill-rule="evenodd" clip-rule="evenodd" d="M17.2587 13.1048C17.2395 13.0637 17.2257 13.0086 17.3055 12.995C17.3853 12.9814 17.421 12.9893 17.4486 13.0494C17.4762 13.1094 17.503 13.1594 17.4622 13.1843C17.421 13.2062 17.3137 13.1843 17.2586 13.1045L17.2587 13.1048ZM17.1295 12.717C17.1295 12.717 17.1019 12.7362 17.1157 12.6977C17.1211 12.6511 17.157 12.5685 17.245 12.5879C17.3329 12.6073 17.3139 12.7034 17.2994 12.7309C17.2849 12.7585 17.2114 12.8051 17.1563 12.7853C17.1421 12.7817 17.1305 12.7715 17.1251 12.758C17.1196 12.7444 17.121 12.729 17.1287 12.7166L17.1295 12.717Z" fill="#6F674D"/>
<path fill-rule="evenodd" clip-rule="evenodd" d="M9.68311 12.8927C9.68311 12.8927 9.90071 13.0559 10.1535 13.0495C10.4037 13.0439 10.7256 12.7855 10.8741 12.6203C10.962 12.524 11.0373 12.4223 11.1189 12.3425C11.1878 12.2738 11.2344 12.2408 11.2674 12.194C11.3142 12.1396 11.3637 12.0373 11.3885 12.0042C11.328 12.0509 11.24 12.1336 11.1492 12.1886C11.0612 12.243 10.8714 12.3452 10.7943 12.3728C10.7202 12.4004 9.94985 12.808 9.94985 12.808L9.68311 12.8927V12.8927Z" fill="#AC924C"/>
<path fill-rule="evenodd" clip-rule="evenodd" d="M10.0156 10.8604C10.0156 10.8604 10.1366 10.7778 10.3705 10.7254C10.5961 10.671 11.05 10.6292 11.05 10.6292L11.424 10.7924L11.5726 11.3563L11.3006 11.9424L10.954 12.16L10.5605 11.5273L10.0165 10.8614V10.8614L10.0156 10.8604Z" fill="#9F8E57"/>
<path fill-rule="evenodd" clip-rule="evenodd" d="M9.52596 11.3636L9.39648 11.4602C9.39648 11.4602 9.42967 11.3997 9.45705 11.2154C9.48443 11.0312 9.62768 10.5827 9.83676 10.3242C10.0458 10.0656 10.0404 10.0794 10.0404 10.0794C10.0015 10.0722 9.96138 10.0822 9.93033 10.1067C9.95789 10.0458 10.134 9.82822 10.31 9.71942C10.4861 9.61062 10.5548 9.57635 10.7391 9.66502C10.9233 9.75369 10.9701 9.79975 11.105 9.79431C11.2399 9.78887 11.3552 9.6458 11.3552 9.6458C11.3552 9.6458 11.3828 9.73375 11.2811 9.93738C11.1794 10.141 10.7777 10.5563 10.7777 10.5563L9.94139 11.1284L9.52596 11.3641V11.3641V11.3636Z" fill="#EAC970"/>
<path fill-rule="evenodd" clip-rule="evenodd" d="M10.1448 10.7914C10.1448 10.7914 10.7501 10.8739 10.9343 10.7035C10.9397 10.7227 10.9619 10.7227 10.9619 10.7365C10.9604 10.7469 10.9555 10.7565 10.9481 10.7639C10.9681 10.7607 10.9883 10.7588 11.0086 10.7584C11.0329 10.7656 11.0578 10.7702 11.083 10.7722C11.1033 10.7718 11.1235 10.7699 11.1436 10.7666C11.1397 10.7942 11.1248 10.8191 11.1022 10.8355C11.1298 10.8355 11.1566 10.8409 11.1566 10.8629C11.1566 10.8848 11.162 10.951 11.129 10.9648C11.1017 10.9723 11.0726 10.9704 11.0465 10.9592C11.0487 11.0112 11.0629 11.0621 11.0879 11.1078C11.1423 11.2096 11.2583 11.3254 11.4143 11.2921C11.4143 11.2921 11.4966 11.4901 11.1501 11.9302C11.1035 11.9908 11.0538 12.0733 10.9934 12.142C10.9695 12.194 10.9513 12.2484 10.939 12.3043C10.939 12.3043 11.5251 12.0787 11.6928 11.5643C11.8634 11.0471 11.8964 10.5383 11.8634 10.0625C11.8578 9.92755 11.8359 9.83144 11.8029 9.76253C11.7204 9.5919 11.4892 9.61946 11.3958 9.71575C11.2609 9.85066 11.0353 10.1861 10.7218 10.4171C10.4026 10.6482 10.389 10.6891 10.144 10.7914V10.7914H10.1448Z" fill="#D7BC6B"/>
<path fill-rule="evenodd" clip-rule="evenodd" d="M9.41873 11.5342C9.41873 11.5342 9.30322 11.6029 9.24266 11.8606C9.18209 12.1246 9.29706 12.4465 9.36361 12.5482C9.43015 12.6499 9.5812 12.9279 9.89455 12.9417C9.97211 12.9413 10.0488 12.9254 10.1201 12.8949C10.2295 12.8448 10.3321 12.781 10.4255 12.7051C10.5604 12.6033 10.6703 12.5154 10.6565 12.507C10.6235 12.4933 9.82582 11.833 9.82582 11.833L9.5259 11.4983L9.41855 11.5346L9.41873 11.5342Z" fill="#585136"/>
<path fill-rule="evenodd" clip-rule="evenodd" d="M10.173 12.6289C10.173 12.6289 10.3353 12.6153 10.4316 12.5548C10.5279 12.4942 9.86768 11.8396 9.86768 11.8396L9.91446 12.5468L10.173 12.6289Z" fill="#453A25"/>
<path fill-rule="evenodd" clip-rule="evenodd" d="M9.47097 11.4846C9.47097 11.4846 9.38847 11.6414 9.38847 11.6828C9.37468 11.8175 9.41603 12.2411 9.44903 12.3758C9.48203 12.5189 9.66083 12.7361 9.89203 12.7361C10.0349 12.7361 10.2331 12.6482 10.2331 12.6262C10.2331 12.5987 10.0295 12.5718 9.97453 12.4694C9.94153 12.415 9.92775 12.2797 9.92013 12.143C9.91469 12.055 9.91469 11.9587 9.9477 11.9254C10.022 11.8429 10.0356 11.6062 10.0356 11.6062L10.2997 11.1157H9.95241L9.53698 11.3743L9.47097 11.4846Z" fill="#84754B"/>
<path fill-rule="evenodd" clip-rule="evenodd" d="M9.36914 11.6359C9.36914 11.6359 9.64114 11.2756 9.8863 11.1929C10.1315 11.1102 10.2412 11.1599 10.2412 11.1599L10.0981 11.5258L9.89446 11.7514L9.90825 11.8669C9.90825 11.8669 9.87506 12.1723 10.0787 12.3841C10.2823 12.5959 10.4336 12.5877 10.5217 12.5877C10.6098 12.5877 10.8628 12.5134 10.9921 12.208C11.1076 11.922 11.2039 11.5552 10.9729 11.1874C10.7471 10.8215 10.3483 10.8074 10.2713 10.8074C10.1942 10.8074 9.5891 10.8377 9.36914 11.6353V11.6353V11.6359Z" fill="#252211"/>
<path fill-rule="evenodd" clip-rule="evenodd" d="M16.3533 12.86C16.2516 12.8132 16.3479 12.5273 16.4496 12.4391C16.5514 12.351 16.6807 12.2495 16.9064 12.2355C16.9887 12.2301 17.0685 12.2823 17.0549 12.3374C17.0357 12.4391 16.8926 12.5822 16.7633 12.6839C16.5845 12.8243 16.4689 12.9122 16.3533 12.86Z" fill="#F7F7E7"/>
<path fill-rule="evenodd" clip-rule="evenodd" d="M10.8519 11.3004C10.9262 11.295 11.0225 11.3548 11.0417 11.4353C11.0609 11.5233 10.9949 11.6993 10.8519 11.6993C10.7363 11.6993 10.6758 11.5563 10.6758 11.5151C10.6771 11.4812 10.6865 11.4482 10.7033 11.4188C10.7088 11.4105 10.7226 11.3142 10.8519 11.3004V11.3004Z" fill="#F8F6DE"/>
<path fill-rule="evenodd" clip-rule="evenodd" d="M9.779 11.3635C9.779 11.3635 9.58915 11.4515 9.5012 11.6355C9.43836 11.7714 9.41935 11.9235 9.4468 12.0707C9.46058 12.1394 9.52931 12.3099 9.57609 12.3705C9.62288 12.431 9.68616 12.4724 9.73295 12.4668C9.77973 12.4611 9.87584 12.3375 9.87584 12.2633C9.87584 12.1891 9.88146 11.8754 9.97212 11.7048C10.0519 11.5343 9.77955 11.3637 9.77955 11.3637V11.3637L9.779 11.3635Z" fill="#D4C38B"/>
<path fill-rule="evenodd" clip-rule="evenodd" d="M9.80645 11.3498C9.77345 11.369 9.7185 11.3965 9.7321 11.4323C9.74588 11.4653 9.86139 11.4867 9.90274 11.5672C9.94952 11.6497 9.94952 11.7376 9.93574 11.779C9.97167 11.7619 10.0043 11.7386 10.032 11.7101C10.0926 11.6413 10.1668 11.5479 10.23 11.5479C10.2714 11.5479 10.3126 11.5672 10.3512 11.5672C10.4117 11.5672 10.4721 11.5479 10.4805 11.4847C10.4941 11.4022 10.365 11.3278 10.2906 11.3416C10.3044 11.2872 10.3236 11.2069 10.263 11.1517C10.2025 11.0966 10.0128 11.1931 9.97146 11.2206C9.93012 11.2482 9.80645 11.3499 9.80645 11.3499V11.3499V11.3498Z" fill="#E2D59D"/>
<path fill-rule="evenodd" clip-rule="evenodd" d="M14.1779 17.1293L14.585 17.009L14.7005 17.0915C14.7005 17.0915 14.7828 17.2676 14.9123 17.2896C14.871 17.3775 14.7636 17.4528 14.7692 17.5151C14.7749 17.5775 14.8298 17.6252 14.8298 17.6252C14.8298 17.6252 14.4639 18.2303 15.1847 18.8401C15.014 18.9089 14.7968 19.0033 14.6813 19.0577C14.7636 19.077 14.9397 19.1121 15.014 19.1789C15.0884 19.2456 15.0884 19.2668 15.1571 19.3082C15.2258 19.3495 15.267 19.4044 15.2534 19.4291C15.2066 19.4015 15.0498 19.3192 15.0224 19.3961C14.995 19.473 14.3429 19.4429 14.3429 19.4429L13.2426 19.6547C13.2426 19.6547 13.2838 19.5446 13.1682 19.4429C13.0335 19.3219 12.8685 19.4483 12.6924 19.3136C12.4614 19.1375 12.4531 18.9339 12.3789 18.857C12.4531 18.8102 12.6045 18.7415 12.9648 18.6938C12.951 18.6662 12.9042 18.5837 12.9318 18.5096C12.9648 18.4133 13.1022 18.3527 13.0611 18.2376C13.1216 18.2238 13.149 18.2238 13.3004 18.0339C13.4435 17.8441 13.5315 17.8029 13.6415 17.7891C13.7516 17.7753 13.8176 17.7891 14.0212 17.5993C14.1641 17.4645 14.1175 17.349 14.1175 17.349C14.1175 17.349 14.2109 17.3188 14.1781 17.1289V17.1289L14.1779 17.1293Z" fill="#CBAC5A"/>
<path fill-rule="evenodd" clip-rule="evenodd" d="M12.9757 17.1903C12.9812 17.1627 13.0033 17.1489 13.1518 17.1627C13.3003 17.1765 14.2411 17.0748 14.4969 17.061C14.7555 17.0418 15.666 17.0554 16.109 17.1489C16.552 17.2425 17.0002 17.3526 17.2175 17.4075C17.4351 17.4681 17.5036 17.4899 17.4953 17.5174C17.4898 17.545 17.4409 17.5718 17.4128 17.5642C17.3854 17.5588 16.6646 17.3386 16.4419 17.2922C16.2192 17.2458 15.4488 17.1216 15.0275 17.129C14.6342 17.1346 14.4774 17.1236 14.1446 17.162C13.8117 17.2033 13.2615 17.2583 13.0965 17.2363C12.9333 17.2171 12.967 17.2171 12.9754 17.1896V17.1896L12.9757 17.1903Z" fill="#D6BC6F"/>
<path fill-rule="evenodd" clip-rule="evenodd" d="M15.1898 19.3464C15.1898 19.3464 15.7538 19.6518 15.9574 20.0259C16.1059 20.3037 15.8695 20.4413 15.8695 20.4413C15.8695 20.4413 16.1886 20.4413 16.1473 20.6174C16.128 20.7273 15.5971 21.0243 15.2422 21.1811C14.8819 21.338 14.8957 21.3298 14.7196 21.3572C14.549 21.3848 14.0813 21.3028 13.985 21.4397C13.8887 21.5766 13.9306 21.7177 13.9575 21.7396C13.985 21.7589 14.2079 21.7864 14.2079 21.7864C14.2079 21.7864 14.1611 21.9157 13.6991 21.9295C13.237 21.9433 13.1213 21.9761 13.0938 22.0258C13.0662 22.0724 13.1817 22.045 13.3937 22.0802C13.6055 22.1132 13.9025 22.1346 13.9025 22.1346C13.9025 22.1346 13.8062 22.2171 13.556 22.2831C13.2699 22.3573 12.8214 22.4262 12.6867 22.5087C12.7554 22.5555 12.8573 22.6242 12.9043 22.6296C12.7888 22.6572 12.6263 22.7178 12.5989 22.7397C12.6401 22.7673 12.6952 22.8003 12.6952 22.8003C12.6952 22.8003 12.464 23.0781 12.3293 23.147C12.1946 23.2159 11.4188 23.576 11.1519 23.5073C10.4862 23.3312 10.4037 22.6023 10.2414 22.5473C9.99661 22.4648 9.8811 22.6296 9.66368 22.5141C9.75997 22.4454 9.81238 22.4042 9.9141 22.3575C9.80404 22.3031 9.23465 21.942 9.23465 21.942C9.17511 21.8122 9.10902 21.6856 9.03663 21.5625C8.92656 21.3726 8.76463 21.1195 8.64314 20.8966C8.37912 20.407 8.36534 20.1814 8.12598 19.9036C8.16732 19.8492 8.31021 19.8569 8.31021 19.8569L10.3158 20.5171L13.8719 20.6201L14.7967 19.2998L15.19 19.3466L15.1898 19.3464Z" fill="#DFC677"/>
<path fill-rule="evenodd" clip-rule="evenodd" d="M9.92236 21.3599C9.94382 21.3838 9.96884 21.4042 9.99653 21.4205C10.0654 21.4673 10.1672 21.5224 10.2359 21.6047C10.2635 21.5636 10.3322 21.4892 10.4535 21.6047C10.5748 21.7202 10.7255 21.6379 10.8192 21.6653C10.9155 21.6985 10.921 21.7121 10.921 21.7121C10.921 21.7121 10.9754 21.6653 11.097 21.6158C11.1714 21.5882 11.2593 21.569 11.3556 21.5416C11.4436 21.5224 11.5399 21.4948 11.606 21.4948C11.6666 21.536 11.8838 21.7668 12.7559 21.4261C13.5784 21.107 13.7681 21.0713 13.9057 21.1206C13.9195 21.0876 13.9333 21.0243 14.1451 21.0326C14.1451 20.9447 13.969 20.6448 13.969 20.6448L12.998 20.312H12.4668L10.8742 20.6036L9.99163 21.1072L9.92291 21.361L9.92236 21.3599Z" fill="#C4A859"/>
<path fill-rule="evenodd" clip-rule="evenodd" d="M9.39111 20.8018C9.39111 20.8018 9.41033 20.9503 9.63047 21.1071C9.84807 21.2638 9.91644 21.3574 9.91644 21.3574C9.91644 21.3574 9.95778 21.303 9.99078 21.2475C10.0238 21.1869 10.0513 21.1182 10.1063 21.099C10.2164 21.0522 10.4666 21.1401 10.5217 21.1263C10.5685 21.1127 10.5547 21.0165 10.6042 21.0165C10.7197 21.0108 10.7939 21.0906 10.8353 21.0906C10.8766 21.0906 10.9781 21.0852 10.9919 21.0632C11.0057 21.0413 11.0111 20.8128 11.168 20.7027C11.3386 20.5818 11.5477 20.634 11.6032 20.6616C11.6032 20.7027 11.6086 20.8047 11.7187 20.8101C11.8288 20.8155 11.8397 20.7963 11.9363 20.8293C12.033 20.8623 12.1481 20.8239 12.2003 20.986C12.2471 20.9724 12.3572 20.9586 12.3296 20.8018C12.384 20.7606 12.4315 20.733 12.5472 20.5707C12.5748 20.5296 12.6214 20.4828 12.6573 20.4222C12.7536 20.4222 12.8691 20.403 13.023 20.5377C12.9763 20.5707 12.9487 20.5921 12.9351 20.6257C12.9754 20.6656 13.0121 20.7088 13.045 20.755C13.0863 20.8094 13.1139 20.8761 13.1661 20.8899C13.2816 20.9229 13.4715 20.8761 13.6833 20.8899C13.8869 20.9037 14.0574 20.9778 14.1317 21.0246C14.1593 21.011 14.1593 21.0054 14.228 21.0192C14.2967 21.033 14.3489 21.0384 14.2748 20.9504C14.3159 20.9697 14.3627 21.011 14.4041 20.9697C14.4454 20.9283 14.4782 20.8679 14.5937 20.8542C14.7093 20.8404 14.7506 20.8596 14.7974 20.7387C14.858 20.5901 14.6489 20.5901 14.6489 20.5901C14.6489 20.5901 14.7452 20.502 14.8525 20.3865C14.9818 20.2656 15.1303 20.1087 15.166 19.9161C15.2266 19.5613 14.8801 19.5146 14.8801 19.5146L13.1993 20.0318L11.1444 19.9299L9.3922 20.8019V20.8019L9.39111 20.8018Z" fill="#927D49"/>
<path fill-rule="evenodd" clip-rule="evenodd" d="M7.88128 15.9464C7.88128 15.9464 7.82688 16.0151 7.79334 16.1774C7.75979 16.3397 7.77411 16.3204 7.74655 16.436C7.71899 16.5515 7.38044 17.7013 7.50737 18.0892C7.63431 18.477 7.85408 18.6201 7.99153 18.9336C8.0191 19.0024 8.04593 19.0437 8.06026 19.1043C8.10704 19.3077 8.06588 19.4646 8.12082 19.6682C8.14005 19.7369 8.18973 19.8167 8.2639 19.8992C8.4271 20.0697 8.69311 20.232 8.8079 20.3475C8.97001 20.5181 9.20121 20.8648 9.49551 20.8977C9.65237 20.9169 9.87522 20.8509 10.0595 20.741C10.2227 20.6391 10.3235 20.4962 10.4947 20.4146C10.6156 20.354 10.7449 20.3321 10.8604 20.3045C11.0998 20.2577 11.3172 20.2501 11.4465 20.277C11.6445 20.3183 12.1122 20.4614 12.3713 20.4614C12.5738 20.4581 12.7751 20.4304 12.9709 20.3789C13.3643 20.2634 13.8401 20.0652 14.1538 19.9772C14.338 19.9228 14.4865 19.9085 14.6379 19.8755C14.8965 19.8149 15.1138 19.7324 15.2376 19.5756C15.1551 19.4793 15.0534 19.3308 14.503 19.3362C13.8787 19.35 13.1579 19.6965 12.803 19.7516C12.4482 19.8068 12.2942 19.8534 11.898 19.7103C11.5096 19.5658 11.4967 19.4702 11.4967 19.4702C11.4967 19.4702 11.0889 19.185 10.9183 18.4578C10.7476 17.7307 10.9183 17.2008 11.3613 16.6973C11.4768 16.568 11.4492 16.4525 11.4492 16.4525C11.4492 16.4525 11.7408 16.0591 11.661 15.6909C11.573 15.3249 11.0091 15.3993 11.0091 15.3993L7.88146 15.9464V15.9464H7.88128Z" fill="#6E6342"/>
<path fill-rule="evenodd" clip-rule="evenodd" d="M8.35125 17.1707C8.327 17.2163 8.31559 17.2676 8.31825 17.3192C8.32369 17.3933 8.34581 17.4896 8.56849 17.707C8.75834 17.8967 8.717 18.1085 8.717 18.1085C8.717 18.1085 8.81256 18.1277 9.07187 18.0064C9.27551 17.9101 9.34387 18.0808 9.34387 18.0808C9.40315 18.0497 9.4674 18.0292 9.53373 18.0202C9.59382 18.0147 9.65199 17.9961 9.70418 17.9658C9.70418 17.9658 9.94354 18.2106 10.1526 18.3261C10.3425 18.428 10.4525 18.4967 10.5461 18.428C10.6341 18.3674 10.6341 18.2436 10.6284 18.1887C10.6066 18.1379 10.579 18.0899 10.5461 18.0456C10.4855 17.9576 10.3893 17.8557 10.3829 17.7736C10.3691 17.5839 10.526 17.3582 10.4928 17.3032C10.4596 17.2483 10.3361 17.2345 10.0308 17.3446C9.71451 17.449 8.34998 17.1712 8.34998 17.1712V17.1712L8.35125 17.1707Z" fill="#39331F"/>
<path fill-rule="evenodd" clip-rule="evenodd" d="M9.07191 18.4002C9.07191 18.4002 8.91524 18.2517 8.97018 17.5309C9.03669 17.5299 9.10311 17.5363 9.1682 17.5501C9.1682 17.5501 9.2536 18.1086 9.07191 18.4002Z" fill="#292311"/>
<path fill-rule="evenodd" clip-rule="evenodd" d="M7.95567 15.3963C7.97754 15.3802 7.99781 15.3619 8.01624 15.3419C7.96184 15.4437 7.71069 15.8508 7.91433 16.4918C8.11797 17.1299 8.62951 17.6057 9.25946 17.6278C9.88941 17.6499 10.2205 17.3417 10.5992 16.8796C10.7477 16.6954 10.9183 16.4642 11.0695 16.3075C11.2951 16.0626 11.4712 15.9938 11.4712 15.7574C11.4712 15.2732 10.976 15.0558 10.247 14.8386C9.51804 14.6213 8.86053 14.6482 8.51944 14.7968C8.18669 14.959 8.04362 15.1296 7.95549 15.3965V15.3965L7.95567 15.3963Z" fill="#252211"/>
<path fill-rule="evenodd" clip-rule="evenodd" d="M10.2964 18.6174L10.3508 18.5898C10.3508 18.5898 10.3644 18.3722 10.4526 18.378C10.5405 18.3918 10.5819 18.5075 10.5735 18.5487C10.5681 18.5898 10.5461 18.6587 10.458 18.6504C10.3425 18.6531 10.2959 18.6174 10.2959 18.6174H10.2964Z" fill="#3F3824"/>
<path fill-rule="evenodd" clip-rule="evenodd" d="M10.0513 17.6933C10.0513 17.6933 10.1057 17.6741 10.1722 17.7401C10.2266 17.7401 10.4638 17.7125 10.5382 17.7593C10.6125 17.8061 10.6344 17.8472 10.6344 17.8472C10.6344 17.8472 10.3566 17.9078 10.2052 17.8472C10.0513 17.795 10.0513 17.6933 10.0513 17.6933H10.0513Z" fill="#2D2815"/>
<path fill-rule="evenodd" clip-rule="evenodd" d="M11.2758 17.7344C11.2758 17.7207 11.1272 17.6189 10.9704 17.5857C10.9428 17.5803 10.9372 17.5995 10.916 17.5995C10.9022 17.5941 10.8968 17.5527 10.8968 17.5527L10.8076 17.5997C10.8076 17.5997 10.7938 17.6189 10.8406 17.6541C10.8817 17.6871 10.9506 17.7147 10.9699 17.7696C10.9891 17.8246 10.9891 17.8438 10.9974 17.8521C11.0029 17.8576 11.0991 17.8521 11.1459 17.8246C11.1927 17.797 11.2808 17.752 11.2752 17.7339V17.7339L11.2758 17.7344Z" fill="#82764F"/>
<path fill-rule="evenodd" clip-rule="evenodd" d="M9.88672 18.293C9.88672 18.293 9.9141 18.1033 10.0985 18.095C10.2882 18.0812 10.3241 18.2654 10.3241 18.2654L10.214 18.3755C10.214 18.3728 10.1315 18.2573 9.88763 18.293H9.88672Z" fill="#2D2816"/>
<path fill-rule="evenodd" clip-rule="evenodd" d="M11.0831 17.4758C11.0831 17.4758 10.9812 17.5858 10.7558 17.6188C10.7366 17.5913 10.6953 17.5363 10.7558 17.4484C10.8164 17.3604 10.8851 17.3329 10.9539 17.3602C11.0158 17.3703 11.0662 17.4154 11.0831 17.4758Z" fill="#574F35"/>
<path fill-rule="evenodd" clip-rule="evenodd" d="M11.4983 17.6108C11.5039 17.5833 11.4847 17.5778 11.4983 17.564C11.5119 17.5503 11.5864 17.5229 11.6002 17.5365C11.6056 17.5421 11.6002 17.564 11.6002 17.5909C11.6002 17.6177 11.6002 17.6453 11.5864 17.665C11.5672 17.6926 11.5122 17.7064 11.4847 17.6982C11.4571 17.6901 11.4517 17.6514 11.4517 17.6438C11.4653 17.6384 11.4983 17.6246 11.4983 17.6108ZM11.9679 17.3138C11.9679 17.3 12.0147 17.2725 12.0423 17.2725C12.0834 17.2725 12.0834 17.3055 12.089 17.3138C12.1026 17.3192 12.1026 17.3082 12.1164 17.333C12.1302 17.3579 12.1496 17.4018 12.1357 17.4293C12.1217 17.4569 12.0669 17.4759 12.0533 17.4705C12.0341 17.4567 11.9735 17.333 11.9679 17.3138V17.3138Z" fill="#82764F"/>
<path fill-rule="evenodd" clip-rule="evenodd" d="M11.0225 17.674C11.0225 17.674 11.083 17.6876 11.1655 17.7565C11.138 17.7757 11.0966 17.7977 11.0966 17.7977C11.0966 17.7977 11.0912 17.7344 11.0225 17.6738V17.674Z" fill="#6E6342"/>
<path fill-rule="evenodd" clip-rule="evenodd" d="M10.8879 17.0688C10.8741 17.0552 10.9291 17.0222 10.9621 17.0276C10.9951 17.033 11.0089 17.0552 11.0446 17.0606C11.0803 17.066 11.0859 17.0468 11.099 17.033C11.112 17.0193 11.1596 17.0276 11.1677 17.033C11.1728 17.0391 11.1774 17.0455 11.1815 17.0523C11.1827 17.0311 11.1926 17.0114 11.2089 16.9979C11.2303 16.9821 11.2576 16.9771 11.2832 16.9841C11.2887 17.0033 11.3162 17.072 11.3108 17.0858C11.3053 17.0996 11.2228 17.119 11.2089 17.105C11.2227 17.1382 11.2832 17.2069 11.2914 17.2205C11.2995 17.2341 11.2308 17.2673 11.2034 17.2619C11.165 17.2592 10.9284 17.1215 10.8872 17.0693L10.8879 17.0688ZM11.2482 16.6122C11.2431 16.5983 11.2334 16.5866 11.2207 16.5792C11.2014 16.5737 11.1382 16.5792 11.1382 16.6122C11.1382 16.6452 11.1926 16.8298 11.2537 16.9259C11.3226 17.0222 11.3692 17.1018 11.416 17.1239C11.4464 17.1378 11.4825 17.1257 11.4985 17.0963C11.5039 17.0825 11.5177 16.9808 11.5123 16.7414C11.5068 16.5021 11.4985 16.2711 11.4847 16.2573C11.4709 16.2435 11.416 16.2437 11.3967 16.2711C11.3775 16.2985 11.2537 16.571 11.248 16.6122V16.6122H11.2482Z" fill="#585136"/>
<path fill-rule="evenodd" clip-rule="evenodd" d="M11.0034 18.0205C11.0034 18.0205 10.9071 17.9599 10.8135 18.0013C10.7256 18.0426 10.731 18.2049 10.731 18.2049C10.7712 18.2206 10.8165 18.2155 10.8522 18.1911C10.9127 18.1499 10.9896 18.0812 11.0034 18.0207V18.0205Z" fill="#574F35"/>
<path fill-rule="evenodd" clip-rule="evenodd" d="M11.1848 18.2379C11.1793 18.1835 11.1304 18.1835 11.1304 18.1554C11.1373 18.1277 11.1622 18.1084 11.1908 18.1086C11.2183 18.1086 11.2452 18.1416 11.2789 18.163C11.3119 18.1822 11.3614 18.2174 11.3668 18.2593C11.3723 18.3012 11.3124 18.4159 11.2459 18.4159C11.1793 18.4159 11.1991 18.2921 11.1853 18.2371L11.1848 18.2379ZM11.7157 18.1635C11.7157 18.1635 11.6056 18.1965 11.6138 18.1635C11.622 18.1305 11.647 18.1224 11.6827 18.1224C11.7009 18.1034 11.7253 18.0916 11.7514 18.0892C11.7664 18.0884 11.7811 18.0934 11.7926 18.103C11.7926 18.103 11.8669 18.07 11.8889 18.0892C11.9108 18.1084 11.8945 18.1084 11.9081 18.1305C11.9254 18.1551 11.9368 18.1833 11.9413 18.213C11.9413 18.235 11.8588 18.2817 11.7926 18.2736C11.7157 18.2571 11.7293 18.1773 11.7157 18.1635V18.1635ZM12.3565 18.0397C12.3565 18.0397 12.3895 18.0589 12.3622 18.081C12.3429 18.1002 12.2467 18.1354 12.164 18.1416C12.0815 18.1416 12.0073 18.1552 12.0073 18.1278C12.0073 18.1004 12.076 18.0453 12.1172 18.0315C12.1339 18.0106 12.1593 17.9984 12.1861 17.9985C12.2191 17.9985 12.3482 17.9847 12.3841 17.9793C12.4171 17.9737 12.4447 17.9929 12.4253 18.0204C12.4171 18.0397 12.3565 18.0397 12.3565 18.0397V18.0397ZM12.5464 17.1903C12.5464 17.1903 12.5051 17.2782 12.4585 17.2782C12.4117 17.2728 12.4117 17.259 12.4117 17.2452C12.4117 17.226 12.4585 17.1765 12.4528 17.1627C12.4392 17.1627 12.4061 17.1627 12.4117 17.1297C12.4117 17.1022 12.4585 17.0692 12.4996 17.0753C12.5307 17.0498 12.5694 17.0353 12.6097 17.0342C12.6565 17.0342 12.6976 17.0478 12.6976 17.0753C12.6976 17.1029 12.6432 17.1633 12.6233 17.1772C12.6013 17.1992 12.5738 17.2135 12.5464 17.1908V17.1903ZM11.9192 18.816C11.9192 18.816 11.8648 18.8216 11.8648 18.849C11.8648 18.8627 11.8784 18.8627 11.8978 18.8546C11.909 18.854 11.92 18.8521 11.9308 18.849C11.9362 18.8546 11.9362 18.882 11.9776 18.882C12.0115 18.8774 12.0442 18.8662 12.0738 18.849C12.1069 18.8354 12.1344 18.8214 12.1344 18.7946C12.1206 18.7478 12.0931 18.7257 12.0519 18.7257C12.0308 18.7243 12.0098 18.7291 11.9913 18.7394C11.9913 18.7394 11.9776 18.7119 11.9308 18.7394C11.884 18.767 11.8894 18.767 11.9032 18.7808C11.9279 18.8027 11.9197 18.817 11.9197 18.817L11.9192 18.816ZM11.6084 19.1021C11.6084 19.0883 11.6771 19.0608 11.6963 19.0691C11.7155 19.0745 11.7705 19.179 11.7705 19.1901C11.7705 19.2038 11.7018 19.2368 11.6742 19.2368C11.6466 19.2368 11.6 19.1901 11.6 19.1824C11.6 19.177 11.633 19.1688 11.633 19.1632C11.6412 19.1496 11.6084 19.1164 11.6084 19.1026V19.1021ZM11.3908 18.7004C11.4045 18.695 11.4045 18.6812 11.4238 18.6674C11.436 18.6593 11.4512 18.6573 11.4651 18.662C11.4749 18.6445 11.4921 18.6323 11.5119 18.6288C11.5449 18.6234 11.5725 18.6288 11.5663 18.6426C11.5663 18.6839 11.5939 18.7113 11.5939 18.7443C11.5939 18.7773 11.5746 18.8187 11.5059 18.8462C11.4372 18.8655 11.3436 18.8655 11.3298 18.86C11.3161 18.8546 11.3023 18.7995 11.3161 18.7719C11.3298 18.7443 11.3683 18.7142 11.3904 18.7004V18.7004H11.3908Z" fill="#82764F"/>
<path fill-rule="evenodd" clip-rule="evenodd" d="M11.4786 18.7192C11.4786 18.7192 11.4318 18.7468 11.4318 18.7606C11.4277 18.7739 11.4258 18.7878 11.4264 18.8017C11.4264 18.8099 11.4869 18.7963 11.4951 18.788C11.4978 18.7825 11.4786 18.7336 11.4786 18.7192Z" fill="#6E6342"/>
<path fill-rule="evenodd" clip-rule="evenodd" d="M11.0692 18.5898C11.0966 18.5954 11.1433 18.5898 11.1791 18.6036C11.2066 18.6174 11.2258 18.6449 11.1983 18.6779C11.1707 18.7109 11.1439 18.7605 11.0828 18.7521C11.014 18.7467 10.948 18.7109 10.948 18.6834C10.9457 18.6482 10.9576 18.6135 10.981 18.5871C11.0086 18.5652 11.0222 18.5789 11.069 18.5898V18.5898H11.0692Z" fill="#585136"/>
<path fill-rule="evenodd" clip-rule="evenodd" d="M11.0362 18.6174C11.0362 18.6174 10.9482 18.6862 10.9261 18.7193C10.8986 18.7523 10.7638 18.9228 10.7227 18.9585C10.7363 18.9344 10.7519 18.9114 10.7693 18.8898C10.7149 18.9246 10.6741 18.977 10.6538 19.0383C10.6207 19.1402 10.8382 19.1952 10.9811 19.2365C11.1239 19.2778 11.1793 19.2909 11.1793 19.2909C11.1266 19.2118 11.0815 19.1281 11.0443 19.0407C10.9899 18.9114 10.9618 18.8976 10.9976 18.837C11.0251 18.7765 11.0665 18.7353 11.0665 18.6885C11.05 18.645 11.0362 18.6174 11.0362 18.6174Z" fill="#574F35"/>
<path fill-rule="evenodd" clip-rule="evenodd" d="M7.90027 18.8348C7.92029 18.8385 7.94081 18.8385 7.96083 18.8348C8.00199 18.8292 8.43121 18.6716 8.87965 18.6999C9.21535 18.7202 9.54809 18.7749 9.87263 18.8631C10.4366 19.0116 11.138 19.3059 11.5919 19.4739C11.7128 19.5205 11.8312 19.6031 11.9183 19.636C12.265 19.7709 12.2786 19.7709 12.4822 19.8066C12.7216 19.8396 12.9664 19.7598 13.2222 19.7049C13.5357 19.636 14.0721 19.603 14.5425 19.5342C14.6946 19.5132 14.8446 19.4791 14.9909 19.4325C14.9909 19.4325 14.6169 19.8066 13.72 19.9413C13.3575 19.9964 12.9891 20.001 12.6253 19.9551C12.3391 19.9276 12.1495 19.8862 12.0064 19.845C11.8441 19.7983 11.5112 19.6744 11.1013 19.573C10.8152 19.4987 10.4961 19.4438 10.1303 19.375C9.22799 19.2098 8.24879 19.0202 7.8999 18.8359L7.90027 18.8348Z" fill="#252211"/>
<path fill-rule="evenodd" clip-rule="evenodd" d="M6.88794 17.135C6.67034 17.3192 6.4395 17.4953 6.2141 17.6658L5.53465 18.1878C5.30363 18.3583 5.07805 18.5344 4.84685 18.705C4.61565 18.8756 4.38481 19.0377 4.13965 19.1946C4.35725 19.0104 4.58809 18.8397 4.8191 18.672C5.05012 18.5043 5.28966 18.3398 5.51252 18.1697L6.19198 17.6469C6.42572 17.4765 6.6513 17.3004 6.88794 17.1354V17.135ZM5.68588 19.0606C5.68588 19.0606 5.93068 18.857 6.23604 18.571C6.61557 18.2163 7.08051 17.7622 7.22902 17.6799L5.6857 19.0608L5.68588 19.0606Z" fill="#CFB66C"/>
<path fill-rule="evenodd" clip-rule="evenodd" d="M5.68604 19.0603C5.80717 18.9394 5.93646 18.8211 6.06575 18.7054L6.26376 18.535C6.32433 18.4806 6.39323 18.4195 6.45362 18.3589C6.57457 18.238 6.69298 18.1085 6.81393 17.9848C6.87387 17.9226 6.93726 17.8638 7.00378 17.8087C7.03704 17.7793 7.07398 17.7543 7.11367 17.7344C7.14686 17.7152 7.18258 17.68 7.22918 17.6738C7.2018 17.7152 7.1688 17.7344 7.14123 17.7701C7.10823 17.7977 7.08067 17.8307 7.05329 17.8581C6.99272 17.9186 6.924 17.9736 6.86343 18.0287C6.73414 18.1388 6.59941 18.2463 6.47012 18.3614C6.34083 18.4766 6.21988 18.6008 6.09041 18.7163C5.95024 18.8347 5.82095 18.9502 5.68604 19.0609V19.0603ZM7.33109 17.96C7.33109 17.96 6.4344 18.8376 6.24998 18.9805L7.33109 17.96Z" fill="#CFB66C"/>
<path fill-rule="evenodd" clip-rule="evenodd" d="M7.33111 17.96C7.25044 18.0533 7.16396 18.1415 7.07217 18.224L6.80017 18.4826C6.71222 18.5705 6.62953 18.6586 6.53614 18.7466C6.43986 18.8291 6.35191 18.9098 6.25 18.9859L6.51402 18.7274C6.60215 18.6394 6.69844 18.5653 6.79201 18.4771L7.05603 18.2185C7.14669 18.1279 7.23482 18.0397 7.33111 17.96V17.96ZM7.37227 18.4358C7.28962 18.6665 7.19222 18.8916 7.08069 19.1098C6.84967 19.572 6.50314 20.1496 6.35173 20.4441L7.37227 18.4358Z" fill="#CFB66C"/>
<path fill-rule="evenodd" clip-rule="evenodd" d="M7.37232 18.436C7.37232 18.5378 7.34475 18.6259 7.31175 18.7138C7.27958 18.8019 7.2429 18.8882 7.20186 18.9724C7.16052 19.0549 7.11374 19.1431 7.06695 19.2228C7.02017 19.3026 6.96522 19.385 6.92388 19.4676L6.64608 19.9572C6.54979 20.1204 6.45622 20.2846 6.35449 20.4414C6.42322 20.2653 6.51679 20.1003 6.60491 19.938C6.7012 19.7748 6.78915 19.6116 6.87691 19.4428C6.91976 19.3587 6.95832 19.2724 6.99242 19.1844C7.03359 19.0963 7.07475 19.0138 7.10793 18.934C7.1491 18.846 7.1821 18.7633 7.22344 18.6837C7.27004 18.5983 7.30867 18.5158 7.37195 18.436L7.37232 18.436Z" fill="#CFB66C"/>
<path fill-rule="evenodd" clip-rule="evenodd" d="M8.35169 20.6917C8.35169 20.6917 8.07969 21.052 8.10689 21.5086C8.18106 21.2694 8.27463 20.9034 8.35169 20.6917ZM8.61027 21.0529C8.61027 21.0529 8.51399 22.0321 8.4342 22.5135C8.54699 21.957 8.56893 22.0038 8.61027 21.0529ZM10.412 22.5714C10.412 22.5714 10.0049 23.7681 9.99657 24.1007C10.0847 23.7587 10.2551 23.06 10.412 22.5704V22.5714Z" fill="#DEC270"/>
<path fill-rule="evenodd" clip-rule="evenodd" d="M11.3638 20.6177C11.3638 20.6177 12.024 21.7069 12.5192 22.6366C12.3852 22.1688 12.077 21.3107 11.3638 20.6177Z" fill="#CBAF59"/>
<path fill-rule="evenodd" clip-rule="evenodd" d="M13.1382 22.2212C13.5007 22.862 13.8276 23.5222 14.1174 24.199C14.0624 23.7313 13.9137 22.9309 13.1382 22.2212Z" fill="#E3C677"/>
<path fill-rule="evenodd" clip-rule="evenodd" d="M18.3534 23.8271C18.4633 23.7584 18.6807 23.3841 18.8705 23.2907C19.0602 23.1944 19.2033 23.1752 19.3739 22.9853C19.5444 22.7871 19.5915 22.6662 19.9653 22.5095C20.488 22.2837 20.1285 21.9922 20.1285 21.9922C20.186 21.9356 20.2476 21.8832 20.3127 21.8355C20.4476 21.7338 20.6043 21.6099 20.5907 21.3925C20.5715 21.0267 20.5027 20.4958 20.2028 20.1877C20.4944 20.1271 21.0527 20.086 21.3996 19.998C21.8011 19.8961 21.9855 19.7531 21.9855 19.7531C21.9855 19.7531 21.7545 19.3597 22.1286 18.9637C22.5027 18.5677 22.808 18.331 23.0336 17.888C22.775 17.855 22.3808 17.7176 21.3748 18.0998C21.4291 18.1254 21.4815 18.1548 21.5316 18.1878C21.5316 18.1878 20.9127 18.3584 20.6871 18.5483C20.2937 18.881 20.2441 19.1534 19.8178 19.357C19.3915 19.5607 18.9623 19.5055 18.6076 19.6706C18.2529 19.8356 18.2005 19.9759 18.071 20.0365C18.0986 20.0695 18.0656 20.1244 18.1178 20.1712C18.0848 20.218 17.8923 20.5315 17.697 20.5315C17.7162 20.6059 17.8812 20.6608 17.8812 20.6608C17.8812 20.6608 17.7602 20.7489 17.4522 20.7709C17.6088 20.9341 17.7575 21.112 18.1673 21.3706C18.1343 21.4393 17.9967 21.5412 18.0518 21.6705C18.1124 21.7998 18.2694 21.9758 18.8963 22.1189C18.5772 22.1325 18.2032 22.2069 17.6995 22.1381C17.1961 22.0776 17.1136 22.0418 16.8028 22.1189C16.8358 22.1519 16.9238 22.1519 17.0008 22.2399C16.9183 22.2453 16.4012 22.1793 16.2251 22.4105C16.0408 22.6497 15.9611 23.0432 15.9748 23.3072C15.8785 23.354 15.785 23.4365 15.8318 23.6071C15.8785 23.7778 16.1233 23.8327 16.2802 23.9399C16.4369 24.0554 16.4507 24.0965 16.5993 24.0692C16.756 24.0362 16.987 23.8795 17.122 23.8795C17.2569 23.8795 17.353 23.9812 17.353 23.9812C17.353 23.9812 17.7189 23.8051 17.7546 23.8381C17.7876 23.8711 17.7601 24.0829 17.7958 24.1159C17.8321 24.1408 18.2442 23.896 18.3543 23.8271H18.3534Z" fill="#ECD592"/>
<path fill-rule="evenodd" clip-rule="evenodd" d="M26.35 12.8189C24.6307 8.37917 20.3806 7.55664 20.3806 7.55664H8.25506L8.30185 12.0789H10.7167V22.1772H8.25488V26.6913H20.045C22.8865 26.6913 25.1642 23.8358 25.1642 23.8358C28.8117 18.659 26.3498 12.8189 26.3498 12.8189H26.35ZM20.1083 20.7934C20.1083 20.7934 19.1835 22.1277 18.1773 22.1277H16.1645L16.1168 12.09H18.6999C18.6999 12.09 19.8967 12.3402 20.7328 14.7086C20.7328 14.7086 21.8413 18.0995 20.1083 20.7934V20.7934Z" fill="white" fill-opacity="0.8"/>
</svg>
