<svg width="40" height="41" viewBox="0 0 40 41" fill="none" xmlns="http://www.w3.org/2000/svg">
<rect x="0.149414" y="0.762451" width="39.3519" height="39.3519" rx="12.1818" fill="#00D632"/>
<path d="M15.6582 33.9322L16.2916 30.6757C13.7945 30.0825 10.7556 28.4268 9.47397 27.3949L12.1011 24.1646C13.5261 25.2593 15.601 26.4107 18.0445 26.886C20.1858 27.3025 21.7973 26.8333 22.064 25.4622C22.3176 24.1581 21.2757 23.1 18.6619 21.7015C14.8828 19.6849 12.4723 17.4364 13.1193 14.1099C13.7067 11.0904 16.4978 9.17778 20.6572 9.23898L21.157 6.62926L24.9711 6.69527L24.3837 9.7148C26.8808 10.308 29.0015 11.7315 30.1333 12.5224L27.7683 15.5711C26.8662 15.0043 25.2911 13.8773 22.5842 13.3508C20.1432 12.876 19.1672 13.6831 18.9802 14.6444C18.7602 15.7756 19.935 16.7519 22.9152 18.4708C27.1038 20.7813 28.5414 23.0176 27.9404 26.1071C27.3465 29.1602 24.4723 31.3057 20.0196 31.1526L19.6206 34.0252L15.6579 33.9337L15.6582 33.9322Z" fill="white"/>
</svg>
