<svg width="445" height="446" viewBox="0 0 445 446" fill="none" xmlns="http://www.w3.org/2000/svg">
<path d="M19.1903 97.4453L194.379 97.4453V89.8097L19.1903 89.8097V97.4453Z" fill="#EBEBEB"/>
<path d="M184.553 97.458H176.868V122.705H184.553V97.458Z" fill="#EBEBEB"/>
<path d="M184.553 97.458H176.868V105.261H184.553V97.458Z" fill="#DBDBDB"/>
<path d="M36.6894 97.457H29.0039V122.704H36.6894V97.457Z" fill="#EBEBEB"/>
<path d="M36.6894 97.457H29.0039V105.26H36.6894V97.457Z" fill="#DBDBDB"/>
<path d="M161.676 89.8242V41.1797H149.343V89.8242H161.676Z" fill="#C7C7C7"/>
<path d="M161.676 43.9262V38.5781H149.343V43.9262H161.676Z" fill="#DBDBDB"/>
<path d="M161.676 52.7503V50.7656H149.343V52.7503H161.676Z" fill="#DBDBDB"/>
<path d="M161.676 83.4418V78.0938H147.808V83.4418H161.676Z" fill="#DBDBDB"/>
<path d="M149.34 89.8243V33.0742H140.719V89.8243H149.34Z" fill="#DBDBDB"/>
<path d="M147.664 60.2307V38.4102H142.491V60.2307H147.664Z" fill="#EBEBEB"/>
<path d="M85.491 89.8419L126.113 49.9453L120.052 43.854L79.4301 83.7506L85.491 89.8419Z" fill="#C7C7C7"/>
<path d="M93.783 79.2427L109.402 63.9023L105.766 60.2475L90.1465 75.5879L93.783 79.2427Z" fill="#DBDBDB"/>
<path d="M140.731 89.8216V46.7236H126.096V89.8216H140.731Z" fill="#A6A6A6"/>
<path d="M140.731 85.2686V81.2471H126.096V85.2686H140.731Z" fill="#C7C7C7"/>
<path d="M140.73 78.6033V77.0469H126.095V78.6033H140.73Z" fill="#C7C7C7"/>
<path d="M171.785 89.8356V49.3281H161.682V89.8356H171.785Z" fill="#A6A6A6"/>
<path d="M171.785 85.5325V81.7617H161.682V85.5325H171.785Z" fill="#C7C7C7"/>
<path d="M171.785 61.4427V57.6719H161.682V61.4427H171.785Z" fill="#C7C7C7"/>
<path d="M171.777 65.4936V64.0312H161.674V65.4936H171.777Z" fill="#C7C7C7"/>
<path d="M54.6176 37.9269C63.2388 46.2833 64.6897 59.2983 62.8708 70.663C62.8708 70.9137 62.4188 70.851 62.4188 70.6003C62.4188 68.0203 62.5029 65.4507 62.4924 62.902C62.4924 62.7767 62.4083 62.6722 62.3557 62.5573C60.0325 61.0366 58.1107 58.984 56.7519 56.5721C55.3115 53.7622 54.7438 50.5868 53.6504 47.6412C53.5453 47.3592 53.8502 47.4427 54.0394 47.589C59.2962 51.4329 60.9574 55.5693 62.4503 61.0949C62.4159 58.2039 62.1096 55.3223 61.5356 52.4879C60.5344 47.1452 58.0593 42.1838 54.3863 38.1567C54.3666 38.1247 54.3583 38.0871 54.3628 38.0498C54.3672 38.0125 54.3842 37.9778 54.4109 37.9513C54.4376 37.9248 54.4725 37.9079 54.51 37.9035C54.5475 37.8991 54.5854 37.9073 54.6176 37.9269Z" fill="#A6A6A6"/>
<path d="M52.9947 38.9111C51.5018 38.9111 50.5766 41.3135 49.4201 42.0447C49.2984 42.1429 49.1572 42.2144 49.0058 42.2547C48.8543 42.295 48.6961 42.3031 48.5413 42.2784C48.3865 42.2538 48.2387 42.197 48.1075 42.1117C47.9763 42.0264 47.8647 41.9146 47.78 41.7836C46.634 40.1959 48.211 38.2426 49.6829 37.1458C48.7081 37.6887 47.6793 38.1297 46.6129 38.4619C46.4673 38.5128 46.3122 38.5312 46.1586 38.5158C46.0049 38.5004 45.8566 38.4516 45.7242 38.3729C45.5917 38.2941 45.4783 38.1873 45.392 38.0601C45.3058 37.9328 45.2488 37.7883 45.2251 37.6367C44.7205 35.4745 47.454 34.5031 49.336 34.5031C48.4213 33.8764 45.8139 32.1738 47.2332 31.3695C48.6526 30.5652 51.7015 32.9676 52.6898 33.7719C54.1617 34.9523 55.907 36.728 55.9806 38.5768C56.0332 40.6868 54.1302 39.3602 52.9947 38.9111Z" fill="#DBDBDB"/>
<path d="M53.4157 39.2769C51.5232 38.41 47.875 39.653 47.5701 38.9322C46.9393 37.4803 49.8516 36.488 51.4286 36.2895C49.9777 35.9031 47.2231 35.245 47.2862 33.8975C47.3914 32.2054 51.5442 33.6573 53.647 35.2554C56.2859 37.2714 56.2754 39.2247 55.8338 39.6112C55.2345 40.1439 53.7311 39.4127 53.4157 39.2769Z" fill="#EBEBEB"/>
<path d="M74.2532 37.1049C65.3166 45.1583 63.3716 58.0689 64.7909 69.4858C64.7909 69.7469 65.2325 69.6947 65.243 69.4858C65.3376 66.9057 65.3586 64.3362 65.4638 61.7875L65.611 61.4428C67.9908 60.0185 69.9891 58.044 71.4355 55.6873C72.9915 52.9297 73.6749 49.7752 74.884 46.8818C74.9996 46.5998 74.6947 46.6729 74.495 46.8087C69.1015 50.4541 67.2721 54.5279 65.5584 59.9908C65.7017 57.1035 66.1171 54.2359 66.799 51.4256C68.0094 46.1188 70.6813 41.2509 74.516 37.366C74.5509 37.3314 74.5704 37.2844 74.5704 37.2354C74.5704 37.1865 74.5509 37.1395 74.516 37.1049C74.4812 37.0702 74.4339 37.0508 74.3846 37.0508C74.3353 37.0508 74.288 37.0702 74.2532 37.1049Z" fill="#A6A6A6"/>
<path d="M75.83 38.1416C77.3124 38.2461 78.1535 40.6381 79.2785 41.3692C79.3963 41.4723 79.5348 41.5494 79.6847 41.5956C79.8346 41.6417 79.9927 41.6559 80.1485 41.6372C80.3044 41.6184 80.4545 41.5672 80.589 41.4868C80.7235 41.4064 80.8394 41.2987 80.9291 41.1708C82.1382 39.6249 80.6347 37.6089 79.2049 36.4599C80.1559 37.0689 81.1669 37.5799 82.2223 37.9849C82.366 38.0415 82.5205 38.0658 82.6747 38.0563C82.829 38.0467 82.9792 38.0035 83.1147 37.9297C83.2503 37.8559 83.3678 37.7533 83.4588 37.6293C83.5499 37.5052 83.6123 37.3627 83.6416 37.212C84.2199 35.0602 81.5389 33.9948 79.657 33.8799C80.5822 33.2845 83.2526 31.6759 81.9069 30.7462C80.5611 29.8166 77.4071 32.1981 76.3557 32.9815C74.8417 34.1097 73.0334 35.8123 72.8967 37.6507C72.7285 39.8024 74.6735 38.549 75.83 38.1416Z" fill="#DBDBDB"/>
<path d="M75.3892 38.465C77.3237 37.6816 80.9089 39.05 81.2453 38.3501C81.9287 36.9295 79.0585 35.8223 77.5025 35.5716C78.9638 35.2374 81.7079 34.7151 81.7079 33.3259C81.7079 31.6337 77.5025 32.9289 75.3051 34.454C72.5926 36.3655 72.5295 38.3083 72.9501 38.7157C73.5388 39.2902 75.0738 38.6217 75.3892 38.465Z" fill="#EBEBEB"/>
<path d="M65.106 58.383C64.5075 62.6912 63.5796 66.9479 62.3304 71.116C62.3137 71.1978 62.2649 71.2695 62.1949 71.3156C62.1249 71.3616 62.0394 71.3781 61.9572 71.3615C61.8749 71.3449 61.8027 71.2965 61.7563 71.2269C61.71 71.1574 61.6934 71.0724 61.7101 70.9907C62.2988 67.0632 63.3712 63.2088 63.9495 59.2918C64.5953 55.3185 64.8278 51.2897 64.6434 47.2691C64.2649 40.6571 62.4566 33.6169 58.1144 28.4673C58.0198 28.3419 58.2196 28.1644 58.3142 28.2793C67.0195 38.3591 65.6737 50.7161 65.6737 51.8233C66.9038 47.6451 68.176 42.8715 72.8335 38.6202C73.0333 38.4322 73.191 38.5262 73.1594 38.8396C72.3288 46.5692 70.163 50.6116 65.6422 54.748C65.4634 55.9492 65.3057 57.1714 65.106 58.383Z" fill="#A6A6A6"/>
<path d="M58.0313 29.6094C56.4648 28.92 54.3095 30.8942 52.7745 31.03C52.6021 31.071 52.423 31.0761 52.2485 31.0449C52.074 31.0138 51.9079 30.947 51.7607 30.8488C51.6135 30.7507 51.4884 30.6233 51.3933 30.4747C51.2981 30.3261 51.235 30.1595 51.2079 29.9854C50.8189 27.771 53.4473 26.5175 55.529 26.1206C54.2148 26.0371 52.9217 26.3922 51.6285 26.0475C51.4504 26.0269 51.2789 25.9682 51.1258 25.8754C50.9727 25.7826 50.8417 25.658 50.7417 25.5101C50.6418 25.3621 50.5753 25.1944 50.5469 25.0185C50.5185 24.8426 50.5288 24.6627 50.5771 24.4911C51.1554 21.9947 54.4777 22.402 56.4542 23.2481C55.8234 22.2036 53.9835 19.0699 55.8444 18.8924C57.7054 18.7148 59.6714 22.7781 60.2917 24.1151C61.2169 26.0788 62.1421 28.7842 61.2695 30.7375C60.2917 32.9728 58.988 30.6435 58.0313 29.6094Z" fill="#DBDBDB"/>
<path d="M58.2969 30.1932C56.7619 28.3653 52.3567 27.8221 52.3987 26.9238C52.4828 25.1063 56.0049 25.5241 57.7397 26.109C56.436 24.9809 53.8706 22.9754 54.6592 21.5548C55.6264 19.8522 59.1905 23.435 60.5678 26.1508C62.2921 29.5665 61.2828 31.572 60.6309 31.76C59.7373 32.0107 58.5492 30.5066 58.2969 30.1932Z" fill="#EBEBEB"/>
<path d="M70.8414 60.6993L74.6789 89.8212H51.3281C51.8118 87.2412 56.1539 60.668 56.1539 60.668L70.8414 60.6993Z" fill="#DBDBDB"/>
<path d="M349.303 68.1588C349.939 65.4795 351.097 62.9496 352.71 60.7112C354.245 58.6221 356.719 57.104 360.132 56.157C361.184 55.8436 362.414 55.5093 363.896 55.1124C365.422 54.7441 366.913 54.2479 368.354 53.6292C369.82 53.0073 371.174 52.1498 372.36 51.0909C373.561 50.013 374.402 48.5948 374.767 47.0276C375.081 45.9006 375.121 44.7155 374.883 43.5702C374.662 42.5412 374.232 41.5675 373.621 40.7081C372.989 39.8414 372.188 39.1097 371.266 38.5564C370.323 37.9761 369.294 37.5461 368.217 37.282C366.981 36.9664 365.693 36.906 364.432 37.1045C363.286 37.2737 362.168 37.597 361.11 38.0654C360.078 38.525 359.104 39.1034 358.208 39.7889C357.382 40.4121 356.592 41.0818 355.843 41.7945L349.429 34.4827C350.623 32.8801 352.081 31.4888 353.74 30.3671C355.356 29.2768 357.128 28.4351 358.997 27.8707C360.901 27.3049 362.876 27.006 364.863 26.9828C366.916 26.9537 368.963 27.196 370.951 27.7036C373.216 28.2716 375.387 29.1617 377.396 30.3463C379.403 31.5224 381.155 33.085 382.547 34.9423C383.982 36.8819 384.973 39.1102 385.449 41.4707C385.984 44.246 385.861 47.1068 385.092 49.827C384.692 51.5289 384.04 53.1623 383.157 54.6737C382.373 55.9754 381.386 57.1458 380.234 58.1416C379.093 59.115 377.832 59.9399 376.481 60.5963C375.015 61.298 373.501 61.8949 371.95 62.3825C370.572 62.8003 369.216 63.1763 367.86 63.5315C366.552 63.867 365.278 64.3215 364.054 64.8894C362.883 65.4169 361.816 66.1453 360.9 67.0411C359.959 68.0261 359.305 69.2463 359.007 70.5717L349.303 68.1588ZM344.246 88.8721L347.348 76.6301L357.262 79.1056L354.16 91.3477L344.246 88.8721Z" fill="#EBEBEB"/>
<path d="M36.4893 295.193C36.9405 297.172 36.9977 299.22 36.6575 301.22C36.1557 303.349 34.9577 305.252 33.2511 306.631C32.6623 307.164 31.9369 307.791 31.0748 308.501C30.1822 309.232 29.3555 310.04 28.6041 310.914C27.8294 311.794 27.2076 312.797 26.7642 313.88C26.3193 314.982 26.2239 316.192 26.4908 317.348C26.6545 318.198 27.0144 318.999 27.5422 319.688C28.0248 320.298 28.6254 320.806 29.3085 321.182C30.0108 321.547 30.7791 321.771 31.5689 321.84C32.3836 321.924 33.2065 321.882 34.0081 321.714C34.9212 321.539 35.7898 321.184 36.5629 320.67C37.27 320.192 37.9069 319.619 38.4553 318.967C38.9895 318.325 39.448 317.624 39.8221 316.878C40.1714 316.202 40.4769 315.504 40.7368 314.789L47.3604 317.547C47.0842 318.994 46.5653 320.385 45.8254 321.662C45.1062 322.91 44.1985 324.041 43.1339 325.015C42.0577 326.008 40.8432 326.842 39.5277 327.491C38.1761 328.166 36.7409 328.661 35.2592 328.963C33.5736 329.317 31.8455 329.426 30.1286 329.287C28.4154 329.152 26.7463 328.68 25.2187 327.898C23.6338 327.068 22.2491 325.906 21.1604 324.493C19.909 322.824 19.0633 320.89 18.6897 318.842C18.3977 317.586 18.2984 316.294 18.3953 315.008C18.4888 313.893 18.7622 312.8 19.2049 311.77C19.6395 310.756 20.2088 309.804 20.8976 308.94C21.6361 307.997 22.4444 307.11 23.3157 306.286C24.0937 305.576 24.8717 304.887 25.6603 304.197C26.4225 303.565 27.1262 302.866 27.763 302.108C28.3308 301.378 28.7649 300.554 29.0456 299.674C29.3526 298.717 29.3889 297.695 29.1508 296.718L36.4893 295.193ZM33.1039 279.828L35.0279 288.947L27.6684 290.482L25.7444 281.374L33.1039 279.828Z" fill="#EBEBEB"/>
<path d="M367.586 201.988C368.824 203.602 369.735 205.439 370.267 207.398C370.691 209.55 370.384 211.78 369.395 213.739C369.09 214.47 368.69 215.337 368.207 216.34C367.696 217.373 367.281 218.449 366.966 219.557C366.63 220.678 366.484 221.846 366.535 223.014C366.595 224.199 367.013 225.338 367.734 226.284C368.236 226.988 368.899 227.564 369.668 227.965C370.364 228.323 371.126 228.536 371.908 228.592C372.7 228.643 373.494 228.533 374.242 228.268C375.013 228.002 375.74 227.622 376.397 227.14C377.155 226.606 377.796 225.924 378.279 225.135C378.74 224.409 379.094 223.621 379.33 222.795C379.542 221.992 379.666 221.169 379.698 220.34C379.742 219.585 379.742 218.829 379.698 218.074L386.868 217.844C387.23 219.27 387.344 220.746 387.205 222.21C387.068 223.647 386.714 225.056 386.154 226.388C385.584 227.733 384.826 228.992 383.904 230.128C382.96 231.309 381.864 232.363 380.644 233.261C379.256 234.28 377.726 235.093 376.103 235.674C374.488 236.257 372.772 236.517 371.056 236.437C369.271 236.336 367.528 235.856 365.946 235.027C364.11 234.021 362.53 232.61 361.331 230.901C360.54 229.879 359.91 228.745 359.459 227.537C359.075 226.485 358.866 225.377 358.839 224.257C358.808 223.154 358.925 222.051 359.186 220.977C359.472 219.818 359.841 218.68 360.29 217.572C360.7 216.601 361.11 215.65 361.552 214.721C361.99 213.826 362.343 212.892 362.603 211.932C362.84 211.029 362.919 210.093 362.834 209.164C362.71 208.168 362.314 207.225 361.688 206.437L367.586 201.988ZM358.124 189.453L363.686 196.943L357.62 201.392L352.058 193.903L358.124 189.453Z" fill="#EBEBEB"/>
<path d="M402.108 183.145C402.072 180.912 402.479 178.693 403.307 176.617C404.334 174.436 406.066 172.66 408.227 171.571C408.974 171.122 409.899 170.621 410.992 170.046C412.101 169.46 413.156 168.778 414.146 168.01C415.183 167.24 416.079 166.301 416.796 165.231C417.515 164.141 417.882 162.858 417.847 161.554C417.865 160.653 417.68 159.76 417.305 158.939C416.931 158.119 416.376 157.392 415.681 156.812C415.016 156.256 414.243 155.84 413.41 155.59C412.553 155.321 411.66 155.183 410.761 155.182C409.739 155.171 408.724 155.359 407.775 155.736C406.906 156.098 406.09 156.572 405.346 157.146C404.624 157.712 403.971 158.361 403.401 159.079C402.877 159.728 402.392 160.408 401.951 161.116L395.453 156.666C396.077 155.171 396.947 153.791 398.029 152.582C399.092 151.407 400.325 150.397 401.688 149.584C403.076 148.762 404.573 148.136 406.135 147.724C407.741 147.304 409.395 147.094 411.055 147.098C412.953 147.098 414.841 147.373 416.659 147.912C418.471 148.442 420.159 149.326 421.622 150.513C423.132 151.758 424.355 153.311 425.207 155.068C426.201 157.145 426.701 159.421 426.668 161.721C426.688 163.134 426.5 164.541 426.111 165.9C425.749 167.076 425.206 168.189 424.502 169.2C423.804 170.192 422.977 171.088 422.042 171.864C421.027 172.706 419.951 173.474 418.825 174.162C417.837 174.757 416.838 175.332 415.839 175.875C414.878 176.398 413.966 177.006 413.116 177.692C412.316 178.335 411.636 179.113 411.108 179.99C410.561 180.943 410.288 182.027 410.319 183.124L402.108 183.145ZM402.255 200.422V190.185H410.54V200.422H402.255Z" fill="#EBEBEB"/>
<path d="M142.93 242.482C142.43 240.305 142.365 238.051 142.74 235.849C143.291 233.506 144.616 231.413 146.504 229.906C147.145 229.31 147.934 228.631 148.891 227.817C149.864 227.005 150.771 226.118 151.603 225.163C152.447 224.189 153.125 223.085 153.611 221.894C154.1 220.683 154.203 219.352 153.906 218.081C153.727 217.147 153.331 216.267 152.749 215.512C152.21 214.865 151.545 214.332 150.794 213.945C150.025 213.537 149.181 213.288 148.312 213.214C147.42 213.131 146.52 213.181 145.642 213.36C144.639 213.561 143.686 213.955 142.835 214.52C142.052 215.05 141.345 215.682 140.732 216.4C140.149 217.104 139.648 217.871 139.239 218.687C138.841 219.431 138.49 220.198 138.188 220.985L131.028 217.935C131.327 216.346 131.893 214.817 132.7 213.412C133.489 212.04 134.485 210.797 135.654 209.725C136.834 208.63 138.165 207.709 139.607 206.988C141.095 206.251 142.67 205.703 144.296 205.359C146.152 204.974 148.053 204.854 149.942 205.004C151.823 205.15 153.656 205.664 155.336 206.518C157.078 207.423 158.6 208.696 159.793 210.247C161.983 213.281 163.066 216.965 162.863 220.693C162.758 221.915 162.46 223.114 161.98 224.244C161.504 225.365 160.882 226.419 160.13 227.378C159.311 228.408 158.422 229.382 157.47 230.292C156.618 231.076 155.767 231.838 154.905 232.569C154.072 233.28 153.305 234.063 152.613 234.909C151.967 235.707 151.463 236.608 151.12 237.573C150.792 238.626 150.755 239.749 151.014 240.821L142.93 242.482ZM146.683 259.351L144.58 249.345L152.686 247.632L154.789 257.649L146.683 259.351Z" fill="#EBEBEB"/>
<path d="M395.753 323.512L409.799 323.219L416.717 323.104C419.019 323.052 421.301 323.104 423.593 323.041L423.13 323.512L423.067 311.823L423.593 312.345L409.641 312.283C405.005 312.283 400.368 312.157 395.721 312.105L396.015 311.823C396.015 313.735 395.921 315.657 395.868 317.61L395.753 323.512ZM395.753 323.512L395.605 317.725C395.605 315.782 395.49 313.808 395.469 311.823V311.541H395.753C400.4 311.489 405.036 311.374 409.673 311.363L423.593 311.301H424.118V311.823V323.512V323.982H423.645C421.301 323.982 418.946 323.982 416.612 323.919L409.61 323.804L395.753 323.512Z" fill="#EBEBEB"/>
<path d="M411.28 338.25L425.326 337.957L432.244 337.842C434.547 337.79 436.828 337.842 439.12 337.78L438.657 338.25L438.605 326.561L439.12 327.084L425.2 327.021C420.563 327.021 415.927 326.896 411.28 326.843L411.574 326.561C411.574 328.473 411.48 330.395 411.438 332.348L411.28 338.25ZM411.28 338.25L411.133 332.463C411.133 330.52 411.017 328.546 410.996 326.561V326.279H411.28C415.927 326.227 420.563 326.112 425.2 326.102L439.12 326.039H439.656V326.561L439.593 338.25V338.72H439.078C436.733 338.72 434.389 338.72 432.044 338.657L425.042 338.542L411.28 338.25Z" fill="#EBEBEB"/>
<path d="M380.198 338.25L394.244 337.957L401.162 337.842C403.454 337.79 405.746 337.842 408.038 337.78L407.575 338.25L407.533 326.561L408.059 327.084L394.139 327.021C389.502 327.021 384.855 326.896 380.219 326.843L380.503 326.561C380.503 328.473 380.419 330.395 380.366 332.348L380.198 338.25ZM380.198 338.25L380.051 332.463C379.998 330.52 379.935 328.546 379.914 326.561V326.279H380.198C384.834 326.227 389.481 326.112 394.118 326.102L408.038 326.039H408.564V326.561L408.585 338.25V338.72H408.122C405.778 338.72 403.423 338.72 401.089 338.657L394.086 338.542L380.198 338.25Z" fill="#EBEBEB"/>
<path d="M21.4038 338.25L35.4395 337.957L42.3574 337.842C44.6599 337.79 46.9519 337.842 49.2439 337.78L48.7707 338.25L48.7182 326.561L49.2439 327.084L35.3553 327.021C30.7083 327.021 26.0718 326.896 21.4353 326.843L21.7192 326.561C21.7192 328.473 21.6245 330.395 21.5825 332.348L21.4038 338.25ZM21.4038 338.25L21.2461 332.463C21.2461 330.52 21.1304 328.546 21.1094 326.561V326.279H21.4038C26.0403 326.227 30.6768 326.112 35.3238 326.102L49.2439 326.039H49.7695V326.561L49.7065 338.25V338.72H49.2439C46.8993 338.72 44.5443 338.72 42.1997 338.657L35.1976 338.542L21.4038 338.25Z" fill="#EBEBEB"/>
<path d="M21.4042 13.1534L35.4399 12.8609L42.3579 12.7356C44.6604 12.7356 46.9524 12.7356 49.2443 12.7356L48.7712 13.2056L48.7187 1.51718L49.2443 2.02901L35.3558 1.90366C30.7088 1.90366 26.0723 1.78876 21.4358 1.73653L21.7197 1.45451C21.7197 3.36602 21.625 5.28798 21.583 7.23084L21.4042 13.1534ZM21.4042 13.1534L21.2465 7.36663C21.2465 5.41333 21.1309 3.43914 21.1099 1.46495V1.18293H21.4042C26.0408 1.18293 30.6773 1.0158 35.3243 1.0158L49.2443 0.953125H49.77V1.48584L49.7069 13.1743V13.6339H49.2443C46.8998 13.6339 44.5447 13.6339 42.2002 13.5817L35.1981 13.3937L21.4042 13.1534Z" fill="#EBEBEB"/>
<path d="M5.91547 27.8956L19.9512 27.6031L26.8691 27.4778C29.1716 27.4778 31.4531 27.4778 33.7556 27.4778L33.2825 27.9478V16.2594L33.8081 16.7712L19.7935 16.6563C15.1464 16.6563 10.5099 16.5309 5.91547 16.5309L6.19934 16.2489C6.19934 18.1604 6.10472 20.0824 6.06266 22.0253L5.91547 27.8956ZM5.91547 27.8956L5.75777 22.1088C5.75777 20.1555 5.64212 18.1813 5.62109 16.2071V15.9251H5.91547C10.552 15.9251 15.1885 15.758 19.8355 15.758L33.7556 15.6953H34.2813V16.228L34.2182 27.9165V28.3761H33.7556C31.4005 28.3761 29.056 28.3761 26.7114 28.3761L19.7094 28.2507L5.91547 27.8956Z" fill="#EBEBEB"/>
<path d="M411.279 13.1639L425.325 12.8714L432.243 12.7565C434.546 12.7565 436.827 12.7565 439.119 12.6938L438.656 13.1639L438.604 1.4754L439.119 1.99767L425.199 1.90366C420.563 1.90366 415.926 1.78876 411.279 1.73653L411.573 1.45451C411.573 3.36602 411.479 5.28798 411.437 7.23084L411.279 13.1639ZM411.279 13.1639L411.132 7.37708C411.132 5.42378 411.016 3.46003 410.995 1.4754V1.19337H411.279C415.926 1.14114 420.563 1.03669 425.199 1.02624L439.077 0.953125H439.613V1.4754L439.561 13.1639V13.6339H439.077C436.732 13.6339 434.388 13.6339 432.043 13.6339L425.041 13.519L411.279 13.1639Z" fill="#EBEBEB"/>
<path d="M260.564 164.674L246.529 164.966L239.611 165.081C237.308 165.133 235.016 165.081 232.724 165.144L233.198 164.674L233.25 176.362L232.724 175.84L246.644 175.913C251.291 175.913 255.928 176.028 260.564 176.08L260.281 176.362C260.281 174.45 260.375 172.529 260.417 170.586L260.564 164.674ZM260.564 164.674L260.722 170.46C260.722 172.414 260.838 174.377 260.859 176.362V176.644H260.564C255.928 176.644 251.291 176.801 246.644 176.811L232.724 176.874H232.199V176.341L232.262 164.653V164.183H232.724C235.069 164.183 237.424 164.183 239.769 164.235L246.771 164.35L260.564 164.674Z" fill="#EBEBEB"/>
<path d="M245.04 149.938L231.005 150.23L224.087 150.345C221.784 150.345 219.492 150.345 217.2 150.408L217.673 149.938L217.726 161.626L217.2 161.104L231.12 161.177C235.757 161.177 240.404 161.292 245.04 161.344L244.757 161.626C244.757 159.714 244.841 157.793 244.893 155.85L245.04 149.938ZM245.04 149.938L245.188 155.724C245.24 157.678 245.314 159.641 245.324 161.626V161.908H245.03C240.393 161.96 235.746 162.065 231.11 162.075L217.19 162.138H216.664V161.616L216.727 149.927V149.457H217.242C219.587 149.457 221.942 149.457 224.286 149.509L231.289 149.624L245.04 149.938Z" fill="#EBEBEB"/>
<path d="M0 391.014L55.6276 390.764L111.255 390.67L222.5 390.492L333.745 390.67L389.372 390.764L445 391.014L389.372 391.276L333.745 391.37L222.5 391.537L111.255 391.37L55.6276 391.276L0 391.014Z" fill="#263238"/>
<path d="M222.498 445.002C327.242 445.002 412.154 436.79 412.154 426.66C412.154 416.529 327.242 408.317 222.498 408.317C117.755 408.317 32.843 416.529 32.843 426.66C32.843 436.79 117.755 445.002 222.498 445.002Z" fill="#EBEBEB"/>
<path d="M408.594 276.091C404.598 272.206 399.436 267.505 393.328 269.187C387.587 270.764 385.39 276.99 384.36 282.181C383.035 288.877 382.005 295.624 380.932 302.362C379.86 309.099 378.83 315.941 377.852 322.783C377.291 326.626 376.744 330.474 376.212 334.325C375.938 336.247 375.668 338.169 375.402 340.091C375.139 341.981 374.824 343.872 374.719 345.773C374.719 346.379 375.644 346.462 375.77 345.888C376.517 342.681 376.821 339.339 377.295 336.09C377.768 332.841 378.251 329.53 378.724 326.261C379.681 319.753 380.68 313.256 381.658 306.749C382.636 300.241 383.666 293.755 384.717 287.258C385.6 281.742 386.021 274.901 390.931 271.266C392.265 270.36 393.81 269.806 395.419 269.656C397.028 269.507 398.649 269.766 400.13 270.409C403.358 271.642 405.944 273.94 408.478 276.217C408.594 276.29 408.699 276.175 408.594 276.091Z" fill="#263238"/>
<path d="M403.155 272.116C403.155 272.116 394.986 269.202 390.96 275.114C386.933 281.026 391.748 296.089 428.914 304.581C427.826 293.04 424.806 281.76 419.977 271.208C412.008 253.941 397.804 260.48 403.155 272.116Z" fill="#53C48A"/>
<path d="M426.777 302.122C426.216 301.089 425.591 300.091 424.906 299.135C424.286 298.184 423.655 297.234 423.024 296.293C422.551 295.583 422.057 294.873 421.573 294.204C421.573 294.037 421.573 293.86 421.636 293.682L421.762 292.721C421.857 292.032 421.962 291.332 422.057 290.632C422.151 289.932 422.277 289.264 422.414 288.543C422.499 287.804 422.661 287.076 422.898 286.37C422.898 286.255 422.751 286.203 422.74 286.37C422.66 286.789 422.548 287.201 422.404 287.603L422.151 288.533C421.973 289.232 421.804 289.932 421.647 290.622C421.489 291.311 421.373 291.927 421.258 292.575C421.205 292.899 421.163 293.212 421.121 293.525C420.459 292.585 419.775 291.656 419.081 290.747C417.105 288.167 415.023 285.681 412.857 283.247C412.857 283.247 412.857 283.247 412.857 283.184C413.057 279.309 412.962 275.465 413.824 271.694C413.824 271.59 413.698 271.527 413.667 271.632C412.687 275.23 412.22 278.946 412.279 282.673C411.511 281.816 410.723 280.96 409.934 280.114C408.116 278.181 406.276 276.27 404.394 274.41C404.32 274.337 404.194 274.41 404.268 274.525C407.422 277.878 410.376 281.367 413.278 284.918C411.007 284.882 408.737 284.965 406.475 285.169C403.963 285.347 401.46 285.67 398.958 286.015C398.843 286.015 398.874 286.193 398.958 286.182C401.446 285.818 403.952 285.595 406.465 285.514C408.894 285.409 411.301 285.514 413.73 285.514C415.3 287.436 416.845 289.379 418.366 291.342H418.051C417.483 291.342 416.915 291.342 416.348 291.342C415.212 291.342 414.087 291.447 412.962 291.541C410.652 291.731 408.358 292.08 406.097 292.585C406.075 292.585 406.053 292.594 406.037 292.61C406.022 292.626 406.013 292.647 406.013 292.669C406.013 292.691 406.022 292.712 406.037 292.728C406.053 292.744 406.075 292.753 406.097 292.753C408.378 292.491 410.67 292.282 412.962 292.199C414.014 292.199 415.16 292.199 416.253 292.199H418.051C418.365 292.242 418.685 292.213 418.987 292.115C419.982 293.404 420.977 294.695 421.973 295.991C422.761 297.035 423.539 298.08 424.307 299.124C425.074 300.169 425.799 301.37 426.662 302.373C426.704 302.3 426.819 302.206 426.777 302.122Z" fill="#263238"/>
<path d="M406.71 280.513C405.392 280.346 404.063 280.283 402.735 280.325C401.411 280.325 400.076 280.325 398.751 280.409C398.635 280.409 398.646 280.576 398.751 280.576C400.097 280.471 401.442 280.45 402.788 280.471C404.134 280.492 405.395 280.618 406.689 280.576C406.752 280.576 406.752 280.524 406.71 280.513Z" fill="#263238"/>
<path d="M418.38 283.487C418.527 282.223 418.685 280.959 418.958 279.716C418.958 279.694 418.95 279.673 418.934 279.657C418.918 279.642 418.897 279.633 418.874 279.633C418.852 279.633 418.831 279.642 418.815 279.657C418.799 279.673 418.79 279.694 418.79 279.716C418.601 280.959 418.359 282.192 418.18 283.435C418.086 284.051 418.002 284.678 417.918 285.294C417.811 285.877 417.762 286.468 417.77 287.06C417.778 287.083 417.792 287.103 417.812 287.118C417.832 287.132 417.856 287.14 417.881 287.14C417.905 287.14 417.93 287.132 417.949 287.118C417.969 287.103 417.984 287.083 417.991 287.06C418.102 286.477 418.165 285.887 418.18 285.294C418.233 284.688 418.307 284.083 418.38 283.487Z" fill="#263238"/>
<path d="M415.951 269.512C415.625 270.744 415.299 271.987 415.078 273.23C414.963 273.867 414.858 274.505 414.774 275.142C414.658 275.758 414.616 276.386 414.647 277.012C414.647 277.025 414.653 277.039 414.663 277.048C414.673 277.058 414.686 277.064 414.7 277.064C414.714 277.064 414.727 277.058 414.737 277.048C414.747 277.039 414.753 277.025 414.753 277.012C414.9 276.429 414.995 275.835 415.036 275.236C415.121 274.62 415.215 274.014 415.32 273.397C415.552 272.113 415.783 270.838 416.109 269.574C416.119 269.47 415.951 269.407 415.951 269.512Z" fill="#263238"/>
<path d="M367.588 344.404C367.378 342.085 367.146 339.756 366.905 337.437C366.407 332.841 365.85 328.248 365.233 323.659C364.613 319.094 364.024 314.509 363.277 309.955C363.009 307.825 362.534 305.726 361.858 303.687C361.618 302.818 361.18 302.014 360.579 301.339C359.977 300.664 359.228 300.134 358.389 299.791C354.015 298.298 351.029 302.8 349.305 305.985C349.252 306.079 349.389 306.153 349.452 306.069C350.503 304.554 353.426 300.324 356.748 300.522C358.977 300.648 360.765 302.225 361.837 307.751C364.507 321.528 366.915 349.532 367.199 351.319C367.346 352.29 368.03 352.248 368.04 351.204C367.998 348.968 367.735 346.681 367.588 344.404Z" fill="#263238"/>
<path d="M350.43 304.322C350.43 304.322 354.257 290.91 345.804 297.616C331.736 308.782 331.242 333.026 331.242 333.026C331.242 333.026 356.244 318.601 359.345 309.085C363.982 294.942 350.43 304.322 350.43 304.322Z" fill="#53C48A"/>
<path d="M355.164 310.905C353.208 311.302 351.211 311.563 349.234 311.845L346.417 312.242C345.786 312.325 345.144 312.388 344.503 312.461C346.364 309.912 348.246 307.374 350.033 304.773C350.05 304.751 350.057 304.723 350.053 304.696C350.049 304.668 350.035 304.644 350.012 304.627C349.99 304.61 349.962 304.603 349.934 304.607C349.907 304.611 349.882 304.626 349.865 304.648C348.374 306.167 346.97 307.767 345.66 309.442L344.545 306.309C344.125 305.107 343.662 303.917 343.357 302.674C343.357 302.569 343.168 302.674 343.199 302.726C343.536 303.948 343.778 305.212 344.114 306.444C344.451 307.677 344.797 308.805 345.218 309.965C344.303 311.145 343.42 312.357 342.569 313.579C342.138 312.367 341.601 311.197 341.233 309.965C341.233 309.86 341.034 309.912 341.065 309.965C341.517 311.333 341.759 312.743 342.18 314.143C341.601 314.978 341.034 315.814 340.487 316.65C339.436 318.206 338.521 319.783 337.596 321.371C337.523 321.402 337.463 321.455 337.423 321.523C337.383 321.59 337.366 321.669 337.375 321.747C335.798 324.463 334.294 327.21 332.812 329.988C332.801 330.008 332.798 330.031 332.804 330.052C332.81 330.074 332.824 330.092 332.843 330.103C332.863 330.114 332.886 330.117 332.908 330.111C332.93 330.106 332.948 330.091 332.959 330.072C334.442 327.325 336.113 324.651 337.806 322.029C338.071 321.942 338.347 321.889 338.626 321.872L339.488 321.684C340.129 321.549 340.771 321.381 341.412 321.225C342.684 320.911 343.935 320.608 345.229 320.389C345.334 320.389 345.281 320.212 345.229 320.232C343.715 320.514 342.201 320.692 340.666 320.859C339.94 320.943 339.225 321.037 338.51 321.152H338.405C339.295 319.801 340.207 318.457 341.139 317.12C342.043 315.814 342.979 314.519 343.914 313.224C344.787 313.109 345.639 312.879 346.501 312.722L349.402 312.158C351.337 311.772 353.271 311.343 355.216 311.03C355.322 311.093 355.269 310.884 355.164 310.905Z" fill="#263238"/>
<path d="M340.137 312.232C340.021 311.877 339.916 311.522 339.8 311.188C339.566 310.447 339.373 309.694 339.222 308.931C339.222 308.827 339.043 308.879 339.064 308.931C339.232 309.694 339.411 310.446 339.579 311.198C339.732 311.957 339.951 312.701 340.231 313.423C340.249 313.453 340.276 313.477 340.309 313.49C340.341 313.503 340.377 313.505 340.411 313.496C340.445 313.486 340.475 313.465 340.496 313.437C340.516 313.409 340.527 313.374 340.526 313.339C340.41 312.984 340.252 312.608 340.137 312.232Z" fill="#263238"/>
<path d="M357.713 307.804C356.578 307.971 355.432 308.055 354.276 308.159C353.119 308.264 351.994 308.41 350.848 308.588C350.785 308.588 350.785 308.692 350.848 308.682C351.994 308.608 353.14 308.514 354.286 308.368C355.432 308.222 356.568 308.055 357.724 307.971C357.829 307.961 357.819 307.794 357.713 307.804Z" fill="#263238"/>
<path d="M385.931 327.428C385.479 317.557 384.88 307.697 383.829 297.867C383.334 292.968 382.777 288.08 382.083 283.244C381.47 278.451 380.518 273.708 379.234 269.048C378.353 265.426 376.736 262.02 374.482 259.042C373.368 257.593 371.902 256.449 370.221 255.718C368.54 254.987 366.699 254.693 364.872 254.863C360.53 255.396 357.019 258.122 353.991 261.078C350.595 264.4 347.483 268.025 344.339 271.524C343.54 272.422 342.752 273.331 341.963 274.24C341.9 274.323 342.016 274.438 342.089 274.355C345.17 270.845 348.398 267.429 351.709 264.17C354.8 261.152 358.018 257.903 362.223 256.608C364.214 255.981 366.344 255.93 368.363 256.462C369.971 256.966 371.42 257.877 372.568 259.104C374.987 261.59 376.332 264.964 377.3 268.234C379.97 277.311 380.927 286.827 381.915 296.196C382.903 305.566 383.608 315.259 384.091 324.827C384.575 334.395 384.953 344.057 385.889 353.646C386.005 354.826 386.152 356.007 386.31 357.187C386.404 357.97 387.645 357.981 387.582 357.187C386.835 347.264 386.373 337.351 385.931 327.428Z" fill="#263238"/>
<path d="M353.468 262.124C353.468 262.124 359.145 251.678 352.416 248.336C345.688 244.993 323.273 269.874 316.723 306.266C316.723 306.266 352.963 290.337 365.275 274.46C377.586 258.583 363.645 255.094 353.468 262.124Z" fill="#53C48A"/>
<path d="M358.8 270.606C354.731 270.606 350.662 270.303 346.594 270.324L348.886 267.723C350.018 266.568 351.071 265.339 352.04 264.046C352.092 263.962 351.977 263.847 351.893 263.91C350.786 264.851 349.756 265.878 348.812 266.981C347.761 268.026 346.772 269.133 345.763 270.219C344.207 271.901 342.683 273.593 341.158 275.306C341.158 275.139 341.158 274.972 341.158 274.815C341.158 274.105 341.158 273.394 341.158 272.726C341.158 271.358 341.158 269.979 341.158 268.61C341.158 265.832 341.158 263.033 341.368 260.254C341.368 260.15 341.211 260.15 341.2 260.254C341.011 263.054 340.717 265.832 340.58 268.61C340.517 269.989 340.485 271.358 340.464 272.736C340.464 273.436 340.464 274.147 340.464 274.826C340.464 275.212 340.464 275.619 340.464 276.016C340.233 276.288 339.981 276.549 339.749 276.81C336.501 280.508 333.441 284.32 330.392 288.206C330.392 287.997 330.392 287.767 330.34 287.559C330.34 287.13 330.245 286.702 330.203 286.274C330.098 285.344 329.972 284.425 329.824 283.495C329.677 282.566 329.562 281.761 329.414 280.894C329.267 280.027 329.004 278.941 328.931 277.959C328.935 277.947 328.937 277.933 328.935 277.92C328.934 277.906 328.929 277.893 328.921 277.882C328.913 277.871 328.903 277.862 328.891 277.856C328.879 277.85 328.865 277.847 328.852 277.847C328.838 277.847 328.825 277.85 328.813 277.856C328.801 277.862 328.791 277.871 328.783 277.882C328.775 277.893 328.77 277.906 328.768 277.92C328.767 277.933 328.768 277.947 328.773 277.959C328.938 278.941 329.05 279.932 329.109 280.926L329.362 283.6C329.435 284.488 329.52 285.375 329.614 286.274L329.74 287.559C329.74 287.767 329.793 287.987 329.824 288.196C329.834 288.378 329.892 288.554 329.993 288.708L328.447 290.713C326.344 293.418 324.368 296.155 322.349 298.881C322.286 298.965 322.412 299.08 322.475 298.996C324.389 296.521 326.355 294.087 328.342 291.685C329.835 291.747 331.359 291.632 332.852 291.611C334.345 291.59 336.006 291.611 337.562 291.611C337.585 291.611 337.606 291.603 337.622 291.587C337.638 291.571 337.647 291.55 337.647 291.528C337.647 291.506 337.638 291.484 337.622 291.469C337.606 291.453 337.585 291.444 337.562 291.444C335.985 291.444 334.408 291.496 332.842 291.507C331.275 291.517 329.951 291.444 328.521 291.507C330.266 289.418 332.043 287.329 333.778 285.187L335.838 282.889C336.441 282.968 337.05 282.989 337.657 282.952H339.76C341.095 282.952 342.43 282.952 343.776 282.9C346.541 282.9 349.306 282.764 352.071 282.754C352.084 282.758 352.098 282.76 352.111 282.758C352.125 282.756 352.137 282.752 352.149 282.744C352.16 282.736 352.169 282.726 352.175 282.714C352.181 282.702 352.185 282.689 352.185 282.675C352.185 282.662 352.181 282.649 352.175 282.637C352.169 282.625 352.16 282.614 352.149 282.607C352.137 282.599 352.125 282.594 352.111 282.592C352.098 282.591 352.084 282.592 352.071 282.597C349.296 282.597 346.531 282.44 343.765 282.367C342.42 282.367 341.085 282.294 339.739 282.273H337.636C337.237 282.273 336.816 282.273 336.395 282.273L340.969 276.894C341.004 276.87 341.033 276.838 341.053 276.8C342.535 275.055 344.018 273.321 345.521 271.577C345.732 271.347 345.942 271.117 346.142 270.877C350.347 271.003 354.552 270.731 358.758 270.814C358.916 270.773 358.916 270.606 358.8 270.606Z" fill="#263238"/>
<path d="M356.714 277.766H355.726C355.706 277.766 355.688 277.773 355.674 277.787C355.66 277.801 355.652 277.819 355.652 277.839C355.652 277.858 355.66 277.877 355.674 277.89C355.688 277.904 355.706 277.912 355.726 277.912H356.704C356.717 277.906 356.729 277.896 356.738 277.884C356.746 277.871 356.752 277.857 356.753 277.842C356.754 277.827 356.751 277.812 356.744 277.799C356.737 277.785 356.727 277.774 356.714 277.766Z" fill="#263238"/>
<path d="M354.523 277.773C353.22 277.773 351.916 277.773 350.612 277.689L348.667 277.668C348.063 277.595 347.452 277.595 346.848 277.668C346.832 277.668 346.815 277.675 346.804 277.687C346.792 277.698 346.785 277.714 346.785 277.731C346.785 277.748 346.792 277.763 346.804 277.775C346.815 277.787 346.832 277.794 346.848 277.794C347.45 277.914 348.065 277.956 348.678 277.919H350.633H354.544C354.639 277.94 354.639 277.773 354.523 277.773Z" fill="#263238"/>
<path d="M343.135 289.936C340.483 289.492 337.802 289.251 335.113 289.215V289.267C337.783 289.518 340.443 289.664 343.093 290.092C343.198 290.113 343.24 289.946 343.135 289.936Z" fill="#263238"/>
<path d="M332.23 278.334C332.23 278.104 332.177 277.874 332.146 277.644C332.083 277.122 331.998 276.6 331.914 276.088C331.757 275.096 331.588 274.114 331.399 273.122C331.399 273.038 331.22 273.059 331.231 273.122C331.357 274.166 331.473 275.158 331.567 276.182L331.693 277.686C331.679 278.167 331.747 278.648 331.893 279.107C331.914 279.138 331.944 279.163 331.978 279.178C332.013 279.193 332.051 279.199 332.089 279.193C332.126 279.188 332.161 279.172 332.19 279.147C332.219 279.123 332.24 279.091 332.251 279.055C332.287 278.815 332.28 278.571 332.23 278.334Z" fill="#263238"/>
<path d="M385.578 248.722C384.274 246.319 382.623 243.154 379.385 243.353C376.715 243.52 375.506 246.225 374.938 248.471C373.172 255.396 373.045 262.708 372.709 269.811C371.973 284.821 371.321 299.842 371.227 314.873C371.227 319.051 371.227 323.229 371.227 327.407C371.227 331.658 371.227 335.931 371.521 340.172C371.521 340.255 371.554 340.334 371.613 340.393C371.672 340.452 371.753 340.485 371.836 340.485C371.92 340.485 372 340.452 372.059 340.393C372.119 340.334 372.152 340.255 372.152 340.172C372.152 336.536 372.047 332.86 372.036 329.266C372.026 325.673 372.036 322.174 372.099 318.623C372.218 311.443 372.411 304.264 372.677 297.084C372.951 289.95 373.266 282.816 373.571 275.681C373.718 272.119 373.876 268.547 374.034 264.985C374.191 261.423 374.339 258.081 374.738 254.644C374.959 252.712 375.243 250.79 375.653 248.899C375.852 247.489 376.43 246.158 377.324 245.045C377.942 244.439 378.757 244.072 379.623 244.011C380.488 243.949 381.347 244.198 382.045 244.711C383.527 245.772 384.688 247.217 385.399 248.889C385.421 248.912 385.452 248.926 385.485 248.927C385.517 248.928 385.549 248.916 385.572 248.894C385.596 248.872 385.61 248.841 385.611 248.809C385.612 248.777 385.6 248.745 385.578 248.722Z" fill="#263238"/>
<path d="M384.695 247.574C384.695 247.574 382.035 238.236 387.923 242.905C397.721 250.676 398.068 267.588 398.068 267.588C398.068 267.588 380.647 257.539 378.481 250.875C375.254 241.035 384.695 247.574 384.695 247.574Z" fill="#53C48A"/>
<path d="M394.399 260.66C394.241 260.399 394.073 260.148 393.905 259.887C393.926 259.623 393.926 259.357 393.905 259.093C393.905 258.696 393.905 258.289 393.905 257.892C393.905 257.098 393.905 256.304 393.989 255.521C393.989 255.499 393.98 255.477 393.964 255.462C393.948 255.446 393.927 255.437 393.905 255.437C393.882 255.437 393.861 255.446 393.845 255.462C393.829 255.477 393.82 255.499 393.82 255.521C393.82 256.294 393.747 257.077 393.726 257.85C393.726 258.237 393.726 258.623 393.726 259.009C393.726 259.156 393.726 259.333 393.726 259.511C393.042 258.466 392.338 257.422 391.623 256.377C391.413 256.074 391.192 255.782 390.982 255.489C390.87 254.476 390.852 253.455 390.929 252.439C390.929 251.395 390.929 250.267 390.992 249.18C390.992 249.076 390.824 249.076 390.824 249.18C390.824 250.308 390.74 251.437 390.677 252.565C390.608 253.367 390.587 254.173 390.614 254.978C388.932 252.711 387.144 250.517 385.357 248.334C385.294 248.261 385.168 248.334 385.231 248.439C386.345 249.849 387.418 251.29 388.469 252.753C386.419 252.272 384.337 252.001 382.255 251.708C382.15 251.708 382.108 251.854 382.255 251.875C384.463 252.209 386.629 252.753 388.805 253.233C389.636 254.403 390.467 255.573 391.276 256.753L392.264 258.195H392.18L391.497 258.101L390.046 257.975C389.047 257.892 388.038 257.84 387.029 257.787C386.923 257.787 386.934 257.954 387.029 257.954C388.017 257.954 389.005 258.049 389.983 258.153L391.549 258.341L392.222 258.425H392.422C392.979 259.239 393.547 260.054 394.094 260.869C395.082 262.321 395.965 263.867 397.006 265.256C397.02 265.268 397.036 265.275 397.054 265.276C397.072 265.277 397.09 265.273 397.105 265.264C397.121 265.255 397.132 265.241 397.139 265.224C397.146 265.208 397.147 265.19 397.143 265.172C396.32 263.615 395.404 262.108 394.399 260.66Z" fill="#263238"/>
<path d="M390.065 250.115C390.065 249.75 390.065 249.384 390.065 249.018C390.044 248.255 390.076 247.49 390.16 246.731C390.164 246.718 390.166 246.705 390.164 246.691C390.163 246.678 390.158 246.665 390.15 246.654C390.142 246.643 390.132 246.634 390.12 246.628C390.108 246.621 390.094 246.618 390.081 246.618C390.067 246.618 390.054 246.621 390.042 246.628C390.03 246.634 390.019 246.643 390.012 246.654C390.004 246.665 389.999 246.678 389.997 246.691C389.996 246.705 389.997 246.718 390.002 246.731C390.002 247.493 389.918 248.245 389.876 248.997C389.876 249.384 389.876 249.76 389.876 250.136V250.658C389.849 250.838 389.849 251.021 389.876 251.201C389.876 251.221 389.884 251.239 389.897 251.253C389.911 251.267 389.93 251.275 389.949 251.275C389.969 251.275 389.988 251.267 390.001 251.253C390.015 251.239 390.023 251.221 390.023 251.201C390.049 251.035 390.049 250.866 390.023 250.7L390.065 250.115Z" fill="#263238"/>
<path d="M387.908 253.975C387.256 253.861 386.593 253.829 385.941 253.777C385.29 253.725 384.512 253.652 383.839 253.558C383.816 253.558 383.795 253.566 383.779 253.582C383.764 253.598 383.755 253.619 383.755 253.641C383.755 253.663 383.764 253.685 383.779 253.7C383.795 253.716 383.816 253.725 383.839 253.725C385.216 253.808 386.583 254.059 387.96 254.101C387.971 254.111 387.981 253.986 387.908 253.975Z" fill="#263238"/>
<path d="M393.374 254.026C393.427 254.099 393.374 254.308 393.374 254.392V255.342C393.374 255.562 393.374 255.781 393.374 256.001C393.338 256.187 393.338 256.378 393.374 256.565C393.374 256.565 393.427 256.565 393.437 256.565C393.459 256.475 393.459 256.382 393.437 256.293C393.432 256.192 393.432 256.091 393.437 255.99V255.342C393.437 255.123 393.437 254.904 393.437 254.684V254.392C393.437 254.298 393.437 254.099 393.437 254.026C393.437 253.953 393.269 253.87 393.374 254.026Z" fill="#263238"/>
<path d="M385.973 298.557C382.314 295.831 379.023 291.903 374.093 291.705C370.024 291.548 367.175 294.588 365.545 297.972C364.73 299.778 364.065 301.647 363.558 303.561C362.822 306.109 362.121 308.675 361.455 311.259C360.187 316.335 359.1 321.454 358.196 326.614C357.702 329.486 357.239 332.369 356.871 335.263C356.409 338.196 356.125 341.153 356.02 344.12C356.018 344.234 356.059 344.345 356.134 344.431C356.21 344.516 356.315 344.571 356.429 344.584C356.543 344.597 356.658 344.568 356.752 344.501C356.845 344.435 356.91 344.336 356.934 344.225C357.428 341.801 357.639 339.305 357.986 336.861C358.333 334.416 358.722 331.941 359.132 329.497C359.973 324.622 360.947 319.748 362.054 314.873C363.106 310.287 364.157 305.639 365.619 301.179C366.67 297.983 368.394 294.254 371.874 293.105C377.131 291.36 381.957 295.8 385.826 298.693C385.941 298.745 386.057 298.62 385.973 298.557Z" fill="#263238"/>
<path d="M382.187 295.948C382.187 295.948 378.802 286.369 383.691 284.458C391.05 281.648 410.164 303.082 406.411 335.922C406.411 335.922 391.618 327.827 380.684 318.708C369.749 309.59 367.016 297.692 371.779 294.621C376.541 291.55 382.187 295.948 382.187 295.948Z" fill="#53C48A"/>
<path d="M404.207 328.912C403.699 327.766 403.105 326.659 402.431 325.601C401.8 324.473 401.169 323.355 400.517 322.248C399.245 320.086 397.983 317.924 396.68 315.772L396.038 314.727C396.038 314.602 396.091 314.466 396.112 314.341L396.333 313.39C396.501 312.68 396.627 311.959 396.753 311.238C397.026 309.839 397.268 308.418 397.647 307.06C397.647 306.966 397.51 306.935 397.489 307.06C397.184 308.46 396.732 309.849 396.322 311.238C396.112 311.917 395.891 312.586 395.712 313.275L395.523 313.975C393.957 311.416 392.369 308.867 390.624 306.402C390.736 306.065 390.797 305.713 390.802 305.358C390.855 304.877 390.908 304.397 390.971 303.916C391.097 302.872 391.223 301.754 391.381 300.678C391.696 298.589 392.011 296.5 392.537 294.411C392.537 294.306 392.4 294.275 392.379 294.411C391.843 296.5 391.276 298.589 390.876 300.678C390.687 301.723 390.498 302.767 390.361 303.812C390.298 304.334 390.235 304.856 390.182 305.379C390.182 305.525 390.182 305.692 390.119 305.849C389.593 305.107 389.068 304.355 388.51 303.634C386.818 301.42 385.062 299.268 383.254 297.116C383.191 297.033 383.043 297.116 383.117 297.21C386.145 301.058 388.926 305.09 391.444 309.285L392.884 311.614L392.4 311.552C391.78 311.468 391.16 311.437 390.54 311.374L386.797 311.05C384.305 310.852 381.803 310.706 379.322 310.445C379.216 310.445 379.185 310.591 379.322 310.601C381.845 310.894 384.347 311.291 386.86 311.646C388.1 311.823 389.33 311.99 390.571 312.147C391.509 312.332 392.464 312.427 393.42 312.429C394.398 314.017 395.386 315.563 396.364 317.171C396.143 317.171 395.912 317.171 395.702 317.171H392.138C390.529 317.171 388.92 317.171 387.322 317.171C387.207 317.171 387.228 317.328 387.322 317.328C388.952 317.328 390.571 317.433 392.201 317.516L394.514 317.652L395.67 317.735C396.016 317.815 396.376 317.815 396.722 317.735L399.224 321.767C399.991 323.01 400.769 324.243 401.558 325.476C402.301 326.782 403.141 328.032 404.071 329.215C404.113 329.069 404.249 329.017 404.207 328.912Z" fill="#263238"/>
<path d="M397.15 302.368C397.003 303.426 396.781 304.473 396.488 305.501C396.215 306.546 395.91 307.59 395.563 308.635C395.557 308.648 395.554 308.663 395.555 308.677C395.555 308.692 395.558 308.706 395.565 308.719C395.571 308.732 395.58 308.744 395.59 308.753C395.601 308.763 395.614 308.77 395.628 308.774C395.642 308.779 395.657 308.78 395.671 308.779C395.686 308.777 395.7 308.773 395.712 308.765C395.725 308.758 395.736 308.748 395.745 308.737C395.753 308.725 395.759 308.712 395.762 308.697C396.088 307.653 396.383 306.608 396.635 305.564C396.887 304.519 397.056 303.475 397.318 302.378C397.32 302.356 397.312 302.334 397.298 302.317C397.283 302.301 397.262 302.291 397.24 302.289C397.217 302.288 397.195 302.295 397.179 302.31C397.162 302.325 397.152 302.345 397.15 302.368Z" fill="#263238"/>
<path d="M386.283 308.785C386.056 308.596 385.77 308.489 385.473 308.482L384.075 308.294C383.213 308.179 382.34 308.085 381.478 307.981C379.67 307.772 377.872 307.594 376.064 307.375C375.959 307.375 375.927 307.521 376.064 307.532C377.767 307.741 379.46 308.002 381.163 308.221L383.655 308.545L384.864 308.67C385.329 308.675 385.791 308.756 386.23 308.91C386.245 308.911 386.26 308.907 386.272 308.898C386.284 308.89 386.294 308.879 386.299 308.866C386.305 308.852 386.307 308.837 386.304 308.823C386.301 308.808 386.293 308.795 386.283 308.785Z" fill="#263238"/>
<path d="M397.133 323.231C396.281 323.158 395.419 323.126 394.568 323.105H393.274H392.654C392.385 323.131 392.114 323.131 391.845 323.105C391.729 323.105 391.718 323.283 391.845 323.262C392.096 323.236 392.35 323.236 392.602 323.262H393.274L394.557 323.346C395.409 323.398 396.271 323.45 397.122 323.45C397.228 323.408 397.238 323.231 397.133 323.231Z" fill="#263238"/>
<path d="M402.342 319.554L402.626 318.112C402.794 317.162 402.973 316.211 403.152 315.271C403.152 315.249 403.143 315.228 403.127 315.212C403.111 315.196 403.09 315.188 403.068 315.188C403.045 315.188 403.024 315.196 403.008 315.212C402.992 315.228 402.984 315.249 402.984 315.271L402.353 318.039C402.248 318.499 402.143 318.958 402.048 319.418C402.048 319.637 401.964 319.846 401.911 320.066C401.845 320.285 401.82 320.516 401.838 320.744C401.84 320.766 401.848 320.785 401.862 320.802C401.875 320.818 401.894 320.83 401.914 320.835C401.935 320.841 401.956 320.84 401.977 320.833C401.997 320.827 402.014 320.814 402.027 320.797C402.21 320.406 402.317 319.984 402.342 319.554Z" fill="#263238"/>
<path d="M352.238 340.445L353.269 352.092L356.77 391.398H387.753L392.127 352.092L393.42 340.445H352.238Z" fill="#37474F"/>
<path d="M352.238 340.445L353.269 352.092H392.127L393.42 340.445H352.238Z" fill="#263238"/>
<path d="M349.166 346.719H396.488V337.276H349.166V346.719Z" fill="#37474F"/>
<path d="M184.654 301.823C184.654 285.11 187.401 270.093 192.896 256.771C198.391 243.45 209.725 231.845 226.897 221.957C232.056 218.886 238.413 215.404 245.969 211.511C253.744 207.454 261.155 202.744 268.121 197.431C275.243 192.081 281.424 185.597 286.415 178.242C291.447 170.745 294.055 161.901 293.89 152.891C294.041 146.33 292.636 139.825 289.79 133.901C287.165 128.614 283.484 123.912 278.971 120.082C274.337 116.245 268.974 113.371 263.201 111.632C257.282 109.776 251.114 108.828 244.907 108.822C237.874 108.726 230.891 110.019 224.364 112.624C218.359 115.082 212.726 118.355 207.626 122.349C202.655 126.259 198.157 130.728 194.221 135.667C190.598 140.156 187.245 144.854 184.18 149.737H176.421L139.34 119.027C143.629 108.701 149.639 99.1661 157.118 90.8245C164.431 82.6911 172.938 75.701 182.351 70.0903C191.927 64.4343 202.259 60.1511 213.04 57.3677C224.139 54.4552 235.573 52.9909 247.052 53.0119C260.141 53.0193 273.16 54.9158 285.7 58.642C298.205 62.2986 309.853 68.3918 319.964 76.5664C330.409 85.156 338.85 95.898 344.703 108.049C351.053 120.848 354.228 136.123 354.228 153.873C354.387 163.651 353.087 173.398 350.369 182.797C347.903 190.927 344.159 198.619 339.278 205.589C334.443 212.441 328.728 218.635 322.277 224.014C315.272 229.812 307.867 235.114 300.114 239.881C293.238 243.99 286.369 247.917 279.508 251.663C272.866 255.263 266.571 259.459 260.699 264.198C255.169 268.651 250.459 274.023 246.779 280.075C243.176 286.05 241.375 293.303 241.375 301.833L184.654 301.823ZM185.705 421.099V350.457H242.899V421.099H185.705Z" fill="#53C48A"/>
<g opacity="0.2">
<path opacity="0.2" d="M184.658 301.823C184.658 285.11 187.405 270.093 192.9 256.771C198.395 243.45 209.729 231.845 226.901 221.957C232.06 218.886 238.417 215.404 245.973 211.511C253.748 207.454 261.159 202.744 268.125 197.431C275.246 192.081 281.428 185.597 286.419 178.242C291.451 170.745 294.059 161.901 293.894 152.891C294.045 146.33 292.64 139.825 289.794 133.901C287.168 128.614 283.488 123.912 278.975 120.082C274.341 116.245 268.978 113.371 263.205 111.632C257.286 109.776 251.117 108.828 244.911 108.822C237.877 108.726 230.895 110.019 224.368 112.624C218.363 115.082 212.73 118.355 207.63 122.349C202.659 126.259 198.16 130.728 194.225 135.667C190.602 140.156 187.249 144.854 184.184 149.737H176.425L139.344 119.027C143.633 108.701 149.643 99.1661 157.122 90.8245C164.435 82.6911 172.942 75.701 182.355 70.0903C191.931 64.4343 202.262 60.1511 213.044 57.3677C224.143 54.4552 235.576 52.9909 247.056 53.0119C260.145 53.0193 273.164 54.9158 285.704 58.642C298.209 62.2986 309.857 68.3918 319.968 76.5664C330.413 85.156 338.854 95.898 344.707 108.049C351.057 120.848 354.232 136.123 354.232 153.873C354.391 163.651 353.091 173.398 350.373 182.797C347.907 190.927 344.163 198.619 339.282 205.589C334.447 212.441 328.732 218.635 322.281 224.014C315.276 229.812 307.87 235.114 300.118 239.881C293.242 243.99 286.373 247.917 279.512 251.663C272.87 255.263 266.574 259.459 260.703 264.198C255.173 268.651 250.463 274.023 246.783 280.075C243.18 286.05 241.379 293.303 241.379 301.833L184.658 301.823ZM185.709 421.099V350.457H242.903V421.099H185.709Z" fill="black"/>
</g>
<path d="M176.935 301.823C176.935 285.11 179.683 270.093 185.178 256.771C190.673 243.45 202.01 231.845 219.189 221.957C224.341 218.886 230.695 215.404 238.251 211.511C246.031 207.457 253.445 202.746 260.413 197.431C267.532 192.078 273.713 185.595 278.707 178.243C283.731 170.742 286.335 161.899 286.172 152.891C286.307 146.346 284.896 139.859 282.05 133.954C279.425 128.666 275.744 123.964 271.232 120.134C266.597 116.297 261.235 113.424 255.461 111.684C249.543 109.828 243.374 108.881 237.168 108.874C230.134 108.759 223.147 110.033 216.614 112.624C210.606 115.083 204.97 118.355 199.865 122.349C194.898 126.259 190.403 130.728 186.471 135.667C182.845 140.156 179.489 144.854 176.42 149.737L131.59 119.027C135.876 108.699 141.887 99.1642 149.368 90.8246C156.678 82.6882 165.186 75.6977 174.601 70.0903C184.174 64.4361 194.502 60.1529 205.28 57.3678C216.389 54.4516 227.833 52.9873 239.323 53.012C252.412 53.0186 265.431 54.9151 277.971 58.6421C290.477 62.2963 302.126 68.3898 312.235 76.5665C322.682 85.1537 331.124 95.8964 336.974 108.049C343.324 120.848 346.503 136.123 346.51 153.873C346.665 163.651 345.361 173.398 342.64 182.797C340.168 190.93 336.413 198.623 331.517 205.589C326.683 212.441 320.968 218.635 314.517 224.014C307.516 229.817 300.109 235.119 292.354 239.881C285.492 243.99 278.623 247.917 271.747 251.664C265.106 255.263 258.81 259.459 252.938 264.198C247.412 268.651 242.706 274.023 239.029 280.075C235.426 286.05 233.621 293.303 233.614 301.833L176.935 301.823ZM177.987 421.099V350.457H235.118V421.099H177.987Z" fill="url(#paint0_linear)"/>
<path d="M153.363 426.756C151.123 427.466 87.2741 426.651 84.8665 425.085C83.9413 424.5 83.5207 415.255 83.3315 404.058V403.713C83.3315 401.405 83.2579 399.023 83.2474 396.621C83.2474 396.287 83.2474 395.952 83.2474 395.628C83.1633 379.48 83.4156 362.715 83.4156 362.715L126.132 363.143L124.839 395.702L124.787 396.997L124.524 403.745V404.434C124.524 404.434 148.8 415.652 151.271 417.637C153.741 419.622 155.602 426.046 153.363 426.756Z" fill="#AD6359"/>
<path d="M153.365 426.756C151.126 427.467 87.2767 426.652 84.8691 425.085C83.9439 424.5 83.5233 415.256 83.3341 404.058V403.714C83.3341 401.405 83.2605 399.024 83.25 396.621C83.25 396.287 83.25 395.953 83.25 395.629L124.852 395.744L124.8 397.039L124.537 403.787V404.476C124.537 404.476 148.802 415.653 151.273 417.637C153.744 419.622 155.605 426.046 153.365 426.756Z" fill="#EBEBEB"/>
<path d="M153.365 426.756C151.987 427.195 127.249 427.049 107.883 426.506C95.7919 426.182 85.8039 425.68 84.8682 425.085C83.9325 424.49 83.533 415.517 83.3438 404.528C83.3438 404.372 83.3438 404.215 83.3438 404.058C83.3438 403.902 83.3438 403.818 83.3438 403.703L124.547 403.787V404.476C124.547 404.476 148.854 415.653 151.314 417.648C153.775 419.643 155.604 426.046 153.365 426.756Z" fill="#53C48A"/>
<path d="M152.682 424.283C141.916 423.886 98.4844 423.239 87.8131 423.688C87.729 423.688 87.729 423.75 87.8131 423.761C98.4739 424.387 141.906 424.649 152.672 424.461C152.903 424.461 152.903 424.293 152.682 424.283Z" fill="#263238"/>
<path d="M129.108 403.955C124.903 403.119 119.698 403.694 116.418 406.65C116.292 406.765 116.418 406.942 116.597 406.9C120.663 405.659 124.849 404.85 129.087 404.488C129.15 404.478 129.207 404.447 129.249 404.4C129.292 404.353 129.316 404.293 129.319 404.23C129.321 404.167 129.301 404.105 129.263 404.055C129.225 404.005 129.17 403.969 129.108 403.955Z" fill="#263238"/>
<path d="M132.146 405.821C127.941 404.985 122.737 405.56 119.457 408.516C119.33 408.631 119.457 408.808 119.635 408.767C123.687 407.527 127.86 406.718 132.083 406.354C132.148 406.351 132.21 406.326 132.258 406.282C132.306 406.238 132.336 406.178 132.344 406.114C132.351 406.05 132.336 405.985 132.299 405.931C132.263 405.878 132.209 405.839 132.146 405.821Z" fill="#263238"/>
<path d="M135.177 407.693C130.972 406.857 125.768 407.432 122.488 410.388C122.361 410.503 122.488 410.68 122.666 410.639C126.732 409.401 130.919 408.596 135.156 408.236C135.229 408.239 135.3 408.213 135.353 408.164C135.406 408.115 135.438 408.047 135.44 407.975C135.443 407.903 135.417 407.833 135.368 407.78C135.318 407.727 135.25 407.696 135.177 407.693Z" fill="#263238"/>
<path d="M134.743 394.846C133.103 392.548 129.991 393.54 128.204 394.992C125.182 397.542 122.89 400.839 121.559 404.55C121.552 404.565 121.549 404.583 121.551 404.6C121.552 404.617 121.558 404.633 121.567 404.648C121.576 404.662 121.589 404.674 121.604 404.683C121.619 404.691 121.636 404.696 121.654 404.696C121.654 405.02 121.948 405.364 122.316 405.229C125.828 403.986 129.739 403.139 132.767 400.821C134.533 399.494 136.289 397.029 134.743 394.846ZM127.247 402.262C125.533 402.92 123.798 403.484 122.116 404.194C123.42 402.335 124.629 400.434 126.122 398.7C126.83 397.861 127.588 397.066 128.393 396.319C129.676 395.201 134.701 392.84 133.881 397.447C133.439 399.985 129.297 401.489 127.247 402.262Z" fill="#263238"/>
<path d="M110.805 403.303C114.274 404.828 118.29 404.807 122.002 405.214C122.38 405.214 122.58 404.849 122.517 404.535C122.533 404.53 122.548 404.521 122.56 404.509C122.573 404.497 122.582 404.483 122.588 404.467C122.594 404.451 122.597 404.433 122.595 404.416C122.594 404.399 122.589 404.383 122.58 404.368C120.418 401.066 117.424 398.383 113.896 396.586C111.793 395.542 108.555 395.333 107.503 397.944C106.452 400.556 108.775 402.415 110.805 403.303ZM108.933 400.274C107.083 395.98 112.518 397.14 114.011 397.934C114.976 398.465 115.9 399.066 116.776 399.73C118.577 401.116 120.304 402.594 121.949 404.159C120.141 403.846 118.322 403.7 116.503 403.449C114.337 403.167 110.006 402.645 108.954 400.274H108.933Z" fill="#263238"/>
<path d="M107.902 426.505C95.8114 426.181 85.8235 425.679 84.8878 425.084C83.952 424.489 83.5525 415.516 83.3633 404.527C88.3047 408.925 100.627 419.84 107.902 426.505Z" fill="#263238"/>
<path d="M70.3054 179.983C70.3054 179.983 79.8939 287.175 81.4499 295.353C81.8178 297.223 82.0386 307.355 82.1858 320.37C82.5118 348.792 82.3225 400.038 82.3225 400.038H127.331C127.331 400.038 125.996 311.251 123.999 294.904C122.001 278.557 109.279 180.004 109.279 180.004L70.3054 179.983Z" fill="#37474F"/>
<path d="M125.293 392.243C118.27 392.097 120.288 392.045 113.265 391.971C109.827 391.971 87.2439 391.752 84.0267 392.274C84.0072 392.274 83.9885 392.282 83.9747 392.296C83.9609 392.31 83.9531 392.328 83.9531 392.348C83.9531 392.367 83.9609 392.386 83.9747 392.399C83.9885 392.413 84.0072 392.421 84.0267 392.421C87.2439 392.943 109.827 392.755 113.265 392.713C120.288 392.65 118.27 392.598 125.293 392.452C125.321 392.452 125.347 392.441 125.367 392.421C125.387 392.402 125.398 392.375 125.398 392.348C125.398 392.32 125.387 392.293 125.367 392.274C125.347 392.254 125.321 392.243 125.293 392.243Z" fill="#263238"/>
<path d="M90.8731 341.492C90.817 335.002 90.768 328.516 90.7259 322.032C90.7259 315.765 90.7259 309.498 90.3895 303.231C89.7797 290.519 87.2354 278.026 85.3429 265.46C83.4505 252.894 81.9575 240.276 80.5592 227.647C78.9927 213.483 77.6154 199.288 76.154 185.113C76.154 185.019 75.9858 185.019 75.9963 185.113C78.099 210.433 80.4856 235.743 84.0077 260.906C84.8909 267.173 85.8511 273.419 86.8884 279.645C87.9398 285.912 88.9912 292.263 89.4853 298.645C89.9795 305.027 90.0531 311.18 90.1161 317.447C90.1932 323.937 90.2598 330.42 90.3159 336.896C90.4526 351.29 90.5892 373.455 90.7364 387.849C90.7473 387.898 90.7746 387.942 90.8138 387.973C90.853 388.004 90.9017 388.021 90.952 388.021C91.0022 388.021 91.0509 388.004 91.0901 387.973C91.1293 387.942 91.1566 387.898 91.1675 387.849C91.0834 374.939 90.9677 354.33 90.8731 341.492Z" fill="#263238"/>
<path d="M60.8125 179.984C60.8125 179.984 79.8947 287.176 81.4508 295.354C81.8187 297.224 82.0395 307.356 82.1867 320.371L103.698 179.984H60.8125Z" fill="#263238"/>
<path d="M101.1 430.54C98.8187 431.094 35.1797 425.777 32.8877 424.053C32.0046 423.406 32.2464 414.151 32.8877 402.974C32.8877 402.86 32.8877 402.734 32.8877 402.619C33.0139 400.321 33.1506 397.95 33.3188 395.548L33.3819 394.503C34.4332 378.386 35.8946 361.684 35.8946 361.684L78.4643 365.172L74.8581 397.553L74.7215 398.838L73.9855 405.554L73.9119 406.244C73.9119 406.244 97.3468 419.102 99.6703 421.264C101.994 423.427 103.382 429.986 101.1 430.54Z" fill="#AD6359"/>
<path d="M101.1 430.533C98.8187 431.087 35.1797 425.77 32.8877 424.046C32.0046 423.399 32.2464 414.144 32.8877 402.967C32.8877 402.852 32.8877 402.727 32.8877 402.612C33.0139 400.314 33.1506 397.943 33.3188 395.541L33.3819 394.496L74.8581 397.536L74.7215 398.82L73.9855 405.537L73.9119 406.226C73.9119 406.226 97.3468 419.085 99.6703 421.247C101.994 423.409 103.382 429.979 101.1 430.533Z" fill="#EBEBEB"/>
<path d="M101.1 430.538C98.8187 431.091 35.1797 425.775 32.8877 424.051C32.0046 423.404 32.2464 414.149 32.8877 402.972C32.8877 402.857 32.8877 402.732 32.8877 402.617L73.9855 405.594L73.9119 406.284C73.9119 406.284 97.3468 419.142 99.6703 421.304C101.994 423.466 103.382 429.984 101.1 430.538Z" fill="#53C48A"/>
<path d="M100.543 428.023C89.8397 426.864 46.5551 423.208 35.8837 422.863C35.7996 422.863 35.7891 422.926 35.8837 422.936C46.4604 424.315 89.7766 427.626 100.532 428.159C100.795 428.211 100.816 428.086 100.543 428.023Z" fill="#263238"/>
<path d="M78.5249 406.085C74.3194 404.957 69.1572 405.166 65.6772 407.882C65.5405 407.987 65.6772 408.185 65.8349 408.154C69.9729 407.195 74.2026 406.68 78.4513 406.618C78.5171 406.618 78.5805 406.594 78.63 406.551C78.6795 406.508 78.7117 406.448 78.7206 406.384C78.7295 406.319 78.7147 406.253 78.6787 406.198C78.6428 406.143 78.5881 406.103 78.5249 406.085Z" fill="#263238"/>
<path d="M81.4292 408.164C77.2238 407.035 72.051 407.244 68.571 409.96C68.4449 410.065 68.571 410.263 68.7287 410.232C72.8669 409.273 77.0965 408.759 81.3451 408.696C81.4119 408.699 81.4772 408.677 81.5287 408.634C81.5802 408.592 81.6144 408.533 81.6248 408.467C81.6351 408.401 81.6209 408.334 81.5849 408.278C81.5489 408.223 81.4935 408.182 81.4292 408.164Z" fill="#263238"/>
<path d="M84.3235 410.242C80.118 409.114 74.9453 409.322 71.4653 412.038C71.3392 412.143 71.4653 412.341 71.6335 412.31C75.7714 411.35 80.0012 410.835 84.2499 410.774C84.3157 410.774 84.3792 410.75 84.4286 410.707C84.4781 410.664 84.5103 410.605 84.5192 410.54C84.5282 410.475 84.5133 410.409 84.4774 410.354C84.4414 410.3 84.3868 410.26 84.3235 410.242Z" fill="#263238"/>
<path d="M84.7752 397.401C83.3138 394.988 80.1387 395.751 78.2463 397.077C75.0308 399.401 72.4916 402.529 70.8867 406.144C70.8867 406.227 70.8867 406.28 70.9708 406.301C70.9611 406.382 70.9709 406.465 70.9993 406.542C71.0277 406.619 71.074 406.688 71.1344 406.744C71.1948 406.8 71.2677 406.841 71.347 406.864C71.4264 406.886 71.51 406.89 71.5911 406.875C75.1763 405.883 79.1504 405.266 82.3255 403.209C84.2601 401.966 86.1841 399.678 84.7752 397.401ZM76.7744 404.264C75.0186 404.796 73.2523 405.235 71.5175 405.83C72.8884 404.017 74.3517 402.273 75.9017 400.608C76.6635 399.816 77.4784 399.076 78.3409 398.393C79.6971 397.349 84.8698 395.354 83.7344 399.897C83.1351 402.425 78.8876 403.637 76.7954 404.264H76.7744Z" fill="#263238"/>
<path d="M60.3161 404.15C63.6699 405.915 67.6756 406.177 71.3449 406.835C71.7234 406.908 71.9547 406.521 71.9126 406.208C71.929 406.202 71.9439 406.193 71.9563 406.182C71.9687 406.17 71.9782 406.155 71.9843 406.139C71.9903 406.123 71.9927 406.106 71.9912 406.089C71.9897 406.072 71.9844 406.055 71.9757 406.041C70.0613 402.595 67.2651 399.712 63.8697 397.684C61.8721 396.525 58.6129 396.055 57.4038 398.583C56.1948 401.11 58.3606 403.116 60.3161 404.15ZM58.6655 401.016C57.12 396.598 62.4609 398.134 63.9223 399.032C64.8427 399.637 65.7209 400.304 66.5507 401.027C68.249 402.537 69.8668 404.134 71.3975 405.811C69.6102 405.372 67.8123 405.09 66.0145 404.766C63.8487 404.255 59.5381 403.44 58.6655 400.996V401.016Z" fill="#263238"/>
<path d="M75.8064 402.447L30.8396 400.556C30.8396 400.556 43.1195 302.515 43.3403 296.467C43.9291 280.799 54.3901 179.906 54.3901 179.906H109.313C109.313 179.906 105.844 203.21 99.9247 217.98C95.9404 219.365 92.0936 221.114 88.4333 223.203C88.4333 223.203 83.2816 289.939 83.0924 298.264C82.6718 314.747 75.8064 402.447 75.8064 402.447Z" fill="#37474F"/>
<path d="M74.6112 394.259C67.6091 393.82 69.6277 393.851 62.6046 393.486C59.1772 393.308 36.6149 392.17 33.3872 392.556C33.3136 392.556 33.3136 392.681 33.3872 392.702C36.5413 393.36 59.1561 394.123 62.5836 394.227C69.6067 394.457 67.5986 394.321 74.6217 394.468C74.6496 394.466 74.6758 394.454 74.6945 394.433C74.7132 394.413 74.723 394.386 74.7216 394.358C74.7202 394.33 74.7078 394.304 74.6871 394.286C74.6664 394.267 74.6391 394.257 74.6112 394.259Z" fill="#263238"/>
<path d="M58.417 185.924C56.3773 211.338 54.2851 236.762 51.9406 262.176C49.596 287.59 46.852 313.108 43.5297 338.48C41.6688 352.633 39.566 372.595 37.3477 386.717C37.3477 386.811 37.4738 386.853 37.4948 386.717C42.0262 361.648 45.359 330.479 48.1872 305.148C51.0154 279.818 53.3389 254.415 55.4101 229.012C56.5771 214.639 57.6285 200.255 58.7429 185.882C58.7534 185.747 58.4906 185.747 58.417 185.924Z" fill="#263238"/>
<path d="M101.878 217.001C97.2202 218.695 92.7206 220.793 88.4312 223.268C88.395 223.285 88.3668 223.315 88.353 223.352C88.3392 223.389 88.3409 223.43 88.3576 223.466C88.3743 223.502 88.4048 223.53 88.4422 223.544C88.4797 223.558 88.5211 223.556 88.5574 223.54C93.0887 221.607 97.7042 219.758 102.12 217.575C102.197 217.543 102.257 217.482 102.289 217.406C102.321 217.33 102.32 217.244 102.288 217.168C102.256 217.092 102.195 217.031 102.118 217C102.041 216.969 101.955 216.969 101.878 217.001Z" fill="#263238"/>
<path d="M103.314 186.114C103.314 185.957 103.03 185.926 103.03 186.114C103.03 191.452 102.725 196.152 102.273 201.155C102.063 203.474 100.17 216.28 96.1328 215.351C95.46 215.194 95.0815 214.526 95.0079 213.512C95.0155 212.186 95.1958 210.866 95.5441 209.585C95.9856 206.9 96.3536 204.216 96.5954 201.5C97.0652 196.456 97.0088 191.377 96.4272 186.344C96.419 186.315 96.4018 186.29 96.3781 186.273C96.3544 186.255 96.3255 186.245 96.2958 186.245C96.2661 186.245 96.2372 186.255 96.2135 186.273C96.1898 186.29 96.1725 186.315 96.1644 186.344C96.2841 193.328 95.8729 200.312 94.9343 207.235C94.4296 210.567 92.7369 215.591 96.2485 216.092C99.76 216.594 102.136 208.216 102.557 205.918C103.672 199.378 103.927 192.72 103.314 186.114Z" fill="#263238"/>
<path d="M96.2409 215.674C95.877 216.537 95.5749 217.423 95.3368 218.328C95.0713 219.025 94.9428 219.766 94.9583 220.511C94.9583 220.657 95.158 220.667 95.2316 220.573C95.6497 219.928 95.9686 219.223 96.1779 218.484C96.4828 217.659 96.8087 216.844 97.0925 216.009C97.1372 215.897 97.1351 215.771 97.0868 215.661C97.0385 215.55 96.9479 215.463 96.835 215.419C96.722 215.374 96.596 215.376 96.4846 215.424C96.3732 215.472 96.2856 215.562 96.2409 215.674Z" fill="#263238"/>
<path d="M77.9322 190.302C77.945 189.743 77.8885 189.185 77.764 188.641C77.7561 188.625 77.744 188.613 77.7292 188.604C77.7143 188.595 77.6973 188.59 77.6799 188.59C77.6625 188.59 77.6455 188.595 77.6306 188.604C77.6158 188.613 77.6038 188.625 77.5958 188.641C77.4847 189.114 77.4213 189.597 77.4065 190.082C77.4065 190.636 77.2804 191.127 77.2173 191.733C77.1005 192.863 76.9037 193.983 76.6285 195.086C76.1168 197.167 75.0489 199.072 73.5375 200.601C72.0303 202.074 70.2434 203.235 68.2807 204.016C66.1085 204.781 63.8934 205.419 61.6466 205.928C61.6243 205.928 61.6029 205.937 61.5871 205.952C61.5714 205.968 61.5625 205.989 61.5625 206.012C61.5625 206.034 61.5714 206.055 61.5871 206.071C61.6029 206.086 61.6243 206.095 61.6466 206.095C64.1343 206.09 66.5975 205.608 68.901 204.675C70.943 203.913 72.8018 202.736 74.3576 201.217C75.9108 199.648 77.0016 197.687 77.5117 195.545C77.7691 194.441 77.917 193.315 77.9533 192.182C77.983 191.555 77.976 190.927 77.9322 190.302Z" fill="#263238"/>
<path d="M131.684 88.1653C135.069 92.2286 138.749 103.207 138.612 106.205C138.475 109.202 119.877 116.013 117.248 114.383C114.62 112.754 104.275 98.2347 104.18 92.8553C104.085 87.4759 128.172 83.9662 131.684 88.1653Z" fill="#FFB27D"/>
<path d="M103.696 80.71C101.993 78.9447 96.4835 73.6697 94.0338 76.0513C92.4988 77.5346 96.1996 81.5978 97.7556 83.2064C100.962 86.5072 103.444 92.3462 104.6 95.1978C105.757 98.0494 111.171 92.4193 111.171 92.4193C111.171 92.4193 108.143 85.2955 103.696 80.71Z" fill="#FFB27D"/>
<path d="M108.219 98.3808C108.219 98.3808 110.122 103.457 113.224 103.342C116.325 103.227 115.537 98.8613 115.495 98.5479C115.589 98.8195 117.461 103.436 120.573 103.008C123.685 102.58 122.36 98.2868 122.266 98.0152C122.434 98.2346 124.831 101.149 127.112 100.282C131.045 98.7986 125.146 91.2048 125.714 87.8727C125.714 87.8727 131.518 88.1965 131.686 88.1651C131.686 88.1651 126.219 80.8533 121.645 80.3102C120.98 80.2186 120.303 80.3576 119.728 80.7038C119.154 81.0501 118.717 81.5824 118.491 82.2112C118.491 82.2112 116.988 79.6521 114.528 79.9132C113.266 80.049 112.362 82.1799 112.362 82.1799C111.993 81.6174 111.474 81.1675 110.864 80.8798C110.253 80.5922 109.575 80.4782 108.903 80.5504C107.168 80.8324 106.306 82.9842 106.211 83.8198C105.475 90.2125 108.219 98.3808 108.219 98.3808Z" fill="#FFB27D"/>
<path d="M106.411 83.2383C106.411 83.2383 106.337 83.2383 106.327 83.2383C105.379 88.4298 106.042 93.7851 108.23 98.5931C108.303 98.7393 108.577 98.6871 108.524 98.5095C107.081 93.5471 106.37 88.4034 106.411 83.2383Z" fill="#263238"/>
<path d="M112.35 82.1095C112.35 82.0468 112.255 82.0468 112.244 82.1095C111.264 87.8422 112.383 93.7341 115.398 98.7178C115.514 98.8953 115.787 98.9371 115.672 98.7178C113.748 95.2499 112.244 86.9457 112.35 82.1095Z" fill="#263238"/>
<path d="M122.62 98.2887C119.74 93.3794 118.72 88.0522 118.478 82.4221C118.478 82.349 118.373 82.3594 118.352 82.4221C117.721 85.211 118.257 88.7729 118.909 91.5201C119.467 94.0755 120.689 96.4414 122.452 98.3827C122.505 98.4663 122.62 98.3932 122.62 98.2887Z" fill="#263238"/>
<path d="M108.219 98.3818C108.676 99.3199 109.218 100.215 109.838 101.056C110.407 101.898 111.191 102.576 112.109 103.02C112.546 103.186 113.029 103.186 113.465 103.02C113.912 102.861 114.31 102.591 114.622 102.236C114.897 101.856 115.09 101.422 115.188 100.964C115.286 100.505 115.286 100.031 115.19 99.5726L114.801 97.3164L115.957 99.3011C116.463 100.188 117.109 100.989 117.871 101.672C118.203 102.008 118.604 102.269 119.047 102.438C119.489 102.607 119.963 102.681 120.436 102.654C120.877 102.628 121.295 102.451 121.621 102.154C121.946 101.858 122.159 101.459 122.223 101.025C122.345 100.048 122.219 99.0569 121.855 98.1416L120.919 95.5929L122.633 97.682C123.11 98.2653 123.657 98.788 124.263 99.2384C124.825 99.6802 125.504 99.9489 126.218 100.011C126.54 100.026 126.86 99.9517 127.142 99.7968C127.424 99.6419 127.658 99.4125 127.816 99.1339C128.064 98.4659 128.119 97.7422 127.974 97.0448C127.673 95.5035 127.251 93.9878 126.712 92.5115C126.46 91.7594 126.208 90.9969 125.998 90.224C125.74 89.4651 125.647 88.6605 125.724 87.8633C125.738 88.6527 125.902 89.4324 126.208 90.1613C126.481 90.9029 126.786 91.6341 127.091 92.3757C127.743 93.8532 128.254 95.3885 128.615 96.9613C128.832 97.8063 128.795 98.6957 128.51 99.5204C128.305 99.9529 127.976 100.316 127.565 100.565C127.154 100.814 126.678 100.937 126.197 100.92C125.309 100.87 124.456 100.557 123.748 100.022C123.063 99.535 122.445 98.9628 121.908 98.3192L122.686 97.8596C123.139 98.9307 123.302 100.101 123.159 101.254C123.063 101.896 122.743 102.484 122.255 102.915C121.768 103.317 121.171 103.565 120.541 103.625C119.94 103.662 119.338 103.57 118.775 103.356C118.213 103.141 117.704 102.809 117.282 102.382C116.436 101.629 115.725 100.739 115.179 99.7502L115.947 99.4786C116.045 100.051 116.017 100.638 115.864 101.199C115.712 101.76 115.439 102.282 115.063 102.727C114.658 103.147 114.151 103.456 113.591 103.625C113.021 103.8 112.406 103.756 111.867 103.5C110.9 102.975 110.102 102.189 109.565 101.233C109.009 100.337 108.557 99.3799 108.219 98.3818Z" fill="#263238"/>
<path d="M115.051 112.223C115.051 112.223 95.0016 102.039 102.855 96.2105C105.179 94.4765 116.838 90.1208 117.764 92.4292C118.962 95.4062 114.431 98.1324 111.319 99.3859C111.319 99.3859 118.626 101.903 118.384 107.471C118.323 108.491 117.98 109.475 117.392 110.314C116.803 111.152 115.994 111.813 115.051 112.223Z" fill="#FFB27D"/>
<path d="M102.234 96.727C103.062 95.9363 104.005 95.2743 105.031 94.7632C106.051 94.2233 107.104 93.7488 108.185 93.3426C110.332 92.5049 112.548 91.8548 114.809 91.3998C115.41 91.2746 116.026 91.2394 116.638 91.2953C117.008 91.318 117.368 91.4252 117.689 91.6087C117.856 91.7048 118.006 91.8285 118.131 91.9743C118.255 92.1195 118.351 92.2858 118.415 92.4652C118.657 93.1086 118.657 93.817 118.415 94.4603C118.193 95.0472 117.865 95.5888 117.448 96.0585C116.655 96.949 115.713 97.6949 114.661 98.2624C113.65 98.8374 112.596 99.3333 111.507 99.7457V99.0041C112.331 99.3236 113.123 99.7188 113.873 100.184C114.627 100.636 115.332 101.165 115.976 101.762C116.61 102.375 117.149 103.079 117.574 103.851C118.004 104.602 118.286 105.428 118.404 106.285C118.182 105.47 117.827 104.697 117.353 103.997C116.869 103.318 116.296 102.707 115.65 102.179C115.001 101.641 114.296 101.171 113.547 100.78C112.82 100.382 112.056 100.053 111.266 99.7979L110.288 99.495L111.234 99.0563C112.259 98.6151 113.253 98.1056 114.209 97.5313C115.154 96.9897 116.006 96.3021 116.733 95.4944C117.081 95.1598 117.337 94.7423 117.477 94.2816C117.617 93.8208 117.636 93.3322 117.532 92.8622C117.3 92.131 116.049 92.1623 114.987 92.319C113.926 92.4757 112.801 92.7577 111.697 93.0293C110.593 93.3009 109.51 93.6038 108.427 93.9485C106.23 94.5502 104.141 95.4876 102.234 96.727Z" fill="#263238"/>
<path d="M91.9721 126.637C109.698 148.374 135.467 162.454 141.828 157.869C148.189 153.283 126.751 129.279 126.383 128.924C125.132 127.733 115.649 122.834 98.4275 115.627C81.5321 108.556 84.0554 116.933 91.9721 126.637Z" fill="#FFB27D"/>
<path d="M118.417 124.119L105.064 141.563C105.064 141.563 93.8567 130.073 87.927 122.469C81.9973 114.864 82.5861 108.952 95.8543 113.861C103.621 116.718 111.163 120.147 118.417 124.119Z" fill="#53C48A"/>
<path d="M103.793 137.565C105.422 135.183 107.126 132.843 108.871 130.556C109.743 129.428 110.585 128.279 111.478 127.161C112.372 126.043 113.392 124.926 114.306 123.777C114.369 123.693 114.496 123.777 114.433 123.86C113.591 125.009 112.834 126.211 111.993 127.36C111.152 128.509 110.227 129.699 109.333 130.869C107.574 133.167 105.762 135.423 103.898 137.638C103.845 137.701 103.698 137.638 103.793 137.565Z" fill="#263238"/>
<path d="M111.458 133.185L105.066 141.541C105.066 141.541 93.858 130.051 87.9283 122.447L87.3606 121.705L87.1188 121.36L86.7508 120.828C86.4354 120.368 86.1515 119.919 85.8992 119.48C85.8046 119.324 85.7205 119.167 85.6363 119.01C85.1978 118.217 84.8454 117.381 84.585 116.514C84.5076 116.246 84.4479 115.974 84.4062 115.699C84.4062 115.563 84.4062 115.438 84.4062 115.312C90.2308 119.324 103.899 128.108 111.458 133.185Z" fill="#263238"/>
<path d="M111.989 190.686C111.989 190.686 51.1471 191.731 50.7896 191.355C49.8434 190.31 62.1338 128.066 74.8448 115.239C79.3341 110.705 88.5966 112.554 90.1421 113.296C93.7063 115.009 97.0601 118.707 99.8672 125.559C105.482 139.263 112.757 189.704 111.989 190.686Z" fill="#53C48A"/>
<path opacity="0.1" d="M93.1849 115.349H74.7545L74.8491 115.245C75.278 114.814 75.754 114.432 76.2685 114.106H91.5658C92.1385 114.477 92.68 114.892 93.1849 115.349ZM95.214 117.439H73.0197C72.7254 117.825 72.4415 118.243 72.1576 118.682H96.1813C95.8764 118.243 95.561 117.856 95.2876 117.439H95.214ZM97.506 120.771H70.8855C70.6542 121.178 70.4229 121.596 70.2021 122.024H98.2209C98.0001 121.596 97.7688 121.168 97.527 120.771H97.506ZM99.2197 124.113H69.1402L68.5409 125.356H99.7769C99.6087 124.928 99.43 124.51 99.2407 124.124L99.2197 124.113ZM100.555 127.445H67.6157L67.0795 128.688H100.986C100.849 128.302 100.713 127.842 100.544 127.445H100.555ZM101.606 130.777H66.2279C66.0702 131.195 65.902 131.603 65.7338 132.031H101.974L101.606 130.777ZM102.51 134.109H64.9558C64.8086 134.527 64.6509 134.935 64.5037 135.363H102.847C102.714 134.938 102.609 134.52 102.532 134.109H102.51ZM103.331 137.452H63.7467C63.5995 137.859 63.4629 138.277 63.3262 138.695H103.614L103.331 137.452ZM104.088 140.784H62.6954C62.5587 141.191 62.4325 141.609 62.2958 142.027H104.434C104.287 141.609 104.203 141.191 104.109 140.836L104.088 140.784ZM104.802 144.116H61.644C61.5073 144.524 61.3812 144.941 61.255 145.37H105.139C105.002 144.952 104.918 144.534 104.823 144.116H104.802ZM105.486 147.448H60.5926C60.4665 147.866 60.3403 148.284 60.2247 148.702H105.801L105.486 147.448ZM106.138 150.791H59.6043C59.4782 151.209 59.3625 151.616 59.2469 152.034H106.39C106.316 151.616 106.243 151.198 106.159 150.791H106.138ZM106.758 154.123H58.6686C58.553 154.541 58.4373 154.959 58.3322 155.366H107.01C106.937 154.948 106.853 154.541 106.779 154.123H106.758ZM107.357 157.455H57.775C57.6593 157.873 57.5542 158.291 57.4491 158.709H107.599C107.536 158.291 107.462 157.873 107.378 157.455H107.357ZM107.957 160.798H56.9023C56.8077 161.215 56.7026 161.623 56.5974 162.041H108.177C108.114 161.633 108.041 161.215 107.978 160.798H107.957ZM108.503 164.13H56.0718C55.9771 164.548 55.872 164.965 55.7774 165.373H108.735C108.671 164.965 108.598 164.548 108.524 164.13H108.503ZM109.05 167.462H55.2727C55.1781 167.89 55.0835 168.308 54.9784 168.715H109.271C109.208 168.297 109.145 167.89 109.071 167.462H109.05ZM109.586 170.794H54.5052C54.4106 171.212 54.316 171.64 54.2214 172.047H109.786C109.723 171.64 109.66 171.222 109.607 170.794H109.586ZM110.08 174.136H53.7588C53.6747 174.554 53.58 174.972 53.4959 175.379H110.27L110.08 174.136ZM110.564 177.469H53.0438C52.9597 177.897 52.8756 178.304 52.7915 178.712H110.764C110.701 178.304 110.648 177.886 110.585 177.469H110.564ZM111.027 180.801H52.3815C52.2834 181.232 52.1992 181.65 52.1292 182.054H111.216C111.163 181.647 111.058 181.229 111.058 180.801H111.027ZM111.447 184.133H51.7402C51.656 184.571 51.5824 184.989 51.5089 185.386H111.626C111.584 184.989 111.531 184.571 111.468 184.133H111.447ZM111.836 187.475H51.1304C51.0568 187.924 51.0042 188.342 50.9411 188.718H111.92C111.941 188.353 111.899 187.935 111.857 187.475H111.836ZM50.7308 190.807C50.6841 190.989 50.6841 191.179 50.7308 191.361C51.0147 191.643 88.7481 191.069 104.823 190.807H50.7308Z" fill="#030402"/>
<path d="M78.3177 122.781C74.2174 128.369 53.1901 151.464 52.4121 153.606C51.6341 155.747 56.5019 160.479 56.4178 161.367C56.1024 164.981 48.2487 189.026 45.1052 186.582C40.9628 183.365 23.4261 160.322 25.9073 150.347C28.3885 140.371 69.3391 116.42 75.8365 114.341C82.3339 112.263 82.3655 117.266 78.3177 122.781Z" fill="#FFB27D"/>
<path d="M61.799 143.813L49.8555 127.152C49.8555 127.152 63.2183 118.441 72.1549 114.722C81.0915 111.004 85.4967 113.072 77.3276 124.551C72.5523 131.281 67.3663 137.714 61.799 143.813Z" fill="#53C48A"/>
<path d="M53.3876 126.057C55.2801 128.237 57.12 130.465 58.9073 132.742C59.7904 133.86 60.6841 134.967 61.5357 136.106C62.3873 137.244 63.2284 138.519 64.122 139.689C64.1851 139.772 64.059 139.877 63.9959 139.793C63.0917 138.749 62.1244 137.704 61.2203 136.555C60.3161 135.406 59.3909 134.257 58.4867 133.108C56.6994 130.831 54.9647 128.502 53.293 126.141C53.2299 126.078 53.3351 125.995 53.3876 126.057Z" fill="#263238"/>
<path d="M61.78 143.894C63.6093 141.481 65.7646 139.329 67.7412 137.042C69.7178 134.754 71.6838 132.393 73.5658 130.012C73.5658 130.012 73.7024 130.012 73.6604 130.074C72.7877 131.317 71.9361 132.571 71.0215 133.783C70.5694 134.378 70.0963 134.963 69.6126 135.548L70.317 134.973C71.0377 134.435 71.7851 133.933 72.5564 133.469C72.5564 133.469 72.6406 133.469 72.5564 133.532C71.8874 134.147 71.1854 134.726 70.4537 135.266C69.928 135.663 69.4024 136.028 68.8451 136.394L68.004 137.438C66.1689 139.792 64.1245 141.977 61.8956 143.967C61.8325 144.061 61.7169 143.967 61.78 143.894Z" fill="#263238"/>
<path d="M55.3837 195.714C58.1908 193.824 54.3323 191.609 54.3323 191.609C54.3323 191.609 60.6405 193.469 62.7432 190.408C64.8459 187.348 60.0517 184.945 59.7153 184.757C60.0517 184.862 65.8973 186.408 67.7267 183.117C69.556 179.827 64.4254 177.989 64.089 177.894C64.4359 177.894 68.9883 177.696 69.8084 174.876C71.2067 170.04 58.1277 169.475 55.3101 166.519C55.3101 166.519 56.5717 160.127 56.6768 159.949C55.8309 161.384 54.5181 162.489 52.955 163.083C50.1269 163.877 47.5826 164.336 46.4366 165.684C45.9019 166.273 45.5723 167.018 45.4966 167.808C45.4209 168.598 45.603 169.392 46.016 170.071C46.016 170.071 42.4414 169.663 40.9169 172.212C40.1389 173.518 41.5582 175.931 41.5582 175.931C40.7493 175.873 39.9401 176.038 39.2188 176.406C38.4976 176.775 37.8921 177.333 37.4684 178.02C36.4907 179.9 38.0677 182.02 38.0677 182.02C38.0677 182.02 35.208 183.065 34.84 185.321C34.1356 189.844 49.3699 199.746 55.3837 195.714Z" fill="#FFB27D"/>
<path d="M38.325 182.402C38.325 182.402 38.2093 182.402 38.2514 182.475C42.6094 187.14 48.2935 190.375 54.5475 191.751C54.7473 191.751 54.8945 191.479 54.6842 191.396C48.8214 189.201 43.3107 186.172 38.325 182.402Z" fill="#263238"/>
<path d="M41.5195 175.886C41.5126 175.88 41.5047 175.876 41.4962 175.874C41.4877 175.871 41.4788 175.871 41.47 175.872C41.4613 175.872 41.4527 175.875 41.445 175.879C41.4373 175.884 41.4304 175.889 41.4249 175.896C41.4194 175.903 41.4153 175.911 41.4128 175.919C41.4104 175.928 41.4096 175.937 41.4106 175.945C41.4115 175.954 41.4142 175.963 41.4185 175.97C41.4228 175.978 41.4285 175.985 41.4354 175.99C46.2938 181.08 52.8228 184.277 59.8448 185.005C60.0866 185.005 60.3284 184.796 60.0446 184.754C55.3344 184.044 46.1455 179.479 41.5195 175.886Z" fill="#263238"/>
<path d="M64.6569 177.737C57.802 176.964 51.8828 174.081 46.237 170.258C46.1634 170.258 46.1004 170.31 46.1424 170.373C48.3923 172.995 52.2508 175.063 55.3944 176.421C58.2811 177.734 61.4643 178.27 64.6254 177.977C64.7936 177.967 64.7936 177.758 64.6569 177.737Z" fill="#263238"/>
<path d="M37.9334 182.023C37.3624 181.451 36.9618 180.734 36.7762 179.951C36.5906 179.167 36.6273 178.347 36.8821 177.583C37.2114 176.864 37.7896 176.286 38.5117 175.954C39.3723 175.658 40.2926 175.576 41.1926 175.713C40.6908 175.011 40.4151 174.173 40.402 173.312C40.3889 172.45 40.6389 171.605 41.1191 170.888C41.6575 170.274 42.4076 169.883 43.2218 169.791C44.151 169.701 45.0881 169.736 46.0079 169.895C45.6247 169.447 45.3521 168.916 45.2115 168.345C45.071 167.774 45.0665 167.178 45.1983 166.605C45.3724 165.983 45.6915 165.409 46.1298 164.932C46.5682 164.455 47.1135 164.087 47.7216 163.858C49.1522 163.343 50.6372 162.993 52.1479 162.813C52.9233 162.698 53.6821 162.491 54.4083 162.197C55.1908 161.841 55.8468 161.259 56.2902 160.526C56.3743 160.4 56.3743 160.526 56.2902 160.641C55.9958 161.139 55.619 161.583 55.1758 161.957C54.7155 162.355 54.2026 162.689 53.6513 162.949C52.2827 163.462 50.8769 163.871 49.4458 164.171C48.1914 164.503 47.0826 165.238 46.2918 166.26C45.9303 166.802 45.7272 167.432 45.7049 168.081C45.6826 168.73 45.8421 169.373 46.1656 169.937C46.1656 169.937 46.1656 170.073 46.071 170.063C45.2315 170.059 44.3947 170.157 43.5792 170.355C42.9028 170.516 42.2931 170.88 41.834 171.4C41.4086 172.061 41.1653 172.823 41.1285 173.607C41.0916 174.391 41.2623 175.172 41.6237 175.87C40.717 175.931 39.8294 176.157 39.0058 176.539C38.4711 176.865 38.0409 177.336 37.7652 177.897C37.4503 178.542 37.3219 179.262 37.3943 179.975C37.4667 180.689 37.737 181.369 38.1752 181.939C38.1793 181.956 38.1793 181.974 38.1752 181.991C38.1752 181.991 37.2605 182.367 37.2185 182.367C37.1764 182.367 37.2185 182.367 37.2185 182.367C37.4494 182.238 37.6882 182.123 37.9334 182.023Z" fill="#263238"/>
<path d="M90.1223 122.564C86.779 123.786 80.2395 119.263 77.3903 115.314C77.2011 115.043 77.0118 103.292 76.7385 100.973C76.6754 100.492 91.8466 102.769 91.8466 102.769C91.3616 105.774 91.2486 108.826 91.5101 111.857C91.5522 112.191 93.35 121.394 90.1223 122.564Z" fill="#FFB27D"/>
<path d="M91.8466 102.767C91.8466 102.767 91.6784 103.738 91.5417 105.18C87.3362 110.309 80.5865 110.852 77.159 110.737C77.0434 107.091 76.9067 102.381 76.7385 100.97C76.6754 100.5 91.8466 102.767 91.8466 102.767Z" fill="#263238"/>
<path d="M76.805 75.9336C76.805 75.9336 71.9687 77.7929 70.9804 82.5978C69.9921 87.4027 70.9804 92.5001 71.3799 92.7612C71.7795 93.0224 76.805 75.9336 76.805 75.9336Z" fill="#263238"/>
<path d="M96.3376 82.1387C97.5782 87.4345 93.8143 102.257 89.8612 105.348C84.1418 109.84 75.2683 109.715 71.5464 102.998C67.9508 96.4907 73.2076 77.2711 77.5708 74.503C83.9841 70.4398 94.4767 74.3046 96.3376 82.1387Z" fill="#FFB27D"/>
<path d="M81.3349 90.4609C81.3349 90.4609 81.4085 90.5236 81.3979 90.5654C81.1877 91.6099 81.1141 92.7903 81.9972 93.2917C81.9972 93.2917 81.9972 93.3543 81.9972 93.3439C80.8617 92.9887 80.9669 91.3906 81.3349 90.4609Z" fill="#263238"/>
<path d="M82.4368 89.547C84.1295 89.7037 83.6774 93.0462 82.1214 92.9C80.5654 92.7537 81.028 89.4112 82.4368 89.547Z" fill="#263238"/>
<path d="M75.4682 89.4287C75.4682 89.4287 75.3841 89.4287 75.3736 89.5123C75.279 90.5568 74.9951 91.7163 74.0068 91.9461V92.0087C75.1844 91.9878 75.5418 90.421 75.4682 89.4287Z" fill="#263238"/>
<path d="M74.68 88.2306C73.0188 87.8964 72.4616 91.218 74.0071 91.5314C75.5526 91.8448 76.0678 88.5127 74.68 88.2306Z" fill="#263238"/>
<path d="M76.2356 94.3379C76.2356 94.3379 75.794 95.842 75.6888 96.5732C77.1182 96.7808 78.5098 97.1924 79.8207 97.7953C80.1256 97.9415 80.1677 97.6804 79.8207 97.4088C78.8425 96.6194 77.6487 96.1391 76.3933 96.03C76.3933 95.8211 77.1187 93.7216 77.003 93.6902C76.4352 93.6578 75.8656 93.7035 75.3104 93.826C76.1304 90.6924 77.4131 87.6423 78.2331 84.4251C78.2331 84.3102 78.0965 84.2475 78.0439 84.3416C76.5269 87.5317 75.3296 90.8625 74.4693 94.2856C74.3326 94.7452 75.9201 94.4214 76.2356 94.3379Z" fill="#263238"/>
<path d="M83.7182 88.4034C83.3186 88.1528 83.0032 87.8498 82.6668 87.5678C82.3304 87.2858 81.8888 87.0246 81.7311 86.5233C81.6974 86.3723 81.7165 86.2145 81.7853 86.0759C81.8541 85.9372 81.9685 85.826 82.1096 85.7607C82.4053 85.6646 82.7218 85.6497 83.0253 85.7178C83.3289 85.7858 83.6083 85.9342 83.8338 86.1472C84.3648 86.5015 84.7406 87.0428 84.8852 87.6618C84.9129 87.8073 84.8961 87.9576 84.8371 88.0936C84.7781 88.2295 84.6795 88.3447 84.5539 88.4245C84.4284 88.5043 84.2818 88.5449 84.1328 88.5411C83.9839 88.5374 83.8394 88.4894 83.7182 88.4034Z" fill="#263238"/>
<path d="M73.9438 84.5532C74.4064 84.4801 74.8269 84.3548 75.279 84.2399C75.766 84.1985 76.225 83.9962 76.5827 83.6654C76.6765 83.542 76.7273 83.3917 76.7273 83.2371C76.7273 83.0825 76.6765 82.9322 76.5827 82.8088C76.3522 82.6004 76.0701 82.4567 75.7652 82.3925C75.4603 82.3282 75.1438 82.3457 74.848 82.4432C74.2161 82.5483 73.6464 82.8834 73.2499 83.3833C73.1699 83.5011 73.1251 83.639 73.1207 83.7811C73.1163 83.9231 73.1526 84.0635 73.2252 84.1859C73.2978 84.3083 73.4038 84.4078 73.531 84.4728C73.6582 84.5378 73.8013 84.5657 73.9438 84.5532Z" fill="#263238"/>
<path d="M93.8555 94.7986C90.7645 94.4957 92.4467 80.948 92.4467 80.948C90.5387 81.5937 88.5426 81.9459 86.5275 81.9925C84.4916 81.9214 82.4704 81.62 80.5032 81.0942C80.0826 80.9375 85.6654 79.3707 85.6654 79.3707C85.6654 79.3707 71.9346 80.5615 71.472 77.9919C71.3038 77.1041 73.8586 69.0193 85.2554 69.5311C93.6663 69.9071 97.5878 78.6395 97.5878 78.6395C97.5878 78.6395 101.678 83.1624 100.973 85.2097C99.7747 88.803 97.1358 95.1225 93.8555 94.7986Z" fill="#263238"/>
<path d="M91.9884 94.874C91.9884 94.874 95.8259 90.3198 97.9391 91.7404C100.052 93.161 96.8877 99.9401 94.1752 100.682C93.8373 100.798 93.4791 100.846 93.1222 100.822C92.7653 100.798 92.4169 100.703 92.0979 100.542C91.7788 100.381 91.4958 100.158 91.2656 99.8857C91.0355 99.6135 90.8629 99.2981 90.7583 98.9582L91.9884 94.874Z" fill="#FFB27D"/>
<path d="M143.197 157.084C151.734 150.535 143.576 117.287 138.613 105.045C137.152 101.441 113.969 108.179 115.052 112.221C121.245 135.086 133.851 164.26 143.197 157.084Z" fill="#FFB27D"/>
<path d="M118.886 124.766L121.441 131.033C122.314 133.122 123.166 135.211 124.112 137.3C125.058 139.389 125.973 141.405 126.94 143.442C127.907 145.479 128.98 147.474 130.031 149.48C128.701 147.639 127.489 145.717 126.404 143.724C125.352 141.729 124.301 139.682 123.386 137.614C122.472 135.545 121.631 133.435 120.874 131.284C120.117 129.132 119.465 126.97 118.886 124.766Z" fill="#263238"/>
<path d="M117.364 58.6773C117.466 59.852 117.215 61.0303 116.642 62.0632C116.07 63.0961 115.202 63.9373 114.149 64.4806C113.096 65.0238 111.904 65.2447 110.725 65.1154C109.545 64.986 108.43 64.5122 107.522 63.7538C106.613 62.9954 105.951 61.9864 105.619 60.8544C105.287 59.7223 105.301 58.518 105.658 57.3935C106.015 56.269 106.699 55.2748 107.624 54.5366C108.55 53.7983 109.674 53.3491 110.857 53.2456C111.643 53.1768 112.435 53.2628 113.188 53.4987C113.941 53.7346 114.64 54.1157 115.245 54.6202C115.849 55.1248 116.348 55.7428 116.711 56.439C117.075 57.1351 117.297 57.8958 117.364 58.6773Z" fill="white"/>
<path d="M117.364 58.6769C117.494 60.2763 117.002 61.8643 115.988 63.1138C114.975 64.3634 113.518 65.1792 111.918 65.3933C111.046 65.5671 110.147 65.5559 109.28 65.3604C108.413 65.1649 107.598 64.7896 106.887 64.259C106.176 63.7285 105.586 63.0547 105.156 62.2818C104.726 61.5089 104.465 60.6544 104.39 59.7742C104.316 58.8941 104.429 58.0083 104.724 57.1748C105.018 56.3414 105.486 55.5791 106.097 54.9379C106.709 54.2968 107.45 53.7913 108.271 53.4546C109.093 53.1179 109.978 52.9576 110.866 52.9841C112.476 52.9295 114.046 53.4887 115.254 54.5472C116.462 55.6057 117.217 57.0832 117.364 58.6769ZM117.364 58.6769C117.296 57.9085 117.073 57.1616 116.708 56.4812C116.342 55.8008 115.842 55.2009 115.237 54.7178C114.631 54.2347 113.934 53.8783 113.187 53.6701C112.439 53.4619 111.657 53.4062 110.887 53.5064C109.416 53.6943 108.074 54.44 107.143 55.5877C106.212 56.7353 105.763 58.1962 105.89 59.6648C106.018 61.1335 106.712 62.4963 107.827 63.4685C108.943 64.4407 110.393 64.9469 111.875 64.8815C112.652 64.8491 113.413 64.6608 114.114 64.3279C114.815 63.995 115.441 63.5244 115.954 62.9445C116.467 62.3647 116.856 61.6876 117.099 60.9541C117.341 60.2206 117.431 59.4459 117.364 58.6769Z" fill="#263238"/>
<path d="M104.304 69.672C104.36 70.3265 104.219 70.9828 103.9 71.5578C103.58 72.1328 103.096 72.6008 102.509 72.9026C101.922 73.2044 101.258 73.3265 100.601 73.2534C99.944 73.1803 99.3235 72.9154 98.818 72.492C98.3126 72.0687 97.9448 71.5059 97.7612 70.8749C97.5776 70.2439 97.5864 69.573 97.7865 68.947C97.9866 68.321 98.369 67.768 98.8854 67.3579C99.4018 66.9477 100.029 66.6989 100.688 66.6429C101.126 66.6042 101.567 66.652 101.986 66.7836C102.406 66.9152 102.795 67.1279 103.131 67.4095C103.467 67.691 103.744 68.0359 103.945 68.4242C104.147 68.8125 104.269 69.2366 104.304 69.672Z" fill="white"/>
<path d="M104.307 69.6692C104.366 70.3861 104.206 71.104 103.849 71.7295C103.492 72.3551 102.953 72.8593 102.304 73.1767C101.654 73.494 100.923 73.6097 100.207 73.5088C99.4898 73.4079 98.8202 73.095 98.2849 72.6108C97.7496 72.1266 97.3734 71.4935 97.2052 70.794C97.0369 70.0945 97.0845 69.3608 97.3417 68.6885C97.5989 68.0162 98.0539 67.4364 98.6473 67.0245C99.2407 66.6126 99.9452 66.3876 100.669 66.3789C101.58 66.3753 102.459 66.7113 103.133 67.3205C103.806 67.9298 104.225 68.7679 104.307 69.6692ZM104.307 69.6692C104.272 69.2454 104.149 68.8335 103.945 68.4596C103.741 68.0857 103.461 67.7581 103.123 67.4977C102.785 67.2372 102.396 67.0497 101.98 66.947C101.565 66.8443 101.133 66.8287 100.711 66.9012C100.119 67.0007 99.5691 67.2694 99.1282 67.6744C98.6874 68.0795 98.3749 68.6033 98.2288 69.1819C98.0827 69.7605 98.1093 70.3689 98.3055 70.9326C98.5018 71.4964 98.859 71.9912 99.3336 72.3566C99.8082 72.722 100.38 72.9421 100.978 72.9901C101.577 73.0381 102.176 72.9119 102.704 72.6269C103.231 72.3418 103.664 71.9103 103.948 71.3851C104.233 70.8599 104.358 70.2636 104.307 69.6692Z" fill="#263238"/>
<path d="M162.216 30.9281C162.774 35.5137 161.478 40.1319 158.611 43.7688C155.745 47.4056 151.544 49.7637 146.929 50.3253C143.892 50.701 140.809 50.2721 137.992 49.0823C136.618 50.8689 134.848 52.3168 132.82 53.3133C130.791 54.3099 128.559 54.8283 126.296 54.8283C124.033 54.8283 121.8 54.3099 119.772 53.3133C117.743 52.3168 115.973 50.8689 114.599 49.0823C113.953 49.2721 113.292 49.4083 112.623 49.4897C110.334 49.7674 108.012 49.3794 105.94 48.3728C103.869 47.3663 102.135 45.7843 100.95 43.8186C99.7649 41.8529 99.1791 39.5879 99.2635 37.298C99.348 35.0082 100.099 32.7919 101.426 30.9177C98.8423 27.6519 97.518 23.5766 97.6919 19.4264C97.8658 15.2762 99.5264 11.3243 102.374 8.2832C105.222 5.24209 109.07 3.31187 113.224 2.84057C117.378 2.36927 121.564 3.3879 125.029 5.7128C126.654 3.70529 128.784 2.15992 131.203 1.23308C133.623 0.306252 136.246 0.0308558 138.807 0.434768C141.368 0.838681 143.776 1.90757 145.787 3.53324C147.799 5.15892 149.342 7.28369 150.262 9.69251C150.876 9.48726 151.51 9.34721 152.154 9.2747C154.098 9.0432 156.067 9.40592 157.798 10.3145C159.53 11.2231 160.941 12.6343 161.844 14.3601C162.748 16.086 163.1 18.0444 162.855 19.9743C162.609 21.9042 161.778 23.7139 160.47 25.1622C161.39 26.967 161.98 28.919 162.216 30.9281Z" fill="white"/>
<path d="M162.219 30.9313C162.766 35.5153 161.487 40.1299 158.655 43.7896C157.706 44.9817 156.611 46.0519 155.396 46.9755C152.935 48.826 150.031 50.0072 146.97 50.4029C143.91 50.7985 140.799 50.3949 137.943 49.2317H138.111C136.73 51.0525 134.943 52.5315 132.892 53.5534C130.84 54.5753 128.578 55.1125 126.283 55.123C123.978 55.1311 121.701 54.6129 119.628 53.6084C117.557 52.5863 115.743 51.1157 114.319 49.3048L114.697 49.4302C112.251 50.1641 109.636 50.1276 107.212 49.3257C104.776 48.5271 102.654 46.9889 101.145 44.9282C100.407 43.8923 99.8226 42.7559 99.4106 41.5543C99.0166 40.3457 98.8075 39.0851 98.7903 37.8148C98.7674 35.2545 99.5463 32.7504 101.019 30.6493V31.2342C98.33 27.8893 96.9585 23.6862 97.1607 19.41C97.2747 16.2246 98.2496 13.1285 99.9831 10.4465C101.717 7.76446 104.145 5.59544 107.013 4.16701C109.881 2.73859 113.083 2.10343 116.283 2.32819C119.483 2.55295 122.563 3.62933 125.201 5.44439L124.738 5.50706C126.408 3.46514 128.591 1.89863 131.068 0.966653C133.544 0.0346758 136.224 -0.229566 138.837 0.200772C141.433 0.628792 143.87 1.73024 145.901 3.39378C147.931 5.05732 149.484 7.22399 150.402 9.6748L150.265 9.60168C152.32 8.93787 154.537 8.96725 156.573 9.68524C158.07 10.2171 159.412 11.1076 160.479 12.2779C161.547 13.4483 162.307 14.8622 162.693 16.3943C163.079 17.9264 163.078 19.5295 162.691 21.0613C162.304 22.5931 161.542 24.0064 160.474 25.1758C161.394 26.9766 161.985 28.9253 162.219 30.9313ZM162.219 30.9313C161.971 28.9228 161.366 26.9741 160.432 25.1758C161.861 23.6175 162.726 21.6307 162.892 19.5292C163.057 17.4277 162.514 15.3312 161.346 13.5709C160.192 11.8155 158.484 10.4906 156.489 9.80434C154.495 9.11805 152.328 9.10923 150.328 9.77925H150.223V9.6748C149.29 7.30329 147.75 5.21496 145.755 3.61644C143.759 2.02069 141.371 0.982288 138.837 0.608144C136.314 0.233866 133.737 0.521959 131.362 1.44378C129 2.37513 126.929 3.91029 125.358 5.89354L125.158 6.14424L124.885 5.95622C121.501 3.71536 117.424 2.74411 113.385 3.2163C109.346 3.68848 105.608 5.57328 102.84 8.53338C100.072 11.4935 98.454 15.3357 98.2765 19.3724C98.0989 23.4092 99.373 27.377 101.871 30.5657L102.102 30.8582L101.881 31.1611C100.508 33.0875 99.7727 35.3914 99.7786 37.7522C99.7953 38.9253 99.983 40.0899 100.336 41.2096C100.704 42.3271 101.24 43.3833 101.923 44.3432C103.315 46.2764 105.275 47.7334 107.535 48.5135C109.794 49.2936 112.242 49.3584 114.54 48.699L114.782 48.6363L114.918 48.8243C116.256 50.5746 117.974 52.0027 119.944 53.0025C122.943 54.512 126.378 54.9374 129.658 54.2055C132.939 53.4736 135.86 51.6301 137.922 48.9915L137.996 48.8975H138.101C140.902 50.1015 143.974 50.5483 147.006 50.1927C150.055 49.8204 152.954 48.6647 155.417 46.8397C156.63 45.9337 157.725 44.881 158.676 43.7061C159.61 42.5041 160.39 41.1919 160.999 39.7995C162.167 36.9967 162.587 33.9424 162.219 30.9313Z" fill="#263238"/>
<path d="M132.242 31.4785C132.22 30.2073 132.448 28.944 132.914 27.76C133.5 26.5174 134.489 25.5059 135.722 24.8875C136.153 24.6263 136.668 24.3443 137.299 24.0205C137.937 23.6864 138.546 23.2985 139.117 22.861C139.705 22.4168 140.217 21.8806 140.631 21.2733C141.046 20.6555 141.263 19.927 141.252 19.1842C141.263 18.6421 141.144 18.1051 140.905 17.6174C140.689 17.1808 140.385 16.7932 140.011 16.4789C139.632 16.1644 139.192 15.9299 138.718 15.7895C138.232 15.6327 137.725 15.5517 137.215 15.5492C136.63 15.5384 136.05 15.6487 135.511 15.873C135.018 16.0747 134.555 16.3418 134.134 16.6669C133.741 16.9936 133.388 17.3652 133.083 17.7741C132.781 18.1425 132.504 18.5298 132.252 18.9336L128.551 16.3953C128.91 15.5471 129.407 14.7636 130.023 14.0764C130.616 13.3988 131.311 12.8173 132.084 12.3529C132.873 11.891 133.722 11.5395 134.607 11.3084C135.523 11.0684 136.467 10.949 137.414 10.9532C138.482 10.9587 139.544 11.1134 140.568 11.4128C141.6 11.7186 142.561 12.2225 143.397 12.8961C144.257 13.6024 144.953 14.4863 145.436 15.4866C145.981 16.6721 146.247 17.9651 146.214 19.2678C146.227 20.0727 146.121 20.8751 145.899 21.6494C145.697 22.3207 145.388 22.9556 144.984 23.5296C144.586 24.0956 144.116 24.6082 143.586 25.0546C143.009 25.5343 142.398 25.9707 141.756 26.3603L140.053 27.3317C139.508 27.6333 138.99 27.9829 138.508 28.3762C138.042 28.7372 137.646 29.1797 137.341 29.6819C137.024 30.2272 136.868 30.8495 136.889 31.4785H132.242ZM132.326 41.3182V35.4896H137.036V41.3182H132.326Z" fill="#53C48A"/>
<path d="M121.718 20.5717C122.009 21.8087 122.045 23.0915 121.823 24.3425C121.523 25.6727 120.783 26.8644 119.72 27.7269C119.352 28.0611 118.9 28.4476 118.353 28.8968C117.797 29.3548 117.28 29.8579 116.808 30.4009C116.326 30.9543 115.939 31.5824 115.662 32.2602C115.384 32.9504 115.325 33.7085 115.494 34.4328C115.589 34.9622 115.813 35.4606 116.146 35.8848C116.447 36.2717 116.827 36.5919 117.26 36.8248C117.696 37.0571 118.176 37.1993 118.669 37.2427C119.178 37.2887 119.692 37.2605 120.193 37.1591C120.765 37.0501 121.309 36.8262 121.791 36.501C122.231 36.2055 122.631 35.8543 122.979 35.4565C123.316 35.0575 123.602 34.619 123.831 34.1508C124.046 33.7271 124.236 33.2911 124.399 32.8451L128.541 34.5791C128.372 35.4834 128.048 36.3524 127.584 37.1487C127.135 37.9265 126.567 38.6311 125.902 39.2377C125.227 39.8533 124.47 40.3736 123.652 40.7837C122.807 41.2059 121.909 41.515 120.982 41.7029C119.925 41.9261 118.841 41.993 117.765 41.9013C116.693 41.8215 115.648 41.5266 114.695 41.0344C113.711 40.5242 112.847 39.8121 112.161 38.9453C110.919 37.2176 110.308 35.1213 110.426 33.0018C110.484 32.3073 110.655 31.6266 110.931 30.9858C111.201 30.3504 111.554 29.7533 111.982 29.2101C112.446 28.6208 112.952 28.0658 113.496 27.5493C113.98 27.1106 114.474 26.6719 114.957 26.2541C115.425 25.8397 115.851 25.3814 116.23 24.8857C116.599 24.4334 116.887 23.921 117.081 23.3711C117.273 22.7723 117.295 22.1326 117.144 21.5223L121.718 20.5717ZM119.615 10.9619L120.824 16.6651L116.209 17.6261L115 11.9229L119.615 10.9619Z" fill="#53C48A"/>
<defs>
<linearGradient id="paint0_linear" x1="334.701" y1="53.0117" x2="113.595" y2="148.765" gradientUnits="userSpaceOnUse">
<stop stop-color="#E1FFD3"/>
<stop offset="0.301844" stop-color="#96DBAA"/>
<stop offset="1" stop-color="#4AAF86"/>
</linearGradient>
</defs>
</svg>
