<svg width="35" height="36" viewBox="0 0 35 36" fill="none" xmlns="http://www.w3.org/2000/svg">
<path opacity="0.4" d="M17.5003 32.8708C25.5545 32.8708 32.0837 26.3416 32.0837 18.2874C32.0837 10.2333 25.5545 3.7041 17.5003 3.7041C9.44617 3.7041 2.91699 10.2333 2.91699 18.2874C2.91699 26.3416 9.44617 32.8708 17.5003 32.8708Z" fill="url(#paint0_linear)"/>
<path d="M12.1336 24.149C11.8565 24.149 11.5794 24.0469 11.3606 23.8282C10.9377 23.4053 10.9377 22.7053 11.3606 22.2823L20.9127 12.7303C21.3356 12.3074 22.0356 12.3074 22.4585 12.7303C22.8815 13.1532 22.8815 13.8532 22.4585 14.2761L12.9065 23.8282C12.6877 24.0469 12.4106 24.149 12.1336 24.149Z" fill="url(#paint1_linear)"/>
<path d="M12.7316 11.9585C11.5503 11.9585 10.5732 12.921 10.5732 14.1168C10.5732 15.2981 11.5358 16.2752 12.7316 16.2752C13.9128 16.2752 14.8899 15.3127 14.8899 14.1168C14.8753 12.921 13.9128 11.9585 12.7316 11.9585Z" fill="url(#paint2_linear)"/>
<path d="M22.2691 20.3149C21.0879 20.3149 20.1108 21.2774 20.1108 22.4732C20.1108 23.6545 21.0733 24.6316 22.2691 24.6316C23.4504 24.6316 24.4275 23.6691 24.4275 22.4732C24.4275 21.2774 23.465 20.3149 22.2691 20.3149Z" fill="url(#paint3_linear)"/>
<defs>
<linearGradient id="paint0_linear" x1="30.4795" y1="3.7041" x2="7.49215" y2="20.7529" gradientUnits="userSpaceOnUse">
<stop stop-color="#E1FFD3"/>
<stop offset="0.301844" stop-color="#96DBAA"/>
<stop offset="1" stop-color="#4AAF86"/>
</linearGradient>
<linearGradient id="paint1_linear" x1="22.1305" y1="12.4131" x2="12.8818" y2="19.2703" gradientUnits="userSpaceOnUse">
<stop stop-color="#E1FFD3"/>
<stop offset="0.301844" stop-color="#96DBAA"/>
<stop offset="1" stop-color="#4AAF86"/>
</linearGradient>
<linearGradient id="paint2_linear" x1="14.6525" y1="11.9585" x2="11.2504" y2="14.4817" gradientUnits="userSpaceOnUse">
<stop stop-color="#E1FFD3"/>
<stop offset="0.301844" stop-color="#96DBAA"/>
<stop offset="1" stop-color="#4AAF86"/>
</linearGradient>
<linearGradient id="paint3_linear" x1="24.1901" y1="20.3149" x2="20.788" y2="22.8382" gradientUnits="userSpaceOnUse">
<stop stop-color="#E1FFD3"/>
<stop offset="0.301844" stop-color="#96DBAA"/>
<stop offset="1" stop-color="#4AAF86"/>
</linearGradient>
</defs>
</svg>
