<svg width="35" height="36" viewBox="0 0 35 36" fill="none" xmlns="http://www.w3.org/2000/svg">
<path d="M27.5623 22.7063C24.3394 22.7063 21.729 25.3167 21.729 28.5396C21.729 31.7625 24.3394 34.373 27.5623 34.373C30.7853 34.373 33.3957 31.7625 33.3957 28.5396C33.3957 25.3167 30.7853 22.7063 27.5623 22.7063ZM29.8956 30.9459C29.6769 31.1646 29.3998 31.2667 29.1227 31.2667C28.8456 31.2667 28.5686 31.1646 28.3498 30.9459L27.5768 30.173L26.7748 30.975C26.556 31.1938 26.279 31.2959 26.0019 31.2959C25.7248 31.2959 25.4477 31.1938 25.229 30.975C24.806 30.5521 24.806 29.8521 25.229 29.4292L26.031 28.6271L25.2581 27.8542C24.8352 27.4313 24.8352 26.7313 25.2581 26.3084C25.6811 25.8855 26.3811 25.8855 26.804 26.3084L27.5768 27.0813L28.306 26.3521C28.7289 25.9292 29.4289 25.9292 29.8518 26.3521C30.2748 26.775 30.2748 27.4751 29.8518 27.898L29.1227 28.6271L29.8956 29.4C30.3186 29.823 30.3186 30.523 29.8956 30.9459Z" fill="url(#paint0_linear)"/>
<path d="M32.0832 11.7836V13.9128H2.9165V11.7836C2.9165 8.44401 5.62904 5.74609 8.96862 5.74609H26.031C29.3706 5.74609 32.0832 8.44401 32.0832 11.7836Z" fill="url(#paint1_linear)"/>
<path opacity="0.4" d="M2.9165 13.9121V24.7913C2.9165 28.1309 5.61444 30.8288 8.95402 30.8288H18.0832C18.929 30.8288 19.6582 30.1142 19.5852 29.2684C19.3811 27.0371 20.0957 24.6163 22.079 22.6913C22.8957 21.8892 23.9019 21.2767 24.9957 20.9267C26.8186 20.3434 28.5831 20.4163 30.1436 20.9413C31.0915 21.2621 32.0832 20.5767 32.0832 19.5704V13.9121H2.9165ZM11.6665 25.9434H8.74984C8.15192 25.9434 7.65609 25.4475 7.65609 24.8496C7.65609 24.2517 8.15192 23.7559 8.74984 23.7559H11.6665C12.2644 23.7559 12.7603 24.2517 12.7603 24.8496C12.7603 25.4475 12.2644 25.9434 11.6665 25.9434Z" fill="url(#paint2_linear)"/>
<path d="M12.7604 24.8496C12.7604 25.4475 12.2646 25.9434 11.6667 25.9434H8.75C8.15208 25.9434 7.65625 25.4475 7.65625 24.8496C7.65625 24.2517 8.15208 23.7559 8.75 23.7559H11.6667C12.2646 23.7559 12.7604 24.2517 12.7604 24.8496Z" fill="url(#paint3_linear)"/>
<defs>
<linearGradient id="paint0_linear" x1="32.754" y1="22.7063" x2="23.5591" y2="29.5258" gradientUnits="userSpaceOnUse">
<stop stop-color="#E1FFD3"/>
<stop offset="0.301844" stop-color="#96DBAA"/>
<stop offset="1" stop-color="#4AAF86"/>
</linearGradient>
<linearGradient id="paint1_linear" x1="30.479" y1="5.74609" x2="26.034" y2="17.5201" gradientUnits="userSpaceOnUse">
<stop stop-color="#E1FFD3"/>
<stop offset="0.301844" stop-color="#96DBAA"/>
<stop offset="1" stop-color="#4AAF86"/>
</linearGradient>
<linearGradient id="paint2_linear" x1="30.479" y1="13.9121" x2="16.9572" y2="31.2027" gradientUnits="userSpaceOnUse">
<stop stop-color="#E1FFD3"/>
<stop offset="0.301844" stop-color="#96DBAA"/>
<stop offset="1" stop-color="#4AAF86"/>
</linearGradient>
<linearGradient id="paint3_linear" x1="12.4797" y1="23.7559" x2="10.9188" y2="26.4571" gradientUnits="userSpaceOnUse">
<stop stop-color="#E1FFD3"/>
<stop offset="0.301844" stop-color="#96DBAA"/>
<stop offset="1" stop-color="#4AAF86"/>
</linearGradient>
</defs>
</svg>
