<svg width="35" height="35" viewBox="0 0 35 35" fill="none" xmlns="http://www.w3.org/2000/svg">
<path opacity="0.4" d="M31.5729 14.6268C31.0042 13.8101 29.9979 13.3435 28.8458 13.3435H22.8667C22.4729 13.3435 22.1083 13.1831 21.8604 12.8914C21.5979 12.5997 21.4958 12.1914 21.5542 11.7685L22.2979 6.98515C22.6188 5.55598 21.6708 3.95181 20.2417 3.47056C18.9146 2.97473 17.3542 3.64556 16.7271 4.59348L10.5729 13.7372L10.3979 14.0289V26.9206L10.6167 27.1393L15.2396 30.7122C15.8521 31.3247 17.2375 31.6601 18.2146 31.6601H23.9021C25.8562 31.6601 27.825 30.1872 28.2625 28.3935L31.85 17.4706C32.2292 16.4351 32.1271 15.4289 31.5729 14.6268Z" fill="url(#paint0_linear)"/>
<path d="M7.59791 9.3042H6.09582C3.83541 9.3042 2.91666 10.1792 2.91666 12.3375V27.0084C2.91666 29.1667 3.83541 30.0417 6.09582 30.0417H7.59791C9.85832 30.0417 10.7771 29.1667 10.7771 27.0084V12.3375C10.7771 10.1792 9.85832 9.3042 7.59791 9.3042Z" fill="url(#paint1_linear)"/>
<defs>
<linearGradient id="paint0_linear" x1="30.8836" y1="3.30273" x2="10.8427" y2="14.6652" gradientUnits="userSpaceOnUse">
<stop stop-color="#E1FFD3"/>
<stop offset="0.301844" stop-color="#96DBAA"/>
<stop offset="1" stop-color="#4AAF86"/>
</linearGradient>
<linearGradient id="paint1_linear" x1="10.3447" y1="9.3042" x2="1.44531" y2="11.806" gradientUnits="userSpaceOnUse">
<stop stop-color="#E1FFD3"/>
<stop offset="0.301844" stop-color="#96DBAA"/>
<stop offset="1" stop-color="#4AAF86"/>
</linearGradient>
</defs>
</svg>
