<svg width="35" height="35" viewBox="0 0 35 35" fill="none" xmlns="http://www.w3.org/2000/svg">
<path opacity="0.4" d="M34.3146 17.5727C33.8917 17.1498 33.1917 17.1498 32.7688 17.5727L32.0979 18.2436V17.4998C32.0979 9.44979 25.55 2.90186 17.5 2.90186C13.0521 2.90186 8.89585 4.89977 6.11043 8.37061C5.73126 8.83727 5.80417 9.53725 6.28542 9.90184C6.75209 10.281 7.45209 10.2081 7.81668 9.72684C10.1938 6.76643 13.7229 5.07476 17.5 5.07476C24.3396 5.07476 29.9104 10.6456 29.9104 17.4852V18.2144L29.2396 17.5436C28.8167 17.1207 28.1167 17.1207 27.6938 17.5436C27.2708 17.9665 27.2708 18.6665 27.6938 19.0894L30.2313 21.6269C30.3333 21.729 30.45 21.8019 30.5813 21.8602C30.7125 21.9185 30.8583 21.9477 31.0042 21.9477C31.15 21.9477 31.2813 21.9185 31.4271 21.8602C31.5583 21.8019 31.675 21.729 31.7771 21.6269L34.3146 19.0894C34.7375 18.6957 34.7375 17.9956 34.3146 17.5727Z" fill="url(#paint0_linear)"/>
<path opacity="0.4" d="M28.7146 25.0834C28.2479 24.7043 27.5479 24.7772 27.1833 25.2584C24.8062 28.2189 21.2771 29.9105 17.5 29.9105C10.6604 29.9105 5.08958 24.3397 5.08958 17.5001V16.7709L5.76041 17.4418C5.97916 17.6605 6.25625 17.7626 6.53333 17.7626C6.81042 17.7626 7.0875 17.6605 7.30625 17.4418C7.72917 17.0189 7.72917 16.3189 7.30625 15.896L4.76874 13.3584C4.66666 13.2563 4.54999 13.1834 4.41874 13.1251C4.15624 13.0084 3.84999 13.0084 3.58749 13.1251C3.45624 13.1834 3.33958 13.2563 3.2375 13.3584L0.7 15.896C0.277083 16.3189 0.277083 17.0189 0.7 17.4418C1.12292 17.8647 1.82291 17.8647 2.24583 17.4418L2.91666 16.7709V17.5001C2.91666 25.5501 9.46458 32.098 17.5146 32.098C21.9625 32.098 26.1187 30.1001 28.9042 26.6293C29.2687 26.1626 29.1958 25.4626 28.7146 25.0834Z" fill="url(#paint1_linear)"/>
<path d="M22.5312 16.975C22.925 16.3917 23.1438 15.7063 23.1438 14.9479C23.1438 13.0083 21.4375 11.3021 19.4979 11.3021H18.3021V9.84375C18.3021 9.24583 17.8063 8.75 17.2083 8.75C16.6104 8.75 16.1146 9.24583 16.1146 9.84375V11.3021H13.125C12.5271 11.3021 12.0312 11.7979 12.0312 12.3958V17.5V22.6042C12.0312 23.2021 12.5271 23.6979 13.125 23.6979H16.1146V25.1562C16.1146 25.7542 16.6104 26.25 17.2083 26.25C17.8063 26.25 18.3021 25.7542 18.3021 25.1562V23.6979H20.4167C22.6333 23.6979 24.4271 22.0646 24.4271 20.0521C24.4271 18.7542 23.6687 17.6167 22.5312 16.975ZM14.2188 13.4896H19.4979C20.3 13.4896 20.9563 14.2917 20.9563 14.9479C20.9563 15.75 20.3 16.4062 19.4979 16.4062H14.2188V13.4896ZM20.4167 21.5104H14.2188V18.5938H19.4979H20.4167C21.4229 18.5938 22.2396 19.25 22.2396 20.0521C22.2396 20.8542 21.4229 21.5104 20.4167 21.5104Z" fill="url(#paint2_linear)"/>
<defs>
<linearGradient id="paint0_linear" x1="33.0498" y1="2.90186" x2="17.464" y2="20.3589" gradientUnits="userSpaceOnUse">
<stop stop-color="#E1FFD3"/>
<stop offset="0.301844" stop-color="#96DBAA"/>
<stop offset="1" stop-color="#4AAF86"/>
</linearGradient>
<linearGradient id="paint1_linear" x1="27.5529" y1="13.0376" x2="11.953" y2="30.4898" gradientUnits="userSpaceOnUse">
<stop stop-color="#E1FFD3"/>
<stop offset="0.301844" stop-color="#96DBAA"/>
<stop offset="1" stop-color="#4AAF86"/>
</linearGradient>
<linearGradient id="paint2_linear" x1="23.7453" y1="8.75" x2="11.8772" y2="14.9848" gradientUnits="userSpaceOnUse">
<stop stop-color="#E1FFD3"/>
<stop offset="0.301844" stop-color="#96DBAA"/>
<stop offset="1" stop-color="#4AAF86"/>
</linearGradient>
</defs>
</svg>
