<svg width="35" height="36" viewBox="0 0 35 36" fill="none" xmlns="http://www.w3.org/2000/svg">
<path d="M7.29134 22.1621C5.92051 22.1621 4.65176 22.6434 3.64551 23.4454C2.30384 24.51 1.45801 26.1579 1.45801 27.9954C1.45801 29.0892 1.76426 30.1246 2.30384 30.9996C3.31009 32.6913 5.16217 33.8288 7.29134 33.8288C8.76426 33.8288 10.1059 33.2892 11.1268 32.3704C11.5788 31.9913 11.9726 31.5246 12.2788 30.9996C12.8184 30.1246 13.1247 29.0892 13.1247 27.9954C13.1247 24.7725 10.5143 22.1621 7.29134 22.1621ZM10.3101 27.3684L7.20385 30.2412C6.99968 30.4308 6.72258 30.5329 6.46008 30.5329C6.183 30.5329 5.90592 30.4309 5.68717 30.2121L4.24343 28.7684C3.82051 28.3455 3.82051 27.6454 4.24343 27.2225C4.66635 26.7996 5.36634 26.7996 5.78926 27.2225L6.48925 27.9225L8.8226 25.7642C9.2601 25.3558 9.96009 25.385 10.3684 25.8225C10.7768 26.26 10.7476 26.96 10.3101 27.3684Z" fill="url(#paint0_linear)"/>
<path opacity="0.4" d="M28.408 19.1722H31.3538V17.0722C31.3538 14.0535 28.8893 11.5889 25.8705 11.5889H9.12883C6.11008 11.5889 3.64551 14.0535 3.64551 17.0722V23.4451C4.65176 22.643 5.92051 22.1618 7.29134 22.1618C10.5143 22.1618 13.1247 24.7722 13.1247 27.9951C13.1247 29.0889 12.8184 30.1243 12.2788 30.9993C11.9726 31.5243 11.5788 31.9909 11.1268 32.3701H25.8705C28.8893 32.3701 31.3538 29.9055 31.3538 26.8868V25.1514H28.583C27.008 25.1514 25.5643 23.9993 25.433 22.4243C25.3455 21.5055 25.6955 20.6451 26.308 20.0472C26.8476 19.493 27.5913 19.1722 28.408 19.1722Z" fill="url(#paint1_linear)"/>
<path d="M21.6559 6.04667V11.5883H9.12883C6.11008 11.5883 3.64551 14.0529 3.64551 17.0717V11.7196C3.64551 9.98419 4.71009 8.43829 6.32884 7.82579L17.908 3.45079C19.7163 2.77996 21.6559 4.10708 21.6559 6.04667Z" fill="url(#paint2_linear)"/>
<path d="M32.8999 20.6598V23.6641C32.8999 24.4661 32.2582 25.1223 31.4416 25.1515H28.5832C27.0082 25.1515 25.5645 23.9994 25.4332 22.4244C25.3457 21.5057 25.6957 20.6452 26.3082 20.0473C26.8478 19.4932 27.5916 19.1724 28.4082 19.1724H31.4416C32.2582 19.2015 32.8999 19.8577 32.8999 20.6598Z" fill="url(#paint3_linear)"/>
<path d="M20.4163 18.8809H10.208C9.61009 18.8809 9.11426 18.385 9.11426 17.7871C9.11426 17.1892 9.61009 16.6934 10.208 16.6934H20.4163C21.0143 16.6934 21.5101 17.1892 21.5101 17.7871C21.5101 18.385 21.0143 18.8809 20.4163 18.8809Z" fill="url(#paint4_linear)"/>
<defs>
<linearGradient id="paint0_linear" x1="12.483" y1="22.1621" x2="3.28807" y2="28.9816" gradientUnits="userSpaceOnUse">
<stop stop-color="#E1FFD3"/>
<stop offset="0.301844" stop-color="#96DBAA"/>
<stop offset="1" stop-color="#4AAF86"/>
</linearGradient>
<linearGradient id="paint1_linear" x1="29.8299" y1="11.5889" x2="12.7155" y2="28.5129" gradientUnits="userSpaceOnUse">
<stop stop-color="#E1FFD3"/>
<stop offset="0.301844" stop-color="#96DBAA"/>
<stop offset="1" stop-color="#4AAF86"/>
</linearGradient>
<linearGradient id="paint2_linear" x1="20.6654" y1="3.27466" x2="9.30811" y2="14.2702" gradientUnits="userSpaceOnUse">
<stop stop-color="#E1FFD3"/>
<stop offset="0.301844" stop-color="#96DBAA"/>
<stop offset="1" stop-color="#4AAF86"/>
</linearGradient>
<linearGradient id="paint3_linear" x1="32.4885" y1="19.1724" x2="27.5779" y2="23.7286" gradientUnits="userSpaceOnUse">
<stop stop-color="#E1FFD3"/>
<stop offset="0.301844" stop-color="#96DBAA"/>
<stop offset="1" stop-color="#4AAF86"/>
</linearGradient>
<linearGradient id="paint4_linear" x1="20.8283" y1="16.6934" x2="20.0169" y2="20.1035" gradientUnits="userSpaceOnUse">
<stop stop-color="#E1FFD3"/>
<stop offset="0.301844" stop-color="#96DBAA"/>
<stop offset="1" stop-color="#4AAF86"/>
</linearGradient>
</defs>
</svg>
