<svg width="35" height="35" viewBox="0 0 35 35" fill="none" xmlns="http://www.w3.org/2000/svg">
<path d="M21.875 22.6042C21.875 27.8396 17.6313 32.0833 12.3959 32.0833C7.16044 32.0833 2.91669 27.8396 2.91669 22.6042C2.91669 17.3688 7.16044 13.125 12.3959 13.125C12.6438 13.125 12.9063 13.1396 13.1542 13.1542C17.7771 13.5188 21.4813 17.2229 21.8459 21.8458C21.8605 22.0937 21.875 22.3563 21.875 22.6042Z" fill="url(#paint0_linear)"/>
<path opacity="0.4" d="M32.0833 12.3957C32.0833 17.6311 27.8396 21.8748 22.6042 21.8748C22.3563 21.8748 22.0938 21.8602 21.8458 21.8457C21.4813 17.2227 17.7771 13.5186 13.1542 13.154C13.1396 12.9061 13.125 12.6436 13.125 12.3957C13.125 7.16025 17.3688 2.9165 22.6042 2.9165C27.8396 2.9165 32.0833 7.16025 32.0833 12.3957Z" fill="url(#paint1_linear)"/>
<path d="M8.1521 2.9165H4.37502C3.57294 2.9165 2.91669 3.57275 2.91669 4.37484V8.15192C2.91669 9.44983 4.49167 10.1061 5.41042 9.18734L9.1875 5.41026C10.0917 4.49151 9.45002 2.9165 8.1521 2.9165Z" fill="url(#paint2_linear)"/>
<path d="M26.8479 32.0834H30.625C31.4271 32.0834 32.0833 31.4271 32.0833 30.6251V26.848C32.0833 25.5501 30.5083 24.8938 29.5896 25.8126L25.8125 29.5896C24.9083 30.5084 25.55 32.0834 26.8479 32.0834Z" fill="url(#paint3_linear)"/>
<defs>
<linearGradient id="paint0_linear" x1="20.8323" y1="13.125" x2="5.89054" y2="24.2067" gradientUnits="userSpaceOnUse">
<stop stop-color="#E1FFD3"/>
<stop offset="0.301844" stop-color="#96DBAA"/>
<stop offset="1" stop-color="#4AAF86"/>
</linearGradient>
<linearGradient id="paint1_linear" x1="31.0406" y1="2.9165" x2="16.0989" y2="13.9982" gradientUnits="userSpaceOnUse">
<stop stop-color="#E1FFD3"/>
<stop offset="0.301844" stop-color="#96DBAA"/>
<stop offset="1" stop-color="#4AAF86"/>
</linearGradient>
<linearGradient id="paint2_linear" x1="9.24168" y1="2.9165" x2="3.96296" y2="6.82772" gradientUnits="userSpaceOnUse">
<stop stop-color="#E1FFD3"/>
<stop offset="0.301844" stop-color="#96DBAA"/>
<stop offset="1" stop-color="#4AAF86"/>
</linearGradient>
<linearGradient id="paint3_linear" x1="31.7152" y1="25.3838" x2="26.4365" y2="29.295" gradientUnits="userSpaceOnUse">
<stop stop-color="#E1FFD3"/>
<stop offset="0.301844" stop-color="#96DBAA"/>
<stop offset="1" stop-color="#4AAF86"/>
</linearGradient>
</defs>
</svg>
