<svg width="35" height="35" viewBox="0 0 35 35" fill="none" xmlns="http://www.w3.org/2000/svg">
<path opacity="0.4" d="M32.0834 13.1252V21.8752C32.0834 26.9793 29.1667 29.1668 24.7917 29.1668H12.323C12.8334 28.3064 13.125 27.3147 13.125 26.2502C13.125 23.0272 10.5146 20.4168 7.29169 20.4168C5.54169 20.4168 3.98127 21.1897 2.91669 22.4001V13.1252C2.91669 8.021 5.83335 5.8335 10.2084 5.8335H24.7917C29.1667 5.8335 32.0834 8.021 32.0834 13.1252Z" fill="url(#paint0_linear)"/>
<path d="M17.5 21.1457C19.5136 21.1457 21.1459 19.5134 21.1459 17.4998C21.1459 15.4863 19.5136 13.854 17.5 13.854C15.4865 13.854 13.8542 15.4863 13.8542 17.4998C13.8542 19.5134 15.4865 21.1457 17.5 21.1457Z" fill="url(#paint1_linear)"/>
<path d="M26.9792 21.5106C26.3813 21.5106 25.8854 21.0147 25.8854 20.4168V14.5835C25.8854 13.9856 26.3813 13.4897 26.9792 13.4897C27.5771 13.4897 28.0729 13.9856 28.0729 14.5835V20.4168C28.0729 21.0147 27.5771 21.5106 26.9792 21.5106Z" fill="url(#paint2_linear)"/>
<path d="M7.29165 20.4165C4.06873 20.4165 1.45831 23.0269 1.45831 26.2498C1.45831 27.3436 1.76454 28.379 2.30413 29.254C3.31038 30.9457 5.16248 32.0832 7.29165 32.0832C9.42081 32.0832 11.2729 30.9457 12.2792 29.254C12.8187 28.379 13.125 27.3436 13.125 26.2498C13.125 23.0269 10.5146 20.4165 7.29165 20.4165ZM10.1646 25.7686L7.05831 28.6415C6.85414 28.8311 6.57704 28.9332 6.31454 28.9332C6.03746 28.9332 5.76038 28.8311 5.54163 28.6123L4.09789 27.1686C3.67498 26.7457 3.67498 26.0457 4.09789 25.6228C4.52081 25.1998 5.22081 25.1998 5.64372 25.6228L6.34374 26.3227L8.67708 24.1644C9.11458 23.7561 9.81458 23.7852 10.2229 24.2227C10.6312 24.6602 10.6021 25.3602 10.1646 25.7686Z" fill="url(#paint3_linear)"/>
<defs>
<linearGradient id="paint0_linear" x1="30.4792" y1="5.8335" x2="11.3169" y2="23.5984" gradientUnits="userSpaceOnUse">
<stop stop-color="#E1FFD3"/>
<stop offset="0.301844" stop-color="#96DBAA"/>
<stop offset="1" stop-color="#4AAF86"/>
</linearGradient>
<linearGradient id="paint1_linear" x1="20.7448" y1="13.854" x2="14.998" y2="18.1162" gradientUnits="userSpaceOnUse">
<stop stop-color="#E1FFD3"/>
<stop offset="0.301844" stop-color="#96DBAA"/>
<stop offset="1" stop-color="#4AAF86"/>
</linearGradient>
<linearGradient id="paint2_linear" x1="27.9526" y1="13.4897" x2="25.3853" y2="14.009" gradientUnits="userSpaceOnUse">
<stop stop-color="#E1FFD3"/>
<stop offset="0.301844" stop-color="#96DBAA"/>
<stop offset="1" stop-color="#4AAF86"/>
</linearGradient>
<linearGradient id="paint3_linear" x1="12.4833" y1="20.4165" x2="3.28837" y2="27.236" gradientUnits="userSpaceOnUse">
<stop stop-color="#E1FFD3"/>
<stop offset="0.301844" stop-color="#96DBAA"/>
<stop offset="1" stop-color="#4AAF86"/>
</linearGradient>
</defs>
</svg>
