<svg width="1063" height="533" viewBox="0 0 1063 533" fill="none" xmlns="http://www.w3.org/2000/svg">
<g clip-path="url(#clip0)">
<rect x="87.3473" y="0.347505" width="888.293" height="531.555" rx="16.363" fill="white"/>
<g clip-path="url(#clip1)">
<rect width="888.988" height="632.169" transform="translate(87 36.7354)" fill="#F4F7FE"/>
<rect x="285.17" y="141.685" width="64.822" height="9.87764" rx="4.93882" fill="#C4CDE1"/>
<rect x="366.043" y="141.685" width="64.822" height="9.87764" rx="4.93882" fill="#E6EAF6"/>
<rect x="888.324" y="141.685" width="64.822" height="9.87764" rx="4.93882" fill="#C9D4EA"/>
<rect x="285.614" y="170.922" width="667.457" height="116.495" rx="4.93882" fill="#E6EAF6"/>
<rect x="285.17" y="310.334" width="64.822" height="9.87764" rx="4.93882" fill="#DDE3F1"/>
<rect x="285.17" y="101.557" width="112.976" height="17.2859" rx="4.93882" fill="#C4CDE1"/>
<rect width="179.032" height="587.72" transform="translate(87 81.1843)" fill="white"/>
<rect x="261.094" y="168.231" width="2.46941" height="22.2247" rx="1.23471" fill="#8F9BBA"/>
<rect x="141.74" y="105.261" width="102.646" height="11.2182" rx="4.48727" fill="#E6EAF6"/>
<rect x="141.74" y="139.476" width="102.646" height="11.2182" rx="4.48727" fill="#E6EAF6"/>
<rect x="187.174" y="173.692" width="57.2127" height="11.2182" rx="4.48727" fill="#E6EAF6"/>
<rect x="187.174" y="207.907" width="57.2127" height="11.2182" rx="4.48727" fill="#E6EAF6"/>
<rect x="141.74" y="242.122" width="102.646" height="11.2182" rx="4.48727" fill="#E6EAF6"/>
<rect x="141.74" y="276.338" width="102.646" height="11.2182" rx="4.48727" fill="#E6EAF6"/>
<rect x="108.646" y="276.338" width="12.9009" height="11.2182" rx="4.48727" fill="#E6EAF6"/>
<rect x="108.646" y="242.122" width="12.9009" height="11.2182" rx="4.48727" fill="#E6EAF6"/>
<rect x="108.646" y="139.476" width="12.9009" height="11.2182" rx="4.48727" fill="#E6EAF6"/>
<rect x="108.646" y="105.261" width="12.9009" height="11.2182" rx="4.48727" fill="#E6EAF6"/>
<rect x="108.646" y="310.553" width="135.74" height="22.9973" rx="4.48727" fill="#C4CDE1"/>
<rect x="108.646" y="463.942" width="52.1645" height="11.2182" rx="4.48727" fill="#E6EAF6"/>
<rect x="108.646" y="498.003" width="135.74" height="11.2182" rx="4.48727" fill="#E6EAF6"/>
<rect x="108.646" y="532.063" width="95.3545" height="11.2182" rx="4.48727" fill="#E6EAF6"/>
<rect width="888.988" height="44.4494" transform="translate(87 36.7354)" fill="#C4CCE1"/>
<rect opacity="0.4" x="101.816" y="44.1433" width="29.6329" height="29.6329" rx="4.93882" fill="#E8EDFA"/>
<g opacity="0.4">
<rect x="851.282" y="50.3169" width="18.5206" height="18.5206" rx="4.93882" fill="white"/>
<rect x="880.915" y="53.4037" width="80.2558" height="12.3471" rx="4.93882" fill="white"/>
</g>
<rect x="301.847" y="185.246" width="36.2852" height="33.4206" rx="4.93882" fill="#C4CDE1"/>
<rect x="349.59" y="185.246" width="64.822" height="9.87764" rx="4.93882" fill="white"/>
<rect x="349.59" y="209.446" width="45.834" height="9.54874" rx="4.77437" fill="#C4CDE1"/>
<rect x="301.847" y="237.764" width="36.2852" height="33.4206" rx="4.93882" fill="#C4CDE1"/>
<rect x="349.591" y="237.764" width="64.822" height="9.87764" rx="4.93882" fill="white"/>
<rect x="349.591" y="261.964" width="45.834" height="9.54874" rx="4.77437" fill="#C4CDE1"/>
<rect x="474.679" y="237.764" width="36.2852" height="33.4206" rx="4.93882" fill="#C4CDE1"/>
<rect x="522.423" y="237.764" width="64.822" height="9.87764" rx="4.93882" fill="white"/>
<rect x="522.423" y="261.964" width="45.834" height="9.54874" rx="4.77437" fill="#C4CDE1"/>
<rect x="647.511" y="237.764" width="36.2852" height="33.4206" rx="4.93882" fill="#C4CDE1"/>
<rect x="695.255" y="237.764" width="64.822" height="9.87764" rx="4.93882" fill="white"/>
<rect x="695.255" y="261.964" width="45.834" height="9.54874" rx="4.77437" fill="#C4CDE1"/>
<rect x="820.343" y="237.764" width="36.2852" height="33.4206" rx="4.93882" fill="#C4CDE1"/>
<rect x="868.086" y="237.764" width="64.822" height="9.87764" rx="4.93882" fill="white"/>
<rect x="868.086" y="261.964" width="45.834" height="9.54874" rx="4.77437" fill="#C4CDE1"/>
<rect x="474.679" y="185.246" width="36.2852" height="33.4206" rx="4.93882" fill="#C4CDE1"/>
<rect x="522.423" y="185.246" width="64.822" height="9.87764" rx="4.93882" fill="white"/>
<rect x="522.423" y="209.446" width="45.834" height="9.54874" rx="4.77437" fill="#C4CDE1"/>
<rect x="647.511" y="185.246" width="36.2852" height="33.4206" rx="4.93882" fill="#C4CDE1"/>
<rect x="695.255" y="185.246" width="64.822" height="9.87764" rx="4.93882" fill="white"/>
<rect x="695.255" y="209.446" width="45.834" height="9.54874" rx="4.77437" fill="#C4CDE1"/>
<rect x="820.343" y="185.246" width="36.2852" height="33.4206" rx="4.93882" fill="#C4CDE1"/>
<rect x="868.086" y="185.246" width="64.822" height="9.87764" rx="4.93882" fill="white"/>
<rect x="868.086" y="209.446" width="45.834" height="9.54874" rx="4.77437" fill="#C4CDE1"/>
</g>
<g filter="url(#filter0_di)">
<path d="M87 6.94546C87 3.10972 90.1095 0.000244141 93.9452 0.000244141H969.042C972.878 0.000244141 975.988 3.10972 975.988 6.94546V36.8099H87V6.94546Z" fill="white"/>
<g clip-path="url(#clip2)">
<path d="M870.768 23.9429C873.985 23.9429 876.648 21.2736 876.648 18.0625C876.648 14.8456 873.979 12.1821 870.762 12.1821C867.551 12.1821 864.888 14.8456 864.888 18.0625C864.888 21.2736 867.557 23.9429 870.768 23.9429ZM870.768 22.9628C868.047 22.9628 865.874 20.7836 865.874 18.0625C865.874 15.3414 868.041 13.1622 870.762 13.1622C873.483 13.1622 875.663 15.3414 875.668 18.0625C875.674 20.7836 873.489 22.9628 870.768 22.9628ZM870.768 15.1281C870.52 15.1281 870.336 15.3068 870.336 15.5605V18.443L870.382 19.6594L869.805 18.9676L869.119 18.2758C869.039 18.2009 868.935 18.149 868.814 18.149C868.577 18.149 868.399 18.3335 868.399 18.5641C868.399 18.6851 868.433 18.7889 868.508 18.8638L870.434 20.7836C870.549 20.8989 870.647 20.945 870.768 20.945C870.895 20.945 870.999 20.8932 871.108 20.7836L873.028 18.8638C873.103 18.7889 873.149 18.6851 873.149 18.5641C873.149 18.3335 872.965 18.149 872.728 18.149C872.601 18.149 872.498 18.1951 872.423 18.2758L871.742 18.9676L871.154 19.6652L871.2 18.443V15.5605C871.2 15.3068 871.022 15.1281 870.768 15.1281Z" fill="#737373"/>
<path d="M899.243 19.6304C899.491 19.6304 899.698 19.4229 899.698 19.1807V13.26L899.664 12.3952L900.056 12.8046L900.926 13.7385C901.007 13.8307 901.128 13.8769 901.238 13.8769C901.48 13.8769 901.658 13.7039 901.658 13.4675C901.658 13.3465 901.612 13.2542 901.526 13.1678L899.577 11.2883C899.462 11.173 899.358 11.1327 899.243 11.1327C899.128 11.1327 899.024 11.173 898.909 11.2883L896.96 13.1678C896.873 13.2542 896.822 13.3465 896.822 13.4675C896.822 13.7039 897 13.8769 897.237 13.8769C897.352 13.8769 897.473 13.8307 897.554 13.7385L898.43 12.8046L898.822 12.3952L898.782 13.26V19.1807C898.782 19.4229 898.995 19.6304 899.243 19.6304ZM895.934 24.1445H902.546C903.751 24.1445 904.357 23.5449 904.357 22.3573V16.6037C904.357 15.4161 903.751 14.8166 902.546 14.8166H900.938V15.7447H902.529C903.1 15.7447 903.428 16.0561 903.428 16.6556V22.3054C903.428 22.905 903.1 23.2163 902.529 23.2163H895.945C895.369 23.2163 895.052 22.905 895.052 22.3054V16.6556C895.052 16.0561 895.369 15.7447 895.945 15.7447H897.542V14.8166H895.934C894.729 14.8166 894.124 15.4161 894.124 16.6037V22.3573C894.124 23.5449 894.729 24.1445 895.934 24.1445Z" fill="#737373"/>
<path d="M927.719 22.9227C928.002 22.9227 928.238 22.6979 928.238 22.4212V18.5874H931.962C932.239 18.5874 932.475 18.351 932.475 18.0685C932.475 17.7861 932.239 17.5555 931.962 17.5555H928.238V13.7159C928.238 13.4392 928.002 13.2144 927.719 13.2144C927.437 13.2144 927.206 13.4392 927.206 13.7159V17.5555H923.476C923.199 17.5555 922.963 17.7861 922.963 18.0685C922.963 18.351 923.199 18.5874 923.476 18.5874H927.206V22.4212C927.206 22.6979 927.437 22.9227 927.719 22.9227Z" fill="#737373"/>
<path d="M951.905 21.4409H952.891V22.323C952.891 23.5106 953.49 24.1102 954.701 24.1102H960.489C961.688 24.1102 962.293 23.5106 962.293 22.323V16.4887C962.293 15.3011 961.688 14.7016 960.489 14.7016H959.497V13.8195C959.497 12.6319 958.892 12.0323 957.693 12.0323H951.905C950.694 12.0323 950.094 12.6319 950.094 13.8195V19.6538C950.094 20.8414 950.694 21.4409 951.905 21.4409ZM951.916 20.5128C951.34 20.5128 951.023 20.2015 951.023 19.6019V13.8714C951.023 13.2718 951.34 12.9605 951.916 12.9605H957.676C958.246 12.9605 958.569 13.2718 958.569 13.8714V14.7016H954.701C953.49 14.7016 952.891 15.2954 952.891 16.4887V20.5128H951.916ZM954.712 23.182C954.142 23.182 953.819 22.8707 953.819 22.2711V16.5406C953.819 15.9411 954.142 15.6298 954.712 15.6298H960.472C961.042 15.6298 961.365 15.9411 961.365 16.5406V22.2711C961.365 22.8707 961.042 23.182 960.472 23.182H954.712Z" fill="#737373"/>
</g>
<g clip-path="url(#clip3)">
<path d="M193.445 22.9111L188.873 18.449C188.764 18.3394 188.706 18.2068 188.706 18.0627C188.706 17.9128 188.77 17.7687 188.879 17.6764L193.445 13.2085C193.543 13.1105 193.67 13.0529 193.82 13.0529C194.12 13.0529 194.345 13.2835 194.345 13.5832C194.345 13.7216 194.287 13.86 194.195 13.958L189.998 18.0627L194.195 22.1674C194.287 22.2654 194.345 22.398 194.345 22.5422C194.345 22.8419 194.12 23.0668 193.82 23.0668C193.67 23.0668 193.543 23.0091 193.445 22.9111Z" fill="#737373"/>
<path d="M212.15 23.0726C212.3 23.0726 212.427 23.0149 212.525 22.9169L217.096 18.449C217.206 18.3394 217.263 18.2068 217.263 18.0627C217.263 17.9128 217.206 17.7745 217.096 17.6764L212.53 13.2143C212.427 13.1105 212.3 13.0529 212.15 13.0529C211.85 13.0529 211.625 13.2835 211.625 13.5832C211.625 13.7216 211.683 13.86 211.775 13.958L215.972 18.0627L211.775 22.1674C211.683 22.2654 211.625 22.398 211.625 22.5422C211.625 22.8419 211.85 23.0726 212.15 23.0726Z" fill="#BFBFBF"/>
</g>
<path d="M157.369 23.378H167.343C168.554 23.378 169.153 22.7785 169.153 21.5909V14.5517C169.153 13.3641 168.554 12.7645 167.343 12.7645H157.369C156.164 12.7645 155.559 13.3583 155.559 14.5517V21.5909C155.559 22.7842 156.164 23.378 157.369 23.378ZM157.381 22.4498C156.804 22.4498 156.487 22.1443 156.487 21.5447V14.5978C156.487 13.9983 156.804 13.6927 157.381 13.6927H159.952V22.4498H157.381ZM167.331 13.6927C167.902 13.6927 168.225 13.9983 168.225 14.5978V21.5447C168.225 22.1443 167.902 22.4498 167.331 22.4498H160.857V13.6927H167.331ZM158.839 15.8315C159.018 15.8315 159.168 15.6759 159.168 15.5087C159.168 15.3357 159.018 15.1859 158.839 15.1859H157.606C157.433 15.1859 157.277 15.3357 157.277 15.5087C157.277 15.6759 157.433 15.8315 157.606 15.8315H158.839ZM158.839 17.3247C159.018 17.3247 159.168 17.169 159.168 16.9961C159.168 16.8231 159.018 16.679 158.839 16.679H157.606C157.433 16.679 157.277 16.8231 157.277 16.9961C157.277 17.169 157.433 17.3247 157.606 17.3247H158.839ZM158.839 18.8121C159.018 18.8121 159.168 18.668 159.168 18.495C159.168 18.3221 159.018 18.1722 158.839 18.1722H157.606C157.433 18.1722 157.277 18.3221 157.277 18.495C157.277 18.668 157.433 18.8121 157.606 18.8121H158.839Z" fill="#737373"/>
<g filter="url(#filter1_i)">
<path fill-rule="evenodd" clip-rule="evenodd" d="M105.752 22.2251C108.054 22.2251 109.919 20.3594 109.919 18.058C109.919 15.7566 108.054 13.8909 105.752 13.8909C103.451 13.8909 101.585 15.7566 101.585 18.058C101.585 20.3594 103.451 22.2251 105.752 22.2251Z" fill="#EE6A5F"/>
</g>
<path d="M109.746 18.058C109.746 20.2635 107.958 22.0515 105.752 22.0515C103.547 22.0515 101.759 20.2635 101.759 18.058C101.759 15.8525 103.547 14.0645 105.752 14.0645C107.958 14.0645 109.746 15.8525 109.746 18.058Z" stroke="#CE5347" stroke-width="0.347261"/>
<g filter="url(#filter2_i)">
<path fill-rule="evenodd" clip-rule="evenodd" d="M119.643 22.2251C121.944 22.2251 123.81 20.3594 123.81 18.058C123.81 15.7566 121.944 13.8909 119.643 13.8909C117.342 13.8909 115.476 15.7566 115.476 18.058C115.476 20.3594 117.342 22.2251 119.643 22.2251Z" fill="#F5BD4F"/>
</g>
<path d="M123.636 18.058C123.636 20.2635 121.849 22.0515 119.643 22.0515C117.437 22.0515 115.649 20.2635 115.649 18.058C115.649 15.8525 117.437 14.0645 119.643 14.0645C121.849 14.0645 123.636 15.8525 123.636 18.058Z" stroke="#D6A243" stroke-width="0.347261"/>
<g filter="url(#filter3_i)">
<path fill-rule="evenodd" clip-rule="evenodd" d="M133.533 22.2251C135.835 22.2251 137.7 20.3594 137.7 18.058C137.7 15.7566 135.835 13.8909 133.533 13.8909C131.232 13.8909 129.366 15.7566 129.366 18.058C129.366 20.3594 131.232 22.2251 133.533 22.2251Z" fill="#61C454"/>
</g>
<path d="M137.527 18.058C137.527 20.2635 135.739 22.0515 133.533 22.0515C131.328 22.0515 129.54 20.2635 129.54 18.058C129.54 15.8525 131.328 14.0645 133.533 14.0645C135.739 14.0645 137.527 15.8525 137.527 18.058Z" stroke="#58A942" stroke-width="0.347261"/>
</g>
</g>
<rect x="87.3473" y="0.347505" width="888.293" height="531.555" rx="16.363" stroke="#B0BBD5" stroke-width="0.694522"/>
<g clip-path="url(#clip4)">
<path d="M202.033 302.401H1049.97C1056.39 302.401 1061.6 307.609 1061.6 314.033V452.013C1061.6 458.437 1056.39 463.645 1049.97 463.645H202.033C195.609 463.645 190.401 458.437 190.401 452.013V314.033C190.401 307.609 195.609 302.401 202.033 302.401Z" fill="white" stroke="#B0BBD5" stroke-width="0.802208"/>
<path d="M271.023 444.793C305.138 444.793 332.793 417.138 332.793 383.023C332.793 348.909 305.138 321.253 271.023 321.253C236.909 321.253 209.253 348.909 209.253 383.023C209.253 417.138 236.909 444.793 271.023 444.793Z" fill="#E1E9F8"/>
<mask id="mask0" mask-type="alpha" maskUnits="userSpaceOnUse" x="209" y="321" width="124" height="124">
<path d="M271.023 444.793C305.138 444.793 332.793 417.138 332.793 383.023C332.793 348.909 305.138 321.253 271.023 321.253C236.909 321.253 209.253 348.909 209.253 383.023C209.253 417.138 236.909 444.793 271.023 444.793Z" fill="#E1E9F8"/>
</mask>
<g mask="url(#mask0)">
<path d="M271.023 382.592V321.253V321.109H332.793V382.592H271.023Z" fill="#53C48A"/>
<path opacity="0.5" d="M271.024 423.82C293.555 423.82 311.821 405.554 311.821 383.023C311.821 360.491 293.555 342.226 271.024 342.226C248.492 342.226 230.227 360.491 230.227 383.023C230.227 405.554 248.492 423.82 271.024 423.82Z" fill="#8F9BBA"/>
<path d="M270.933 419.391C290.926 419.391 307.133 403.183 307.133 383.191C307.133 363.198 290.926 346.99 270.933 346.99C250.94 346.99 234.733 363.198 234.733 383.191C234.733 403.183 250.94 419.391 270.933 419.391Z" fill="white"/>
<path d="M251.609 383.11H253.639V370.244H249.968V372.079H251.609V383.11ZM270.517 378.239C270.517 375.186 268.329 373.227 265.558 373.227C262.787 373.227 260.599 375.186 260.599 378.239C260.599 381.292 262.699 383.269 265.47 383.269C268.258 383.269 270.517 381.292 270.517 378.239ZM262.646 378.239C262.646 376.033 264.005 374.974 265.523 374.974C267.023 374.974 268.452 376.033 268.452 378.239C268.452 380.445 266.97 381.521 265.47 381.521C263.952 381.521 262.646 380.445 262.646 378.239ZM272.753 383.11H274.783V375.027H276.583V373.385H274.783V372.697C274.783 371.585 275.206 371.162 276.442 371.162V369.485C273.9 369.485 272.753 370.456 272.753 372.697V373.385H271.606V375.027H272.753V383.11ZM288.828 383.11H290.804V380.427H292.446V378.68H290.804V370.403H288.369L282.439 378.909V380.427H288.828V383.11ZM284.751 378.68L288.916 372.45V378.68H284.751Z" fill="black"/>
<path d="M254.173 397.905H255.229L256.711 393.019L258.194 397.905H259.249L261.17 391.75H260.159L258.766 396.928L257.273 391.75H256.228L254.701 396.916L253.286 391.75H252.241L254.173 397.905ZM264.801 392.514C265.857 392.514 266.755 393.176 266.744 394.378H262.858C262.97 393.176 263.801 392.514 264.801 392.514ZM267.676 396.007H266.575C266.351 396.669 265.767 397.141 264.846 397.141C263.801 397.141 262.925 396.456 262.847 395.209H267.766C267.788 394.996 267.8 394.816 267.8 394.592C267.8 392.907 266.632 391.649 264.846 391.649C263.049 391.649 261.802 392.873 261.802 394.816C261.802 396.77 263.094 398.006 264.846 398.006C266.373 398.006 267.362 397.13 267.676 396.007ZM271.765 392.514C272.821 392.514 273.72 393.176 273.708 394.378H269.822C269.935 393.176 270.766 392.514 271.765 392.514ZM274.641 396.007H273.54C273.315 396.669 272.731 397.141 271.81 397.141C270.766 397.141 269.89 396.456 269.811 395.209H274.73C274.753 394.996 274.764 394.816 274.764 394.592C274.764 392.907 273.596 391.649 271.81 391.649C270.013 391.649 268.767 392.873 268.767 394.816C268.767 396.77 270.058 398.006 271.81 398.006C273.338 398.006 274.326 397.13 274.641 396.007ZM276.113 397.905H277.135V395.187L279.55 397.905H280.943L278.034 394.816L280.931 391.75H279.505L277.135 394.479V389.594H276.113V397.905ZM281.893 397.905H282.915V389.594H281.893V397.905ZM286.993 396.737L285.061 391.75H283.927L286.409 397.837L285.196 400.802H286.252L289.958 391.75H288.902L286.993 396.737Z" fill="#8F9BBA"/>
</g>
</g>
<path d="M396.266 349.15C393.265 361.183 381.078 368.506 369.044 365.506C357.014 362.506 349.69 350.317 352.691 338.285C355.69 326.251 367.878 318.927 379.909 321.927C391.943 324.927 399.265 337.116 396.265 349.15L396.266 349.15Z" fill="#F7931A"/>
<path d="M384.412 340.499C384.86 337.51 382.584 335.903 379.472 334.831L380.482 330.782L378.017 330.168L377.034 334.11C376.386 333.949 375.721 333.796 375.06 333.645L376.049 329.677L373.586 329.063L372.576 333.111C372.04 332.989 371.513 332.868 371.002 332.741L371.005 332.728L367.606 331.879L366.95 334.512C366.95 334.512 368.779 334.931 368.741 334.957C369.738 335.206 369.919 335.867 369.889 336.39L368.739 341.003C368.808 341.021 368.897 341.046 368.995 341.085C368.913 341.065 368.826 341.043 368.735 341.021L367.122 347.483C367.001 347.786 366.691 348.241 365.994 348.068C366.018 348.104 364.202 347.621 364.202 347.621L362.978 350.443L366.185 351.242C366.782 351.392 367.367 351.549 367.943 351.696L366.923 355.791L369.385 356.406L370.395 352.353C371.068 352.536 371.721 352.704 372.359 352.863L371.353 356.896L373.818 357.51L374.837 353.423C379.041 354.218 382.201 353.897 383.531 350.096C384.603 347.035 383.478 345.269 381.266 344.118C382.877 343.747 384.09 342.687 384.413 340.499V340.499L384.412 340.499ZM378.781 348.396C378.02 351.457 372.866 349.802 371.195 349.387L372.549 343.961C374.22 344.378 379.578 345.204 378.781 348.396ZM379.544 340.455C378.848 343.239 374.56 341.824 373.168 341.477L374.395 336.556C375.786 336.903 380.267 337.551 379.544 340.455Z" fill="white"/>
<path d="M417.456 331.854C417.456 332.606 416.929 333.044 416.064 333.044H414.334V330.607H416.019C416.872 330.607 417.456 331.079 417.456 331.854ZM417.254 328.451C417.254 329.169 416.749 329.562 415.918 329.562H414.334V327.327H415.918C416.749 327.327 417.254 327.743 417.254 328.451ZM418.737 331.988C418.737 331.056 418.063 330.225 417.232 330.079C417.984 329.809 418.557 329.237 418.557 328.293C418.557 327.193 417.681 326.283 416.03 326.283H413.054V334.088H416.176C417.771 334.088 418.737 333.179 418.737 331.988ZM420.128 334.088H421.408V327.9H420.128V334.088ZM420.779 327.08C421.228 327.08 421.588 326.721 421.588 326.261C421.588 325.8 421.228 325.441 420.779 325.441C420.319 325.441 419.959 325.8 419.959 326.261C419.959 326.721 420.319 327.08 420.779 327.08ZM423.292 332.37C423.292 333.628 423.977 334.088 425.077 334.088H426.088V333.022H425.302C424.763 333.022 424.583 332.831 424.583 332.37V328.945H426.088V327.9H424.583V326.362H423.292V327.9H422.562V328.945H423.292V332.37ZM426.842 330.989C426.842 332.932 428.099 334.19 429.874 334.19C431.39 334.19 432.378 333.347 432.727 332.134H431.345C431.109 332.774 430.638 333.111 429.874 333.111C428.841 333.111 428.156 332.348 428.156 330.989C428.156 329.641 428.841 328.877 429.874 328.877C430.638 328.877 431.132 329.259 431.345 329.854H432.727C432.378 328.552 431.39 327.799 429.874 327.799C428.099 327.799 426.842 329.057 426.842 330.989ZM439.898 330.989C439.898 329.046 438.506 327.799 436.742 327.799C434.979 327.799 433.586 329.046 433.586 330.989C433.586 332.932 434.923 334.19 436.686 334.19C438.461 334.19 439.898 332.932 439.898 330.989ZM434.889 330.989C434.889 329.585 435.754 328.911 436.72 328.911C437.675 328.911 438.584 329.585 438.584 330.989C438.584 332.393 437.641 333.078 436.686 333.078C435.72 333.078 434.889 332.393 434.889 330.989ZM441.164 334.088H442.444V327.9H441.164V334.088ZM441.816 327.08C442.265 327.08 442.624 326.721 442.624 326.261C442.624 325.8 442.265 325.441 441.816 325.441C441.355 325.441 440.996 325.8 440.996 326.261C440.996 326.721 441.355 327.08 441.816 327.08ZM448.516 334.088H449.785V330.438C449.785 328.709 448.696 327.799 447.247 327.799C446.506 327.799 445.821 328.102 445.405 328.608V327.9H444.125V334.088H445.405V330.629C445.405 329.495 446.023 328.911 446.967 328.911C447.899 328.911 448.516 329.495 448.516 330.629V334.088Z" fill="#8F9BBA"/>
<path d="M419.704 355.764C419.704 356.839 418.95 357.465 417.714 357.465H415.244V353.983H417.65C418.87 353.983 419.704 354.657 419.704 355.764ZM419.415 350.903C419.415 351.93 418.693 352.491 417.506 352.491H415.244V349.298H417.506C418.693 349.298 419.415 349.892 419.415 350.903ZM421.533 355.957C421.533 354.625 420.57 353.438 419.383 353.229C420.458 352.844 421.276 352.026 421.276 350.678C421.276 349.106 420.025 347.806 417.666 347.806H413.415V358.957H417.875C420.153 358.957 421.533 357.657 421.533 355.957ZM422.943 349.298H425.927V358.957H427.756V349.298H430.725V347.806H422.943V349.298ZM431.967 353.358C431.967 356.711 434.518 359.053 437.663 359.053C439.989 359.053 441.995 357.898 442.845 355.716H440.647C440.053 356.903 438.995 357.465 437.663 357.465C435.449 357.465 433.844 355.876 433.844 353.358C433.844 350.839 435.449 349.266 437.663 349.266C438.995 349.266 440.053 349.828 440.647 351.015H442.845C441.995 348.833 439.989 347.662 437.663 347.662C434.518 347.662 431.967 350.02 431.967 353.358Z" fill="black"/>
<path d="M524.789 327.327H526.878V334.088H528.159V327.327H530.236V326.283H524.789V327.327ZM537.429 330.989C537.429 329.046 536.036 327.799 534.273 327.799C532.51 327.799 531.117 329.046 531.117 330.989C531.117 332.932 532.454 334.19 534.217 334.19C535.991 334.19 537.429 332.932 537.429 330.989ZM532.42 330.989C532.42 329.585 533.285 328.911 534.251 328.911C535.205 328.911 536.115 329.585 536.115 330.989C536.115 332.393 535.171 333.078 534.217 333.078C533.251 333.078 532.42 332.393 532.42 330.989ZM538.897 332.37C538.897 333.628 539.582 334.088 540.683 334.088H541.693V333.022H540.907C540.368 333.022 540.189 332.831 540.189 332.37V328.945H541.693V327.9H540.189V326.362H538.897V327.9H538.167V328.945H538.897V332.37ZM542.447 330.966C542.447 332.876 543.738 334.19 545.344 334.19C546.378 334.19 547.119 333.695 547.512 333.168V334.088H548.803V327.9H547.512V328.799C547.13 328.293 546.411 327.799 545.367 327.799C543.738 327.799 542.447 329.057 542.447 330.966ZM547.512 330.989C547.512 332.325 546.602 333.078 545.636 333.078C544.682 333.078 543.761 332.303 543.761 330.966C543.761 329.63 544.682 328.911 545.636 328.911C546.602 328.911 547.512 329.663 547.512 330.989ZM550.485 334.088H551.765V325.778H550.485V334.088ZM555.937 330.966C555.937 332.876 557.229 334.19 558.835 334.19C559.868 334.19 560.609 333.695 561.003 333.168V334.088H562.294V327.9H561.003V328.799C560.621 328.293 559.902 327.799 558.857 327.799C557.229 327.799 555.937 329.057 555.937 330.966ZM561.003 330.989C561.003 332.325 560.093 333.078 559.127 333.078C558.172 333.078 557.251 332.303 557.251 330.966C557.251 329.63 558.172 328.911 559.127 328.911C560.093 328.911 561.003 329.663 561.003 330.989ZM572.747 334.088H574.016V330.438C574.016 328.709 572.915 327.799 571.467 327.799C570.568 327.799 569.692 328.271 569.31 329.023C568.883 328.215 568.064 327.799 567.087 327.799C566.345 327.799 565.671 328.102 565.256 328.608V327.9H563.976V334.088H565.256V330.629C565.256 329.495 565.874 328.911 566.817 328.911C567.749 328.911 568.367 329.495 568.367 330.629V334.088H569.636V330.629C569.636 329.495 570.254 328.911 571.197 328.911C572.129 328.911 572.747 329.495 572.747 330.629V334.088ZM581.542 330.989C581.542 329.046 580.149 327.799 578.386 327.799C576.622 327.799 575.23 329.046 575.23 330.989C575.23 332.932 576.566 334.19 578.329 334.19C580.104 334.19 581.542 332.932 581.542 330.989ZM576.533 330.989C576.533 329.585 577.397 328.911 578.363 328.911C579.318 328.911 580.227 329.585 580.227 330.989C580.227 332.393 579.284 333.078 578.329 333.078C577.364 333.078 576.533 332.393 576.533 330.989ZM588.411 327.9H587.13V331.348C587.13 332.482 586.513 333.066 585.569 333.066C584.637 333.066 584.02 332.482 584.02 331.348V327.9H582.75V331.539C582.75 333.269 583.851 334.178 585.3 334.178C586.03 334.178 586.726 333.875 587.13 333.347V334.088H588.411V327.9ZM594.492 334.088H595.761V330.438C595.761 328.709 594.671 327.799 593.222 327.799C592.481 327.799 591.796 328.102 591.381 328.608V327.9H590.1V334.088H591.381V330.629C591.381 329.495 591.998 328.911 592.942 328.911C593.874 328.911 594.492 329.495 594.492 330.629V334.088ZM597.596 332.37C597.596 333.628 598.281 334.088 599.382 334.088H600.393V333.022H599.606C599.067 333.022 598.888 332.831 598.888 332.37V328.945H600.393V327.9H598.888V326.362H597.596V327.9H596.866V328.945H597.596V332.37Z" fill="#8F9BBA"/>
<path d="M558.262 362.759H559.305V361.444C561.471 361.251 562.658 359.743 562.658 358.187C562.658 355.924 560.91 355.491 559.305 355.106V351.641C560.075 351.833 560.525 352.427 560.589 353.068H562.546C562.402 351.255 561.15 350.245 559.305 350.084V348.785H558.262V350.1C556.273 350.277 554.893 351.512 554.893 353.309C554.893 355.571 556.658 356.021 558.262 356.422V359.951C557.364 359.791 556.915 359.197 556.85 358.395H554.893C554.893 360.208 556.305 361.283 558.262 361.46V362.759ZM560.813 358.283C560.813 359.117 560.268 359.791 559.305 359.951V356.694C560.172 356.967 560.813 357.368 560.813 358.283ZM556.754 353.213C556.754 352.234 557.38 351.705 558.262 351.592V354.833C557.396 354.561 556.754 354.143 556.754 353.213ZM566.58 361.363H568.425V349.667H565.088V351.336H566.58V361.363ZM571.419 349.635V356.39H573.151C573.456 355.523 574.178 354.93 575.253 354.93C576.777 354.93 577.531 355.796 577.531 357.32C577.531 358.764 576.825 359.839 575.253 359.839C574.018 359.839 573.183 359.197 572.943 358.203H571.162C571.435 360.032 572.83 361.363 575.237 361.363C577.949 361.363 579.28 359.598 579.28 357.272C579.28 355.507 578.398 353.373 575.526 353.373C574.483 353.373 573.536 353.855 573.103 354.432V351.239H578.478V349.635H571.419ZM583.158 355.25C581.987 355.684 581.201 356.727 581.201 358.138C581.201 360.272 582.933 361.652 585.34 361.652C587.763 361.652 589.496 360.272 589.496 358.138C589.496 356.743 588.709 355.7 587.522 355.25C588.469 354.785 589.191 353.871 589.191 352.619C589.191 350.935 587.923 349.459 585.34 349.459C582.757 349.459 581.489 350.919 581.489 352.619C581.489 353.919 582.163 354.753 583.158 355.25ZM585.34 354.673C584.121 354.673 583.254 353.919 583.254 352.86C583.254 351.624 584.089 350.983 585.34 350.983C586.624 350.983 587.442 351.641 587.442 352.844C587.442 353.903 586.559 354.673 585.34 354.673ZM585.34 356.053C586.72 356.053 587.699 356.759 587.699 358.074C587.699 359.245 586.816 360.128 585.34 360.128C583.848 360.128 582.95 359.262 582.95 358.074C582.95 356.71 583.992 356.053 585.34 356.053ZM591.416 355.363C591.416 358.764 592.314 361.331 595.587 361.331C598.861 361.331 599.759 358.764 599.759 355.363C599.759 352.026 598.861 349.459 595.587 349.459C592.314 349.459 591.416 352.026 591.416 355.363ZM597.962 355.363C597.962 357.657 597.721 359.663 595.587 359.663C593.454 359.663 593.213 357.657 593.213 355.363C593.213 353.181 593.454 351.127 595.587 351.127C597.721 351.127 597.962 353.181 597.962 355.363Z" fill="black"/>
<path d="M651.72 329.877V327.327H653.135C654.134 327.327 654.584 327.799 654.584 328.608C654.584 329.394 654.134 329.877 653.135 329.877H651.72ZM655.898 328.608C655.898 327.339 654.988 326.283 653.135 326.283H650.439V334.088H651.72V330.921H653.135C655.168 330.921 655.898 329.72 655.898 328.608ZM656.692 330.966C656.692 332.876 657.983 334.19 659.589 334.19C660.623 334.19 661.364 333.695 661.757 333.168V334.088H663.049V327.9H661.757V328.799C661.375 328.293 660.656 327.799 659.612 327.799C657.983 327.799 656.692 329.057 656.692 330.966ZM661.757 330.989C661.757 332.325 660.847 333.078 659.881 333.078C658.927 333.078 658.006 332.303 658.006 330.966C658.006 329.63 658.927 328.911 659.881 328.911C660.847 328.911 661.757 329.663 661.757 330.989ZM667.167 332.617L665.426 327.9H664L666.437 333.987L665.179 336.997H666.504L670.301 327.9H668.975L667.167 332.617ZM673.873 328.877C674.827 328.877 675.58 329.484 675.602 330.438H672.177C672.312 329.461 673.008 328.877 673.873 328.877ZM676.77 332.247H675.389C675.153 332.73 674.715 333.111 673.929 333.111C672.986 333.111 672.256 332.494 672.166 331.472H676.894C676.928 331.258 676.939 331.056 676.939 330.843C676.939 329.023 675.692 327.799 673.929 327.799C672.098 327.799 670.84 329.046 670.84 330.989C670.84 332.932 672.154 334.19 673.929 334.19C675.445 334.19 676.422 333.325 676.77 332.247ZM677.772 330.966C677.772 332.876 679.064 334.19 680.692 334.19C681.703 334.19 682.444 333.718 682.837 333.156V334.088H684.129V325.778H682.837V328.765C682.366 328.181 681.512 327.799 680.704 327.799C679.064 327.799 677.772 329.057 677.772 330.966ZM682.837 330.989C682.837 332.325 681.928 333.078 680.962 333.078C680.007 333.078 679.086 332.303 679.086 330.966C679.086 329.63 680.007 328.911 680.962 328.911C681.928 328.911 682.837 329.663 682.837 330.989ZM688.301 330.966C688.301 332.876 689.593 334.19 691.199 334.19C692.232 334.19 692.973 333.695 693.366 333.168V334.088H694.658V327.9H693.366V328.799C692.985 328.293 692.266 327.799 691.221 327.799C689.593 327.799 688.301 329.057 688.301 330.966ZM693.366 330.989C693.366 332.325 692.457 333.078 691.491 333.078C690.536 333.078 689.615 332.303 689.615 330.966C689.615 329.63 690.536 328.911 691.491 328.911C692.457 328.911 693.366 329.663 693.366 330.989ZM705.111 334.088H706.38V330.438C706.38 328.709 705.279 327.799 703.83 327.799C702.932 327.799 702.056 328.271 701.674 329.023C701.247 328.215 700.427 327.799 699.45 327.799C698.709 327.799 698.035 328.102 697.62 328.608V327.9H696.339V334.088H697.62V330.629C697.62 329.495 698.237 328.911 699.181 328.911C700.113 328.911 700.731 329.495 700.731 330.629V334.088H702V330.629C702 329.495 702.617 328.911 703.561 328.911C704.493 328.911 705.111 329.495 705.111 330.629V334.088ZM713.905 330.989C713.905 329.046 712.513 327.799 710.749 327.799C708.986 327.799 707.594 329.046 707.594 330.989C707.594 332.932 708.93 334.19 710.693 334.19C712.468 334.19 713.905 332.932 713.905 330.989ZM708.896 330.989C708.896 329.585 709.761 328.911 710.727 328.911C711.682 328.911 712.591 329.585 712.591 330.989C712.591 332.393 711.648 333.078 710.693 333.078C709.727 333.078 708.896 332.393 708.896 330.989ZM720.775 327.9H719.494V331.348C719.494 332.482 718.877 333.066 717.933 333.066C717.001 333.066 716.383 332.482 716.383 331.348V327.9H715.114V331.539C715.114 333.269 716.215 334.178 717.664 334.178C718.394 334.178 719.09 333.875 719.494 333.347V334.088H720.775V327.9ZM726.855 334.088H728.124V330.438C728.124 328.709 727.035 327.799 725.586 327.799C724.845 327.799 724.16 328.102 723.744 328.608V327.9H722.464V334.088H723.744V330.629C723.744 329.495 724.362 328.911 725.306 328.911C726.238 328.911 726.855 329.495 726.855 330.629V334.088ZM729.96 332.37C729.96 333.628 730.645 334.088 731.746 334.088H732.756V333.022H731.97C731.431 333.022 731.251 332.831 731.251 332.37V328.945H732.756V327.9H731.251V326.362H729.96V327.9H729.23V328.945H729.96V332.37Z" fill="#8F9BBA"/>
<path d="M697.05 362.759H698.093V361.444C700.259 361.251 701.447 359.743 701.447 358.187C701.447 355.924 699.698 355.491 698.093 355.106V351.641C698.863 351.833 699.313 352.427 699.377 353.068H701.334C701.19 351.255 699.938 350.245 698.093 350.084V348.785H697.05V350.1C695.061 350.277 693.681 351.512 693.681 353.309C693.681 355.571 695.446 356.021 697.05 356.422V359.951C696.152 359.791 695.703 359.197 695.639 358.395H693.681C693.681 360.208 695.093 361.283 697.05 361.46V362.759ZM699.601 358.283C699.601 359.117 699.056 359.791 698.093 359.951V356.694C698.96 356.967 699.601 357.368 699.601 358.283ZM695.542 353.213C695.542 352.234 696.168 351.705 697.05 351.592V354.833C696.184 354.561 695.542 354.143 695.542 353.213ZM703.972 361.203H711.769V359.679H706.683C708.561 357.962 711.448 355.796 711.448 352.956C711.448 350.854 710.101 349.426 707.726 349.426C705.657 349.426 704.02 350.662 703.956 353.197H705.721C705.769 351.881 706.459 350.983 707.742 350.983C709.106 350.983 709.635 351.817 709.635 353.036C709.635 355.331 706.731 357.449 703.972 359.871V361.203ZM718.96 361.363H720.757V358.925H722.249V357.336H720.757V349.811H718.542L713.152 357.545V358.925H718.96V361.363ZM715.253 357.336L719.04 351.673V357.336H715.253ZM731.738 352.379C731.545 350.822 730.406 349.378 728.128 349.378C725.208 349.378 723.989 351.592 723.989 355.25C723.989 358.973 724.871 361.363 728.272 361.363C730.775 361.363 732.107 359.679 732.107 357.465C732.107 355.026 730.615 353.614 728.513 353.614C727.294 353.614 726.138 354.127 725.561 355.09C725.609 352.026 726.459 350.902 728.112 350.902C729.267 350.902 729.829 351.432 730.053 352.379H731.738ZM728.112 355.154C729.652 355.154 730.358 356.149 730.358 357.545C730.358 358.925 729.524 359.839 728.176 359.839C726.62 359.839 725.769 358.876 725.769 357.432C725.769 355.876 726.909 355.154 728.112 355.154Z" fill="black"/>
<path d="M775.837 326.271V332.089L771.984 326.271H770.704V334.088H771.984V328.259L775.837 334.088H777.117V326.271H775.837ZM781.404 328.877C782.359 328.877 783.111 329.484 783.133 330.438H779.708C779.843 329.461 780.539 328.877 781.404 328.877ZM784.301 332.246H782.92C782.684 332.729 782.246 333.111 781.46 333.111C780.517 333.111 779.787 332.493 779.697 331.471H784.425C784.459 331.258 784.47 331.056 784.47 330.842C784.47 329.023 783.223 327.799 781.46 327.799C779.629 327.799 778.372 329.046 778.372 330.988C778.372 332.931 779.686 334.189 781.46 334.189C782.976 334.189 783.953 333.324 784.301 332.246ZM788.931 334.088H790.38L788.381 330.955L790.38 327.9H789.043L787.785 330L786.449 327.9H785L786.999 331.045L785 334.088H786.337L787.595 331.988L788.931 334.088ZM791.537 332.37C791.537 333.628 792.222 334.088 793.322 334.088H794.333V333.021H793.547C793.008 333.021 792.828 332.83 792.828 332.37V328.944H794.333V327.9H792.828V326.361H791.537V327.9H790.807V328.944H791.537V332.37ZM799.711 328.81V327.9H798.431V337.031H799.711V333.19C800.115 333.673 800.845 334.189 801.867 334.189C803.496 334.189 804.776 332.875 804.776 330.966C804.776 329.057 803.496 327.799 801.867 327.799C800.857 327.799 800.104 328.293 799.711 328.81ZM803.473 330.966C803.473 332.302 802.553 333.077 801.587 333.077C800.632 333.077 799.711 332.325 799.711 330.988C799.711 329.663 800.632 328.911 801.587 328.911C802.553 328.911 803.473 329.63 803.473 330.966ZM805.615 330.966C805.615 332.875 806.907 334.189 808.513 334.189C809.546 334.189 810.287 333.695 810.681 333.167V334.088H811.972V327.9H810.681V328.798C810.299 328.293 809.58 327.799 808.535 327.799C806.907 327.799 805.615 329.057 805.615 330.966ZM810.681 330.988C810.681 332.325 809.771 333.077 808.805 333.077C807.85 333.077 806.929 332.302 806.929 330.966C806.929 329.63 807.85 328.911 808.805 328.911C809.771 328.911 810.681 329.663 810.681 330.988ZM816.091 332.617L814.35 327.9H812.923L815.361 333.987L814.103 336.997H815.428L819.224 327.9H817.899L816.091 332.617ZM828.962 334.088H830.231V330.438C830.231 328.709 829.131 327.799 827.682 327.799C826.783 327.799 825.907 328.271 825.525 329.023C825.099 328.214 824.279 327.799 823.302 327.799C822.56 327.799 821.887 328.102 821.471 328.608V327.9H820.191V334.088H821.471V330.629C821.471 329.495 822.089 328.911 823.032 328.911C823.964 328.911 824.582 329.495 824.582 330.629V334.088H825.851V330.629C825.851 329.495 826.469 328.911 827.412 328.911C828.344 328.911 828.962 329.495 828.962 330.629V334.088ZM834.465 328.877C835.42 328.877 836.172 329.484 836.195 330.438H832.769C832.904 329.461 833.6 328.877 834.465 328.877ZM837.363 332.246H835.981C835.746 332.729 835.308 333.111 834.521 333.111C833.578 333.111 832.848 332.493 832.758 331.471H837.486C837.52 331.258 837.531 331.056 837.531 330.842C837.531 329.023 836.285 327.799 834.521 327.799C832.691 327.799 831.433 329.046 831.433 330.988C831.433 332.931 832.747 334.189 834.521 334.189C836.038 334.189 837.015 333.324 837.363 332.246ZM843.183 334.088H844.452V330.438C844.452 328.709 843.362 327.799 841.914 327.799C841.172 327.799 840.487 328.102 840.072 328.608V327.9H838.792V334.088H840.072V330.629C840.072 329.495 840.69 328.911 841.633 328.911C842.565 328.911 843.183 329.495 843.183 330.629V334.088ZM846.287 332.37C846.287 333.628 846.972 334.088 848.073 334.088H849.084V333.021H848.298C847.759 333.021 847.579 332.83 847.579 332.37V328.944H849.084V327.9H847.579V326.361H846.287V327.9H845.557V328.944H846.287V332.37ZM852.755 330.966C852.755 332.875 854.046 334.189 855.652 334.189C856.686 334.189 857.427 333.695 857.82 333.167V334.088H859.111V327.9H857.82V328.798C857.438 328.293 856.719 327.799 855.675 327.799C854.046 327.799 852.755 329.057 852.755 330.966ZM857.82 330.988C857.82 332.325 856.91 333.077 855.944 333.077C854.99 333.077 854.069 332.302 854.069 330.966C854.069 329.63 854.99 328.911 855.944 328.911C856.91 328.911 857.82 329.663 857.82 330.988ZM869.564 334.088H870.833V330.438C870.833 328.709 869.733 327.799 868.284 327.799C867.385 327.799 866.509 328.271 866.128 329.023C865.701 328.214 864.881 327.799 863.904 327.799C863.163 327.799 862.489 328.102 862.073 328.608V327.9H860.793V334.088H862.073V330.629C862.073 329.495 862.691 328.911 863.634 328.911C864.566 328.911 865.184 329.495 865.184 330.629V334.088H866.453V330.629C866.453 329.495 867.071 328.911 868.014 328.911C868.946 328.911 869.564 329.495 869.564 330.629V334.088ZM878.359 330.988C878.359 329.046 876.966 327.799 875.203 327.799C873.44 327.799 872.047 329.046 872.047 330.988C872.047 332.931 873.383 334.189 875.147 334.189C876.921 334.189 878.359 332.931 878.359 330.988ZM873.35 330.988C873.35 329.585 874.215 328.911 875.18 328.911C876.135 328.911 877.045 329.585 877.045 330.988C877.045 332.392 876.101 333.077 875.147 333.077C874.181 333.077 873.35 332.392 873.35 330.988ZM885.228 327.9H883.948V331.348C883.948 332.482 883.33 333.066 882.387 333.066C881.455 333.066 880.837 332.482 880.837 331.348V327.9H879.568V331.539C879.568 333.268 880.668 334.178 882.117 334.178C882.847 334.178 883.543 333.875 883.948 333.347V334.088H885.228V327.9ZM891.309 334.088H892.578V330.438C892.578 328.709 891.489 327.799 890.04 327.799C889.298 327.799 888.613 328.102 888.198 328.608V327.9H886.918V334.088H888.198V330.629C888.198 329.495 888.816 328.911 889.759 328.911C890.691 328.911 891.309 329.495 891.309 330.629V334.088ZM894.413 332.37C894.413 333.628 895.098 334.088 896.199 334.088H897.21V333.021H896.424C895.885 333.021 895.705 332.83 895.705 332.37V328.944H897.21V327.9H895.705V326.361H894.413V327.9H893.683V328.944H894.413V332.37Z" fill="#8F9BBA"/>
<path d="M860.673 362.759H861.716V361.444C863.882 361.251 865.069 359.743 865.069 358.187C865.069 355.924 863.32 355.491 861.716 355.106V351.641C862.486 351.833 862.935 352.427 862.999 353.068H864.957C864.812 351.255 863.561 350.245 861.716 350.084V348.785H860.673V350.1C858.683 350.277 857.303 351.512 857.303 353.309C857.303 355.571 859.068 356.021 860.673 356.422V359.951C859.774 359.791 859.325 359.197 859.261 358.395H857.303C857.303 360.208 858.715 361.283 860.673 361.46V362.759ZM863.224 358.283C863.224 359.117 862.678 359.791 861.716 359.951V356.694C862.582 356.967 863.224 357.368 863.224 358.283ZM859.165 353.213C859.165 352.234 859.79 351.705 860.673 351.592V354.833C859.806 354.561 859.165 354.143 859.165 353.213ZM868.22 349.635V356.39H869.953C870.258 355.523 870.98 354.93 872.054 354.93C873.579 354.93 874.333 355.796 874.333 357.32C874.333 358.764 873.627 359.839 872.054 359.839C870.819 359.839 869.985 359.197 869.744 358.203H867.963C868.236 360.032 869.632 361.363 872.038 361.363C874.75 361.363 876.082 359.598 876.082 357.272C876.082 355.507 875.199 353.373 872.327 353.373C871.284 353.373 870.338 353.855 869.905 354.432V351.239H875.279V349.635H868.22ZM878.466 349.635V356.39H880.199C880.504 355.523 881.226 354.93 882.301 354.93C883.825 354.93 884.579 355.796 884.579 357.32C884.579 358.764 883.873 359.839 882.301 359.839C881.066 359.839 880.231 359.197 879.991 358.203H878.21C878.483 360.032 879.878 361.363 882.285 361.363C884.996 361.363 886.328 359.598 886.328 357.272C886.328 355.507 885.446 353.373 882.574 353.373C881.531 353.373 880.584 353.855 880.151 354.432V351.239H885.526V349.635H878.466ZM888.233 355.363C888.233 358.764 889.131 361.331 892.404 361.331C895.677 361.331 896.576 358.764 896.576 355.363C896.576 352.026 895.677 349.459 892.404 349.459C889.131 349.459 888.233 352.026 888.233 355.363ZM894.779 355.363C894.779 357.657 894.538 359.663 892.404 359.663C890.27 359.663 890.03 357.657 890.03 355.363C890.03 353.181 890.27 351.127 892.404 351.127C894.538 351.127 894.779 353.181 894.779 355.363Z" fill="black"/>
<path d="M939.912 326.272V332.089L936.06 326.272H934.779V334.088H936.06V328.26L939.912 334.088H941.192V326.272H939.912ZM945.479 328.877C946.434 328.877 947.186 329.484 947.209 330.438H943.783C943.918 329.461 944.614 328.877 945.479 328.877ZM948.377 332.247H946.995C946.759 332.73 946.321 333.111 945.535 333.111C944.592 333.111 943.862 332.494 943.772 331.472H948.5C948.534 331.258 948.545 331.056 948.545 330.843C948.545 329.023 947.299 327.799 945.535 327.799C943.705 327.799 942.447 329.046 942.447 330.989C942.447 332.932 943.761 334.19 945.535 334.19C947.051 334.19 948.029 333.325 948.377 332.247ZM953.006 334.088H954.455L952.456 330.955L954.455 327.9H953.119L951.861 330L950.524 327.9H949.075L951.075 331.045L949.075 334.088H950.412L951.67 331.988L953.006 334.088ZM955.612 332.37C955.612 333.628 956.297 334.088 957.398 334.088H958.408V333.022H957.622C957.083 333.022 956.903 332.831 956.903 332.37V328.945H958.408V327.9H956.903V326.362H955.612V327.9H954.882V328.945H955.612V332.37ZM963.786 328.81V327.9H962.506V337.031H963.786V333.19C964.191 333.673 964.921 334.19 965.943 334.19C967.571 334.19 968.851 332.876 968.851 330.966C968.851 329.057 967.571 327.799 965.943 327.799C964.932 327.799 964.179 328.293 963.786 328.81ZM967.549 330.966C967.549 332.303 966.628 333.078 965.662 333.078C964.707 333.078 963.786 332.325 963.786 330.989C963.786 329.663 964.707 328.911 965.662 328.911C966.628 328.911 967.549 329.63 967.549 330.966ZM969.691 330.966C969.691 332.876 970.982 334.19 972.588 334.19C973.621 334.19 974.363 333.695 974.756 333.168V334.088H976.047V327.9H974.756V328.799C974.374 328.293 973.655 327.799 972.611 327.799C970.982 327.799 969.691 329.057 969.691 330.966ZM974.756 330.989C974.756 332.325 973.846 333.078 972.88 333.078C971.926 333.078 971.005 332.303 971.005 330.966C971.005 329.63 971.926 328.911 972.88 328.911C973.846 328.911 974.756 329.663 974.756 330.989ZM980.166 332.617L978.425 327.9H976.999L979.436 333.987L978.178 336.997H979.503L983.299 327.9H981.974L980.166 332.617ZM993.035 334.088H994.302V330.438C994.302 328.709 993.203 327.799 991.757 327.799C990.858 327.799 989.982 328.271 989.601 329.023C989.174 328.215 988.354 327.799 987.377 327.799C986.636 327.799 985.962 328.102 985.546 328.608V327.9H984.266V334.088H985.546V330.629C985.546 329.495 986.164 328.911 987.107 328.911C988.039 328.911 988.657 329.495 988.657 330.629V334.088H989.926V330.629C989.926 329.495 990.544 328.911 991.487 328.911C992.417 328.911 993.035 329.495 993.035 330.629V334.088ZM998.538 328.877C999.493 328.877 1000.25 329.484 1000.27 330.438H996.845C996.982 329.461 997.68 328.877 998.538 328.877ZM1001.44 332.247H1000.05C999.822 332.73 999.38 333.111 998.594 333.111C997.656 333.111 996.926 332.494 996.837 331.472H1001.56C1001.59 331.258 1001.61 331.056 1001.61 330.843C1001.61 329.023 1000.36 327.799 998.594 327.799C996.765 327.799 995.506 329.046 995.506 330.989C995.506 332.932 996.821 334.19 998.594 334.19C1000.11 334.19 1001.09 333.325 1001.44 332.247ZM1007.26 334.088H1008.53V330.438C1008.53 328.709 1007.43 327.799 1005.99 327.799C1005.24 327.799 1004.56 328.102 1004.15 328.608V327.9H1002.87V334.088H1004.15V330.629C1004.15 329.495 1004.76 328.911 1005.71 328.911C1006.64 328.911 1007.26 329.495 1007.26 330.629V334.088ZM1010.36 332.37C1010.36 333.628 1011.04 334.088 1012.15 334.088H1013.16V333.022H1012.38C1011.83 333.022 1011.65 332.831 1011.65 332.37V328.945H1013.16V327.9H1011.65V326.362H1010.36V327.9H1009.63V328.945H1010.36V332.37ZM1016.83 330.966C1016.83 332.876 1018.12 334.19 1019.75 334.19C1020.76 334.19 1021.51 333.718 1021.9 333.156V334.088H1023.19V325.778H1021.9V328.765C1021.42 328.181 1020.57 327.799 1019.76 327.799C1018.12 327.799 1016.83 329.057 1016.83 330.966ZM1021.9 330.989C1021.9 332.325 1020.98 333.078 1020.02 333.078C1019.07 333.078 1018.14 332.303 1018.14 330.966C1018.14 329.63 1019.07 328.911 1020.02 328.911C1020.98 328.911 1021.9 329.663 1021.9 330.989ZM1024.44 330.966C1024.44 332.876 1025.73 334.19 1027.34 334.19C1028.37 334.19 1029.11 333.695 1029.5 333.168V334.088H1030.79V327.9H1029.5V328.799C1029.13 328.293 1028.4 327.799 1027.36 327.799C1025.73 327.799 1024.44 329.057 1024.44 330.966ZM1029.5 330.989C1029.5 332.325 1028.6 333.078 1027.63 333.078C1026.68 333.078 1025.76 332.303 1025.76 330.966C1025.76 329.63 1026.68 328.911 1027.63 328.911C1028.6 328.911 1029.5 329.663 1029.5 330.989ZM1032.68 332.37C1032.68 333.628 1033.37 334.088 1034.47 334.088H1035.48V333.022H1034.69C1034.16 333.022 1033.97 332.831 1033.97 332.37V328.945H1035.48V327.9H1033.97V326.362H1032.68V327.9H1031.95V328.945H1032.68V332.37ZM1039.27 328.877C1040.22 328.877 1040.97 329.484 1040.99 330.438H1037.57C1037.7 329.461 1038.4 328.877 1039.27 328.877ZM1042.16 332.247H1040.78C1040.54 332.73 1040.11 333.111 1039.32 333.111C1038.38 333.111 1037.65 332.494 1037.56 331.472H1042.28C1042.32 331.258 1042.33 331.056 1042.33 330.843C1042.33 329.023 1041.09 327.799 1039.32 327.799C1037.49 327.799 1036.23 329.046 1036.23 330.989C1036.23 332.932 1037.55 334.19 1039.32 334.19C1040.84 334.19 1041.82 333.325 1042.16 332.247Z" fill="#8F9BBA"/>
<path d="M953.054 355.363C953.054 358.764 953.953 361.331 957.226 361.331C960.499 361.331 961.397 358.764 961.397 355.363C961.397 352.026 960.499 349.458 957.226 349.458C953.953 349.458 953.054 352.026 953.054 355.363ZM959.6 355.363C959.6 357.657 959.36 359.663 957.226 359.663C955.092 359.663 954.851 357.657 954.851 355.363C954.851 353.181 955.092 351.127 957.226 351.127C959.36 351.127 959.6 353.181 959.6 355.363ZM963.012 349.715V351.271H968.949L964.44 361.363H966.285L970.746 351.079V349.715H963.012ZM972.327 364.171H974.124L978.488 346.218H976.675L972.327 364.171ZM980.552 355.363C980.552 358.764 981.451 361.331 984.724 361.331C987.997 361.331 988.895 358.764 988.895 355.363C988.895 352.026 987.997 349.458 984.724 349.458C981.451 349.458 980.552 352.026 980.552 355.363ZM987.099 355.363C987.099 357.657 986.858 359.663 984.724 359.663C982.59 359.663 982.349 357.657 982.349 355.363C982.349 353.181 982.59 351.127 984.724 351.127C986.858 351.127 987.099 353.181 987.099 355.363ZM992.802 355.25C991.633 355.684 990.846 356.726 990.846 358.138C990.846 360.272 992.578 361.652 994.984 361.652C997.407 361.652 999.14 360.272 999.14 358.138C999.14 356.743 998.354 355.7 997.166 355.25C998.113 354.785 998.835 353.871 998.835 352.619C998.835 350.935 997.567 349.458 994.984 349.458C992.401 349.458 991.135 350.918 991.135 352.619C991.135 353.919 991.809 354.753 992.802 355.25ZM994.984 354.673C993.765 354.673 992.898 353.919 992.898 352.86C992.898 351.624 993.733 350.983 994.984 350.983C996.268 350.983 997.086 351.64 997.086 352.844C997.086 353.903 996.204 354.673 994.984 354.673ZM994.984 356.053C996.364 356.053 997.343 356.759 997.343 358.074C997.343 359.245 996.46 360.128 994.984 360.128C993.492 360.128 992.594 359.261 992.594 358.074C992.594 356.71 993.637 356.053 994.984 356.053ZM1001.08 364.171H1002.88L1007.24 346.218H1005.43L1001.08 364.171ZM1009.16 361.203H1016.96V359.679H1011.87C1013.75 357.962 1016.64 355.796 1016.64 352.956C1016.64 350.854 1015.29 349.426 1012.91 349.426C1010.84 349.426 1009.21 350.662 1009.14 353.197H1010.91C1010.96 351.881 1011.65 350.983 1012.93 350.983C1014.29 350.983 1014.82 351.817 1014.82 353.036C1014.82 355.331 1011.92 357.448 1009.16 359.871V361.203ZM1018.56 355.363C1018.56 358.764 1019.46 361.331 1022.73 361.331C1026.01 361.331 1026.9 358.764 1026.9 355.363C1026.9 352.026 1026.01 349.458 1022.73 349.458C1019.46 349.458 1018.56 352.026 1018.56 355.363ZM1025.11 355.363C1025.11 357.657 1024.87 359.663 1022.73 359.663C1020.6 359.663 1020.36 357.657 1020.36 355.363C1020.36 353.181 1020.6 351.127 1022.73 351.127C1024.87 351.127 1025.11 353.181 1025.11 355.363ZM1028.69 361.203H1036.49V359.679H1031.4C1033.28 357.962 1036.17 355.796 1036.17 352.956C1036.17 350.854 1034.82 349.426 1032.45 349.426C1030.38 349.426 1028.74 350.662 1028.68 353.197H1030.44C1030.49 351.881 1031.18 350.983 1032.46 350.983C1033.83 350.983 1034.36 351.817 1034.36 353.036C1034.36 355.331 1031.45 357.448 1028.69 359.871V361.203ZM1039.35 361.363H1041.2V349.667H1037.86V351.336H1039.35V361.363Z" fill="black"/>
<path d="M352.046 385.429H1042.75" stroke="#C9D4EA" stroke-width="0.802208"/>
<path d="M788.297 424.266V420.57H790.232C791.734 420.57 792.369 421.263 792.369 422.433C792.369 423.559 791.734 424.266 790.232 424.266H788.297ZM793.712 422.433C793.712 420.786 792.6 419.487 790.232 419.487H786.983V429.551H788.297V425.349H790.232C792.73 425.349 793.712 423.963 793.712 422.433ZM794.855 425.566C794.855 428.021 796.486 429.681 798.595 429.681C800.053 429.681 801.078 428.93 801.555 428.078V429.551H802.883V421.638H801.555V423.082C801.093 422.259 800.082 421.508 798.609 421.508C796.486 421.508 794.855 423.097 794.855 425.566ZM801.555 425.58C801.555 427.443 800.313 428.526 798.869 428.526C797.425 428.526 796.198 427.429 796.198 425.566C796.198 423.703 797.425 422.649 798.869 422.649C800.313 422.649 801.555 423.747 801.555 425.58ZM808.107 428.05L805.624 421.638H804.165L807.356 429.465L805.797 433.277H807.154L811.919 421.638H810.562L808.107 428.05ZM822.88 429.551H824.179V424.887C824.179 422.62 822.779 421.494 820.945 421.494C819.876 421.494 818.923 421.942 818.403 422.765V421.638H817.089V429.551H818.403V425.176C818.403 423.472 819.328 422.635 820.671 422.635C821.999 422.635 822.88 423.458 822.88 425.075V429.551ZM829.691 422.62C831.048 422.62 832.203 423.472 832.189 425.017H827.192C827.337 423.472 828.405 422.62 829.691 422.62ZM833.387 427.111H831.972C831.683 427.963 830.932 428.569 829.748 428.569C828.405 428.569 827.279 427.689 827.178 426.086H833.503C833.532 425.811 833.546 425.58 833.546 425.292C833.546 423.126 832.044 421.508 829.748 421.508C827.438 421.508 825.835 423.082 825.835 425.58C825.835 428.093 827.496 429.681 829.748 429.681C831.712 429.681 832.983 428.555 833.387 427.111ZM839.41 429.551H840.897L838.342 425.552L840.883 421.638H839.511L837.721 424.57L835.843 421.638H834.356L836.912 425.624L834.356 429.551H835.728L837.533 426.606L839.41 429.551ZM842.479 427.385C842.479 428.974 843.273 429.551 844.673 429.551H845.857V428.439H844.89C844.081 428.439 843.793 428.165 843.793 427.385V422.721H845.857V421.638H843.793V419.646H842.479V421.638H841.453V422.721H842.479V427.385ZM852.614 423.097V421.638H851.3V433.306H852.614V428.093C853.105 428.902 854.13 429.681 855.574 429.681C857.696 429.681 859.328 428.021 859.328 425.566C859.328 423.097 857.696 421.508 855.574 421.508C854.13 421.508 853.09 422.259 852.614 423.097ZM857.985 425.566C857.985 427.429 856.758 428.526 855.299 428.526C853.87 428.526 852.614 427.443 852.614 425.58C852.614 423.747 853.87 422.649 855.299 422.649C856.758 422.649 857.985 423.703 857.985 425.566ZM860.567 425.566C860.567 428.021 862.198 429.681 864.307 429.681C865.765 429.681 866.79 428.93 867.267 428.078V429.551H868.595V421.638H867.267V423.082C866.805 422.259 865.794 421.508 864.321 421.508C862.198 421.508 860.567 423.097 860.567 425.566ZM867.267 425.58C867.267 427.443 866.025 428.526 864.581 428.526C863.137 428.526 861.91 427.429 861.91 425.566C861.91 423.703 863.137 422.649 864.581 422.649C866.025 422.649 867.267 423.747 867.267 425.58ZM873.819 428.05L871.336 421.638H869.877L873.068 429.465L871.509 433.277H872.866L877.631 421.638H876.274L873.819 428.05ZM890.374 429.551H891.674V424.887C891.674 422.62 890.273 421.494 888.468 421.494C887.255 421.494 886.129 422.115 885.667 423.256C885.147 422.072 884.064 421.494 882.765 421.494C881.725 421.494 880.786 421.942 880.267 422.779V421.638H878.953V429.551H880.267V425.191C880.267 423.487 881.176 422.635 882.505 422.635C883.804 422.635 884.671 423.458 884.671 425.075V429.551H885.97V425.191C885.97 423.487 886.88 422.635 888.208 422.635C889.508 422.635 890.374 423.458 890.374 425.075V429.551ZM897.194 422.62C898.551 422.62 899.706 423.472 899.692 425.017H894.696C894.84 423.472 895.909 422.62 897.194 422.62ZM900.891 427.111H899.475C899.187 427.963 898.436 428.569 897.252 428.569C895.909 428.569 894.783 427.689 894.681 426.086H901.006C901.035 425.811 901.049 425.58 901.049 425.292C901.049 423.126 899.548 421.508 897.252 421.508C894.941 421.508 893.339 423.082 893.339 425.58C893.339 428.093 894.999 429.681 897.252 429.681C899.215 429.681 900.486 428.555 900.891 427.111ZM908.574 429.551H909.874V424.887C909.874 422.62 908.473 421.494 906.639 421.494C905.571 421.494 904.618 421.942 904.098 422.765V421.638H902.784V429.551H904.098V425.176C904.098 423.472 905.022 422.635 906.365 422.635C907.693 422.635 908.574 423.458 908.574 425.075V429.551ZM912.308 427.385C912.308 428.974 913.103 429.551 914.503 429.551H915.687V428.439H914.72C913.911 428.439 913.622 428.165 913.622 427.385V422.721H915.687V421.638H913.622V419.646H912.308V421.638H911.283V422.721H912.308V427.385Z" fill="#53C48A"/>
<path d="M778.018 405.485H924.02V403.88H778.018V405.485ZM929.636 411.1V438.375H931.24V411.1H929.636ZM924.02 443.991H778.018V445.595H924.02V443.991ZM772.403 438.375V411.1H770.799V438.375H772.403ZM778.018 443.991C774.917 443.991 772.403 441.477 772.403 438.375H770.799C770.799 442.363 774.031 445.595 778.018 445.595V443.991ZM929.636 438.375C929.636 441.477 927.122 443.991 924.02 443.991V445.595C928.008 445.595 931.24 442.363 931.24 438.375H929.636ZM924.02 405.485C927.122 405.485 929.636 407.999 929.636 411.1H931.24C931.24 407.112 928.008 403.88 924.02 403.88V405.485ZM778.018 403.88C774.031 403.88 770.799 407.112 770.799 411.1H772.403C772.403 407.999 774.917 405.485 778.018 405.485V403.88Z" fill="#53C48A"/>
<path d="M943.273 411.1C943.273 407.556 946.147 404.683 949.691 404.683H1036.33C1039.88 404.683 1042.75 407.556 1042.75 411.1V438.375C1042.75 441.92 1039.88 444.793 1036.33 444.793H949.691C946.147 444.793 943.273 441.92 943.273 438.375V411.1Z" fill="#53C48A"/>
<path d="M961.515 424.266V420.57H963.45C964.951 420.57 965.587 421.263 965.587 422.432C965.587 423.559 964.951 424.266 963.45 424.266H961.515ZM966.93 422.432C966.93 420.786 965.818 419.487 963.45 419.487H960.201V429.551H961.515V425.349H963.45C965.948 425.349 966.93 423.963 966.93 422.432ZM968.072 425.566C968.072 428.021 969.704 429.681 971.812 429.681C973.27 429.681 974.295 428.93 974.772 428.078V429.551H976.1V421.638H974.772V423.082C974.31 422.259 973.299 421.508 971.826 421.508C969.704 421.508 968.072 423.097 968.072 425.566ZM974.772 425.58C974.772 427.443 973.53 428.526 972.086 428.526C970.642 428.526 969.415 427.429 969.415 425.566C969.415 423.703 970.642 422.649 972.086 422.649C973.53 422.649 974.772 423.746 974.772 425.58ZM981.324 428.05L978.841 421.638H977.382L980.574 429.465L979.014 433.277H980.371L985.137 421.638H983.779L981.324 428.05ZM990.307 429.551H991.621V421.638H990.307V429.551ZM990.985 420.353C991.462 420.353 991.852 419.963 991.852 419.458C991.852 418.952 991.462 418.563 990.985 418.563C990.48 418.563 990.09 418.952 990.09 419.458C990.09 419.963 990.48 420.353 990.985 420.353ZM999.652 429.551H1000.95V424.887C1000.95 422.62 999.547 421.494 997.718 421.494C996.643 421.494 995.697 421.941 995.175 422.765V421.638H993.86V429.551H995.175V425.176C995.175 423.472 996.098 422.635 997.438 422.635C998.769 422.635 999.652 423.458 999.652 425.075V429.551ZM1007.19 429.551H1008.51V422.721H1010.17V421.638H1008.51V421.075C1008.51 420.05 1008.89 419.617 1010.08 419.617V418.519C1008.06 418.519 1007.19 419.313 1007.19 421.075V421.638H1006.17V422.721H1007.19V429.551ZM1018.72 421.638H1017.4V425.985C1017.4 427.689 1016.49 428.526 1015.13 428.526C1013.81 428.526 1012.93 427.703 1012.93 426.1V421.638H1011.63V426.273C1011.63 428.54 1013.06 429.667 1014.88 429.667C1015.93 429.667 1016.9 429.205 1017.4 428.382V429.551H1018.72V421.638ZM1020.93 429.551H1022.25V418.866H1020.93V429.551ZM1024.49 429.551H1025.8V418.866H1024.49V429.551Z" fill="white"/>
<defs>
<filter id="filter0_di" x="87" y="0.000244141" width="888.988" height="37.1569" filterUnits="userSpaceOnUse" color-interpolation-filters="sRGB">
<feFlood flood-opacity="0" result="BackgroundImageFix"/>
<feColorMatrix in="SourceAlpha" type="matrix" values="0 0 0 0 0 0 0 0 0 0 0 0 0 0 0 0 0 0 127 0" result="hardAlpha"/>
<feOffset dy="0.347261"/>
<feColorMatrix type="matrix" values="0 0 0 0 0 0 0 0 0 0 0 0 0 0 0 0 0 0 0.15 0"/>
<feBlend mode="normal" in2="BackgroundImageFix" result="effect1_dropShadow"/>
<feBlend mode="normal" in="SourceGraphic" in2="effect1_dropShadow" result="shape"/>
<feColorMatrix in="SourceAlpha" type="matrix" values="0 0 0 0 0 0 0 0 0 0 0 0 0 0 0 0 0 0 127 0" result="hardAlpha"/>
<feOffset dy="-0.347261"/>
<feComposite in2="hardAlpha" operator="arithmetic" k2="-1" k3="1"/>
<feColorMatrix type="matrix" values="0 0 0 0 0 0 0 0 0 0 0 0 0 0 0 0 0 0 0.05 0"/>
<feBlend mode="normal" in2="shape" result="effect2_innerShadow"/>
</filter>
<filter id="filter1_i" x="101.585" y="13.8909" width="8.33426" height="8.33426" filterUnits="userSpaceOnUse" color-interpolation-filters="sRGB">
<feFlood flood-opacity="0" result="BackgroundImageFix"/>
<feBlend mode="normal" in="SourceGraphic" in2="BackgroundImageFix" result="shape"/>
<feColorMatrix in="SourceAlpha" type="matrix" values="0 0 0 0 0 0 0 0 0 0 0 0 0 0 0 0 0 0 127 0" result="hardAlpha"/>
<feOffset/>
<feGaussianBlur stdDeviation="2.08356"/>
<feComposite in2="hardAlpha" operator="arithmetic" k2="-1" k3="1"/>
<feColorMatrix type="matrix" values="0 0 0 0 0.92549 0 0 0 0 0.427451 0 0 0 0 0.384314 0 0 0 1 0"/>
<feBlend mode="normal" in2="shape" result="effect1_innerShadow"/>
</filter>
<filter id="filter2_i" x="115.476" y="13.8909" width="8.33426" height="8.33426" filterUnits="userSpaceOnUse" color-interpolation-filters="sRGB">
<feFlood flood-opacity="0" result="BackgroundImageFix"/>
<feBlend mode="normal" in="SourceGraphic" in2="BackgroundImageFix" result="shape"/>
<feColorMatrix in="SourceAlpha" type="matrix" values="0 0 0 0 0 0 0 0 0 0 0 0 0 0 0 0 0 0 127 0" result="hardAlpha"/>
<feOffset/>
<feGaussianBlur stdDeviation="2.08356"/>
<feComposite in2="hardAlpha" operator="arithmetic" k2="-1" k3="1"/>
<feColorMatrix type="matrix" values="0 0 0 0 0.960784 0 0 0 0 0.768627 0 0 0 0 0.317647 0 0 0 1 0"/>
<feBlend mode="normal" in2="shape" result="effect1_innerShadow"/>
</filter>
<filter id="filter3_i" x="129.366" y="13.8909" width="8.33426" height="8.33426" filterUnits="userSpaceOnUse" color-interpolation-filters="sRGB">
<feFlood flood-opacity="0" result="BackgroundImageFix"/>
<feBlend mode="normal" in="SourceGraphic" in2="BackgroundImageFix" result="shape"/>
<feColorMatrix in="SourceAlpha" type="matrix" values="0 0 0 0 0 0 0 0 0 0 0 0 0 0 0 0 0 0 127 0" result="hardAlpha"/>
<feOffset/>
<feGaussianBlur stdDeviation="2.08356"/>
<feComposite in2="hardAlpha" operator="arithmetic" k2="-1" k3="1"/>
<feColorMatrix type="matrix" values="0 0 0 0 0.407843 0 0 0 0 0.8 0 0 0 0 0.345098 0 0 0 1 0"/>
<feBlend mode="normal" in2="shape" result="effect1_innerShadow"/>
</filter>
<clipPath id="clip0">
</clipPath>
<clipPath id="clip1">
<rect width="888.988" height="632.169" fill="white" transform="translate(87 36.7354)"/>
</clipPath>
<clipPath id="clip2">
<rect width="108.345" height="19.4466" fill="white" transform="translate(859.309 8.33459)"/>
</clipPath>
<clipPath id="clip3">
<rect width="45.8384" height="19.4466" fill="white" transform="translate(180.065 8.33459)"/>
</clipPath>
<clipPath id="clip4">
<rect width="872" height="162.046" fill="white" transform="translate(190 302)"/>
</clipPath>
</defs>
</svg>
