<svg width="34" height="34" viewBox="0 0 34 34" fill="none" xmlns="http://www.w3.org/2000/svg">
<circle cx="17.1417" cy="16.8583" r="15.1583" fill="white"/>
<path fill-rule="evenodd" clip-rule="evenodd" d="M0 17C0 7.61116 7.61113 0 16.9999 0H17.0987C21.5943 0.0130812 25.9005 1.8115 29.0701 4.99962C32.2397 8.18775 34.013 12.5044 33.9999 17C33.9999 26.3888 26.3887 34 16.9999 34C7.61113 34 0 26.3888 0 17ZM15.5181 23.5448L17.2881 17.5763L20.0459 16.7942L20.6222 14.8184L17.9055 15.6416L20.7868 5.84504V5.68862C20.7825 5.56196 20.7281 5.4422 20.6354 5.35573C20.5428 5.26925 20.4195 5.22316 20.2929 5.2276H16.6295C16.3441 5.21881 16.0894 5.40556 16.012 5.68039L12.5956 17.2881L9.87889 18.1114L9.26146 20.0048L11.9782 19.1816L9.5496 27.4552H24.0386C24.325 27.4671 24.5813 27.2791 24.6561 27.0024L25.4793 24.1622V24.0058C25.475 23.8792 25.4205 23.7594 25.3279 23.6729C25.2353 23.5864 25.112 23.5404 24.9854 23.5448H15.5181Z" fill="#345D9D"/>
</svg>
