<svg width="39" height="24" viewBox="0 0 39 24" fill="none" xmlns="http://www.w3.org/2000/svg">
<path fill-rule="evenodd" clip-rule="evenodd" d="M26.859 23.8699C33.1551 23.8699 38.2591 18.7066 38.2591 12.3374C38.2591 5.96819 33.1551 0.804932 26.859 0.804932C24.0372 0.804932 21.4548 1.84206 19.4641 3.56005C17.4734 1.84223 14.8912 0.805224 12.0696 0.805224C5.77345 0.805224 0.669434 5.96848 0.669434 12.3377C0.669434 18.7069 5.77345 23.8702 12.0696 23.8702C14.8914 23.8702 17.4737 22.833 19.4644 21.115C21.4551 22.8329 24.0373 23.8699 26.859 23.8699Z" fill="#ED0006"/>
<path fill-rule="evenodd" clip-rule="evenodd" d="M19.4648 21.1166C21.916 19.0013 23.4703 15.8538 23.4703 12.3391C23.4703 8.82438 21.916 5.67689 19.4648 3.56163C21.4555 1.84371 24.0378 0.806641 26.8596 0.806641C33.1557 0.806641 38.2597 5.9699 38.2597 12.3391C38.2597 18.7083 33.1557 23.8716 26.8596 23.8716C24.0378 23.8716 21.4555 22.8345 19.4648 21.1166Z" fill="#F9A000"/>
<path fill-rule="evenodd" clip-rule="evenodd" d="M19.4639 21.1158C21.9151 19.0005 23.4693 15.853 23.4693 12.3383C23.4693 8.82355 21.9151 5.67606 19.4639 3.56079C17.0128 5.67606 15.4585 8.82355 15.4585 12.3383C15.4585 15.853 17.0128 19.0005 19.4639 21.1158Z" fill="#FF5E00"/>
</svg>
