<svg width="34" height="34" viewBox="0 0 34 34" fill="none" xmlns="http://www.w3.org/2000/svg">
<circle cx="17" cy="17" r="17" fill="white"/>
<path d="M34 16.9983C34 26.3859 26.3904 33.9966 17.0022 33.9966C7.61393 33.9966 0.00439453 26.3859 0.00439453 16.9983C0.00439453 7.61072 7.61411 0 17.0022 0C26.3902 0 34 7.60999 34 16.9983Z" fill="white"/>
<path d="M17.0023 0C7.61744 0 -0.00558564 7.62149 0.00636168 16.9978C0.00871494 18.8737 0.307851 20.6782 0.869284 22.3661H5.95486V8.06671L17.0023 19.1141L28.0493 8.06671V22.3664H33.1359C33.6982 20.6786 33.9958 18.8741 33.9991 16.9981C34.0151 7.61198 26.3882 0.00226275 17.0023 0.00226275V0Z" fill="#F26822"/>
<path d="M14.4615 21.6537L9.64031 16.8323V25.8302H5.95428L2.47607 25.8309C5.45956 30.7257 10.8514 33.9999 17.0021 33.9999C23.1528 33.9999 28.545 30.7249 31.529 25.8301H24.3628V16.8323L19.5414 21.6537L17.0016 24.1935L14.4617 21.6537V21.6537H14.4615Z" fill="#4D4D4D"/>
</svg>
