<svg width="64" height="64" viewBox="0 0 64 64" fill="none" xmlns="http://www.w3.org/2000/svg">
<path d="M15.9193 2.6665H8.07935C4.69268 2.6665 2.66602 4.69317 2.66602 8.07984V15.9198C2.66602 19.3065 4.69268 21.3332 8.07935 21.3332H15.9193C19.306 21.3332 21.3327 19.3065 21.3327 15.9198V8.07984C21.3327 4.69317 19.306 2.6665 15.9193 2.6665ZM17.2527 14.8265C17.9193 15.4932 17.9193 16.5865 17.2527 17.2532C16.906 17.5732 16.4527 17.7332 16.026 17.7332C15.5993 17.7332 15.1727 17.5732 14.826 17.2532L11.9727 14.4265L9.19935 17.2532C8.85268 17.5732 8.42602 17.7332 7.94602 17.7332C7.51935 17.7332 7.09268 17.5732 6.74602 17.2532C6.07935 16.5865 6.07935 15.4932 6.74602 14.8265L9.59935 11.9998L6.77268 9.19984C6.10602 8.53317 6.10602 7.43984 6.77268 6.77317C7.43935 6.1065 8.53268 6.1065 9.19935 6.77317L11.9727 9.59984L14.7993 6.77317C15.466 6.1065 16.5593 6.1065 17.226 6.77317C17.8927 7.43984 17.8927 8.53317 17.226 9.19984L14.426 11.9998L17.2527 14.8265Z" fill="#53C48A"/>
<path opacity="0.4" d="M44.346 5.3335H20.746C21.1193 6.10683 21.3327 7.0135 21.3327 8.08016V15.9202C21.3327 19.3068 19.306 21.3335 15.9193 21.3335H8.07935C7.57268 21.3335 7.11935 21.2802 6.66602 21.1735V45.6802C6.66602 52.8535 12.4793 58.6668 19.6527 58.6668H40.906C41.3594 58.6668 41.8127 58.5068 42.1594 58.1335C46.106 54.1602 52.986 47.2268 56.8527 43.3335C57.1993 42.9868 57.3327 42.5868 57.3327 42.1868V18.3202C57.3327 11.1468 51.5193 5.3335 44.346 5.3335Z" fill="#53C48A"/>
<path d="M57.3338 42.1871C57.3338 42.5871 57.2005 42.9871 56.8538 43.3338C52.9872 47.2271 46.1072 54.1605 42.1605 58.1338C41.8138 58.5071 41.3605 58.6671 40.9072 58.6671C40.0272 58.6671 39.1738 57.9738 39.1738 56.9605V47.6271C39.1738 43.7338 42.4805 40.5071 46.5338 40.5071C49.0672 40.4805 52.5872 40.4805 55.6005 40.4805C56.6405 40.4805 57.3338 41.3071 57.3338 42.1871Z" fill="#53C48A"/>
<path d="M39.4136 33.8931H19.627C18.507 33.8931 17.627 32.9864 17.627 31.8931C17.627 30.7997 18.5336 29.8931 19.627 29.8931H39.4136C40.5336 29.8931 41.4136 30.7997 41.4136 31.8931C41.4136 32.9864 40.5336 33.8931 39.4136 33.8931Z" fill="#53C48A"/>
<path d="M32.0003 43.7866H19.627C18.507 43.7866 17.627 42.88 17.627 41.7866C17.627 40.6666 18.5336 39.7866 19.627 39.7866H32.0003C33.1203 39.7866 34.0003 40.6933 34.0003 41.7866C34.0003 42.88 33.1203 43.7866 32.0003 43.7866Z" fill="#53C48A"/>
</svg>
