<svg width="71" height="72" viewBox="0 0 71 72" fill="none" xmlns="http://www.w3.org/2000/svg">
<path d="M68.9549 44.386C64.3249 62.9576 45.5149 74.26 26.941 69.6288C8.37502 64.9988 -2.9273 46.1876 1.70472 27.6175C6.33267 9.04384 25.1427 -2.25933 43.7108 2.37066C62.2832 7.00064 73.5849 25.8139 68.9544 44.3864L68.9547 44.386H68.9549Z" stroke="#E1E9F8" stroke-width="1.33333"/>
<path fill-rule="evenodd" clip-rule="evenodd" d="M39.3329 39.7988C39.1093 39.8155 37.9545 39.8844 35.3784 39.8844C33.3295 39.8844 31.8748 39.823 31.3644 39.7988C23.4462 39.4504 17.536 38.0721 17.536 36.4217C17.536 34.7714 23.4462 33.3949 31.3644 33.041V38.426C31.8822 38.4632 33.3649 38.5508 35.4138 38.5508C37.8725 38.5508 39.1038 38.4483 39.3254 38.4278V33.0447C47.2268 33.3968 53.124 34.7751 53.124 36.4217C53.124 38.0683 47.2287 39.4467 39.3254 39.7969L39.3329 39.7988ZM39.3329 32.4877V27.669H50.3598V20.3208H20.3374V27.669H31.3625V32.4859C22.4012 32.8975 15.6621 34.6726 15.6621 36.7998C15.6621 38.927 22.4012 40.7002 31.3625 41.1137V56.5552H39.331V41.1081C48.2718 40.6965 54.9997 38.9232 54.9997 36.7979C54.9997 34.6726 48.2774 32.8994 39.331 32.4859L39.3329 32.4877Z" fill="#B0BBD5"/>
</svg>
