<svg width="81" height="26" viewBox="0 0 81 26" fill="none" xmlns="http://www.w3.org/2000/svg">
<path fill-rule="evenodd" clip-rule="evenodd" d="M20.3892 25.8017H13.4847L8.30722 6.04926C8.06147 5.14065 7.53969 4.33738 6.77215 3.9588C4.85668 3.00739 2.74596 2.25021 0.443359 1.86833V1.10786H11.5659C13.1009 1.10786 14.2522 2.25021 14.4441 3.57692L17.1305 17.825L24.0316 1.10786H30.7441L20.3892 25.8017ZM34.5817 25.8017H28.0611L33.4304 1.10786H39.9511L34.5817 25.8017ZM48.3872 7.9486C48.5791 6.6186 49.7304 5.85813 51.0736 5.85813C53.1843 5.66719 55.4835 6.04907 57.4024 6.99719L58.5537 1.6805C56.6348 0.920027 54.5241 0.538147 52.6086 0.538147C46.2799 0.538147 41.6747 3.95861 41.6747 8.70577C41.6747 12.3172 44.9367 14.2134 47.2393 15.3558C49.7304 16.4948 50.6898 17.2553 50.4979 18.3943C50.4979 20.1029 48.5791 20.8634 46.6636 20.8634C44.361 20.8634 42.0584 20.2939 39.9511 19.3424L38.7998 24.6624C41.1024 25.6105 43.5935 25.9924 45.8961 25.9924C52.9924 26.1801 57.4024 22.7629 57.4024 17.6339C57.4024 11.1748 48.3872 10.7962 48.3872 7.9486ZM80.2231 25.8017L75.0456 1.10786H69.4843C68.333 1.10786 67.1817 1.86833 66.798 3.00739L57.2105 25.8017H63.9231L65.2629 22.1936H73.5105L74.2781 25.8017H80.2231ZM70.4435 7.75665L72.359 17.0633H66.9896L70.4435 7.75665Z" fill="#B0BBD5"/>
</svg>
