<svg width="67" height="41" viewBox="0 0 67 41" fill="none" xmlns="http://www.w3.org/2000/svg">
<path fill-rule="evenodd" clip-rule="evenodd" d="M33.7143 36.1685C30.2238 39.1806 25.6961 40.999 20.7486 40.999C9.70905 40.999 0.759766 31.9458 0.759766 20.7781C0.759766 9.61048 9.70905 0.557312 20.7486 0.557312C25.6962 0.557312 30.2239 2.37573 33.7144 5.38795C37.2049 2.37582 41.7326 0.557451 46.6801 0.557451C57.7197 0.557451 66.6689 9.61062 66.6689 20.7783C66.6689 31.9459 57.7197 40.9991 46.6801 40.9991C41.7325 40.9991 37.2048 39.1807 33.7143 36.1685Z" fill="#B0BBD5"/>
<path fill-rule="evenodd" clip-rule="evenodd" d="M33.7148 36.1698C38.0126 32.4609 40.7378 26.9422 40.7378 20.7795C40.7378 14.6169 38.0126 9.09818 33.7148 5.3893C37.2053 2.37712 41.7331 0.558716 46.6807 0.558716C57.7202 0.558716 66.6694 9.61189 66.6694 20.7795C66.6694 31.9472 57.7202 41.0004 46.6807 41.0004C41.7331 41.0004 37.2053 39.182 33.7148 36.1698Z" fill="#E1E9F8"/>
<path fill-rule="evenodd" clip-rule="evenodd" d="M33.7139 36.1686C38.0117 32.4597 40.7369 26.941 40.7369 20.7784C40.7369 14.6157 38.0117 9.09699 33.7139 5.38812C29.4161 9.09699 26.6909 14.6157 26.6909 20.7784C26.6909 26.941 29.4161 32.4597 33.7139 36.1686Z" fill="#B0BBD5"/>
</svg>
