<svg width="50" height="52" viewBox="0 0 50 52" fill="none" xmlns="http://www.w3.org/2000/svg">
<path fill-rule="evenodd" clip-rule="evenodd" d="M12.6451 8.79942C5.94506 13.718 0.344444 17.8514 0.199383 17.9851C0.054321 18.1186 0.0317901 18.8032 0.149383 19.5065L0.362963 20.785H25H49.637L49.8506 19.5065C49.9682 18.8032 49.9457 18.119 49.8006 17.9857C49.1861 17.4204 25.5364 0.132273 25.1988 0.00117034C24.9944 -0.0781157 19.3454 3.88119 12.6451 8.79942ZM27.708 6.15551C30.3204 7.43439 31.6997 10.5962 30.8688 13.4011C30.3481 15.1582 28.2988 17.1853 26.566 17.6573C24.2528 18.2872 22.1068 17.5871 20.4302 15.6558C16.0694 10.6327 21.7383 3.23254 27.708 6.15551ZM24.6914 7.76246C24.6914 7.98221 24.2747 8.32121 23.7654 8.51568C23.008 8.80473 22.8395 9.04696 22.8395 9.84731C22.8395 10.6071 23.0457 10.9439 23.7636 11.3572C24.4914 11.7758 24.688 12.1041 24.6895 12.9033C24.6914 13.9736 24.4386 14.1615 23.8272 13.5432C23.5392 13.2519 23.371 13.2566 23.071 13.5641C22.7617 13.8812 22.804 14.0485 23.2843 14.4069C23.6139 14.6529 24.0651 14.8542 24.2873 14.8542C24.5096 14.8542 24.6914 15.1351 24.6914 15.4785C24.6914 15.8219 24.8302 16.1028 25 16.1028C25.1698 16.1028 25.3086 15.8528 25.3086 15.5468C25.3086 15.2178 25.6806 14.8489 26.2207 14.6429C27.9083 13.9986 27.6941 11.832 25.8852 11.2514C25.4938 11.1259 25.3086 10.7706 25.3086 10.1451C25.3086 9.32914 25.3932 9.24517 26.0466 9.41092C27.1904 9.70122 27.3741 8.9505 26.2627 8.52629C25.738 8.3262 25.3086 7.98221 25.3086 7.76246C25.3086 7.54239 25.1698 7.3626 25 7.3626C24.8302 7.3626 24.6914 7.54239 24.6914 7.76246ZM24.6914 10.0827C24.6914 10.8634 24.6522 10.8902 24.192 10.4248C23.9173 10.147 23.7864 9.76584 23.9015 9.57761C24.2802 8.95768 24.6914 9.22082 24.6914 10.0827ZM26.1488 12.7072C26.5793 13.1427 26.3167 13.9177 25.7386 13.9177C25.4858 13.9177 25.3086 13.5962 25.3086 13.1374C25.3086 12.2967 25.5969 12.1491 26.1488 12.7072ZM4.86543 33.5051L4.78395 43.728L3.78086 43.7249C2.7892 43.7221 2.77778 43.739 2.77778 45.2076V46.6935H25H47.2222V45.1954V43.6974L46.142 43.8248L45.0617 43.9525V33.6172V23.2822H41.9796H38.8972L38.816 33.5051L38.7346 43.728H36.2654H33.7963L33.7148 33.5051L33.6336 23.2822H30.5512H27.4691V33.5832V43.8841H25H22.5309V33.5832V23.2822H19.4488H16.3664L16.2852 33.5051L16.2037 43.728H13.7346H11.2654L11.184 33.5051L11.1028 23.2822H8.02469H4.94661L4.86543 33.5051ZM0 50.4393V52H25H50V50.4393V48.8785H25H0V50.4393Z" fill="#B0BBD5"/>
</svg>
