<svg width="70" height="70" viewBox="0 0 70 70" fill="none" xmlns="http://www.w3.org/2000/svg">
<rect x="1.33317" y="0.99998" width="68" height="68" rx="34" stroke="#E1E9F8" stroke-width="1.33333"/>
<path d="M29.3865 54.3496L30.2976 49.6654C26.7058 48.8121 22.3345 46.4305 20.491 44.9461L24.2699 40.2996C26.3197 41.8742 29.3042 43.5305 32.819 44.2142C35.8991 44.8133 38.2171 44.1384 38.6008 42.1661C38.9656 40.2902 37.4668 38.7683 33.7072 36.7566C28.2712 33.8559 24.8038 30.6216 25.7345 25.8367C26.5794 21.4933 30.5942 18.7422 36.5772 18.8302L37.2961 15.0763L42.7824 15.1713L41.9376 19.5146C45.5294 20.3679 48.5799 22.4155 50.2079 23.5532L46.806 27.9384C45.5084 27.1231 43.2427 25.5021 39.3491 24.7448C35.8378 24.0618 34.434 25.2227 34.165 26.6054C33.8485 28.2326 35.5383 29.637 39.8251 32.1095C45.8502 35.4329 47.918 38.6497 47.0535 43.0938C46.1993 47.4854 42.065 50.5715 35.6601 50.3513L35.0861 54.4834L29.3861 54.3518L29.3865 54.3496Z" fill="#B0BBD5"/>
</svg>
