<svg width="34" height="34" viewBox="0 0 34 34" fill="none" xmlns="http://www.w3.org/2000/svg">
<path opacity="0.4" d="M16.9997 31.1668C24.8237 31.1668 31.1663 24.8242 31.1663 17.0002C31.1663 9.17613 24.8237 2.8335 16.9997 2.8335C9.17564 2.8335 2.83301 9.17613 2.83301 17.0002C2.83301 24.8242 9.17564 31.1668 16.9997 31.1668Z" fill="url(#paint0_linear)"/>
<path d="M23.3606 16.4473C23.899 15.7532 24.239 14.8748 24.239 13.9257C24.239 11.7298 22.3123 9.789 20.1023 9.789H18.8556V7.7915C18.8556 7.21067 18.374 6.729 17.7931 6.729C17.2123 6.729 16.7306 7.21067 16.7306 7.7915V9.80317H15.3423H15.0165V7.7915C15.0165 7.21067 14.5348 6.729 13.954 6.729C13.3731 6.729 12.9198 7.21067 12.9198 7.7915V9.80317H12.4381H9.9873C9.40647 9.80317 8.9248 10.2848 8.9248 10.8657C8.9248 11.4465 9.40647 11.9282 9.9873 11.9282H11.3756V16.9998V22.0715H9.9873C9.40647 22.0715 8.9248 22.5532 8.9248 23.134C8.9248 23.7148 9.40647 24.1965 9.9873 24.1965H12.4381H12.9056V26.2082C12.9056 26.789 13.3873 27.2707 13.9681 27.2707C14.549 27.2707 15.0306 26.789 15.0306 26.2082V24.1965H15.3565H16.7448V26.2082C16.7448 26.789 17.2265 27.2707 17.8073 27.2707C18.3881 27.2707 18.8698 26.789 18.8698 26.2082V24.1965H21.2073C23.729 24.1965 25.7831 22.3407 25.7831 20.0598C25.7831 18.5015 24.7915 17.1415 23.3606 16.4473ZM15.3565 11.9282H20.1165C21.2498 11.9282 22.1281 13.0048 22.1281 13.9398C22.1281 15.0448 21.2215 15.9515 20.1165 15.9515H13.5006V11.9282H15.3565ZM21.2073 22.0715H15.3565H13.5006V18.0623H20.1165H21.2073C22.5531 18.0623 23.6581 18.969 23.6581 20.074C23.6581 21.179 22.5531 22.0715 21.2073 22.0715Z" fill="url(#paint1_linear)"/>
<defs>
<linearGradient id="paint0_linear" x1="31.1663" y1="2.8335" x2="2.33597" y2="31.3287" gradientUnits="userSpaceOnUse">
<stop stop-color="#7FF0FF"/>
<stop offset="1" stop-color="#DD13DD"/>
</linearGradient>
<linearGradient id="paint1_linear" x1="25.7831" y1="6.729" x2="5.32936" y2="23.32" gradientUnits="userSpaceOnUse">
<stop stop-color="#7FF0FF"/>
<stop offset="1" stop-color="#DD13DD"/>
</linearGradient>
</defs>
</svg>
