<svg width="574" height="423" viewBox="0 0 574 423" fill="none" xmlns="http://www.w3.org/2000/svg">
<rect x="0.609091" y="17.6091" width="57.2545" height="57.2545" rx="11.5727" fill="white"/>
<path d="M48.2622 50.9344C45.6344 61.4752 34.9582 67.8901 24.4162 65.2616C13.8786 62.6337 7.46366 51.957 10.0927 41.417C12.7194 30.8751 23.3955 24.4597 33.9343 27.0876C44.4756 29.7154 50.8901 40.3934 48.2619 50.9346L48.2621 50.9344H48.2622Z" fill="#F7931A"/>
<path fill-rule="evenodd" clip-rule="evenodd" d="M37.8532 43.3716C38.2449 40.7531 36.2514 39.3456 33.5254 38.4067L34.4097 34.8598L32.2506 34.3218L31.3898 37.7753C30.8221 37.6337 30.2392 37.5003 29.6599 37.3681L30.527 33.8918L28.3692 33.3538L27.4844 36.8995C27.0147 36.7926 26.5534 36.6869 26.1058 36.5755L26.1083 36.5643L23.1308 35.8208L22.5564 38.1269C22.5564 38.1269 24.1583 38.4941 24.1246 38.5167C24.9989 38.7349 25.157 39.3137 25.1307 39.7724L24.1234 43.8132C24.1836 43.8285 24.2617 43.8506 24.3479 43.8852L24.2852 43.8696C24.2319 43.8562 24.1765 43.8424 24.1197 43.8288L22.7077 49.4893C22.6009 49.7549 22.3297 50.1536 21.7184 50.0022C21.74 50.0335 20.1491 49.6106 20.1491 49.6106L19.0771 52.0821L21.8869 52.7825C22.1944 52.8596 22.4983 52.9388 22.7991 53.0173L22.7995 53.0174C23.0099 53.0722 23.2187 53.1266 23.4262 53.1797L22.5328 56.7673L24.6894 57.3053L25.5742 53.7558C26.1634 53.9157 26.7351 54.0632 27.2949 54.2023L26.413 57.7351L28.5722 58.2731L29.4656 54.6922C33.1473 55.389 35.9157 55.1081 37.081 51.778C38.0199 49.0968 37.0342 47.5503 35.0973 46.5418C36.5081 46.2165 37.5707 45.2886 37.854 43.3718L37.8533 43.3714L37.8532 43.3716ZM32.9203 50.2889C32.3081 52.7487 28.4577 51.7318 26.696 51.2665C26.5376 51.2246 26.396 51.1872 26.2752 51.1572L27.4608 46.4043C27.608 46.441 27.7879 46.4814 27.9917 46.5271C29.814 46.9361 33.5475 47.7739 32.9204 50.2889H32.9203ZM28.3571 44.3214C29.8259 44.7134 33.0299 45.5685 33.5879 43.3328H33.5881C34.1578 41.0462 31.0441 40.3568 29.5233 40.0201C29.3522 39.9822 29.2013 39.9488 29.0781 39.9181L28.0031 44.2287C28.1046 44.254 28.2237 44.2858 28.3571 44.3214Z" fill="white"/>
<rect x="0.609091" y="17.6091" width="57.2545" height="57.2545" rx="11.5727" stroke="#C9D4EA" stroke-width="1.21818"/>
<rect x="161.609" y="92.6091" width="57.2545" height="57.2545" rx="11.5727" fill="white"/>
<path fill-rule="evenodd" clip-rule="evenodd" d="M180.004 127.863H176.462L173.806 117.729C173.679 117.263 173.412 116.851 173.018 116.657C172.035 116.169 170.952 115.78 169.771 115.584V115.194H175.477C176.265 115.194 176.856 115.78 176.954 116.461L178.332 123.771L181.873 115.194H185.317L180.004 127.863ZM187.286 127.863H183.94L186.695 115.194H190.04L187.286 127.863ZM194.368 118.703C194.467 118.021 195.058 117.631 195.747 117.631C196.83 117.533 198.009 117.729 198.994 118.215L199.584 115.487C198.6 115.097 197.517 114.901 196.534 114.901C193.287 114.901 190.925 116.656 190.925 119.092C190.925 120.945 192.598 121.917 193.779 122.504C195.058 123.088 195.55 123.478 195.451 124.062C195.451 124.939 194.467 125.329 193.484 125.329C192.303 125.329 191.121 125.037 190.04 124.549L189.45 127.278C190.631 127.765 191.909 127.961 193.09 127.961C196.731 128.057 198.994 126.304 198.994 123.672C198.994 120.358 194.368 120.164 194.368 118.703ZM210.702 127.863L208.046 115.194H205.192C204.602 115.194 204.011 115.584 203.814 116.169L198.895 127.863H202.339L203.027 126.012H207.258L207.652 127.863H210.702ZM205.684 118.605L206.667 123.38H203.912L205.684 118.605Z" fill="#172B85"/>
<rect x="161.609" y="92.6091" width="57.2545" height="57.2545" rx="11.5727" stroke="#C9D4EA" stroke-width="1.21818"/>
<rect x="10.6091" y="212.609" width="57.2545" height="57.2545" rx="11.5727" fill="white"/>
<path fill-rule="evenodd" clip-rule="evenodd" d="M46.4225 252.606C52.7186 252.606 57.8226 247.443 57.8226 241.074C57.8226 234.705 52.7186 229.541 46.4225 229.541C43.6007 229.541 41.0183 230.578 39.0276 232.296C37.0369 230.579 34.4547 229.542 31.633 229.542C25.3369 229.542 20.2329 234.705 20.2329 241.074C20.2329 247.443 25.3369 252.606 31.633 252.606C34.4548 252.606 37.0372 251.569 39.0279 249.851C41.0186 251.569 43.6008 252.606 46.4225 252.606Z" fill="#ED0006"/>
<path fill-rule="evenodd" clip-rule="evenodd" d="M39.0283 249.853C41.4795 247.738 43.0337 244.59 43.0337 241.075C43.0337 237.561 41.4795 234.413 39.0283 232.298C41.019 230.58 43.6013 229.543 46.423 229.543C52.7192 229.543 57.8232 234.706 57.8232 241.075C57.8232 247.445 52.7192 252.608 46.423 252.608C43.6013 252.608 41.019 251.571 39.0283 249.853Z" fill="#F9A000"/>
<path fill-rule="evenodd" clip-rule="evenodd" d="M39.0274 249.852C41.4785 247.737 43.0328 244.589 43.0328 241.075C43.0328 237.56 41.4785 234.412 39.0274 232.297C36.5762 234.412 35.022 237.56 35.022 241.075C35.022 244.589 36.5762 247.737 39.0274 249.852Z" fill="#FF5E00"/>
<rect x="10.6091" y="212.609" width="57.2545" height="57.2545" rx="11.5727" stroke="#C9D4EA" stroke-width="1.21818"/>
<rect x="377.609" y="0.609091" width="57.2545" height="57.2545" rx="11.5727" fill="white"/>
<circle cx="406.422" cy="29.1747" r="19.6759" fill="#EDF0F4"/>
<path d="M406.368 17.3691L406.211 17.9008V33.3273L406.368 33.4835L413.529 29.2507L406.368 17.3691Z" fill="#343434"/>
<path d="M406.368 17.3691L399.207 29.2507L406.368 33.4835V25.9959V17.3691Z" fill="#8C8C8C"/>
<path d="M406.368 34.8394L406.28 34.947V40.4422L406.368 40.6997L413.533 30.6089L406.368 34.8394Z" fill="#3C3C3B"/>
<path d="M406.368 40.6997V34.8394L399.207 30.6089L406.368 40.6997Z" fill="#8C8C8C"/>
<path d="M406.368 33.4837L413.529 29.251L406.368 25.9961V33.4837Z" fill="#141414"/>
<path d="M399.207 29.251L406.368 33.4837V25.9961L399.207 29.251Z" fill="#393939"/>
<rect x="377.609" y="0.609091" width="57.2545" height="57.2545" rx="11.5727" stroke="#C9D4EA" stroke-width="1.21818"/>
<rect x="211.609" y="364.609" width="57.2545" height="57.2545" rx="11.5727" fill="white"/>
<path d="M259.134 397.934C256.506 408.475 245.83 414.89 235.288 412.262C224.751 409.634 218.336 398.957 220.965 388.417C223.591 377.875 234.268 371.46 244.806 374.088C255.348 376.715 261.762 387.393 259.134 397.935L259.134 397.934H259.134Z" fill="#50AF95"/>
<path fill-rule="evenodd" clip-rule="evenodd" d="M242.541 395.406C242.402 395.416 241.683 395.459 240.08 395.459C238.805 395.459 237.899 395.421 237.581 395.406C232.653 395.189 228.974 394.331 228.974 393.304C228.974 392.276 232.653 391.42 237.581 391.199V394.551C237.904 394.574 238.827 394.629 240.102 394.629C241.632 394.629 242.399 394.565 242.537 394.552V391.202C247.455 391.421 251.125 392.279 251.125 393.304C251.125 394.328 247.456 395.186 242.537 395.404L242.541 395.406ZM242.541 390.855V387.856H249.405V383.282H230.718V387.856H237.58V390.854C232.002 391.11 227.808 392.215 227.808 393.539C227.808 394.863 232.002 395.967 237.58 396.224V405.835H242.54V396.221C248.105 395.964 252.293 394.861 252.293 393.538C252.293 392.215 248.109 391.111 242.54 390.854L242.541 390.855Z" fill="white"/>
<rect x="211.609" y="364.609" width="57.2545" height="57.2545" rx="11.5727" stroke="#C9D4EA" stroke-width="1.21818"/>
<rect x="299.609" y="190.609" width="57.2545" height="57.2545" rx="11.5727" fill="white"/>
<path fill-rule="evenodd" clip-rule="evenodd" d="M319.642 207.056C314.914 210.521 310.962 213.433 310.86 213.528C310.758 213.622 310.742 214.104 310.825 214.6L310.975 215.5H328.36H345.744L345.895 214.6C345.978 214.104 345.962 213.622 345.86 213.528C345.426 213.13 328.738 200.949 328.5 200.857C328.356 200.801 324.37 203.59 319.642 207.056ZM330.271 205.193C332.114 206.094 333.087 208.322 332.501 210.298C332.134 211.536 330.687 212.964 329.465 213.297C327.832 213.74 326.318 213.247 325.135 211.886C322.058 208.347 326.058 203.133 330.271 205.193ZM328.142 206.325C328.142 206.48 327.848 206.719 327.489 206.856C326.954 207.059 326.835 207.23 326.835 207.794C326.835 208.329 326.981 208.567 327.487 208.858C328.001 209.153 328.14 209.384 328.141 209.947C328.142 210.701 327.964 210.834 327.532 210.398C327.329 210.193 327.21 210.196 326.999 210.413C326.78 210.636 326.81 210.754 327.149 211.006C327.382 211.18 327.7 211.322 327.857 211.322C328.014 211.322 328.142 211.52 328.142 211.761C328.142 212.003 328.24 212.201 328.36 212.201C328.48 212.201 328.578 212.025 328.578 211.81C328.578 211.578 328.84 211.318 329.221 211.173C330.412 210.719 330.261 209.192 328.984 208.783C328.708 208.695 328.578 208.444 328.578 208.004C328.578 207.429 328.637 207.37 329.098 207.486C329.905 207.691 330.035 207.162 329.251 206.863C328.88 206.722 328.578 206.48 328.578 206.325C328.578 206.17 328.48 206.043 328.36 206.043C328.24 206.043 328.142 206.17 328.142 206.325ZM328.142 207.96C328.142 208.51 328.114 208.529 327.79 208.201C327.596 208.005 327.503 207.736 327.585 207.604C327.852 207.167 328.142 207.352 328.142 207.96ZM329.17 209.809C329.474 210.116 329.289 210.662 328.881 210.662C328.703 210.662 328.578 210.435 328.578 210.112C328.578 209.52 328.781 209.416 329.17 209.809ZM314.152 224.463L314.095 231.665L313.387 231.663C312.687 231.661 312.679 231.673 312.679 232.708V233.755H328.36H344.04V232.699V231.644L343.278 231.734L342.516 231.824V224.542V217.26H340.341H338.166L338.109 224.463L338.051 231.665H336.309H334.567L334.509 224.463L334.452 217.26H332.277H330.102V224.518V231.775H328.36H326.617V224.518V217.26H324.443H322.268L322.21 224.463L322.153 231.665H320.411H318.668L318.611 224.463L318.554 217.26H316.382H314.21L314.152 224.463ZM310.719 236.394V237.494H328.36H346V236.394V235.294H328.36H310.719V236.394Z" fill="#00A754"/>
<rect x="299.609" y="190.609" width="57.2545" height="57.2545" rx="11.5727" stroke="#C9D4EA" stroke-width="1.21818"/>
<rect x="466.609" y="281.609" width="57.2545" height="57.2545" rx="11.5727" fill="white"/>
<rect x="475.992" y="290.499" width="39.3519" height="39.3519" rx="12.1818" fill="#AA00FF"/>
<path d="M488.857 300.337V304.121H497.56L488.101 315.472V319.634H494.155V323.418H498.317V319.634H503.614V315.472H494.533L503.614 304.121V300.337H498.317V297.31H494.155V300.337H488.857Z" fill="white"/>
<rect x="466.609" y="281.609" width="57.2545" height="57.2545" rx="11.5727" stroke="#C9D4EA" stroke-width="1.21818"/>
<rect x="515.609" y="70.6091" width="57.2545" height="57.2545" rx="11.5727" fill="white"/>
<rect x="524.622" y="79.4988" width="39.3519" height="39.3519" rx="12.1818" fill="#00D632"/>
<path d="M540.131 112.669L540.764 109.412C538.267 108.819 535.228 107.163 533.947 106.131L536.574 102.901C537.999 103.996 540.074 105.147 542.517 105.622C544.658 106.039 546.27 105.57 546.537 104.199C546.79 102.894 545.748 101.836 543.135 100.438C539.355 98.4212 536.945 96.1728 537.592 92.8462C538.179 89.8267 540.97 87.9141 545.13 87.9753L545.63 85.3656L549.444 85.4316L548.856 88.4511C551.353 89.0443 553.474 90.4678 554.606 91.2587L552.241 94.3074C551.339 93.7406 549.764 92.6136 547.057 92.0871C544.616 91.6123 543.64 92.4194 543.453 93.3807C543.233 94.5119 544.408 95.4883 547.388 97.2071C551.576 99.5176 553.014 101.754 552.413 104.843C551.819 107.897 548.945 110.042 544.492 109.889L544.093 112.762L540.131 112.67L540.131 112.669Z" fill="white"/>
<rect x="515.609" y="70.6091" width="57.2545" height="57.2545" rx="11.5727" stroke="#C9D4EA" stroke-width="1.21818"/>
<path d="M71 77.5L142 94.5" stroke="#C9D4EA" stroke-width="1.5" stroke-linecap="round"/>
<path d="M236 90.5L355 57.5" stroke="#C9D4EA" stroke-width="1.5" stroke-linecap="round"/>
<path d="M233.5 157.5L284.5 186" stroke="#C9D4EA" stroke-width="1.5" stroke-linecap="round"/>
<path d="M266.5 341.5L297.5 269.5" stroke="#C9D4EA" stroke-width="1.5" stroke-linecap="round"/>
<path d="M194.5 354.5L84.5 277.5" stroke="#C9D4EA" stroke-width="1.5" stroke-linecap="round"/>
<path d="M292.5 355L441.5 310" stroke="#C9D4EA" stroke-width="1.5" stroke-linecap="round"/>
<path d="M377 246L446 279" stroke="#C9D4EA" stroke-width="1.5" stroke-linecap="round"/>
<path d="M375.5 186L498.5 133.5" stroke="#C9D4EA" stroke-width="1.5" stroke-linecap="round"/>
<path d="M353 169L374 77.5" stroke="#C9D4EA" stroke-width="1.5" stroke-linecap="round"/>
<path d="M148 160.5L85.5 205.5" stroke="#C9D4EA" stroke-width="1.5" stroke-linecap="round"/>
<circle cx="71" cy="77" r="4.25" fill="#C9D4EA" stroke="#C9D4EA" stroke-width="1.5"/>
<circle cx="142" cy="95" r="4.25" fill="#C9D4EA" stroke="#C9D4EA" stroke-width="1.5"/>
<circle cx="147" cy="161" r="4.25" fill="#C9D4EA" stroke="#C9D4EA" stroke-width="1.5"/>
<circle cx="85" cy="206" r="4.25" fill="#C9D4EA" stroke="#C9D4EA" stroke-width="1.5"/>
<circle cx="234" cy="157" r="4.25" fill="#C9D4EA" stroke="#C9D4EA" stroke-width="1.5"/>
<circle cx="285" cy="186" r="4.25" fill="#C9D4EA" stroke="#C9D4EA" stroke-width="1.5"/>
<circle cx="236" cy="91" r="4.25" fill="#C9D4EA" stroke="#C9D4EA" stroke-width="1.5"/>
<circle cx="355" cy="58" r="4.25" fill="#C9D4EA" stroke="#C9D4EA" stroke-width="1.5"/>
<circle cx="374" cy="78" r="4.25" fill="#C9D4EA" stroke="#C9D4EA" stroke-width="1.5"/>
<circle cx="353" cy="169" r="4.25" fill="#C9D4EA" stroke="#C9D4EA" stroke-width="1.5"/>
<circle cx="377" cy="186" r="4.25" fill="#C9D4EA" stroke="#C9D4EA" stroke-width="1.5"/>
<circle cx="499" cy="134" r="4.25" fill="#C9D4EA" stroke="#C9D4EA" stroke-width="1.5"/>
<circle cx="377" cy="246" r="4.25" fill="#C9D4EA" stroke="#C9D4EA" stroke-width="1.5"/>
<circle cx="446" cy="279" r="4.25" fill="#C9D4EA" stroke="#C9D4EA" stroke-width="1.5"/>
<circle cx="442" cy="310" r="4.25" fill="#C9D4EA" stroke="#C9D4EA" stroke-width="1.5"/>
<circle cx="292" cy="355" r="4.25" fill="#C9D4EA" stroke="#C9D4EA" stroke-width="1.5"/>
<circle cx="298" cy="267" r="4.25" fill="#C9D4EA" stroke="#C9D4EA" stroke-width="1.5"/>
<circle cx="267" cy="341" r="4.25" fill="#C9D4EA" stroke="#C9D4EA" stroke-width="1.5"/>
<circle cx="194" cy="354" r="4.25" fill="#C9D4EA" stroke="#C9D4EA" stroke-width="1.5"/>
<circle cx="84" cy="277" r="4.25" fill="#C9D4EA" stroke="#C9D4EA" stroke-width="1.5"/>
</svg>
