<svg width="34" height="34" viewBox="0 0 34 34" fill="none" xmlns="http://www.w3.org/2000/svg">
<path opacity="0.4" d="M26.9163 14.5635V24.6926C26.8738 28.7301 25.7688 29.7501 21.5613 29.7501H8.18805C3.90972 29.7501 2.83301 28.6876 2.83301 24.466V14.5635C2.83301 10.7385 3.72551 9.50596 7.08301 9.30763C7.42301 9.29346 7.79138 9.2793 8.18805 9.2793H21.5613C25.8396 9.2793 26.9163 10.3418 26.9163 14.5635Z" fill="url(#paint0_linear)"/>
<path d="M31.1663 9.53417V19.4367C31.1663 23.2617 30.2738 24.4942 26.9163 24.6925V14.5633C26.9163 10.3417 25.8396 9.27917 21.5613 9.27917H8.18805C7.79138 9.27917 7.42301 9.29333 7.08301 9.3075C7.12551 5.27 8.23055 4.25 12.4381 4.25H25.8113C30.0896 4.25 31.1663 5.3125 31.1663 9.53417Z" fill="url(#paint1_linear)"/>
<path d="M9.86054 26.2935H7.42383C6.84299 26.2935 6.36133 25.8118 6.36133 25.231C6.36133 24.6501 6.84299 24.1685 7.42383 24.1685H9.86054C10.4414 24.1685 10.923 24.6501 10.923 25.231C10.923 25.8118 10.4555 26.2935 9.86054 26.2935Z" fill="url(#paint2_linear)"/>
<path d="M17.7796 26.2935H12.9062C12.3254 26.2935 11.8438 25.8118 11.8438 25.231C11.8438 24.6501 12.3254 24.1685 12.9062 24.1685H17.7796C18.3604 24.1685 18.8421 24.6501 18.8421 25.231C18.8421 25.8118 18.3746 26.2935 17.7796 26.2935Z" fill="url(#paint3_linear)"/>
<path d="M26.9163 16.8018H2.83301V18.9268H26.9163V16.8018Z" fill="url(#paint4_linear)"/>
<defs>
<linearGradient id="paint0_linear" x1="26.9163" y1="9.2793" x2="6.31968" y2="33.2289" gradientUnits="userSpaceOnUse">
<stop stop-color="#7FF0FF"/>
<stop offset="1" stop-color="#DD13DD"/>
</linearGradient>
<linearGradient id="paint1_linear" x1="31.1663" y1="4.25" x2="10.6025" y2="28.1946" gradientUnits="userSpaceOnUse">
<stop stop-color="#7FF0FF"/>
<stop offset="1" stop-color="#DD13DD"/>
</linearGradient>
<linearGradient id="paint2_linear" x1="10.923" y1="24.1685" x2="9.25517" y2="27.7072" gradientUnits="userSpaceOnUse">
<stop stop-color="#7FF0FF"/>
<stop offset="1" stop-color="#DD13DD"/>
</linearGradient>
<linearGradient id="paint3_linear" x1="18.8421" y1="24.1685" x2="17.628" y2="28.1203" gradientUnits="userSpaceOnUse">
<stop stop-color="#7FF0FF"/>
<stop offset="1" stop-color="#DD13DD"/>
</linearGradient>
<linearGradient id="paint4_linear" x1="26.9163" y1="16.8018" x2="26.5333" y2="21.0924" gradientUnits="userSpaceOnUse">
<stop stop-color="#7FF0FF"/>
<stop offset="1" stop-color="#DD13DD"/>
</linearGradient>
</defs>
</svg>
