<svg width="44" height="44" viewBox="0 0 44 44" fill="none" xmlns="http://www.w3.org/2000/svg">
<path opacity="0.4" d="M22 40.3337C32.1252 40.3337 40.3333 32.1255 40.3333 22.0003C40.3333 11.8751 32.1252 3.66699 22 3.66699C11.8747 3.66699 3.66663 11.8751 3.66663 22.0003C3.66663 32.1255 11.8747 40.3337 22 40.3337Z" fill="url(#paint0_linear)"/>
<path d="M30.2317 21.2847C30.9283 20.3863 31.3683 19.2497 31.3683 18.0213C31.3683 15.1797 28.875 12.668 26.015 12.668H24.4017V10.083C24.4017 9.33134 23.7783 8.70801 23.0267 8.70801C22.275 8.70801 21.6517 9.33134 21.6517 10.083V12.6863H19.855H19.4333V10.083C19.4333 9.33134 18.81 8.70801 18.0583 8.70801C17.3067 8.70801 16.72 9.33134 16.72 10.083V12.6863H16.0967H12.925C12.1733 12.6863 11.55 13.3097 11.55 14.0613C11.55 14.813 12.1733 15.4363 12.925 15.4363H14.7217V21.9997V28.563H12.925C12.1733 28.563 11.55 29.1863 11.55 29.938C11.55 30.6897 12.1733 31.313 12.925 31.313H16.0967H16.7017V33.9163C16.7017 34.668 17.325 35.2913 18.0767 35.2913C18.8283 35.2913 19.4517 34.668 19.4517 33.9163V31.313H19.8733H21.67V33.9163C21.67 34.668 22.2933 35.2913 23.045 35.2913C23.7967 35.2913 24.42 34.668 24.42 33.9163V31.313H27.445C30.7083 31.313 33.3667 28.9113 33.3667 25.9597C33.3667 23.943 32.0833 22.183 30.2317 21.2847ZM19.8733 15.4363H26.0333C27.5 15.4363 28.6367 16.8297 28.6367 18.0397C28.6367 19.4697 27.4633 20.643 26.0333 20.643H17.4717V15.4363H19.8733ZM27.445 28.563H19.8733H17.4717V23.3747H26.0333H27.445C29.1867 23.3747 30.6167 24.548 30.6167 25.978C30.6167 27.408 29.1867 28.563 27.445 28.563Z" fill="url(#paint1_linear)"/>
<defs>
<linearGradient id="paint0_linear" x1="40.3333" y1="3.66699" x2="3.0234" y2="40.5431" gradientUnits="userSpaceOnUse">
<stop stop-color="#FF7F7F"/>
<stop offset="1" stop-color="#FFD17F"/>
</linearGradient>
<linearGradient id="paint1_linear" x1="33.3667" y1="8.70801" x2="6.89706" y2="30.1788" gradientUnits="userSpaceOnUse">
<stop stop-color="#FF7F7F"/>
<stop offset="1" stop-color="#FFD17F"/>
</linearGradient>
</defs>
</svg>
