<svg width="44" height="44" viewBox="0 0 44 44" fill="none" xmlns="http://www.w3.org/2000/svg">
<path opacity="0.4" d="M34.8334 16.4998C34.8334 19.1582 34.045 21.5965 32.6884 23.6315C30.7084 26.5649 27.5734 28.6365 23.925 29.1682C23.3017 29.2782 22.66 29.3332 22 29.3332C21.34 29.3332 20.6984 29.2782 20.075 29.1682C16.4267 28.6365 13.2917 26.5649 11.3117 23.6315C9.95502 21.5965 9.16669 19.1582 9.16669 16.4998C9.16669 9.40484 14.905 3.6665 22 3.6665C29.095 3.6665 34.8334 9.40484 34.8334 16.4998Z" fill="url(#paint0_linear)"/>
<path d="M38.9584 33.8616L35.9334 34.5766C35.255 34.7416 34.7234 35.2549 34.5767 35.9333L33.935 38.6283C33.5867 40.0949 31.7167 40.5349 30.745 39.3799L22 29.3332L13.255 39.3982C12.2834 40.5532 10.4134 40.1132 10.065 38.6466L9.42338 35.9516C9.25838 35.2732 8.72671 34.7416 8.06671 34.5949L5.04171 33.8799C3.64838 33.5499 3.15338 31.8082 4.16171 30.7999L11.3117 23.6499C13.2917 26.5832 16.4267 28.6549 20.075 29.1866C20.6984 29.2966 21.34 29.3516 22 29.3516C22.66 29.3516 23.3017 29.2966 23.925 29.1866C27.5734 28.6549 30.7084 26.5832 32.6884 23.6499L39.8384 30.7999C40.8467 31.7899 40.3517 33.5316 38.9584 33.8616Z" fill="url(#paint1_linear)"/>
<path d="M23.0633 10.9635L24.145 13.1268C24.2916 13.4201 24.6766 13.7135 25.025 13.7685L26.9866 14.0985C28.2333 14.3001 28.5266 15.2168 27.6283 16.1152L26.1066 17.6368C25.85 17.8935 25.7033 18.3885 25.795 18.7552L26.235 20.6435C26.5833 22.1285 25.795 22.7151 24.475 21.9268L22.6416 20.8451C22.3116 20.6435 21.7616 20.6435 21.4316 20.8451L19.5983 21.9268C18.2783 22.6968 17.49 22.1285 17.8383 20.6435L18.2783 18.7552C18.3516 18.4068 18.2233 17.8935 17.9666 17.6368L16.445 16.1152C15.5466 15.2168 15.84 14.3185 17.0866 14.0985L19.0483 13.7685C19.3783 13.7135 19.7633 13.4201 19.91 13.1268L20.9916 10.9635C21.5233 9.79016 22.4766 9.79016 23.0633 10.9635Z" fill="url(#paint2_linear)"/>
<defs>
<linearGradient id="paint0_linear" x1="34.8334" y1="3.6665" x2="8.71643" y2="29.4798" gradientUnits="userSpaceOnUse">
<stop stop-color="#1323DD"/>
<stop offset="1" stop-color="#7FF0FF"/>
</linearGradient>
<linearGradient id="paint1_linear" x1="40.3711" y1="23.6499" x2="27.8439" y2="51.3797" gradientUnits="userSpaceOnUse">
<stop stop-color="#1323DD"/>
<stop offset="1" stop-color="#7FF0FF"/>
</linearGradient>
<linearGradient id="paint2_linear" x1="28.1498" y1="10.0835" x2="15.741" y2="22.3799" gradientUnits="userSpaceOnUse">
<stop stop-color="#1323DD"/>
<stop offset="1" stop-color="#7FF0FF"/>
</linearGradient>
</defs>
</svg>
