<svg width="44" height="44" viewBox="0 0 44 44" fill="none" xmlns="http://www.w3.org/2000/svg">
<path opacity="0.8" d="M23.65 4.61984L23.595 4.74817L18.2783 17.0865H13.0533C11.8067 17.0865 10.6333 17.3248 9.53333 17.8015L12.7417 10.1382L12.815 9.97317L12.925 9.67984C12.98 9.55151 13.0167 9.4415 13.0717 9.34984C15.4733 3.79484 18.1867 2.52984 23.65 4.61984Z" fill="url(#paint0_linear)"/>
<path d="M33.5317 17.4535C32.7067 17.2151 31.845 17.0868 30.9467 17.0868H18.2783L23.595 4.74845L23.65 4.62012C23.9067 4.71178 24.1817 4.84012 24.4567 4.93178L28.5083 6.63678C30.7633 7.57178 32.34 8.54345 33.3117 9.71678C33.4767 9.93678 33.6233 10.1385 33.77 10.3768C33.935 10.6335 34.0633 10.8901 34.1367 11.1651C34.21 11.3301 34.265 11.4768 34.3017 11.6418C34.7783 13.2001 34.485 15.0885 33.5317 17.4535Z" fill="url(#paint1_linear)"/>
<path opacity="0.4" d="M39.8934 26.0336V29.6086C39.8934 29.9752 39.875 30.3419 39.8567 30.6902C39.5084 37.1069 35.9334 40.3336 29.15 40.3336H14.85C14.3917 40.3336 13.97 40.2969 13.5484 40.2419C7.71836 39.8569 4.60169 36.7402 4.19836 30.9102C4.14336 30.4702 4.10669 30.0486 4.10669 29.6086V26.0336C4.10669 22.3486 6.34336 19.1769 9.53336 17.8019C10.6334 17.3252 11.8067 17.0869 13.0534 17.0869H30.9467C31.845 17.0869 32.7067 17.2152 33.5317 17.4536C37.1984 18.5719 39.8934 21.9819 39.8934 26.0336Z" fill="url(#paint2_linear)"/>
<path opacity="0.6" d="M12.7417 10.1387L9.53336 17.802C6.34336 19.177 4.10669 22.3487 4.10669 26.0337V20.662C4.10669 15.4553 7.81002 11.1103 12.7417 10.1387Z" fill="url(#paint3_linear)"/>
<path opacity="0.6" d="M39.8933 20.6617V26.0334C39.8933 21.9817 37.1983 18.5717 33.5317 17.4534C34.485 15.0884 34.7783 13.2 34.3017 11.6417C34.265 11.4767 34.21 11.33 34.1367 11.165C37.565 12.9434 39.8933 16.555 39.8933 20.6617Z" fill="url(#paint4_linear)"/>
<path d="M26.5834 26.9313H23.375V23.833C23.375 23.0813 22.7517 22.458 22 22.458C21.2484 22.458 20.625 23.0813 20.625 23.833V26.9313H17.4167C16.665 26.9313 16.0417 27.5547 16.0417 28.3063C16.0417 29.058 16.665 29.6813 17.4167 29.6813H20.625V32.9997C20.625 33.7513 21.2484 34.3747 22 34.3747C22.7517 34.3747 23.375 33.7513 23.375 32.9997V29.6813H26.5834C27.335 29.6813 27.9584 29.058 27.9584 28.3063C27.9584 27.5547 27.335 26.9313 26.5834 26.9313Z" fill="url(#paint5_linear)"/>
<defs>
<linearGradient id="paint0_linear" x1="23.65" y1="3.66992" x2="9.27069" y2="17.867" gradientUnits="userSpaceOnUse">
<stop stop-color="#7FF0FF"/>
<stop offset="1" stop-color="#DD13DD"/>
</linearGradient>
<linearGradient id="paint1_linear" x1="34.5263" y1="4.62012" x2="21.7885" y2="20.5597" gradientUnits="userSpaceOnUse">
<stop stop-color="#7FF0FF"/>
<stop offset="1" stop-color="#DD13DD"/>
</linearGradient>
<linearGradient id="paint2_linear" x1="39.8934" y1="17.0869" x2="18.1782" y2="50.1272" gradientUnits="userSpaceOnUse">
<stop stop-color="#7FF0FF"/>
<stop offset="1" stop-color="#DD13DD"/>
</linearGradient>
<linearGradient id="paint3_linear" x1="12.7417" y1="10.1387" x2="-0.741052" y2="17.378" gradientUnits="userSpaceOnUse">
<stop stop-color="#7FF0FF"/>
<stop offset="1" stop-color="#DD13DD"/>
</linearGradient>
<linearGradient id="paint4_linear" x1="39.8933" y1="11.165" x2="29.0378" y2="15.7557" gradientUnits="userSpaceOnUse">
<stop stop-color="#7FF0FF"/>
<stop offset="1" stop-color="#DD13DD"/>
</linearGradient>
<linearGradient id="paint5_linear" x1="27.9584" y1="22.458" x2="15.8326" y2="34.4427" gradientUnits="userSpaceOnUse">
<stop stop-color="#7FF0FF"/>
<stop offset="1" stop-color="#DD13DD"/>
</linearGradient>
</defs>
</svg>
