<svg width="40" height="41" viewBox="0 0 40 41" fill="none" xmlns="http://www.w3.org/2000/svg">
<path d="M39.0068 25.1981C36.379 35.7389 25.7029 42.1538 15.1608 39.5253C4.62321 36.8974 -1.79171 26.2206 0.837313 15.6807C3.46402 5.13876 14.1401 -1.27664 24.6789 1.35122C35.2202 3.97909 41.6347 14.657 39.0066 25.1983L39.0068 25.1981H39.0068Z" fill="#50AF95"/>
<path fill-rule="evenodd" clip-rule="evenodd" d="M22.4139 22.6692V22.6692C22.2747 22.6797 21.5559 22.7226 19.9525 22.7226C18.6772 22.7226 17.7717 22.6843 17.454 22.6692V22.6692C12.5254 22.4524 8.8467 21.5945 8.8467 20.5673C8.8467 19.54 12.5254 18.6833 17.454 18.463V21.8148C17.7763 21.838 18.6992 21.8924 19.9745 21.8924C21.5049 21.8924 22.2713 21.8287 22.4092 21.8159V18.4653C27.3274 18.6844 30.998 19.5424 30.998 20.5673C30.998 21.5922 27.3285 22.4501 22.4092 22.6681V22.6681L22.4139 22.6692ZM22.4137 18.1185V15.1192H29.2773V10.5454H10.5902V15.1192H17.4527V18.1174C11.8748 18.3736 7.68018 19.4785 7.68018 20.8025C7.68018 22.1266 11.8748 23.2303 17.4527 23.4877V33.099H22.4125V23.4842C27.9776 23.228 32.1653 22.1242 32.1653 20.8014C32.1653 19.4785 27.9811 18.3748 22.4125 18.1174V18.1174L22.4137 18.1185Z" fill="white"/>
</svg>
