<svg width="37" height="37" viewBox="0 0 37 37" fill="none" xmlns="http://www.w3.org/2000/svg">
<path fill-rule="evenodd" clip-rule="evenodd" d="M9.73267 6.31925C5.00501 9.78474 1.05311 12.6971 0.950747 12.7912C0.848389 12.8854 0.83249 13.3677 0.915466 13.8632L1.06617 14.764H18.4506H35.835L35.9857 13.8632C36.0686 13.3677 36.0527 12.8856 35.9504 12.7917C35.5168 12.3934 18.8291 0.212581 18.5908 0.120209C18.4466 0.0643463 14.4605 2.85398 9.73267 6.31925ZM20.3614 4.45641C22.2047 5.35748 23.178 7.58519 22.5917 9.56151C22.2243 10.7995 20.7782 12.2278 19.5556 12.5603C17.9233 13.0041 16.4091 12.5108 15.2261 11.1501C12.149 7.61092 16.149 2.39696 20.3614 4.45641ZM18.2328 5.58863C18.2328 5.74346 17.9388 5.98231 17.5794 6.11933C17.045 6.32299 16.9261 6.49366 16.9261 7.05757C16.9261 7.59288 17.0716 7.83019 17.5781 8.12138C18.0917 8.41631 18.2304 8.64768 18.2315 9.21071C18.2328 9.96486 18.0544 10.0973 17.623 9.66158C17.4198 9.45638 17.3011 9.45968 17.0894 9.67631C16.8712 9.89976 16.901 10.0176 17.2399 10.2701C17.4725 10.4434 17.7909 10.5853 17.9477 10.5853C18.1045 10.5853 18.2328 10.7832 18.2328 11.0252C18.2328 11.2671 18.3308 11.465 18.4506 11.465C18.5703 11.465 18.6683 11.2889 18.6683 11.0733C18.6683 10.8415 18.9308 10.5816 19.3119 10.4364C20.5027 9.98246 20.3516 8.4559 19.0752 8.04683C18.799 7.95841 18.6683 7.70813 18.6683 7.26738C18.6683 6.69248 18.728 6.63331 19.1891 6.7501C19.9962 6.95464 20.1258 6.4257 19.3415 6.12681C18.9713 5.98583 18.6683 5.74346 18.6683 5.58863C18.6683 5.43358 18.5703 5.3069 18.4506 5.3069C18.3308 5.3069 18.2328 5.43358 18.2328 5.58863ZM18.2328 7.2234C18.2328 7.77345 18.2051 7.79236 17.8804 7.46444C17.6866 7.2687 17.5942 7.00016 17.6755 6.86754C17.9427 6.43076 18.2328 6.61616 18.2328 7.2234ZM19.2612 9.07259C19.565 9.3794 19.3796 9.9255 18.9717 9.9255C18.7934 9.9255 18.6683 9.69897 18.6683 9.37566C18.6683 8.78338 18.8718 8.67935 19.2612 9.07259ZM4.24321 23.7263L4.18571 30.9291L3.47791 30.9269C2.77817 30.9249 2.77011 30.9368 2.77011 31.9716V33.0185H18.4506H34.131V31.963V30.9076L33.3688 30.9973L32.6065 31.0873V23.8053V16.5235H30.4317H28.2567L28.1994 23.7263L28.142 30.9291H26.3997H24.6574L24.5999 23.7263L24.5426 16.5235H22.3676H20.1928V23.7813V31.0391H18.4506H16.7083V23.7813V16.5235H14.5335H12.3585L12.3012 23.7263L12.2437 30.9291H10.5014H8.75918L8.70168 23.7263L8.6444 16.5235H6.47244H4.30048L4.24321 23.7263ZM0.810059 35.6577V36.7574H18.4506H36.0911V35.6577V34.558H18.4506H0.810059V35.6577Z" fill="#00A754"/>
</svg>
