<svg width="42" height="14" viewBox="0 0 42 14" fill="none" xmlns="http://www.w3.org/2000/svg">
<path fill-rule="evenodd" clip-rule="evenodd" d="M11.2224 13.127H7.6801L5.0238 2.99308C4.89772 2.52691 4.63002 2.1148 4.23623 1.92057C3.25351 1.43245 2.1706 1.04398 0.989258 0.848056V0.457899H6.69565C7.48321 0.457899 8.07389 1.04398 8.17233 1.72464L9.55057 9.0346L13.0912 0.457899H16.535L11.2224 13.127ZM18.5039 13.127H15.1585L17.9133 0.457899H21.2587L18.5039 13.127ZM25.5867 3.96696C25.6851 3.28461 26.2758 2.89445 26.9649 2.89445C28.0478 2.79649 29.2274 2.99241 30.2119 3.47884L30.8026 0.751119C29.8181 0.360962 28.7352 0.165039 27.7525 0.165039C24.5055 0.165039 22.1428 1.9199 22.1428 4.35543C22.1428 6.20825 23.8164 7.18111 24.9977 7.76719C26.2758 8.35158 26.768 8.74174 26.6696 9.32613C26.6696 10.2027 25.6851 10.5929 24.7024 10.5929C23.5211 10.5929 22.3397 10.3007 21.2585 9.81256L20.6679 12.542C21.8492 13.0284 23.1273 13.2243 24.3086 13.2243C27.9494 13.3206 30.2119 11.5674 30.2119 8.93597C30.2119 5.62217 25.5867 5.42794 25.5867 3.96696ZM41.9201 13.127L39.2638 0.457899H36.4106C35.82 0.457899 35.2293 0.848056 35.0324 1.43245L30.1136 13.127H33.5575L34.2448 11.2759H38.4763L38.8701 13.127H41.9201ZM36.9027 3.86886L37.8854 8.64364H35.1306L36.9027 3.86886Z" fill="#172B85"/>
</svg>
