<svg width="32" height="32" viewBox="0 0 32 32" fill="none" xmlns="http://www.w3.org/2000/svg">
<path opacity="0.4" d="M22.6665 10.3332C22.4132 10.3332 22.1598 10.2398 21.9598 10.0398C21.5732 9.65317 21.5732 9.01317 21.9598 8.62651L24.6932 5.89317C22.3465 3.89317 19.3198 2.6665 15.9998 2.6665C8.63984 2.6665 2.6665 8.63984 2.6665 15.9998C2.6665 23.3598 8.63984 29.3332 15.9998 29.3332C23.3598 29.3332 29.3332 23.3598 29.3332 15.9998C29.3332 12.6798 28.1065 9.65318 26.1065 7.30651L23.3732 10.0398C23.1732 10.2398 22.9198 10.3332 22.6665 10.3332Z" fill="url(#paint0_linear)"/>
<path d="M18.3332 15.76L16.9998 15.2933V12.3333H17.1065C17.7865 12.3333 18.3332 12.9333 18.3332 13.6667C18.3332 14.2133 18.7865 14.6667 19.3332 14.6667C19.8798 14.6667 20.3332 14.2133 20.3332 13.6667C20.3332 11.8267 18.8932 10.3333 17.1065 10.3333H16.9998V10C16.9998 9.45333 16.5465 9 15.9998 9C15.4532 9 14.9998 9.45333 14.9998 10V10.3333H14.5999C12.9865 10.3333 11.6665 11.6933 11.6665 13.3733C11.6665 15.32 12.7998 15.9467 13.6665 16.2533L14.9998 16.72V19.68H14.8932C14.2132 19.68 13.6665 19.08 13.6665 18.3467C13.6665 17.8 13.2132 17.3467 12.6665 17.3467C12.1198 17.3467 11.6665 17.8 11.6665 18.3467C11.6665 20.1867 13.1065 21.68 14.8932 21.68H14.9998V22.0133C14.9998 22.56 15.4532 23.0133 15.9998 23.0133C16.5465 23.0133 16.9998 22.56 16.9998 22.0133V21.68H17.3998C19.0132 21.68 20.3332 20.32 20.3332 18.64C20.3332 16.68 19.1998 16.0533 18.3332 15.76ZM14.3198 14.3467C13.8665 14.1867 13.6665 14.0933 13.6665 13.36C13.6665 12.7867 14.0932 12.32 14.5999 12.32H14.9998V14.5733L14.3198 14.3467ZM17.3998 19.6667H16.9998V17.4133L17.6799 17.6533C18.1332 17.8133 18.3332 17.9067 18.3332 18.64C18.3332 19.2 17.9065 19.6667 17.3998 19.6667Z" fill="url(#paint1_linear)"/>
<path d="M30.2535 2.27999C30.1468 2.03999 29.9602 1.83999 29.7068 1.73333C29.5868 1.67999 29.4535 1.65332 29.3201 1.65332H23.9868C23.4401 1.65332 22.9868 2.10665 22.9868 2.65332C22.9868 3.19999 23.4401 3.65332 23.9868 3.65332H26.9068L24.6802 5.87999C25.1868 6.31999 25.6535 6.78666 26.0935 7.29332L28.3201 5.06666V7.99999C28.3201 8.54666 28.7735 8.99999 29.3201 8.99999C29.8668 8.99999 30.3201 8.54666 30.3201 7.99999V2.66666C30.3335 2.53332 30.3068 2.41332 30.2535 2.27999Z" fill="url(#paint2_linear)"/>
<defs>
<linearGradient id="paint0_linear" x1="29.3332" y1="2.6665" x2="-2.84081" y2="15.2345" gradientUnits="userSpaceOnUse">
<stop stop-color="#4AAF86"/>
<stop offset="0.833333" stop-color="#88D39F"/>
<stop offset="1" stop-color="#7AE49B"/>
</linearGradient>
<linearGradient id="paint1_linear" x1="20.3332" y1="9" x2="8.9457" y2="11.751" gradientUnits="userSpaceOnUse">
<stop stop-color="#4AAF86"/>
<stop offset="0.833333" stop-color="#88D39F"/>
<stop offset="1" stop-color="#7AE49B"/>
</linearGradient>
<linearGradient id="paint2_linear" x1="30.3235" y1="1.65332" x2="21.4684" y2="5.10767" gradientUnits="userSpaceOnUse">
<stop stop-color="#4AAF86"/>
<stop offset="0.833333" stop-color="#88D39F"/>
<stop offset="1" stop-color="#7AE49B"/>
</linearGradient>
</defs>
</svg>
