<svg width="32" height="32" viewBox="0 0 32 32" fill="none" xmlns="http://www.w3.org/2000/svg">
<path d="M28.3332 29.3335H3.6665C3.11984 29.3335 2.6665 28.8802 2.6665 28.3335C2.6665 27.7868 3.11984 27.3335 3.6665 27.3335H28.3332C28.8798 27.3335 29.3332 27.7868 29.3332 28.3335C29.3332 28.8802 28.8798 29.3335 28.3332 29.3335Z" fill="url(#paint0_linear)"/>
<path opacity="0.4" d="M27.4532 18.2668L17.8132 27.9068C15.9198 29.8001 12.8665 29.8001 10.9865 27.9201L4.83984 21.7735L21.3198 5.29346L27.4665 11.4401C29.3465 13.3201 29.3465 16.3735 27.4532 18.2668Z" fill="url(#paint1_linear)"/>
<path d="M21.3201 5.29355L4.82675 21.7735L3.61342 20.5602C1.73342 18.6802 1.73342 15.6269 3.62675 13.7335L13.2667 4.09355C15.1601 2.20021 18.2134 2.20021 20.0934 4.08021L21.3201 5.29355Z" fill="url(#paint2_linear)"/>
<path d="M17.1864 23.4665L15.3864 25.2665C15.0131 25.6398 14.4131 25.6398 14.0398 25.2665C13.6664 24.8932 13.6664 24.2932 14.0398 23.9198L15.8398 22.1198C16.2131 21.7465 16.8131 21.7465 17.1864 22.1198C17.5598 22.4932 17.5598 23.0932 17.1864 23.4665Z" fill="url(#paint3_linear)"/>
<path d="M23.0268 17.6267L19.4401 21.2133C19.0668 21.5867 18.4668 21.5867 18.0935 21.2133C17.7201 20.84 17.7201 20.24 18.0935 19.8667L21.6801 16.28C22.0535 15.9067 22.6535 15.9067 23.0268 16.28C23.3868 16.6533 23.3868 17.2533 23.0268 17.6267Z" fill="url(#paint4_linear)"/>
<defs>
<linearGradient id="paint0_linear" x1="29.3332" y1="27.3335" x2="28.0147" y2="34.2004" gradientUnits="userSpaceOnUse">
<stop stop-color="#4AAF86"/>
<stop offset="0.833333" stop-color="#88D39F"/>
<stop offset="1" stop-color="#7AE49B"/>
</linearGradient>
<linearGradient id="paint1_linear" x1="28.8748" y1="5.29345" x2="-0.123963" y2="16.6211" gradientUnits="userSpaceOnUse">
<stop stop-color="#4AAF86"/>
<stop offset="0.833333" stop-color="#88D39F"/>
<stop offset="1" stop-color="#7AE49B"/>
</linearGradient>
<linearGradient id="paint2_linear" x1="21.3201" y1="2.67187" x2="-1.73837" y2="11.6854" gradientUnits="userSpaceOnUse">
<stop stop-color="#4AAF86"/>
<stop offset="0.833333" stop-color="#88D39F"/>
<stop offset="1" stop-color="#7AE49B"/>
</linearGradient>
<linearGradient id="paint3_linear" x1="17.4664" y1="21.8398" x2="12.9942" y2="23.5868" gradientUnits="userSpaceOnUse">
<stop stop-color="#4AAF86"/>
<stop offset="0.833333" stop-color="#88D39F"/>
<stop offset="1" stop-color="#7AE49B"/>
</linearGradient>
<linearGradient id="paint4_linear" x1="23.2968" y1="16" x2="16.6778" y2="18.5808" gradientUnits="userSpaceOnUse">
<stop stop-color="#4AAF86"/>
<stop offset="0.833333" stop-color="#88D39F"/>
<stop offset="1" stop-color="#7AE49B"/>
</linearGradient>
</defs>
</svg>
