<svg width="32" height="32" viewBox="0 0 32 32" fill="none" xmlns="http://www.w3.org/2000/svg">
<path opacity="0.4" d="M25.7331 10.56V17.4267C25.7331 21.5333 23.3865 23.2933 19.8665 23.2933H8.14644C7.54644 23.2933 6.97311 23.24 6.43978 23.12C6.10645 23.0667 5.78646 22.9734 5.49312 22.8667C3.49312 22.12 2.27979 20.3867 2.27979 17.4267V10.56C2.27979 6.45331 4.62644 4.69336 8.14644 4.69336H19.8665C22.8531 4.69336 24.9998 5.96002 25.5731 8.85335C25.6665 9.38669 25.7331 9.93331 25.7331 10.56Z" fill="url(#paint0_linear)"/>
<path d="M29.7333 14.5601V21.4268C29.7333 25.5335 27.3866 27.2935 23.8666 27.2935H12.1466C11.1599 27.2935 10.2666 27.1602 9.49329 26.8669C7.90662 26.2802 6.82661 25.0669 6.43994 23.1202C6.97327 23.2402 7.54661 23.2935 8.14661 23.2935H19.8666C23.3866 23.2935 25.7333 21.5335 25.7333 17.4268V10.5601C25.7333 9.93347 25.6799 9.37352 25.5733 8.85352C28.1066 9.38685 29.7333 11.1735 29.7333 14.5601Z" fill="url(#paint1_linear)"/>
<path d="M14 17.52C15.944 17.52 17.52 15.944 17.52 14C17.52 12.056 15.944 10.48 14 10.48C12.056 10.48 10.48 12.056 10.48 14C10.48 15.944 12.056 17.52 14 17.52Z" fill="url(#paint2_linear)"/>
<path d="M6.37354 11C5.82687 11 5.37354 11.4533 5.37354 12V16C5.37354 16.5467 5.82687 17 6.37354 17C6.9202 17 7.37354 16.5467 7.37354 16V12C7.37354 11.4533 6.93354 11 6.37354 11Z" fill="url(#paint3_linear)"/>
<path d="M21.6133 11C21.0666 11 20.6133 11.4533 20.6133 12V16C20.6133 16.5467 21.0666 17 21.6133 17C22.1599 17 22.6133 16.5467 22.6133 16V12C22.6133 11.4533 22.1733 11 21.6133 11Z" fill="url(#paint4_linear)"/>
<defs>
<linearGradient id="paint0_linear" x1="25.7331" y1="4.69336" x2="-0.513917" y2="17.6214" gradientUnits="userSpaceOnUse">
<stop stop-color="#4AAF86"/>
<stop offset="0.833333" stop-color="#88D39F"/>
<stop offset="1" stop-color="#7AE49B"/>
</linearGradient>
<linearGradient id="paint1_linear" x1="29.7333" y1="8.85351" x2="3.68358" y2="21.7074" gradientUnits="userSpaceOnUse">
<stop stop-color="#4AAF86"/>
<stop offset="0.833333" stop-color="#88D39F"/>
<stop offset="1" stop-color="#7AE49B"/>
</linearGradient>
<linearGradient id="paint2_linear" x1="17.52" y1="10.48" x2="9.02604" y2="13.7979" gradientUnits="userSpaceOnUse">
<stop stop-color="#4AAF86"/>
<stop offset="0.833333" stop-color="#88D39F"/>
<stop offset="1" stop-color="#7AE49B"/>
</linearGradient>
<linearGradient id="paint3_linear" x1="7.37354" y1="11" x2="4.63865" y2="11.3561" gradientUnits="userSpaceOnUse">
<stop stop-color="#4AAF86"/>
<stop offset="0.833333" stop-color="#88D39F"/>
<stop offset="1" stop-color="#7AE49B"/>
</linearGradient>
<linearGradient id="paint4_linear" x1="22.6133" y1="11" x2="19.8784" y2="11.3561" gradientUnits="userSpaceOnUse">
<stop stop-color="#4AAF86"/>
<stop offset="0.833333" stop-color="#88D39F"/>
<stop offset="1" stop-color="#7AE49B"/>
</linearGradient>
</defs>
</svg>
