<svg width="34" height="34" viewBox="0 0 34 34" fill="none" xmlns="http://www.w3.org/2000/svg">
<path opacity="0.4" d="M17 34C26.3888 34 34 26.3888 34 17C34 7.61116 26.3888 0 17 0C7.61116 0 0 7.61116 0 17C0 26.3888 7.61116 34 17 34Z" fill="url(#paint0_linear)"/>
<path d="M20.868 17.5L18.2836 16.597V10.8215H18.8998C20.2861 10.8215 21.4156 12.0311 21.4156 13.5133C21.4156 14.2119 21.9976 14.7911 22.6993 14.7911C23.401 14.7911 23.9829 14.2119 23.9829 13.5133C23.9829 10.617 21.7066 8.26593 18.8998 8.26593H18.2836V7.27778C18.2836 6.57926 17.7017 6 17 6C16.2983 6 15.7164 6.57926 15.7164 7.27778V8.26593H14.6039C12.0709 8.26593 10 10.3956 10 13.0022C10 16.0519 11.78 17.023 13.132 17.5L15.7164 18.403V24.1615H15.1002C13.7139 24.1615 12.5844 22.9519 12.5844 21.4696C12.5844 20.7711 12.0024 20.1919 11.3007 20.1919C10.599 20.1919 10.0171 20.7711 10.0171 21.4696C10.0171 24.3659 12.2934 26.717 15.1002 26.717H15.7164V27.7222C15.7164 28.4207 16.2983 29 17 29C17.7017 29 18.2836 28.4207 18.2836 27.7222V26.7341H19.3961C21.9291 26.7341 24 24.6044 24 21.9978C23.9829 18.9311 22.2029 17.96 20.868 17.5ZM13.9878 15.0978C13.1149 14.7911 12.5844 14.5015 12.5844 13.0193C12.5844 11.8096 13.4914 10.8385 14.621 10.8385H15.7335V15.7111L13.9878 15.0978ZM19.3961 24.1785H18.2836V19.3059L20.0122 19.9022C20.8851 20.2089 21.4156 20.4985 21.4156 21.9807C21.4156 23.1904 20.5086 24.1785 19.3961 24.1785Z" fill="url(#paint1_linear)"/>
<defs>
<linearGradient id="paint0_linear" x1="34" y1="1.04925e-06" x2="-0.596446" y2="34.1942" gradientUnits="userSpaceOnUse">
<stop stop-color="#DD7C13"/>
<stop offset="1" stop-color="#DD1313"/>
</linearGradient>
<linearGradient id="paint1_linear" x1="24" y1="6" x2="3.32233" y2="18.4401" gradientUnits="userSpaceOnUse">
<stop stop-color="#DD7C13"/>
<stop offset="1" stop-color="#DD1313"/>
</linearGradient>
</defs>
</svg>
