<svg width="35" height="35" viewBox="0 0 35 35" fill="none" xmlns="http://www.w3.org/2000/svg">
<path opacity="0.4" d="M30.4937 16.2168C30.4937 23.348 25.3167 30.0272 18.2437 31.9813C17.7625 32.1126 17.2375 32.1126 16.7562 31.9813C9.6833 30.0272 4.50623 23.348 4.50623 16.2168V9.81471C4.50623 8.61888 5.41041 7.26263 6.53333 6.81054L14.6562 3.48555C16.4791 2.7418 18.5354 2.7418 20.3583 3.48555L28.4812 6.81054C29.5896 7.26263 30.5083 8.61888 30.5083 9.81471L30.4937 16.2168Z" fill="url(#paint0_linear)"/>
<path d="M21.1459 15.3123C21.1459 13.2998 19.5125 11.6665 17.5 11.6665C15.4875 11.6665 13.8542 13.2998 13.8542 15.3123C13.8542 16.9457 14.9334 18.3019 16.4063 18.7686V22.604C16.4063 23.2019 16.9021 23.6978 17.5 23.6978C18.0979 23.6978 18.5938 23.2019 18.5938 22.604V18.7686C20.0667 18.3019 21.1459 16.9457 21.1459 15.3123Z" fill="url(#paint1_linear)"/>
<defs>
<linearGradient id="paint0_linear" x1="29.0782" y1="2.92773" x2="6.98203" y2="17.5448" gradientUnits="userSpaceOnUse">
<stop stop-color="#E1FFD3"/>
<stop offset="0.301844" stop-color="#96DBAA"/>
<stop offset="1" stop-color="#4AAF86"/>
</linearGradient>
<linearGradient id="paint1_linear" x1="20.7448" y1="11.6665" x2="13.3341" y2="14.9975" gradientUnits="userSpaceOnUse">
<stop stop-color="#E1FFD3"/>
<stop offset="0.301844" stop-color="#96DBAA"/>
<stop offset="1" stop-color="#4AAF86"/>
</linearGradient>
</defs>
</svg>
