<svg width="32" height="32" viewBox="0 0 32 32" fill="none" xmlns="http://www.w3.org/2000/svg">
<path opacity="0.4" d="M29.3332 10.3599V11.9999H2.6665V10.0532C2.6665 6.99987 5.1465 4.5332 8.19984 4.5332H21.3332V7.95987C21.3332 9.6532 22.3465 10.6665 24.0398 10.6665H27.9598C28.4932 10.6665 28.9465 10.5732 29.3332 10.3599Z" fill="url(#paint0_linear)"/>
<path d="M2.6665 12V21.9467C2.6665 25 5.1465 27.4667 8.19984 27.4667H23.7998C26.8532 27.4667 29.3332 25 29.3332 21.9467V12H2.6665ZM10.6665 23H7.99984C7.45317 23 6.99984 22.5467 6.99984 22C6.99984 21.4533 7.45317 21 7.99984 21H10.6665C11.2132 21 11.6665 21.4533 11.6665 22C11.6665 22.5467 11.2132 23 10.6665 23ZM19.3332 23H13.9998C13.4532 23 12.9998 22.5467 12.9998 22C12.9998 21.4533 13.4532 21 13.9998 21H19.3332C19.8798 21 20.3332 21.4533 20.3332 22C20.3332 22.5467 19.8798 23 19.3332 23Z" fill="url(#paint1_linear)"/>
<path d="M27.9602 1.3335H24.0402C22.3468 1.3335 21.3335 2.34683 21.3335 4.04016V7.96016C21.3335 9.6535 22.3468 10.6668 24.0402 10.6668H27.9602C29.6535 10.6668 30.6668 9.6535 30.6668 7.96016V4.04016C30.6668 2.34683 29.6535 1.3335 27.9602 1.3335ZM25.3468 8.76016C25.3068 8.80016 25.2135 8.8535 25.1468 8.8535L23.7602 9.0535C23.7202 9.06683 23.6668 9.06683 23.6268 9.06683C23.4268 9.06683 23.2535 9.00016 23.1335 8.86683C22.9735 8.70683 22.9068 8.48016 22.9468 8.24016L23.1468 6.8535C23.1602 6.78683 23.2002 6.6935 23.2402 6.6535L25.5068 4.38683C25.5468 4.48016 25.5868 4.58683 25.6268 4.6935C25.6802 4.80016 25.7335 4.8935 25.7868 4.98683C25.8268 5.06683 25.8802 5.14683 25.9335 5.20016C25.9868 5.28016 26.0402 5.36016 26.0802 5.40016C26.1068 5.44016 26.1202 5.4535 26.1335 5.46683C26.2535 5.6135 26.3868 5.74683 26.5068 5.84016C26.5335 5.86683 26.5602 5.8935 26.5735 5.8935C26.6402 5.94683 26.7202 6.0135 26.7735 6.0535C26.8535 6.10683 26.9202 6.16016 27.0002 6.20016C27.0935 6.2535 27.2002 6.30683 27.3068 6.36016C27.4135 6.4135 27.5202 6.4535 27.6135 6.48016L25.3468 8.76016ZM28.5335 5.5735L28.1068 6.00016C28.0802 6.04016 28.0402 6.0535 28.0002 6.0535C27.9868 6.0535 27.9735 6.0535 27.9602 6.0535C27.0002 5.7735 26.2402 5.0135 25.9602 4.0535C25.9468 4.00016 25.9602 3.94683 26.0002 3.90683L26.4402 3.46683C27.1602 2.74683 27.8402 2.76016 28.5468 3.46683C28.9068 3.82683 29.0802 4.1735 29.0802 4.52016C29.0668 4.86683 28.8935 5.2135 28.5335 5.5735Z" fill="url(#paint2_linear)"/>
<defs>
<linearGradient id="paint0_linear" x1="29.3332" y1="4.5332" x2="16.7467" y2="22.0925" gradientUnits="userSpaceOnUse">
<stop stop-color="#4AAF86"/>
<stop offset="0.833333" stop-color="#88D39F"/>
<stop offset="1" stop-color="#7AE49B"/>
</linearGradient>
<linearGradient id="paint1_linear" x1="29.3332" y1="12" x2="3.82164" y2="29.1818" gradientUnits="userSpaceOnUse">
<stop stop-color="#4AAF86"/>
<stop offset="0.833333" stop-color="#88D39F"/>
<stop offset="1" stop-color="#7AE49B"/>
</linearGradient>
<linearGradient id="paint2_linear" x1="30.6668" y1="1.33349" x2="19.4059" y2="5.73228" gradientUnits="userSpaceOnUse">
<stop stop-color="#4AAF86"/>
<stop offset="0.833333" stop-color="#88D39F"/>
<stop offset="1" stop-color="#7AE49B"/>
</linearGradient>
</defs>
</svg>
