<svg width="35" height="35" viewBox="0 0 35 35" fill="none" xmlns="http://www.w3.org/2000/svg">
<path d="M24.4271 5.1915V2.9165C24.4271 2.31859 23.9312 1.82275 23.3333 1.82275C22.7354 1.82275 22.2396 2.31859 22.2396 2.9165V5.104H12.7604V2.9165C12.7604 2.31859 12.2646 1.82275 11.6666 1.82275C11.0687 1.82275 10.5729 2.31859 10.5729 2.9165V5.1915C6.63539 5.55608 4.72498 7.904 4.43331 11.3894C4.40414 11.8123 4.75414 12.1623 5.16248 12.1623H29.8375C30.2604 12.1623 30.6104 11.7978 30.5666 11.3894C30.275 7.904 28.3646 5.55608 24.4271 5.1915Z" fill="url(#paint0_linear)"/>
<path opacity="0.4" d="M30.625 15.8084V18.3459C30.625 19.2354 29.8375 19.9209 28.9625 19.775C28.5542 19.7167 28.1313 19.673 27.7083 19.673C23.2896 19.673 19.6875 23.275 19.6875 27.6938C19.6875 28.3646 19.95 29.298 20.2271 30.1438C20.5479 31.0917 19.8479 32.0688 18.8417 32.0688H11.6667C6.5625 32.0688 4.375 29.1521 4.375 24.7771V15.7938C4.375 14.9917 5.03125 14.3354 5.83333 14.3354H29.1667C29.9688 14.35 30.625 15.0063 30.625 15.8084Z" fill="url(#paint1_linear)"/>
<path d="M27.7083 21.875C24.4854 21.875 21.875 24.4854 21.875 27.7083C21.875 28.8021 22.1813 29.8375 22.7208 30.7125C23.7271 32.4042 25.5792 33.5417 27.7083 33.5417C29.8375 33.5417 31.6896 32.4042 32.6958 30.7125C33.2354 29.8375 33.5417 28.8021 33.5417 27.7083C33.5417 24.4854 30.9312 21.875 27.7083 21.875ZM30.7271 27.0813L27.6208 29.9542C27.4167 30.1438 27.1396 30.2458 26.8771 30.2458C26.6 30.2458 26.3229 30.1437 26.1042 29.925L24.6604 28.4812C24.2375 28.0583 24.2375 27.3583 24.6604 26.9354C25.0833 26.5125 25.7833 26.5125 26.2063 26.9354L26.9062 27.6354L29.2396 25.4771C29.6771 25.0688 30.3771 25.0979 30.7854 25.5354C31.1937 25.9729 31.1646 26.6583 30.7271 27.0813Z" fill="url(#paint2_linear)"/>
<path d="M12.3958 21.875C12.0167 21.875 11.6375 21.7146 11.3604 21.4521C11.0979 21.175 10.9375 20.7958 10.9375 20.4167C10.9375 20.0375 11.0979 19.6583 11.3604 19.3813C11.6958 19.0458 12.2062 18.8854 12.6875 18.9875C12.775 19.0021 12.8625 19.0312 12.95 19.075C13.0375 19.1041 13.125 19.1479 13.2125 19.2063C13.2854 19.2646 13.3583 19.3229 13.4312 19.3813C13.6937 19.6583 13.8542 20.0375 13.8542 20.4167C13.8542 20.7958 13.6937 21.175 13.4312 21.4521C13.3583 21.5104 13.2854 21.5687 13.2125 21.6271C13.125 21.6854 13.0375 21.7292 12.95 21.7583C12.8625 21.8021 12.775 21.8313 12.6875 21.8458C12.5854 21.8604 12.4833 21.875 12.3958 21.875Z" fill="url(#paint3_linear)"/>
<path d="M17.5 21.875C17.1208 21.875 16.7417 21.7146 16.4646 21.4521C16.2021 21.175 16.0417 20.7958 16.0417 20.4167C16.0417 20.0375 16.2021 19.6583 16.4646 19.3812C17.0188 18.8417 17.9958 18.8417 18.5354 19.3812C18.7979 19.6583 18.9583 20.0375 18.9583 20.4167C18.9583 20.7958 18.7979 21.175 18.5354 21.4521C18.2583 21.7146 17.8792 21.875 17.5 21.875Z" fill="url(#paint4_linear)"/>
<path d="M12.3958 26.979C12.0167 26.979 11.6375 26.8186 11.3604 26.5561C11.0979 26.279 10.9375 25.8999 10.9375 25.5207C10.9375 25.1415 11.0979 24.7624 11.3604 24.4853C11.5063 24.354 11.6521 24.2519 11.8417 24.179C12.3813 23.9457 13.0229 24.077 13.4312 24.4853C13.6937 24.7624 13.8542 25.1415 13.8542 25.5207C13.8542 25.8999 13.6937 26.279 13.4312 26.5561C13.1542 26.8186 12.775 26.979 12.3958 26.979Z" fill="url(#paint5_linear)"/>
<defs>
<linearGradient id="paint0_linear" x1="29.1327" y1="1.82275" x2="22.0607" y2="15.0822" gradientUnits="userSpaceOnUse">
<stop stop-color="#E1FFD3"/>
<stop offset="0.301844" stop-color="#96DBAA"/>
<stop offset="1" stop-color="#4AAF86"/>
</linearGradient>
<linearGradient id="paint1_linear" x1="29.1812" y1="14.3354" x2="14.6395" y2="30.3001" gradientUnits="userSpaceOnUse">
<stop stop-color="#E1FFD3"/>
<stop offset="0.301844" stop-color="#96DBAA"/>
<stop offset="1" stop-color="#4AAF86"/>
</linearGradient>
<linearGradient id="paint2_linear" x1="32.9" y1="21.875" x2="23.7051" y2="28.6945" gradientUnits="userSpaceOnUse">
<stop stop-color="#E1FFD3"/>
<stop offset="0.301844" stop-color="#96DBAA"/>
<stop offset="1" stop-color="#4AAF86"/>
</linearGradient>
<linearGradient id="paint3_linear" x1="13.6938" y1="18.957" x2="11.3943" y2="20.6617" gradientUnits="userSpaceOnUse">
<stop stop-color="#E1FFD3"/>
<stop offset="0.301844" stop-color="#96DBAA"/>
<stop offset="1" stop-color="#4AAF86"/>
</linearGradient>
<linearGradient id="paint4_linear" x1="18.7979" y1="18.9766" x2="16.5094" y2="20.6845" gradientUnits="userSpaceOnUse">
<stop stop-color="#E1FFD3"/>
<stop offset="0.301844" stop-color="#96DBAA"/>
<stop offset="1" stop-color="#4AAF86"/>
</linearGradient>
<linearGradient id="paint5_linear" x1="13.6938" y1="24.064" x2="11.3959" y2="25.7691" gradientUnits="userSpaceOnUse">
<stop stop-color="#E1FFD3"/>
<stop offset="0.301844" stop-color="#96DBAA"/>
<stop offset="1" stop-color="#4AAF86"/>
</linearGradient>
</defs>
</svg>
