<svg width="35" height="35" viewBox="0 0 35 35" fill="none" xmlns="http://www.w3.org/2000/svg">
<path opacity="0.4" d="M2.91666 18.7833V16.2166C2.91666 14.6999 4.15624 13.4458 5.68749 13.4458C8.32707 13.4458 9.40624 11.5791 8.07916 9.28951C7.32082 7.97701 7.77291 6.27076 9.09999 5.51243L11.6229 4.06868C12.775 3.38326 14.2625 3.79159 14.9479 4.94368L15.1083 5.22076C16.4208 7.51034 18.5792 7.51034 19.9062 5.22076L20.0667 4.94368C20.7521 3.79159 22.2396 3.38326 23.3917 4.06868L25.9146 5.51243C27.2417 6.27076 27.6937 7.97701 26.9354 9.28951C25.6083 11.5791 26.6875 13.4458 29.3271 13.4458C30.8437 13.4458 32.0979 14.6853 32.0979 16.2166V18.7833C32.0979 20.2999 30.8583 21.5541 29.3271 21.5541C26.6875 21.5541 25.6083 23.4208 26.9354 25.7103C27.6937 27.0374 27.2417 28.7291 25.9146 29.4874L23.3917 30.9312C22.2396 31.6166 20.7521 31.2083 20.0667 30.0562L19.9062 29.7791C18.5937 27.4895 16.4354 27.4895 15.1083 29.7791L14.9479 30.0562C14.2625 31.2083 12.775 31.6166 11.6229 30.9312L9.09999 29.4874C7.77291 28.7291 7.32082 27.0228 8.07916 25.7103C9.40624 23.4208 8.32707 21.5541 5.68749 21.5541C4.15624 21.5541 2.91666 20.2999 2.91666 18.7833Z" fill="url(#paint0_linear)"/>
<path d="M17.5 22.2394C20.1176 22.2394 22.2396 20.1174 22.2396 17.4998C22.2396 14.8822 20.1176 12.7603 17.5 12.7603C14.8824 12.7603 12.7604 14.8822 12.7604 17.4998C12.7604 20.1174 14.8824 22.2394 17.5 22.2394Z" fill="url(#paint1_linear)"/>
<defs>
<linearGradient id="paint0_linear" x1="30.4929" y1="3.73486" x2="8.46008" y2="21.0558" gradientUnits="userSpaceOnUse">
<stop stop-color="#E1FFD3"/>
<stop offset="0.301844" stop-color="#96DBAA"/>
<stop offset="1" stop-color="#4AAF86"/>
</linearGradient>
<linearGradient id="paint1_linear" x1="21.7182" y1="12.7603" x2="14.2473" y2="18.3011" gradientUnits="userSpaceOnUse">
<stop stop-color="#E1FFD3"/>
<stop offset="0.301844" stop-color="#96DBAA"/>
<stop offset="1" stop-color="#4AAF86"/>
</linearGradient>
</defs>
</svg>
