<svg width="32" height="32" viewBox="0 0 32 32" fill="none" xmlns="http://www.w3.org/2000/svg">
<path opacity="0.4" d="M21.5868 2.6665H10.4268C5.57351 2.6665 2.68018 5.55983 2.68018 10.4132V21.5732C2.68018 26.4265 5.57351 29.3198 10.4268 29.3198H21.5868C26.4402 29.3198 29.3335 26.4265 29.3335 21.5732V10.4132C29.3335 5.55983 26.4402 2.6665 21.5868 2.6665Z" fill="url(#paint0_linear)"/>
<path d="M25.3332 19.9998H24.9998V19.3332V18.6665V14.6665V10.3332C24.9998 8.3065 23.3598 6.6665 21.3332 6.6665H10.6665C8.63984 6.6665 6.99984 8.3065 6.99984 10.3332V14.6665V18.6665V19.3332V19.9998H6.6665C6.11984 19.9998 5.6665 20.4532 5.6665 20.9998C5.6665 21.5465 6.11984 21.9998 6.6665 21.9998H7.99984H11.7865C12.2399 23.9065 13.9598 25.3332 15.9998 25.3332C18.0398 25.3332 19.7598 23.9065 20.2131 21.9998H23.9998H25.3332C25.8798 21.9998 26.3332 21.5465 26.3332 20.9998C26.3332 20.4532 25.8798 19.9998 25.3332 19.9998ZM22.3865 15.8398C22.3065 15.8132 22.2265 15.7865 22.1331 15.7598C21.8665 15.7065 21.5998 15.6665 21.3198 15.6665H10.6532C10.3732 15.6665 10.1065 15.7065 9.83984 15.7598C9.75984 15.7732 9.67984 15.8132 9.58651 15.8398C9.41317 15.8932 9.23983 15.9465 9.07983 16.0265C9.03983 16.0398 8.99981 16.0532 8.97314 16.0665V14.6665C8.97314 13.7465 9.71981 12.9998 10.6398 12.9998H21.3065C22.2265 12.9998 22.9731 13.7465 22.9731 14.6665V16.0665C22.9331 16.0532 22.9065 16.0398 22.8665 16.0265C22.7332 15.9465 22.5598 15.8932 22.3865 15.8398ZM10.6665 8.6665H21.3332C22.2532 8.6665 22.9998 9.41317 22.9998 10.3332V11.4132C22.4932 11.1598 21.9332 10.9998 21.3332 10.9998H10.6665C10.0665 10.9998 9.5065 11.1598 8.99984 11.4132V10.3332C8.99984 9.41317 9.7465 8.6665 10.6665 8.6665ZM19.3332 19.9998C18.7865 19.9998 18.3332 20.4532 18.3332 20.9998C18.3332 22.2798 17.2798 23.3332 15.9998 23.3332C14.7198 23.3332 13.6665 22.2798 13.6665 20.9998C13.6665 20.4532 13.2132 19.9998 12.6665 19.9998H8.99984V19.3332C8.99984 18.4132 9.7465 17.6665 10.6665 17.6665H21.3332C22.2532 17.6665 22.9998 18.4132 22.9998 19.3332V19.9998H19.3332Z" fill="url(#paint1_linear)"/>
<defs>
<linearGradient id="paint0_linear" x1="29.3335" y1="2.6665" x2="-2.82438" y2="15.2282" gradientUnits="userSpaceOnUse">
<stop stop-color="#4AAF86"/>
<stop offset="0.833333" stop-color="#88D39F"/>
<stop offset="1" stop-color="#7AE49B"/>
</linearGradient>
<linearGradient id="paint1_linear" x1="26.3332" y1="6.6665" x2="2.12197" y2="17.1373" gradientUnits="userSpaceOnUse">
<stop stop-color="#4AAF86"/>
<stop offset="0.833333" stop-color="#88D39F"/>
<stop offset="1" stop-color="#7AE49B"/>
</linearGradient>
</defs>
</svg>
