<svg width="34" height="34" viewBox="0 0 34 34" fill="none" xmlns="http://www.w3.org/2000/svg">
<circle cx="17" cy="17" r="17" fill="#EDF0F4"/>
<path fill-rule="evenodd" clip-rule="evenodd" d="M12.5898 27.4428C13.9872 28.0333 15.4711 28.3334 17.0011 28.3334C18.5314 28.3334 20.0145 28.0333 21.4123 27.4381C24.1287 26.2865 26.2911 24.124 27.4426 21.4076C28.0331 20.0102 28.3332 18.5263 28.3332 16.9963C28.3371 12.4404 25.61 8.32596 21.4123 6.55494C20.0145 5.96448 18.5264 5.66675 16.9986 5.66675C12.4426 5.66274 8.3281 8.38992 6.55708 12.5876C5.96661 13.9854 5.6665 15.4685 5.6665 16.9988C5.6665 18.5292 5.96661 20.0127 6.55957 21.4126C7.71112 24.1289 9.87347 26.2913 12.5898 27.4428ZM10.7667 10.7645C12.4323 9.10166 14.6466 8.18366 17.0011 8.18366L17.0009 8.18388C19.3554 8.18388 21.5692 9.10154 23.2352 10.7647C24.898 12.4303 25.816 14.6446 25.816 16.9991C25.816 19.3536 24.8984 21.5674 23.2352 23.2334C21.5697 24.8962 19.3554 25.8142 17.0009 25.8142C14.6464 25.8142 12.4325 24.8966 10.7665 23.2334C9.10356 21.5674 8.1859 19.3533 8.1859 16.9988C8.1859 14.6443 9.10073 12.4305 10.7667 10.7645Z" fill="black"/>
<path d="M16.32 19.8208H21.2307V22.2885H18.207C18.2562 22.9945 18.2833 23.6485 18.3325 24.3526H15.7883V22.3126H12.7646C12.7646 21.5057 12.6637 20.7011 12.8138 19.9458C12.8901 19.5423 13.3427 19.1905 13.6207 18.8386C14.5778 17.7044 15.5348 16.5973 16.5165 15.4631C16.8954 15.035 17.2718 14.6316 17.6999 14.1542H12.9909V11.6871H15.7859V9.6228H18.2289V11.6378H21.2775C21.2775 12.4693 21.3784 13.2738 21.2283 14.0316C21.1521 14.435 20.6994 14.7868 20.3968 15.1387C19.4397 16.273 18.4827 17.38 17.501 18.5143C17.127 18.9645 16.7507 19.3655 16.3201 19.8206" fill="black"/>
</svg>
