<svg width="34" height="34" viewBox="0 0 34 34" fill="none" xmlns="http://www.w3.org/2000/svg">
<circle cx="17" cy="17" r="17" fill="#8DC351"/>
<path fill-rule="evenodd" clip-rule="evenodd" d="M22.5397 11.2741C21.6888 9.15964 19.6679 9.05392 17.2216 9.4768L16.3707 6.5166L14.5626 7.04521L15.4135 9.89969C15.2411 9.94252 15.0513 10.0027 14.8511 10.0662C14.5571 10.1594 14.2408 10.2597 13.9244 10.3226L13.0735 7.36237L11.2654 7.89098L12.1163 10.8512C11.9036 10.904 11.7174 10.9569 11.5313 11.0098L11.5313 11.0098L11.5312 11.0098C11.3451 11.0626 11.159 11.1155 10.9463 11.1683L8.5 12.0141L9.03181 13.9171C9.03181 13.9171 10.4145 13.4942 10.3081 13.4942C11.0527 13.2828 11.3718 13.5999 11.5845 14.0228L12.5417 17.4059H12.7544L12.5417 17.5116L13.9244 22.2691C13.9244 22.4805 13.9244 22.9034 13.3926 23.1149L12.1163 23.5377L12.329 25.7579L14.6689 25.1236L15.9453 24.8064L16.7962 27.7666L18.6043 27.238L17.7534 24.2778C18.2852 24.1721 18.7107 24.0664 19.2425 23.8549L20.0934 26.8151L21.9015 26.2865L21.0506 23.3263C24.0287 22.2691 25.9432 20.8947 25.4114 17.9345C24.986 15.6086 23.6033 14.8686 21.6888 14.9743C22.7524 13.9171 23.1778 12.8599 22.5397 11.2741ZM21.9015 18.4631C22.4641 20.4202 19.4726 21.3093 17.8816 21.7822C17.6677 21.8458 17.4792 21.9018 17.328 21.9519L16.158 17.9345C16.3257 17.8928 16.5357 17.8311 16.7757 17.7605L16.7757 17.7605C18.3614 17.294 21.2548 16.4429 21.9015 18.4631ZM15.9228 16.0521C17.1944 15.6929 19.9357 14.9186 19.3488 13.0713C18.8678 11.1585 16.2106 12.0143 14.9208 12.4298C14.7848 12.4736 14.664 12.5125 14.5626 12.5427L15.6262 16.1372C15.7117 16.1118 15.8116 16.0835 15.9228 16.0521Z" fill="white"/>
</svg>
