<svg width="34" height="34" viewBox="0 0 34 34" fill="none" xmlns="http://www.w3.org/2000/svg">
<g clip-path="url(#clip0)">
<path d="M33.4671 21.1134C31.1966 30.2206 21.9724 35.7631 12.8641 33.492C3.75963 31.2215 -1.78285 21.9968 0.488617 12.8903C2.75809 3.7821 11.9822 -1.7608 21.0877 0.509675C30.1954 2.78015 35.7375 12.0059 33.4668 21.1135L33.467 21.1134H33.4671Z" fill="#F7931A"/>
<path d="M24.496 14.566C24.8343 12.3037 23.1119 11.0876 20.7567 10.2763L21.5208 7.21182L19.6553 6.74699L18.9115 9.73083C18.4211 9.60851 17.9175 9.49326 17.4169 9.37901L18.1661 6.37547L16.3018 5.91064L15.5373 8.97417C15.1315 8.88177 14.7329 8.79045 14.3461 8.69422L14.3483 8.68459L11.7758 8.04218L11.2795 10.0346C11.2795 10.0346 12.6636 10.3519 12.6344 10.3714C13.3898 10.5599 13.5264 11.06 13.5037 11.4564L12.6334 14.9476C12.6854 14.9608 12.7529 14.9799 12.8273 15.0098C12.7651 14.9944 12.6989 14.9775 12.6302 14.961L11.4103 19.8517C11.3179 20.0812 11.0836 20.4257 10.5555 20.2949C10.5742 20.322 9.19961 19.9565 9.19961 19.9565L8.27344 22.0919L10.701 22.6971C11.1527 22.8103 11.5952 22.9288 12.0311 23.0402L11.2591 26.1399L13.1224 26.6047L13.8869 23.538C14.3959 23.6762 14.8899 23.8036 15.3735 23.9238L14.6116 26.9761L16.4772 27.4409L17.249 24.3471C20.4301 24.9491 22.8219 24.7064 23.8287 21.8291C24.64 19.5126 23.7883 18.1765 22.1148 17.3051C23.3337 17.024 24.2518 16.2223 24.4966 14.5663L24.496 14.5658L24.496 14.566ZM20.2338 20.5427C19.6573 22.8592 15.757 21.6069 14.4925 21.2929L15.5169 17.1864C16.7813 17.5021 20.8363 18.1268 20.2339 20.5427H20.2338ZM20.8107 14.5324C20.2848 16.6395 17.0386 15.569 15.9855 15.3065L16.9143 11.5822C17.9673 11.8447 21.3586 12.3346 20.8109 14.5324H20.8107Z" fill="white"/>
</g>
<defs>
<clipPath id="clip0">
<rect width="34" height="34" fill="white"/>
</clipPath>
</defs>
</svg>
