<svg width="34" height="34" viewBox="0 0 34 34" fill="none" xmlns="http://www.w3.org/2000/svg">
<path d="M33.4876 21.1124C31.2171 30.2196 21.9929 35.7621 12.8846 33.491C3.78014 31.2206 -1.76234 21.9958 0.509125 12.8894C2.7786 3.78112 12.0028 -1.76177 21.1082 0.508698C30.2159 2.77917 35.758 12.0049 33.4873 21.1125L33.4875 21.1124H33.4876Z" fill="#50AF95"/>
<path fill-rule="evenodd" clip-rule="evenodd" d="M19.1511 18.9273V18.9273C19.0309 18.9363 18.4099 18.9734 17.0245 18.9734C15.9226 18.9734 15.1403 18.9403 14.8658 18.9273V18.9273C10.6075 18.74 7.42911 17.9987 7.42911 17.1112C7.42911 16.2237 10.6075 15.4834 14.8658 15.2931V18.189C15.1443 18.2091 15.9417 18.2561 17.0435 18.2561C18.3658 18.2561 19.0279 18.2011 19.1471 18.19V15.2951C23.3964 15.4844 26.5678 16.2257 26.5678 17.1112C26.5678 17.9967 23.3974 18.738 19.1471 18.9263V18.9263L19.1511 18.9273ZM19.1511 14.9956V12.4041H25.0813V8.45239H8.93568V12.4041H14.8648V14.9946C10.0456 15.2159 6.42139 16.1706 6.42139 17.3145C6.42139 18.4585 10.0456 19.4121 14.8648 19.6345V27.9387H19.1501V19.6315C23.9583 19.4101 27.5765 18.4565 27.5765 17.3135C27.5765 16.1706 23.9614 15.2169 19.1501 14.9946V14.9946L19.1511 14.9956Z" fill="white"/>
</svg>
