<svg width="101" height="100" viewBox="0 0 101 100" fill="none" xmlns="http://www.w3.org/2000/svg">
<circle cx="50.5" cy="50" r="50" fill="#D4F0E2"/>
<path d="M50.5 73.5C62.9264 73.5 73 63.4264 73 51C73 38.5736 62.9264 28.5 50.5 28.5C38.0736 28.5 28 38.5736 28 51C28 63.4264 38.0736 73.5 50.5 73.5Z" fill="url(#paint0_linear)"/>
<path d="M47.3055 59.0551C46.8555 59.0551 46.428 58.8751 46.113 58.5601L39.7455 52.1926C39.093 51.5401 39.093 50.4601 39.7455 49.8076C40.398 49.1551 41.478 49.1551 42.1305 49.8076L47.3055 54.9826L58.8705 43.4176C59.523 42.7651 60.603 42.7651 61.2555 43.4176C61.908 44.0701 61.908 45.1501 61.2555 45.8026L48.498 58.5601C48.183 58.8751 47.7555 59.0551 47.3055 59.0551Z" fill="white"/>
<defs>
<linearGradient id="paint0_linear" x1="73" y1="28.5" x2="18.7064" y2="49.7084" gradientUnits="userSpaceOnUse">
<stop stop-color="#4AAF86"/>
<stop offset="0.833333" stop-color="#88D39F"/>
<stop offset="1" stop-color="#7AE49B"/>
</linearGradient>
</defs>
</svg>
