<svg width="34" height="34" viewBox="0 0 34 34" fill="none" xmlns="http://www.w3.org/2000/svg">
<path d="M17 34C26.3888 34 34 26.3888 34 17C34 7.61116 26.3888 0 17 0C7.61116 0 0 7.61116 0 17C0 26.3888 7.61116 34 17 34Z" fill="url(#paint0_linear)"/>
<path d="M6.33148 17.8317C8.31878 16.737 10.5371 15.8234 12.6099 14.9051C16.1758 13.401 19.7558 11.923 23.372 10.547C24.0756 10.3126 25.3397 10.0833 25.4637 11.1259C25.3958 12.6018 25.1166 14.0691 24.9251 15.5363C24.439 18.7629 23.8771 21.9785 23.3292 25.1944C23.1404 26.2657 21.7985 26.8202 20.9398 26.1347C18.8763 24.7409 16.7969 23.3605 14.7598 21.9344C14.0925 21.2563 14.7113 20.2826 15.3073 19.7983C17.0068 18.1234 18.8093 16.7004 20.42 14.9389C20.8545 13.8897 19.5707 14.7739 19.1472 15.0449C16.8205 16.6483 14.5507 18.3495 12.0976 19.7587C10.8446 20.4485 9.38414 19.859 8.13167 19.4741C7.00869 19.0092 5.36308 18.5407 6.33137 17.8318L6.33148 17.8317Z" fill="white"/>
<defs>
<linearGradient id="paint0_linear" x1="22.6681" y1="5.6678" x2="14.1681" y2="25.5" gradientUnits="userSpaceOnUse">
<stop stop-color="#37AEE2"/>
<stop offset="1" stop-color="#1E96C8"/>
</linearGradient>
</defs>
</svg>
