<svg width="34" height="28" viewBox="0 0 34 28" fill="none" xmlns="http://www.w3.org/2000/svg">
<path d="M10.6923 27.8133C23.5226 27.8133 30.5402 17.1835 30.5402 7.96545C30.5402 7.66353 30.5402 7.36297 30.5198 7.06377C31.885 6.07629 33.0634 4.85361 34 3.45297C32.727 4.01737 31.3764 4.38734 29.9934 4.55049C31.4497 3.6788 32.5396 2.3076 33.0602 0.692172C31.691 1.50478 30.1929 2.07743 28.6307 2.38537C27.579 1.26702 26.188 0.52648 24.6729 0.278342C23.1579 0.0302026 21.6033 0.288301 20.2498 1.0127C18.8962 1.73709 17.8191 2.8874 17.1852 4.28562C16.5513 5.68383 16.3959 7.252 16.743 8.74745C13.9696 8.60833 11.2565 7.88758 8.77973 6.63198C6.30297 5.37638 4.11792 3.61399 2.3664 1.45921C1.47437 2.99487 1.20115 4.81278 1.60239 6.54281C2.00363 8.27284 3.04915 9.7849 4.52608 10.7711C3.41591 10.7386 2.32992 10.4391 1.36 9.89801V9.98641C1.36044 11.5969 1.91796 13.1578 2.93798 14.4041C3.95801 15.6504 5.37775 16.5056 6.9564 16.8245C5.92943 17.1046 4.85191 17.1456 3.80664 16.9442C4.25257 18.3301 5.12044 19.5421 6.28892 20.4107C7.4574 21.2792 8.86809 21.761 10.3238 21.7885C8.87745 22.9253 7.2212 23.7659 5.44974 24.262C3.67828 24.7581 1.82639 24.9001 0 24.6799C3.1901 26.727 6.90189 27.8128 10.6923 27.8079" fill="#1DA1F2"/>
</svg>
