<svg width="34" height="34" viewBox="0 0 34 34" fill="none" xmlns="http://www.w3.org/2000/svg">
<path d="M17 34C26.3888 34 34 26.3888 34 17C34 7.61116 26.3888 0 17 0C7.61116 0 0 7.61116 0 17C0 26.3888 7.61116 34 17 34Z" fill="#FF5700"/>
<path fill-rule="evenodd" clip-rule="evenodd" d="M29.4663 16.7785C29.4663 15.2237 28.1959 13.9586 26.6339 13.9586C25.9195 13.9586 25.2677 14.2258 24.769 14.6619C22.9944 13.5269 20.6483 12.7884 18.0502 12.6591L19.4164 8.35994L23.144 9.23383C23.1858 10.4862 24.2194 11.4933 25.4879 11.4933C26.7823 11.4933 27.8356 10.4449 27.8356 9.15581C27.8356 7.86675 26.7821 6.81836 25.4879 6.81836C24.5475 6.81836 23.7371 7.37274 23.3621 8.16889L19.1736 7.18776C18.8961 7.12298 18.6142 7.28205 18.5292 7.55276L16.9119 12.6423C14.1457 12.6963 11.6362 13.4401 9.75558 14.6247C9.26243 14.2101 8.62585 13.9586 7.93196 13.9586C6.37 13.9589 5.09961 15.2237 5.09961 16.7785C5.09961 17.7685 5.61574 18.6388 6.3927 19.1416C6.35311 19.3941 6.33179 19.65 6.33179 19.9088C6.33179 23.9185 11.2217 27.1809 17.2331 27.1809C23.2439 27.1809 28.1344 23.9185 28.1344 19.9088C28.1344 19.6687 28.1161 19.4313 28.0821 19.1965C28.9086 18.7047 29.4663 17.8065 29.4663 16.7785ZM25.4879 7.90507C26.1809 7.90507 26.7447 8.46662 26.7447 9.15664C26.7447 9.84666 26.1809 10.4079 25.4879 10.4079C24.7945 10.4079 24.2308 9.84666 24.2308 9.15664C24.2308 8.46662 24.7945 7.90507 25.4879 7.90507ZM7.93168 15.0448C6.97169 15.0448 6.19057 15.8228 6.19057 16.7785C6.19057 17.261 6.38966 17.6973 6.71058 18.0119C7.12066 17.001 7.84778 16.0761 8.8194 15.2901C8.55885 15.1355 8.25592 15.0448 7.93168 15.0448ZM27.0435 19.9094C27.0435 23.3198 22.6419 26.095 17.2331 26.095C11.8234 26.095 7.42275 23.32 7.42275 19.9094C7.42275 19.7892 7.42939 19.6706 7.43992 19.5524C7.47287 19.1899 7.55704 18.8353 7.68524 18.4918C8.01779 17.6014 8.65576 16.7843 9.52714 16.0877C9.80598 15.8647 10.1081 15.654 10.4315 15.4575C12.1967 14.3848 14.594 13.7232 17.2331 13.7232C19.9104 13.7232 22.3401 14.4036 24.1111 15.5038C24.4354 15.7048 24.7367 15.9203 25.0141 16.1483C25.8509 16.8345 26.4625 17.6345 26.7851 18.5043C26.9122 18.8488 26.9964 19.2036 27.0279 19.567C27.0376 19.6808 27.0435 19.7944 27.0435 19.9094ZM25.6883 15.3252C26.6594 16.121 27.3849 17.0553 27.7833 18.0767C28.1452 17.7591 28.375 17.2954 28.3756 16.7785C28.3756 15.8225 27.5945 15.0448 26.6342 15.0448C26.2853 15.0448 25.9608 15.1484 25.6883 15.3252Z" fill="white"/>
<path d="M15.3114 18.6018C15.3114 17.686 14.5655 16.9177 13.6454 16.9177C12.7255 16.9177 11.9541 17.686 11.9541 18.6018C11.9541 19.5173 12.7258 20.2608 13.6454 20.2608C14.5655 20.2597 15.3114 19.5173 15.3114 18.6018Z" fill="white"/>
<path d="M20.9457 16.9172C20.0259 16.9172 19.252 17.6853 19.252 18.6011C19.252 19.5171 20.0259 20.2601 20.9457 20.2601C21.8658 20.2601 22.6123 19.5177 22.6123 18.6011C22.6118 17.6847 21.8658 16.9172 20.9457 16.9172Z" fill="white"/>
<path d="M20.4746 22.6226C19.8574 23.2362 18.8182 23.5342 17.2956 23.5342C17.2909 23.5342 17.2867 23.5356 17.2823 23.5356C17.2776 23.5356 17.2737 23.5342 17.2693 23.5342C15.7463 23.5342 14.7069 23.2362 14.0905 22.6226C13.8776 22.4103 13.532 22.4103 13.3191 22.6226C13.1059 22.8351 13.1059 23.1789 13.3191 23.3903C14.15 24.2179 15.4423 24.6207 17.2693 24.6207C17.274 24.6207 17.2778 24.619 17.2823 24.619C17.2867 24.619 17.2909 24.6207 17.2956 24.6207C19.1222 24.6207 20.4148 24.2179 21.2466 23.3909C21.46 23.1783 21.46 22.8349 21.2471 22.6231C21.0336 22.4109 20.6881 22.4109 20.4746 22.6226Z" fill="white"/>
</svg>
