<svg width="34" height="34" viewBox="0 0 34 34" fill="none" xmlns="http://www.w3.org/2000/svg">
<path d="M31.4901 0H2.50986C1.8442 0 1.20581 0.264431 0.735122 0.735122C0.264431 1.20581 0 1.8442 0 2.50986V31.4901C0 32.1558 0.264431 32.7942 0.735122 33.2649C1.20581 33.7356 1.8442 34 2.50986 34H31.4901C32.1558 34 32.7942 33.7356 33.2649 33.2649C33.7356 32.7942 34 32.1558 34 31.4901V2.50986C34 1.8442 33.7356 1.20581 33.2649 0.735122C32.7942 0.264431 32.1558 0 31.4901 0ZM10.1339 28.9637H5.02208V12.7264H10.1339V28.9637ZM7.57445 10.4763C6.9946 10.473 6.42871 10.298 5.94821 9.97346C5.4677 9.64889 5.09411 9.18925 4.87458 8.65256C4.65505 8.11587 4.59942 7.52617 4.71471 6.95789C4.83 6.38962 5.11105 5.86823 5.52239 5.45952C5.93372 5.05082 6.4569 4.77313 7.02591 4.66149C7.59492 4.54984 8.18424 4.60926 8.71951 4.83223C9.25479 5.0552 9.71201 5.43174 10.0335 5.91432C10.355 6.3969 10.5263 6.9639 10.5258 7.54375C10.5313 7.93196 10.4586 8.31731 10.3119 8.67681C10.1653 9.03631 9.94781 9.36261 9.67239 9.63626C9.39698 9.90991 9.06929 10.1253 8.70885 10.2696C8.34842 10.4139 7.96262 10.4842 7.57445 10.4763ZM28.9756 28.9779H23.8661V20.1072C23.8661 17.4911 22.754 16.6836 21.3185 16.6836C19.8026 16.6836 18.3151 17.8264 18.3151 20.1733V28.9779H13.2033V12.7382H18.1192V14.9883H18.1853C18.6788 13.9896 20.4071 12.2825 23.0444 12.2825C25.8967 12.2825 28.9779 13.9754 28.9779 18.9338L28.9756 28.9779Z" fill="#0A66C2"/>
</svg>
