<svg width="34" height="34" viewBox="0 0 34 34" fill="none" xmlns="http://www.w3.org/2000/svg">
<path fill-rule="evenodd" clip-rule="evenodd" d="M17 34C26.3888 34 34 26.3888 34 17C34 7.61116 26.3888 0 17 0C7.61116 0 0 7.61116 0 17C0 26.3888 7.61116 34 17 34Z" fill="#12100E"/>
<path d="M8.35482 11.5487C8.38298 11.2639 8.27688 10.9825 8.06911 10.7908L5.95271 8.18152V7.79175H12.5241L17.6035 19.1925L22.0691 7.79175H28.3337V8.18152L26.5241 9.95714C26.3681 10.0788 26.2907 10.2789 26.3231 10.4768V23.5233C26.2907 23.7213 26.3681 23.9213 26.5241 24.043L28.2913 25.8186V26.2084H19.4024V25.8186L21.2331 23.9997C21.413 23.8157 21.413 23.7615 21.413 23.48V12.9346L16.3231 26.1651H15.6352L9.70932 12.9346V21.8018C9.65991 22.1746 9.78089 22.55 10.0374 22.8196L12.4183 25.7753V26.1651H5.66699V25.7753L8.04794 22.8196C8.30255 22.5495 8.41647 22.1717 8.35482 21.8018V11.5487Z" fill="white"/>
</svg>
